<svg width="736" height="100" viewBox="0 0 736 100" fill="none" xmlns="http://www.w3.org/2000/svg">
<path d="M442.873 37.5C437.14 37.5 431.602 38.969 427.8 41.8981L431.068 47.9523C433.739 45.7621 437.87 44.4266 441.876 44.4266C447.805 44.4266 450.743 47.2934 450.743 52.1456V52.6798H441.547C430.738 52.6798 426.741 57.3362 426.741 63.2568C426.741 69.4444 431.878 73.9049 440.015 73.9049C445.348 73.9049 449.221 72.1777 451.215 69.115V73.4419H459.086V52.6086C459.077 42.3611 453.138 37.5 442.873 37.5ZM450.743 62.313C449.346 65.9722 445.811 67.833 441.742 67.833C437.478 67.833 434.94 65.901 434.94 62.9095C434.94 60.3187 436.472 58.1909 442.143 58.1909H450.743V62.313Z" fill="black"/>
<path d="M485.75 73.896C492.686 73.896 498.224 70.9046 500.948 65.5805L494.547 61.8501C492.41 65.2422 489.214 66.7735 485.679 66.7735C479.545 66.7735 474.871 62.5801 474.871 55.6624C474.871 48.807 479.536 44.5513 485.679 44.5513C489.214 44.5513 492.41 46.0826 494.547 49.4747L500.948 45.7532C498.215 40.3668 492.686 37.5 485.75 37.5C474.479 37.5 466.475 45.0142 466.475 55.6713C466.475 66.3105 474.479 73.896 485.75 73.896Z" fill="black"/>
<path d="M521.087 37.5C515.353 37.5 509.816 38.969 506.014 41.8981L509.281 47.9523C511.952 45.7621 516.083 44.4266 520.081 44.4266C526.019 44.4266 528.948 47.2934 528.948 52.1456V52.6798H519.751C508.943 52.6798 504.946 57.3362 504.946 63.2568C504.946 69.4444 510.083 73.9049 518.22 73.9049C523.553 73.9049 527.417 72.1777 529.42 69.115V73.4419H537.291V52.6086C537.291 42.3611 531.361 37.5 521.087 37.5ZM528.957 62.313C527.56 65.9722 524.025 67.833 519.956 67.833C515.683 67.833 513.154 65.901 513.154 62.9095C513.154 60.3187 514.686 58.1909 520.357 58.1909H528.957V62.313Z" fill="black"/>
<path d="M574.168 24.0651V42.2898C571.372 39.0313 567.303 37.4999 562.7 37.4999C552.364 37.4999 544.698 44.6224 544.698 55.6712C544.698 66.7111 552.364 73.8959 562.7 73.8959C567.57 73.8959 571.701 72.231 574.506 68.839V73.433H582.51V24.0651H574.168ZM563.698 66.7734C557.697 66.7734 553.094 62.4465 553.094 55.6623C553.094 48.8781 557.697 44.5512 563.698 44.5512C569.698 44.5512 574.301 48.8781 574.301 55.6623C574.301 62.4465 569.698 66.7734 563.698 66.7734Z" fill="black"/>
<path d="M626.251 55.8583C626.251 44.7472 618.647 37.4911 608.24 37.4911C597.636 37.4911 589.837 45.0766 589.837 55.6624C589.837 66.2394 597.574 73.8872 609.513 73.8872C615.647 73.8872 620.651 71.8929 623.856 68.1001L619.386 62.9719C616.858 65.5716 613.715 66.8359 609.718 66.8359C603.512 66.8359 599.185 63.5061 598.179 58.3156H626.117C626.18 57.5232 626.251 56.526 626.251 55.8583ZM598.108 52.8045C598.909 47.614 602.844 44.1596 608.24 44.1596C613.706 44.1596 617.641 47.6852 618.309 52.8045H598.108Z" fill="black"/>
<path d="M678.53 37.5C672.859 37.5 668.06 39.7614 665.193 43.4206C662.727 39.432 658.391 37.5 653.192 37.5C648.322 37.5 644.191 39.2272 641.52 42.4234V37.9006H633.587V73.433H641.929V55.4042C641.929 48.3529 645.668 44.7561 651.197 44.7561C656.263 44.7561 659.201 47.8187 659.201 54.14V73.433H667.535V55.4042C667.535 48.3529 671.336 44.7561 676.803 44.7561C681.869 44.7561 684.807 47.8187 684.807 54.14V73.433H693.14V53.0716C693.131 42.3611 687.13 37.5 678.53 37.5Z" fill="black"/>
<path d="M735.813 37.9006H727.809L716.537 64.1827L705.328 37.9006H696.657L712.193 73.5666L711.596 74.9644C709.994 78.49 708.266 79.8878 705.328 79.8878C703.067 79.8878 700.797 78.953 699.194 77.4216L695.864 83.547C698.135 85.6036 701.865 86.8056 705.4 86.8056C711.329 86.8056 715.87 84.3394 719.137 76.291L735.813 37.9006Z" fill="black"/>
<path d="M122.618 17.6281V15.6605H139.632L151.634 57.6566H151.803L164.312 15.6605H181.254V17.6281H174.782V70.7086H181.254V72.6762H159.976V70.7086H166.529V18.652H166.351L149.844 72.6762H147.636L131.726 18.652H131.548V70.7086H137.932V72.6762H122.618V70.7086H128.993V17.6281H122.618Z" fill="black"/>
<path d="M209.833 62.7759C209.833 66.3639 208.64 67.2987 207.964 67.9842C205.916 69.7738 204.135 70.4593 201.411 70.4593C197.493 70.4593 194.858 67.9041 194.858 63.7196C194.858 55.8671 204.304 54.9323 209.833 54.8521V62.7759ZM221.229 66.7823C220.811 68.2335 219.956 70.6285 218.256 70.6285C216.466 70.6285 216.466 69.2663 216.466 66.7022V46.3942C216.466 42.9843 216.466 38.0252 204.892 38.0252C194.769 38.0252 191.279 43.1445 191.279 46.2161C191.279 48.611 192.561 50.3115 194.858 50.3115C196.977 50.3115 198.348 48.8603 198.348 46.7236C198.348 43.9102 195.793 43.4828 195.793 42.7973C195.793 40.3222 201.829 39.7257 203.708 39.7257C206.681 39.7257 209.833 40.9276 209.833 44.934V53.0448C196.817 53.0448 188.733 57.4786 188.475 65.4201C188.475 71.7325 193.069 73.7802 198.428 73.7802C202.764 73.7802 207.02 72.1598 209.922 68.5719C210.519 71.7325 212.308 73.7802 215.451 73.7802C219.368 73.7802 222.431 70.7976 222.689 66.7823H221.229Z" fill="black"/>
<path d="M351.473 39.7346C360.065 39.7346 360.154 48.7802 360.154 55.8582C360.154 63.0252 360.065 72.0708 351.473 72.0708C342.882 72.0708 342.793 63.0252 342.793 55.8582C342.793 48.7802 342.882 39.7346 351.473 39.7346ZM351.473 38.0252C342.543 38.0252 335.056 45.5394 335.056 55.8582C335.056 66.1858 342.543 73.7802 351.473 73.7802C360.403 73.7802 367.891 66.1858 367.891 55.8582C367.891 45.5394 360.403 38.0252 351.473 38.0252Z" fill="black"/>
<path d="M372.396 72.6764V70.7088H378.948V17.9577H372.396V15.9901H376.055C379.207 15.9901 382.519 15.821 385.581 15.2245V70.7088H392.134V72.6764H372.396Z" fill="black"/>
<path d="M311.24 72.6762V70.7086H316.938V40.8475H311.24V38.8799H314.044C317.196 38.8799 320.508 38.7998 323.571 38.0252V70.7086H328.592V72.6762H311.24Z" fill="black"/>
<path d="M320.17 24.3856C322.208 24.3856 324.505 26.2553 324.505 28.4811C324.505 31.1164 322.636 32.995 320.17 32.995C317.703 32.995 316.083 30.9472 316.083 28.4811C316.092 26.2553 318.051 24.3856 320.17 24.3856Z" fill="black"/>
<path d="M399.969 72.6762V70.7086H405.667V40.8475H399.969V38.8799H402.773C405.925 38.8799 409.237 38.7998 412.3 38.0252V70.7086H417.321V72.6762H399.969Z" fill="black"/>
<path d="M408.898 24.3856C410.937 24.3856 413.234 26.2553 413.234 28.4811C413.234 31.1164 411.364 32.995 408.898 32.995C406.432 32.995 404.812 30.9472 404.812 28.4811C404.821 26.2553 406.779 24.3856 408.898 24.3856Z" fill="black"/>
<path d="M244.493 67.361H235.385C234.112 67.361 233.168 66.5063 233.168 65.5715C233.168 61.3069 240.994 61.2179 249.426 60.105C251.215 59.9358 258.026 57.4607 258.026 49.439C258.026 47.0441 256.833 44.8272 256.833 43.8924C256.833 43.0377 258.676 41.8446 259.522 41.8446C260.127 41.8446 260.973 44.3998 262.415 44.3998C264.205 44.3998 265.14 42.8596 265.14 41.1591C265.14 38.9333 263.359 38.2567 261.819 38.2567C259.014 38.2567 256.406 41.0701 255.551 43.0377C253.343 39.7079 249.844 38.0875 244.921 38.0875C236.498 38.0875 232.67 44.4889 232.67 49.8664C232.67 54.7364 235.225 57.6299 239.044 59.5085V59.6865C235.813 60.194 230.542 61.5651 230.542 66.2481C230.542 72.4002 235.474 72.9967 239.81 73.5932V73.8514C235.474 74.9643 229.856 77.2613 229.856 83.2442C229.856 86.8233 233.943 92.1207 246.194 92.1207C254.278 92.1207 263.466 88.3635 263.466 77.8667C263.466 75.3115 262.78 72.9166 261.08 70.9579C258.364 67.8685 256.147 67.361 244.493 67.361ZM238.902 49.6616C238.902 41.5508 240.95 39.5031 245.197 39.5031C250.307 39.5031 250.984 44.6224 250.984 48.887C250.984 54.1755 250.565 58.6093 244.342 58.6093C239.668 58.6182 238.902 53.5078 238.902 49.6616ZM245.027 89.8592C240.603 89.8592 234.905 88.0697 234.905 82.6032C234.905 79.7008 237.709 72.8721 247.752 72.8721C258.551 72.8721 260.091 75.356 260.091 80.3774C260.091 81.7485 259.495 89.8592 245.027 89.8592Z" fill="black"/>
<path d="M284.139 67.361H275.031C273.758 67.361 272.814 66.5063 272.814 65.5715C272.814 61.3069 280.64 61.2179 289.071 60.105C290.861 59.9358 297.672 57.4607 297.672 49.439C297.672 47.0441 296.479 44.8272 296.479 43.8924C296.479 43.0377 298.322 41.8446 299.167 41.8446C299.773 41.8446 300.619 44.3998 302.061 44.3998C303.85 44.3998 304.776 42.8596 304.776 41.1591C304.776 38.9333 302.996 38.2567 301.455 38.2567C298.651 38.2567 296.042 41.0701 295.188 43.0377C292.98 39.7079 289.481 38.0875 284.557 38.0875C276.135 38.0875 272.307 44.4889 272.307 49.8664C272.307 54.7364 274.862 57.6299 278.681 59.5085V59.6865C275.449 60.194 270.179 61.5651 270.179 66.2481C270.179 72.4002 275.111 72.9967 279.447 73.5932V73.8514C275.111 74.9643 269.493 77.2613 269.493 83.2442C269.493 86.8233 273.58 92.1207 285.83 92.1207C293.914 92.1207 303.103 88.3635 303.103 77.8667C303.103 75.3115 302.417 72.9166 300.716 70.9579C298.01 67.8685 295.793 67.361 284.139 67.361ZM278.548 49.6616C278.548 41.5508 280.586 39.5031 284.842 39.5031C289.953 39.5031 290.629 44.6224 290.629 48.887C290.629 54.1755 290.211 58.6093 283.996 58.6093C279.313 58.6182 278.548 53.5078 278.548 49.6616ZM284.673 89.8592C280.248 89.8592 274.55 88.0697 274.55 82.6032C274.55 79.7008 277.355 72.8721 287.397 72.8721C298.197 72.8721 299.737 75.356 299.737 80.3774C299.737 81.7485 299.141 89.8592 284.673 89.8592Z" fill="black"/>
<path d="M27.8267 8.64495C41.4306 5.75143 54.8299 2.90242 68.4784 0C69.5289 4.22009 70.6151 8.5203 71.7903 13.2212C58.3199 16.088 44.8495 18.9548 31.1386 21.8661C30.1059 17.7439 29.0286 13.4348 27.8267 8.64495Z" fill="black"/>
<path d="M27.7463 91.355C41.3503 94.2485 54.7495 97.0975 68.398 100C69.4486 95.7799 70.5348 91.4797 71.71 86.7788C58.2396 83.912 44.7691 81.0452 31.0583 78.1339C30.0255 82.256 28.9483 86.5651 27.7463 91.355Z" fill="black"/>
<path d="M100.69 32.4875C98.4284 45.6909 96.1938 58.7073 93.9235 71.964C89.4185 71.3052 84.8245 70.6375 79.812 69.9163C82.0556 56.8376 84.2903 43.7589 86.5784 30.4398C90.9676 31.0719 95.5794 31.7397 100.69 32.4875Z" fill="black"/>
<path d="M14.8013 30.1549C17.0627 43.3583 19.2974 56.3746 21.5677 69.6314C17.0627 70.2902 12.4687 70.958 7.45619 71.6791C5.2126 58.6004 2.96901 45.5217 0.680908 32.2026" fill="black"/>
<path d="M70.0895 31.0452H31.2273V68.8925H70.0895V31.0452Z" fill="black"/>
</svg>
