<svg width="90" height="109" viewBox="0 0 90 109" fill="none" xmlns="http://www.w3.org/2000/svg">
<path fill-rule="evenodd" clip-rule="evenodd" d="M24 21.3318C24 9.73381 33.402 0.331787 45 0.331787C56.598 0.331787 66 9.73381 66 21.3318V56.3318H52V44.3318C52 40.4658 48.866 37.3318 45 37.3318C41.134 37.3318 38 40.4658 38 44.3318V56.3318H24V21.3318ZM45 28.3318C48.866 28.3318 52 25.1978 52 21.3318C52 17.4658 48.866 14.3318 45 14.3318C41.134 14.3318 38 17.4658 38 21.3318C38 25.1978 41.134 28.3318 45 28.3318Z" fill="#ED7C63"/>
<path fill-rule="evenodd" clip-rule="evenodd" d="M78.5 100.332C72.5 100.332 67.5 98.2318 67.5 89.8318C67.5 81.4318 73.0238 79.3318 78.5 79.3318C83.9762 79.3318 89.5 81.4318 89.5 89.8318C89.5 98.2318 84.5 100.332 78.5 100.332ZM73.5 89.8318C73.5 86.2863 74.5 83.3318 78.5 83.3318C82.5 83.3318 83.5 86.5959 83.5 89.8318C83.5 93.0677 82.5 96.3318 78.5 96.3318C74.5 96.3318 73.5 93.3772 73.5 89.8318Z" fill="#595959"/>
<path fill-rule="evenodd" clip-rule="evenodd" d="M0.5 100.332L11.5 72.3318H16.5L27.5 100.332H21.5L19.1136 93.3318H8.88636L6.5 100.332H0.5ZM10.25 89.3318H17.75L14 78.3318L10.25 89.3318Z" fill="#595959"/>
<path d="M34.5 79.3318H29.5V100.332H35.5V85.5663C37.294 84.625 39.8857 84.3318 41.5 84.3318V79.3318C38.0368 79.3318 35.7536 80.7199 34.5 81.9939V79.3318Z" fill="#595959"/>
<path fill-rule="evenodd" clip-rule="evenodd" d="M43.5 89.8318C43.5 84.3318 45.4 79.3318 53 79.3318C56.7125 79.3318 59.0648 80.5249 60.5 82.3865V79.3318H64.5V99.3318C64.5 106.532 57.1667 108.332 53.5 108.332C50.9749 108.332 46.9783 107.721 44.0826 105.786L46.3593 102.123C47.9209 103.315 50.3665 104.332 53.5 104.332C58.3 104.332 59.5 100.998 59.5 99.3318V98.3314C58.0452 99.577 55.9528 100.332 53 100.332C45.4 100.332 43.5 95.3318 43.5 89.8318ZM48.5 89.8318C48.5 86.427 49.6 83.3318 54 83.3318C58.4 83.3318 59.5 86.3318 59.5 89.8318C59.5 93.3318 58.4 96.3318 54 96.3318C49.6 96.3318 48.5 93.2365 48.5 89.8318Z" fill="#595959"/>
</svg>
