<svg width="24" height="24" viewBox="0 0 24 24" fill="none" xmlns="http://www.w3.org/2000/svg">
<path d="M6 11.5C6 12.8807 7.11929 14 8.5 14H16C17.1046 14 18 13.1046 18 12C18 10.8954 17.1046 10 16 10C15.6028 10 15.2327 10.1158 14.9215 10.3154C14.6118 8.98842 13.4213 8 12 8C11.0007 8 10.1154 8.48864 9.57024 9.24002C9.2458 9.08611 8.88296 9 8.5 9C7.11929 9 6 10.1193 6 11.5Z" fill="black"/>
<path fill-rule="evenodd" clip-rule="evenodd" d="M20 18V19H24V21H0V19H4V18C2.9 18 2 17.1 2 16V6C2 4.9 2.9 4 4 4H20C21.1 4 22 4.9 22 6L21.99 16C21.99 17.1 21.1 18 20 18ZM20 6H4V16H20V6Z" fill="black"/>
</svg>
