<svg width="24" height="24" viewBox="0 0 24 24" fill="none" xmlns="http://www.w3.org/2000/svg">
<path d="M22 19C22 19.5304 21.7893 20.0391 21.4142 20.4142C21.0391 20.7893 20.5304 21 20 21H4C3.46957 21 2.96086 20.7893 2.58579 20.4142C2.21071 20.0391 2 19.5304 2 19V15C2 14.4696 2.21071 13.9609 2.58579 13.5858C2.96086 13.2107 3.46957 13 4 13H20C20.5304 13 21.0391 13.2107 21.4142 13.5858C21.7893 13.9609 22 14.4696 22 15V19ZM4 19H8V15H4V19ZM10 19H14V15H10V19ZM16 19H20V15H16V19Z" fill="#033562"/>
<path d="M8 8L12 4L16 8H13V11H11V8H8Z" fill="#033562"/>
</svg>
