<svg width="60" height="64" viewBox="0 0 60 64" fill="none" xmlns="http://www.w3.org/2000/svg">
<path d="M48.3307 53.9315C48.3307 52.1819 48.3085 49.9497 46.1809 49.9497C44.0523 49.9497 44.0311 52.1819 44.0311 53.9315C44.0311 55.7011 44.0523 57.9351 46.1809 57.9351C48.3085 57.9351 48.3307 55.7011 48.3307 53.9315Z" fill="white"/>
<path d="M41.6965 8.11922C41.6965 7.21883 42.155 7.00968 42.4515 7.00968C42.7503 7.00968 43.2066 7.21883 43.2066 8.11922C43.2066 9.01916 42.7503 9.22921 42.4515 9.22921C42.155 9.22921 41.6965 9.01916 41.6965 8.11922Z" fill="white"/>
<path d="M37.5253 7.13454H37.0043V7.95526H37.457C37.7594 7.95526 38.0794 7.93263 38.0794 7.52521C38.0794 7.15717 37.8105 7.13454 37.5253 7.13454Z" fill="white"/>
<path d="M32.7208 7.13454H32.1993V7.95526H32.6524C32.9548 7.95526 33.274 7.93263 33.274 7.52521C33.274 7.15717 33.0083 7.13454 32.7208 7.13454Z" fill="white"/>
<path d="M22.6487 7.06115H22.1019V7.86512H22.7134C22.9307 7.86512 23.2286 7.82483 23.2286 7.46268C23.2286 7.20827 23.0955 7.06115 22.6487 7.06115Z" fill="white"/>
<path fill-rule="evenodd" clip-rule="evenodd" d="M0 0.58139H60V60.5815H39.7286C39.8567 60.2234 39.9278 59.8174 39.9278 59.3595C39.9278 58.9034 39.8401 58.4706 39.6339 58.0828H42.7928V57.5975H41.5511V49.527C40.791 49.7176 39.9694 49.738 39.1894 49.738H36.6386C36.26 49.6069 35.8258 49.542 35.333 49.542C33.2475 49.542 32.2996 51.121 32.2996 52.4492C32.2996 53.6506 32.9315 54.3659 33.8804 54.8281V54.8724C33.0796 54.9978 32.1878 55.365 31.6133 56.5234C31.492 56.7673 31.389 56.9782 31.3067 57.1611C30.733 56.8344 29.8697 56.7674 27.775 56.7674H25.5206C25.2046 56.7674 24.9728 56.5578 24.9728 56.326C24.9728 55.4396 26.3443 55.2837 28.0213 55.093L28.0216 55.093C28.3383 55.057 28.6659 55.0197 28.9972 54.9761C29.4404 54.9344 31.1258 54.3242 31.1258 52.3437C31.1258 51.9807 31.0142 51.6335 30.9283 51.3664C30.8747 51.1995 30.8311 51.0639 30.8311 50.9752C30.8311 50.762 31.2869 50.4687 31.4979 50.4687C31.5563 50.4687 31.6242 50.566 31.7066 50.6842C31.8343 50.8673 31.997 51.1006 32.214 51.1006C32.6572 51.1006 32.8894 50.7213 32.8894 50.3012C32.8894 49.7525 32.4453 49.5828 32.0683 49.5828C31.3716 49.5828 30.7265 50.2777 30.5142 50.762C29.9664 49.9418 29.1027 49.542 27.8809 49.542C25.7949 49.542 24.847 51.121 24.847 52.4492C24.847 53.6506 25.4789 54.3659 26.4264 54.8281V54.8724C25.6265 54.9978 24.3196 55.3364 24.3196 56.493C24.3196 56.5213 24.3085 56.5456 24.2964 56.5723C24.2885 56.5895 24.2803 56.6076 24.2742 56.6284C24.1701 56.9865 23.9592 57.5772 23.5386 57.5772C23.095 57.5772 23.095 57.2395 23.095 56.608V51.5932C23.095 50.7498 23.095 49.5266 20.2286 49.5266C17.722 49.5266 16.8565 50.7919 16.8565 51.5506C16.8565 52.1395 17.1738 52.5624 17.7433 52.5624C18.2689 52.5624 18.6066 52.2043 18.6066 51.6764C18.6066 51.2111 18.3237 51.0105 18.1366 50.8779C18.0442 50.8123 17.9751 50.7634 17.9751 50.7072C17.9751 50.0952 19.4699 49.9494 19.9348 49.9494C20.6708 49.9494 21.4517 50.2455 21.4517 51.2342V53.236C18.2281 53.236 16.2264 54.3324 16.1621 56.2916C16.1621 57.8502 17.3001 58.3568 18.6274 58.3568C19.7025 58.3568 20.7555 57.9557 21.4735 57.0707C21.6201 57.8502 22.0633 58.3568 22.8419 58.3568C23.5786 58.3568 24.1933 57.9311 24.4739 57.292C24.8294 58.0601 25.7394 58.1856 26.5725 58.3004L26.6166 58.3065V58.3703C25.568 58.6376 24.2196 59.1836 24.1546 60.5815H0V0.58139ZM49.3912 58.0828V57.5975H51.0141V44.5729H49.3912V44.0885H50.2979C51.0788 44.0885 51.8982 44.045 52.6569 43.8984V57.5975L55.1572 57.5975V50.2246H53.7457V49.738H54.4419C55.2219 49.738 56.0422 49.7176 56.8022 49.527V57.5975H58.0453V58.0828L49.3912 58.0828ZM55.9589 46.7504C56.4664 46.7504 57.0328 47.2126 57.0328 47.7627C57.0328 48.4146 56.5696 48.8787 55.9589 48.8787C55.3486 48.8787 54.9474 48.373 54.9474 47.7627C54.9474 47.2126 55.4323 46.7504 55.9589 46.7504ZM42.1153 53.9315C42.1153 51.3829 43.9686 49.5269 46.1809 49.5269C48.3932 49.5269 50.2465 51.3829 50.2465 53.9315C50.2465 56.4806 48.3932 58.357 46.1809 58.357C43.9686 58.357 42.1153 56.4806 42.1153 53.9315ZM41.6047 47.737C41.6047 47.1906 41.0343 46.7265 40.5286 46.7265C40.0016 46.7265 39.5194 47.1906 39.5194 47.737C39.5194 48.3491 39.9178 48.8549 40.5286 48.8549C41.1402 48.8549 41.6047 48.3899 41.6047 47.737ZM1.72125 44.0063V44.4916H3.30203V57.5974H1.72125V58.0827H5.51431V57.5974H3.93398V44.7447H3.97608L7.91672 58.0827H8.46402L12.5513 44.7447H12.5943V57.5974H10.9715V58.0827H16.2403V57.5974H14.6382V44.4916H16.2403V44.0063H12.0466L8.9484 54.3738H8.90675L5.93577 44.0063H1.72125ZM18.5526 10.1404H19.291V7.91545H17.7382V8.78144H18.2548C18.1959 9.08158 17.9198 9.22915 17.6491 9.22915C16.9361 9.22915 16.7926 8.56642 16.7926 8.18752L16.7925 8.16188C16.7918 7.85862 16.7896 7.00962 17.5689 7.00962C17.8451 7.00962 18.0791 7.21877 18.1217 7.51392H19.2439C19.0737 6.56282 18.4621 6.00239 17.4952 6.00239C16.6382 6.00239 15.6228 6.6185 15.6228 8.159C15.6228 9.30837 16.3145 10.2368 17.4358 10.2368C17.8505 10.2368 18.2548 10.0843 18.5146 9.72711L18.5526 10.1404ZM40.5272 8.11922C40.5272 9.3537 41.2985 10.2369 42.4515 10.2369C43.6063 10.2369 44.3764 9.3537 44.3764 8.11922C44.3764 6.88474 43.6063 6.00245 42.4515 6.00245C41.2985 6.00245 40.5272 6.88474 40.5272 8.11922ZM37.0043 10.1404H35.835V6.09879H37.7915C38.8232 6.09879 39.184 6.90231 39.184 7.47994C39.184 8.45865 38.5674 8.91767 37.6946 8.91767H37.0043V10.1404ZM32.1993 10.1404H31.0309V6.09879H32.987C34.0177 6.09879 34.379 6.90231 34.379 7.47994C34.379 8.45865 33.7624 8.91767 32.8915 8.91767H32.1993V10.1404ZM22.1019 10.1403H20.9321V6.09919H23.1593C23.8234 6.09919 24.3988 6.48895 24.3988 7.25309C24.3988 7.67228 24.2173 8.1141 23.8293 8.26711C24.148 8.39658 24.3454 8.7705 24.3879 9.27479C24.3907 9.31014 24.3931 9.35455 24.3958 9.40471C24.4085 9.6352 24.4278 9.98715 24.5151 10.1403H23.3458C23.287 9.93662 23.2657 9.72748 23.2503 9.51743L23.25 9.51387C23.218 9.13017 23.1846 8.73066 22.7234 8.73066H22.1019V10.1403ZM28.2092 6.09894H29.3785V8.5774C29.3785 9.69871 28.8094 10.237 27.6515 10.237C26.4917 10.237 25.9172 9.69871 25.9172 8.5774V6.09894H27.0874V8.30126C27.0874 8.71411 27.0874 9.22927 27.6564 9.22927C28.2092 9.22927 28.2092 8.71411 28.2092 8.30126V6.09894Z" fill="white"/>
<path d="M21.0203 56.8906C21.1908 56.7243 21.4517 56.4698 21.4517 55.6375V53.6778C20.0823 53.6991 17.7433 53.9317 17.7433 55.8688C17.7433 56.9032 18.3961 57.5347 19.3657 57.5347C20.0398 57.5347 20.4825 57.364 20.9886 56.9217C20.9986 56.9118 21.0091 56.9016 21.0199 56.891L21.0203 56.8906Z" fill="white"/>
<path d="M39.906 57.5975H39.2883C38.6337 56.8883 38.0426 56.7674 35.2294 56.7674H32.9732C32.6572 56.7674 32.4259 56.5578 32.4259 56.326C32.4259 55.4396 33.7969 55.2837 35.4739 55.093C35.7907 55.057 36.1184 55.0198 36.4498 54.9761C36.893 54.9344 38.5779 54.3242 38.5779 52.3437C38.5779 51.4143 37.9663 50.762 37.9663 50.762C37.8292 50.5566 37.6723 50.3776 37.495 50.2246H39.906V57.5975Z" fill="white"/>
<path d="M32.8528 60.5328C32.8528 61.8805 34.2642 62.325 35.3606 62.325C38.9441 62.325 39.0921 60.3232 39.0921 59.9864C39.0921 58.7424 38.7123 58.1322 36.0356 58.1322C33.549 58.1322 32.8528 59.8167 32.8528 60.5328Z" fill="white"/>
<path d="M33.8441 52.3994C33.8441 50.3985 34.3507 49.8929 35.4027 49.8929C36.6676 49.8929 36.835 51.1563 36.835 52.2111C36.835 53.5171 36.7296 54.6117 35.1936 54.6117C34.0325 54.6117 33.8441 53.3482 33.8441 52.3994Z" fill="white"/>
<path d="M27.909 62.325C26.8121 62.325 25.4002 61.8805 25.4002 60.5328C25.4002 59.8167 26.0955 58.1322 28.5826 58.1322C31.2575 58.1322 31.6382 58.7424 31.6382 59.9864C31.6382 60.3232 31.4902 62.325 27.909 62.325Z" fill="white"/>
<path d="M27.9497 49.8929C26.8968 49.8929 26.3911 50.3985 26.3911 52.3994C26.3911 53.3482 26.5803 54.6117 27.7388 54.6117C29.2779 54.6117 29.3834 53.5171 29.3834 52.2111C29.3834 51.1563 29.215 49.8929 27.9497 49.8929Z" fill="white"/>
</svg>
