<svg width="200" height="201" viewBox="0 0 200 201" fill="none" xmlns="http://www.w3.org/2000/svg">
<path d="M137.661 147.607C137.661 144.108 137.617 139.644 133.362 139.644C129.105 139.644 129.062 144.108 129.062 147.607C129.062 151.146 129.105 155.614 133.362 155.614C137.617 155.614 137.661 151.146 137.661 147.607Z" fill="#00379E"/>
<path d="M124.393 55.9826C124.393 54.1819 125.31 53.7636 125.903 53.7636C126.501 53.7636 127.413 54.1819 127.413 55.9826C127.413 57.7825 126.501 58.2026 125.903 58.2026C125.31 58.2026 124.393 57.7825 124.393 55.9826Z" fill="#00379E"/>
<path d="M116.051 54.0133H115.009V55.6547H115.914C116.519 55.6547 117.159 55.6095 117.159 54.7946C117.159 54.0585 116.621 54.0133 116.051 54.0133Z" fill="#00379E"/>
<path d="M106.442 54.0133H105.399V55.6547H106.305C106.91 55.6547 107.548 55.6095 107.548 54.7946C107.548 54.0585 107.017 54.0133 106.442 54.0133Z" fill="#00379E"/>
<path d="M86.2974 53.8665H85.2037V55.4744H86.4269C86.8615 55.4744 87.4572 55.3939 87.4572 54.6696C87.4572 54.1607 87.191 53.8665 86.2974 53.8665Z" fill="#00379E"/>
<path fill-rule="evenodd" clip-rule="evenodd" d="M41 40.907H161V160.907H120.457C120.713 160.191 120.856 159.379 120.856 158.463C120.856 157.551 120.68 156.685 120.268 155.91H126.586V154.939H124.102V138.798C122.582 139.179 120.939 139.22 119.379 139.22H114.277C113.52 138.958 112.652 138.828 111.666 138.828C107.495 138.828 105.599 141.986 105.599 144.643C105.599 147.045 106.863 148.476 108.761 149.4V149.489C107.159 149.74 105.376 150.474 104.227 152.791C103.984 153.279 103.778 153.701 103.613 154.066C102.466 153.413 100.739 153.279 96.55 153.279H92.0412C91.4092 153.279 90.9457 152.86 90.9457 152.396C90.9457 150.623 93.6886 150.312 97.0426 149.93L97.0433 149.93C97.6766 149.858 98.3318 149.784 98.9945 149.696C99.8808 149.613 103.252 148.393 103.252 144.432C103.252 143.706 103.028 143.011 102.857 142.477C102.749 142.143 102.662 141.872 102.662 141.695C102.662 141.268 103.574 140.682 103.996 140.682C104.113 140.682 104.248 140.876 104.413 141.113C104.669 141.479 104.994 141.945 105.428 141.945C106.314 141.945 106.779 141.187 106.779 140.347C106.779 139.249 105.891 138.91 105.137 138.91C103.743 138.91 102.453 140.299 102.028 141.268C100.933 139.628 99.2054 138.828 96.7618 138.828C92.5898 138.828 90.694 141.986 90.694 144.643C90.694 147.045 91.9579 148.476 93.8528 149.4V149.489C92.253 149.74 89.6392 150.417 89.6392 152.73C89.6392 152.787 89.6171 152.835 89.5927 152.889C89.5771 152.923 89.5605 152.959 89.5485 153.001C89.3402 153.717 88.9183 154.899 88.0772 154.899C87.19 154.899 87.19 154.223 87.19 152.96V142.93C87.19 141.244 87.19 138.797 81.4571 138.797C76.4441 138.797 74.713 141.328 74.713 142.845C74.713 144.023 75.3477 144.869 76.4866 144.869C77.5378 144.869 78.2132 144.153 78.2132 143.097C78.2132 142.166 77.6474 141.765 77.2732 141.5C77.0883 141.369 76.9502 141.271 76.9502 141.159C76.9502 139.935 79.9397 139.643 80.8695 139.643C82.3417 139.643 83.9034 140.235 83.9034 142.213V146.216C77.4563 146.216 73.4527 148.409 73.3241 152.327C73.3241 155.445 75.6003 156.458 78.2548 156.458C80.4051 156.458 82.511 155.656 83.9469 153.886C84.2402 155.445 85.1266 156.458 86.6839 156.458C88.1572 156.458 89.3866 155.606 89.9478 154.328C90.6587 155.864 92.4788 156.115 94.1451 156.345L94.2331 156.357V156.485C92.136 157.019 89.4391 158.111 89.3091 160.907H41V40.907ZM139.782 155.91V154.939H143.028V128.89H139.782V127.921H141.596C143.158 127.921 144.796 127.834 146.314 127.541V154.939L151.314 154.939V140.193H148.491V139.22H149.884C151.444 139.22 153.084 139.179 154.604 138.798V154.939H157.091V155.91L139.782 155.91ZM152.918 133.245C153.933 133.245 155.066 134.169 155.066 135.27C155.066 136.573 154.139 137.502 152.918 137.502C151.697 137.502 150.895 136.49 150.895 135.27C150.895 134.169 151.865 133.245 152.918 133.245ZM125.231 147.607C125.231 142.51 128.937 138.798 133.362 138.798C137.786 138.798 141.493 142.51 141.493 147.607C141.493 152.705 137.786 156.458 133.362 156.458C128.937 156.458 125.231 152.705 125.231 147.607ZM124.209 135.218C124.209 134.125 123.069 133.197 122.057 133.197C121.003 133.197 120.039 134.125 120.039 135.218C120.039 136.442 120.836 137.454 122.057 137.454C123.28 137.454 124.209 136.524 124.209 135.218ZM44.4425 127.757V128.727H47.6041V154.939H44.4425V155.91H52.0286V154.939H48.868V129.234H48.9522L56.8334 155.91H57.928L66.1027 129.234H66.1887V154.939H62.9429V155.91H73.4806V154.939H70.2764V128.727H73.4806V127.757H65.0932L58.8968 148.492H58.8135L52.8715 127.757H44.4425ZM78.1053 60.025H79.5819V55.5751H76.4765V57.3071H77.5095C77.3918 57.9074 76.8395 58.2025 76.2981 58.2025C74.8722 58.2025 74.5852 56.877 74.5852 56.1192L74.5851 56.068C74.5835 55.4614 74.5791 53.7634 76.1379 53.7634C76.6902 53.7634 77.1582 54.1817 77.2433 54.772H79.4878C79.1473 52.8698 77.9242 51.749 75.9903 51.749C74.2764 51.749 72.2457 52.9812 72.2457 56.0622C72.2457 58.3609 73.6291 60.2179 75.8717 60.2179C76.701 60.2179 77.5095 59.9128 78.0292 59.1984L78.1053 60.025ZM122.054 55.9826C122.054 58.4516 123.597 60.218 125.903 60.218C128.213 60.218 129.753 58.4516 129.753 55.9826C129.753 53.5137 128.213 51.7491 125.903 51.7491C123.597 51.7491 122.054 53.5137 122.054 55.9826ZM115.009 60.025H112.67V51.9418H116.583C118.646 51.9418 119.368 53.5488 119.368 54.7041C119.368 56.6615 118.135 57.5795 116.389 57.5795H115.009V60.025ZM105.399 60.025H103.062V51.9418H106.974C109.035 51.9418 109.758 53.5488 109.758 54.7041C109.758 56.6615 108.525 57.5795 106.783 57.5795H105.399V60.025ZM85.2037 60.0249H82.8642V51.9426H87.3187C88.6468 51.9426 89.7976 52.7221 89.7976 54.2504C89.7976 55.0888 89.4345 55.9724 88.6586 56.2784C89.296 56.5374 89.6907 57.2852 89.7758 58.2938C89.7813 58.3645 89.7862 58.4533 89.7917 58.5536C89.8169 59.0146 89.8555 59.7185 90.0302 60.0249H87.6917C87.574 59.6174 87.5314 59.1992 87.5006 58.7791L87.5 58.7719C87.436 58.0045 87.3692 57.2055 86.4468 57.2055H85.2037V60.0249ZM97.4183 51.9421H99.7569V56.899C99.7569 59.1416 98.6189 60.2181 96.3029 60.2181C93.9833 60.2181 92.8344 59.1416 92.8344 56.899V51.9421H95.1748V56.3467C95.1748 57.1724 95.1748 58.2027 96.3129 58.2027C97.4183 58.2027 97.4183 57.1724 97.4183 56.3467V51.9421Z" fill="#00379E"/>
<path d="M83.0406 153.525C83.3816 153.193 83.9034 152.684 83.9034 151.019V147.1C81.1647 147.142 76.4866 147.608 76.4866 151.482C76.4866 153.551 77.7922 154.814 79.7315 154.814C81.0796 154.814 81.965 154.472 82.9773 153.588C82.9973 153.568 83.0182 153.547 83.0398 153.526L83.0406 153.525Z" fill="#00379E"/>
<path d="M120.812 154.939H119.577C118.267 153.521 117.085 153.279 111.459 153.279H106.946C106.314 153.279 105.852 152.86 105.852 152.396C105.852 150.623 108.594 150.312 111.948 149.93C112.581 149.858 113.237 149.784 113.9 149.696C114.786 149.613 118.156 148.393 118.156 144.432C118.156 142.573 116.933 141.268 116.933 141.268C116.658 140.857 116.345 140.499 115.99 140.193H120.812V154.939Z" fill="#00379E"/>
<path d="M106.706 160.81C106.706 163.505 109.528 164.394 111.721 164.394C118.888 164.394 119.184 160.391 119.184 159.717C119.184 157.229 118.425 156.009 113.071 156.009C108.098 156.009 106.706 159.378 106.706 160.81Z" fill="#00379E"/>
<path d="M108.688 144.543C108.688 140.541 109.701 139.53 111.805 139.53C114.335 139.53 114.67 142.057 114.67 144.166C114.67 146.778 114.459 148.968 111.387 148.968C109.065 148.968 108.688 146.441 108.688 144.543Z" fill="#00379E"/>
<path d="M96.8179 164.394C94.6242 164.394 91.8004 163.505 91.8004 160.81C91.8004 159.378 93.191 156.009 98.1651 156.009C103.515 156.009 104.276 157.229 104.276 159.717C104.276 160.391 103.98 164.394 96.8179 164.394Z" fill="#00379E"/>
<path d="M96.8994 139.53C94.7935 139.53 93.7822 140.541 93.7822 144.543C93.7822 146.441 94.1607 148.968 96.4775 148.968C99.5558 148.968 99.7667 146.778 99.7667 144.166C99.7667 142.057 99.4299 139.53 96.8994 139.53Z" fill="#00379E"/>
</svg>
