<svg width="200" height="210" viewBox="0 0 200 210" fill="none" xmlns="http://www.w3.org/2000/svg">
<path d="M161.102 177.834C161.102 172.002 161.028 164.561 153.936 164.561C146.841 164.561 146.77 172.002 146.77 177.834C146.77 183.732 146.841 191.179 153.936 191.179C161.028 191.179 161.102 183.732 161.102 177.834Z" fill="#00379E"/>
<path d="M138.988 25.1261C138.988 22.1248 140.517 21.4276 141.505 21.4276C142.501 21.4276 144.022 22.1248 144.022 25.1261C144.022 28.1259 142.501 28.8261 141.505 28.8261C140.517 28.8261 138.988 28.1259 138.988 25.1261Z" fill="#00379E"/>
<path d="M125.084 21.8438H123.348V24.5796H124.857C125.865 24.5796 126.931 24.5041 126.931 23.1461C126.931 21.9193 126.035 21.8438 125.084 21.8438Z" fill="#00379E"/>
<path d="M109.069 21.8438H107.331V24.5796H108.841C109.849 24.5796 110.913 24.5041 110.913 23.1461C110.913 21.9193 110.028 21.8438 109.069 21.8438Z" fill="#00379E"/>
<path d="M75.4957 21.5992H73.6728V24.2791H75.7115C76.4357 24.2791 77.4286 24.1448 77.4286 22.9376C77.4286 22.0896 76.985 21.5992 75.4957 21.5992Z" fill="#00379E"/>
<path fill-rule="evenodd" clip-rule="evenodd" d="M0 0H200V200H132.429C132.856 198.807 133.093 197.453 133.093 195.927C133.093 194.407 132.8 192.964 132.113 191.671H142.643V190.054H138.504V163.152C135.97 163.787 133.231 163.855 130.631 163.855H122.129C120.867 163.418 119.419 163.202 117.777 163.202C110.825 163.202 107.665 168.465 107.665 172.893C107.665 176.897 109.772 179.282 112.935 180.822V180.97C110.265 181.388 107.293 182.612 105.378 186.473C104.973 187.286 104.63 187.99 104.356 188.599C102.443 187.51 99.5657 187.287 92.5833 187.287H85.0687C84.0154 187.287 83.2428 186.588 83.2428 185.815C83.2428 182.861 87.8143 182.341 93.4043 181.705L93.4054 181.705C94.4611 181.585 95.553 181.461 96.6574 181.316C98.1347 181.177 103.753 179.143 103.753 172.541C103.753 171.331 103.381 170.174 103.094 169.283C102.916 168.727 102.77 168.275 102.77 167.979C102.77 167.269 104.29 166.291 104.993 166.291C105.188 166.291 105.414 166.615 105.689 167.009C106.114 167.62 106.657 168.397 107.38 168.397C108.857 168.397 109.631 167.133 109.631 165.733C109.631 163.904 108.151 163.338 106.894 163.338C104.572 163.338 102.422 165.654 101.714 167.269C99.8881 164.535 97.009 163.202 92.9363 163.202C85.9831 163.202 82.8233 168.465 82.8233 172.893C82.8233 176.897 84.9298 179.282 88.0881 180.822V180.97C85.4217 181.388 81.0654 182.517 81.0654 186.372C81.0654 186.466 81.0284 186.547 80.9879 186.636C80.9618 186.694 80.9342 186.754 80.9141 186.823C80.567 188.017 79.8639 189.986 78.462 189.986C76.9833 189.986 76.9833 188.86 76.9833 186.755V170.039C76.9833 167.228 76.9833 163.151 67.4285 163.151C59.0734 163.151 56.1883 167.368 56.1883 169.897C56.1883 171.861 57.2461 173.27 59.1444 173.27C60.8963 173.27 62.0219 172.076 62.0219 170.317C62.0219 168.766 61.079 168.097 60.4553 167.655C60.1472 167.437 59.917 167.273 59.917 167.086C59.917 165.046 64.8995 164.56 66.4492 164.56C68.9028 164.56 71.5057 165.547 71.5057 168.843V175.515C60.7605 175.515 54.0879 179.17 53.8736 185.701C53.8736 190.896 57.6671 192.585 62.0914 192.585C65.6751 192.585 69.185 191.248 71.5782 188.298C72.0671 190.896 73.5443 192.585 76.1398 192.585C78.5954 192.585 80.6443 191.166 81.5797 189.035C82.7645 191.596 85.798 192.014 88.5751 192.397L88.7218 192.417V192.63C85.2267 193.521 80.7319 195.341 80.5152 200H0V0ZM164.637 191.671V190.054H170.047V146.638H164.637V145.024H167.66C170.263 145.024 172.994 144.879 175.523 144.39V190.054L183.857 190.054V165.477H179.152V163.855H181.473C184.073 163.855 186.807 163.787 189.341 163.152V190.054H193.484V191.671L164.637 191.671ZM186.53 153.897C188.221 153.897 190.109 155.437 190.109 157.271C190.109 159.444 188.565 160.991 186.53 160.991C184.495 160.991 183.158 159.305 183.158 157.271C183.158 155.437 184.774 153.897 186.53 153.897ZM140.384 177.834C140.384 169.338 146.562 163.152 153.936 163.152C161.311 163.152 167.488 169.338 167.488 177.834C167.488 186.331 161.311 192.585 153.936 192.585C146.562 192.585 140.384 186.331 140.384 177.834ZM138.682 157.186C138.682 155.364 136.781 153.817 135.095 153.817C133.339 153.817 131.731 155.364 131.731 157.186C131.731 159.226 133.059 160.912 135.095 160.912C137.134 160.912 138.682 159.362 138.682 157.186ZM5.7375 144.75V146.367H11.0068V190.053H5.7375V191.671H18.381V190.053H13.1133V147.211H13.2536L26.3891 191.671H28.2134L41.8378 147.211H41.9811V190.053H36.5715V191.671H54.1343V190.053H48.7941V146.367H54.1343V144.75H40.1553L29.828 179.308H29.6892L19.7859 144.75H5.7375ZM61.8421 31.8634H64.3032V24.4469H59.1275V27.3335H60.8492C60.653 28.334 59.7326 28.8259 58.8302 28.8259C56.4536 28.8259 55.9753 26.6168 55.9753 25.3538L55.9751 25.2683C55.9725 24.2574 55.9652 21.4274 58.5631 21.4274C59.4836 21.4274 60.2637 22.1246 60.4056 23.1084H64.1463C63.5789 19.9381 61.5403 18.07 58.3172 18.07C55.4607 18.07 52.0761 20.1237 52.0761 25.2587C52.0761 29.0899 54.3818 32.1848 58.1195 32.1848C59.5017 32.1848 60.8492 31.6763 61.7153 30.4857L61.8421 31.8634ZM135.091 25.1261C135.091 29.241 137.662 32.185 141.505 32.185C145.354 32.185 147.921 29.241 147.921 25.1261C147.921 21.0112 145.354 18.0702 141.505 18.0702C137.662 18.0702 135.091 21.0112 135.091 25.1261ZM123.348 31.8633H119.45V18.3913H125.972C129.411 18.3913 130.613 21.0697 130.613 22.9952C130.613 26.2575 128.558 27.7876 125.649 27.7876H123.348V31.8633ZM107.331 31.8633H103.436V18.3913H109.957C113.392 18.3913 114.597 21.0697 114.597 22.9952C114.597 26.2575 112.541 27.7876 109.638 27.7876H107.331V31.8633ZM73.6728 31.8631H69.7737V18.3927H77.1978C79.4114 18.3927 81.3293 19.6919 81.3293 22.239C81.3293 23.6363 80.7242 25.109 79.431 25.6191C80.4933 26.0506 81.1512 27.297 81.2931 28.978C81.3022 29.0958 81.3103 29.2439 81.3195 29.4111C81.3616 30.1794 81.4259 31.3525 81.7171 31.8631H77.8194C77.6233 31.1841 77.5524 30.487 77.5011 29.7868L77.5001 29.7749C77.3933 28.4959 77.282 27.1642 75.7446 27.1642H73.6728V31.8631ZM94.0306 18.3918H97.9282V26.6534C97.9282 30.3911 96.0315 32.1852 92.1715 32.1852C88.3055 32.1852 86.3907 30.3911 86.3907 26.6534V18.3918H90.2914V25.7329C90.2914 27.1091 90.2914 28.8263 92.1881 28.8263C94.0306 28.8263 94.0306 27.1091 94.0306 25.7329V18.3918Z" fill="#00379E"/>
<path d="M70.0677 187.697C70.6359 187.143 71.5057 186.295 71.5057 183.52V176.988C66.9412 177.059 59.1444 177.834 59.1444 184.291C59.1444 187.739 61.3203 189.844 64.5525 189.844C66.7993 189.844 68.2751 189.275 69.9621 187.801C69.9954 187.768 70.0303 187.734 70.0664 187.699L70.0677 187.697Z" fill="#00379E"/>
<path d="M133.02 190.054H130.961C128.779 187.69 126.809 187.287 117.431 187.287H109.911C108.857 187.287 108.086 186.588 108.086 185.815C108.086 182.861 112.656 182.341 118.246 181.705C119.302 181.585 120.395 181.461 121.499 181.316C122.977 181.177 128.593 179.143 128.593 172.541C128.593 169.443 126.554 167.269 126.554 167.269C126.097 166.584 125.574 165.987 124.983 165.477H133.02V190.054Z" fill="#00379E"/>
<path d="M109.509 199.838C109.509 204.33 114.214 205.812 117.869 205.812C129.814 205.812 130.307 199.139 130.307 198.017C130.307 193.87 129.041 191.836 120.119 191.836C111.83 191.836 109.509 197.451 109.509 199.838Z" fill="#00379E"/>
<path d="M112.814 172.727C112.814 166.057 114.502 164.372 118.009 164.372C122.225 164.372 122.783 168.583 122.783 172.099C122.783 176.452 122.432 180.101 117.312 180.101C113.442 180.101 112.814 175.889 112.814 172.727Z" fill="#00379E"/>
<path d="M93.0299 205.812C89.3737 205.812 84.6673 204.33 84.6673 199.838C84.6673 197.451 86.985 191.836 95.2752 191.836C104.192 191.836 105.461 193.87 105.461 198.017C105.461 199.139 104.967 205.812 93.0299 205.812Z" fill="#00379E"/>
<path d="M93.1657 164.372C89.6559 164.372 87.9704 166.057 87.9704 172.727C87.9704 175.889 88.6011 180.101 92.4625 180.101C97.593 180.101 97.9446 176.452 97.9446 172.099C97.9446 168.583 97.3832 164.372 93.1657 164.372Z" fill="#00379E"/>
</svg>
