<svg viewBox="0 0 24 24" xmlns="http://www.w3.org/2000/svg">
<path d="M19 4C19.5304 4 20.0391 4.21071 20.4142 4.58579C20.7893 4.96086 21 5.46957 21 6V11.2899C20.3663 11.1013 19.695 11 19 11C15.134 11 12 14.134 12 18C12 18.695 12.1013 19.3663 12.2899 20H3C1.89 20 1 19.1 1 18V6C1 4.89 1.89 4 3 4H19ZM19 8V6L11 11L3 6V8L11 13L19 8Z" />
<path d="M16.7466 21.6467C17.2932 21.8822 17.8776 22 18.4995 22C19.1214 22 19.7059 21.8822 20.2529 21.6467C20.7999 21.4112 21.2768 21.0901 21.6834 20.6834C22.0901 20.2768 22.4112 19.8001 22.6467 19.2534C22.8822 18.7068 23 18.1224 23 17.5005C23 16.8786 22.8822 16.2941 22.6467 15.7471C22.4112 15.2001 22.0901 14.7232 21.6834 14.3166C21.2768 13.9099 20.8001 13.5888 20.2534 13.3533C19.7068 13.1178 19.1224 13 18.5005 13C17.8786 13 17.2941 13.1178 16.7471 13.3533C16.2001 13.5888 15.7232 13.9099 15.3166 14.3166C14.9099 14.7232 14.5888 15.1999 14.3533 15.7466C14.1178 16.2932 14 16.8776 14 17.4995C14 18.1214 14.1178 18.7059 14.3533 19.2529C14.5888 19.7999 14.9099 20.2768 15.3166 20.6834C15.7232 21.0901 16.1999 21.4112 16.7466 21.6467ZM20.8821 19.8821C20.2287 20.5355 19.4347 20.8622 18.5 20.8622C17.5653 20.8622 16.7713 20.5355 16.1179 19.8821C15.4645 19.2287 15.1378 18.4347 15.1378 17.5C15.1378 16.5653 15.4645 15.7713 16.1179 15.1179C16.7713 14.4645 17.5653 14.1378 18.5 14.1378V17.5L20.8881 15.1119C21.2061 15.4298 21.448 15.795 21.6136 16.2074C21.7793 16.6198 21.8622 17.0497 21.8622 17.497C21.8622 18.4337 21.5355 19.2287 20.8821 19.8821Z" />
</svg>
