<svg viewBox="0 0 24 24" xmlns="http://www.w3.org/2000/svg">
<path d="M18.755 4C19.2782 4 19.78 4.20722 20.15 4.57608C20.52 4.94492 20.7278 5.4452 20.7278 5.96683V11.169C20.1027 10.9835 19.4405 10.8839 18.755 10.8839C14.9416 10.8839 11.8503 13.9659 11.8503 17.7678C11.8503 18.4513 11.9502 19.1115 12.1362 19.7347H2.97278C1.87789 19.7347 1 18.8496 1 17.7678V5.96683C1 4.87524 1.87789 4 2.97278 4H18.755ZM18.755 7.93366V5.96683L10.8639 10.8839L2.97278 5.96683V7.93366L10.8639 12.8507L18.755 7.93366Z" />
<path d="M20.4378 18.668L19.6579 19.4328L17.7139 17.4918V15.0543H18.8098V17.0449L20.4378 18.668Z" />
<path d="M16.4093 21.6286C16.9849 21.8762 17.6024 22 18.2618 22C18.9213 22 19.5388 21.8762 20.1144 21.6286C20.6899 21.381 21.1906 21.045 21.6163 20.6205C22.0421 20.196 22.3791 19.6969 22.6275 19.1231C22.8758 18.5493 23 17.9336 23 17.2761C23 16.6186 22.8758 16.003 22.6275 15.4292C22.3791 14.8554 22.0421 14.3562 21.6163 13.9318C21.1906 13.5073 20.6899 13.1713 20.1144 12.9237C19.5388 12.676 18.9213 12.5522 18.2618 12.5522C17.6024 12.5522 16.9849 12.676 16.4093 12.9237C15.8338 13.1713 15.3331 13.5073 14.9074 13.9318C14.4816 14.3562 14.1446 14.8554 13.8962 15.4292C13.6478 16.003 13.5237 16.6186 13.5237 17.2761C13.5237 17.9336 13.6478 18.5493 13.8962 19.1231C14.1446 19.6969 14.4816 20.196 14.9074 20.6205C15.3331 21.045 15.8338 21.381 16.4093 21.6286ZM20.7675 19.7774C20.0779 20.4628 19.2427 20.8055 18.2618 20.8055C17.2809 20.8055 16.4457 20.4628 15.7561 19.7774C15.0665 19.092 14.7217 18.2583 14.7217 17.2761C14.7217 16.294 15.0665 15.4602 15.7562 14.7748C16.4458 14.0894 17.281 13.7467 18.2619 13.7467C19.2428 13.7467 20.078 14.0894 20.7676 14.7748C21.4572 15.4602 21.8019 16.294 21.8019 17.2761C21.8019 18.2583 21.4571 19.092 20.7675 19.7774Z" />
</svg>
