<svg viewBox="0 0 24 24" xmlns="http://www.w3.org/2000/svg">
<path d="M8.41527 2.16408C9.40065 1.64985 10.4665 1.72618 11.4437 2.1262C13.2444 2.8633 14.0996 5.15319 13.2257 7.29933C13.1422 7.5044 13.2403 7.7385 13.4449 7.82223C13.6494 7.90595 13.8829 7.80758 13.9664 7.60251C14.9726 5.1314 14.0359 2.3209 11.7461 1.38359C10.6158 0.9209 9.29455 0.800964 8.04592 1.45256C7.46358 1.75646 6.9077 2.34018 6.49844 2.99015C6.08883 3.64068 5.78957 4.41552 5.78096 5.13406C5.7783 5.35554 5.95523 5.53725 6.17612 5.53991C6.39702 5.54257 6.57825 5.36518 6.5809 5.1437C6.58715 4.62259 6.81318 3.99284 7.17491 3.41835C7.53699 2.8433 7.99851 2.38157 8.41527 2.16408Z" />
<path d="M12.4475 4.92218C12.6516 4.85271 12.8593 4.79839 13.0688 4.75911C13.1661 5.25915 13.1801 5.80302 13.0949 6.36761C12.3477 6.50279 11.7809 7.15817 11.7809 7.94629C11.7809 8.83228 12.4972 9.55052 13.3809 9.55052C14.2645 9.55052 14.9809 8.83228 14.9809 7.94629C14.9809 7.55892 14.844 7.20362 14.616 6.9264C14.7589 6.19333 14.7798 5.45444 14.6829 4.75073C15.09 4.82263 15.4886 4.9508 15.8666 5.13451C16.9328 5.65269 17.748 6.57024 18.1329 7.68529C18.5179 8.80034 18.441 10.0216 17.9191 11.0803C17.7191 11.4862 17.4686 11.8427 17.1743 12.1533L20 20.3387L18.6883 23L16.0081 21.6975L16.9919 19.7015L14.9818 18.7246L15.9657 16.7286L13.9556 15.7517L13.1824 13.5121C12.7582 13.4461 12.34 13.3171 11.9313 13.1185C10.8651 12.6003 10.0498 11.6827 9.66491 10.5677C9.27998 9.45263 9.3569 8.23141 9.87874 7.17267C10.4006 6.11393 11.3246 5.30441 12.4475 4.92218Z" />
<path d="M5.19487 21.849L7.9291 20.6626L10.9984 12.8834C10.9667 12.8688 10.935 12.8539 10.9034 12.8385C9.83715 12.3203 9.0219 11.4028 8.63697 10.2877C8.25204 9.17266 8.32896 7.95143 8.85081 6.89269C9.37265 5.83396 10.2967 5.02443 11.4196 4.6422C11.9064 4.4765 12.4133 4.39699 12.9183 4.40229C12.6961 4.26737 12.4611 4.15108 12.2154 4.05548C11.1101 3.62549 9.87809 3.6491 8.79034 4.12111C7.7026 4.59312 6.84823 5.47488 6.4152 6.57239C5.98217 7.66991 6.00595 8.8933 6.48129 9.97341C6.66351 10.3875 6.89829 10.7544 7.17879 11.0773L6.30905 13.2817L7.2052 15.318L5.15452 16.2078L6.05068 18.2441L4 19.134L5.19487 21.849Z" />
</svg>
