<svg xmlns="http://www.w3.org/2000/svg" viewBox="0 0 24 24">
  <path
    d="M17,2H9c-1.1,0-1.99,.9-1.99,2h-1.18l-.34,1.77c-.27,.1-.52,.21-.75,.33-.23,.11-.46,.26-.68,.45l-1.68-.53-1.18,1.99,1.34,1.15c-.04,.27-.06,.54-.06,.82s.02,.57,.06,.86l-1.34,1.15,1.18,1.99,1.68-.53c.23,.17,.46,.31,.68,.44,.23,.12,.48,.24,.75,.34l.34,1.77h1.17v4c0,1.1,.89,2,1.99,2h12.01c1.1,0,2-.9,2-2V8l-6-6ZM7,12.49c-.68,0-1.26-.25-1.74-.73-.49-.49-.73-1.07-.73-1.76s.24-1.27,.73-1.76,1.07-.73,1.75-.73v4.97Zm11.99,3.51h-3v3h-2v-3h-3v-2h3v-3h2v3h3v2Zm-3-7V3.5l5.5,5.5h-5.5Z"
  />
</svg>
