<?xml version="1.0" encoding="UTF-8"?>
<svg xmlns="http://www.w3.org/2000/svg" width="24" height="24" viewBox="0 0 24 24">
  <g id="icn_Flat" data-name="icn Flat">
    <path d="m11.02,9.99l-6.02,6.02v-3.01h2v-2h-2v-3.75h2v-2h-2v-2.75h12.13c.39,0,.75.12,1.05.33l-4.45,4.45c-.29-.17-.63-.27-.99-.27-1.1,0-2,.9-2,2,0,.36.1.69.27.99ZM3,5.25v2h2v-2h-2Zm0,5.75v2h2v-2h-2Zm0,5.5v1.51l1.51-1.51h-1.51ZM19,7.66v11.97c0,1.03-.84,1.87-1.87,1.87H5.16l-.96.96-1.41-1.41L21.04,2.79l1.41,1.41-3.46,3.46Zm-4.71,4.71l-3.13,3.13h1.59s3.5,0,3.5,0c0-1.37-.81-2.55-1.96-3.12Z"/>
  </g>
  <g id="border">
    <rect width="24" height="24" fill="none"/>
    <rect y="14" width="24" height="24" fill="none"/>
  </g>
</svg>