<svg width="24" height="24" viewBox="0 0 24 24" fill="none" xmlns="http://www.w3.org/2000/svg">
<path d="M18 11V13H22V11H18Z" fill="black"/>
<path d="M20.4 5.6C20 5.07 19.6 4.53 19.2 4C18.21 4.74 16.96 5.68 16 6.4C16.4 6.93 16.8 7.47 17.2 8C18.16 7.28 19.41 6.35 20.4 5.6Z" fill="black"/>
<path d="M4 9C2.9 9 2 9.9 2 11V13C2 14.1 2.9 15 4 15H5V19H7V15H8L13 18V6L8 9H4Z" fill="black"/>
<path d="M15.5 12C15.5 10.67 14.92 9.47 14 8.65V15.34C14.92 14.53 15.5 13.33 15.5 12Z" fill="black"/>
<path d="M18.5 15C16.5556 15 15 16.5556 15 18.5C15 20.4444 16.5556 22 18.5 22C20.4444 22 22 20.4444 22 18.5C22 16.5556 20.4444 15 18.5 15ZM18.5 16.1667C19.7911 16.1667 20.8333 17.2089 20.8333 18.5C20.8333 18.9356 20.7167 19.34 20.5067 19.6667L17.3333 16.4933C17.66 16.2833 18.0644 16.1667 18.5 16.1667ZM16.4933 17.3333L19.6667 20.5067C19.34 20.7167 18.9356 20.8333 18.5 20.8333C17.2089 20.8333 16.1667 19.7911 16.1667 18.5C16.1667 18.0644 16.2833 17.66 16.4933 17.3333Z" fill="black"/>
</svg>
