<svg viewBox="0 0 24 24" xmlns="http://www.w3.org/2000/svg">
<path fill-rule="evenodd" clip-rule="evenodd" d="M6.41509 3.9571L2.13731 10.9571C1.74606 11.5973 1.74606 12.4027 2.13731 13.0429L6.41509 20.0429C6.7784 20.6374 7.42492 21 8.12165 21H15.8783C16.575 21 17.2216 20.6374 17.5849 20.0429L21.8627 13.0429C22.2539 12.4027 22.2539 11.5973 21.8627 10.9571L17.5849 3.9571C17.2216 3.36259 16.575 3 15.8783 3H8.12165C7.42492 3 6.7784 3.36259 6.41509 3.9571ZM10.5008 4H8.05503C7.71024 4 7.38977 4.17762 7.20704 4.47L5.00079 8H7.19177L8.19177 6H10.5008V7H8.8098L7.8098 9H4.37579L2.83204 11.47C2.62937 11.7943 2.62937 12.2057 2.83204 12.53L4.37579 15H7.80985L8.80985 17H10.5008V18H8.19182L7.19182 16H5.00079L7.20704 19.53C7.38978 19.8224 7.71024 20 8.05503 20H10.5008C11.0531 20 11.5008 19.5523 11.5008 19V14H9.19182L8.19182 12H5.50083L6.50083 11H8.80985L9.80985 13H11.5008V10H9.50084L10.5008 9H11.5008V5C11.5008 4.44772 11.0531 4 10.5008 4ZM13.5009 4H15.9466C16.2914 4 16.6119 4.17762 16.7946 4.47L19.0009 8H16.8099L15.8099 6H13.5009V7H15.1919L16.1919 9H19.6259L21.1696 11.47C21.3723 11.7943 21.3723 12.2057 21.1696 12.53L19.6259 15H16.1918L15.1918 17H13.5008V18H15.8099L16.8099 16H19.0009L16.7946 19.53C16.6119 19.8224 16.2914 20 15.9466 20H13.5009C12.9486 20 12.5009 19.5523 12.5009 19V14H14.8099L15.8099 12H18.5008L17.5008 11H15.1918L14.1918 13H12.5009V10H14.5008L13.5008 9H12.5009V5C12.5009 4.44772 12.9486 4 13.5009 4Z"/>
</svg>
