<svg viewBox="0 0 24 24" xmlns="http://www.w3.org/2000/svg">
<path d="M8.05499 4C7.7102 4 7.38973 4.17762 7.20699 4.47L5.00075 8H7.19173L8.19173 6H10.5007V7H8.80976L7.80976 9H4.37575L2.83199 11.47C2.62933 11.7943 2.62933 12.2057 2.83199 12.53L4.37575 15H7.80981L8.80981 17H10.5008V18H8.19178L7.19178 16H5.00075L7.207 19.53C7.38973 19.8224 7.7102 20 8.05499 20H10.5007C11.053 20 11.5007 19.5523 11.5007 19V14H9.19178L8.19178 12H5.50079L6.50079 11H8.80981L9.80981 13H11.5007V10H9.50079L10.5008 9H11.5007V5C11.5007 4.44772 11.053 4 10.5007 4H8.05499Z"/>
<path d="M15.9466 4H13.5008C12.9486 4 12.5008 4.44772 12.5008 5V9H13.5008L14.5008 10H12.5008V13H14.1918L15.1918 11H17.5008L18.5008 12H15.8098L14.8098 14H12.5008V19C12.5008 19.5523 12.9486 20 13.5008 20H15.9466C16.2914 20 16.6119 19.8224 16.7946 19.53L19.0008 16H16.8098L15.8098 18H13.5008V17H15.1918L16.1918 15H19.6258L21.1696 12.53C21.3723 12.2057 21.3723 11.7943 21.1696 11.47L19.6258 9H16.1918L15.1918 7H13.5008V6H15.8099L16.8099 8H19.0008L16.7946 4.47C16.6119 4.17762 16.2914 4 15.9466 4Z"/>
</svg>
