<svg viewBox="0 0 24 24" xmlns="http://www.w3.org/2000/svg">
<path fill-rule="evenodd" clip-rule="evenodd" d="M6.4151 3.9571L2.13732 10.9571C1.74608 11.5973 1.74608 12.4027 2.13732 13.0429L6.4151 20.0429C6.77841 20.6374 7.42493 21 8.12167 21H15.8783C16.5751 21 17.2216 20.6374 17.5849 20.0429L21.8627 13.0429C22.2539 12.4027 22.2539 11.5973 21.8627 10.9571L17.5849 3.9571C17.2216 3.36259 16.5751 3 15.8783 3H8.12167C7.42493 3 6.77841 3.36259 6.4151 3.9571ZM10.5008 4C11.0531 4 11.5008 4.44772 11.5008 5V9H10.5009L9.50085 10H11.5008V13H9.80987L8.80987 11H6.50085L5.50085 12H8.19183L9.19183 14H11.5008V19C11.5008 19.5523 11.0531 20 10.5008 20H8.05505C7.71026 20 7.38979 19.8224 7.20705 19.53L5.0008 16H7.19183L8.19183 18H10.5009V17H8.80987L7.80987 15H4.3758L2.83205 12.53C2.62938 12.2057 2.62938 11.7943 2.83205 11.47L4.3758 9H7.80982L8.80982 7H10.5008V6H8.19178L7.19178 8H5.0008L7.20705 4.47C7.38979 4.17762 7.71026 4 8.05505 4H10.5008ZM13.5009 4H15.9467C16.2914 4 16.6119 4.17762 16.7947 4.47L19.0009 8H16.8099L15.8099 6H13.5009V7H15.1919L16.1919 9H19.6259L21.1697 11.47C21.3723 11.7943 21.3723 12.2057 21.1696 12.53L19.6259 15H16.1918L15.1918 17H13.5009V18H15.8099L16.8099 16H19.0009L16.7946 19.53C16.6119 19.8224 16.2914 20 15.9467 20H13.5009C12.9486 20 12.5009 19.5523 12.5009 19V14H14.8099L15.8099 12H18.5009L17.5009 11H15.1918L14.1918 13H12.5009V10H14.5009L13.5009 9H12.5009V5C12.5009 4.44772 12.9486 4 13.5009 4Z"/>
</svg>
