<svg viewBox="0 0 24 24" xmlns="http://www.w3.org/2000/svg">
<path d="M8.05493 4H10.5007C11.053 4 11.5007 4.44772 11.5007 5V9H10.5007L9.50073 10H11.5007V13H9.80975L8.80975 11H6.50073L5.50073 12H8.19172L9.19172 14H11.5007V19C11.5007 19.5523 11.053 20 10.5007 20H8.05493C7.71014 20 7.38967 19.8224 7.20693 19.53L5.00068 16H7.19172L8.19172 18H10.5007V17H8.80975L7.80975 15H4.37568L2.83193 12.53C2.62926 12.2057 2.62926 11.7943 2.83193 11.47L4.37568 9H7.8097L8.8097 7H10.5007V6H8.19167L7.19167 8H5.00068L7.20693 4.47C7.38967 4.17762 7.71014 4 8.05493 4Z"/>
<path d="M15.9465 4H13.5008C12.9485 4 12.5008 4.44772 12.5008 5V9H13.5007L14.5007 10H12.5008V13H14.1917L15.1917 11H17.5007L18.5007 12H15.8097L14.8097 14H12.5008V19C12.5008 19.5523 12.9485 20 13.5008 20H15.9465C16.2913 20 16.6118 19.8224 16.7945 19.53L19.0008 16H16.8097L15.8097 18H13.5007V17H15.1917L16.1917 15H19.6258L21.1695 12.53C21.3722 12.2057 21.3722 11.7943 21.1695 11.47L19.6258 9H16.1918L15.1918 7H13.5008V6H15.8098L16.8098 8H19.0008L16.7945 4.47C16.6118 4.17762 16.2913 4 15.9465 4Z"/>
</svg>
