<svg viewBox="0 0 24 24" xmlns="http://www.w3.org/2000/svg">
<path fill-rule="evenodd" clip-rule="evenodd" d="M15.3177 3C16.3626 3.00006 17.3323 3.5439 17.8772 4.43555L21.5442 10.4355C22.1311 11.3959 22.1311 12.6041 21.5442 13.5645L17.8772 19.5645C17.3323 20.4561 16.3626 20.9999 15.3177 21H8.68289C7.63779 21 6.66731 20.4562 6.12234 19.5645L2.45633 13.5645C1.86946 12.6041 1.86946 11.3959 2.45633 10.4355L6.12234 4.43555C6.66731 3.54378 7.63779 3 8.68289 3H15.3177ZM15.2932 14.293C14.5233 15.0629 13.3017 15.4999 12.0003 15.5C10.6988 15.5 9.47734 15.0629 8.70731 14.293L7.29324 15.707C8.52321 16.9369 10.3019 17.5 12.0003 17.5C13.6987 17.4999 15.4774 16.9369 16.7073 15.707L15.2932 14.293ZM8.00027 11H10.0003V8H8.00027V11ZM14.0003 11H16.0003V8H14.0003V11Z"/>
</svg>
