<svg viewBox="0 0 24 24" xmlns="http://www.w3.org/2000/svg">
  <path d="M9.99997 11H7.99997V8H9.99997V11Z"/>
  <path d="M16 11H14V8H16V11Z"/>
  <path fill-rule="evenodd" clip-rule="evenodd" d="M21.544 10.4357C22.1309 11.396 22.1309 12.604 21.544 13.5644L17.8773 19.5644C17.3323 20.4561 16.3626 21 15.3175 21H8.68248C7.63738 21 6.6676 20.4561 6.12263 19.5644L2.45596 13.5643C1.86909 12.604 1.86909 11.396 2.45596 10.4356L6.12263 4.43565C6.6676 3.54389 7.63738 3 8.68248 3H15.3175C16.3626 3 17.3323 3.54389 17.8773 4.43565L21.544 10.4357ZM4.16245 11.4785C3.96679 11.7986 3.96679 12.2014 4.16245 12.5215L7.82959 18.5215C8.01125 18.8187 8.33449 19 8.68284 19H15.317C15.6654 19 15.9887 18.8187 16.1703 18.5214L19.8366 12.5214C20.0322 12.2013 20.0322 11.7987 19.8366 11.4786L16.1703 5.47859C15.9887 5.18131 15.6654 5 15.317 5H8.68284C8.33449 5 8.01125 5.18127 7.82959 5.4785L4.16245 11.4785Z"/>
  <path d="M16.707 14.707C15.477 15.937 13.6985 16.5 12 16.5C10.3015 16.5 8.52291 15.937 7.29294 14.707L8.707 13.293C9.47703 14.063 10.6985 14.5 12 14.5C13.3015 14.5 14.5229 14.063 15.2929 13.293L16.707 14.707Z"/>
</svg>
