<svg viewBox="0 0 24 24" xmlns="http://www.w3.org/2000/svg">
<path d="M9 23.5C9.05087 21.7545 8.28691 19.6968 7.67163 19.6968C7.60632 19.6968 7.48816 19.7048 7.33086 19.7154C6.56206 19.7673 4.85816 19.8823 3.81784 19.4377C3.0659 19.1163 2.87871 18.3366 3.07302 17.6242C3.1702 17.2678 3.2777 17.164 3.2828 17.0553C3.28789 16.9467 3.19071 16.8333 2.87871 16.4583C2.53574 16.046 3.15085 15.792 3.4323 15.6758C3.49863 15.6484 3.54643 15.6287 3.55879 15.6163C3.58115 15.5939 3.46454 15.5484 3.30225 15.4851C2.99449 15.3649 2.52248 15.1806 2.52248 14.9686C2.52248 14.6448 2.61539 14.0667 2.87871 13.6085C1.73643 13.3355 1.03555 12.8636 1.00041 12.3131C0.986508 12.0953 1.33042 11.902 1.78572 11.646C2.4817 11.2547 3.43797 10.717 3.77438 9.72229C4.04115 8.93347 3.90488 8.38661 3.75605 7.78931C3.5867 7.10966 3.40107 6.36469 3.77438 5.12365C5.69398 -1.25803 16.513 -1.44876 19.5568 3.27777C22.6005 8.0043 20.8521 11.4711 19.6539 13.8351C18.4557 16.1992 17.9703 19.2126 18.4557 20.4092C18.7052 21.0243 19.054 21.3909 19.4019 21.7565C19.7308 22.1022 20.0589 22.447 20.3012 23C20.3856 23.1925 20.5 23.5 20.5 23.5H16V12.9202L17.4001 11.8001C17.5672 11.9256 17.7749 12 18 12C18.5523 12 19 11.5523 19 11C19 10.4477 18.5523 10 18 10C17.4477 10 17 10.4477 17 11C17 11.146 17.0313 11.2847 17.0876 11.4098L16 12.2798V9.06327L17.2598 7.47692C17.3375 7.49205 17.4178 7.49998 17.5 7.49998C18.1904 7.49998 18.75 6.94034 18.75 6.24998C18.75 5.55963 18.1904 4.99998 17.5 4.99998C16.8096 4.99998 16.25 5.55963 16.25 6.24998C16.25 6.4907 16.318 6.71553 16.4359 6.90628L15.1084 8.57795C15.0382 8.66638 15 8.77597 15 8.88889V23.5H14V4.39599C14.4415 4.2031 14.75 3.76258 14.75 3.25C14.75 2.55964 14.1904 2 13.5 2C12.8096 2 12.25 2.55964 12.25 3.25C12.25 3.76258 12.5585 4.2031 13 4.39599V23.5H12V11C12 10.8276 11.9112 10.6674 11.765 10.576L8.47132 8.51745C8.4901 8.43128 8.5 8.3418 8.5 8.25C8.5 7.55964 7.94036 7 7.25 7C6.55964 7 6 7.55964 6 8.25C6 8.94036 6.55964 9.5 7.25 9.5C7.48068 9.5 7.69677 9.43751 7.88226 9.32854L11 11.2771V17.2798L9.91245 16.4098C9.9687 16.2847 10 16.146 10 16C10 15.4477 9.55228 15 9 15C8.44772 15 8 15.4477 8 16C8 16.5523 8.44772 17 9 17C9.2251 17 9.43282 16.9256 9.59995 16.8001L11 17.9202V23.5H9Z" />
</svg>
