<svg viewBox="0 0 24 24" xmlns="http://www.w3.org/2000/svg">
<path d="M21 2L20.37 3.375L19 4L20.37 4.63L21 6L21.625 4.63L23 4L21.625 3.375L21 2Z" />
<path d="M16 3.5L14.75 6.25L12 7.5L14.75 8.75L16 11.5L17.25 8.75L20 7.5L17.25 6.25L16 3.5Z" />
<path d="M21.0714 8.28571L20.6889 9.1175L19.8571 9.5L20.6889 9.87947L21.0714 10.7143L21.4509 9.87947L22.2857 9.5L21.4509 9.1175L21.0714 8.28571Z" />
<path d="M4 3H13V5H4V17H18.85L20 18.125V12H22V23L18 19H4C3.45 19 2.97917 18.8042 2.5875 18.4125C2.19583 18.0208 2 17.55 2 17V5C2 4.45 2.19583 3.97917 2.5875 3.5875C2.97917 3.19583 3.45 3 4 3Z" />
</svg>
