<svg viewBox="0 0 24 24" xmlns="http://www.w3.org/2000/svg">
<path d="M7.99989 14.7357C9.03499 14.7357 9.91639 14.373 10.6441 13.6475C11.3718 12.9221 11.7357 12.0395 11.7357 11C11.7357 9.96045 11.3718 9.07795 10.6442 8.35248C9.91649 7.62701 9.03511 7.26427 8.00001 7.26427C6.96492 7.26427 6.08352 7.62701 5.3558 8.35248C4.62808 9.07795 4.26422 9.96045 4.26422 11C4.26422 12.0395 4.62806 12.9221 5.35574 13.6475C6.08342 14.373 6.9648 14.7357 7.99989 14.7357ZM9.47318 13.2827L7.42175 11.2283V8.64831H8.57816V10.7552L10.2962 12.4732L9.47318 13.2827Z" />
<path d="M19 4C19.5304 4 20.0391 4.21071 20.4142 4.58579C20.7893 4.96086 21 5.46957 21 6V11.0709C20.6734 11.0242 20.3395 11 20 11C16.134 11 13 14.134 13 18C13 18.695 13.1013 19.3663 13.2899 20H3C1.89 20 1 19.1 1 18V6C1 4.89 1.89 4 3 4H19ZM7.99995 16C8.69587 16 9.3475 15.869 9.95486 15.6069C10.5622 15.3448 11.0905 14.9891 11.5398 14.5399C11.9891 14.0906 12.3448 13.5623 12.6068 12.9549C12.8689 12.3475 13 11.6959 13 11C13 10.3041 12.8689 9.65245 12.6068 9.0451C12.3448 8.43774 11.9891 7.90942 11.5398 7.46015C11.0905 7.01087 10.5622 6.65519 9.95486 6.39311C9.3475 6.13104 8.69587 6 7.99995 6C7.30404 6 6.6524 6.13104 6.04505 6.39311C5.43769 6.65519 4.90937 7.01087 4.4601 7.46015C4.01082 7.90942 3.65514 8.43774 3.39307 9.0451C3.13099 9.65245 2.99995 10.3041 2.99995 11C2.99995 11.6959 3.13099 12.3475 3.39307 12.9549C3.65514 13.5623 4.01082 14.0906 4.4601 14.5399C4.90937 14.9891 5.43769 15.3448 6.04505 15.6069C6.6524 15.869 7.30404 16 7.99995 16Z" />
<path d="M21.1205 12.8348L20.738 13.6666L19.9062 14.0491L20.738 14.4286L21.1205 15.2634L21.5 14.4286L22.3348 14.0491L21.5 13.6666L21.1205 12.8348Z" />
<path d="M16.4062 15.4062L17.5 13L18.5938 15.4062L21 16.5L18.5938 17.5938L17.5 20L16.4062 17.5938L14 16.5L16.4062 15.4062Z" />
<path d="M21.315 17.6849L20.685 19.0599L19.315 19.6849L20.685 20.3149L21.315 21.6849L21.94 20.3149L23.315 19.6849L21.94 19.0599L21.315 17.6849Z" />
</svg>
