<svg viewBox="0 0 24 24" xmlns="http://www.w3.org/2000/svg">
<path d="M19 4C19.5304 4 20.0391 4.21071 20.4142 4.58579C20.7893 4.96086 21 5.46957 21 6V11.2899C20.3663 11.1013 19.695 11 19 11C15.134 11 12 14.134 12 18C12 18.695 12.1013 19.3663 12.2899 20H3C1.89 20 1 19.1 1 18V6C1 4.89 1.89 4 3 4H19ZM5.4375 10.4375L2 12L5.4375 13.5625L7 17L8.5625 13.5625L12 12L8.5625 10.4375L7 7L5.4375 10.4375ZM12 6L11.37 7.375L10 8L11.37 8.63L12 10L12.625 8.63L14 8L12.625 7.375L12 6ZM9.83179 15.8318L9 16.2143L9.83179 16.5938L10.2143 17.4286L10.5938 16.5938L11.4286 16.2143L10.5938 15.8318L10.2143 15L9.83179 15.8318Z" />
<path d="M19.94 16.53L22.07 18.65L20.65 20.07L18.53 17.94L16.41 20.07L15 18.65L17.12 16.53L15 14.41L16.41 13L18.53 15.12L20.65 13L22.07 14.41L19.94 16.53Z" />
</svg>
