<svg viewBox="0 0 24 24" xmlns="http://www.w3.org/2000/svg">
<path d="M17 17H19V16.5H20V17C20 17.5522 19.5522 17.9999 19 18H17C16.4477 18 16 17.5523 16 17V16.5H17V17Z"/>
<path d="M17 15.5H16V14H17V15.5Z"/>
<path d="M20 15.5H19V14H20V15.5Z"/>
<path d="M19.6582 11.5C20.1807 11.5 20.666 11.7719 20.9385 12.2178L22.7715 15.2178C23.0649 15.6979 23.0649 16.3021 22.7715 16.7822L20.9385 19.7822C20.666 20.2281 20.1807 20.5 19.6582 20.5H16.3408C15.8185 20.4999 15.334 20.2279 15.0615 19.7822L13.2275 16.7822C12.9342 16.3021 12.9342 15.6979 13.2275 15.2178L15.0615 12.2178C15.334 11.7721 15.8185 11.5001 16.3408 11.5H19.6582ZM16.3418 12.5C16.1677 12.5 16.0059 12.5907 15.915 12.7393L14.0811 15.7393C13.9833 15.8993 13.9833 16.1007 14.0811 16.2607L15.915 19.2607C16.0059 19.4093 16.1677 19.5 16.3418 19.5H19.6582C19.8324 19.5 19.9941 19.4093 20.085 19.2607L21.918 16.2607C22.0158 16.1007 22.0158 15.8993 21.918 15.7393L20.085 12.7393C19.9941 12.5907 19.8324 12.5 19.6582 12.5H16.3418Z"/>
<path d="M20 4C21.1046 4 22 4.89543 22 6V10.5H16.3408C15.4705 10.5002 14.6622 10.9532 14.208 11.6963L12.375 14.6963C12.1305 15.0964 12.0088 15.5483 12.0088 16H12V20H4C2.89543 20 2 19.1046 2 18V6C2 4.89543 2.89543 4 4 4H20ZM7.39551 11.0703L5.46484 9.13965L4 10.6045L7.39551 14L13.9297 7.46484L12.4648 6L7.39551 11.0703Z"/>
</svg>
