<svg viewBox="0 0 24 24" xmlns="http://www.w3.org/2000/svg">
<path d="M17 17H19V16.5H20V17C20 17.5522 19.5522 17.9999 19 18H17C16.4477 18 16 17.5523 16 17V16.5H17V17Z"/>
<path d="M17 15.5H16V14H17V15.5Z"/>
<path d="M20 15.5H19V14H20V15.5Z"/>
<path d="M19.6582 11.5C20.1807 11.5 20.666 11.7719 20.9385 12.2178L22.7715 15.2178C23.0649 15.6979 23.0649 16.3021 22.7715 16.7822L20.9385 19.7822C20.666 20.2281 20.1807 20.5 19.6582 20.5H16.3408C15.8185 20.4999 15.334 20.2279 15.0615 19.7822L13.2275 16.7822C12.9342 16.3021 12.9342 15.6979 13.2275 15.2178L15.0615 12.2178C15.334 11.7721 15.8185 11.5001 16.3408 11.5H19.6582ZM16.3418 12.5C16.1677 12.5 16.0059 12.5907 15.915 12.7393L14.0811 15.7393C13.9833 15.8993 13.9833 16.1007 14.0811 16.2607L15.915 19.2607C16.0059 19.4093 16.1677 19.5 16.3418 19.5H19.6582C19.8324 19.5 19.9941 19.4093 20.085 19.2607L21.918 16.2607C22.0158 16.1007 22.0158 15.8993 21.918 15.7393L20.085 12.7393C19.9941 12.5907 19.8324 12.5 19.6582 12.5H16.3418Z"/>
<path d="M8 6.45117C8.98313 6.45117 9.82057 6.79509 10.5117 7.48242C11.2029 8.16983 11.5488 9.00922 11.5488 10C11.5488 10.9908 11.203 11.8302 10.5117 12.5176C9.82051 13.2049 8.98311 13.5488 8 13.5488C7.01687 13.5488 6.17943 13.2049 5.48828 12.5176C4.79711 11.8302 4.45117 10.9908 4.45117 10C4.45117 9.00922 4.79704 8.16983 5.48828 7.48242C6.17949 6.79508 7.01689 6.4512 8 6.45117ZM7.36621 10.248L9.34766 12.2354L10.2578 11.3477L8.63379 9.72363V7.75391H7.36621V10.248Z"/>
<path d="M20 4C21.1046 4 22 4.89543 22 6V10.5H16.3408C15.4705 10.5002 14.6622 10.9532 14.208 11.6963L12.375 14.6963C12.1305 15.0964 12.0088 15.5483 12.0088 16H12V20H4C2.89543 20 2 19.1046 2 18V6C2 4.89543 2.89543 4 4 4H20ZM8 5C7.30121 5 6.64857 5.13093 6.04199 5.39258C5.43539 5.65441 4.90776 6.01021 4.45898 6.45898C4.01021 6.90776 3.65441 7.43539 3.39258 8.04199C3.13093 8.64857 3 9.30121 3 10C3 10.6988 3.13093 11.3514 3.39258 11.958C3.65441 12.5646 4.01021 13.0922 4.45898 13.541C4.90776 13.9898 5.43539 14.3456 6.04199 14.6074C6.64857 14.8691 7.30121 15 8 15C8.69879 15 9.35143 14.8691 9.95801 14.6074C10.5646 14.3456 11.0922 13.9898 11.541 13.541C11.9898 13.0922 12.3456 12.5646 12.6074 11.958C12.8691 11.3514 13 10.6988 13 10C13 9.30121 12.8691 8.64857 12.6074 8.04199C12.3456 7.43539 11.9898 6.90776 11.541 6.45898C11.0922 6.01021 10.5646 5.65441 9.95801 5.39258C9.35143 5.13093 8.69879 5 8 5Z"/>
</svg>
