<svg viewBox="0 0 24 24" xmlns="http://www.w3.org/2000/svg">
<path d="M17 17H19V16.5H20V17C20 17.5522 19.5522 17.9999 19 18H17C16.4477 18 16 17.5523 16 17V16.5H17V17Z"/>
<path d="M17 15.5H16V14H17V15.5Z"/>
<path d="M20 15.5H19V14H20V15.5Z"/>
<path d="M19.6582 11.5H16.3408C15.8185 11.5001 15.334 11.7721 15.0615 12.2178L13.2275 15.2178C12.9342 15.6979 12.9342 16.3021 13.2275 16.7822L15.0615 19.7822C15.334 20.2279 15.8185 20.4999 16.3408 20.5H19.6582C20.1807 20.5 20.666 20.2281 20.9385 19.7822L22.7715 16.7822C23.0649 16.3021 23.0649 15.6979 22.7715 15.2178L20.9385 12.2178C20.666 11.7719 20.1807 11.5 19.6582 11.5ZM16.3418 12.5H19.6582C19.8324 12.5 19.9941 12.5907 20.085 12.7393L21.918 15.7393C22.0158 15.8993 22.0158 16.1007 21.918 16.2607L20.085 19.2607C19.9941 19.4093 19.8324 19.5 19.6582 19.5H16.3418C16.1677 19.5 16.0059 19.4093 15.915 19.2607L14.0811 16.2607C13.9833 16.1007 13.9833 15.8993 14.0811 15.7393L15.915 12.7393C16.0059 12.5907 16.1677 12.5 16.3418 12.5Z"/>
<path d="M8 6.45117C8.99846 6.45117 9.83987 6.793 10.5234 7.47656C11.207 8.16013 11.5488 9.00154 11.5488 10C11.5488 10.9985 11.207 11.8399 10.5234 12.5234C9.83987 13.207 8.99846 13.5488 8 13.5488C7.00154 13.5488 6.16013 13.207 5.47656 12.5234C4.793 11.8399 4.45117 10.9985 4.45117 10C4.45117 9.00154 4.793 8.16013 5.47656 7.47656C6.16013 6.793 7.00154 6.45117 8 6.45117ZM6.44434 11.9355H7.53906V8.06445H6.44434V11.9355ZM8.46094 11.9355H9.55566V8.06445H8.46094V11.9355Z"/>
<path d="M20 4C21.1046 4 22 4.89543 22 6V10.5H16.3408C15.4705 10.5002 14.6622 10.9532 14.208 11.6963L12.375 14.6963C12.1305 15.0964 12.0088 15.5483 12.0088 16H12V20H4C2.89543 20 2 19.1046 2 18V6C2 4.89543 2.89543 4 4 4H20ZM8 5C7.30121 5 6.64857 5.13093 6.04199 5.39258C5.43539 5.65441 4.90776 6.01021 4.45898 6.45898C4.01021 6.90776 3.65441 7.43539 3.39258 8.04199C3.13093 8.64857 3 9.30121 3 10C3 10.6988 3.13093 11.3514 3.39258 11.958C3.65441 12.5646 4.01021 13.0922 4.45898 13.541C4.90776 13.9898 5.43539 14.3456 6.04199 14.6074C6.64857 14.8691 7.30121 15 8 15C8.69879 15 9.35143 14.8691 9.95801 14.6074C10.5646 14.3456 11.0922 13.9898 11.541 13.541C11.9898 13.0922 12.3456 12.5646 12.6074 11.958C12.8691 11.3514 13 10.6988 13 10C13 9.30121 12.8691 8.64857 12.6074 8.04199C12.3456 7.43539 11.9898 6.90776 11.541 6.45898C11.0922 6.01021 10.5646 5.65441 9.95801 5.39258C9.35143 5.13093 8.69879 5 8 5Z"/>
</svg>
