<svg viewBox="0 0 24 24" xmlns="http://www.w3.org/2000/svg">
<path d="M8 14.8852C9.08658 14.8852 10.0058 14.5093 10.7576 13.7576C11.5093 13.0058 11.8852 12.0866 11.8852 11C11.8852 9.91342 11.5093 8.99423 10.7576 8.24242C10.0058 7.4907 9.08658 7.11484 8 7.11484C6.91342 7.11484 5.99423 7.4907 5.24242 8.24242C4.4907 8.99423 4.11484 9.91342 4.11484 11C4.11484 12.0866 4.4907 13.0058 5.24242 13.7576C5.99423 14.5093 6.91342 14.8852 8 14.8852ZM6.4859 12.9836V9.01644H7.50996V12.9836H6.4859ZM8.49004 12.9836V9.01644H9.5141V12.9836H8.49004Z" />
<path d="M19 4C19.5304 4 20.0391 4.21071 20.4142 4.58579C20.7893 4.96086 21 5.46957 21 6V11.0709C20.6734 11.0242 20.3395 11 20 11C16.134 11 13 14.134 13 18C13 18.695 13.1013 19.3663 13.2899 20H3C1.89 20 1 19.1 1 18V6C1 4.89 1.89 4 3 4H19ZM8 16C8.69349 16 9.34418 15.8688 9.95208 15.6065C10.5601 15.3442 11.0889 14.9882 11.5386 14.5386C11.9882 14.0889 12.3442 13.5601 12.6065 12.9521C12.8688 12.3442 13 11.6935 13 11C13 10.3065 12.8688 9.65582 12.6065 9.04793C12.3442 8.43995 11.9882 7.91111 11.5386 7.46142C11.0889 7.01181 10.5601 6.65584 9.95208 6.3935C9.34418 6.13117 8.69349 6 8 6C7.30651 6 6.65582 6.13117 6.04793 6.3935C5.43995 6.65584 4.91111 7.01181 4.46142 7.46142C4.01181 7.91111 3.65584 8.43995 3.3935 9.04793C3.13117 9.65582 3 10.3065 3 11C3 11.6935 3.13117 12.3442 3.3935 12.9521C3.65584 13.5601 4.01181 14.0889 4.46142 14.5386C4.91111 14.9882 5.43995 15.3442 6.04793 15.6065C6.65582 15.8688 7.30651 16 8 16Z" />
<path d="M16.4062 15.4062L17.5 13L18.5938 15.4062L21 16.5L18.5938 17.5938L17.5 20L16.4062 17.5938L14 16.5L16.4062 15.4062Z" />
<path d="M20.738 13.6666L21.1205 12.8348L21.5 13.6666L22.3348 14.0491L21.5 14.4286L21.1205 15.2634L20.738 14.4286L19.9062 14.0491L20.738 13.6666Z" />
<path d="M20.685 19.0599L21.315 17.6849L21.94 19.0599L23.315 19.6849L21.94 20.3149L21.315 21.6849L20.685 20.3149L19.315 19.6849L20.685 19.0599Z" />
</svg>
