<svg viewBox="0 0 24 24" xmlns="http://www.w3.org/2000/svg">
<path d="M19 4C19.5304 4 20.0391 4.21071 20.4142 4.58579C20.7893 4.96086 21 5.46957 21 6V11.0709C20.6734 11.0242 20.3395 11 20 11C16.134 11 13 14.134 13 18C13 18.695 13.1013 19.3663 13.2899 20H3C1.89 20 1 19.1 1 18V6C1 4.89 1.89 4 3 4H19ZM7.30769 15L13.4615 8.84615L11.6154 7L7.30769 11.3077L4.84615 8.84615L3 10.6923L7.30769 15Z" />
<path d="M21.1205 12.8348L20.738 13.6666L19.9062 14.0491L20.738 14.4286L21.1205 15.2634L21.5 14.4286L22.3348 14.0491L21.5 13.6666L21.1205 12.8348Z" />
<path d="M16.4062 15.4062L17.5 13L18.5938 15.4062L21 16.5L18.5938 17.5938L17.5 20L16.4062 17.5938L14 16.5L16.4062 15.4062Z" />
<path d="M21.315 17.6849L20.685 19.0599L19.315 19.6849L20.685 20.3149L21.315 21.6849L21.94 20.3149L23.315 19.6849L21.94 19.0599L21.315 17.6849Z" />
</svg>
