<svg viewBox="0 0 24 24" xmlns="http://www.w3.org/2000/svg">
<path d="M19 4C19.5304 4 20.0391 4.21071 20.4142 4.58579C20.7893 4.96086 21 5.46957 21 6V11.2899C20.3663 11.1013 19.695 11 19 11C15.134 11 12 14.134 12 18C12 18.695 12.1013 19.3663 12.2899 20H3C1.89 20 1 19.1 1 18V6C1 4.89 1.89 4 3 4H19ZM5.4375 10.4375L2 12L5.4375 13.5625L7 17L8.5625 13.5625L12 12L8.5625 10.4375L7 7L5.4375 10.4375ZM12 6L11.37 7.375L10 8L11.37 8.63L12 10L12.625 8.63L14 8L12.625 7.375L12 6ZM9.83179 15.8318L9 16.2143L9.83179 16.5938L10.2143 17.4286L10.5938 16.5938L11.4286 16.2143L10.5938 15.8318L10.2143 15L9.83179 15.8318Z" />
<path d="M20.7826 18.8259L20.0419 19.5544L18.1956 17.7055V15.3835H19.2364V17.2797L20.7826 18.8259Z" />
<path d="M16.9566 21.6462C17.5032 21.8821 18.0897 22 18.716 22C19.3423 22 19.9288 21.8821 20.4754 21.6462C21.0221 21.4103 21.4975 21.0902 21.9019 20.6859C22.3062 20.2815 22.6264 19.806 22.8622 19.2594C23.0981 18.7128 23.216 18.1263 23.216 17.5C23.216 16.8737 23.0981 16.2872 22.8622 15.7406C22.6264 15.194 22.3062 14.7185 21.9019 14.3141C21.4975 13.9098 21.0221 13.5897 20.4754 13.3538C19.9288 13.1179 19.3423 13 18.716 13C18.0897 13 17.5032 13.1179 16.9566 13.3538C16.41 13.5897 15.9345 13.9098 15.5302 14.3141C15.1258 14.7185 14.8057 15.194 14.5698 15.7406C14.334 16.2872 14.216 16.8737 14.216 17.5C14.216 18.1263 14.334 18.7128 14.5698 19.2594C14.8057 19.806 15.1258 20.2815 15.5302 20.6859C15.9345 21.0902 16.41 21.4103 16.9566 21.6462ZM21.0958 19.8828C20.4408 20.5357 19.6476 20.8622 18.716 20.8622C17.7844 20.8622 16.9911 20.5357 16.3362 19.8828C15.6813 19.2298 15.3539 18.4356 15.3539 17.5C15.3539 16.5644 15.6813 15.7702 16.3363 15.1172C16.9912 14.4643 17.7845 14.1378 18.7161 14.1378C19.6477 14.1378 20.4409 14.4643 21.0958 15.1172C21.7507 15.7702 22.0782 16.5644 22.0782 17.5C22.0782 18.4356 21.7507 19.2298 21.0958 19.8828Z" />
</svg>
