<svg viewBox="0 0 24 24" xmlns="http://www.w3.org/2000/svg">
<path d="M19 4C19.5304 4 20.0391 4.21071 20.4142 4.58579C20.7893 4.96086 21 5.46957 21 6V11.2899C20.3663 11.1013 19.695 11 19 11C15.134 11 12 14.134 12 18C12 18.695 12.1013 19.3663 12.2899 20H3C1.89 20 1 19.1 1 18V6C1 4.89 1.89 4 3 4H19ZM5.4375 10.4375L2 12L5.4375 13.5625L7 17L8.5625 13.5625L12 12L8.5625 10.4375L7 7L5.4375 10.4375ZM12 6L11.37 7.375L10 8L11.37 8.63L12 10L12.625 8.63L14 8L12.625 7.375L12 6ZM9.83179 15.8318L9 16.2143L9.83179 16.5938L10.2143 17.4286L10.5938 16.5938L11.4286 16.2143L10.5938 15.8318L10.2143 15L9.83179 15.8318Z" />
<path d="M18.059 19.2852H17.1373V15.7148H18.059V19.2852Z" />
<path d="M19.8627 19.2852H18.941V15.7148H19.8627V19.2852Z" />
<path d="M16.7431 21.6458C17.2902 21.882 17.8759 22 18.5 22C19.1241 22 19.7098 21.882 20.2569 21.6458C20.804 21.4097 21.28 21.0894 21.6847 20.6847C22.0894 20.28 22.4097 19.804 22.6458 19.2569C22.882 18.7098 23 18.1241 23 17.5C23 16.8759 22.882 16.2902 22.6458 15.7431C22.4097 15.196 22.0894 14.72 21.6847 14.3153C21.28 13.9106 20.804 13.5903 20.2569 13.3542C19.7098 13.1181 19.1241 13 18.5 13C17.8759 13 17.2902 13.1181 16.7431 13.3542C16.196 13.5903 15.72 13.9106 15.3153 14.3153C14.9106 14.72 14.5903 15.196 14.3542 15.7431C14.1181 16.2902 14 16.8759 14 17.5C14 18.1241 14.1181 18.7098 14.3542 19.2569C14.5903 19.804 14.9106 20.28 15.3153 20.6847C15.72 21.0894 16.196 21.4097 16.7431 21.6458ZM20.9818 19.9818C20.3052 20.6584 19.4779 20.9966 18.5 20.9966C17.5221 20.9966 16.6948 20.6584 16.0182 19.9818C15.3416 19.3052 15.0034 18.4779 15.0034 17.5C15.0034 16.5221 15.3416 15.6948 16.0182 15.0182C16.6948 14.3416 17.5221 14.0034 18.5 14.0034C19.4779 14.0034 20.3052 14.3416 20.9818 15.0182C21.6584 15.6948 21.9966 16.5221 21.9966 17.5C21.9966 18.4779 21.6584 19.3052 20.9818 19.9818Z" />
</svg>
