<svg viewBox="0 0 24 24" xmlns="http://www.w3.org/2000/svg">
<path d="M5.33333 23C4.40741 23 3.62037 22.6792 2.97222 22.0375C2.32407 21.3958 2 20.6167 2 19.7V16.4H5.33333V1H22V19.7C22 20.6167 21.6759 21.3958 21.0278 22.0375C20.3796 22.6792 19.5926 23 18.6667 23H5.33333ZM18.6667 20.8C18.9815 20.8 19.2454 20.6946 19.4583 20.4837C19.6713 20.2729 19.7778 20.0117 19.7778 19.7V3.2H7.55556V16.4H17.5556V19.7C17.5556 20.0117 17.662 20.2729 17.875 20.4837C18.088 20.6946 18.3519 20.8 18.6667 20.8ZM5.33333 20.8H15.3333V18.6H4.22222V19.7C4.22222 20.0117 4.3287 20.2729 4.54167 20.4837C4.75463 20.6946 5.01852 20.8 5.33333 20.8ZM5.33333 20.8H4.22222H15.3333H5.33333Z" />
<path d="M15.7176 8.49929V9.3407H15.0553V6.5H16.2802C16.6736 6.5 16.8738 6.59899 16.8768 6.79627V8.1835C16.8768 8.38078 16.6865 8.47628 16.3021 8.47628H15.7244V8.49929H15.7176ZM16.2085 6.82625H15.7115V8.14376H16.2085V6.82625Z" />
<path d="M8.63992 9.34625V10.1877H8.08334V7.34418H9.10814C9.43967 7.34418 9.60506 7.44317 9.60808 7.64045V9.0277C9.60808 9.22495 9.44873 9.32045 9.12702 9.32045H8.64294L8.63992 9.34625ZM9.05226 7.67321H8.6369V8.99074H9.05226V7.67321Z" />
<path d="M11.3178 9.32045H10.2606C9.95095 9.32045 9.79463 9.22145 9.79463 9.0242V8.44699C9.79463 8.2525 9.95397 8.15421 10.2757 8.15072H10.7598V7.67321H10.3444V7.93462H9.7984V7.63836C9.7984 7.44387 9.96076 7.34836 10.2855 7.34836L10.8292 7.34278C11.1509 7.34278 11.3133 7.44177 11.3133 7.63556L11.3178 9.32045ZM10.352 8.98934H10.7703V8.48115H10.355L10.352 8.98934Z" />
<path d="M12.5329 9.32045H12.0451C11.7234 9.32045 11.564 9.2215 11.564 9.0277V7.64045C11.564 7.44317 11.7324 7.34418 12.064 7.34418H13.0888V9.8921C13.0888 10.0894 12.9264 10.1884 12.6047 10.1884H12.0519C11.7302 10.1884 11.5678 10.0894 11.5678 9.8921V9.5993H12.1206V9.8607H12.536V9.34625L12.5329 9.32045ZM12.1176 8.98934H12.5329V7.67321H12.1176V8.98934Z" />
<path d="M14.8015 9.0249C14.8015 9.2222 14.6331 9.3177 14.3016 9.3177H13.7639C13.4392 9.3177 13.276 9.2187 13.276 9.0249V7.63768C13.276 7.4404 13.4384 7.3449 13.7639 7.3449H14.3167C14.6384 7.3449 14.7977 7.44389 14.7977 7.63768V9.0249H14.8015ZM14.254 7.67323H13.8356V8.99075H14.251L14.254 7.67323Z" />
<path d="M18.9143 6.81021C18.9143 6.61293 18.724 6.51743 18.3396 6.51743H17.6773C17.2899 6.51743 17.0958 6.61642 17.0958 6.81021V9.34625H17.7581V8.47907H18.2565V9.20685C18.2615 9.9045 18.0294 10.586 17.5928 11.1555C17.1563 11.725 16.5372 12.1537 15.8228 12.3815C15.1085 12.6094 14.3347 12.6246 13.6105 12.4253C12.8862 12.226 12.2479 11.822 11.7853 11.2703L12.1168 11.0353L10.7854 10.2023L10.8451 11.9583L11.2702 11.6446C11.8176 12.296 12.5724 12.7726 13.4284 13.0075C14.2844 13.2423 15.1987 13.2236 16.0426 12.9539C16.8865 12.6842 17.6176 12.1772 18.1332 11.5041C18.6487 10.8309 18.9226 10.0256 18.9166 9.20125L18.9143 6.81021ZM18.2565 8.14794H17.7566V6.84227H18.2565V8.14794Z" />
</svg>
