<svg viewBox="0 0 24 24" xmlns="http://www.w3.org/2000/svg">
<path d="M4.89594 4H7.3309L10.4188 12.6848C10.619 12.5777 10.7898 12.4584 10.9062 12.3254C11.4738 11.6767 13.0144 11.2713 13.3388 11.6767C13.6631 12.0822 13.4984 12.3733 13.2577 12.7309C13.7739 12.6597 14.0758 12.6591 14.6362 12.7309C15.6855 12.0694 16.339 11.8389 16.8255 12.3254C17.3121 12.812 16.5654 13.6227 16.0147 14.0283C15.8331 14.1619 15.3239 14.5686 14.6871 15.0771C13.3921 16.1112 11.5698 17.5664 10.9062 18.0014C9.91631 18.6502 9.20335 18.8124 8.79792 18.6502C8.39248 18.4881 8.29085 17.535 8.879 16.542C8.22594 16.9128 7.64548 17.4073 7.13817 17.8394C6.89007 18.0507 6.65944 18.2472 6.44639 18.407C5.79769 18.8935 5.05112 18.0014 5.45653 17.0283C4.48351 17.1905 4.17598 16.2176 4.41921 15.9743C4.61116 15.7824 6.72217 14.4289 7.72331 13.787C7.99054 13.6157 8.17905 13.4948 8.23031 13.4606C8.27403 13.4315 8.37017 13.3971 8.50177 13.3565L8.06138 12.0354H3.92195L2.94797 14.9573H1L4.89594 4ZM5.99172 5.70439L4.409 10.2091H7.57445L5.99172 5.70439Z" />
<path d="M15.0254 19.1462C14.9443 18.011 21.9988 16.0649 22.8097 16.2271C23.6206 16.3892 23.5395 17.119 23.3773 17.4434C23.2866 17.6248 22.984 17.7616 22.74 17.8718C22.5478 17.9587 22.392 18.0291 22.4043 18.0921C22.412 18.1315 22.4954 18.143 22.6141 18.1594C22.9259 18.2024 23.4807 18.2791 23.5395 18.984C23.6206 19.9571 22.4043 19.876 22.4043 19.876C22.4043 19.876 19.7291 19.8044 18.9986 19.876C18.2681 19.9475 18.106 19.461 18.1877 19.3084C18.2695 19.1557 16.2417 19.9571 16.2417 19.9571C16.2417 19.9571 15.1064 20.2814 15.0254 19.1462Z" />
</svg>
