<svg viewBox="0 0 24 24" xmlns="http://www.w3.org/2000/svg">
<path d="M20.3135 8C21.2171 8.00007 22.5437 8.29866 23.25 9.21777L22.4971 10.0049C21.8044 9.31759 21.0664 9.07427 20.3135 9.07422C19.5607 9.07422 18.9583 9.57527 18.958 10.0049C18.958 10.4345 18.9578 10.8642 20.6895 10.8643C22.4213 10.8643 23.25 11.8672 23.25 12.9414C23.25 14.0156 22.6429 14.5169 21.5176 14.875C20.3923 15.2328 18.7017 14.8228 17.4521 13.8008L18.1299 13.085C19.0676 13.8312 20.4638 14.0875 21.292 13.9443C22.1203 13.8011 22.5722 12.3682 21.2168 12.1533C21.091 12.1334 20.9572 12.1148 20.8184 12.0947C19.4619 11.8986 17.6094 11.63 17.6777 10.0049C17.7532 8.2137 19.4099 7.99998 20.3135 8Z" />
<path d="M7.46191 15H6.07715L5.46191 13.1338H2.8457L2.23047 15H1L3.46191 8H5L7.46191 15ZM3.1543 11.9668H5.1543L4.1543 9.08887L3.1543 11.9668Z" />
<path d="M12.3848 12.667V8H13.4619V15H12.3848L8.69238 10.333V15H7.61523V8H8.69238L12.3848 12.667Z" />
<path d="M16.5 8V15H15V8H16.5Z" />
</svg>
