<svg viewBox="0 0 24 24" xmlns="http://www.w3.org/2000/svg">
<path d="M16.5668 1.66492C16.6591 1.69273 16.7358 1.75733 16.7788 1.8435L20.998 10.2819C21.0398 10.3654 21.0464 10.4621 21.0165 10.5505C20.9866 10.639 20.9226 10.7118 20.8387 10.7528C20.4199 10.9575 20.0178 11.1611 19.631 11.3648L20.912 14.4266C20.9502 14.518 20.9479 14.6213 20.9057 14.7109C20.8634 14.8005 20.7852 14.868 20.6904 14.8967C20.1919 15.0474 19.7184 15.1987 19.2676 15.3513L20.9944 18.6173C21.0513 18.725 21.0482 18.8545 20.986 18.9593C20.9239 19.0641 20.8117 19.1291 20.6899 19.1308C17.7612 19.1723 15.6863 19.4835 13.8566 20.1397C12.0259 20.7962 10.4173 21.8062 8.42765 23.2812C8.29613 23.3787 8.1146 23.372 7.99062 23.2651C7.86665 23.1581 7.83335 22.9796 7.91047 22.8352C9.53786 19.7876 10.9879 17.5115 12.699 15.6416C14.4135 13.768 16.3779 12.3154 19.0194 10.8971C19.4031 10.6911 19.8011 10.4858 20.2145 10.2801L16.5147 2.88048C14.3638 4.28003 12.7589 5.45996 11.3248 6.86635C9.91395 8.24997 8.65405 9.86717 7.20631 12.1536C8.87755 15.2466 8.35065 18.1187 6.72584 23.1536C6.64103 23.4164 6.35924 23.5607 6.09644 23.4759C5.83365 23.3911 5.68936 23.1093 5.77416 22.8465C6.23806 21.409 6.6006 20.1783 6.84794 19.0909C6.96054 18.4568 7.01903 17.8666 7.02305 17.2995C7.03396 15.7627 6.64467 14.3685 5.79779 12.7069C5.74544 12.6042 5.74702 12.4823 5.80202 12.381C7.29738 9.62635 8.65003 7.67913 10.2721 6.05498C11.8935 4.43143 13.7697 3.14536 16.2914 1.69655C16.375 1.64855 16.4746 1.63712 16.5668 1.66492ZM18.5992 15.5847C16.1356 16.4717 14.3816 17.4187 12.8836 18.5899C11.9042 19.3557 11.0283 20.2218 10.1313 21.2406C11.2918 20.4976 12.4057 19.9164 13.6203 19.4808C15.4231 18.8343 17.4276 18.5157 20.1102 18.4426L18.5992 15.5847ZM10.372 19.9407C11.037 19.2438 11.7151 18.615 12.4524 18.0385C14.0814 16.7649 15.9845 15.7581 18.6514 14.8233C19.1159 14.6604 19.6036 14.4998 20.1171 14.3403L19.0117 11.6981C16.5948 13.0289 14.7924 14.3908 13.2154 16.1142C12.2133 17.2092 11.2977 18.4551 10.372 19.9407Z" />
<path d="M8.21918 5.12329C8.21918 6.28838 7.27468 7.23288 6.10959 7.23288C4.9445 7.23288 4 6.28838 4 5.12329C4 3.95819 4.9445 3.0137 6.10959 3.0137C7.27468 3.0137 8.21918 3.95819 8.21918 5.12329Z" />
</svg>
