<svg viewBox="0 0 24 24" xmlns="http://www.w3.org/2000/svg">
<path d="M18 7.99948V14.9963L19.0769 14.9963V12.1943C19.8291 12.2245 20.3666 12.2244 20.9231 12.1943L22.1539 14.9932H23.3077L22 12.1165C22.7948 11.8209 23.5385 11.1778 23.5385 10.0597C23.5385 8.42515 22.2158 7.95179 19.0769 7.99956L18 7.99948ZM22.4615 10.0597C22.4615 10.9035 21.7017 11.1223 19.0769 11.1033V9.10495C21.6333 9.00102 22.4615 9.21597 22.4615 10.0597Z" />
<path d="M12.5 15V8.00004H13.5894C16.7797 8.00002 17.7913 8.40164 17.7913 10.0979C17.7913 11.7942 17.0132 12.1988 13.5894 12.1988V15H12.5ZM16.7019 10.0303C16.7019 9.30561 15.9038 9.08618 13.5894 9.08619V11.1093C16.0634 11.1093 16.7019 10.755 16.7019 10.0303Z" />
<path d="M2.28571 7.99728H3.71429L6 14.9995H4.71428L4.14286 13.1322H1.71429L1.14286 14.9995H0L2.28571 7.99728ZM2 12.1064H4L3 8.99953L2 12.1064Z" />
<path d="M7.10526 14.9995L6 14.9995V7.99735L7.10526 8.00516L10.8947 12.8125V7.99735H12V14.9995H10.9013L7.10526 10.481V14.9995Z" />
</svg>
