<svg viewBox="0 0 24 24" xmlns="http://www.w3.org/2000/svg">
<path d="M17.093 10.0052L17.846 9.2174C17.1396 8.2982 15.8129 7.99998 14.9093 7.99996C14.0057 7.99994 12.3491 8.21368 12.2738 10.0052C12.2055 11.6303 14.0581 11.8981 15.4146 12.0942C15.5534 12.1143 15.687 12.1336 15.8129 12.1536C17.1683 12.3684 16.7165 13.8007 15.8882 13.9439C15.0599 14.0871 13.6634 13.8311 12.7256 13.0846L12.0479 13.8007C13.2977 14.823 14.9887 15.233 16.1141 14.8749C17.2395 14.5168 17.846 14.0155 17.846 12.9413C17.846 11.8671 17.0177 10.8645 15.2858 10.8645C13.5539 10.8645 13.5539 10.4348 13.5539 10.0052C13.5539 9.57547 14.1563 9.07417 14.9093 9.07417C15.6623 9.07417 16.4002 9.31773 17.093 10.0052Z" />
<path d="M3.71429 7.99774H2.28571L0 14.9999H1.14286L1.71429 13.1327H4.14286L4.71428 14.9999H6L7.10526 15V10.4815L10.9013 15H12V7.99781H10.8947V12.813L7.10526 8.00562L6 7.99781V14.9999L3.71429 7.99774ZM4 12.1069H2L3 9L4 12.1069Z" />
<path d="M23.9999 9.90698L22.7951 10.3471C22.5242 9.54651 21.9668 9.17351 20.9879 9.17351C20.009 9.17351 19.4272 9.61703 19.2013 10.2754C18.9754 10.9338 19.0507 12.4741 19.3314 12.9893C19.6121 13.5044 20.3308 13.8677 20.8579 13.8677C21.385 13.8677 22.3048 13.6595 22.8705 12.6225L24 12.9893C23.3976 14.9696 21.0634 15.1897 20.0091 14.8963C18.9549 14.6029 18.202 13.7961 17.976 13.0626C17.7501 12.3291 17.6898 11.594 17.9008 10.2754C18.1117 8.95691 19.4819 7.99996 20.9879 7.99996C22.4939 7.99996 23.3267 8.54647 23.9999 9.90698Z" />
</svg>
