<svg viewBox="0 0 24 24" xmlns="http://www.w3.org/2000/svg">
  <path
    d="M12.74 5.47001C15.1 6.50001 16.35 9.03001 15.92 11.46C17.19 12.56 18 14.19 18 16V16.17C18.31 16.06 18.65 16 19 16C19.7956 16 20.5587 16.3161 21.1213 16.8787C21.6839 17.4413 22 18.2044 22 19C22 19.7957 21.6839 20.5587 21.1213 21.1213C20.5587 21.6839 19.7956 22 19 22H6C4.93913 22 3.92172 21.5786 3.17157 20.8284C2.42143 20.0783 2 19.0609 2 18C2 16.9391 2.42143 15.9217 3.17157 15.1716C3.92172 14.4214 4.93913 14 6 14H6.27C5 12.45 4.6 10.24 5.5 8.26001C6.72 5.50001 9.97 4.24001 12.74 5.47001ZM11.93 7.30001C10.16 6.50001 8.09 7.31001 7.31 9.07001C6.85 10.09 6.93 11.22 7.41 12.13C8.5 10.83 10.16 10 12 10C12.7 10 13.38 10.12 14 10.34C13.94 9.06001 13.18 7.86001 11.93 7.30001ZM13.55 3.64001C13 3.40001 12.45 3.23001 11.88 3.12001L14.37 1.82001L15.27 4.71001C14.76 4.29001 14.19 3.93001 13.55 3.64001ZM6.09 4.44001C5.6 4.79001 5.17 5.19001 4.8 5.63001L4.91 2.82001L7.87 3.50001C7.25 3.71001 6.65 4.03001 6.09 4.44001ZM18 9.71001C17.91 9.12001 17.78 8.55001 17.59 8.00001L19.97 9.50001L17.92 11.73C18.03 11.08 18.05 10.4 18 9.71001ZM3.04 11.3C3.11 11.9 3.24 12.47 3.43 13L1.06 11.5L3.1 9.28001C3 9.93001 2.97 10.61 3.04 11.3Z"
  />
</svg>
