<svg xmlns="http://www.w3.org/2000/svg" viewBox="0 0 24 24">
<path d="M4.46167 20.9361C4.07189 20.9361 3.73083 20.7899 3.4385 20.4976C3.14617 20.2052 3 19.8642 3 19.4744V14.6509L6.28875 11.0211L7.33628 12.0686L4.46167 15.2112H19.0783L16.3743 12.1417L17.4218 11.0942L20.54 14.6509V19.4744C20.54 19.8642 20.3938 20.2052 20.1015 20.4976C19.8092 20.7899 19.4681 20.9361 19.0783 20.9361H4.46167ZM4.46167 19.4744H19.0783V16.6729H4.46167V19.4744ZM10.8443 13.5059L6.97086 9.63252C6.66229 9.32395 6.52424 8.97883 6.55672 8.59718C6.5892 8.21552 6.75161 7.87852 7.04394 7.58619L12.2085 2.42164C12.4835 2.15269 12.8243 2.01237 13.2309 2.00067C13.6374 1.98898 13.9869 2.1293 14.2792 2.42164L18.1526 6.29505C18.4287 6.57114 18.5708 6.90002 18.5789 7.28168C18.5871 7.66333 18.4287 8.01657 18.1039 8.34138L12.9393 13.5059C12.6632 13.782 12.3222 13.9282 11.9162 13.9444C11.5101 13.9607 11.1529 13.8145 10.8443 13.5059ZM16.9102 7.24513L13.256 3.59097L8.18892 8.65808L11.8431 12.3122L16.9102 7.24513Z"/>
</svg>
