<svg xmlns="http://www.w3.org/2000/svg" viewBox="0 0 24 24">
<path d="M4.46151 22.0001C4.07177 22.0001 3.73075 21.8539 3.43845 21.5616C3.14615 21.2693 3 20.9283 3 20.5386V15.7156L6.28839 12.0862L7.3358 13.1336L4.46151 16.2758H19.0766L16.3728 13.2067L17.4202 12.1593L20.5381 15.7156V20.5386C20.5381 20.9283 20.3919 21.2693 20.0996 21.5616C19.8073 21.8539 19.4663 22.0001 19.0766 22.0001H4.46151ZM4.46151 20.5386H19.0766V17.7373H4.46151V20.5386Z"/>
<path d="M13.9999 5.5C13.9999 8.165 9.99996 8.165 9.99996 5.5H10.9999C10.9999 6.835 12.9999 6.835 12.9999 5.5M15.9999 10V11.5H8V10C8 8.665 10.665 8 11.9999 8C13.3349 8 15.9999 8.665 15.9999 10ZM15.0499 10C15.0499 9.68 13.4849 8.95 11.9999 8.95C10.515 8.95 8.94998 9.68 8.94998 10V10.55H15.0499M12.2499 2C12.3899 2 12.4999 2.11 12.4999 2.25V3.75H12.9999V2.5C13.7249 2.835 14.1699 3.58 14.1249 4.375C14.1249 4.375 14.4749 4.445 14.4999 5H9.49997C9.49997 4.445 9.87497 4.375 9.87497 4.375C9.82997 3.58 10.275 2.835 10.9999 2.5V3.75H11.4999V2.25C11.4999 2.11 11.6099 2 11.7499 2"/>
</svg>
