<svg xmlns="http://www.w3.org/2000/svg" viewBox="0 0 24 24">
<path d="M12.4753 22.0001C11.2494 20.9621 9.91261 20.1564 8.4649 19.5831C7.01719 19.0097 5.52889 18.6975 4 18.6464V8.70033C5.51739 8.74509 7.00153 9.11836 8.45243 9.82015C9.90335 10.522 11.2443 11.4456 12.4753 12.5909C13.7064 11.4456 15.0473 10.522 16.4982 9.82015C17.9491 9.11836 19.4333 8.74509 20.9507 8.70033V18.6464C19.4218 18.6975 17.9335 19.0097 16.4858 19.5831C15.0381 20.1564 13.7013 20.9621 12.4753 22.0001ZM12.531 8.79618C11.553 8.79618 10.7263 8.45998 10.0507 7.78758C9.37508 7.11519 9.03728 6.28683 9.03728 5.30251C9.03728 4.32458 9.37508 3.49783 10.0507 2.82224C10.7263 2.14664 11.553 1.80884 12.531 1.80884C13.5089 1.80884 14.3356 2.14664 15.0112 2.82224C15.6868 3.49783 16.0246 4.32458 16.0246 5.30251C16.0246 6.28683 15.6868 7.11519 15.0112 7.78758C14.3356 8.45998 13.5089 8.79618 12.531 8.79618Z"/>
</svg>
