<svg xmlns="http://www.w3.org/2000/svg" viewBox="0 0 24 24">
<path d="M4.46151 21.0001C4.07177 21.0001 3.73075 20.8539 3.43845 20.5616C3.14615 20.2693 3 19.9283 3 19.5386V14.7156L6.28839 11.0862L7.3358 12.1336L4.46151 15.2758H19.0766L16.3728 12.2067L17.4202 11.1593L20.5381 14.7156V19.5386C20.5381 19.9283 20.3919 20.2693 20.0996 20.5616C19.8073 20.8539 19.4663 21.0001 19.0766 21.0001H4.46151ZM4.46151 19.5386H19.0766V16.7373H4.46151V19.5386Z" />
<path d="M13.8636 7.77273L13.2045 7.11364C13.2727 6.75758 13.1705 6.42424 12.8977 6.11364C12.625 5.80303 12.2727 5.68182 11.8409 5.75L11.1818 5.09091C11.3106 5.0303 11.4413 4.98485 11.5739 4.95455C11.7064 4.92424 11.8485 4.90909 12 4.90909C12.5682 4.90909 13.0511 5.10795 13.4489 5.50568C13.8466 5.90341 14.0455 6.38636 14.0455 6.95455C14.0455 7.10606 14.0303 7.24811 14 7.38068C13.9697 7.51326 13.9242 7.64394 13.8636 7.77273ZM15.3182 9.20455L14.6591 8.56818C14.947 8.34849 15.2027 8.10796 15.4261 7.84659C15.6496 7.58523 15.8409 7.28788 16 6.95455C15.6212 6.18939 15.0777 5.58144 14.3693 5.13068C13.661 4.67992 12.8712 4.45455 12 4.45455C11.7803 4.45455 11.5644 4.4697 11.3523 4.5C11.1402 4.5303 10.9318 4.57576 10.7273 4.63636L10.0227 3.93182C10.3333 3.80303 10.6515 3.70644 10.9773 3.64205C11.303 3.57765 11.6439 3.54545 12 3.54545C13.1439 3.54545 14.1629 3.86174 15.0568 4.49432C15.9508 5.12689 16.5985 5.94697 17 6.95455C16.8258 7.40152 16.5966 7.81629 16.3125 8.19886C16.0284 8.58144 15.697 8.91667 15.3182 9.20455ZM15.5455 12L13.6364 10.1136C13.3712 10.197 13.1042 10.2595 12.8352 10.3011C12.5663 10.3428 12.2879 10.3636 12 10.3636C10.8561 10.3636 9.83712 10.0473 8.94318 9.41477C8.04924 8.7822 7.40152 7.96212 7 6.95455C7.15909 6.55303 7.35985 6.17992 7.60227 5.83523C7.8447 5.49053 8.12121 5.18182 8.43182 4.90909L7.18182 3.63636L7.81818 3L16.1818 11.3636L15.5455 12ZM9.06818 5.54545C8.84848 5.74242 8.64773 5.95833 8.46591 6.19318C8.28409 6.42803 8.12879 6.68182 8 6.95455C8.37879 7.7197 8.92235 8.32765 9.63068 8.77841C10.339 9.22917 11.1288 9.45455 12 9.45455C12.1515 9.45455 12.2992 9.44508 12.4432 9.42614C12.5871 9.4072 12.7348 9.38636 12.8864 9.36364L12.4773 8.93182C12.3939 8.95455 12.3144 8.97159 12.2386 8.98296C12.1629 8.99432 12.0833 9 12 9C11.4318 9 10.9489 8.80114 10.5511 8.40341C10.1534 8.00568 9.95455 7.52273 9.95455 6.95455C9.95455 6.87121 9.96023 6.79167 9.97159 6.71591C9.98295 6.64015 10 6.56061 10.0227 6.47727L9.06818 5.54545Z"/>
</svg>
