<svg xmlns="http://www.w3.org/2000/svg" viewBox="0 0 24 24">
<path d="M4.46151 21.0001C4.07177 21.0001 3.73075 20.8539 3.43845 20.5616C3.14615 20.2693 3 19.9283 3 19.5386V14.7156L6.28839 11.0862L7.3358 12.1336L4.46151 15.2758H19.0766L16.3728 12.2067L17.4202 11.1593L20.5381 14.7156V19.5386C20.5381 19.9283 20.3919 20.2693 20.0996 20.5616C19.8073 20.8539 19.4663 21.0001 19.0766 21.0001H4.46151ZM4.46151 19.5386H19.0766V16.7373H4.46151V19.5386Z"/>
<path d="M10.125 9.4L12 7.525L13.875 9.4L14.4 8.875L12.525 7L14.4 5.125L13.875 4.6L12 6.475L10.125 4.6L9.6 5.125L11.475 7L9.6 8.875L10.125 9.4ZM12 12C11.3167 12 10.6708 11.8688 10.0625 11.6062C9.45417 11.3438 8.92292 10.9854 8.46875 10.5312C8.01458 10.0771 7.65625 9.54583 7.39375 8.9375C7.13125 8.32917 7 7.68333 7 7C7 6.30833 7.13125 5.65833 7.39375 5.05C7.65625 4.44167 8.01458 3.9125 8.46875 3.4625C8.92292 3.0125 9.45417 2.65625 10.0625 2.39375C10.6708 2.13125 11.3167 2 12 2C12.6917 2 13.3417 2.13125 13.95 2.39375C14.5583 2.65625 15.0875 3.0125 15.5375 3.4625C15.9875 3.9125 16.3438 4.44167 16.6062 5.05C16.8688 5.65833 17 6.30833 17 7C17 7.68333 16.8688 8.32917 16.6062 8.9375C16.3438 9.54583 15.9875 10.0771 15.5375 10.5312C15.0875 10.9854 14.5583 11.3438 13.95 11.6062C13.3417 11.8688 12.6917 12 12 12ZM12 11.25C13.1833 11.25 14.1875 10.8354 15.0125 10.0063C15.8375 9.17708 16.25 8.175 16.25 7C16.25 5.81667 15.8375 4.8125 15.0125 3.9875C14.1875 3.1625 13.1833 2.75 12 2.75C10.825 2.75 9.82292 3.1625 8.99375 3.9875C8.16458 4.8125 7.75 5.81667 7.75 7C7.75 8.175 8.16458 9.17708 8.99375 10.0063C9.82292 10.8354 10.825 11.25 12 11.25Z"/>
</svg>
