<svg xmlns="http://www.w3.org/2000/svg" viewBox="0 0 24 24">
<path d="M4.46151 21.0001C4.07177 21.0001 3.73075 20.8539 3.43845 20.5616C3.14615 20.2693 3 19.9283 3 19.5386V14.7156L6.28839 11.0862L7.3358 12.1336L4.46151 15.2758H19.0766L16.3728 12.2067L17.4202 11.1593L20.5381 14.7156V19.5386C20.5381 19.9283 20.3919 20.2693 20.0996 20.5616C19.8073 20.8539 19.4663 21.0001 19.0766 21.0001H4.46151ZM4.46151 19.5386H19.0766V16.7373H4.46151V19.5386Z"/>
<path d="M10.125 9.4L12 7.525L13.875 9.4L14.4 8.875L12.525 7L14.4 5.125L13.875 4.6L12 6.475L10.125 4.6L9.6 5.125L11.475 7L9.6 8.875L10.125 9.4Z"/>
<path d="M10.1268 10.95C8.75806 10.3083 7.77857 8.98333 7.62788 7.41667H7C7.21348 9.98333 9.36919 12 12.0021 12L12.2784 11.9875L10.6835 10.4L10.1268 10.95ZM12.0021 2L11.7258 2.0125L13.3206 3.6L13.8774 3.04583C15.2461 3.69167 16.2256 5.0125 16.3721 6.57917H17C16.7907 4.01667 14.635 2 12.0021 2Z"/>
</svg>
