<svg viewBox="0 0 24 24" fill="none" xmlns="http://www.w3.org/2000/svg">
<path d="M14 2H6C4.9 2 4 2.9 4 4V20C4 21.1 4.89 22 5.99 22H18C19.1 22 20 21.1 20 20V8L14 2ZM18 20H6V4H13V9H18V20Z" />
<path d="M10.9278 11.627C10.6312 10.8891 10.5079 9.7887 10.475 8.78442C10.4591 8.29956 10.4649 7.86734 10.4747 7.55672C10.4796 7.40179 10.4854 7.27808 10.49 7.19433C10.4923 7.15248 10.4942 7.12069 10.4955 7.10003L10.497 7.07758L10.4974 7.07249C10.4974 7.07249 10.4973 7.07272 9.49999 6.99996C8.50264 6.9272 8.50262 6.9275 8.50262 6.9275L8.50232 6.93165L8.50169 6.94069L8.49961 6.97219C8.49789 6.999 8.49556 7.03728 8.49292 7.08592C8.48764 7.18315 8.4811 7.32205 8.47568 7.49362C8.46487 7.83601 8.45843 8.3124 8.47605 8.84994C8.51015 9.89047 8.63683 11.29 9.07215 12.3729C9.66571 13.8495 10.9996 15.0611 12.1144 15.8856L10 18H16V12L13.5466 14.4534C13.5209 14.4352 13.4951 14.4169 13.4693 14.3984C12.3755 13.6133 11.3303 12.6282 10.9278 11.627Z" />
</svg>
