<svg  viewBox="0 0 24 24"  xmlns="http://www.w3.org/2000/svg">
<path d="M13.0007 20.0011V8.80042C13.5007 8.6004 14.0007 8.30038 14.3008 7.90036L17.801 9.20044L14.9008 16.0009C14.4008 18.001 15.9008 19.001 18.401 19.001C20.9012 19.001 22.5013 18.001 21.9012 16.0009L19.3011 9.70047L20.2011 10.0005L20.9012 8.10037L15.0008 6.00024C15.0008 4.80017 14.3008 3.6001 13.0007 3.10007C11.8006 2.60004 10.5005 3.10007 9.70047 4.00012L3.90012 2L3.20007 3.80011L4.80017 4.40015L2.10001 11.0005C1.59998 13.0007 3.10007 14.0007 5.60022 14.0007C8.10037 14.0007 9.70047 13.0007 9.10043 11.0005L6.60028 5.10019L9.00043 6.00024C9.00043 7.20032 9.70047 8.40039 11.0005 8.90042V20.0011H2V22.0012H22.0012V20.0011H13.0007ZM19.9011 16.0009H16.9009L18.401 12.2006L19.9011 16.0009ZM7.10031 11.0005H4.10013L5.60022 7.20032L7.10031 11.0005ZM11.1006 5.70023C11.3006 5.2002 11.9006 4.90018 12.4006 5.10019C12.9007 5.3002 13.2007 5.90024 13.0007 6.40027C12.8007 6.9003 12.2006 7.20032 11.7006 7.00031C11.2006 6.80029 10.9005 6.20026 11.1006 5.70023Z"/>
</svg>
