<svg viewBox="0 0 24 24" xmlns="http://www.w3.org/2000/svg">
<path fill-rule="evenodd" clip-rule="evenodd" d="M24 18.5C24 21.5376 21.5376 24 18.5 24C17.5454 24 16.6476 23.7568 15.8652 23.329C15.178 23.7544 14.3677 24 13.5 24C11.0147 24 9 21.9853 9 19.5C9 17.0147 11.0147 15 13.5 15C13.7421 15 13.9798 15.0191 14.2116 15.0559C15.2197 13.8023 16.7661 13 18.5 13C21.5376 13 24 15.4624 24 18.5ZM13.2021 17.0176C11.9618 17.1648 11 18.2201 11 19.5C11 20.8807 12.1193 22 13.5 22C13.7362 22 13.9647 21.9672 14.1813 21.906C13.4415 20.9693 13 19.7862 13 18.5C13 17.9864 13.0704 17.4892 13.2021 17.0176ZM22 18.5C22 20.433 20.433 22 18.5 22C16.567 22 15 20.433 15 18.5C15 16.567 16.567 15 18.5 15C20.433 15 22 16.567 22 18.5Z"/>
<rect x="8" y="7" width="2" height="2"/>
<rect x="12" y="7" width="5" height="2"/>
<rect x="8" y="11" width="2" height="2"/>
<path d="M4 15V3H21V11.9597C20.3718 11.7194 19.7002 11.567 19 11.5176V5H6V15H9.53125C8.90576 15.5521 8.39624 16.2324 8.04395 17H4V18C4 18.5523 4.44775 19 5 19H7.52051C7.50684 19.1649 7.5 19.3316 7.5 19.5C7.5 20.0179 7.56567 20.5206 7.68896 21H5C3.34326 21 2 19.6569 2 18V15H4Z"/>
<path d="M17 11H12V13H14.1697C14.9854 12.3571 15.9485 11.891 17 11.6613V11Z"/>
</svg>
