<svg viewBox="0 0 24 24" xmlns="http://www.w3.org/2000/svg">
<path d="M12 2C12.35 2 12.6833 2.09206 13 2.27539L20 6.2998C20.3167 6.48314 20.5623 6.72539 20.7373 7.02539C20.9122 7.32534 21 7.65881 21 8.02539V12.416C20.3875 12.1484 19.7111 12 19 12V9.09961L13 12.5752V19.4248L14.2891 18.6777C14.5171 19.318 14.8718 19.898 15.3232 20.3877L13 21.7246C12.6833 21.9079 12.35 22 12 22C11.65 22 11.3167 21.9079 11 21.7246L4 17.7002C3.68333 17.5169 3.4377 17.2746 3.2627 16.9746C3.08778 16.6747 3 16.3412 3 15.9746V8.02539C3 7.65881 3.08778 7.32534 3.2627 7.02539C3.4377 6.72539 3.68333 6.48314 4 6.2998L11 2.27539C11.3167 2.09206 11.65 2 12 2ZM5 15.9502L11 19.4248V12.5752L5 9.09961V15.9502ZM6.0752 7.4248L12 10.8496L17.9248 7.4248L12 4L6.0752 7.4248Z" />
<path d="M19.0479 13C19.5747 13.0001 20.0241 13.1862 20.3955 13.5576C20.7666 13.9289 20.952 14.3777 20.9521 14.9043V15.667H21.333C21.5425 15.667 21.7219 15.7415 21.8711 15.8906C22.0203 16.0398 22.0957 16.2192 22.0957 16.4287V20.2383C22.0957 20.4477 22.0203 20.6272 21.8711 20.7764C21.7219 20.9254 21.5424 21 21.333 21H16.7617C16.5523 21 16.3728 20.9255 16.2236 20.7764C16.0745 20.6272 16 20.4477 16 20.2383V16.4287C16 16.2193 16.0745 16.0398 16.2236 15.8906C16.3728 15.7415 16.5523 15.667 16.7617 15.667H17.1426V14.9043C17.1427 14.3776 17.329 13.9289 17.7002 13.5576C18.0716 13.1862 18.5209 13 19.0479 13ZM19.0479 17.5713C18.8385 17.5713 18.6589 17.6459 18.5098 17.7949C18.3606 17.9441 18.2862 18.1236 18.2861 18.333C18.2861 18.5425 18.3606 18.7219 18.5098 18.8711C18.659 19.0203 18.8383 19.0957 19.0479 19.0957C19.2573 19.0956 19.4368 19.0202 19.5859 18.8711C19.735 18.7219 19.8096 18.5424 19.8096 18.333C19.8095 18.1236 19.7351 17.9441 19.5859 17.7949C19.4368 17.6458 19.2573 17.5713 19.0479 17.5713ZM19.0479 13.7617C18.7304 13.7617 18.4605 13.8735 18.2383 14.0957C18.0163 14.3178 17.9044 14.5871 17.9043 14.9043V15.667H20.1904V14.9043C20.1903 14.5872 20.0793 14.3177 19.8574 14.0957C19.6353 13.8735 19.3652 13.7618 19.0479 13.7617Z" />
</svg>
