<svg viewBox="0 0 24 24" xmlns="http://www.w3.org/2000/svg">
<path d="M13 23H11V19H13V23Z" />
<path d="M20.125 18.6748L18.7002 20.1504L16.2754 17.625L17.5996 16.25L20.125 18.6748Z" />
<path d="M7.75 17.5996L5.3252 20.125L3.84961 18.7002L6.375 16.2754L7.75 17.5996Z" />
<path d="M12 7C13.3833 7 14.5621 7.48789 15.5371 8.46289C16.5121 9.43789 17 10.6167 17 12C17 13.3833 16.5121 14.5621 15.5371 15.5371C14.5621 16.5121 13.3833 17 12 17C10.6167 17 9.43789 16.5121 8.46289 15.5371C7.48789 14.5621 7 13.3833 7 12C7 10.6167 7.48789 9.43789 8.46289 8.46289C9.43789 7.48789 10.6167 7 12 7ZM12 15.9805C14.282 15.6022 15.9997 13.9554 16 11.9805C16 10.0053 14.2822 8.35781 12 7.97949V15.9805Z" />
<path d="M5 13H1V11H5V13Z" />
<path d="M23 13H19V11H23V13Z" />
<path d="M7.7002 6.34961L6.40039 7.75L3.875 5.3252L5.2998 3.84961L7.7002 6.34961Z" />
<path d="M20.1504 5.2998L17.6504 7.7002L16.25 6.40039L18.6748 3.875L20.1504 5.2998Z" />
<path d="M13 5H11V1H13V5Z" />
</svg>
