<svg viewBox="0 0 24 24" xmlns="http://www.w3.org/2000/svg">
<path d="M13 23H11V19H13V23Z" />
<path d="M21.043 21.0283L20.0283 22.043L14.3906 16.4053C13.6761 16.8002 12.8801 17 12 17C10.6167 17 9.43789 16.5121 8.46289 15.5371C7.48789 14.5621 7 13.3833 7 12C7 11.1197 7.19798 10.3224 7.59277 9.60742L2 4.01465L3.01465 3L21.043 21.0283Z" />
<path d="M7.75 17.5996L5.3252 20.125L3.84961 18.7002L6.375 16.2754L7.75 17.5996Z" />
<path d="M12 7C13.3833 7 14.5621 7.48789 15.5371 8.46289C16.5121 9.43789 17 10.6167 17 12C17 12.8802 16.801 13.6767 16.4062 14.3916L9.60742 7.59277C10.3224 7.19794 11.1197 7 12 7Z" />
<path d="M5 13H1V11H5V13Z" />
<path d="M23 13H19V11H23V13Z" />
<path d="M20.1504 5.2998L17.6504 7.7002L16.25 6.40039L18.6748 3.875L20.1504 5.2998Z" />
<path d="M13 5H11V1H13V5Z" />
</svg>
