<svg  viewBox="0 0 24 24"  xmlns="http://www.w3.org/2000/svg">
<path d="M9 15C8.85833 15 8.73958 14.9546 8.64375 14.8638C8.54792 14.773 8.5 14.6605 8.5 14.5263V13.5553C8.35 13.3974 8.22917 13.2217 8.1375 13.0283C8.04583 12.8349 8 12.6237 8 12.3947V7.89474C8 7.23947 8.32083 6.75987 8.9625 6.45592C9.60417 6.15197 10.6167 6 12 6C13.4333 6 14.4583 6.14605 15.075 6.43816C15.6917 6.73026 16 7.21579 16 7.89474V12.3947C16 12.6237 15.9542 12.8349 15.8625 13.0283C15.7708 13.2217 15.65 13.3974 15.5 13.5553V14.5263C15.5 14.6605 15.4521 14.773 15.3563 14.8638C15.2604 14.9546 15.1417 15 15 15H14.5C14.3583 15 14.2396 14.9546 14.1438 14.8638C14.0479 14.773 14 14.6605 14 14.5263V14.0526H10V14.5263C10 14.6605 9.95208 14.773 9.85625 14.8638C9.76042 14.9546 9.64167 15 9.5 15H9ZM12.025 7.42105H14.825H9.225H12.025ZM14 10.7368H9H15H14ZM9 9.78947H15V8.36842H9V9.78947ZM10.25 12.6316C10.4583 12.6316 10.6354 12.5625 10.7812 12.4243C10.9271 12.2862 11 12.1184 11 11.9211C11 11.7237 10.9271 11.5559 10.7812 11.4178C10.6354 11.2796 10.4583 11.2105 10.25 11.2105C10.0417 11.2105 9.86458 11.2796 9.71875 11.4178C9.57292 11.5559 9.5 11.7237 9.5 11.9211C9.5 12.1184 9.57292 12.2862 9.71875 12.4243C9.86458 12.5625 10.0417 12.6316 10.25 12.6316ZM13.75 12.6316C13.9583 12.6316 14.1354 12.5625 14.2812 12.4243C14.4271 12.2862 14.5 12.1184 14.5 11.9211C14.5 11.7237 14.4271 11.5559 14.2812 11.4178C14.1354 11.2796 13.9583 11.2105 13.75 11.2105C13.5417 11.2105 13.3646 11.2796 13.2188 11.4178C13.0729 11.5559 13 11.7237 13 11.9211C13 12.1184 13.0729 12.2862 13.2188 12.4243C13.3646 12.5625 13.5417 12.6316 13.75 12.6316ZM9.225 7.42105H14.825C14.7 7.28684 14.4313 7.17434 14.0188 7.08355C13.6063 6.99276 12.9417 6.94737 12.025 6.94737C11.1333 6.94737 10.4813 6.99671 10.0688 7.09539C9.65625 7.19408 9.375 7.30263 9.225 7.42105ZM10 13.1053H14C14.275 13.1053 14.5104 13.0125 14.7063 12.827C14.9021 12.6414 15 12.4184 15 12.1579V10.7368H9V12.1579C9 12.4184 9.09792 12.6414 9.29375 12.827C9.48958 13.0125 9.725 13.1053 10 13.1053Z"/>
<path d="M12 19.35C14.0333 17.4833 15.5417 15.7875 16.525 14.2625C17.5083 12.7375 18 11.3833 18 10.2C18 8.38333 17.4208 6.89583 16.2625 5.7375C15.1042 4.57917 13.6833 4 12 4C10.3167 4 8.89583 4.57917 7.7375 5.7375C6.57917 6.89583 6 8.38333 6 10.2C6 11.3833 6.49167 12.7375 7.475 14.2625C8.45833 15.7875 9.96667 17.4833 12 19.35ZM12 22C9.31667 19.7167 7.3125 17.5958 5.9875 15.6375C4.6625 13.6792 4 11.8667 4 10.2C4 7.7 4.80417 5.70833 6.4125 4.225C8.02083 2.74167 9.88333 2 12 2C14.1167 2 15.9792 2.74167 17.5875 4.225C19.1958 5.70833 20 7.7 20 10.2C20 11.8667 19.3375 13.6792 18.0125 15.6375C16.6875 17.5958 14.6833 19.7167 12 22Z"/>
</svg>
