<svg xmlns="http://www.w3.org/2000/svg" viewBox="0 0 24 24">
  <path
    d="M17.25,9.43V5.19c0-1.07-.87-1.94-1.94-1.94h-1.06V1.75h-1.5v1.5H6.25V1.75h-1.5v1.5h-1.06c-1.07,0-1.94,.87-1.94,1.94V15.31c0,1.07,.87,1.94,1.94,1.94h5.74c.68,2.87,3.25,5,6.32,5,3.59,0,6.5-2.91,6.5-6.5,0-3.07-2.13-5.64-5-6.32ZM3.69,15.75c-.24,0-.44-.2-.44-.44V7.75H15.75v1.5c-3.59,0-6.5,2.91-6.5,6.5H3.69Zm1.06-6.5h1.5v1.5h-1.5v-1.5Zm0,3h1.5v1.5h-1.5v-1.5Zm3-3h1.5v1.5h-1.5v-1.5Zm6.68,4.19c-.47,.29-.81,.64-1.02,1.05h2.43l.41,.84h-3.11c-.03,.19-.04,.33-.04,.42s.01,.23,.04,.42h2.7l.41,.84h-2.83c.21,.41,.55,.77,1.02,1.05s.94,.42,1.4,.42c.66,0,1.26-.21,1.76-.66l.76,.75c-.29,.26-.7,.49-1.19,.68s-.94,.29-1.33,.29c-.82,0-1.55-.24-2.2-.71s-1.1-1.07-1.37-1.81h-.64l-.42-.84h.86c-.01-.08-.01-.22-.01-.42s0-.34,.01-.42h-.44l-.42-.84h1.06c.26-.73,.72-1.34,1.37-1.81s1.38-.71,2.2-.71c.97,0,1.81,.32,2.52,.97l-.76,.75c-.5-.45-1.1-.66-1.76-.66-.47,0-.93,.13-1.4,.42Z"
  />
</svg>
