<?xml version="1.0" encoding="utf-8"?>
<!-- Generator: Adobe Illustrator 26.0.2, SVG Export Plug-In . SVG Version: 6.00 Build 0)  -->
<svg version="1.1" id="Livello_1" xmlns="http://www.w3.org/2000/svg" xmlns:xlink="http://www.w3.org/1999/xlink" x="0px" y="0px"
	 viewBox="0 0 24 24" style="enable-background:new 0 0 24 24;" xml:space="preserve">
<path d="M19,3h-1V1h-2v2H8V1H6v2H5C3.9,3,3,3.9,3,5v14c0,1.1,0.9,2,2,2h9c-0.6-0.5-1.1-1.2-1.5-2H5V8h14v2.6c0.7,0.1,1.4,0.3,2,0.7
	V5C21,3.9,20.1,3,19,3z"/>
<g>
	<path d="M18,12.5c-2.2,0-4,1.8-4,4s1.8,4,4,4c2.2,0,4-1.8,4-4S20.2,12.5,18,12.5z M18,19.7c-1.8,0-3.2-1.4-3.2-3.2s1.4-3.2,3.2-3.2
		s3.2,1.4,3.2,3.2S19.8,19.7,18,19.7z"/>
	<path d="M18.2,14.5h-0.6v2.4l2.1,1.3l0.3-0.5l-1.8-1.1V14.5z"/>
</g>
</svg>
