<svg xmlns="http://www.w3.org/2000/svg" viewBox="0 0 24 24">
  <path
    d="M22.25,10.19v10.06c0,1.1-.9,2-2,2H8.69c-.93,0-1.71-.66-1.9-1.54,.13,.03,.26,.04,.4,.04h13.06c.28,0,.5-.22,.5-.5V10.19h0v-1.5c0-.14-.01-.27-.04-.4,.88,.18,1.54,.96,1.54,1.9Zm-4.75,9.31c1.1,0,2-.9,2-2V7.44c0-.21-.04-.4-.1-.59-.21-.66-.75-1.17-1.44-1.31,.03,.13,.04,.26,.04,.4v1.5h0v10.06c0,.28-.22,.5-.5,.5H4.44c-.14,0-.27-.01-.4-.04,.14,.69,.65,1.23,1.31,1.44,.19,.06,.38,.1,.59,.1h11.56Zm-13.06-3H14.56c1.07,0,1.94-.87,1.94-1.94V7h0v-1.06h0v-1.5c0-.14-.01-.27-.04-.4-.18-.88-.96-1.54-1.9-1.54h-1.06V1h-1.5v1.5H5.5V1h-1.5v1.5h-1.06c-1.07,0-1.94,.87-1.94,1.94V14.56c0,.93,.66,1.71,1.54,1.9,.13,.03,.26,.04,.4,.04h1.5ZM2.5,7H15v7.56c0,.24-.2,.44-.44,.44H2.94c-.24,0-.44-.2-.44-.44V7Zm1.5,3v-1.5h1.5v1.5h-1.5Zm3,0h1.5v-1.5h-1.5v1.5Zm2.75-1.5v1.5h1.5v-1.5h-1.5Z"
  />
</svg>
