<svg  viewBox="0 0 48 48" xmlns="http://www.w3.org/2000/svg">
<path d="M26.55 16.3H36L26.55 7V16.3ZM30.8 42.3L28.7 40.2L32.9 36L28.7 31.8L30.8 29.7L35 33.9L39.2 29.7L41.3 31.8L37.15 36L41.3 40.2L39.2 42.3L35 38.15L30.8 42.3ZM10 44C9.2 44 8.5 43.7 7.9 43.1C7.3 42.5 7 41.8 7 41V7C7 6.2 7.3 5.5 7.9 4.9C8.5 4.3 9.2 4 10 4H28.05L39 14.95V26.3C38.3333 26.0333 37.6667 25.8333 37 25.7C36.3333 25.5667 35.65 25.5 34.95 25.5C32.05 25.5 29.5833 26.5167 27.55 28.55C25.5167 30.5833 24.5 33.05 24.5 35.95C24.5 37.5167 24.8333 39 25.5 40.4C26.1667 41.8 27.0833 43 28.25 44H10Z"/>
</svg>
