<svg xmlns="http://www.w3.org/2000/svg" viewBox="0 0 24 24">
  <path
    d="M12,9.25v1.5h-1.5v-1.5h1.5Zm-7.25,1.5h1.5v-1.5h-1.5v1.5Zm3,0h1.5v-1.5h-1.5v1.5Zm14.5,2.16v7.92c0,.78-.63,1.41-1.41,1.41H10.16c-.78,0-1.41-.63-1.41-1.41v-3.59H3.69c-1.07,0-1.94-.87-1.94-1.94V5.19c0-1.07,.87-1.94,1.94-1.94h1.06V1.75h1.5v1.5h6.5V1.75h1.5v1.5h1.06c1.07,0,1.94,.87,1.94,1.94v6.31h3.59c.78,0,1.41,.63,1.41,1.41Zm-12.09-1.41h5.59v-3.75H3.25v7.56c0,.24,.2,.44,.44,.44h5.06v-2.84c0-.78,.63-1.41,1.41-1.41Zm10.59,6H10.25v3.25h10.5v-3.25Zm0-4.5H10.25v1.5h10.5v-1.5Z"
  />
</svg>
