<svg viewBox="0 0 24 24" xmlns="http://www.w3.org/2000/svg">
<path d="M1 16H11.2899C11.1013 16.6337 11 17.305 11 18C11 18.695 11.1013 19.3663 11.2899 20H1V16Z" />
<path d="M2.5 15H11.6736C12.7971 12.6351 15.2076 11 18 11C18.4168 11 18.8251 11.0364 19.2219 11.1063L19 8C18.8 7 17.8 6 16.8 6H10V5H13V2H5V5H8V6H5.25C4.05 6 3.05 7 3.05 8L2.5 15ZM12 10V8H17V10H12ZM5 8H7V9H5V8ZM8 8H10V9H8V8ZM5 10H7V11H5V10ZM8 10H10V11H8V10ZM5 12H7V13H5V12ZM8 12H10V13H8V12ZM6 3H12V4H6V3Z" />
<path d="M16.45 21.4L16.65 23H19.4L19.6 21.4C19.7 21.3583 19.8 21.3083 19.9 21.25C20 21.1917 20.0958 21.1292 20.1875 21.0625L21.6625 21.6875L23.0375 19.3125L21.75 18.3375C21.7667 18.2792 21.775 18.2229 21.775 18.1688V17.8313C21.775 17.7771 21.7708 17.7208 21.7625 17.6625L23.05 16.6875L21.675 14.3125L20.1875 14.9375C20.0958 14.8708 20.0021 14.8083 19.9062 14.75C19.8104 14.6917 19.7083 14.6417 19.6 14.6L19.4 13H16.65L16.45 14.6C16.35 14.6417 16.25 14.6917 16.15 14.75C16.05 14.8083 15.9542 14.8708 15.8625 14.9375L14.375 14.3125L13 16.6875L14.2875 17.6625C14.2792 17.7208 14.275 17.7771 14.275 17.8313V18.1688C14.275 18.2229 14.2792 18.2792 14.2875 18.3375L13 19.3125L14.375 21.6875L15.8625 21.0625C15.9542 21.1292 16.0479 21.1917 16.1438 21.25C16.2396 21.3083 16.3417 21.3583 16.45 21.4ZM19.2875 19.2375C18.9458 19.5792 18.5333 19.75 18.05 19.75C17.5583 19.75 17.1438 19.5792 16.8063 19.2375C16.4688 18.8958 16.3 18.4833 16.3 18C16.3 17.5167 16.4688 17.1042 16.8063 16.7625C17.1438 16.4208 17.5583 16.25 18.05 16.25C18.5333 16.25 18.9458 16.4208 19.2875 16.7625C19.6292 17.1042 19.8 17.5167 19.8 18C19.8 18.4833 19.6292 18.8958 19.2875 19.2375Z" />
</svg>
