<svg xmlns="http://www.w3.org/2000/svg" viewBox="0 0 24 24">
  <path
    d="M5.55,19.54l-3.55-3.55,1.4-1.4,2.12,2.12,4.25-4.25,1.4,1.43-5.62,5.65ZM11.17,5.89l-1.4-1.43-4.25,4.25-2.12-2.12-1.4,1.4,3.55,3.55,5.62-5.65Zm8.04,6.09c0-.44-.05-.88-.15-1.3l2.12-1.82-1.87-3.15-2.66,.84c-.36-.33-.72-.57-1.08-.74s-.75-.33-1.18-.49l-.54-2.81h-1.85v5.56s.02,0,.02,0c1.08,0,2.01,.39,2.78,1.16,.77,.77,1.16,1.7,1.16,2.78s-.39,2.01-1.16,2.78c-.77,.77-1.7,1.16-2.78,1.16,0,0-.02,0-.02,0v5.56h1.85l.54-2.81c.43-.16,.82-.34,1.18-.54s.72-.43,1.08-.69l2.66,.84,1.87-3.15-2.12-1.82c.1-.46,.15-.91,.15-1.35Z"
  />
</svg>
