<svg xmlns="http://www.w3.org/2000/svg" viewBox="0 0 24 24">
  <path
    d="M21.35,7.25,19.63,4.5l1.72-2.75h-7.1V7.47a7.8,7.8,0,1,0,1.5.92V7.25Zm-4.1,7.25A6.42,6.42,0,0,1,17,16.21h-2.5a12.08,12.08,0,0,0,.12-1.71,12.36,12.36,0,0,0-.11-1.62H17A6.21,6.21,0,0,1,17.25,14.5Zm-12.5,0A6.21,6.21,0,0,1,5,12.88H7.48a12.36,12.36,0,0,0-.11,1.62,12.08,12.08,0,0,0,.12,1.71H5A6.42,6.42,0,0,1,4.75,14.5Zm4.12,0A10.84,10.84,0,0,1,9,12.88h4a10.84,10.84,0,0,1,.12,1.62A10.76,10.76,0,0,1,13,16.21H9A10.76,10.76,0,0,1,8.87,14.5Zm5.38-3.12h0a12.82,12.82,0,0,0-1-2.72,6.37,6.37,0,0,1,1.05.51Zm-3-3.12a11.24,11.24,0,0,1,1.46,3.12H9.32a11.24,11.24,0,0,1,1.46-3.12h.44Zm-2.42.4a12.82,12.82,0,0,0-1,2.72H5.59A6.26,6.26,0,0,1,8.8,8.66ZM5.65,17.71H7.79a12,12,0,0,0,1,2.63A6.26,6.26,0,0,1,5.65,17.71Zm5.13,3a11.23,11.23,0,0,1-1.44-3h3.32a11.23,11.23,0,0,1-1.44,3h-.44Zm2.42-.4a12,12,0,0,0,1-2.63h2.14A6.26,6.26,0,0,1,13.2,20.34Zm3.21-9h-.66v-.93A6,6,0,0,1,16.41,11.38Zm2.24-5.63h-2.9V3.25h2.9L17.87,4.5Z"
  />
</svg>
