<svg xmlns="http://www.w3.org/2000/svg" viewBox="0 0 24 24">
<path d="M11.2754 10.6957C10 10.6957 8.95652 10.2899 8.14493 9.47826C7.33333 8.66667 6.92754 7.62319 6.92754 6.34783C6.92754 5.07246 7.33333 4.02899 8.14493 3.21739C8.95652 2.4058 10 2 11.2754 2C12.5507 2 13.5942 2.4058 14.4058 3.21739C15.2174 4.02899 15.6232 5.07246 15.6232 6.34783C15.6232 7.62319 15.2174 8.66667 14.4058 9.47826C13.5942 10.2899 12.5507 10.6957 11.2754 10.6957ZM2 20V17.2754C2 16.599 2.16908 15.9855 2.50725 15.4348C2.84541 14.8841 3.33333 14.4734 3.97101 14.2029C5.42029 13.5652 6.71014 13.1159 7.84058 12.8551C8.97101 12.5942 10.1159 12.4638 11.2754 12.4638C12.4348 12.4638 13.5749 12.5942 14.6957 12.8551C15.8164 13.1159 17.1014 13.5652 18.5507 14.2029C19.1884 14.4928 19.6812 14.9082 20.029 15.4493C20.3768 15.9903 20.5507 16.599 20.5507 17.2754V20H2Z"/>
<path d="M17.4384 4.52964C17.4384 4.90909 17.5743 5.23057 17.846 5.49407C18.1178 5.75758 18.4493 5.88933 18.8406 5.88933C19.2319 5.88933 19.5634 5.75758 19.8351 5.49407C20.1069 5.23057 20.2428 4.90909 20.2428 4.52964C20.2428 4.1502 20.1069 3.82872 19.8351 3.56522C19.5634 3.30171 19.2319 3.16996 18.8406 3.16996C18.4493 3.16996 18.1178 3.30171 17.846 3.56522C17.5743 3.82872 17.4384 4.1502 17.4384 4.52964ZM16.2319 4.52964C16.2319 3.82697 16.4855 3.22969 16.9928 2.73781C17.5 2.24594 18.1159 2 18.8406 2C19.5652 2 20.1812 2.24594 20.6884 2.73781C21.1957 3.22969 21.4493 3.82697 21.4493 4.52964C21.4493 5.12692 21.2808 5.62758 20.9438 6.03162C20.6069 6.43566 20.1775 6.71849 19.6558 6.88011V10.5059L18.8623 11.2754L17.2754 9.93676L18.1884 8.85112L17.2754 7.96574L18.0471 7.21739V6.88011C17.5036 6.7466 17.0652 6.46377 16.7319 6.03162C16.3986 5.59947 16.2319 5.09881 16.2319 4.52964Z"/>
</svg>
