<svg viewBox="0 0 24 24" xmlns="http://www.w3.org/2000/svg">
<path d="M9.88487 4.22411C5.37781 5.1946 2 9.20275 2 14C2 15.8931 2.52607 17.6634 3.43999 19.1726C3.76581 19.7106 4.36937 20 4.99839 20H19.0016C19.6306 20 20.2342 19.7106 20.56 19.1726C21.4739 17.6634 22 15.8931 22 14C22 9.20275 18.6222 5.1946 14.1151 4.22411C14.292 4.95154 14.467 5.7004 14.6347 6.44402C17.7586 7.53321 20 10.5049 20 14C20 15.457 19.6104 16.8232 18.9297 18H5.07031C4.38965 16.8232 4 15.457 4 14C4 10.5049 6.24144 7.53321 9.36526 6.44402C9.53298 5.7004 9.70796 4.95154 9.88487 4.22411Z" />
<path d="M13.9953 13.8623C13.9206 12.6046 12.9603 7.84122 12 4C11.0397 7.84125 10.0794 12.6047 10.0047 13.8623C10.0016 13.9078 10 13.9537 10 14C10 15.1046 10.8954 16 12 16C13.1046 16 14 15.1046 14 14C14 13.9537 13.9984 13.9078 13.9953 13.8623Z" />
</svg>
