<svg viewBox="0 0 24 24" xmlns="http://www.w3.org/2000/svg">
<path d="M13.5083 15.3136C14.3447 14.3714 17.034 10.3241 19.0711 6.92896C15.6759 8.96609 11.6285 11.6553 10.6864 12.4918C10.6521 12.5217 10.6185 12.5531 10.5858 12.5858C9.80474 13.3669 9.80474 14.6332 10.5858 15.4142C11.3668 16.1953 12.6332 16.1953 13.4142 15.4142C13.4469 15.3815 13.4783 15.3479 13.5083 15.3136Z"/>
<path d="M3.43999 19.1726C2.52607 17.6634 2 15.8931 2 14C2 8.47705 6.47705 4 12 4C13.996 4 15.8554 4.58474 17.4162 5.59226C16.7768 5.98145 16.1237 6.38716 15.4795 6.79429C14.4274 6.28534 13.247 6 12 6C7.58179 6 4 9.58179 4 14C4 15.457 4.38965 16.8232 5.07031 18H18.9297C19.6104 16.8232 20 15.457 20 14C20 12.753 19.7147 11.5726 19.2057 10.5205C19.6128 9.87628 20.0186 9.22318 20.4078 8.58385C21.4153 10.1447 22 12.004 22 14C22 15.8931 21.4739 17.6634 20.56 19.1726C20.2342 19.7106 19.6306 20 19.0016 20H4.99839C4.36937 20 3.76581 19.7106 3.43999 19.1726Z"/>
</svg>
