<svg viewBox="0 0 24 24" xmlns="http://www.w3.org/2000/svg">
<path d="M13.3136 12.4915C12.3714 11.655 8.32415 8.96583 4.92896 6.92871C6.96609 10.3239 9.65531 14.3712 10.4918 15.3134C10.5217 15.3477 10.5531 15.3813 10.5858 15.414C11.3669 16.195 12.6332 16.195 13.4142 15.414C14.1953 14.6329 14.1953 13.3666 13.4142 12.5856C13.3815 12.5528 13.3479 12.5215 13.3136 12.4915Z" />
<path d="M2 14C2 15.8931 2.52607 17.6634 3.43999 19.1726C3.76581 19.7106 4.36937 20 4.99839 20H19.0016C19.6306 20 20.2342 19.7106 20.56 19.1726C21.4739 17.6634 22 15.8931 22 14C22 8.47705 17.5229 4 12 4C10.0041 4 8.14481 4.58469 6.58403 5.59213C7.22337 5.98133 7.87648 6.38705 8.52075 6.79418C9.57273 6.2853 10.7531 6 12 6C16.4182 6 20 9.58179 20 14C20 15.457 19.6104 16.8232 18.9297 18H5.07031C4.38965 16.8232 4 15.457 4 14C4 12.7529 4.28536 11.5725 4.79435 10.5204C4.38723 9.87614 3.98152 9.22304 3.59233 8.58372C2.58477 10.1446 2 12.004 2 14Z" />
</svg>
