<svg viewBox="0 0 24 24" xmlns="http://www.w3.org/2000/svg">
<path d="M3 2.01465L21.0283 20.043L20.0283 21.043L18.5469 19.5615C17.7682 20.2344 16.8876 20.7869 15.9004 21.2129C14.6837 21.7379 13.3833 22 12 22C10.6167 22 9.31628 21.7379 8.09961 21.2129C6.88302 20.6879 5.82476 19.9751 4.9248 19.0752C4.02485 18.1752 3.3121 17.117 2.78711 15.9004C2.26211 14.6837 2 13.3833 2 12C2 10.6167 2.26211 9.31628 2.78711 8.09961C3.21313 7.11237 3.76457 6.23088 4.4375 5.45215L2 3.01465L3 2.01465ZM13 19.9248C14.5804 19.7256 15.956 19.1311 17.1289 18.1436L13 14.0146V19.9248Z" />
<path d="M12 2C13.3833 2 14.6837 2.26211 15.9004 2.78711C17.117 3.3121 18.1752 4.02485 19.0752 4.9248C19.9751 5.82476 20.6879 6.88302 21.2129 8.09961C21.7379 9.31628 22 10.6167 22 12C22 13.3833 21.7379 14.6837 21.2129 15.9004C20.9838 16.4313 20.7164 16.9304 20.415 17.4004L18.9736 15.959C19.6567 14.7812 20 13.4623 20 12C20 9.95 19.329 8.17917 17.9873 6.6875C16.6457 5.1959 14.9833 4.32519 13 4.0752V9.98535L6.59766 3.58301C7.06802 3.28183 7.5685 3.0163 8.09961 2.78711C9.31628 2.26211 10.6167 2 12 2Z" />
</svg>
