<svg viewBox="0 0 24 24" xmlns="http://www.w3.org/2000/svg">
  <path
    d="M16 1H4C3.46957 1 2.96086 1.21071 2.58579 1.58579C2.21071 1.96086 2 2.46957 2 3V17H4V3H16V1Z"
  />
  <path
    d="M19.3333 21H7.66667L7.66668 6.77273H9.33334V9.22727H17.6667V6.77273H19.3333L19.3333 21ZM13.5 5.13636C13.721 5.13636 13.933 5.22256 14.0893 5.376C14.2455 5.52944 14.3333 5.73755 14.3333 5.95455C14.3333 6.17154 14.2455 6.37965 14.0893 6.53309C13.933 6.68653 13.721 6.77273 13.5 6.77273C13.279 6.77273 13.067 6.68653 12.9108 6.53309C12.7545 6.37965 12.6667 6.17154 12.6667 5.95455C12.6667 5.73755 12.7545 5.52944 12.9108 5.376C13.067 5.22256 13.279 5.13636 13.5 5.13636ZM19.3333 5.13636H15.85C15.5 4.18727 14.5833 3.5 13.5 3.5C12.4167 3.5 11.5 4.18727 11.15 5.13636H7.66668C7.22465 5.13636 6.80073 5.30877 6.48817 5.61564C6.17561 5.92252 6.00001 6.33874 6.00001 6.77273L6 21C6 21.434 6.17559 21.8502 6.48816 22.1571C6.80072 22.464 7.22464 22.6364 7.66667 22.6364H19.3333C19.7754 22.6364 20.1993 22.464 20.5118 22.1571C20.8244 21.8502 21 21.434 21 21L21 6.77273C21 6.33874 20.8244 5.92252 20.5119 5.61564C20.1993 5.30877 19.7754 5.13636 19.3333 5.13636Z"
  />
</svg>
