<svg viewBox="0 0 24 24" xmlns="http://www.w3.org/2000/svg">
<path d="M11.8938 17.2442H11.819C11.2667 17.2442 10.819 16.7965 10.819 16.2442V12.3082C10.819 11.7594 11.2639 11.3145 11.8127 11.3145C12.3535 11.3145 12.8098 11.4022 13.1816 11.5777C13.5568 11.7531 13.8407 12.0557 14.0334 12.4854C14.2294 12.9151 14.3274 13.5131 14.3274 14.2793C14.3274 15.0456 14.2311 15.6436 14.0384 16.0733C13.8492 16.503 13.572 16.8055 13.207 16.981C12.8453 17.1565 12.4076 17.2442 11.8938 17.2442Z"/>
<path fill-rule="evenodd" clip-rule="evenodd" d="M12.5735 2.18077C12.2291 1.93974 11.7709 1.93974 11.4265 2.18077L2.42654 8.48077C2.15921 8.6679 2 8.97369 2 9.3V20.7793C2 21.3316 2.44772 21.7793 3 21.7793H21C21.5523 21.7793 22 21.3316 22 20.7793V9.3C22 8.97369 21.8408 8.6679 21.5735 8.48077L12.5735 2.18077ZM8 18.7793C8 19.3316 8.44771 19.7793 9 19.7793H11.9952C13.0498 19.7793 13.9641 19.5609 14.7381 19.1241C15.5121 18.6836 16.1104 18.0534 16.5329 17.2334C16.9554 16.4099 17.1667 15.4252 17.1667 14.2793C17.1667 13.1335 16.9537 12.1506 16.5278 11.3306C16.1053 10.507 15.5037 9.87684 14.7229 9.43999C13.9455 8.99956 13.0227 8.77934 11.9546 8.77934H9C8.44772 8.77934 8 9.22706 8 9.77934V18.7793Z"/>
</svg>
