<svg viewBox="0 0 24 24" xmlns="http://www.w3.org/2000/svg">
<path d="M6.72727 4L6.32636 4.875L5.45455 5.27273L6.32636 5.67364L6.72727 6.54545L7.125 5.67364L8 5.27273L7.125 4.875L6.72727 4Z"/>
<path d="M3.54545 4.95455L2.75 6.70455L1 7.5L2.75 8.29545L3.54545 10.0455L4.34091 8.29545L6.09091 7.5L4.34091 6.70455L3.54545 4.95455Z"/>
<path d="M23 5.84753L22.1525 5L18.7444 8.414C17.8253 7.77537 16.7211 7.68584 16.0049 8.22301L19.777 11.9951C20.3142 11.2789 20.2246 10.1747 19.586 9.25556L23 5.84753Z"/>
<path d="M12 9.89419C12.2029 11.2311 12.9371 12.6636 14.1367 13.8633C15.3364 15.0629 16.7689 15.7971 18.1058 16L19.3532 13.0874L14.9126 8.64677L12 9.89419Z"/>
<path d="M2 12.5C2 11.1188 4.2375 10 7 10C9.7625 10 12 11.1188 12 12.5C12 13.8813 9.7625 15 7 15C4.2375 15 2 13.8813 2 12.5Z"/>
<path d="M2 15.625V13.75C2 15.1313 4.2375 16.25 7 16.25C9.7625 16.25 12 15.1313 12 13.75V15.625C12 17.0063 9.7625 18.125 7 18.125C4.2375 18.125 2 17.0063 2 15.625Z"/>
<path d="M2 18.75V16.875C2 18.2563 4.2375 19.375 7 19.375C9.7625 19.375 12 18.2563 12 16.875V18.75C12 20.1313 9.7625 21.25 7 21.25C4.2375 21.25 2 20.1313 2 18.75Z"/>
<path d="M6.52932 8.52932L6.77273 8L7.01421 8.52932L7.54546 8.77273L7.01421 9.01421L6.77273 9.54546L6.52932 9.01421L6 8.77273L6.52932 8.52932Z"/>
</svg>
