<svg xmlns="http://www.w3.org/2000/svg" viewBox="0 0 24 24">
  <path
    d="M9,13.25h6v1.5h-6v-1.5Zm-7-.5h6v-1.5H2v1.5Zm0,2h6v-1.5H2v1.5ZM5,2.74c-1.66,0-3,1.34-3,3s1.34,3,3,3,3-1.34,3-3-1.34-3-3-3Zm-3,8h6v-1.5H2v1.5Zm0,6.01h6v-1.5H2v1.5Zm0,2h6v-1.5H2v1.5Zm0,2h6v-1.5H2v1.5Zm13.96-3.5v1.5h6v-1.5h-6Zm0,3.5h6v-1.5h-6v1.5Zm-6.96-4h6v-1.5h-6v1.5Zm0,2h6v-1.5h-6v1.5Zm0,2h6v-1.5h-6v1.5Zm4.55-10.56l5.15,5.15h-1.81v.99h3.5v-3.5h-.99v1.79l-5.84-5.84-1.55,1.55-2.65-2.66-.71,.71,3.35,3.37,1.55-1.56Z"
  />
</svg>
