<svg xmlns="http://www.w3.org/2000/svg" width="24" height="24" viewBox="0 0 24 24"><path d="M20,4.25H4a5.49,5.49,0,0,1,8,0,5.49,5.49,0,0,1,8,0Zm1.23,5.36h-.64a5.21,5.21,0,0,1,.52.28C21.17,9.79,21.22,9.71,21.25,9.61Zm.23-2a5.48,5.48,0,0,0-.39-1.63H2.91a5.35,5.35,0,0,0-.39,1.61v.39h19ZM10.3,16.66l.91.7a2,2,0,0,1,.76,1.3H12a2,2,0,0,1,.55-1.11,5.28,5.28,0,0,1-.34-.89ZM12.36,13H5.48L8.1,15H12A5.81,5.81,0,0,1,12.36,13Zm3-3.37H2.75a5.62,5.62,0,0,0,1.11,2h9.2A5.86,5.86,0,0,1,15.39,9.61ZM23,15a5,5,0,0,1-1.5,3.57V21.5h-1V20h-1v1.5h-1V20h-1v1.5h-1V20h-1v1.5h-1V18.58A5,5,0,0,1,13,15a5,5,0,0,1,10,0Zm-5.75.75a1.5,1.5,0,1,0-1.5,1.5A1.5,1.5,0,0,0,17.25,15.75Zm1.5,2.75L18,17l-.75,1.5Zm3-2.75a1.5,1.5,0,1,0-1.5,1.5A1.5,1.5,0,0,0,21.75,15.75Z"/><rect width="24" height="24" fill="none"/></svg>