<svg xmlns="http://www.w3.org/2000/svg" viewBox="0 0 24 24">
  <path
    d="M11.56,9.43h0Zm-2.83-2H2.91A5.35,5.35,0,0,0,2.52,9v.39H7.15Zm2.1-2.64A5.45,5.45,0,0,0,8,4,5.51,5.51,0,0,0,4,5.75h6.09Zm-.55,6.32H2.75a5.62,5.62,0,0,0,1.11,2h4.9Zm11.2-1.68V9.06a5.48,5.48,0,0,0-.39-1.63H16.84l.39-.52-3,.52h-1.8l1.29-1.68H20A5.51,5.51,0,0,0,16,4a5.58,5.58,0,0,0-1.6.24h0a5.58,5.58,0,0,0-1.24.57L13,4.89a3.91,3.91,0,0,0-.41.3l-.14.1L12,5.73h0L10.06,8.17l5-.88-3.71,4.85,5.3-.9-5.85,6.9,0,0h0l-.2.24.6.46a2,2,0,0,1,.76,1.3H12a2,2,0,0,1,.76-1.3l.91-.7H12.64l1.42-1.68H15.9l2.62-2H15.76l1.16-1.37h3.22a5.62,5.62,0,0,0,1.11-2H18.62l.21-.25-1.46.25H14l1.28-1.68ZM12,14.48H5.48l2.62,2h2.17Z"
  />
</svg>
