<svg xmlns="http://www.w3.org/2000/svg" width="24" height="24" viewBox="0 0 24 24"><path d="M20.72,10.81A5.49,5.49,0,0,0,12,4.23a5.5,5.5,0,1,0-7.06,8.34l6.27,4.78A2,2,0,0,1,12,19a2,2,0,0,1,.79-1.6l.59-.45a5,5,0,0,0,1.14,1.68V21.5h1V20h1v1.5h1V20h1v1.5h1V20h1v1.5h1V18.57a5,5,0,0,0-.78-7.76ZM13,15.28l-1,.79L5.85,11.38l0,0,0,0a4,4,0,1,1,5.14-6.06L12,6.42l1.09-1.16A4,4,0,0,1,20,8a3.94,3.94,0,0,1-.67,2.2A4.86,4.86,0,0,0,18,10a5,5,0,0,0-5,5A2.4,2.4,0,0,0,13,15.28Zm2.72,2a1.5,1.5,0,1,1,1.5-1.5A1.5,1.5,0,0,1,15.75,17.25Zm1.5,1.25L18,17l.75,1.5Zm3-1.25a1.5,1.5,0,1,1,1.5-1.5A1.5,1.5,0,0,1,20.25,17.25Z"/><rect width="24" height="24" fill="none"/></svg>