<svg viewBox="0 0 24 24" xmlns="http://www.w3.org/2000/svg">
<path d="M12.5991 13.2329C12.3226 12.411 12.5069 11.7717 12.5991 11.4064C12.5069 11.0411 12.3226 10.4932 12.5069 9.67123C12.7834 8.94064 13.2442 8.57534 13.5207 8.30137C13.6129 7.93607 13.7972 7.38813 14.5346 6.84018C15.1797 6.38356 15.8249 6.38356 16.1935 6.38356C16.2857 6.29224 16.47 6.20091 16.6544 6.10959V3.46119C16.7465 2.63927 16.1014 2 15.2719 2H3.47465C2.64516 2 2 2.63927 2 3.46119V12.411C2 13.2329 2.64516 13.8721 3.47465 13.8721H12.9677C12.7834 13.6895 12.6912 13.5068 12.5991 13.2329ZM3.84332 5.65297V3.82648L9.37327 6.56621L14.9032 3.82648V5.65297L9.37327 8.39269L3.84332 5.65297ZM21.9078 10.1279C21.7235 9.57991 21.2627 9.48858 20.9862 9.21461C20.8018 8.94064 20.8018 8.39269 20.341 8.11872C19.8802 7.75342 19.4194 7.93607 19.0507 7.84475C18.682 7.75342 18.4055 7.2968 17.8525 7.2968C17.2995 7.2968 17.023 7.6621 16.6544 7.84475C16.2857 7.93607 15.8249 7.75342 15.3641 8.11872C14.9032 8.39269 14.9954 8.84931 14.7189 9.21461C14.4424 9.48858 13.9816 9.67123 13.7972 10.1279C13.6129 10.6758 13.9816 11.0411 13.9816 11.4064C13.9816 11.7717 13.6129 12.137 13.7972 12.6849C13.9816 13.2329 14.4424 13.3242 14.7189 13.5982C14.9032 13.8721 14.9032 14.4201 15.3641 14.6941C15.8249 15.0594 16.2857 14.8767 16.6544 14.968C17.023 15.0594 17.2995 15.516 17.8525 15.516C18.4055 15.516 18.682 15.1507 19.0507 14.968C19.4194 14.8767 19.8802 15.0594 20.341 14.6941C20.8018 14.3288 20.8018 13.8721 20.9862 13.5982C21.2627 13.3242 21.7235 13.1416 21.9078 12.6849C22.0922 12.137 21.7235 11.7717 21.7235 11.4064C21.7235 11.0411 22.0922 10.6758 21.9078 10.1279ZM17.8525 14.2374C16.2857 14.2374 15.0876 12.9589 15.0876 11.4977C15.0876 10.0365 16.3779 8.75799 17.8525 8.75799C19.3272 8.75799 20.6175 10.0365 20.6175 11.4977C20.6175 12.9589 19.4194 14.2374 17.8525 14.2374ZM19.235 11.4064C19.235 12.137 18.5899 12.7763 17.8525 12.7763C17.1152 12.7763 16.47 12.137 16.47 11.4064C16.47 10.6758 17.1152 10.0365 17.8525 10.0365C18.5899 10.0365 19.235 10.6758 19.235 11.4064ZM19.0507 16.7032L18.5899 19.1689L18.0369 22L16.1935 20.2648L13.9816 21.2694L14.9032 16.0639C15.2719 16.2466 15.7327 16.3379 16.1935 16.3379C16.47 16.5205 16.8387 16.7032 17.1152 16.7945C17.2995 16.8858 17.576 16.8858 17.8525 16.8858C18.3134 16.9772 18.682 16.8858 19.0507 16.7032ZM22 18.895L20.1567 18.2557L20.5253 16.2466L21.0783 15.9726L21.1705 15.8813L22 18.895Z"/>
</svg>
