<svg xmlns="http://www.w3.org/2000/svg" viewBox="0 0 24 24">
<path fill-rule="evenodd" clip-rule="evenodd" d="M6.77962 21.9266C6.95427 21.9755 7.13881 22 7.33325 22H7.83325H19.3333C19.8833 22 20.3541 21.8042 20.7458 21.4125C21.1374 21.0208 21.3333 20.55 21.3333 20V8L15.3333 2H7.33325C6.78325 2 6.31242 2.19583 5.92075 2.5875C5.52909 2.97917 5.33325 3.45 5.33325 4V7.42676C6.1152 7.15039 6.95666 7 7.83325 7C11.9754 7 15.3333 10.3579 15.3333 14.5C15.3333 18.6421 11.9754 22 7.83325 22C7.47564 22 7.12388 21.975 6.77962 21.9266ZM19.3333 9H14.3333V4L19.3333 9Z"/>
<path d="M7.90417 8.66675C4.6437 8.66675 2 11.3104 2 14.5709C2 17.8314 4.6437 20.4751 7.90417 20.4751C11.1646 20.4751 13.8083 17.8314 13.8083 14.5709C13.8083 11.3104 11.1646 8.66675 7.90417 8.66675ZM8.74103 13.6194C8.79902 13.6194 8.84646 13.6668 8.84646 13.7248V14.0833C8.84646 14.1413 8.79902 14.1887 8.74103 14.1887H6.94869C6.94474 14.2467 6.94474 14.3087 6.94474 14.3706V14.845H8.73971C8.7977 14.845 8.84514 14.8925 8.84514 14.9505V15.3089C8.84514 15.3669 8.7977 15.4144 8.73971 15.4144H7.01986C7.2215 16.2315 7.82773 16.7138 8.73049 16.7138C8.99275 16.7138 9.21943 16.698 9.41316 16.6598C9.47773 16.6466 9.53836 16.6967 9.53836 16.7626V17.3266C9.53836 17.3767 9.50277 17.4189 9.45401 17.4294C9.24447 17.4742 9.00197 17.4966 8.72522 17.4966C7.27817 17.4966 6.31347 16.7217 6.08679 15.4144H5.6901C5.63212 15.4144 5.58467 15.3669 5.58467 15.3089V14.9505C5.58467 14.8925 5.63212 14.845 5.6901 14.845H6.03408V14.3587C6.03408 14.3007 6.03408 14.2428 6.03803 14.19H5.6901C5.63212 14.19 5.58467 14.1426 5.58467 14.0846V13.7261C5.58467 13.6682 5.63212 13.6207 5.6901 13.6207H6.10788C6.3675 12.3793 7.32034 11.6452 8.72522 11.6452C9.00066 11.6452 9.24447 11.6702 9.45401 11.7164C9.50277 11.7269 9.53704 11.7691 9.53704 11.8192V12.3832H9.53836C9.53836 12.4504 9.47773 12.4992 9.41184 12.486C9.21811 12.4478 8.99275 12.428 8.73049 12.428C7.86858 12.428 7.27553 12.8695 7.04885 13.6194H8.74103Z"/>
</svg>
