<svg xmlns="http://www.w3.org/2000/svg" viewBox="0 0 24 24">
<path fill-rule="evenodd" clip-rule="evenodd" d="M6.44637 21.9266C6.62102 21.9755 6.80556 22 7 22H7.5H19C19.55 22 20.0208 21.8042 20.4125 21.4125C20.8042 21.0208 21 20.55 21 20V8L15 2H7C6.45 2 5.97917 2.19583 5.5875 2.5875C5.19583 2.97917 5 3.45 5 4V7.42676C5.78195 7.15039 6.62341 7 7.5 7C11.6421 7 15 10.3579 15 14.5C15 18.6421 11.6421 22 7.5 22C7.14239 22 6.79063 21.975 6.44637 21.9266ZM19 9H14V4L19 9Z"/>
<path d="M3 13H12V15.6667H3V13Z"/>
</svg>
