<svg viewBox="0 0 24 24" xmlns="http://www.w3.org/2000/svg">
<path d="M21.5 14.5V22.5H2.5V14.5H21.5ZM3 20.8672H4.2168V19.042H5.43359V20.8672H6.65039V16H5.43359V17.8252H4.2168V16H3V20.8672ZM7.4375 17.2168H8.6543V20.8672H9.87109V17.2168H11.0879V16H7.4375V17.2168ZM11.875 16V20.8672H13.0918V17.8252L14.3086 19.042L15.5244 17.8252V20.8672H16.7412V16H15.5244L14.3086 17.2168L13.0918 16H11.875ZM17.8613 16V20.8672H21V19.6504H18.9922V16H17.8613Z" />
<path d="M14.5 6H18.5L11.5 13L4.5 6H8.5V1H14.5V6Z" />
</svg>
