<svg viewBox="0 0 24 24" xmlns="http://www.w3.org/2000/svg">
<path d="M21 15H2V23H21V15ZM8.57303 20.5361L8.73626 21.3053C8.53733 21.3958 8.08993 21.4928 7.50754 21.4928C5.85236 21.4928 5 20.5555 5 19.3143C5 17.8275 6.16496 17.0002 7.61392 17.0002C8.17518 17.0002 8.60127 17.1036 8.79309 17.1941L8.57286 17.9762C8.35262 17.8922 8.04712 17.8146 7.66366 17.8146C6.80419 17.8146 6.13637 18.2866 6.13637 19.2562C6.13654 20.1288 6.70473 20.6783 7.67076 20.6783C7.99757 20.6783 8.35972 20.6137 8.57303 20.5361ZM9.61775 21.2275L9.83799 20.4131C10.1293 20.5489 10.5769 20.6845 11.0385 20.6845C11.5358 20.6845 11.7985 20.4971 11.7985 20.2127C11.7985 19.9411 11.5711 19.786 10.9957 19.5986C10.2001 19.3465 9.68151 18.9457 9.68151 18.3123C9.68151 17.5689 10.3634 17 11.493 17C12.0327 17 12.4306 17.1034 12.7148 17.2198L12.4734 18.0149C12.2816 17.9308 11.9406 17.808 11.4717 17.808C11.0028 17.808 10.7756 18.0019 10.7756 18.2282C10.7756 18.5062 11.0456 18.629 11.6635 18.8424C12.5087 19.1267 12.9066 19.5275 12.9066 20.1417C12.9068 20.8721 12.2887 21.4928 10.9745 21.4928C10.4277 21.4928 9.88772 21.3633 9.61775 21.2275ZM15.1236 21.4281L13.5892 17.0713H14.7754L15.3578 18.9135C15.5212 19.4307 15.6704 19.9284 15.7839 20.4714H15.8052C15.926 19.9478 16.0752 19.4307 16.2384 18.9329L16.8492 17.0713H18L16.3878 21.4281H15.1236Z"/>
<path d="M14.5 6H18.5L11.5 13L4.5 6H8.5V1H14.5V6Z"/>
</svg>
