<svg viewBox="0 0 24 24" xmlns="http://www.w3.org/2000/svg">
<path d="M11.6134 19.0827C11.6134 19.8413 11.9339 20.3759 12.4615 20.3759C12.9941 20.3759 13.2992 19.8127 13.2992 19.0598C13.2992 18.3645 12.9993 17.7667 12.4563 17.7667C11.9237 17.7667 11.6134 18.3298 11.6134 19.0827Z"/>
<path d="M21 23V15H2V23H21ZM10.7989 19.0288C10.7989 17.8678 11.466 17 12.4949 17C13.5654 17 14.1497 17.8908 14.1497 18.9598C14.1495 20.23 13.4566 21 12.4381 21C11.4038 21 10.7989 20.1322 10.7989 19.0288ZM8.60583 20.9948C8.11958 20.9948 7.63949 20.8797 7.39944 20.759L7.59527 20.0348C7.85427 20.1555 8.25225 20.2761 8.6627 20.2761C9.1049 20.2761 9.33846 20.1095 9.33846 19.8566C9.33846 19.6152 9.13631 19.4772 8.62463 19.3106C7.91727 19.0864 7.45613 18.73 7.45613 18.1668C7.45613 17.5059 8.06241 17 9.06683 17C9.54677 17 9.90052 17.092 10.1532 17.1955L9.93858 17.9024C9.76802 17.8276 9.46481 17.7184 9.04788 17.7184C8.63095 17.7184 8.42897 17.8909 8.42897 18.0921C8.42897 18.3393 8.669 18.4485 9.21843 18.6382C9.97001 18.891 10.3238 19.2474 10.3238 19.7935C10.3239 20.443 9.77434 20.9948 8.60583 20.9948ZM6.32717 19.4696C6.32717 20.5825 5.71723 20.971 4.73593 20.971C4.50383 20.971 4.19878 20.9364 4 20.8782L4.11273 20.1652C4.252 20.2057 4.43105 20.2348 4.62999 20.2348C5.05441 20.2348 5.3195 20.0666 5.3195 19.4578V17H6.32733L6.32717 19.4696ZM17.7098 20.9189L16.8493 19.4073C16.6103 18.9887 16.3473 18.4828 16.1501 18.0236L16.1322 18.0294C16.1561 18.5468 16.168 19.0991 16.168 19.7387V20.919H15.3315V17.0001H16.3951L17.2318 18.4362C17.4709 18.8489 17.7098 19.3373 17.8891 19.7791H17.9069C17.8473 19.2618 17.8292 18.7326 17.8292 18.1454V17H18.6659V20.9189H17.7098Z"/>
<path d="M18.5 6H14.5V1H8.5V6H4.5L11.5 13L18.5 6Z"/>
</svg>
