<svg width="24" height="24" viewBox="0 0 24 24" fill="none" xmlns="http://www.w3.org/2000/svg">
<path d="M6 2H14L20 8V11H18V9H13V4H6V20H11V22H5.99C4.89 22 4 21.1 4 20L4.01 4C4.01 2.9 4.9 2 6 2Z" fill="#212121"/>
<path d="M13 20V22H15L20.1464 16.8536L18.1464 14.8536L13 20Z" fill="#212121"/>
<path d="M18.8536 14.1464L20.8536 16.1464L21.7929 15.2071C22.1834 14.8166 22.1834 14.1834 21.7929 13.7929L21.2071 13.2071C20.8166 12.8166 20.1834 12.8166 19.7929 13.2071L18.8536 14.1464Z" fill="#212121"/>
</svg>
