<svg viewBox="0 0 24 24" xmlns="http://www.w3.org/2000/svg">
<path d="M21.99 8C21.99 7.28 21.62 6.65 21.05 6.3L12 1L2.95 6.3C2.38 6.65 2 7.28 2 8V18C2 19.1 2.9 20 4 20H12.083C12.0284 19.6748 12 19.3407 12 19C12 15.6863 14.6863 13 18 13C19.535 13 20.9354 13.5764 21.9965 14.5247L21.99 8ZM12 13L3.74 7.84L12 3L20.26 7.84L12 13Z" />
<path d="M20 17C20 18.105 19.105 19 18 19C16.895 19 16 18.105 16 17C16 15.895 16.895 15 18 15C19.105 15 20 15.895 20 17Z" />
<path d="M14 22C14 20.67 16.665 20 18 20C19.335 20 22 20.67 22 22V23H14V22Z" />
</svg>
