<?xml version="1.0" encoding="UTF-8"?>
<svg xmlns="http://www.w3.org/2000/svg" width="24" height="24" viewBox="0 0 24 24">
  <g id="Livello_5" data-name="Livello 5">
    <path d="M8.58,5.75l-1.26-1.26L12,1.75l9.05,5.3c.57,.35,.94,.98,.94,1.7v10c.01,.13,0,.26-.03,.38l-7.14-7.14,5.44-3.4L12,3.75l-3.42,2Zm12.46,15.29l-1.4,1.4-1.7-1.7H4c-1.1,0-2-.9-2-2V8.75c0-.72,.38-1.35,.95-1.7l.81-.48L1.55,4.36l1.4-1.4L21.05,21.05ZM9.18,11.99L5.03,7.84l-1.29,.75,5.44,3.4Z"/>
  </g>
  <g id="border">
    <rect width="24" height="24" fill="none"/>
  </g>
</svg>