<svg viewBox="0 0 24 24" xmlns="http://www.w3.org/2000/svg">
<path d="M21.99 8C21.99 7.28 21.62 6.65 21.05 6.3L12 1L2.95 6.3C2.38 6.65 2 7.28 2 8V18C2 19.1 2.9 20 4 20H12.083C12.0284 19.6748 12 19.3407 12 19C12 15.6863 14.6863 13 18 13C19.535 13 20.9354 13.5764 21.9965 14.5247L21.99 8ZM12 13L3.74 7.84L12 3L20.26 7.84L12 13Z" />
<path d="M16.4424 22.682C16.9278 22.894 17.447 23 18 23C18.553 23 19.0722 22.894 19.5576 22.682C20.043 22.47 20.467 22.1828 20.8295 21.8203C21.192 21.4578 21.4777 21.0323 21.6866 20.5438C21.8955 20.0553 22 19.5346 22 18.9816C22 18.4286 21.8955 17.9109 21.6866 17.4286C21.4777 16.9462 21.192 16.5253 20.8295 16.1659C20.467 15.8065 20.043 15.5223 19.5576 15.3134C19.0722 15.1045 18.553 15 18 15C17.447 15 16.9278 15.1045 16.4424 15.3134C15.957 15.5223 15.533 15.8065 15.1705 16.1659C14.808 16.5253 14.5223 16.9462 14.3134 17.4286C14.1045 17.9109 14 18.4286 14 18.9816C14 19.5346 14.1045 20.0553 14.3134 20.5438C14.5223 21.0323 14.808 21.4578 15.1705 21.8203C15.533 22.1828 15.957 22.47 16.4424 22.682ZM18.8295 21.7235C18.5591 21.8003 18.2826 21.8387 18 21.8387C17.2135 21.8387 16.5438 21.5607 15.9908 21.0046C15.4378 20.4485 15.1613 19.7742 15.1613 18.9816C15.1613 18.7051 15.1997 18.4347 15.2765 18.1705C15.3533 17.9063 15.4716 17.6574 15.6313 17.424L19.5668 21.3502C19.3456 21.5223 19.0998 21.6467 18.8295 21.7235ZM20.7235 19.7926C20.6467 20.0568 20.5315 20.3057 20.3779 20.5392L16.4516 16.6037C16.6851 16.4501 16.9324 16.3379 17.1935 16.2673C17.4547 16.1966 17.7235 16.1613 18 16.1613C18.7865 16.1613 19.4562 16.4347 20.0092 16.9816C20.5622 17.5284 20.8387 18.1951 20.8387 18.9816C20.8387 19.2581 20.8003 19.5284 20.7235 19.7926Z" />
</svg>
