<svg viewBox="0 0 24 24" xmlns="http://www.w3.org/2000/svg">
<path d="M19 13C15.69 13 13 15.69 13 19C13 19.34 13.04 19.67 13.09 20H4C3.46957 20 2.96086 19.7893 2.58579 19.4142C2.21071 19.0391 2 18.5304 2 18V6C2 4.89 2.89 4 4 4H20C20.5304 4 21.0391 4.21071 21.4142 4.58579C21.7893 4.96086 22 5.46957 22 6V13.81C21.12 13.3 20.1 13 19 13ZM4 6V8L12 13L20 8V6L12 11L4 6Z" />
<path d="M16.6842 19C16.6842 20.7432 18.0989 22.1579 19.8421 22.1579H23V20.4737H19.8421C19.0295 20.4737 18.3684 19.8126 18.3684 19V17.9474H20.0526L17.5263 15L15 17.9474H16.6842V19Z" />
</svg>
