<svg viewBox="0 0 24 24" xmlns="http://www.w3.org/2000/svg">
<path d="M12.09 20C12.04 19.67 12 19.34 12 19C12 15.69 14.69 13 18 13C19.1 13 20.12 13.3 21 13.81V6C21 4.89 20.1 4 19 4H3C1.89 4 1 4.89 1 6V18C1 19.11 1.9 20 3 20H12.09ZM19 6V8L11 13L3 8V6L11 11L19 6Z" />
<path d="M21.6773 16.3636C21.6773 17.1182 21.0727 17.7273 20.3182 17.7273C19.5636 17.7273 18.9545 17.1182 18.9545 16.3636C18.9545 15.6091 19.5636 15 20.3182 15C21.0727 15 21.6773 15.6091 21.6773 16.3636Z" />
<path d="M18.0409 16.3636C18.0409 17.1182 17.4364 17.7273 16.6818 17.7273C15.9273 17.7273 15.3182 17.1182 15.3182 16.3636C15.3182 15.6091 15.9273 15 16.6818 15C17.4364 15 18.0409 15.6091 18.0409 16.3636Z" />
<path d="M13.5 20.2273C13.5 19.1682 15.6227 18.6364 16.6818 18.6364C17.7409 18.6364 19.8636 19.1682 19.8636 20.2273V21.3636H13.5V20.2273Z" />
<path d="M19.8773 18.6591C20.0364 18.6455 20.1864 18.6364 20.3182 18.6364C21.3773 18.6364 23.5 19.1682 23.5 20.2273V21.3636H20.7727V20.2273C20.7727 19.5545 20.4045 19.0409 19.8773 18.6591Z" />
</svg>
