<svg viewBox="0 0 24 24" xmlns="http://www.w3.org/2000/svg">
<path d="M20.99 9C20.99 8.28 20.62 7.65 20.05 7.3L11 2L1.95 7.3C1.38 7.65 1 8.28 1 9V19C1 20.1 1.9 21 3 21H13.0864C13.0308 20.8634 13 20.7188 13 20.57V16.72C13 16.06 13.675 15 14.5 15L14.65 13.75C14.65 12.21 16.575 11 18.5 11C19.3955 11 20.291 11.2618 20.9927 11.697L20.99 9ZM11 14L2.74 8.84L11 4L19.26 8.84L11 14Z" />
<path d="M21.3 15.5V17C21.9 17 22.5 17.6 22.5 18.3V21.8C22.5 22.4 21.9 23 21.2 23H15.7C15.1 23 14.5 22.4 14.5 21.7V18.2C14.5 17.6 15.1 17 15.7 17V15.5C15.7 14.1 17.1 13 18.5 13C19.9 13 21.3 14.1 21.3 15.5ZM17 17H20V15.5C20 14.7 19.3 14.2 18.5 14.2C17.7 14.2 17 14.7 17 15.5V17Z" />
</svg>
