<svg viewBox="0 0 24 24" xmlns="http://www.w3.org/2000/svg">
<path d="M21.99 9C21.99 8.28 21.62 7.65 21.05 7.3L12 2L2.95 7.3C2.38 7.65 2 8.28 2 9V19C2 20.1 2.9 21 4 21H13.3414C13.1203 20.3744 13 19.7013 13 19C13 15.6863 15.6863 13 19 13C20.0907 13 21.1135 13.291 21.9948 13.7997L21.99 9ZM12 14L3.74 8.84L12 4L20.26 8.84L12 14Z" />
<path d="M21.3213 18.1607C21.3213 16.4047 19.9166 15 18.1607 15C16.4047 15 15 16.4047 15 18.1607C15 19.9166 16.4047 21.3213 18.1607 21.3213C18.7717 21.3213 19.3477 21.1457 19.8323 20.8437L22.0237 23L23 22.0237L20.8367 19.8464C21.1457 19.3617 21.3213 18.7788 21.3213 18.1607ZM16.919 16.919C17.2483 16.5897 17.695 16.4047 18.1607 16.4047C18.6264 16.4047 19.073 16.5897 19.4023 16.919C19.7316 17.2483 19.9166 17.695 19.9166 18.1607C19.9166 18.6264 19.7316 19.073 19.4023 19.4023C19.073 19.7316 18.6264 19.9166 18.1607 19.9166C17.695 19.9166 17.2483 19.7316 16.919 19.4023C16.5897 19.073 16.4047 18.6264 16.4047 18.1607C16.4047 17.695 16.5897 17.2483 16.919 16.919Z" />
</svg>
