<svg xmlns="http://www.w3.org/2000/svg" viewBox="0 0 24 24">
  <path
    d="M12,2.5c1.46,0,2.65,1.19,2.65,2.65s-1.19,2.65-2.65,2.65-2.65-1.19-2.65-2.65,1.19-2.65,2.65-2.65m-5.3,1.89c.42,0,.82,.11,1.16,.32-.11,1.08,.2,2.16,.86,3-.38,.73-1.14,1.23-2.01,1.23-1.25,0-2.27-1.02-2.27-2.27s1.02-2.27,2.27-2.27m10.6,0c1.25,0,2.27,1.02,2.27,2.27s-1.02,2.27-2.27,2.27c-.88,0-1.64-.5-2.01-1.23,.65-.84,.97-1.92,.86-3,.34-.2,.73-.32,1.16-.32M7.08,12.15c0-1.57,2.2-2.84,4.92-2.84s4.92,1.27,4.92,2.84v1.33H7.08v-1.33m-4.16,1.33v-1.14c0-1.05,1.43-1.94,3.37-2.2-.45,.51-.72,1.23-.72,2.01v1.33H2.91m18.17,0h-2.65v-1.33c0-.78-.27-1.49-.72-2.01,1.94,.26,3.37,1.14,3.37,2.2v1.14Zm.91,.54H2v1.5H22v-1.5Zm-16.5,1.96h-1.5v5.52h1.5v-5.52Zm14.5,0h-1.5v5.52h1.5v-5.52Z"
  />
</svg>
