<svg xmlns="http://www.w3.org/2000/svg" width="24" height="24" viewBox="0 0 24 24"><rect width="24" height="24" fill="none"/><path d="M11,4.25H9.35l2-1.4V2.67A1.17,1.17,0,0,1,12.52,1.5h1.16a1.17,1.17,0,0,1,1.17,1.17v.25l2,1.33H15a1,1,0,0,1,0,.25,2,2,0,0,1-4,0A1,1,0,0,1,11,4.25ZM19,2.5a5,5,0,0,1-5,5H11.5A3.19,3.19,0,0,0,9.1,8.6L6.47,11.23V8.3A2.86,2.86,0,0,0,8.72,5.5V2H7.47V5.5a1.63,1.63,0,0,1-1,1.5V2H5.22V7a1.65,1.65,0,0,1-1-1.5V2H3V5.5A2.87,2.87,0,0,0,5.22,8.3V22.5H6.47V14L10,10.6V22.5h2v-6h2v6h2V9.2a7,7,0,0,0,5-6.7Z"/></svg>