<?xml version="1.0" encoding="UTF-8"?>
<svg xmlns="http://www.w3.org/2000/svg" width="24" height="24" viewBox="0 0 24 24">
  <g id="icn_PRJ" data-name="icn PRJ">
    <path d="M4,20c-.55,0-1.02-.2-1.41-.59-.39-.39-.59-.86-.59-1.41V6c0-.55,.2-1.02,.59-1.41,.39-.39,.86-.59,1.41-.59h6l2,2h8c.55,0,1.02,.2,1.41,.59,.39,.39,.59,.86,.59,1.41v10c0,.55-.2,1.02-.59,1.41-.39,.39-.86,.59-1.41,.59H4Zm14.25-8v-4h-4v1.25h-4.5v-1.25H5.75v4h4v-1.25h1.5v4.92h0v1.08h3v1.25h4v-4h-4v1.25h-1.5v-4.5h1.5v1.25h4Z"/>
  </g>
  <g id="border">
    <rect width="24" height="24" fill="none"/>
    <rect width="24" height="24" fill="none"/>
  </g>
</svg>