<svg xmlns="http://www.w3.org/2000/svg" viewBox="0 0 24 24">
  <path
    d="M18.5,10.25V8l-6-6h-8a2,2,0,0,0-2,2V20a2,2,0,0,0,2,2h12a2,2,0,0,0,2-2v-.25h3v-9.5Zm-7-6.75L17,9H11.5ZM20,18.25H6v-6.5H20Zm-3-4.61H15.79v-.8h3.44v.8H18V17H17Zm-3.93,3.41a3.46,3.46,0,0,0,1-.13,2.05,2.05,0,0,0,.75-.39,1.72,1.72,0,0,0,.48-.67,2.46,2.46,0,0,0,.17-.94,2.55,2.55,0,0,0-.17-1,1.61,1.61,0,0,0-.48-.66,2,2,0,0,0-.75-.38,3.63,3.63,0,0,0-1-.12l-.6,0a4.72,4.72,0,0,0-.67.08v4a4.58,4.58,0,0,0,.66.08C12.75,17.05,13,17.05,13.11,17.05Zm-.31-3.44.19,0h.2a1.36,1.36,0,0,1,1,.34,1.39,1.39,0,0,1,.32,1,1.36,1.36,0,0,1-.34,1,1.39,1.39,0,0,1-1,.35H12.8ZM7.55,16.54a2,2,0,0,0,.66.41,2.37,2.37,0,0,0,.81.13A2.47,2.47,0,0,0,9.84,17a1.89,1.89,0,0,0,.65-.41,2,2,0,0,0,.44-.68,2.72,2.72,0,0,0,.16-.94,2.46,2.46,0,0,0-.17-.94,1.78,1.78,0,0,0-.44-.68,1.91,1.91,0,0,0-.66-.42,2.36,2.36,0,0,0-.8-.13,2.3,2.3,0,0,0-.79.13,1.91,1.91,0,0,0-.66.42,2.09,2.09,0,0,0-.46.68,2.47,2.47,0,0,0-.16.94,2.5,2.5,0,0,0,.16.94A2,2,0,0,0,7.55,16.54ZM8,14.37a1.33,1.33,0,0,1,.21-.43,1,1,0,0,1,.35-.27,1,1,0,0,1,.47-.1,1.14,1.14,0,0,1,.46.09,1.06,1.06,0,0,1,.35.28,1.51,1.51,0,0,1,.22.42,2,2,0,0,1,.07.56,1.88,1.88,0,0,1-.07.55,1.51,1.51,0,0,1-.22.42,1.06,1.06,0,0,1-.35.28,1.14,1.14,0,0,1-.46.09,1.13,1.13,0,0,1-.47-.09,1.06,1.06,0,0,1-.35-.28A1.27,1.27,0,0,1,8,15.47a1.87,1.87,0,0,1-.08-.55A1.92,1.92,0,0,1,8,14.37Z"
  />
</svg>
