<svg xmlns="http://www.w3.org/2000/svg" viewBox="0 0 24 24">
  <path
    d="M18.5,10.25V8l-6-6h-8a2,2,0,0,0-2,2V20a2,2,0,0,0,2,2h12a2,2,0,0,0,2-2v-.25h3v-9.5Zm-7-6.75L17,9H11.5ZM20,18.25H6v-6.5H20ZM8.92,15.48h.46l.24.32.24.38.24.41.24.41h1l-.23-.46c-.09-.16-.17-.32-.26-.46a4.38,4.38,0,0,0-.28-.42l-.26-.36a1.36,1.36,0,0,0,.58-.43,1.19,1.19,0,0,0,.2-.71,1.15,1.15,0,0,0-.5-1,2.58,2.58,0,0,0-1.43-.34l-.59,0A4.17,4.17,0,0,0,8,12.9V17h.94Zm0-1.87h.33a1.37,1.37,0,0,1,.68.13.45.45,0,0,1,.23.44.48.48,0,0,1-.22.45,1.76,1.76,0,0,1-.76.13H8.92ZM16.54,17h-.93V12.84h2.78v.79H16.54v.87h1.65v.78H16.54Zm-3.72-3.36H11.56v-.8H15v.8H13.75V17h-.93Z"
  />
</svg>
