<svg viewBox="0 0 24 24" xmlns="http://www.w3.org/2000/svg">
<path d="M20.0068 18.7236L17.5566 21.167L15.9932 19.6094L16.665 18.9375L17.5566 19.8301L19.335 18.0518L20.0068 18.7236Z"/>
<path d="M16.4492 14.8438H19.5508V14H20.5312V14.8438H20.8818C21.1933 14.8438 21.4579 14.952 21.6748 15.1689C21.8917 15.3859 22 15.6504 22 15.9619V21.7256C22 22.0371 21.8917 22.3016 21.6748 22.5186C21.4579 22.7355 21.1934 22.8438 20.8818 22.8438H15.1182C14.8066 22.8438 14.5421 22.7355 14.3252 22.5186C14.1083 22.3016 14 22.0371 14 21.7256V15.9619C14 15.6504 14.1083 15.3859 14.3252 15.1689C14.5421 14.952 14.8067 14.8438 15.1182 14.8438H15.4688V14H16.4492V14.8438ZM15.1182 21.7256H20.8818V17.5781H15.1182V21.7256Z"/>
<path d="M18 7V12.0801C17.67 12.0301 17.34 12 17 12C13.69 12 11 14.69 11 18C11 19.0499 11.2796 20.09 11.8096 21H4C2.89 21 2 20.11 2 19V3C2 1.95929 2.78241 1.11247 3.79492 1.01074L12 1L18 7ZM11 8H16.5L11 2.5V8Z"/>
</svg>
