<svg viewBox="0 0 24 24" xmlns="http://www.w3.org/2000/svg">
<path d="M4 21H12V19H4V3H11V8H16V12H18V7L12 1H4C2.9 1 2 1.9 2 3V19C2 20.1 2.9 21 4 21Z" />
<path d="M16.3619 13.4836C16.5519 12.8388 17.4652 12.8388 17.6553 13.4836C17.7767 13.8956 18.2473 14.0905 18.6245 13.885C19.2148 13.5635 19.8606 14.2093 19.539 14.7996C19.3336 15.1768 19.5285 15.6474 19.9405 15.7688C20.5853 15.9589 20.5853 16.8722 19.9405 17.0622C19.5285 17.1836 19.3336 17.6542 19.539 18.0314C19.8606 18.6217 19.2148 19.2675 18.6245 18.946C18.2473 18.7405 17.7767 18.9354 17.6553 19.3474C17.4652 19.9922 16.5519 19.9922 16.3619 19.3474C16.2404 18.9354 15.7699 18.7405 15.3927 18.946C14.8024 19.2675 14.1566 18.6217 14.4781 18.0314C14.6836 17.6542 14.4886 17.1836 14.0767 17.0622C13.4319 16.8722 13.4319 15.9589 14.0767 15.7688C14.4886 15.6474 14.6836 15.1768 14.4781 14.7996C14.1566 14.2093 14.8024 13.5635 15.3927 13.885C15.7699 14.0905 16.2404 13.8956 16.3619 13.4836Z" />
<path d="M14.4236 19.2571C14.5984 19.5049 14.938 19.6343 15.2645 19.4622L15.3248 19.4304C15.6987 19.2334 16.1597 19.4258 16.2828 19.8301C16.2978 19.8795 16.3171 19.925 16.34 19.9667L14.8857 23.2625L14.4589 21.7431L13 22.4834L14.4236 19.2571Z" />
<path d="M19.5764 19.2571C19.4016 19.5049 19.062 19.6343 18.7355 19.4622L18.6751 19.4304C18.3013 19.2334 17.8403 19.4258 17.7172 19.8301C17.7022 19.8795 17.6829 19.925 17.66 19.9667L19.1143 23.2625L19.5411 21.7431L21 22.4834L19.5764 19.2571Z" />
</svg>
