<svg viewBox="0 0 24 24" xmlns="http://www.w3.org/2000/svg">
  <path
    d="M4.72,18.99L3.22,18.99L3.22,17.99L4.72,17.99L4.72,18.99ZM4.72,15.99L4.72,16.99L3.22,16.99L3.22,15.99L4.72,15.99ZM4.72,19.99L4.72,20.35C4.72,20.41 4.77,20.5 4.77,20.5L3.56,21.39C3.34,21.09 3.22,20.73 3.22,20.35L3.22,19.99L4.72,19.99ZM4.72,9.99L4.72,10.99L3.22,10.99L3.22,9.99L4.72,9.99ZM4.72,13.99L4.72,14.99L3.22,14.99L3.22,13.99L4.72,13.99ZM3.25,8.87C3.35,8.28 3.73,7.79 4.28,7.55L4.88,8.93C4.8,8.96 4.74,9.04 4.73,9.12L3.25,8.87ZM4.72,11.99L4.72,12.99L3.22,12.99L3.22,11.99L4.72,11.99ZM5.03,22.1L5.03,20.6L6.03,20.6L6.03,22.1L5.03,22.1ZM13.03,20.6L13.54,20.6C13.58,20.6 13.66,20.57 13.66,20.57L14.38,21.88C14.12,22.02 13.82,22.1 13.53,22.1L13.03,22.1L13.03,20.6ZM11.03,22.1L11.03,20.6L12.03,20.6L12.03,22.1L11.03,22.1ZM7.03,22.1L7.03,20.6L8.03,20.6L8.03,22.1L7.03,22.1ZM9.03,22.1L9.03,20.6L10.03,20.6L10.03,22.1L9.03,22.1ZM20.75,6.25L20.75,15.25C20.75,16.08 20.07,16.75 19.25,16.75L18,16.75L18,18C18,18.83 17.33,19.5 16.5,19.5L15.28,19.5L15.28,20.47L13.78,20.37L14.53,20.41L13.78,20.35L13.78,19.5L7.49,19.5C6.66,19.5 6,18.83 6,18L6,8.9L5.57,8.9L5.57,7.4L6.01,7.4L6.01,6C6.01,5.17 6.68,4.5 7.5,4.5L8.76,4.5L8.76,3.25C8.76,2.43 9.43,1.75 10.25,1.75L16.25,1.75L20.75,6.25ZM16.5,16.75L10.24,16.75C9.41,16.75 8.75,16.08 8.75,15.25L8.75,6L7.5,6L7.5,18L16.5,18L16.5,16.75ZM15.85,6.65L19.28,6.65L15.85,3.22L15.85,6.65Z"
  />
</svg>
