<svg viewBox="0 0 24 24" xmlns="http://www.w3.org/2000/svg">
<path d="M4 21H12V19H4V3H11V8H16V12H18V7L12 1H4C2.9 1 2 1.9 2 3V19C2 20.1 2.9 21 4 21Z" />
<path d="M19.5666 18.8259L18.8259 19.5544L16.9796 17.7055V15.3835H18.0204V17.2797L19.5666 18.8259Z" />
<path d="M15.7406 21.6462C16.2872 21.8821 16.8737 22 17.5 22C18.1263 22 18.7128 21.8821 19.2594 21.6462C19.806 21.4103 20.2815 21.0902 20.6858 20.6858C21.0902 20.2815 21.4103 19.806 21.6462 19.2594C21.8821 18.7128 22 18.1263 22 17.5C22 16.8737 21.8821 16.2872 21.6462 15.7406C21.4103 15.194 21.0902 14.7185 20.6858 14.3142C20.2815 13.9098 19.806 13.5897 19.2594 13.3538C18.7128 13.1179 18.1263 13 17.5 13C16.8737 13 16.2872 13.1179 15.7406 13.3538C15.194 13.5897 14.7185 13.9098 14.3142 14.3142C13.9098 14.7185 13.5897 15.194 13.3538 15.7406C13.1179 16.2872 13 16.8737 13 17.5C13 18.1263 13.1179 18.7128 13.3538 19.2594C13.5897 19.806 13.9098 20.2815 14.3142 20.6858C14.7185 21.0902 15.194 21.4103 15.7406 21.6462ZM19.8798 19.8828C19.2248 20.5357 18.4315 20.8622 17.4999 20.8622C16.5684 20.8622 15.7752 20.5357 15.1202 19.8828C14.4653 19.2299 14.1378 18.4356 14.1378 17.5C14.1378 16.5644 14.4653 15.7701 15.1202 15.1172C15.7752 14.4643 16.5685 14.1378 17.5001 14.1378C18.4316 14.1378 19.2248 14.4643 19.8798 15.1172C20.5347 15.7701 20.8622 16.5644 20.8622 17.5C20.8622 18.4356 20.5347 19.2299 19.8798 19.8828Z" />
</svg>
