<svg viewBox="0 0 24 24" xmlns="http://www.w3.org/2000/svg">
<path d="M18 10.25V8L12 2H4C3.46957 2 2.96086 2.21071 2.58579 2.58579C2.21071 2.96086 2 3.46957 2 4V20C2 20.5304 2.21071 21.0391 2.58579 21.4142C2.96086 21.7893 3.46957 22 4 22H16C16.5304 22 17.0391 21.7893 17.4142 21.4142C17.7893 21.0391 18 20.5304 18 20V19.75H21V10.25H18ZM11 3.5L16.5 9H11V3.5ZM19.5 18.25H5.5V11.75H19.5V18.25ZM16.11 17V13H17.04V16H18.69V17H16.11ZM11 13H12L13 14L14 13H15V17H14V14.5L13 15.5L12 14.5V17H11V13Z" />
<path d="M6.5 13.571L7.5 13L8.5 14.143L9.5 13L10.5 13.571L9.24979 15L10.5 16.429L9.5 17L8.5 15.857L7.5 17L6.5 16.429L7.75021 15L6.5 13.571Z" />
</svg>
