<svg xmlns="http://www.w3.org/2000/svg" viewBox="0 0 24 24">
  <path
    d="M12.01,13.43c-.57,0-1.06,.2-1.46,.61s-.61,.89-.61,1.46,.2,1.06,.61,1.46c.41,.41,.89,.61,1.46,.61s1.06-.2,1.46-.61c.41-.41,.61-.89,.61-1.46s-.2-1.06-.61-1.46c-.41-.41-.89-.61-1.46-.61Zm1.99-11.43H6c-1.1,0-1.99,.9-1.99,2V20c-.01,1.1,.88,2,1.98,2h12.01c1.1,0,2-.9,2-2V8L14,2Zm1.8,13.49c0,.23-.03,.47-.08,.71l1.11,.96-.98,1.66-1.4-.44c-.19,.14-.38,.26-.57,.36s-.4,.2-.62,.28l-.28,1.48h-1.94l-.28-1.48c-.22-.09-.43-.18-.62-.28s-.38-.22-.57-.36l-1.4,.44-.98-1.66,1.11-.96c-.03-.24-.05-.48-.05-.71s.02-.46,.05-.69l-1.11-.96,.98-1.66,1.4,.44c.19-.16,.38-.28,.57-.38,.19-.09,.4-.19,.62-.27l.28-1.48h1.94l.28,1.48c.22,.09,.43,.17,.62,.26s.38,.22,.57,.39l1.4-.44,.98,1.66-1.11,.96c.05,.22,.08,.45,.08,.69Zm-2.8-6.49V3.5l5.5,5.5h-5.5Z"
  />
</svg>
