<?xml version="1.0" encoding="UTF-8"?>
<svg xmlns="http://www.w3.org/2000/svg" width="24" height="24" viewBox="0 0 24 24">
  <g id="icn_PRJ" data-name="icn PRJ">
    <path d="M5.65,10l-2.4,8V8H21.25c0-.55-.2-1.02-.59-1.41s-.86-.59-1.41-.59H11.25l-2-2H3.25c-.55,0-1.02,.2-1.41,.59-.39,.39-.59,.86-.59,1.41v12c0,.55,.2,1.02,.59,1.41,.39,.39,.86,.59,1.41,.59h15c.43,0,.83-.13,1.19-.39,.36-.26,.6-.6,.74-1.04l2.58-8.58H5.65Zm12.36,4.2h-3.2l.31-1h-1.2l-1.1,3.6h1.2l.31-1h3.2l-.98,3.2h-3.2l.31-1h-2.4l.26-.87h0l1.2-3.93h-1.2l-.31,1h-3.2l.98-3.2h3.2l-.31,1h3.6l.31-1h3.2l-.98,3.2Z"/>
  </g>
  <g id="border">
    <rect width="24" height="24" fill="none"/>
    <rect width="24" height="24" fill="none"/>
  </g>
</svg>