<svg viewBox="0 0 24 24" xmlns="http://www.w3.org/2000/svg">
<path d="M18.5 10.25V8L12.5 2H4.5C3.96957 2 3.46086 2.21071 3.08579 2.58579C2.71071 2.96086 2.5 3.46957 2.5 4V20C2.5 20.5304 2.71071 21.0391 3.08579 21.4142C3.46086 21.7893 3.96957 22 4.5 22H16.5C17.0304 22 17.5391 21.7893 17.9142 21.4142C18.2893 21.0391 18.5 20.5304 18.5 20V19.75H21.5V10.25H18.5ZM11.5 3.5L17 9H11.5V3.5ZM20 18.25H6V11.75H20V18.25ZM16.61 17V12.84H17.54V16H19.19V17H16.61ZM11.5 13H12.5L13.5 14L14.5 13H15.5V17H14.5V14.5L13.5 15.5L12.5 14.5V17H11.5V13Z" />
<path d="M8 13L7 13.5714L10 17L11 16.4286L8 13Z" />
<path d="M10 13L11 13.5714L8 17L7 16.4286L10 13Z" />
</svg>
