<?xml version="1.0" encoding="UTF-8"?>
<svg id="mgg-icone" xmlns="http://www.w3.org/2000/svg" width="24" height="24" viewBox="0 0 24 24">
  <rect width="24" height="24" fill="none"/>
  <path d="M17.25,1.75h-7c-.96,0-1.74,.79-1.74,1.75v1h-.76c-.96,0-1.74,.79-1.74,1.75v2.23H3.94v1.21h2.07v1.12h-1.67c-.88,0-1.63,.3-2.27,.89-.64,.59-.96,1.33-.96,2.22s.3,1.59,.9,2.19c.6,.6,1.33,.9,2.19,.9h1.82v3.25c0,.96,.78,1.75,1.74,1.75h10.51c.96,0,1.75-.79,1.75-1.75v-1h.75c.96,0,1.75-.79,1.75-1.75V7L17.25,1.75ZM6,13.4H3.94v1.21h2.07v1.21h-1.77c-.54,0-1-.18-1.38-.55-.38-.37-.56-.82-.56-1.34s.18-.97,.55-1.34c.37-.37,.82-.55,1.34-.55h1.82v1.38Zm1.5-1.38h4.66c.19,0,.36,.07,.5,.2,.14,.13,.21,.3,.21,.49s-.07,.36-.21,.49c-.14,.13-.31,.2-.5,.2H7.5v-1.38Zm11,8.23c0,.13-.12,.25-.25,.25H7.74c-.13,0-.24-.11-.24-.25v-5.65h4.58c.53,0,.99-.18,1.39-.53,.4-.35,.59-.81,.59-1.36s-.18-.98-.54-1.34c-.36-.37-.81-.55-1.35-.55H7.51V6.25c0-.14,.11-.25,.24-.25h6.38l4.37,4.37v9.88Zm2.5-2.75c0,.13-.12,.25-.25,.25h-.75V9.75l-5.25-5.25h-4.74v-1c0-.14,.11-.25,.24-.25h6.38l4.37,4.37v9.88Z"/>
</svg>