<?xml version="1.0" encoding="utf-8"?>
<!-- Generator: Adobe Illustrator 26.0.2, SVG Export Plug-In . SVG Version: 6.00 Build 0)  -->
<svg version="1.1" id="Livello_1" xmlns="http://www.w3.org/2000/svg" xmlns:xlink="http://www.w3.org/1999/xlink" x="0px" y="0px"
	 viewBox="0 0 24 24" style="enable-background:new 0 0 24 24;" xml:space="preserve">
<path d="M13,9h5.5L13,3.5V9z M6,2h8l6,6v4.3c-0.6-0.2-1.3-0.3-2-0.3c-1.6,0-3.1,0.6-4.2,1.8C12.6,14.9,12,16.4,12,18
	c0,1.5,0.6,2.9,1.5,4H6c-1.1,0-2-0.9-2-2V4c0-0.5,0.2-1,0.6-1.4C5,2.2,5.5,2,6,2z"/>
<path d="M18.4,20.9c0.5,0,0.9-0.4,0.9-0.9c0-0.5-0.4-0.9-0.9-0.9c-0.5,0-0.9,0.4-0.9,0.9C17.6,20.5,18,20.9,18.4,20.9z M21,17h-0.4
	v-0.9c0-1.2-1-2.1-2.1-2.1c-1.2,0-2.1,1-2.1,2.1h0.8c0-0.7,0.6-1.3,1.3-1.3c0.7,0,1.3,0.6,1.3,1.3V17h-3.9c-0.5,0-0.9,0.4-0.9,0.9
	v4.3c0,0.5,0.4,0.9,0.9,0.9H21c0.5,0,0.9-0.4,0.9-0.9v-4.3C21.9,17.4,21.5,17,21,17z M21,22.1h-5.1v-4.3H21V22.1z"/>
</svg>
