<?xml version="1.0" encoding="UTF-8"?>
<svg xmlns="http://www.w3.org/2000/svg" width="24" height="24" viewBox="0 0 24 24">
  <g id="icn_flat" data-name="icn flat">
    <path d="M14.75,2H6.75c-1.1,0-1.99,.9-1.99,2v6.51s1.71-2.86,1.71-2.86l1.29-2.14,1.29,2.14,5.99,9.97,1.37,2.27H4.75v.1c0,1.1,.89,2,1.99,2h12.01c1.1,0,2-.9,2-2V8L14.75,2Zm-1,7V3.5l5.5,5.5h-5.5ZM1.77,18.4H13.75L7.76,8.43,1.77,18.4Zm6.45-.99c-.13,.13-.29,.19-.46,.19-.19,0-.35-.07-.47-.2-.13-.13-.19-.29-.19-.46,0-.19,.07-.35,.2-.47,.13-.13,.29-.19,.46-.19,.19,0,.35,.07,.47,.2,.13,.13,.19,.29,.19,.46,0,.19-.07,.35-.2,.47Zm.18-1.96h-1.27v-3.51h1.27v3.51Z"/>
  </g>
  <g id="border">
    <rect width="24" height="24" fill="none"/>
  </g>
</svg>