<?xml version="1.0" encoding="UTF-8"?>
<svg id="mgg-icone" xmlns="http://www.w3.org/2000/svg" width="24" height="24" viewBox="0 0 24 24">
  <rect width="24" height="24" fill="none"/>
  <path d="M16.82,2H8.82c-1.1,0-1.99,.9-1.99,2v4.48h-2.82v1.21h2.82v1.12h-2.42c-.88,0-1.63,.3-2.27,.89-.64,.59-.96,1.33-.96,2.22s.3,1.59,.9,2.19c.6,.6,1.33,.9,2.19,.9h2.57v3c0,1.1,.89,2,1.99,2h12.01c1.1,0,2-.9,2-2V8l-6-6ZM4.3,15.81c-.54,0-1-.18-1.38-.55-.38-.37-.56-.82-.56-1.34s.18-.97,.55-1.34c.37-.37,.82-.55,1.34-.55h2.57v1.38h-2.82v1.21h2.82v1.21h-2.52Zm4.03-3.79h3.91c.19,0,.36,.07,.5,.2,.14,.13,.21,.3,.21,.49s-.07,.36-.21,.49c-.14,.13-.31,.2-.5,.2h-3.91v-1.38Zm13,7.98c0,.27-.23,.5-.5,.5H8.81c-.27,0-.49-.22-.49-.5v-5.4h3.83c.53,0,.99-.18,1.39-.53,.4-.35,.59-.81,.59-1.36s-.18-.98-.54-1.34c-.36-.37-.81-.55-1.35-.55h-3.91V4c0-.28,.22-.5,.49-.5h7.38l5.12,5.12v11.38Z"/>
</svg>