<?xml version="1.0" encoding="UTF-8"?><svg xmlns="http://www.w3.org/2000/svg" width="24" height="24" viewBox="0 0 24 24"><g id="b"><path d="M4.72,18.99h-1.5v-1h1.5v1Zm0-3h-1.5v1h1.5v-1Zm0,4h-1.5v.36c0,.38,.12,.74,.34,1.04l1.21-.89s-.05-.09-.05-.15v-.36Zm0-10h-1.5v1h1.5v-1Zm0,4h-1.5v1h1.5v-1Zm-1.47-5.12l1.48,.25c.01-.08,.07-.16,.15-.19l-.6-1.38c-.55,.24-.93,.73-1.03,1.32Zm1.47,3.12h-1.5v1h1.5v-1Zm.31,10.11h1v-1.5h-1v1.5Zm8.5-1.5h-.5v1.5h.5c.29,0,.59-.08,.85-.22l-.72-1.31s-.08,.03-.12,.03Zm-2.5,1.5h1v-1.5h-1v1.5Zm-4,0h1v-1.5h-1v1.5Zm2,0h1v-1.5h-1v1.5ZM20.75,6.25V15.25c0,.83-.68,1.5-1.5,1.5h-1.25v1.25c0,.83-.67,1.5-1.5,1.5h-1.22v.97l-1.5-.1,.75,.04-.75-.06v-.85H7.49c-.83,0-1.49-.67-1.49-1.5V8.9h-.43v-1.5h.44v-1.4c0-.83,.67-1.5,1.49-1.5h1.26v-1.25c0-.82,.67-1.5,1.49-1.5h6l4.5,4.5Zm-4.25,10.5h-6.26c-.83,0-1.49-.67-1.49-1.5V6h-1.25v12h9v-1.25Z"/><polygon points="15.85 6.65 15.85 3.22 19.28 6.65 15.85 6.65" fill="#fff"/></g><g id="d"><rect width="24" height="24" fill="none"/></g></svg>