<svg viewBox="0 0 24 24" xmlns="http://www.w3.org/2000/svg">
<path d="M5.96777 15.4512H6.93555V14H7.90332V17.8711H6.93555V16.4189H5.96777V17.8711H5V14H5.96777V15.4512Z" />
<path d="M11.5 15H10.5L10.4365 17.8711H9.5V15H8.5V14H11.5V15Z" />
<path d="M14 15L15 14H16V17.8711H15V15.4512L14 16.5L13 15.4512V17.8711H11.9688L12 14H13L14 15Z" />
<path d="M17.4033 16.9033H19V17.8711H16.5029V14H17.4033V16.9033Z" />
<path d="M18.5 9V11.25H21.5V20.75H18.5V21C18.5 21.5304 18.2891 22.039 17.9141 22.4141C17.539 22.7891 17.0304 23 16.5 23H4.5C3.96957 23 3.46101 22.7891 3.08594 22.4141C2.71086 22.039 2.5 21.5304 2.5 21V5C2.5 4.46957 2.71087 3.96101 3.08594 3.58594C3.46101 3.21086 3.96957 3 4.5 3H12.5L18.5 9ZM4 19.25H20V12.75H4V19.25ZM11.5 10H17L11.5 4.5V10Z" />
</svg>
