<svg viewBox="0 0 24 24" xmlns="http://www.w3.org/2000/svg">
<path d="M14.5 12.5V19H9.5V12.5H14.5ZM10.5 18H11.5V13.5H10.5V18ZM12.5 18H13.5V13.5H12.5V18Z" />
<path d="M20 8V20C20 20.55 19.8038 21.0204 19.4121 21.4121C19.0204 21.8038 18.55 22 18 22H6C5.45 22 4.97956 21.8038 4.58789 21.4121C4.19622 21.0204 4 20.55 4 20V4C4 3.45 4.19622 2.97956 4.58789 2.58789C4.97956 2.19622 5.45 2 6 2H14L20 8ZM10.5 11V11.5H8V12.5H8.5V19C8.5 19.275 8.59811 19.5102 8.79395 19.7061C8.98978 19.9019 9.225 20 9.5 20H14.5C14.775 20 15.0102 19.9019 15.2061 19.7061C15.4019 19.5102 15.5 19.275 15.5 19V12.5H16V11.5H13.5V11H10.5ZM13 9H18L13 4V9Z" />
</svg>
