<svg xmlns="http://www.w3.org/2000/svg" viewBox="0 0 24 24">
  <path
    d="M23.48,12h-2.35c0,5.1-4.15,9.25-9.25,9.25S2.64,17.1,2.64,12,6.79,2.75,11.89,2.75c2.44,0,4.83,.99,6.55,2.72l-1.06,1.06c-1.44-1.45-3.44-2.28-5.49-2.28-4.27,0-7.75,3.48-7.75,7.75s3.48,7.75,7.75,7.75,7.75-3.48,7.75-7.75h-2.34l3.09-3.48,3.09,3.48Zm-13.04-3.23c.66-.41,1.3-.58,1.95-.58,.92,0,1.75,.29,2.45,.92l1.05-1.04c-.99-.89-2.16-1.34-3.5-1.34-1.14,0-2.16,.33-3.06,.99-.9,.66-1.53,1.49-1.9,2.51h-1.48l.58,1.17h.62c-.02,.12-.02,.31-.02,.58s0,.47,.02,.58h-1.2l.58,1.17h.89c.37,1.02,1,1.86,1.9,2.51,.9,.65,1.92,.99,3.06,.99,.54,0,1.17-.13,1.85-.4s1.24-.58,1.65-.94l-1.05-1.04c-.7,.63-1.53,.92-2.45,.92-.65,0-1.29-.19-1.95-.58s-1.13-.89-1.42-1.46h3.94l-.57-1.17h-3.76c-.03-.26-.05-.45-.05-.58s.02-.32,.05-.58h4.32l-.57-1.17h-3.37c.29-.57,.76-1.05,1.42-1.46Z"
  />
</svg>
