<svg viewBox="0 0 24 24" xmlns="http://www.w3.org/2000/svg">
<path d="M2 5.125C2 6.16016 2.83984 7 3.875 7H4.5V9.5H7V7H10.75V9.5H13.25V7H17V9.5H19.5V7H20.125C21.1602 7 22 6.16016 22 5.125V2.52344C22 2.23437 21.7656 2 21.4766 2C21.4102 2 21.3438 2.01172 21.2813 2.03906L19.3672 2.80469C18.6289 3.09766 17.8398 3.25 17.0469 3.25H6.95313C6.15625 3.25 5.37109 3.09766 4.63281 2.80469L2.71875 2.03906C2.65625 2.01562 2.58984 2 2.52344 2C2.23437 2 2 2.23437 2 2.52344V5.125ZM4.5 13.25V20.75C4.5 21.4414 5.05859 22 5.75 22C6.44141 22 7 21.4414 7 20.75V13.25H17V20.75C17 21.4414 17.5586 22 18.25 22C18.9414 22 19.5 21.4414 19.5 20.75V13.25H20.75C21.4414 13.25 22 12.6914 22 12C22 11.3086 21.4414 10.75 20.75 10.75H3.25C2.55859 10.75 2 11.3086 2 12C2 12.6914 2.55859 13.25 3.25 13.25H4.5Z" />
</svg>
