<svg viewBox="0 0 24 24" xmlns="http://www.w3.org/2000/svg">
<path d="M20.35 22.1L18.15 19.9C17.3 20.55 16.3583 21.0625 15.325 21.4375C14.2917 21.8125 13.2 22 12.05 22C10.6833 22 9.39168 21.7375 8.17501 21.2125C6.95835 20.6875 5.89585 19.9708 4.98751 19.0625C4.07918 18.1542 3.36251 17.0917 2.83751 15.875C2.31251 14.6583 2.05001 13.3667 2.05001 12C2.05001 10.85 2.23751 9.75417 2.61251 8.7125C2.98751 7.67083 3.50001 6.725 4.15001 5.875L1.95001 3.7L3.35001 2.3L21.75 20.7L20.35 22.1ZM20.775 16.875L19.3 15.4C19.5333 14.8667 19.7167 14.3167 19.85 13.75C19.9833 13.1833 20.05 12.6 20.05 12C20.05 11.6 20.025 11.2125 19.975 10.8375C19.925 10.4625 19.8333 10.1 19.7 9.75C19.35 9.83333 19 9.89583 18.65 9.9375C18.3 9.97917 17.9333 10 17.55 10C16.6167 10 15.7292 9.87917 14.8875 9.6375C14.0458 9.39583 13.25 9.05 12.5 8.6L7.15001 3.25C7.88335 2.85 8.65835 2.54167 9.47501 2.325C10.2917 2.10833 11.15 2 12.05 2C13.4333 2 14.7292 2.2625 15.9375 2.7875C17.1458 3.3125 18.2042 4.025 19.1125 4.925C20.0208 5.825 20.7375 6.88333 21.2625 8.1C21.7875 9.31667 22.05 10.6167 22.05 12C22.05 12.8833 21.9458 13.7292 21.7375 14.5375C21.5292 15.3458 21.2083 16.125 20.775 16.875ZM9.05001 14.25C8.70001 14.25 8.40418 14.1292 8.16251 13.8875C7.92085 13.6458 7.80001 13.35 7.80001 13C7.80001 12.65 7.92085 12.3542 8.16251 12.1125C8.40418 11.8708 8.70001 11.75 9.05001 11.75C9.40001 11.75 9.69585 11.8708 9.93751 12.1125C10.1792 12.3542 10.3 12.65 10.3 13C10.3 13.35 10.1792 13.6458 9.93751 13.8875C9.69585 14.1292 9.40001 14.25 9.05001 14.25ZM12.05 20C12.9333 20 13.7667 19.8708 14.55 19.6125C15.3333 19.3542 16.05 18.9833 16.7 18.5L7.72501 9.475C7.22501 10.0083 6.66251 10.475 6.03751 10.875C5.41251 11.275 4.75001 11.6 4.05001 11.85V12C4.05001 14.2167 4.82918 16.1042 6.38751 17.6625C7.94585 19.2208 9.83335 20 12.05 20Z"/>
</svg>
