<svg xmlns="http://www.w3.org/2000/svg" enable-background="new 0 0 24 24" height="24" viewBox="0 0 24 24" width="24">
<path d="M18.825 8.375C18.825 9.68917 17.7167 10.75 16.3333 10.75C14.95 10.75 13.8333 9.68917 13.8333 8.375C13.8333 7.06083 14.95 6 16.3333 6C17.7167 6 18.825 7.06083 18.825 8.375Z"/>
<path d="M12.1583 8.375C12.1583 9.68917 11.05 10.75 9.66667 10.75C8.28333 10.75 7.16667 9.68917 7.16667 8.375C7.16667 7.06083 8.28333 6 9.66667 6C11.05 6 12.1583 7.06083 12.1583 8.375Z"/>
<path d="M10.214 17.0833H15.5V15.1042C15.5 13.4821 12.4907 12.5702 10.4443 12.3738C10.7985 13.0168 11 13.7557 11 14.5417C11 15.4848 10.7099 16.3601 10.214 17.0833Z"/>
<path d="M15.525 12.3729C15.8167 12.3492 16.0917 12.3333 16.3333 12.3333C18.275 12.3333 22.1667 13.2596 22.1667 15.1042V17.0833H17.1667V15.1042C17.1667 13.9325 16.4917 13.0379 15.525 12.3729Z"/>
<path d="M5.08 18.0417L4.88 16.7817C4.75333 16.735 4.62 16.6717 4.48 16.5917C4.34 16.5117 4.21667 16.4283 4.11 16.3417L2.93 16.8817L2 15.2417L3.08 14.4517C3.06667 14.3917 3.05833 14.3233 3.055 14.2467C3.05167 14.17 3.05 14.1017 3.05 14.0417C3.05 13.9817 3.05167 13.9133 3.055 13.8367C3.05833 13.76 3.06667 13.6917 3.08 13.6317L2 12.8417L2.93 11.2017L4.11 11.7417C4.21667 11.655 4.34 11.5717 4.48 11.4917C4.62 11.4117 4.75333 11.3517 4.88 11.3117L5.08 10.0417H6.92L7.12 11.3017C7.24667 11.3483 7.38167 11.41 7.525 11.4867C7.66833 11.5633 7.79 11.6483 7.89 11.7417L9.07 11.2017L10 12.8417L8.92 13.6117C8.93333 13.6783 8.94167 13.75 8.945 13.8267C8.94833 13.9033 8.95 13.975 8.95 14.0417C8.95 14.1083 8.94833 14.1783 8.945 14.2517C8.94167 14.325 8.93333 14.395 8.92 14.4617L10 15.2417L9.07 16.8817L7.89 16.3417C7.78333 16.4283 7.66167 16.5133 7.525 16.5967C7.38833 16.68 7.25333 16.7417 7.12 16.7817L6.92 18.0417H5.08ZM6 15.3417C6.36 15.3417 6.66667 15.215 6.92 14.9617C7.17333 14.7083 7.3 14.4017 7.3 14.0417C7.3 13.6817 7.17333 13.375 6.92 13.1217C6.66667 12.8683 6.36 12.7417 6 12.7417C5.64 12.7417 5.33333 12.8683 5.08 13.1217C4.82667 13.375 4.7 13.6817 4.7 14.0417C4.7 14.4017 4.82667 14.7083 5.08 14.9617C5.33333 15.215 5.64 15.3417 6 15.3417Z"/>
</svg>
