<svg viewBox="0 0 24 24" xmlns="http://www.w3.org/2000/svg">
<path d="M2.04999 3.97119L3.06471 2.95646L21.0933 20.985L20.0786 21.9998L2.04999 3.97119Z"/>
<path d="M6.81189 6.81989C6.0765 7.2907 5.59375 8.09045 5.59375 9C5.59375 10.4525 6.82487 11.625 8.35 11.625C9.25822 11.625 10.0589 11.2092 10.5581 10.5661L6.81189 6.81989Z"/>
<path d="M16.6187 16.6267V18.625H18.617L16.6187 16.6267Z"/>
<path d="M20.6465 18.625L15.4027 13.3812C15.5059 13.3772 15.6053 13.375 15.7 13.375C17.8407 13.375 22.1313 14.3988 22.1313 16.4375V18.625H20.6465Z"/>
<path d="M11.096 9.07453L8.39683 6.37537C9.90006 6.39908 11.0971 7.5624 11.0971 9C11.0971 9.02493 11.0967 9.04977 11.096 9.07453Z"/>
<path d="M18.4471 9C18.4471 10.4525 17.2251 11.625 15.7 11.625C14.1749 11.625 12.9437 10.4525 12.9437 9C12.9437 7.5475 14.1749 6.375 15.7 6.375C17.2251 6.375 18.4471 7.5475 18.4471 9Z"/>
<path d="M1.91875 16.4375C1.91875 14.3988 6.20931 13.375 8.35 13.375C10.4907 13.375 14.7812 14.3988 14.7812 16.4375V18.625H1.91875V16.4375Z"/>
</svg>
