<svg viewBox="0 0 24 24" xmlns="http://www.w3.org/2000/svg">
<path d="M6.75 7.33C5.4675 7.33 4.425 8.303 4.425 9.5C4.425 10.697 5.4675 11.67 6.75 11.67H9.75V13H6.75C4.68 13 3 11.432 3 9.5C3 7.568 4.68 6 6.75 6H9.75V7.33H6.75Z"/>
<path d="M13.0996 10.2H7.5V8.8H13.5V9.72506C13.3579 9.8756 13.2242 10.0342 13.0996 10.2Z"/>
<path d="M12.3118 11.67H11.25V13H12.0224C12.0641 12.5378 12.1629 12.0921 12.3118 11.67Z"/>
<path d="M17.6396 8.00174C17.0378 6.81865 15.7457 6 14.25 6H11.25V7.33H14.25C15.0012 7.33 15.6701 7.66384 16.0954 8.18099C16.5437 8.0629 17.0145 8 17.5 8C17.5467 8 17.5932 8.00058 17.6396 8.00174Z"/>
<path d="M22 12.5372H18.4628V9H16.5372V12.5372H13V14.4628H16.5372V18H18.4628V14.4628H22V12.5372Z"/>
</svg>
