<svg viewBox="0 0 24 24" xmlns="http://www.w3.org/2000/svg">
<path d="M2 12L12 3L22 12H19V20H5V12H2ZM9.61462 18H11.4218V16.7912H9.61748C9.24162 16.7912 8.92214 16.6656 8.65903 16.4146C8.39585 16.1635 8.26425 15.8586 8.26425 15.5C8.26425 15.1414 8.39585 14.8365 8.65903 14.5854C8.92214 14.3344 9.24162 14.2088 9.61748 14.2088H11.4218V13H9.61462C8.89121 13 8.27459 13.2439 7.76475 13.7316C7.25492 14.2194 7 14.809 7 15.5005C7 16.192 7.25492 16.7815 7.76475 17.2689C8.27459 17.7563 8.89121 18 9.61462 18ZM9.93664 14.9923V16.0077H14.0634V14.9923H9.93664ZM12.5782 16.7912V18H14.3854C15.1088 18 15.7254 17.7561 16.2352 17.2684C16.7451 16.7806 17 16.191 17 15.4995C17 14.808 16.7451 14.2185 16.2352 13.7311C15.7254 13.2437 15.1088 13 14.3854 13H12.5782V14.2088H14.3825C14.7584 14.2088 15.0779 14.3344 15.341 14.5854C15.6042 14.8365 15.7357 15.1414 15.7357 15.5C15.7357 15.8586 15.6042 16.1635 15.341 16.4146C15.0779 16.6656 14.7584 16.7912 14.3825 16.7912H12.5782Z" />
</svg>
