<?xml version="1.0" encoding="UTF-8"?><svg xmlns="http://www.w3.org/2000/svg" width="24" height="24" viewBox="0 0 24 24"><g id="a"><path d="M18.73,11.73h3.06L12,1.94,2.21,11.73h3.06v9.02h13.47v-1.21l.8,.8,1.06-1.06-1.86-1.86v-5.69Zm-1.5,7.52H6.77V10.23h-.93l6.17-6.17,6.17,6.17h-.93v5.69l-3.35-3.35,.79-.79c.44,.44,1.15,.44,1.59,0s.44-1.15,0-1.59l-2.65-2.65c-.44-.44-1.15-.44-1.59,0s-.44,1.15,0,1.59l-2.65,2.65c-.44-.44-1.15-.44-1.59,0s-.44,1.15,0,1.59l2.65,2.65c.44,.44,1.15,.44,1.59,0s.44-1.15,0-1.59l.79-.79,4.41,4.41v1.21Z"/></g><g id="c"><rect width="24" height="24" fill="none"/></g></svg>