<svg viewBox="0 0 24 24" xmlns="http://www.w3.org/2000/svg">
<path d="M13.0581 1H15.7678C16.516 1 17.1226 1.60658 17.1226 2.35483V2.62579C17.1226 3.37405 16.516 3.98062 15.7678 3.98062L14.5485 3.98062L14.5484 12.6515H16.0387V6.69045H17.9352C20.1799 6.69045 21.9996 8.51019 21.9996 10.7549V17.1226H10.4784V10.4838C10.4784 8.75467 9.39867 7.27773 7.87664 6.69045H13.0582L13.0581 1Z" />
<path d="M1 10.7548C1 8.51007 2.81973 6.69034 5.06449 6.69034H5.19997C7.44472 6.69034 9.26446 8.51007 9.26446 10.7548V17.1225H1V10.7548ZM3.03214 10.2129V11.4323H7.31236V10.2129H3.03214Z" />
<path d="M9.26439 18.2063H8.18053V23.0837H9.26439V18.2063Z" />
<path d="M10.4839 18.2063H12.7871V23.0837H10.4839V18.2063Z" />
</svg>
