<svg xmlns="http://www.w3.org/2000/svg" viewBox="0 0 24 24">
  <rect x="4.75" y="9.25" width="1.5" height="1.5" />
  <rect x="7.75" y="9.25" width="1.5" height="1.5" />
  <rect x="10.75" y="9.25" width="1.5" height="1.5" />
  <path
    d="M17.25,12V5.19a1.94,1.94,0,0,0-1.94-1.94H14.25V1.75h-1.5v1.5H6.25V1.75H4.75v1.5H3.69A1.94,1.94,0,0,0,1.75,5.19V15.31a1.94,1.94,0,0,0,1.94,1.94H6.5v5H22.25V12ZM3.69,15.75a.44.44,0,0,1-.44-.44V7.75h12.5V12H6.5v3.75Zm17.06,3.5-1.5,1.5H9.5L8,19.25V15l1.5-1.5h9.75l1.5,1.5Z"
  />
  <path
    d="M14.25,14.38A2.75,2.75,0,1,0,17,17.12,2.75,2.75,0,0,0,14.25,14.38Zm0,4a1.25,1.25,0,1,1,1.25-1.26A1.26,1.26,0,0,1,14.25,18.38Z"
  />
</svg>
