<svg xmlns="http://www.w3.org/2000/svg" width="24" height="24" viewBox="0 0 24 24"><path d="M17.25,9.43V5.19a1.94,1.94,0,0,0-1.94-1.94H14.25V1.75h-1.5v1.5H6.25V1.75H4.75v1.5H3.69A1.94,1.94,0,0,0,1.75,5.19V15.31a1.94,1.94,0,0,0,1.94,1.94H9.43a6.5,6.5,0,1,0,7.82-7.82ZM3.69,15.75a.44.44,0,0,1-.44-.44V7.75h12.5v1.5a6.5,6.5,0,0,0-6.5,6.5Zm12.06,5a5,5,0,1,1,5-5A5,5,0,0,1,15.75,20.75Z"/><rect x="4.75" y="9.25" width="1.5" height="1.5"/><rect x="4.75" y="12.25" width="1.5" height="1.5"/><rect x="7.75" y="9.25" width="1.5" height="1.5"/><polygon points="15.76 14.68 13.54 12.46 12.48 13.52 15.76 16.8 18.27 14.29 17.21 13.23 15.76 14.68"/><rect width="24" height="24" fill="none"/></svg>