<svg viewBox="0 0 24 24" xmlns="http://www.w3.org/2000/svg">
<path fill-rule="evenodd" clip-rule="evenodd" d="M12 3C12 2.44772 12.4477 2 13 2H21C21.5523 2 22 2.44772 22 3V21C22 21.5523 21.5523 22 21 22H13C12.4477 22 12 21.5523 12 21C12 21.5523 11.5523 22 11 22H9V18C9 17.4477 8.55228 17 8 17H6C5.44772 17 5 17.4477 5 18V22H3C2.44772 22 2 21.5523 2 21V16.0206C2 15.6943 2.15921 15.3885 2.42654 15.2014L6.42654 12.4014C6.77086 12.1604 7.22914 12.1604 7.57346 12.4014L11.5735 15.2014C11.8408 15.3885 12 15.6943 12 16.0206V3ZM14 5H20V7H14V5ZM20 9H14V11H20V9ZM14 13H20V15H14V13Z"/>
</svg>
