<svg  viewBox="0 0 24 24"  xmlns="http://www.w3.org/2000/svg">
<path d="M2 12C2 6.48 6.47 2 11.99 2C17.52 2 22 6.48 22 12C22 12.6638 21.9352 13.3125 21.8116 13.9402C21.5001 12.6754 20.8184 11.5564 19.888 10.7046C19.8477 10.4661 19.7978 10.2311 19.74 10H18.9657C17.9626 9.36657 16.7741 9 15.5 9C14.2259 9 13.0374 9.36657 12.0343 10H9.66C9.57 10.65 9.5 11.32 9.5 12C9.5 12.3057 9.51415 12.6074 9.5379 12.9068C9.19189 13.7012 9 14.5782 9 15.5C9 18.5511 11.1022 21.1112 13.9372 21.8109C13.3074 21.935 12.6563 22 11.99 22C6.47 22 2 17.52 2 12ZM15.97 8H18.92C17.96 6.35 16.43 5.07 14.59 4.44C15.19 5.55 15.65 6.75 15.97 8ZM13.91 8C13.48 6.57 12.83 5.24 12 4.04C11.17 5.24 10.52 6.57 10.09 8H13.91ZM4 12C4 12.69 4.1 13.36 4.26 14H7.64C7.56 13.34 7.5 12.68 7.5 12C7.5 11.32 7.56 10.66 7.64 10H4.26C4.1 10.64 4 11.31 4 12ZM8.03 16H5.08C6.04 17.66 7.57 18.93 9.41 19.56C8.81 18.45 8.35 17.25 8.03 16ZM5.08 8H8.03C8.35 6.75 8.81 5.55 9.41 4.44C7.57 5.07 6.04 6.34 5.08 8Z"/>
<path d="M12.0179 19.6915C12.0179 20.2589 12.5402 20.7232 13.1786 20.7232H17.8214C18.4598 20.7232 18.9821 20.2589 18.9821 19.6915V13.501H12.0179V19.6915ZM19.5625 11.9534H17.5312L16.9509 11.4375H14.0491L13.4688 11.9534H11.4375V12.9851H19.5625V11.9534Z"/>
</svg>
