<svg  viewBox="0 0 24 24"  xmlns="http://www.w3.org/2000/svg">
<path fill-rule="evenodd" clip-rule="evenodd" d="M8.25898 6.87433C7.98044 7.15287 7.64222 7.29213 7.24432 7.29213C6.84641 7.29213 6.50819 7.15287 6.22966 6.87433C5.95113 6.5958 5.81186 6.25758 5.81186 5.85968C5.81186 5.46177 5.95113 5.12355 6.22966 4.84502C6.50819 4.56649 6.84641 4.42722 7.24432 4.42722C7.64222 4.42722 7.98044 4.56649 8.25898 4.84502C8.53751 5.12355 8.67678 5.46177 8.67678 5.85968C8.67678 6.25758 8.53751 6.5958 8.25898 6.87433ZM6.89814 6.06261L6.68924 6.74303L7.24432 6.31926L7.79343 6.74303L7.58453 6.06261L8.1396 5.62093H7.45919L7.24432 4.95245L7.02945 5.62093H6.34903L6.89814 6.06261Z"/>
<path d="M7.24432 8.00836L6.28935 8.25307V7.51297C6.42861 7.59255 6.57882 7.65522 6.73997 7.70098C6.90113 7.74674 7.06924 7.76962 7.24432 7.76962C7.4194 7.76962 7.58751 7.74674 7.74866 7.70098C7.90981 7.65522 8.06002 7.59255 8.19929 7.51297V8.25307L7.24432 8.00836Z"/>
<path fill-rule="evenodd" clip-rule="evenodd" d="M4.5 22C4.1 22 3.75 21.85 3.45 21.55C3.15 21.25 3 20.9 3 20.5V3.5C3 3.1 3.15 2.75 3.45 2.45C3.75 2.15 4.1 2 4.5 2H13L19 8V12.95L12 19.95V22H4.5ZM12 9H17.5L12 3.5V9ZM9.45844 19.2593C8.55416 19.2593 7.72269 19.016 6.96402 18.5294C6.20534 18.0428 5.68424 17.332 5.40069 16.3971H3.84886V15.351H5.22827C5.21294 15.2054 5.20336 15.0579 5.19953 14.9085C5.1957 14.759 5.20528 14.5885 5.22827 14.3969H3.84886V13.3394H5.40069C5.6919 12.4581 6.21492 11.7627 6.96976 11.2531C7.7246 10.7434 8.55416 10.4886 9.45844 10.4886C10.0562 10.4886 10.6079 10.5978 11.1137 10.8162C11.6195 11.0347 12.087 11.3354 12.5161 11.7186L11.7689 12.4658C11.4318 12.1746 11.0677 11.9485 10.6769 11.7876C10.2861 11.6266 9.87992 11.5462 9.45844 11.5462C8.82238 11.5462 8.23805 11.7129 7.70545 12.0462C7.17284 12.3796 6.79542 12.8106 6.57319 13.3394H9.71133V14.3969H6.27431C6.25132 14.5579 6.23983 14.7054 6.23983 14.8395C6.23983 14.9736 6.25132 15.1441 6.27431 15.351H9.71133V16.3971H6.5502C6.7801 16.9795 7.16326 17.4278 7.6997 17.742C8.23613 18.0562 8.82238 18.2133 9.45844 18.2133C9.87226 18.2133 10.2746 18.1386 10.6654 17.9891C11.0562 17.8397 11.4241 17.6041 11.7689 17.2822L12.5161 18.0179C12.1329 18.3934 11.6789 18.6942 11.154 18.9202C10.629 19.1463 10.0638 19.2593 9.45844 19.2593ZM5.81186 7.11905V8.96333L7.24432 8.48585L8.67678 8.96333V7.11905C8.82798 6.95193 8.94536 6.76093 9.02892 6.54606C9.11248 6.33119 9.15426 6.1024 9.15426 5.85968C9.15426 5.32648 8.96924 4.87486 8.59918 4.50481C8.22913 4.13476 7.77751 3.94973 7.24432 3.94973C6.71113 3.94973 6.2595 4.13476 5.88945 4.50481C5.5194 4.87486 5.33438 5.32648 5.33438 5.85968C5.33438 6.1024 5.37615 6.33119 5.45972 6.54606C5.54328 6.76093 5.66066 6.95193 5.81186 7.11905Z"/>
<path d="M13.5 22V20.575L18.575 15.525L20.025 16.9L14.925 22H13.5Z"/>
<path d="M20.7 16.225L19.275 14.825L20.075 14.05C20.225 13.9167 20.4042 13.85 20.6125 13.85C20.8208 13.85 20.9917 13.9167 21.125 14.05L21.45 14.4C21.6 14.55 21.675 14.7292 21.675 14.9375C21.675 15.1458 21.6 15.325 21.45 15.475L20.7 16.225Z"/>
</svg>
