<svg viewBox="0 0 24 24" xmlns="http://www.w3.org/2000/svg">
<path d="M10.9999 3H12.9999V5H10.9999V3Z" />
<path d="M10.9999 6H12.9999V12H10.9999V6Z" />
<path d="M7.99994 13H15.9999V15H7.99994V13Z" />
<path d="M8.99994 16H14.9999V18H8.99994V16Z" />
<path
    d="M9.99994 19H13.9999V20C13.9999 20.5523 13.5522 21 12.9999 21H10.9999C10.4477 21 9.99994 20.5523 9.99994 20V19Z"
  />
<path
    d="M7.99999 2.99997L9.4142 4.41418L6.32841 7.49998L9.41419 10.5858L7.99998 12L3.5 7.5L7.99999 2.99997Z"
  />
<path
    d="M16 12L14.5857 10.5858L17.6715 7.49999L14.5857 4.4142L16 2.99999L20.4999 7.49997L16 12Z"
  />
</svg>
