<svg viewBox="0 0 24 24" xmlns="http://www.w3.org/2000/svg">
<path
    d="M5.22887 12.0348C5.19721 8.51472 8.05255 5.32384 12.0348 5.3365C15.7259 5.34916 18.6698 8.37543 18.7015 11.9588C18.7395 15.7195 15.7069 18.7838 12.0095 18.7838C8.22349 18.7838 5.2352 15.8018 5.22887 12.0348ZM11.9652 6.15321C8.83761 6.0899 6.0076 8.62868 5.97594 12.0791C6.21019 19.974 17.6505 20.0563 17.9291 12.0665C17.9291 8.80595 15.251 6.15321 11.9652 6.15321Z"
  />
<path
    d="M7.02691 5.08959C7.13454 5.3365 7.26116 5.57075 7.34346 5.824C7.37512 5.91896 7.35613 6.08357 7.28648 6.14688C6.93194 6.48876 6.5584 6.80532 6.15954 7.16619C5.68471 6.03925 5.95062 4.86167 5.85565 3.74739C6.48243 3.90567 7.10921 4.04495 7.72966 4.21589C8.24881 4.35518 8.66034 4.6654 9.08452 5.02627C8.66667 5.26053 8.29946 5.48211 7.91959 5.67205C7.86261 5.7037 7.72333 5.64672 7.66002 5.58974C7.46375 5.41247 7.28015 5.21621 7.09022 5.02627L7.02691 5.08959Z"
  />
<path
    d="M9.49604 19.208C9.92656 19.3029 10.3381 19.3789 10.7369 19.4865C10.8192 19.5119 10.9205 19.6512 10.9332 19.7461C10.9585 20.012 10.9395 20.2906 11.0155 20.5818C11.1105 20.3286 11.2118 20.0817 11.2877 19.8221C11.3384 19.6385 11.4334 19.5752 11.6233 19.5752C12.0918 19.5878 12.5666 19.5815 13.0668 19.5815C12.9338 20.1513 12.535 20.5818 12.1614 21.025C11.7879 21.4682 11.389 21.8797 11.0345 22.2659C10.7243 21.8164 10.4014 21.3289 10.0658 20.8604C9.71763 20.3602 9.57202 19.8031 9.49604 19.208Z"
  />
<path
    d="M6.1912 18.6698C6.4761 18.4609 6.75467 18.2393 7.0459 18.0431C7.11554 17.9924 7.25483 17.9544 7.31181 17.9861C7.69801 18.2267 8.07154 18.4926 8.47673 18.7711C8.00823 19.113 7.5334 19.3979 6.95727 19.4865C6.38113 19.5752 5.78601 19.6955 5.19721 19.7968C5.40614 18.6952 5.15923 17.4859 5.76068 16.3843L6.77999 17.5429L6.13422 18.6065L6.1912 18.6698Z"
  />
<path
    d="M15.0991 5.16556C15.5929 4.74771 16.188 4.46914 16.8275 4.36784C17.3593 4.2792 17.8974 4.19057 18.4293 4.10193C18.252 5.15923 18.4419 6.33048 17.9797 7.27382L16.8401 6.34315C17.0744 5.96328 17.2833 5.61507 17.4922 5.26686L17.4353 5.20988C17.1694 5.41247 16.8908 5.60874 16.6312 5.824C16.4793 5.95062 16.359 5.96961 16.188 5.84932C15.8525 5.6214 15.4916 5.41247 15.0991 5.16556Z"
  />
<path
    d="M20.0057 10.0025C19.5689 10.0215 19.2396 10.2305 19.0814 9.69231C18.9231 9.23014 18.7521 8.76796 18.5622 8.24248C18.8091 8.27414 19.0244 8.25514 19.208 8.32479C20.0374 8.64767 20.8477 9.00855 21.6391 9.42007C21.3036 9.9139 20.9617 10.4204 20.6135 10.9332C20.3412 11.3384 19.9614 11.6676 19.5245 11.8829C19.4549 11.408 19.3852 10.9649 19.3346 10.5217C19.3283 10.4584 19.4106 10.3571 19.4739 10.3254C19.6448 10.2305 19.8348 10.1671 20.012 10.0912L20.0057 10.0025Z"
    fill="black"
  />
<path
    d="M13.7949 4.72238C13.3137 4.67173 12.8642 4.63374 12.4274 4.5641C12.3324 4.55144 12.2248 4.40582 12.1931 4.2982C12.0981 3.9943 12.0412 3.67775 11.8955 3.36752C11.8512 3.65242 11.8006 3.93732 11.7752 4.22222C11.7499 4.47547 11.636 4.57676 11.3701 4.58943C10.9965 4.60209 10.623 4.6654 10.2051 4.71605C10.2684 4.12726 10.528 3.57645 10.9522 3.15859C11.1548 2.94967 11.3954 2.76607 11.598 2.55714C11.7689 2.3862 11.9145 2.18993 12.0791 2C12.7502 2.82938 13.6049 3.55112 13.7949 4.72238Z"
  />
<path
    d="M17.2517 20.7464C16.2893 20.2463 15.1497 20.0627 14.295 19.2523C14.7382 19.0434 15.1624 18.8408 15.5929 18.6635C15.6499 18.6445 15.7765 18.7331 15.8335 18.8028C16.0614 19.056 16.283 19.3219 16.5679 19.5435C16.4666 19.2776 16.3843 19.0117 16.264 18.7585C16.1247 18.4672 16.1437 18.271 16.4539 18.0874C16.7642 17.9038 17.0111 17.6442 17.3086 17.3973C17.7898 18.4989 17.3973 19.6132 17.2517 20.7464Z"
  />
<path
    d="M5.47578 8.15385C5.27952 8.58436 5.10858 8.99588 4.90598 9.39474C4.868 9.46439 4.70972 9.51504 4.61475 9.5087C4.34251 9.49604 4.07661 9.44539 3.80437 9.40741C3.70307 9.38841 3.60177 9.39474 3.50681 9.43273C3.83602 9.60367 4.16524 9.78094 4.50079 9.94555C4.65907 10.0215 4.69706 10.1165 4.65274 10.2938C4.55777 10.699 4.49446 11.1105 4.41216 11.56C3.89934 11.2877 3.46882 10.8889 3.15226 10.4014C2.86103 9.94555 2.56347 9.48971 2.25958 9.00855C3.29788 8.73631 4.28553 8.11586 5.47578 8.15385Z"
  />
<path
    d="M5.38715 15.7702C4.15258 15.9854 3.29788 15.1434 2.27224 14.7445C2.87369 13.9342 3.39285 13.0478 4.40582 12.6299C4.48813 13.0605 4.57043 13.4593 4.62741 13.8582C4.62108 13.9595 4.57043 14.0544 4.48813 14.1114C4.1969 14.2697 3.893 14.4027 3.60177 14.6242C3.67775 14.6179 3.75372 14.6116 3.82969 14.6053C4.74137 14.4343 4.74137 14.4343 5.12757 15.2574C5.21621 15.4156 5.29851 15.5802 5.38715 15.7702Z"
  />
<path
    d="M19.4739 12.9022C20.5438 13.4087 20.6135 14.5799 21.2529 15.3777C20.2779 15.7385 19.3852 16.2767 18.29 16.1817C18.5116 15.7512 18.7078 15.3333 18.9484 14.9471C19.2206 14.6622 19.7968 14.8838 20.1766 14.8268C19.9297 14.7192 19.6891 14.5989 19.4359 14.5103C19.1953 14.4217 19.1257 14.3077 19.2143 14.0418C19.3409 13.6809 19.3916 13.301 19.4739 12.9022Z"
  />
<path
    d="M13.8012 19.7208C14.0861 19.9171 14.3963 20.107 14.6876 20.3286C14.7445 20.3729 14.7635 20.5375 14.7255 20.6072C14.4406 21.1073 14.1431 21.5948 13.8519 22.0886C13.529 21.8481 13.2314 21.6391 12.9465 21.4049C12.8895 21.3606 12.8452 21.2086 12.8769 21.158C13.1681 20.6831 13.4783 20.2146 13.8012 19.7208Z"
  />
<path
    d="M3.90567 5.76068C4.2982 5.71637 4.65274 5.66572 5.00095 5.64672C5.08325 5.64039 5.2352 5.74802 5.24786 5.81766C5.34283 6.34948 5.41247 6.88129 5.50111 7.47009C5.16556 7.5144 4.7667 7.58405 4.36784 7.60937C4.31086 7.6157 4.20323 7.4321 4.1779 7.32447C4.07661 6.81165 3.9943 6.2925 3.90567 5.76068Z"
  />
<path
    d="M15.346 2.52548C15.4726 2.956 15.6056 3.38018 15.7259 3.81703C15.7449 3.88667 15.7132 4.01963 15.6562 4.05128C15.2764 4.30453 14.8775 4.53878 14.5103 4.7667C14.3393 4.29186 14.1684 3.81703 13.9848 3.30421L15.346 2.52548Z"
  />
<path
    d="M17.8405 16.7958H19.3979C19.4929 17.258 19.5942 17.7708 19.6955 18.2773C19.2333 18.2773 18.7648 18.2773 18.29 18.271C18.233 18.2583 18.1823 18.214 18.1633 18.157C18.0557 17.7138 17.9544 17.2707 17.8405 16.7958Z"
  />
<path
    d="M18.5812 7.52707C18.6635 7.2485 18.7585 6.90662 18.8788 6.4761L20.7654 6.91295C20.6515 7.26116 20.5502 7.59038 20.4172 7.90693C20.3919 7.97024 20.2399 8.02722 20.1703 8.00823C19.6448 7.85628 19.1193 7.69167 18.5812 7.52707Z"
    fill="black"
  />
<path
    d="M8.11586 3.6081C8.22982 3.24723 8.35011 2.86103 8.48306 2.44318C8.9389 2.72808 9.39475 3.00032 9.83792 3.29155C9.8949 3.35486 9.92023 3.43716 9.90123 3.51947C9.79361 3.85502 9.66065 4.18424 9.53403 4.51978L8.11586 3.6081Z"
  />
<path
    d="M4.98196 16.4033C4.868 16.9668 4.7667 17.4859 4.65274 18.0557L3.47515 17.9354C3.54479 17.5429 3.6081 17.1567 3.68408 16.7705C3.78538 16.2197 3.79171 16.226 4.35518 16.3337C4.5641 16.3716 4.77936 16.3843 4.98196 16.4033Z"
  />
<path
    d="M8.82494 19.3219L9.27445 20.8857L8.22349 21.5252C8.06521 21.006 7.91326 20.4869 7.75499 19.9614L8.82494 19.3219Z"
  />
<path
    d="M20.8414 13.2124L19.974 12.402L20.9997 11.5473L22 12.4147L20.8414 13.2124Z"
    fill="black"
  />
<path
    d="M2.79772 13.0098L2 12.459C2.34821 12.1741 2.69009 11.8765 3.04463 11.6043C3.13327 11.5537 3.2409 11.5473 3.33587 11.5916C3.57645 11.7436 3.79171 11.9209 4.0133 12.0918L2.79772 13.0098Z"
  />
<path
    d="M15.7005 13.0035C15.6942 13.567 15.365 14.0481 14.8712 14.2254C14.0671 14.504 13.5923 13.9911 13.1744 13.3327C13.0288 13.1301 12.8515 12.9718 12.592 13.1048C12.3324 13.2377 12.3577 13.4657 12.44 13.7062C12.8009 14.7445 12.0032 15.7195 10.9079 15.5739C10.0089 15.4536 9.59101 14.4027 10.1608 13.6619C10.4141 13.3517 10.7876 13.1301 11.0535 12.8262C11.2561 12.5793 11.1105 12.2501 10.7876 12.2437C10.5597 12.2437 10.3254 12.2817 10.1102 12.3577C8.81228 12.8072 7.74865 10.8066 8.97056 10.0152C9.60367 9.60367 10.3697 9.73662 10.8192 10.3444C10.9395 10.5027 11.0472 10.6736 11.1675 10.8319C11.2751 10.9712 11.389 11.1421 11.6043 11.0218C11.8196 10.9016 11.9588 10.7306 11.8765 10.452C11.7626 10.0658 11.655 9.68598 11.7879 9.28079C11.9209 8.87559 12.1868 8.62868 12.611 8.55271C13.9278 8.31212 14.9978 9.95188 13.8075 10.7686C13.6176 10.9016 13.4213 11.0345 13.2694 11.2054C13.1808 11.3194 13.1491 11.4587 13.1808 11.598C13.2124 11.6866 13.3833 11.7816 13.4973 11.7879C13.7252 11.7942 13.9531 11.7436 14.1874 11.7119C15.0168 11.598 15.7069 12.1931 15.7005 13.0035ZM11.0915 15.4726C12.0665 15.4789 12.6363 14.6496 12.3071 13.6999C12.1994 13.396 12.2817 13.1174 12.5286 12.9972C13.0478 12.7439 13.3074 13.358 13.567 13.6936C14.3014 14.7382 15.7195 13.9848 15.5866 12.8642C15.5169 12.3134 15.1307 11.9019 14.5799 11.8575C14.2697 11.8322 13.9531 11.8892 13.6429 11.9082C13.4087 11.9272 13.1554 11.8955 13.0858 11.655C12.9718 11.1611 13.377 10.9079 13.7379 10.661C14.1621 10.3634 14.3204 9.90123 14.1368 9.44539C13.8962 8.84394 13.0035 8.43242 12.421 8.71098C12.2121 8.81228 12.0222 9.04653 11.9209 9.26812C11.7436 9.64166 11.8765 10.0279 11.9905 10.4014C12.0791 10.6863 11.9399 10.9902 11.6676 11.1041C11.3827 11.2371 11.2181 11.0915 11.0662 10.8699C10.9016 10.6293 10.7369 10.3761 10.5217 10.1798C9.61 9.3251 8.05255 10.433 8.68566 11.5537C9.02121 12.1551 9.55302 12.402 10.1102 12.2121C10.49 12.1045 11.0282 11.9462 11.2371 12.402C11.3637 12.6806 11.1928 12.8642 11.0092 13.0351C10.8003 13.2251 10.5597 13.3833 10.3571 13.5796C9.65432 14.238 10.1102 15.4916 11.0915 15.4726Z"
  />
<path
    d="M9.03387 15.4726C8.69832 14.4217 9.86325 12.554 10.9332 12.4463C9.66698 13.0605 9.06553 14.0861 9.03387 15.4726Z"
  />
<path
    d="M10.9775 12.6679C9.83792 13.2441 9.3251 14.1937 9.29978 15.46C8.90092 14.7255 9.92023 12.7819 10.9775 12.6679Z"
  />
<path
    d="M13.9975 12.1108C14.5989 12.0475 15.2004 12.1488 15.308 12.7629C15.403 13.2251 15.1687 13.6872 14.7445 13.8835C14.3393 14.0671 13.9278 13.9215 13.6303 13.491C13.3454 13.0731 12.9908 12.4907 12.4463 12.7312C12.1931 12.8325 12.0285 13.1364 12.0538 13.491C12.0791 13.6872 12.1171 13.8835 12.1614 14.0798C12.2564 14.5799 11.9082 15.0674 11.3511 15.2257C10.9142 15.3523 10.4584 15.1117 10.3128 14.6812C10.1861 14.3267 10.2938 13.9531 10.604 13.6936C10.7876 13.5353 10.9902 13.4023 11.1675 13.2377C11.5093 12.9212 11.5853 12.5223 11.3764 12.1931C11.1675 11.8639 10.8192 11.7816 10.3761 11.9462C10.2305 12.0032 10.0785 12.0475 9.92656 12.0791C9.43906 12.1741 9.02121 11.9145 8.85027 11.4144C8.67933 10.9142 8.82494 10.4774 9.2238 10.2684C9.69231 10.0215 10.2368 10.1292 10.5217 10.528C10.623 10.6736 10.7053 10.8319 10.8003 10.9839C11.0472 11.3827 11.3384 11.503 11.7246 11.3574C12.0855 11.2244 12.2691 10.8952 12.2058 10.4647C12.1741 10.2558 12.1171 10.0532 12.0728 9.85059C11.9525 9.31244 12.2627 8.90092 12.8135 8.89459C13.2757 8.88826 13.6619 9.05287 13.8835 9.48338C14.0861 9.88224 13.9785 10.2621 13.6049 10.528C13.4087 10.6673 13.1997 10.7939 13.0288 10.9585C12.5413 11.3954 12.8642 12.1551 13.5226 12.1171L13.9975 12.1108Z"
  />
</svg>
