<svg xmlns="http://www.w3.org/2000/svg" viewBox="0 0 24 24">
  <path
    d="M13.4,7.7c.38,.38,.58,.85,.58,1.39s-.19,1-.58,1.39c-.38,.38-.85,.58-1.39,.58s-1-.19-1.39-.58c-.38-.38-.58-.85-.58-1.39s.19-1,.58-1.39c.38-.38,.85-.58,1.39-.58s1,.19,1.39,.58Zm5.68,1.39c0,6.6-7.08,12.92-7.08,12.92,0,0-7.08-6.32-7.08-12.92,0-3.91,3.17-7.08,7.08-7.08s7.08,3.17,7.08,7.08Zm-3.56-.66l1.06-.91-.93-1.57-1.33,.42c-.18-.16-.36-.29-.54-.37-.18-.08-.38-.16-.59-.25l-.27-1.4h-1.84l-.27,1.4c-.21,.08-.41,.17-.59,.26-.18,.09-.36,.21-.54,.36l-1.33-.42-.93,1.57,1.06,.91c-.03,.21-.05,.43-.05,.65s.02,.45,.05,.68l-1.06,.91,.93,1.57,1.33-.42c.18,.13,.36,.25,.54,.34,.18,.1,.38,.19,.59,.27l.27,1.4h1.84l.27-1.4c.21-.08,.41-.17,.59-.27,.18-.1,.36-.21,.54-.34l1.33,.42,.93-1.57-1.06-.91c.05-.23,.07-.45,.07-.68s-.02-.44-.07-.65Z"
  />
</svg>
