<svg viewBox="0 0 24 24" xmlns="http://www.w3.org/2000/svg">
<path d="M12.2891 16.0988C11.0826 15.8423 10.218 14.8448 10.0755 13.6762L15.3008 14.7783C14.7022 15.7948 13.5052 16.3554 12.2891 16.0988Z"/>
<path d="M15.9848 10.0946C16.6403 10.2276 17.1153 10.7311 17.2008 11.3201C16.8873 11.8141 16.2508 12.0802 15.5858 11.9281C14.9302 11.8046 14.4552 11.3011 14.3792 10.7216C14.6832 10.2181 15.3293 9.95205 15.9848 10.0946Z"/>
<path d="M11.3391 9.10651C10.6835 8.964 10.047 9.23002 9.74299 9.73354C9.81899 10.3131 10.294 10.8166 10.9495 10.9781C11.6051 11.1016 12.2416 10.8261 12.5551 10.3321C12.4791 9.75254 11.9756 9.23952 11.3391 9.10651Z"/>
<path d="M3.6247 12.7357C4.10922 15.0443 5.7433 16.8209 7.8049 17.5809C7.9261 17.7259 8.05337 17.8657 8.18645 18H4V19.0027H9.4593C10.0743 19.3742 10.7596 19.6493 11.5006 19.804C13.2148 20.1714 14.916 19.8395 16.3087 19.0027H20V18H17.5924C18.469 17.1234 19.1101 15.9925 19.386 14.6928L20.963 7.26342C21.172 6.25637 20.526 5.24933 19.5285 5.02132H19.5L15.3673 4.13777L15.0347 2.5512C14.8257 1.54415 13.8282 0.888617 12.8116 1.08813L12.7831 1.09763L3.50119 3.06422C2.47514 3.28273 1.81961 4.28978 2.04762 5.31583L3.6247 12.7357ZM13.6034 18H12.1654C12.0769 17.9864 11.9883 17.9702 11.8996 17.9514C9.34397 17.4099 7.70039 14.9018 8.24192 12.3557V12.3272L9.81899 4.89781L19.1009 6.8739L17.5239 14.3033C17.1046 16.282 15.495 17.7083 13.6034 18ZM3.90021 4.92631L8.14691 4.01427C8.06141 4.16627 8.00441 4.32778 7.9664 4.50829L7.22537 8.12796H6.98786C6.33233 8.27997 5.8573 8.793 5.8003 9.37253C5.99981 9.71454 6.37033 9.95205 6.79785 10.0281L6.38933 11.9281C6.22782 12.6882 6.20882 13.4482 6.30382 14.1798C5.91431 13.6572 5.62929 13.0492 5.48678 12.3747L5.47728 12.3462L3.90021 4.92631ZM13.3342 3.71025L11.4721 3.31123L13.1822 2.95022L13.3342 3.71025Z"/>
<path d="M5.592 19.3102H6.792V23H5.592V19.3102Z"/>
<path d="M17.192 19.3102H18.392V23H17.192V19.3102Z"/>
</svg>
