<svg  viewBox="0 0 24 24"  xmlns="http://www.w3.org/2000/svg">
<path fill-rule="evenodd" clip-rule="evenodd" d="M13.4249 11.7197C13.2327 12.0963 13.0921 12.4995 13.0087 12.9186C12.8304 13.8148 12.9219 14.7437 13.2716 15.5879C13.6213 16.4321 14.2134 17.1537 14.9732 17.6613C15.7329 18.169 16.6262 18.4399 17.5399 18.4399C18.7652 18.4399 19.9403 17.9532 20.8068 17.0868C21.6732 16.2204 22.1599 15.0452 22.1599 13.8199C22.1599 12.9062 21.889 12.013 21.3813 11.2532C20.8737 10.4935 20.1521 9.9013 19.3079 9.55162C18.4637 9.20194 17.5348 9.11045 16.6386 9.28871C16.2195 9.37207 15.8164 9.51267 15.4399 9.70481V10.4438C15.4399 10.6352 15.3149 10.8585 15.19 10.9861C15.1789 10.9974 15.1668 11.01 15.1537 11.0236C15.0451 11.1367 14.867 11.3222 14.6068 11.4645C14.5301 11.5065 14.0792 11.6559 13.857 11.7197H13.4249ZM16.5974 15.4924C16.293 15.3138 16.0437 15.0549 15.8767 14.7439L17.5954 14.6793L17.891 14.0879H15.6734C15.6674 13.9864 15.6674 13.8845 15.6734 13.783C15.6675 13.6845 15.6675 13.5858 15.6734 13.4873H17.5676L17.8633 12.8867H15.849C16.0141 12.5768 16.2641 12.3204 16.5697 12.1475C16.8679 11.9558 17.2132 11.8502 17.5676 11.8426C18.0308 11.8366 18.4793 12.0048 18.8243 12.3138L19.3602 11.7871C19.1103 11.5789 18.8257 11.4162 18.5194 11.3067C18.2262 11.1837 17.9131 11.1148 17.5954 11.1034C17.0346 11.0967 16.4868 11.2718 16.0338 11.6023C15.6027 11.9269 15.2805 12.3748 15.1098 12.8867H14.6478L14.3521 13.4873H14.9712C14.9652 13.5858 14.9652 13.6845 14.9712 13.783C14.9651 13.8845 14.9651 13.9864 14.9712 14.0879H14.6478L14.3521 14.6793H15.1098C15.2778 15.1925 15.6006 15.6412 16.0338 15.9636C16.4841 16.3006 17.033 16.4792 17.5954 16.4718C18.2579 16.4792 18.8986 16.2349 19.3879 15.7881L18.852 15.2521C18.5563 15.5369 18.1741 15.7151 17.7659 15.7587C17.3576 15.8022 16.9465 15.7085 16.5974 15.4924Z"/>
<path d="M5.46131 12.0915H8.97889L10.4933 10.9839H13.3139C13.5018 10.9384 13.8789 10.8333 13.9432 10.8037C14.1623 10.7029 14.3124 10.5715 14.4038 10.4915L14.4344 10.4648C14.5396 10.3745 14.6449 10.2163 14.6449 10.0808V9.40307C14.5864 9.3353 14.4484 9.19975 14.3642 9.19975H11.1457V8.06734H14.3538L15.1635 8.90238C15.8706 8.56 16.6626 8.36565 17.4995 8.35955C17.0494 7.89092 16.5291 7.3569 16.0177 6.83194C15.4052 6.20318 14.8053 5.58737 14.3538 5.11256L9.65427 5L5.46131 7.25126V12.0915Z"/>
<path d="M2.16884 13.1045C2.07559 13.1045 2 13.0289 2 12.9357V6.68844C2 6.59519 2.07559 6.5196 2.16884 6.5196H5.15176C5.24501 6.5196 5.3206 6.59519 5.3206 6.68844V12.9357C5.3206 13.0289 5.24501 13.1045 5.15176 13.1045H2.16884Z"/>
</svg>
