<svg xmlns="http://www.w3.org/2000/svg" viewBox="0 0 24 24">
  <path
    d="M21.64,14.37a1.34,1.34,0,0,1-.4,1l-4,4a6.49,6.49,0,0,1-4.6,1.9H2.5v-3.6H4L6.59,15a4.52,4.52,0,0,1,3.23-1.37H13.5a1.25,1.25,0,1,1,0,2.5H11a1.51,1.51,0,0,0-1.08.46l-.18.19a.49.49,0,0,0-.1.54.48.48,0,0,0,.46.31H14a2.52,2.52,0,0,0,1.77-.74l3.5-3.5a1.39,1.39,0,0,1,1.94,0A1.35,1.35,0,0,1,21.64,14.37ZM19.25,7.55a5,5,0,1,1-5-5A5,5,0,0,1,19.25,7.55Zm-6.8-1a2.08,2.08,0,0,1,.78-.81A2,2,0,0,1,15.67,6l.58-.58a2.83,2.83,0,0,0-1.94-.74,2.76,2.76,0,0,0-1.69.55,2.83,2.83,0,0,0-1,1.39h-.82l.32.64h.35a2.74,2.74,0,0,0,0,.33,2.64,2.64,0,0,0,0,.32h-.67l.32.65h.5a2.88,2.88,0,0,0,1,1.39,2.81,2.81,0,0,0,1.69.54,2.85,2.85,0,0,0,1-.22,3,3,0,0,0,.91-.52l-.58-.57a2,2,0,0,1-1.36.51,2.08,2.08,0,0,1-1.08-.33,2,2,0,0,1-.78-.8h2.18l-.32-.65H12.23a2.67,2.67,0,0,1,0-.32,2.79,2.79,0,0,1,0-.33h2.4l-.32-.64Z"
  />
</svg>
