<svg  viewBox="0 0 24 24"  xmlns="http://www.w3.org/2000/svg">
<path fill-rule="evenodd" clip-rule="evenodd" d="M13.0989 12.4305C12.6072 11.8482 12.2695 11.1492 12.12 10.3978C11.9458 9.52163 12.0352 8.61349 12.377 7.78818C12.7189 6.96288 13.2978 6.25748 14.0406 5.76119C14.7833 5.2649 15.6566 5 16.5499 5C17.7477 5 18.8966 5.47586 19.7436 6.32289C20.5906 7.16992 21.0665 8.31874 21.0665 9.51662C21.0665 10.4099 20.8016 11.2832 20.3053 12.0259C19.809 12.7687 19.1036 13.3476 18.2783 13.6894C17.6 13.9704 16.8657 14.0809 16.1392 14.0145L16.1392 13.6778C16.1392 13.4907 16.017 13.2724 15.8948 13.1477C15.884 13.1366 15.8722 13.1243 15.8594 13.111C15.7532 13.0005 15.579 12.819 15.3247 12.6799C15.2497 12.6389 14.8089 12.4928 14.5917 12.4305L13.0989 12.4305ZM15.6285 7.8816C15.3309 8.05618 15.0871 8.30933 14.9239 8.6133L16.6041 8.67653L16.8931 9.25466L14.7251 9.25466C14.7193 9.35393 14.7193 9.45347 14.7251 9.55275C14.7194 9.64902 14.7194 9.74555 14.7251 9.84182L16.577 9.84182L16.866 10.429L14.8968 10.429C15.0582 10.7319 15.3026 10.9826 15.6014 11.1516C15.8929 11.3391 16.2305 11.4422 16.577 11.4497C17.0297 11.4555 17.4682 11.2911 17.8055 10.989L18.3294 11.5039C18.0851 11.7075 17.8068 11.8665 17.5074 11.9737C17.2207 12.0939 16.9147 12.1612 16.6041 12.1724C16.0559 12.1789 15.5203 12.0078 15.0774 11.6846C14.656 11.3673 14.341 10.9294 14.1741 10.429L13.7225 10.429L13.4334 9.84182L14.0386 9.84182C14.0328 9.74555 14.0328 9.64902 14.0386 9.55275C14.0326 9.45348 14.0326 9.35393 14.0386 9.25465L13.7225 9.25465L13.4334 8.67653L14.1741 8.67653C14.3383 8.17475 14.6539 7.73613 15.0774 7.42091C15.5176 7.09151 16.0543 6.91684 16.6041 6.92408C17.2518 6.91682 17.8782 7.15574 18.3565 7.59254L17.8326 8.11647C17.5435 7.83804 17.1699 7.66382 16.7708 7.62129C16.3717 7.57876 15.9698 7.67035 15.6285 7.8816Z"/>
<path d="M6.38385 12.0672L9.82273 12.0672L11.3026 13.1495L14.0592 13.1495C14.2423 13.1937 14.6129 13.297 14.676 13.326C14.8902 13.4246 15.0369 13.553 15.1262 13.6313C15.137 13.6407 15.147 13.6495 15.1562 13.6573C15.259 13.7456 15.3619 13.9002 15.3619 14.0328L15.3619 14.6953C15.3048 14.7616 15.1699 14.8941 15.0876 14.8941L11.9411 14.8941L11.9411 16.0013L15.0773 16.0013L16.838 14.1856C16.9206 14.0939 17.1462 13.9105 17.3883 13.9105L19.0664 13.9105C19.1581 13.9288 19.4241 14.1195 19.4241 14.2956C19.4241 14.417 18.0335 15.8444 16.704 17.2091C16.1052 17.8238 15.5187 18.4258 15.0773 18.89L10.483 19L6.38385 16.7991L6.38385 12.0672Z"/>
<path d="M3.16507 11.0768C3.0739 11.0768 3 11.1507 3 11.2419L3 17.3493C3 17.4405 3.0739 17.5144 3.16507 17.5144L6.08123 17.5144C6.1724 17.5144 6.2463 17.4405 6.2463 17.3493L6.2463 11.2419C6.2463 11.1507 6.1724 11.0768 6.08123 11.0768L3.16507 11.0768Z"/>
</svg>
