<svg xmlns="http://www.w3.org/2000/svg" viewBox="0 0 24 24">
  <path
    d="M13.28,11.87c.35,.35,.53,.78,.53,1.27s-.18,.92-.53,1.27c-.35,.35-.78,.53-1.27,.53s-.92-.18-1.27-.53c-.35-.35-.53-.78-.53-1.27s.18-.92,.53-1.27c.35-.35,.78-.53,1.27-.53s.92,.18,1.27,.53Zm-3.66-5.43c.74-.28,1.54-.44,2.37-.44,.78,0,1.54,.14,2.24,.39l.84-1.77c.31-.66-.17-1.43-.9-1.43h-.67l-.65-1.06c-.39-.64-1.31-.64-1.7,0l-.65,1.06h-.74c-.72,0-1.2,.73-.92,1.39l.79,1.85Zm10.87,15.06H3.5l1.82-2.02,1.01-7.52c.38-2.84,2.8-4.96,5.67-4.96s5.29,2.12,5.67,4.96l1.01,7.52,1.82,2.02Zm-5.27-8.97l.97-.83-.85-1.44-1.22,.38c-.16-.15-.33-.26-.49-.34-.16-.08-.34-.15-.54-.22l-.25-1.28h-1.69l-.25,1.28c-.2,.07-.38,.15-.54,.24-.17,.08-.33,.19-.49,.33l-1.22-.38-.85,1.44,.97,.83c-.03,.2-.04,.39-.04,.6s.02,.41,.04,.62l-.97,.83,.85,1.44,1.22-.38c.16,.12,.33,.22,.49,.32,.16,.09,.34,.17,.54,.25l.25,1.28h1.69l.25-1.28c.2-.08,.38-.16,.54-.25,.17-.09,.33-.2,.49-.32l1.22,.38,.85-1.44-.97-.83c.04-.21,.07-.42,.07-.62s-.02-.4-.07-.6Z"
  />
</svg>
