<svg viewBox="0 0 24 24" xmlns="http://www.w3.org/2000/svg">
  <path
    d="M2 6C2 5.46957 2.21071 4.96086 2.58579 4.58579C2.96086 4.21071 3.46957 4 4 4L20 4C20.5304 4 21.0391 4.21072 21.4142 4.58579C21.7893 4.96086 22 5.46957 22 6V10C22 10.5304 21.7893 11.0391 21.4142 11.4142C21.0391 11.7893 20.5304 12 20 12L4 12C3.46957 12 2.96086 11.7893 2.58579 11.4142C2.21071 11.0391 2 10.5304 2 10L2 6ZM20 6L16 6V10L20 10V6ZM14 6L10 6V10L14 10V6ZM8 6L4 6L4 10L8 10L8 6Z"
  />
  <path d="M16 17L12 21L8 17L11 17L11 14H13L13 17H16Z" />
</svg>
