<?xml version="1.0" encoding="UTF-8"?>
<svg id="mgg-icone" xmlns="http://www.w3.org/2000/svg" width="24" height="24" viewBox="0 0 24 24">
  <rect width="24" height="24" fill="none"/>
  <path d="M9.5,11.75c1.52,0,2.75-1.23,2.75-2.75s-1.23-2.75-2.75-2.75-2.75,1.23-2.75,2.75,1.23,2.75,2.75,2.75Zm0-4c.69,0,1.25,.56,1.25,1.25s-.56,1.25-1.25,1.25-1.25-.56-1.25-1.25,.56-1.25,1.25-1.25Zm10.75,2v-3h-2.47V3.72H1.22V14.28H3.75v2.97h2.5v3H22.75V9.75h-2.5Zm1,7.7l-1.3,1.3H9.05l-1.3-1.3v-.2h12.5v-5.7l1,1v4.9ZM2.78,11.48V6.52l1.24-1.24H14.98l1.24,1.24v4.97l-1.24,1.24H4.02l-1.24-1.24Zm2.47,2.97v-.17h12.53v-5.7l.97,.97v4.91l-1.3,1.3H6.55l-1.3-1.3Z"/>
</svg>