<svg xmlns="http://www.w3.org/2000/svg" width="24" height="24" viewBox="0 0 24 24"><path d="M22.34,12.2,12.15,2A1.74,1.74,0,0,0,9.73,2l-.14.13-.71-.7a1.76,1.76,0,0,0-2.72.3L.89,10.1l0,0h0l.64.63.43.44H2l11.6,11.6,8.7-8.08a1.74,1.74,0,0,0,.56-1.26A1.69,1.69,0,0,0,22.34,12.2ZM7.43,2.49a.23.23,0,0,1,.18-.11h0a.26.26,0,0,1,.18.08l.64.64L5.05,6.29ZM21.27,13.62l-7.65,7.1L3.09,10.18l.55-.51,7.11-6.61a.24.24,0,0,1,.34,0L21.28,13.26a.26.26,0,0,1,.07.18A.25.25,0,0,1,21.27,13.62ZM5.6,10.48l2.21,2.21,3.68,3.68.71-.7-1.95-2L15,8.94,11.16,5.09ZM8.29,9.26,9.92,7.69l2.47,2.46-1.6,1.61Z"/><rect width="24" height="24" fill="none"/></svg>