<svg xmlns="http://www.w3.org/2000/svg" width="24" height="24" viewBox="0 0 24 24"><path d="M7.48,14.57,3.09,10.18l7.66-7.12a.24.24,0,0,1,.34,0L15,7,16.09,6,12.15,2A1.74,1.74,0,0,0,9.73,2l-.14.13-.71-.7a1.76,1.76,0,0,0-2.72.3L.89,10.1l5.52,5.53ZM7.43,2.49a.23.23,0,0,1,.18-.11h0a.26.26,0,0,1,.18.08l.64.64L5.05,6.29ZM22.34,12.2,17.85,7.71l4-4L20.77,2.67,2.67,20.77l1.06,1.06,4.44-4.44,5.42,5.41,8.7-8.08a1.74,1.74,0,0,0,.56-1.26A1.69,1.69,0,0,0,22.34,12.2Zm-1.07,1.42-7.65,7.1L9.23,16.33l1.11-1.11,1.15,1.15.71-.7-1.15-1.16,5.74-5.74,4.49,4.49a.26.26,0,0,1,.07.18A.25.25,0,0,1,21.27,13.62ZM9.92,7.69,8.29,9.26l2.25,2.25-2,2-.77-.77L5.6,10.48l5.56-5.39L14.06,8,12.14,9.9Z"/><rect width="24" height="24" fill="none"/></svg>