<svg viewBox="0 0 24 24" xmlns="http://www.w3.org/2000/svg">
<path d="M13.8602 1.27115C13.3437 0.909616 12.6563 0.909616 12.1398 1.27115L5.8922 5.64448L9.15731 8.49957C9.40329 8.00717 9.91215 7.66902 10.5 7.66902H12.9546C14.0227 7.66902 14.9455 7.88923 15.7229 8.32966C16.5037 8.76651 17.1053 9.39672 17.5278 10.2203C17.9537 11.0403 18.1667 12.0232 18.1667 13.169C18.1667 14.2187 17.9894 15.1332 17.6348 15.9125L21.7 19.4672L20.6492 20.669H21.5C22.3284 20.669 23 19.9974 23 19.169V8.45C23 7.96053 22.7612 7.50184 22.3602 7.22115L13.8602 1.27115Z"/>
<path fill-rule="evenodd" clip-rule="evenodd" d="M20.3835 20.9728L19.067 22.4784L16.9978 20.669H4.5C3.67157 20.669 3 19.9974 3 19.169V8.45C3 8.44304 3.00005 8.43608 3.00014 8.42912L1 6.68015L2.31652 5.17457L20.3835 20.9728ZM9 13.6755V17.169C9 17.9974 9.67157 18.669 10.5 18.669H12.9952C13.538 18.669 14.0436 18.6112 14.5121 18.4954L9 13.6755Z"/>
<path d="M15.3274 13.169C15.3274 13.42 15.3171 13.6529 15.2964 13.8678L11.8729 10.8741C12.0072 10.4843 12.3772 10.2042 12.8127 10.2042C13.3535 10.2042 13.8098 10.2919 14.1816 10.4674C14.5568 10.6428 14.8407 10.9454 15.0334 11.3751C15.2294 11.8048 15.3274 12.4027 15.3274 13.169Z"/>
</svg>
