<svg xmlns="http://www.w3.org/2000/svg" viewBox="0 0 24 24">
  <path d="M13.86 1.271a1.5 1.5 0 0 0-1.72 0L5.892 5.644 9.157 8.5a1.5 1.5 0 0 1 1.343-.831h2.455c1.068 0 1.99.22 2.768.66a4.426 4.426 0 0 1 1.805 1.891c.426.82.639 1.803.639 2.949 0 1.05-.178 1.964-.532 2.743l4.065 3.555-1.05 1.202h.85a1.5 1.5 0 0 0 1.5-1.5V8.45a1.5 1.5 0 0 0-.64-1.229l-8.5-5.95Z"/>
  <path fill-rule="evenodd" d="m20.384 20.973-1.317 1.505-2.07-1.809H4.5a1.5 1.5 0 0 1-1.5-1.5V8.43L1 6.68l1.317-1.505 18.067 15.798ZM9 13.676v3.493a1.5 1.5 0 0 0 1.5 1.5h2.495a6.31 6.31 0 0 0 1.517-.174L9 13.675Z" clip-rule="evenodd"/>
  <path d="M15.327 13.169c0 .251-.01.484-.03.699l-3.424-2.994a.994.994 0 0 1 .94-.67c.54 0 .997.088 1.369.263.375.176.659.478.851.908.196.43.294 1.028.294 1.794Z"/>
</svg>
