<svg viewBox="0 0 24 24" xmlns="http://www.w3.org/2000/svg">
<path d="M1.99288 4.71924L1.20932 5.92148L3.00417 7.09128C3.05068 7.59891 3.48078 7.99995 4.00001 7.99995V19H6.00001V9.04383L14 14.2579V19H16V17H18.2073L20 18.1684V19H21.2759L22.5694 19.843L23.3529 18.6407L1.99288 4.71924Z"/>
<path d="M14 10.8933V7.99995H9.55993L6.49076 5.99995H22C22.55 5.99995 23 6.44995 23 6.99995C23 7.54995 22.55 7.99995 22 7.99995V16.1064L14 10.8933ZM17 11H19V10.5C19 10.22 18.78 9.99995 18.5 9.99995H17.5C17.22 9.99995 17 10.22 17 10.5V11Z"/>
</svg>
