<svg xmlns="http://www.w3.org/2000/svg" viewBox="0 0 24 24">
  <path
    d="M19.75,20V5.31l1.28-1.28-1-1-.06-.06L1.97,20.97l.06,.06,1,1,.53-.53H21.5v-1.5h-1.75Zm-14-.69l1.75-1.75v2.44h-1.75v-.69Zm2.31-2.31l2.94-2.94v5.94h-1.75v-3h-1.19Zm4.69-1.75v-1.75h1.75v1.75h-1.75Zm1.75,1.75h1.75v3h-1.75v-3Zm1.75-5.25v-1.75h1.75v1.75h-1.75Zm1.75,1.75v1.75h-1.75v-1.75h1.75Zm-1.19-5.25l1.19-1.19v1.19h-1.19Zm-2.31,3.5h-1.19l1.19-1.19v1.19Zm-10.25,4.94V6.75h6.75v-2h5.19l-1.75,1.75h-1.69v1.69l-1.75,1.75v-1.69H5.75v6.94l-1.5,1.5Zm5-5l-.06,.06h-1.69v-1.75h1.75v1.69Z"
  />
</svg>
