<svg viewBox="0 0 48 48" xmlns="http://www.w3.org/2000/svg">
<path d="M32.3367 23.1788C29.6401 24.6294 27.807 27.4778 27.807 30.7543C27.807 35.502 31.6558 39.3508 36.4035 39.3508C37.067 39.3508 37.713 39.2756 38.3333 39.1334V39.7018H26.0526V28.2982H17.2807V39.7018H5V37.0702H11.5789V26.1053H8.07018L11.5789 22.5965V16.8947H15.0877V19.0877L21.6667 12.5088L32.3367 23.1788Z"/>
<path d="M12.0657 12.4606C11.82 12.2148 11.4879 12.0747 11.1404 12.0702C10.3275 12.0656 9.54927 11.7406 8.9745 11.1659C8.39972 10.5911 8.07478 9.81284 8.07018 9H9.82456C9.82911 9.34756 9.96919 9.6796 10.215 9.92538C10.4608 10.1712 10.7928 10.3112 11.1404 10.3158C11.9532 10.3204 12.7314 10.6453 13.3062 11.2201C13.881 11.7949 14.2059 12.5731 14.2105 13.386V15.1404H12.4561V13.386C12.4516 13.0384 12.3115 12.7064 12.0657 12.4606Z" />
<path d="M42.7103 30.0436H37.8908L37.8908 25.2241H35.2671V30.0436H30.4476L30.4476 32.6674L35.2671 32.6674V37.4869H37.8908V32.6674L42.7103 32.6674V30.0436Z"/>
</svg>
