<svg  viewBox="0 0 24 24" xmlns="http://www.w3.org/2000/svg">
<path d="M16.094 8.99857V10.6814H14.8713V5H17.1327C17.859 5 18.2285 5.19798 18.2341 5.59254V8.367C18.2341 8.76156 17.8827 8.95256 17.1731 8.95256H16.1065V8.99857H16.094ZM17.0002 5.65249H16.0828V8.28753H17.0002V5.65249Z"/>
<path d="M3.02753 10.6925V12.3753H2V6.68836H3.89193C4.50399 6.68836 4.80932 6.88634 4.8149 7.2809V10.0554C4.8149 10.4499 4.52072 10.6409 3.92679 10.6409H3.03311L3.02753 10.6925ZM3.78876 7.34643H3.02195V9.98147H3.78876V7.34643Z"/>
<path d="M7.97139 10.6409H6.01951C5.44788 10.6409 5.15929 10.4429 5.15929 10.0484V8.89399C5.15929 8.50501 5.45346 8.30842 6.04739 8.30145H6.94108V7.34642H6.17427V7.86925H5.16626V7.27671C5.16626 6.88773 5.46601 6.69672 6.06552 6.69672L7.06934 6.68557C7.66327 6.68557 7.96303 6.88354 7.96303 7.27113L7.97139 10.6409ZM6.18821 9.97868H6.9606V8.9623H6.19378L6.18821 9.97868Z"/>
<path d="M10.2146 10.6409H9.31397C8.72004 10.6409 8.42586 10.443 8.42586 10.0554V7.2809C8.42586 6.88634 8.73677 6.68836 9.34882 6.68836H11.2408V11.7842C11.2408 12.1787 10.941 12.3767 10.3471 12.3767H9.32652C8.73259 12.3767 8.43283 12.1787 8.43283 11.7842V11.1986H9.45339V11.7214H10.2202V10.6925L10.2146 10.6409ZM9.44781 9.97868H10.2146V7.34643H9.44781V9.97868Z"/>
<path d="M14.4028 10.0498C14.4028 10.4444 14.0919 10.6354 13.4798 10.6354H12.4872C11.8877 10.6354 11.5865 10.4374 11.5865 10.0498V7.27535C11.5865 6.88079 11.8863 6.68979 12.4872 6.68979H13.5077C14.1017 6.68979 14.3958 6.88777 14.3958 7.27535V10.0498H14.4028ZM13.392 7.34646H12.6196V9.9815H13.3864L13.392 7.34646Z"/>
<path d="M21.9956 5.62042C21.9956 5.22586 21.6443 5.03486 20.9346 5.03486H19.7119C18.9967 5.03486 18.6384 5.23283 18.6384 5.62042V10.6925H19.8611V8.95814H20.7813V10.4137C20.7904 11.809 20.3619 13.172 19.5559 14.311C18.75 15.4499 17.6072 16.3075 16.2883 16.7631C14.9695 17.2187 13.541 17.2493 12.2039 16.8506C10.8668 16.4519 9.68833 15.644 8.83435 14.5405L9.44641 14.0707L6.98843 12.4046L7.09857 15.9166L7.88351 15.2892C8.894 16.592 10.2874 17.5452 11.8678 18.0149C13.4481 18.4846 15.136 18.4472 16.694 17.9078C18.252 17.3685 19.6017 16.3544 20.5535 15.0082C21.5052 13.6619 22.011 12.0512 21.9998 10.4025L21.9956 5.62042ZM20.7813 8.29589H19.8583V5.68455H20.7813V8.29589Z"/>
</svg>
