<svg xmlns="http://www.w3.org/2000/svg" viewBox="0 0 24 24">
  <path
    d="M20.25,15.57l-.24.78.89,1.45-1.14,1.58L18.13,19l-.65.47-.12,1.69-1.85.6-1.09-1.3h-.79l-1.06,1.32-1.85-.61-.12-1.68L10,19l-1.63.41L7.18,17.82,8,16.5H8A7.85,7.85,0,0,0,10.67,16a3.93,3.93,0,1,0,4.91-5.65,7.81,7.81,0,0,0,.17-1.62,7.61,7.61,0,0,0-.37-2.35l.13-.15,1.85.61.12,1.68.65.47,1.63-.41,1.14,1.58L20,11.57l.24.78,1.58.63v2Zm-6-6.82A6.25,6.25,0,1,0,8,15,6.25,6.25,0,0,0,14.25,8.75ZM6.67,6.34A2.81,2.81,0,0,0,5.6,7.44H8.13l.42.87H5.31a3,3,0,0,0,0,.44,3,3,0,0,0,0,.44H8.13l.42.87h-3a2.81,2.81,0,0,0,1.07,1.1,2.8,2.8,0,0,0,1.46.43A2.64,2.64,0,0,0,10,10.9l.79.78a4,4,0,0,1-1.24.71,3.87,3.87,0,0,1-1.38.3A3.83,3.83,0,0,1,5.83,12a3.91,3.91,0,0,1-1.42-1.89H3.74L3.3,9.19h.9c0-.09,0-.23,0-.44s0-.35,0-.44H3.74L3.3,7.44H4.41A4,4,0,0,1,5.83,5.55a3.92,3.92,0,0,1,4.92.27L10,6.6a2.64,2.64,0,0,0-1.83-.69A2.73,2.73,0,0,0,6.67,6.34Z"
  />
</svg>
