<svg viewBox="0 0 24 24" xmlns="http://www.w3.org/2000/svg">
<path d="M1.33804 5.64473C1.27513 5.70656 1.27425 5.80774 1.33612 5.87069L3.3151 7.88421C3.37697 7.94715 3.47815 7.94802 3.54106 7.88619L7.75806 3.74151C7.821 3.67965 7.82188 3.57848 7.76001 3.51553L5.78103 1.50201C5.71916 1.43907 5.61799 1.43819 5.55504 1.50006L1.33804 5.64473Z" />
<path d="M13.9839 4.4283L13.0017 5.33432L12.6603 4.99355C12.3309 4.66413 11.9684 4.41619 11.5729 4.24973C11.1773 4.08328 10.7603 4.00006 10.3218 4.00006C9.8834 4.00006 9.46496 4.08328 9.06651 4.24973C8.66807 4.41619 8.2995 4.66413 7.9608 4.99355L4.99771 7.95663C4.69264 8.2617 4.45543 8.60823 4.28609 8.99622C4.11673 9.38423 4.02277 9.78644 4.00421 10.2029C3.98566 10.5787 4.02801 10.9493 4.13126 11.3147C4.2345 11.68 4.38819 12.01 4.59233 12.3047L5.59103 11.306C5.50055 11.1401 5.43733 10.9629 5.40137 10.7744C5.36542 10.5859 5.35672 10.3954 5.37527 10.2029C5.39383 9.96971 5.4556 9.74091 5.56058 9.51646C5.66555 9.292 5.8004 9.09742 5.96513 8.93271L8.93688 5.94701C9.14104 5.74285 9.35767 5.59351 9.58675 5.49898C9.81585 5.40443 10.058 5.35715 10.3132 5.35715C10.5776 5.35715 10.825 5.40443 11.0553 5.49898C11.2855 5.59351 11.4981 5.74285 11.6929 5.94701L14.8666 9.12062C14.9292 9.17399 14.9791 9.24388 15.0162 9.33028C15.0533 9.4167 15.0719 9.51037 15.0719 9.6113C15.0719 9.78761 15.0122 9.93028 14.8927 10.0393C14.7732 10.1484 14.6311 10.2029 14.4664 10.2029C14.3655 10.2029 14.2718 10.1843 14.1854 10.1472C14.099 10.1101 14.0291 10.0602 13.9757 9.99757L11.5 7.50006L11.4976 7.50121L11.0964 7.09177L4.5186 13.1593C3.86194 13.765 3.82383 14.7742 4.43296 15.4272L11.0181 22.4864C11.6217 23.1335 12.6421 23.1773 13.2988 22.5716L22.7641 13.8406C23.0779 13.5512 23.2632 13.1496 23.2793 12.7243C23.2953 12.2989 23.1408 11.8847 22.8497 11.5727L16.2646 4.51346C15.9735 4.20142 15.5697 4.01714 15.142 4.00119C14.7143 3.98523 14.2977 4.13886 13.9839 4.4283ZM14.1301 6.45991L13.9634 6.29356L14.9097 5.42069C14.959 5.37519 15.0244 5.35108 15.0915 5.35358C15.1585 5.35608 15.2216 5.38491 15.267 5.43363L21.8522 12.4928C21.8976 12.5415 21.9218 12.6063 21.9193 12.6729C21.9168 12.7396 21.8877 12.8027 21.8384 12.8482L12.373 21.5792C12.2702 21.6741 12.1107 21.6681 12.0157 21.5663L5.43052 14.507C5.33303 14.4025 5.33823 14.2496 5.44434 14.1517L11.0725 8.96019L11.3256 9.26447L13.0397 10.9684C13.2334 11.1621 13.4552 11.3031 13.7052 11.3912C13.9551 11.4794 14.2135 11.5234 14.4803 11.5234C15.0324 11.5234 15.4929 11.339 15.8618 10.9702C16.2307 10.6013 16.4151 10.1408 16.4151 9.58868C16.4151 9.3219 16.3667 9.06439 16.2698 8.81615C16.1729 8.56793 16.023 8.34696 15.82 8.15325C15.2097 7.53785 14.6638 6.99218 14.1301 6.45991Z" />
</svg>
