<svg viewBox="0 0 24 24" xmlns="http://www.w3.org/2000/svg">
<path d="M1.11398 7.25667C1.05107 7.3185 1.05019 7.41968 1.11206 7.48263L3.09104 9.49615C3.15291 9.55909 3.25409 9.55996 3.317 9.49813L7.534 5.35345C7.59694 5.29159 7.59782 5.19041 7.53595 5.12747L5.55697 3.11395C5.4951 3.051 5.39393 3.05013 5.33098 3.11199L1.11398 7.25667Z" />
<path d="M22.92 7.74038C22.9819 7.67743 22.981 7.57625 22.9181 7.51442L18.7011 3.36975C18.6381 3.30788 18.537 3.30876 18.4751 3.3717L16.4961 5.38522C16.4342 5.44816 16.4351 5.54934 16.4981 5.6112L20.7151 9.75588C20.778 9.81771 20.8791 9.81684 20.941 9.7539L22.92 7.74038Z" />
<path d="M12.0722 20.9074C11.6281 20.9074 11.241 20.7534 10.9107 20.4453C10.5804 20.1371 10.4077 19.7535 10.3926 19.2943C9.94758 19.2641 9.57577 19.1061 9.27723 18.8201C8.97867 18.5341 8.81681 18.1585 8.79163 17.6933C8.32644 17.6631 7.95036 17.5005 7.66338 17.2055C7.37641 16.9105 7.22285 16.5394 7.20271 16.0923C6.7355 16.0621 6.34984 15.8927 6.04575 15.5841C5.74167 15.2755 5.58962 14.885 5.58962 14.4128C5.58962 14.1812 5.63367 13.9544 5.72177 13.7324C5.80988 13.5103 5.93801 13.3153 6.10616 13.1471L10.3594 8.90594L12.6597 11.2062C12.706 11.2606 12.7667 11.3039 12.8417 11.3362C12.9167 11.3684 12.998 11.3845 13.0856 11.3845C13.2286 11.3845 13.352 11.3371 13.4557 11.2425C13.5594 11.1478 13.6113 11.024 13.6113 10.8709C13.6113 10.7833 13.5952 10.702 13.5629 10.627C13.5307 10.552 13.4874 10.4913 13.4331 10.445L10.6781 7.69006C10.5089 7.51283 10.3244 7.38319 10.1245 7.30113C9.92466 7.21905 9.70993 7.17802 9.48035 7.17802C9.25883 7.17802 9.04863 7.21905 8.84975 7.30113C8.65089 7.38319 8.46284 7.51283 8.28562 7.69006L5.7059 10.2819C5.56291 10.4249 5.44585 10.5938 5.35473 10.7886C5.2636 10.9835 5.20997 11.1821 5.19386 11.3845C5.17776 11.5516 5.18531 11.717 5.21652 11.8806C5.24774 12.0443 5.30262 12.1981 5.38116 12.3421L4.51421 13.209C4.337 12.9532 4.20359 12.6668 4.11397 12.3496C4.02434 12.0324 3.98758 11.7107 4.00368 11.3845C4.01979 11.023 4.10136 10.6738 4.24837 10.337C4.39537 10.0002 4.60129 9.69938 4.86611 9.43456L7.43831 6.86238C7.73232 6.57642 8.05227 6.36118 8.39815 6.21668C8.74403 6.0722 9.10727 5.99995 9.48787 5.99995C9.86849 5.99995 10.2305 6.0722 10.5739 6.21668C10.9172 6.36118 11.2319 6.57642 11.5178 6.86238L11.9679 7.3125L12.4181 6.86238C12.7121 6.57642 13.0308 6.36118 13.3741 6.21668C13.7175 6.0722 14.0795 5.99995 14.4601 5.99995C14.8407 5.99995 15.204 6.0722 15.5498 6.21668C15.8957 6.36118 16.2116 6.57642 16.4976 6.86238L19.6196 9.98434C19.9055 10.2703 20.1245 10.5958 20.2766 10.9608C20.4286 11.3258 20.5046 11.6986 20.5046 12.0792C20.5046 12.4599 20.4286 12.8218 20.2766 13.1652C20.1245 13.5086 19.9055 13.8232 19.6196 14.1092L13.3379 20.3788C13.1647 20.552 12.9696 20.6834 12.7526 20.773C12.5356 20.8626 12.3088 20.9074 12.0722 20.9074ZM12.0843 19.7294C12.1618 19.7294 12.2406 19.7112 12.3206 19.675C12.4007 19.6387 12.4639 19.5974 12.5102 19.5511L18.7919 13.2694C18.9691 13.0922 19.1025 12.9029 19.1922 12.7015C19.2818 12.5001 19.3266 12.2887 19.3266 12.0671C19.3266 11.8376 19.2818 11.6166 19.1922 11.4041C19.1025 11.1916 18.9691 11.0008 18.7919 10.8317L15.6503 7.69006C15.4811 7.51283 15.2979 7.38319 15.1005 7.30113C14.9032 7.21905 14.6897 7.17802 14.4601 7.17802C14.2386 7.17802 14.0259 7.21905 13.822 7.30113C13.6181 7.38319 13.43 7.51283 13.2578 7.69006L12.8077 8.14015L14.2607 9.60524C14.4369 9.7734 14.5671 9.96521 14.6512 10.1807C14.7352 10.3962 14.7773 10.6197 14.7773 10.8513C14.7773 11.3306 14.6172 11.7303 14.297 12.0505C13.9768 12.3707 13.577 12.5308 13.0977 12.5308C12.8661 12.5308 12.6418 12.4926 12.4249 12.416C12.2079 12.3395 12.0153 12.2172 11.8471 12.049L10.3594 10.5734L6.94592 13.9868C6.88652 14.0463 6.84196 14.1127 6.81226 14.1862C6.78255 14.2597 6.76769 14.3353 6.76769 14.4128C6.76769 14.5578 6.81703 14.6817 6.91572 14.7844C7.01439 14.8871 7.13623 14.9384 7.28125 14.9384C7.35878 14.9384 7.43757 14.9203 7.51761 14.8841C7.59767 14.8478 7.66086 14.8065 7.70717 14.7602L10.2869 12.1804L11.1146 13.0081L8.54694 15.5879C8.48753 15.6473 8.44297 15.7137 8.41327 15.7872C8.38355 15.8607 8.36869 15.9363 8.36869 16.0138C8.36869 16.1538 8.41929 16.2744 8.52049 16.3756C8.62169 16.4768 8.74228 16.5274 8.88225 16.5274C8.95978 16.5274 9.03858 16.5092 9.11864 16.473C9.19868 16.4367 9.26187 16.3954 9.30819 16.3491L11.9786 13.6908L12.8062 14.5185L10.1479 17.1889C10.0936 17.2352 10.0503 17.2984 10.018 17.3784C9.98583 17.4585 9.96972 17.5373 9.96972 17.6148C9.96972 17.7548 10.0203 17.8754 10.1215 17.9766C10.2227 18.0778 10.3433 18.1284 10.4833 18.1284C10.5608 18.1284 10.6363 18.1135 10.7098 18.0838C10.7833 18.0541 10.8498 18.0095 10.9092 17.9501L13.5796 15.2918L14.4072 16.1195L11.7369 18.7899C11.6775 18.8493 11.6329 18.9183 11.6032 18.9968C11.5735 19.0754 11.5586 19.1509 11.5586 19.2234C11.5586 19.3684 11.6125 19.489 11.7202 19.5851C11.828 19.6813 11.9493 19.7294 12.0843 19.7294Z" />
</svg>
