<svg xmlns="http://www.w3.org/2000/svg" viewBox="0 0 24 24">
  <path
    d="M13.57,17.45c.75,.56,1.67,.9,2.68,.9,2.49,0,4.5-2.01,4.5-4.5,0-1.93-1.23-3.57-2.94-4.21,.63-.77,1.02-1.74,1.02-2.82,0-2.49-2.01-4.5-4.5-4.5-2.24,0-4.08,1.64-4.43,3.78-.19-.02-.38-.03-.57-.03-3.31,0-6,2.69-6,6s2.69,6,6,6c.99,0,1.92-.24,2.74-.67v3.31H4v1.5h15.98v-1.5h-6.41v-3.28Zm-3.41-1.28h-1.67v-5.08h1.67v5.08Zm-.23-6.73c-.17,.17-.37,.25-.6,.25s-.44-.08-.6-.25c-.17-.17-.25-.37-.25-.6s.08-.44,.25-.6c.17-.17,.37-.25,.6-.25s.44,.08,.6,.25c.17,.17,.25,.37,.25,.6s-.08,.44-.25,.6Z"
  />
</svg>
