<svg viewBox="0 0 24 24" xmlns="http://www.w3.org/2000/svg">
  <path
    d="M23.4 19.512H20.424H20.4C20.304 19.512 20.064 19.512 19.848 19.512V17.952H21.288V16.704H19.128V15.84H20.376V13.2H10.8V15.84H12.048V16.704H9.888V17.952H11.328V19.512H11.064H6.624H6.288V11.88C6.672 12 7.08 12.024 7.464 12.024C9.336 11.928 10.872 10.368 10.944 8.496C11.016 6.408 9.36 4.704 7.296 4.704C7.248 4.704 7.176 4.704 7.128 4.704C6.576 3.864 5.592 3.336 4.512 3.384C3.024 3.456 1.776 4.656 1.656 6.144C1.608 6.648 1.704 7.128 1.896 7.56C1.272 8.16 0.935996 9 1.008 9.96C1.128 11.568 2.544 12.792 4.152 12.696C4.44 12.672 4.728 12.624 4.992 12.528V19.512H4.944H1.392V20.568H23.4V19.512ZM13.008 15.84H18.168V16.704H13.008V15.84ZM18.888 17.952V19.512H12.288V17.952H18.888Z"
  />
</svg>
