<svg viewBox="0 0 24 24" xmlns="http://www.w3.org/2000/svg">
  <path
    d="M4 4H20V6H4V4ZM4 7H20L21 12V13.34C20.33 13.09 19.62 12.96 18.91 12.96C17.71 12.96 16.54 13.33 15.54 14H14V15.53C13.3 16.53 12.92 17.73 12.92 18.95L13 20H4V14H3V12L4 7ZM6 14V18H12V14H6Z"
  />
  <path
    d="M18.5 15C16.5556 15 15 16.5556 15 18.5C15 20.4444 16.5556 22 18.5 22C20.4444 22 22 20.4444 22 18.5C22 16.5556 20.4444 15 18.5 15ZM18.5 16.1667C19.7911 16.1667 20.8333 17.2089 20.8333 18.5C20.8333 18.9356 20.7167 19.34 20.5067 19.6667L17.3333 16.4933C17.66 16.2833 18.0644 16.1667 18.5 16.1667ZM16.4933 17.3333L19.6667 20.5067C19.34 20.7167 18.9356 20.8333 18.5 20.8333C17.2089 20.8333 16.1667 19.7911 16.1667 18.5C16.1667 18.0644 16.2833 17.66 16.4933 17.3333Z"
  />
</svg>
