<?xml version="1.0" encoding="UTF-8"?>
<svg xmlns="http://www.w3.org/2000/svg" width="24" height="24" viewBox="0 0 24 24">
  <g id="esecutivi">
    <path d="M13.57,17.45c.75,.56,1.67,.9,2.68,.9,2.49,0,4.5-2.01,4.5-4.5,0-2-1.32-3.68-3.13-4.26,.44-.64,.7-1.42,.7-2.26,0-2.21-1.79-4-4-4-1.97,0-3.59,1.42-3.93,3.29-.37-.08-.75-.12-1.15-.12-3.04,0-5.5,2.46-5.5,5.5s2.46,5.5,5.5,5.5c1.03,0,1.99-.29,2.82-.78v4.01H4v1.5h15.98v-1.5h-6.41v-3.28Z"/>
  </g>
  <g id="border">
    <rect width="24" height="24" fill="none"/>
  </g>
</svg>