<?xml version="1.0" encoding="UTF-8"?>
<svg xmlns="http://www.w3.org/2000/svg" width="24" height="24" viewBox="0 0 24 24">
  <g id="esecutivi">
    <g>
      <path d="M13.57,17.44c.75,.57,1.67,.91,2.68,.91,2.49,0,4.5-2.01,4.5-4.5,0-1.93-1.23-3.57-2.94-4.21,.63-.77,1.02-1.74,1.02-2.82,0-2.49-2.01-4.5-4.5-4.5-2.28,0-4.15,1.7-4.44,3.9-.21-.02-.43-.04-.65-.04-1.26,0-2.49,.43-3.49,1.19v-1.08h-1.5v3.64h3.64v-1.5h-1.05c.7-.48,1.54-.75,2.4-.75,2.34,0,4.25,1.91,4.25,4.25s-1.91,4.25-4.25,4.25-4.25-1.9-4.25-4.24h-1.5c0,3.17,2.58,5.74,5.75,5.74,1.03,0,1.99-.28,2.83-.75v3.78H4v1.5h15.98v-1.5h-6.41v-3.29Z"/>
      <polygon points="8.47 8.44 8.47 12.26 10.73 14.51 11.79 13.45 9.97 11.63 9.97 8.44 8.47 8.44"/>
    </g>
  </g>
  <g id="border">
    <rect width="24" height="24" fill="none"/>
  </g>
</svg>