<svg viewBox="0 0 24 24" xmlns="http://www.w3.org/2000/svg">
<path d="M7 1.1961V5H14V1H13.9339L13.3176 1.91501L12.7342 1.04899L12.1509 1.91501L11.5676 1.04899L10.9842 1.91501L10.4009 1.04899L9.81757 1.91501L9.23424 1.04899L8.65091 1.91501L8.06757 1.04899L7.48424 1.91501L7 1.1961Z" />
<path d="M5.99999 3.98936V5.99999H15V4.01107C15.3555 4.03944 15.7405 4.14043 16.1 4.49999C16.5456 4.94558 16.5147 6.77997 16.5027 7.49327C16.5012 7.58043 16.5 7.65086 16.5 7.69996L16.2491 12H20.6C20.82 12 21.0083 12.0783 21.165 12.235C21.3216 12.3917 21.4 12.58 21.4 12.8V19.2C21.4 19.42 21.3216 19.6083 21.165 19.765C21.0083 19.9217 20.82 20 20.6 20H15.8C15.7941 20 15.7883 19.9999 15.7824 19.9998L15.6949 21.4998C15.6949 21.9507 15.4287 22.266 15.1949 22.4998C14.6949 22.9999 14.1949 22.9998 14.1949 22.9998H6.69492C6.58984 22.9997 5.9693 22.8692 5.6 22.4998C5.28119 22.181 5.19492 21.9507 5.19492 21.4998L4.6 7.69996C4.6 7.62915 4.59428 7.51725 4.58708 7.37646C4.54843 6.62075 4.46723 5.03278 4.99999 4.49999C5.47651 4.02346 5.71718 3.98127 5.99999 3.98936ZM6.3 11.1H14.8V7.69996H6.3V11.1ZM6.3 14.5H8V12.8H6.3V14.5ZM9.7 14.5H11.4V12.8H9.7V14.5ZM13.1 14.5H14.8V12.8H13.1V14.5ZM6.3 17.9H8V16.2H6.3V17.9ZM9.7 17.9H11.4V16.2H9.7V17.9ZM13.1 17.9H14.8V16.2H13.1V17.9ZM6.3 21.3H8V19.6H6.3V21.3ZM9.7 21.3H11.4V19.6H9.7V21.3ZM13.1 21.3H14.8V19.6H13.1V21.3ZM18.2 19.2H19.8V12.8H18.2V19.2Z" />
</svg>
