<?xml version="1.0" encoding="UTF-8"?>
<svg xmlns="http://www.w3.org/2000/svg" width="24" height="24" viewBox="0 0 24 24">
  <g id="icn_flat" data-name="icn flat">
    <path d="M19.75,20V4.75H11V15.81c-.97-.44-2.21-.66-3.02-.66h-.01c-1.49,0-4.47,.75-4.47,2.24v2.61h-1v1.5H21.5v-1.5h-1.75Zm-5.25-10v1.75h-1.75v-1.75h1.75Zm-1.75-1.75v-1.75h1.75v1.75h-1.75Zm1.75,5.25v1.75h-1.75v-1.75h1.75Zm0,3.5h1.75v3h-1.75v-3Zm3.5-3.5v1.75h-1.75v-1.75h1.75Zm-1.75-1.75v-1.75h1.75v1.75h-1.75Zm1.75-3.5h-1.75v-1.75h1.75v1.75ZM6.05,12.42c0-1.06,.86-1.92,1.92-1.92s1.91,.86,1.91,1.92-.86,1.92-1.91,1.92-1.92-.86-1.92-1.92Z"/>
  </g>
  <g id="border">
    <rect width="24" height="24" fill="none"/>
  </g>
</svg>