<svg viewBox="0 0 24 24" xmlns="http://www.w3.org/2000/svg">
<path d="M15.3268 4.9111C16.4068 4.9111 17.2823 4.03557 17.2823 2.95555C17.2823 1.87553 16.4068 1 15.3268 1C14.2468 1 13.3712 1.87553 13.3712 2.95555C13.3712 4.03557 14.2468 4.9111 15.3268 4.9111Z" />
<path d="M7.89552 18.999C7.89552 20.0747 7.02352 20.9467 5.94786 20.9467C4.86605 20.9467 3.9915 20.0668 4.00006 18.985C4.02768 15.4948 4.0822 8.47556 4.0822 7.45339C4.0822 6.0845 4.27775 5.49783 5.35331 5.49783L12.4911 5.49782C12.98 5.49782 12.98 6.28008 12.4911 6.28006H8.48219C7.87684 6.28005 7.88337 6.66247 7.89296 7.22438C7.89422 7.2978 7.89552 7.3743 7.89552 7.45339V18.999Z" />
<path d="M13.4443 9.6045C13.4443 9.52542 13.4456 9.44896 13.4469 9.37555C13.4564 8.81364 13.463 8.43117 12.8576 8.43117H12.0021C11.5132 8.4312 11.4951 7.64895 11.984 7.64895H15.9865C17.0621 7.64894 17.3798 8.23561 17.3798 9.6045L17.38 21.0445C17.38 21.1236 17.3786 21.2001 17.3774 21.2735C17.3678 21.8354 17.3613 22.2179 17.9666 22.2178H18.8222C19.3111 22.2178 19.3292 23.0001 18.8403 23.0001H14.8377C13.7622 23.0001 13.4444 22.4134 13.4444 21.0445L13.4443 9.6045Z" />
</svg>
