<svg xmlns="http://www.w3.org/2000/svg" viewBox="0 0 24 24">
  <path
    d="M20.07,3.4a1.74,1.74,0,0,0-1.5-.31L1.24,7.5,1.61,9l1.64-.42V20h1.5V8.15L18.94,4.54a.24.24,0,0,1,.21,0,.24.24,0,0,1,.1.2V20h1.5V4.79A1.76,1.76,0,0,0,20.07,3.4Z"
  />
  <path
    d="M16.33,10.63a.94.94,0,0,0-.89-.63H8.56a1,1,0,0,0-.89.63L6.38,14.38v5A.62.62,0,0,0,7,20h.62a.63.63,0,0,0,.63-.62v-.63h7.5v.63a.63.63,0,0,0,.63.62H17a.62.62,0,0,0,.62-.62v-5Zm-8,2.62.6-1.81h6.16l.6,1.81Zm.24,3.63a.94.94,0,1,1,.94-.94A.94.94,0,0,1,8.56,16.88Zm6.88,0a.94.94,0,1,1,.94-.94A.94.94,0,0,1,15.44,16.88Z"
  />
</svg>
