<?xml version="1.0" encoding="UTF-8"?><svg xmlns="http://www.w3.org/2000/svg" width="24" height="24" viewBox="0 0 24 24"><g id="a"><path d="M15.07,1.63c-4.27,0-7.75,3.48-7.75,7.75,0,.65,.09,1.27,.24,1.87H3.19c-.79,0-1.44,.64-1.44,1.44v8.13c0,.79,.64,1.44,1.44,1.44h13.63c.79,0,1.44-.64,1.44-1.44v-4.37c2.69-1.22,4.57-3.92,4.57-7.06,0-4.27-3.48-7.75-7.75-7.75Zm-.22,1.51c.07,0,.15-.01,.22-.01s.15,0,.22,.01c.65,.97,1.14,2.02,1.46,3.12h-3.36c.32-1.1,.81-2.15,1.46-3.12Zm-1.98,.4c-.45,.87-.8,1.78-1.04,2.72h-2.17c.72-1.24,1.85-2.21,3.21-2.72Zm.13,10.1c.97,0,1.75,.78,1.75,1.75s-.78,1.75-1.75,1.75-1.75-.78-1.75-1.75,.78-1.75,1.75-1.75Zm-6.38,5.24H3.19v-1h3.44v1Zm2.25-2H3.12v-1h5.75v1Zm0-2H3.12v-1h5.75v1Zm-.05-5.5c0-.56,.08-1.1,.22-1.62h2.51c-.07,.53-.11,1.07-.11,1.62,0,.58,.05,1.15,.12,1.71h-2.5c-.16-.54-.24-1.12-.24-1.71Zm.68,11.26c0-1.22,1-2.23,2.23-2.23h2.55c1.22,0,2.23,1,2.23,2.23h-7Zm7.57-9.55h-4c-.09-.56-.13-1.13-.13-1.71,0-.55,.04-1.09,.12-1.62h4.02c.08,.53,.12,1.07,.12,1.62,0,.58-.05,1.15-.13,1.71Zm.2-7.55c1.36,.51,2.49,1.48,3.21,2.72h-2.17c-.24-.94-.59-1.85-1.04-2.72Zm.98,11.22v-2.03s.03-.09,.04-.13h2.14c-.54,.89-1.28,1.63-2.18,2.16Zm.33-3.66c.08-.56,.12-1.13,.12-1.71,0-.55-.04-1.08-.11-1.62h2.51c.14,.52,.22,1.06,.22,1.62,0,.59-.09,1.17-.24,1.71h-2.5Z"/></g><g id="b"><rect width="24" height="24" fill="none"/><rect width="24" height="24" fill="none"/></g><g id="c"/></svg>