<svg xmlns="http://www.w3.org/2000/svg" viewBox="0 0 24 24">
<path d="M19 12V8H20C20.5523 8 21 8.44772 21 9V11C21 11.5523 20.5523 12 20 12H19Z"/>
<path d="M4 12C3.44772 12 3 11.5523 3 11L3 9C3 8.44772 3.44772 8 4 8H5L5 12H4Z"/>
<path fill-rule="evenodd" clip-rule="evenodd" d="M9 3C9 2.44772 9.44772 2 10 2H14C14.5523 2 15 2.44772 15 3V7C15.5523 7 16 6.55228 16 6V4C17.1046 4 18 4.89543 18 6V15C18 16.1046 17.1046 17 16 17H15L17 20H19C19.5523 20 20 20.4477 20 21C20 21.5523 19.5523 22 19 22H5C4.44772 22 4 21.5523 4 21C4 20.4477 4.44772 20 5 20H7L9 17H8C6.89543 17 6 16.1046 6 15V6C6 4.89543 6.89543 4 8 4V6C8 6.55228 8.44772 7 9 7V3ZM9 9V11H11V9H9ZM9 13H15V15H9V13ZM13 9V11H15V9H13Z"/>
</svg>
