<svg xmlns="http://www.w3.org/2000/svg" viewBox="0 0 24 24">
<path d="M15.315 13.4412C14.8873 13.4412 14.5258 13.2949 14.2305 13.0023C13.9352 12.7096 13.7875 12.3514 13.7875 11.9275C13.7875 11.5037 13.9352 11.1455 14.2305 10.8528C14.5258 10.5602 14.8873 10.4138 15.315 10.4138C15.7427 10.4138 16.1042 10.5602 16.3995 10.8528C16.6948 11.1455 16.8425 11.5037 16.8425 11.9275C16.8425 12.3514 16.6948 12.7096 16.3995 13.0023C16.1042 13.2949 15.7427 13.4412 15.315 13.4412ZM12.13 17V16.1787C12.13 15.8996 12.1896 15.6608 12.3088 15.4622C12.4279 15.2636 12.5958 15.1106 12.8125 15.0032C13.2133 14.7992 13.6196 14.649 14.0312 14.5523C14.4429 14.4557 14.8708 14.4074 15.315 14.4074C15.7592 14.4074 16.1871 14.453 16.5987 14.5443C17.0104 14.6355 17.4167 14.7885 17.8175 15.0032C18.0342 15.0998 18.2021 15.2501 18.3212 15.4541C18.4404 15.6581 18.5 15.8996 18.5 16.1787V17H12.13ZM10.7 11.8309C9.985 11.8309 9.4 11.6055 8.945 11.1546C8.49 10.7037 8.2625 10.124 8.2625 9.41546C8.2625 8.70692 8.49 8.12721 8.945 7.67633C9.4 7.22544 9.985 7 10.7 7C11.415 7 12 7.22544 12.455 7.67633C12.91 8.12721 13.1375 8.70692 13.1375 9.41546C13.1375 10.124 12.91 10.7037 12.455 11.1546C12 11.6055 11.415 11.8309 10.7 11.8309ZM5.5 17V15.4863C5.5 15.1213 5.59208 14.7858 5.77625 14.4799C5.96042 14.1739 6.23486 13.9404 6.59959 13.7794C7.32903 13.4573 8.02687 13.2158 8.69312 13.0548C9.35937 12.8937 10.027 12.8132 10.6959 12.8132C11.0453 12.8132 11.3554 12.8293 11.6262 12.8615C11.8971 12.8937 12.1896 12.942 12.5037 13.0064L11.675 13.8277C11.5342 13.8062 11.3825 13.7928 11.22 13.7874C11.0575 13.7821 10.8842 13.7794 10.7 13.7794C10.0865 13.7794 9.4863 13.8411 8.89927 13.9646C8.31226 14.088 7.6775 14.3162 6.995 14.649C6.84333 14.7241 6.71875 14.8422 6.62125 15.0032C6.52375 15.1643 6.475 15.3253 6.475 15.4863V16.0338H11.155V17H5.5ZM10.7 10.8647C11.1225 10.8647 11.4719 10.7279 11.7481 10.4541C12.0244 10.1804 12.1625 9.83414 12.1625 9.41546C12.1625 8.99678 12.0244 8.65056 11.7481 8.37681C11.4719 8.10306 11.1225 7.96618 10.7 7.96618C10.2775 7.96618 9.92813 8.10306 9.65188 8.37681C9.37563 8.65056 9.2375 8.99678 9.2375 9.41546C9.2375 9.83414 9.37563 10.1804 9.65188 10.4541C9.92813 10.7279 10.2775 10.8647 10.7 10.8647Z"/>
<path d="M8.25366 19.9C5.51612 18.6167 3.55714 15.9667 3.25576 12.8333H2C2.42696 17.9667 6.73838 22 12.0042 22L12.5567 21.975L9.3671 18.8L8.25366 19.9ZM12.0042 2L11.4517 2.025L14.6413 5.2L15.7547 4.09167C18.4923 5.38333 20.4512 8.025 20.7442 11.1583H22C21.5814 6.03333 17.27 2 12.0042 2Z"/>
</svg>
