<svg viewBox="0 0 24 24" xmlns="http://www.w3.org/2000/svg">
  <path
    fill-rule="evenodd"
    clip-rule="evenodd"
    d="M18 10C18 11.6671 17.4901 13.215 16.6178 14.4964L20.5607 18.4393C21.1464 19.0251 21.1464 19.9749 20.5607 20.5607C19.9749 21.1464 19.0251 21.1464 18.4393 20.5607L14.4964 16.6178C13.215 17.4901 11.6671 18 10 18C5.58172 18 2 14.4183 2 10C2 5.58172 5.58172 2 10 2C14.4183 2 18 5.58172 18 10ZM8 5H5V6H6V14H5V15H8V14H7V8L9 15H10L12 8V14H11V15H15V14H14V6H15V5H12L10 12L8 5Z"
  />
</svg>
