<svg viewBox="0 0 24 24" xmlns="http://www.w3.org/2000/svg">
<path d="M14.4733 11.4625C13.7908 11.165 12.9508 10.9375 12 10.9375C11.0492 10.9375 10.2092 11.165 9.52667 11.4683C8.89667 11.7425 8.5 12.3725 8.5 13.0608V14H15.5V13.055C15.5 12.3725 15.1033 11.7425 14.4733 11.4625Z"/>
<path d="M8.5 9.91667C8.5 10.5583 7.975 11.0833 7.33333 11.0833C6.69167 11.0833 6.16667 10.5583 6.16667 9.91667C6.16667 9.275 6.69167 8.75 7.33333 8.75C7.975 8.75 8.5 9.275 8.5 9.91667Z"/>
<path d="M7.33333 11.6667C7.56083 11.6667 7.77667 11.69 7.9925 11.725C7.75917 12.1217 7.625 12.5767 7.625 13.0608V14H5V13.0842C5 12.6117 5.28 12.1917 5.71167 12.005C6.2075 11.7892 6.75583 11.6667 7.33333 11.6667Z"/>
<path d="M17.8333 9.91667C17.8333 10.5583 17.3083 11.0833 16.6667 11.0833C16.025 11.0833 15.5 10.5583 15.5 9.91667C15.5 9.275 16.025 8.75 16.6667 8.75C17.3083 8.75 17.8333 9.275 17.8333 9.91667Z"/>
<path d="M18.2883 12.005C18.72 12.1917 19 12.6117 19 13.0842V14H16.375V13.0608C16.375 12.5767 16.2408 12.1217 16.0075 11.725C16.2233 11.69 16.4392 11.6667 16.6667 11.6667C17.2442 11.6667 17.7925 11.7892 18.2883 12.005Z"/>
<path d="M13.75 8.75C13.75 7.78167 12.9683 7 12 7C11.0317 7 10.25 7.78167 10.25 8.75C10.25 9.71833 11.0317 10.5 12 10.5C12.9683 10.5 13.75 9.71833 13.75 8.75Z"/>
<path d="M22 16.5C22 17.7375 21.1 18.75 20 18.75H24V21H0V18.75H4C2.9 18.75 2 17.7375 2 16.5V5.25C2 4.0125 2.9 3 4 3H20C21.1 3 22 4.0125 22 5.25V16.5ZM20 5.25H4V16.5H20V5.25Z"/>
</svg>
