<?xml version="1.0" encoding="UTF-8"?>
<svg id="mgg-icone" xmlns="http://www.w3.org/2000/svg" width="24" height="24" viewBox="0 0 24 24">
  <rect width="24" height="24" fill="none"/>
  <path d="M12.74,12.48H6.97v-1h5.78c.27,0,.5,.22,.5,.5s-.22,.5-.5,.5Zm7.63-.56c0-.27-.02-.54-.06-.81l1.93-1.66-2.2-3.71-2.42,.76c-.25-.19-.51-.35-.77-.47-.2-.09-.42-.19-.65-.28l-.5-2.57H6.97V7.57s6.25,0,6.25,0c2.46,0,4.46,2,4.46,4.46s-2,4.46-4.46,4.46H6.96s0,4.21,0,4.21H15.72l.5-2.57c.25-.11,.48-.22,.7-.34,.23-.12,.45-.26,.68-.41l2.45,.77,2.2-3.7-1.94-1.67c.04-.29,.06-.57,.06-.85Zm-4.19,.1c0-1.63-1.33-2.96-2.96-2.96H6.97v.92s5.78,0,5.78,0c1.1,0,2,.9,2,2s-.9,2-2,2H6.96v1s6.26,0,6.26,0c1.63,0,2.96-1.33,2.96-2.96Zm-11.75,1.95h2.53v-1.5h-2.53v1.5Zm2.53,1h-1.74c-.96,0-1.75-.78-1.75-1.75s.78-1.75,1.75-1.75h1.74v-1.5h-1.74c-1.79,0-3.25,1.46-3.25,3.25s1.46,3.25,3.25,3.25h1.74s0-1.5,0-1.5Zm0-7.41h-2.53v1.5h2.53v-1.5Z"/>
</svg>