<?xml version="1.0" encoding="UTF-8"?><svg xmlns="http://www.w3.org/2000/svg" width="24" height="24" viewBox="0 0 24 24"><g id="a"/><g id="b"><path d="M20.5,22h-2.5v-.5c0-.28-.22-.5-.5-.5s-.5,.22-.5,.5v.5h-2.67v-.5c0-.28-.22-.5-.5-.5s-.5,.22-.5,.5v.5h-2.67v-.5c0-.28-.22-.5-.5-.5s-.5,.22-.5,.5v.5h-2.67v-.5c0-.28-.22-.5-.5-.5s-.5,.22-.5,.5v.5H3.5v-2.5h.5c.28,0,.5-.22,.5-.5s-.22-.5-.5-.5h-.5v-2.5h.5c.28,0,.5-.22,.5-.5s-.22-.5-.5-.5h-.5v-2.5h.5c.28,0,.5-.22,.5-.5s-.22-.5-.5-.5h-.5v-2.5h.5c.28,0,.5-.22,.5-.5s-.22-.5-.5-.5h-.5v-2.5h.5c.28,0,.5-.22,.5-.5s-.22-.5-.5-.5h-.5V2h2.5v.5c0,.28,.22,.5,.5,.5s.5-.22,.5-.5v-.5h2.67v.5c0,.28,.22,.5,.5,.5s.5-.22,.5-.5v-.5h2.67v.5c0,.28,.22,.5,.5,.5s.5-.22,.5-.5v-.5h2.67v.5c0,.28,.22,.5,.5,.5s.5-.22,.5-.5v-.5h2.5v2.5h-.5c-.28,0-.5,.22-.5,.5s.22,.5,.5,.5h.5v2.5h-.5c-.28,0-.5,.22-.5,.5s.22,.5,.5,.5h.5v2.5h-.5c-.28,0-.5,.22-.5,.5s.22,.5,.5,.5h.5v2.5h-.5c-.28,0-.5,.22-.5,.5s.22,.5,.5,.5h.5v2.5h-.5c-.28,0-.5,.22-.5,.5s.22,.5,.5,.5h.5v2.5Zm-1.59-1h.59v-.59c-.58-.21-1-.76-1-1.41s.42-1.21,1-1.41v-.67c-.58-.21-1-.76-1-1.41s.42-1.21,1-1.41v-.67c-.58-.21-1-.76-1-1.41s.42-1.21,1-1.41v-.67c-.58-.21-1-.76-1-1.41s.42-1.21,1-1.41v-.67c-.58-.21-1-.76-1-1.41s.42-1.21,1-1.41v-.59h-.59c-.21,.58-.76,1-1.41,1s-1.21-.42-1.41-1h-.84c-.21,.58-.76,1-1.41,1s-1.21-.42-1.41-1h-.84c-.21,.58-.76,1-1.41,1s-1.21-.42-1.41-1h-.84c-.21,.58-.76,1-1.41,1s-1.21-.42-1.41-1h-.59v.59c.58,.21,1,.76,1,1.41s-.42,1.21-1,1.41v.67c.58,.21,1,.76,1,1.41s-.42,1.21-1,1.41v.67c.58,.21,1,.76,1,1.41s-.42,1.21-1,1.41v.67c.58,.21,1,.76,1,1.41s-.42,1.21-1,1.41v.67c.58,.21,1,.76,1,1.41s-.42,1.21-1,1.41v.59h.59c.21-.58,.76-1,1.41-1s1.21,.42,1.41,1h.84c.21-.58,.76-1,1.41-1s1.21,.42,1.41,1h.84c.21-.58,.76-1,1.41-1s1.21,.42,1.41,1h.84c.21-.58,.76-1,1.41-1s1.21,.42,1.41,1Zm-1.91-15.5H7v13h10V5.5Z"/></g><g id="c"/><g id="d"><rect width="24" height="24" fill="none"/></g></svg>