<svg viewBox="0 0 24 24" xmlns="http://www.w3.org/2000/svg">
  <path
    d="M11.9999 2V4.5C13.9891 4.5 15.8967 5.29018 17.3032 6.6967C18.7098 8.10322 19.4999 10.0109 19.4999 12C19.4999 13.9891 18.7098 15.8968 17.3032 17.3033C15.8967 18.7098 13.9891 19.5 11.9999 19.5C10.0108 19.5 8.10322 18.7098 6.6967 17.3033C5.29018 15.8968 4.5 13.9891 4.5 12H2C2 14.6522 3.05357 17.1957 4.92893 19.0711C6.8043 20.9464 9.34784 22 12 22C14.6522 22 17.1956 20.9464 19.071 19.0711C20.9464 17.1957 21.9999 14.6522 21.9999 12C21.9999 9.34783 20.9464 6.8043 19.071 4.92893C17.1956 3.05357 14.6521 2 11.9999 2Z"
  />
  <path
    d="M5.58153 8.25112C5.92671 7.65325 5.72187 6.88876 5.124 6.54358C4.52614 6.19841 3.76165 6.40325 3.41647 7.00112C3.07129 7.59898 3.27614 8.36347 3.874 8.70865C4.47187 9.05383 5.23635 8.84898 5.58153 8.25112Z"
  />
  <path
    d="M8.24903 5.58458C8.8469 5.2394 9.05174 4.47492 8.70656 3.87705C8.36139 3.27918 7.5969 3.07434 6.99903 3.41952C6.40117 3.7647 6.19632 4.52918 6.5415 5.12705C6.88668 5.72492 7.65117 5.92976 8.24903 5.58458Z"
  />
  <path d="M16.59 7L10 13.59L7.41 11.01L6 12.42L10 16.42L18 8.42L16.59 7Z" />
</svg>
