<svg width="24" height="24" viewBox="0 0 24 24" fill="none" xmlns="http://www.w3.org/2000/svg">
<path d="M12 2V4.5C13.9891 4.5 15.8968 5.29018 17.3033 6.6967C18.7098 8.10322 19.5 10.0109 19.5 12H22C22 9.34783 20.9464 6.8043 19.0711 4.92893C17.1957 3.05357 14.6522 2 12 2Z" fill="black"/>
<path d="M3.25 13.25C3.94036 13.25 4.5 12.6903 4.5 12C4.5 11.3096 3.94036 10.75 3.25 10.75C2.55964 10.75 2 11.3096 2 12C2 12.6903 2.55964 13.25 3.25 13.25Z" fill="black"/>
<path d="M5.58153 8.25112C5.92671 7.65325 5.72187 6.88876 5.124 6.54358C4.52614 6.19841 3.76165 6.40325 3.41647 7.00112C3.07129 7.59898 3.27614 8.36347 3.874 8.70865C4.47187 9.05383 5.23635 8.84898 5.58153 8.25112Z" fill="black"/>
<path d="M8.24903 5.58458C8.8469 5.2394 9.05174 4.47492 8.70656 3.87705C8.36139 3.27918 7.5969 3.07434 6.99903 3.41952C6.40117 3.7647 6.19632 4.52918 6.5415 5.12705C6.88668 5.72492 7.65117 5.92976 8.24903 5.58458Z" fill="black"/>
<path d="M20.5812 16.9981C20.9263 16.4002 20.7215 15.6357 20.1236 15.2905C19.5258 14.9453 18.7613 15.1502 18.4161 15.7481C18.0709 16.3459 18.2758 17.1104 18.8736 17.4556C19.4715 17.8008 20.236 17.5959 20.5812 16.9981Z" fill="black"/>
<path d="M17.0017 20.5813C17.5996 20.2361 17.8044 19.4716 17.4593 18.8737C17.1141 18.2759 16.3496 18.071 15.7517 18.4162C15.1539 18.7614 14.949 19.5259 15.2942 20.1237C15.6394 20.7216 16.4039 20.9265 17.0017 20.5813Z" fill="black"/>
<path d="M12 21.9999C12.6903 21.9999 13.25 21.4403 13.25 20.7499C13.25 20.0596 12.6903 19.4999 12 19.4999C11.3096 19.4999 10.75 20.0596 10.75 20.7499C10.75 21.4403 11.3096 21.9999 12 21.9999Z" fill="black"/>
<path d="M8.70625 20.1229C9.05143 19.5251 8.84658 18.7606 8.24872 18.4154C7.65085 18.0702 6.88636 18.2751 6.54118 18.8729C6.19601 19.4708 6.40085 20.2353 6.99872 20.5805C7.59658 20.9256 8.36107 20.7208 8.70625 20.1229Z" fill="black"/>
<path d="M5.1271 17.4562C5.72497 17.1111 5.92981 16.3466 5.58463 15.7487C5.23945 15.1508 4.47497 14.946 3.8771 15.2912C3.27924 15.6363 3.07439 16.4008 3.41957 16.9987C3.76475 17.5966 4.52924 17.8014 5.1271 17.4562Z" fill="black"/>
<path d="M16.59 7L10 13.59L7.41 11.01L6 12.42L10 16.42L18 8.42L16.59 7Z" fill="black"/>
</svg>
