<svg viewBox="0 0 24 24" xmlns="http://www.w3.org/2000/svg">
  <path
    d="M12 2.00012V4.50012C13.9891 4.50012 15.8968 5.2903 17.3033 6.69682C18.7098 8.10334 19.5 10.011 19.5 12.0001H22C22 9.34796 20.9464 6.80442 19.0711 4.92905C17.1957 3.05369 14.6522 2.00012 12 2.00012Z"
  />
  <path
    d="M2 12.0001H4.5C4.5 10.011 5.29018 8.10332 6.6967 6.6968C8.10322 5.29027 10.0109 4.50012 12 4.50012V2.00012C9.34783 2.00012 6.8043 3.05367 4.92893 4.92903C3.05357 6.80439 2 9.34793 2 12.0001Z"
  />
  <path
    d="M22 12.0001H19.5C19.5 13.9892 18.7098 15.8969 17.3033 17.3034C15.8968 18.7099 13.9891 19.5001 12 19.5001V22.0001C14.6522 22.0001 17.1957 20.9465 19.0711 19.0712C20.9464 17.1958 22 14.6523 22 12.0001Z"
  />
  <path
    d="M12 22.0001V19.5001C10.0109 19.5001 8.10328 18.7099 6.69676 17.3034C5.29024 15.8969 4.5 13.9892 4.5 12.0001H2C2 14.6523 3.05363 17.1958 4.92899 19.0712C6.80436 20.9466 9.34784 22.0001 12 22.0001Z"
  />
  <path d="M16.59 7L10 13.59L7.41 11.01L6 12.42L10 16.42L18 8.42L16.59 7Z" />
</svg>
