<svg width="24" height="24" viewBox="0 0 24 24" fill="none" xmlns="http://www.w3.org/2000/svg">
<path d="M12 2V4.5C13.9891 4.5 15.8968 5.29018 17.3033 6.6967C18.7098 8.10322 19.5 10.0109 19.5 12H22C22 9.34783 20.9464 6.8043 19.0711 4.92893C17.1957 3.05357 14.6522 2 12 2Z" fill="black"/>
<path d="M22 12H19.5C19.5 13.9891 18.7098 15.8968 17.3033 17.3033C15.8968 18.7098 13.9891 19.5 12 19.5V22C14.6522 22 17.1957 20.9464 19.0711 19.0711C20.9464 17.1957 22 14.6522 22 12Z" fill="black"/>
<path d="M3.25 13.25C3.94036 13.25 4.5 12.6903 4.5 12C4.5 11.3096 3.94036 10.75 3.25 10.75C2.55964 10.75 2 11.3096 2 12C2 12.6903 2.55964 13.25 3.25 13.25Z" fill="black"/>
<path d="M5.58153 8.25112C5.92671 7.65325 5.72187 6.88876 5.124 6.54358C4.52614 6.19841 3.76165 6.40325 3.41647 7.00112C3.07129 7.59898 3.27614 8.36347 3.874 8.70865C4.47187 9.05383 5.23635 8.84898 5.58153 8.25112Z" fill="black"/>
<path d="M8.24903 5.58458C8.8469 5.2394 9.05174 4.47492 8.70656 3.87705C8.36139 3.27918 7.5969 3.07434 6.99903 3.41952C6.40117 3.7647 6.19632 4.52918 6.5415 5.12705C6.88668 5.72492 7.65117 5.92976 8.24903 5.58458Z" fill="black"/>
<path d="M8.70625 20.1229C9.05143 19.5251 8.84658 18.7606 8.24872 18.4154C7.65085 18.0702 6.88636 18.2751 6.54118 18.8729C6.19601 19.4708 6.40085 20.2353 6.99872 20.5805C7.59658 20.9256 8.36107 20.7208 8.70625 20.1229Z" fill="black"/>
<path d="M5.1271 17.4562C5.72497 17.1111 5.92981 16.3466 5.58463 15.7487C5.23945 15.1508 4.47497 14.946 3.8771 15.2912C3.27924 15.6363 3.07439 16.4008 3.41957 16.9987C3.76475 17.5966 4.52924 17.8014 5.1271 17.4562Z" fill="black"/>
<path d="M16.59 7L10 13.59L7.41 11.01L6 12.42L10 16.42L18 8.42L16.59 7Z" fill="black"/>
</svg>
