<?xml version="1.0" encoding="UTF-8"?>
<svg xmlns="http://www.w3.org/2000/svg" width="24" height="24" viewBox="0 0 24 24">
  <g id="icn_flat" data-name="icn flat">
    <path d="M1.5,5.6H21.95v1H2.5v5h3.69v-3.03h1v3.03h3.69v-3.03h1v3.03h3.69v-3.03h1v3.03h3.69v-3.03h1v3.03h.68v1H1.5V5.6Zm0,11.24v4.55H21.95v-1h-.68v-3.55h-1v3.55h-3.69v-3.55h-1v3.55h-3.69v-3.55h-1v3.55h-3.69v-3.55h-1v3.55H2.5v-5H21.95v-1H1.5v2.45Zm3.36-5.66v-3.92h-.08l-1.53,.56v.55l.96-.33v3.14h.65Zm4.22-3.96c.43,0,.75,.14,.96,.41,.21,.27,.32,.68,.32,1.23v.68c0,.56-.11,.99-.32,1.27-.21,.29-.53,.43-.96,.43s-.74-.14-.95-.42-.32-.69-.33-1.24v-.68c0-.56,.1-.98,.32-1.26,.21-.28,.53-.42,.96-.42Zm.48,.78c-.1-.17-.26-.26-.48-.26s-.37,.08-.47,.24c-.1,.16-.15,.42-.16,.76v.89c0,.37,.05,.64,.15,.82,.1,.18,.26,.27,.48,.27s.36-.08,.46-.25c.1-.17,.15-.42,.16-.78v-.88c0-.37-.05-.64-.15-.81Zm4.74,3.18v-3.92h-.08l-1.53,.56v.55l.96-.33v3.14h.65Zm4.22-3.96c.43,0,.75,.14,.96,.41,.21,.27,.32,.68,.32,1.23v.68c0,.56-.11,.99-.32,1.27-.21,.29-.53,.43-.96,.43s-.74-.14-.95-.42-.32-.69-.33-1.24v-.68c0-.56,.1-.98,.32-1.26,.21-.28,.53-.42,.96-.42Zm.48,.78c-.1-.17-.26-.26-.48-.26s-.37,.08-.47,.24c-.1,.16-.15,.42-.16,.76v.89c0,.37,.05,.64,.15,.82,.1,.18,.26,.27,.48,.27s.36-.08,.46-.25c.1-.17,.15-.42,.16-.78v-.88c0-.37-.05-.64-.15-.81ZM4.36,16.06c.43,0,.75,.14,.96,.41,.21,.27,.32,.68,.32,1.23v.68c0,.56-.11,.99-.32,1.27-.21,.29-.53,.43-.96,.43s-.74-.14-.95-.42-.32-.69-.33-1.24v-.68c0-.56,.1-.98,.32-1.26,.21-.28,.53-.42,.96-.42Zm.48,.78c-.1-.17-.26-.26-.48-.26s-.37,.08-.47,.24c-.1,.16-.15,.42-.16,.76v.89c0,.37,.05,.64,.15,.82,.1,.18,.26,.27,.48,.27s.36-.08,.46-.25c.1-.17,.15-.42,.16-.78v-.88c0-.37-.05-.64-.15-.81Zm4.74,3.18v-3.92h-.08l-1.53,.56v.55l.96-.33v3.14h.65Zm4.22-3.96c.43,0,.75,.14,.96,.41,.21,.27,.32,.68,.32,1.23v.68c0,.56-.11,.99-.32,1.27-.21,.29-.53,.43-.96,.43s-.74-.14-.95-.42-.32-.69-.33-1.24v-.68c0-.56,.1-.98,.32-1.26,.21-.28,.53-.42,.96-.42Zm.48,.78c-.1-.17-.26-.26-.48-.26s-.37,.08-.47,.24c-.1,.16-.15,.42-.16,.76v.89c0,.37,.05,.64,.15,.82,.1,.18,.26,.27,.48,.27s.36-.08,.46-.25c.1-.17,.15-.42,.16-.78v-.88c0-.37-.05-.64-.15-.81Zm4.74,3.18v-3.92h-.08l-1.53,.56v.55l.96-.33v3.14h.65ZM3.62,2.5v1H21.95v-1H3.62Z"/>
  </g>
  <g id="border">
    <rect width="24" height="24" fill="none"/>
    <rect width="24" height="24" fill="none"/>
  </g>
</svg>