<svg xmlns="http://www.w3.org/2000/svg" viewBox="0 0 24 24">
<path d="M17.4384 4.52964C17.4384 4.90909 17.5743 5.23057 17.846 5.49407C18.1178 5.75758 18.4493 5.88933 18.8406 5.88933C19.2319 5.88933 19.5634 5.75758 19.8351 5.49407C20.1069 5.23057 20.2428 4.90909 20.2428 4.52964C20.2428 4.1502 20.1069 3.82872 19.8351 3.56522C19.5634 3.30171 19.2319 3.16996 18.8406 3.16996C18.4493 3.16996 18.1178 3.30171 17.846 3.56522C17.5743 3.82872 17.4384 4.1502 17.4384 4.52964ZM16.2319 4.52964C16.2319 3.82697 16.4855 3.22969 16.9928 2.73781C17.5 2.24594 18.1159 2 18.8406 2C19.5652 2 20.1812 2.24594 20.6884 2.73781C21.1957 3.22969 21.4493 3.82697 21.4493 4.52964C21.4493 5.12692 21.2808 5.62758 20.9438 6.03162C20.6069 6.43566 20.1775 6.71849 19.6558 6.88011V10.5059L18.8623 11.2754L17.2754 9.93676L18.1884 8.85112L17.2754 7.96574L18.0471 7.21739V6.88011C17.5036 6.7466 17.0652 6.46377 16.7319 6.03162C16.3986 5.59947 16.2319 5.09881 16.2319 4.52964Z"/>
<path d="M18.0286 20L20.0286 22L21.0433 20.9853L3.01473 2.95669L2 3.97142L10.5113 12.4828C9.61227 12.5276 8.72202 12.6517 7.84058 12.8551C6.71014 13.1159 5.42029 13.5652 3.97101 14.2029C3.33333 14.4734 2.84541 14.8841 2.50725 15.4348C2.16908 15.9855 2 16.599 2 17.2754V20H18.0286Z"/>
<path d="M14.8677 12.8963L20.5507 18.5793V17.2754C20.5507 16.599 20.3768 15.9903 20.029 15.4493C19.6812 14.9082 19.1884 14.4928 18.5507 14.2029C17.1751 13.5976 15.9474 13.1621 14.8677 12.8963Z"/>
<path d="M7.07437 5.10295L12.5202 10.5488C13.2475 10.3648 13.8761 10.008 14.4058 9.47826C15.2174 8.66667 15.6232 7.62319 15.6232 6.34783C15.6232 5.07246 15.2174 4.02899 14.4058 3.21739C13.5942 2.4058 12.5507 2 11.2754 2C10 2 8.95652 2.4058 8.14493 3.21739C7.6152 3.74712 7.25834 4.37564 7.07437 5.10295Z"/>
</svg>
