<svg viewBox="0 0 24 24" xmlns="http://www.w3.org/2000/svg">
<path d="M21.2266 15.8564L15.083 22H13V19.917L19.1436 13.7734L21.2266 15.8564Z" />
<path d="M16.4287 3C17.8429 3.00008 18.9999 4.15711 19 5.57129V11.2861C18.2331 11.555 17.7566 12.1696 17.5381 12.3369L14.0176 15.8574H13.8574V16.0176L11.0381 18.8369L11.0068 21H3.57129C2.15711 20.9999 1.00008 19.8429 1 18.4287V5.57129C1.00008 4.15711 2.15711 3.00008 3.57129 3H16.4287ZM3.57129 18.4287H6.14258V15.8574H3.57129V18.4287ZM8.71387 18.4287H11.2861V15.8574H8.71387V18.4287ZM3.57129 13.2861H6.14258V10.7139H3.57129V13.2861ZM8.71387 13.2861H11.2861V10.7139H8.71387V13.2861ZM13.8574 13.2861H16.4287V10.7139H13.8574V13.2861ZM3.57129 8.14258H16.4287V5.57129H3.57129V8.14258Z" />
<path d="M20.7549 12.1621C20.9715 11.9459 21.3216 11.9456 21.5381 12.1621L22.8379 13.4619C23.0544 13.6784 23.0541 14.0285 22.8379 14.2451L21.8213 15.2617L19.7383 13.1787L20.7549 12.1621Z" />
</svg>
