<svg xmlns="http://www.w3.org/2000/svg" width="24" height="24" viewBox="0 0 24 24"><rect width="24" height="24" fill="none"/><path d="M21.5,18.29a3.54,3.54,0,1,0-7.07,0,1.49,1.49,0,0,0,0,.21H13.5V12.92a5.25,5.25,0,1,0-1.5,0V18.5H6.75V17.41a3.5,3.5,0,1,0-1.5,0V18.5H2.5V20h19V18.5h0A1.62,1.62,0,0,0,21.5,18.29ZM9,7.75a3.75,3.75,0,1,1,4.5,3.67V9.21L15.6,7.1l-.7-.7L13.5,7.79v-2H12V9L10.6,7.65l-.7.7L12,10.46v1A3.74,3.74,0,0,1,9,7.75ZM4,14a2,2,0,1,1,2,2A2,2,0,0,1,4,14Zm11.94,4.5a1.48,1.48,0,0,1,0-.21,2,2,0,1,1,4.07,0,1.55,1.55,0,0,1,0,.21Z"/></svg>