<svg width="24" height="24" viewBox="0 0 24 24" fill="none" xmlns="http://www.w3.org/2000/svg">
<path d="M14.4246 16.5477C14.4725 16.8349 14.3928 17.1286 14.2064 17.3523L12.7682 19.0781C12.3684 19.5579 11.6316 19.5579 11.2318 19.0781L9.79356 17.3523C9.60718 17.1286 9.52752 16.8349 9.57539 16.5477L11 8H13L14.4246 16.5477Z" fill="black"/>
<path d="M9.93381 3.15682L11 6H13L14.0662 3.15682C13.4079 3.05639 12.7181 3 12 3C11.2819 3 10.5921 3.05639 9.93381 3.15682Z" fill="black"/>
<path d="M7.96602 3.60542C7.10073 3.86946 6.31175 4.20077 5.61 4.56C4.61 5.07 4 6.1 4 7.22V18H6V7.22C6 6.84 6.2 6.5 6.52 6.34C7.08316 6.05132 7.80981 5.73577 8.67027 5.48343L7.96602 3.60542Z" fill="black"/>
<path d="M15.3297 5.48342L16.034 3.60542C16.8993 3.86946 17.6882 4.20077 18.39 4.56C19.39 5.07 20 6.1 20 7.22V18H18V7.22C18 6.84 17.8 6.5 17.48 6.34C16.9168 6.05132 16.1902 5.73576 15.3297 5.48342Z" fill="black"/>
</svg>
