<svg viewBox="0 0 24 24" xmlns="http://www.w3.org/2000/svg">
<path d="M21.4778 4.48958C21.1296 4.16319 20.7111 4 20.2222 4H7.77778C7.28889 4 6.87037 4.16319 6.52222 4.48958C6.17407 4.81597 6 5.20833 6 5.66667V9.97428C5.03538 10.0557 4.18816 10.2598 3.45833 10.5865C2.48611 11.0217 2 11.5448 2 12.1559C2 12.767 2.48611 13.2902 3.45833 13.7254C4.43056 14.1606 5.61111 14.3781 7 14.3781C8.38889 14.3781 9.56944 14.1606 10.5417 13.7254C11.5139 13.2902 12 12.767 12 12.1559C12 11.5448 11.5139 11.0217 10.5417 10.5865C9.75631 10.2349 8.83502 10.0254 7.77778 9.95782V7.33333C8.26666 7.33333 8.68518 7.17014 9.03333 6.84375C9.38148 6.51736 9.55555 6.125 9.55555 5.66667H18.4444C18.4444 6.125 18.6185 6.51736 18.9667 6.84375C19.3148 7.17014 19.7333 7.33333 20.2222 7.33333V10.6667C19.7333 10.6667 19.3148 10.8299 18.9667 11.1562C18.6185 11.4826 18.4444 11.875 18.4444 12.3333H12V13.5448C12 13.9522 11.8102 14.2971 11.4306 14.5795C11.0509 14.8619 10.5972 15.0911 10.0694 15.267C9.54167 15.443 8.99306 15.5703 8.42361 15.649C7.85417 15.7277 7.37963 15.767 7 15.767C6.62037 15.767 6.14583 15.7277 5.57639 15.649C5.00694 15.5703 4.45833 15.443 3.93056 15.267C3.40278 15.0911 2.94907 14.8619 2.56944 14.5795C2.18981 14.2971 2 13.9522 2 13.5448V14.9337C2 15.3411 2.18981 15.686 2.56944 15.9684C2.94907 16.2508 3.40278 16.48 3.93056 16.6559C4.45833 16.8318 5.00694 16.9592 5.57639 17.0379C6.14583 17.1166 6.62037 17.1559 7 17.1559C7.37963 17.1559 7.85417 17.1166 8.42361 17.0379C8.99306 16.9592 9.54167 16.8318 10.0694 16.6559C10.5972 16.48 11.0509 16.2508 11.4306 15.9684C11.8102 15.686 12 15.3411 12 14.9337V14H20.2222C20.7111 14 21.1296 13.8368 21.4778 13.5104C21.8259 13.184 22 12.7917 22 12.3333V5.66667C22 5.20833 21.8259 4.81597 21.4778 4.48958Z" />
<path d="M15.8889 7.22917C15.3704 6.74306 14.7407 6.5 14 6.5C13.2593 6.5 12.6296 6.74306 12.1111 7.22917C11.5926 7.71528 11.3333 8.30556 11.3333 9C11.3333 9.69444 11.5926 10.2847 12.1111 10.7708C12.6296 11.2569 13.2593 11.5 14 11.5C14.7407 11.5 15.3704 11.2569 15.8889 10.7708C16.4074 10.2847 16.6667 9.69444 16.6667 9C16.6667 8.30556 16.4074 7.71528 15.8889 7.22917Z" />
<path d="M8.42361 18.4268C7.85417 18.5055 7.37963 18.5448 7 18.5448C6.62037 18.5448 6.14583 18.5055 5.57639 18.4268C5.00694 18.3481 4.45833 18.2207 3.93056 18.0448C3.40278 17.8689 2.94907 17.6397 2.56944 17.3573C2.18981 17.0749 2 16.73 2 16.3226V17.7115C2 18.1189 2.18981 18.4638 2.56944 18.7462C2.94907 19.0286 3.40278 19.2578 3.93056 19.4337C4.45833 19.6096 5.00694 19.7369 5.57639 19.8156C6.14583 19.8943 6.62037 19.9337 7 19.9337C7.37963 19.9337 7.85417 19.8943 8.42361 19.8156C8.99306 19.7369 9.54167 19.6096 10.0694 19.4337C10.5972 19.2578 11.0509 19.0286 11.4306 18.7462C11.8102 18.4638 12 18.1189 12 17.7115V16.3226C12 16.73 11.8102 17.0749 11.4306 17.3573C11.0509 17.6397 10.5972 17.8689 10.0694 18.0448C9.54167 18.2207 8.99306 18.3481 8.42361 18.4268Z" />
</svg>
