<svg viewBox="0 0 24 24" xmlns="http://www.w3.org/2000/svg">
<path d="M12 10C13.6569 10 15 8.65685 15 7C15 6.74109 14.9672 6.48983 14.9055 6.25017C15.584 6.96685 16 7.93462 16 9C16 11.21 14.21 13 12 13C9.79 13 8 11.21 8 9C8 7.93462 8.41598 6.96685 9.09447 6.25016C9.0328 6.48983 9 6.74108 9 7C9 8.65685 10.3431 10 12 10Z" />
<path d="M4 19C4 16.34 9.33 15 12 15C14.67 15 20 16.34 20 19V21H4V19Z" />
<path d="M12 11L8.18182 8.88889V5.55556L6 4.33333L12 1L18 4.33333V8.77778H16.9091V4.94444L15.8182 5.55556V8.88889L12 11ZM12 6.38889L15.7364 4.33333L12 2.27778L8.26364 4.33333L12 6.38889ZM12 9.73611L14.7273 8.23611V6.13889L12 7.66667L9.27273 6.13889V8.23611L12 9.73611Z" />
</svg>
