<svg viewBox="0 0 24 24" xmlns="http://www.w3.org/2000/svg">
<path d="M14 8C14 10.21 12.21 12 10 12C7.79 12 6 10.21 6 8C6 5.79 7.79 4 10 4C12.21 4 14 5.79 14 8Z" />
<path d="M2 18C2 15.34 7.33 14 10 14C10.8195 14 11.8895 14.1262 12.9791 14.3781C12.3692 15.0802 12 15.997 12 17C12 18.1947 12.5238 19.2671 13.3542 20H2V18Z" />
<path d="M18 20C18 19.4477 18.4477 19 19 19H21C21.5523 19 22 19.4477 22 20H18Z" />
<path d="M18.6723 14.2862C18.7671 14.162 18.9435 14.1396 19.0662 14.2363C19.189 14.333 19.2117 14.512 19.1169 14.6363L14.6162 20.5345C14.5214 20.6587 14.345 20.681 14.2223 20.5843C14.0995 20.4877 14.0768 20.3086 14.1716 20.1844L18.6723 14.2862Z" />
<path d="M17.3829 13.4117L20.2399 15.6614L18.8615 17.468L16.0045 15.2183L17.3829 13.4117Z" />
<path d="M17.5579 13.159C17.6249 13.0712 17.7496 13.0554 17.8364 13.1237L18.011 13.2612C18.0978 13.3296 18.1139 13.4562 18.0468 13.544L16.2839 15.8545C16.2169 15.9423 16.0922 15.9581 16.0054 15.8898L15.8308 15.7523C15.744 15.6839 15.728 15.5574 15.795 15.4695L17.5579 13.159Z" />
<path d="M20.0555 15.1202C20.1225 15.0324 20.2472 15.0166 20.334 15.085L20.5086 15.2225C20.5954 15.2908 20.6114 15.4174 20.5444 15.5052L18.7792 17.8188C18.7121 17.9066 18.5875 17.9224 18.5007 17.854L18.3261 17.7165C18.2393 17.6482 18.2232 17.5216 18.2902 17.4338L20.0555 15.1202Z" />
</svg>
