<svg viewBox="0 0 24 24" xmlns="http://www.w3.org/2000/svg">
<circle cx="11.8201" cy="7.95473" r="3" />
<path fill-rule="evenodd" clip-rule="evenodd" d="M13.0817 2.23501C12.7109 0.977133 10.9292 0.977133 10.5585 2.23501C10.3216 3.03875 9.40357 3.419 8.66773 3.01819C7.51611 2.3909 6.25626 3.65075 6.88355 4.80237C7.28437 5.5382 6.90411 6.45622 6.10038 6.69312C4.8425 7.06388 4.8425 8.84557 6.10038 9.21633C6.90411 9.45323 7.28437 10.3712 6.88355 11.1071C6.25626 12.2587 7.51611 13.5186 8.66773 12.8913C9.40357 12.4904 10.3216 12.8707 10.5585 13.6744C10.9292 14.9323 12.7109 14.9323 13.0817 13.6744C13.3186 12.8707 14.2366 12.4904 14.9724 12.8913C16.1241 13.5186 17.3839 12.2587 16.7566 11.1071C16.3558 10.3712 16.7361 9.45323 17.5398 9.21633C18.7977 8.84557 18.7977 7.06388 17.5398 6.69312C16.7361 6.45622 16.3558 5.5382 16.7566 4.80237C17.3839 3.65075 16.1241 2.3909 14.9724 3.01819C14.2366 3.419 13.3186 3.03875 13.0817 2.23501ZM11.8201 11.9547C14.0292 11.9547 15.8201 10.1639 15.8201 7.95473C15.8201 5.74559 14.0292 3.95473 11.8201 3.95473C9.61096 3.95473 7.8201 5.74559 7.8201 7.95473C7.8201 10.1639 9.61096 11.9547 11.8201 11.9547Z" />
<path d="M6.77728 13.4983C7.11815 13.9817 7.78066 14.2342 8.41777 13.8984L8.53542 13.8364C9.26476 13.452 10.164 13.8275 10.4042 14.6161C10.4336 14.7124 10.4712 14.8012 10.5158 14.8826L7.67871 21.3121L6.84612 18.3482L4 19.7923L6.77728 13.4983Z" />
<path d="M16.8295 13.4983C16.4886 13.9817 15.8261 14.2342 15.189 13.8984L15.0713 13.8364C14.342 13.452 13.4428 13.8275 13.2025 14.6161C13.1732 14.7124 13.1356 14.8012 13.091 14.8826L15.9281 21.3121L16.7606 18.3482L19.6068 19.7923L16.8295 13.4983Z" />
</svg>
