<svg viewBox="0 0 24 24" xmlns="http://www.w3.org/2000/svg">
<path d="M7 10C6.2889 10 5.61246 9.85155 5 9.58396V16H2V19C2 19.8333 2.29167 20.5417 2.875 21.125C3.45833 21.7083 4.16667 22 5 22H11V20H5C4.71667 20 4.47917 19.9042 4.2875 19.7125C4.09583 19.5208 4 19.2833 4 19V18H11L13 16H7V10Z" />
<path d="M11.9 4H18V11.375C18.3167 11.225 18.6458 11.1208 18.9875 11.0625C19.3292 11.0042 19.6667 10.9917 20 11.025V2L11.0004 2C11.4371 2.58141 11.75 3.26112 11.9 4Z" />
<path d="M12 22H14.083L20.2266 15.8564L18.1436 13.7734L12 19.917V22ZM13.111 20.378L18.1436 15.3454L18.6546 15.8564L13.622 20.889H13.111V20.378Z" />
<path d="M20.5377 12.1625C20.3211 11.9458 19.9711 11.9458 19.7545 12.1625L18.738 13.179L20.821 15.262L21.8375 14.2455C22.0542 14.0289 22.0542 13.6789 21.8375 13.4623L20.5377 12.1625Z" />
<path d="M6.996 1C4.788 1 3 2.792 3 5C3 7.208 4.788 9 6.996 9C9.208 9 11 7.208 11 5C11 2.792 9.208 1 6.996 1ZM7 8.2C5.232 8.2 3.8 6.768 3.8 5C3.8 3.232 5.232 1.8 7 1.8C8.768 1.8 10.2 3.232 10.2 5C10.2 6.768 8.768 8.2 7 8.2ZM7.2 3H6.6V5.4L8.7 6.66L9 6.168L7.2 5.1V3Z" />
</svg>
