<svg viewBox="0 0 24 24" xmlns="http://www.w3.org/2000/svg">
<path d="M16 8C16 10.21 14.21 12 12 12C9.79 12 8 10.21 8 8C8 5.79 9.79 4 12 4C14.21 4 16 5.79 16 8Z" />
<path d="M4 18C4 15.34 9.33 14 12 14C12.8195 14 13.8895 14.1262 14.9791 14.3781C14.3692 15.0802 14 15.997 14 17C14 18.1947 14.5238 19.2671 15.3542 20H13.5396L12.4619 17.2L13.299 15.75C13.4915 15.4167 13.2509 15 12.866 15H11.134C10.7491 15 10.5085 15.4167 10.701 15.75L11.5381 17.2L10.4604 20H4V18Z" />
<path d="M18.5735 18.1447H18.3476L18.2676 18.0675C18.5477 17.7416 18.7164 17.3185 18.7164 16.8582C18.7164 15.8319 17.8845 15 16.8582 15C15.8319 15 15 15.8319 15 16.8582C15 17.8845 15.8319 18.7164 16.8582 18.7164C17.3185 18.7164 17.7416 18.5477 18.0675 18.2676L18.1447 18.3476V18.5735L19.574 20L20 19.574L18.5735 18.1447ZM16.8582 18.1447C16.1464 18.1447 15.5718 17.57 15.5718 16.8582C15.5718 16.1464 16.1464 15.5718 16.8582 15.5718C17.57 15.5718 18.1447 16.1464 18.1447 16.8582C18.1447 17.57 17.57 18.1447 16.8582 18.1447Z" />
</svg>
