<svg xmlns="http://www.w3.org/2000/svg" viewBox="0 0 24 24">
  <path
    d="M18.05,3.53h-3.22c-.41-1.17-1.52-2-2.83-2s-2.42,.83-2.83,2h-3.22c-1.06,0-1.92,.86-1.92,1.92v15.09c0,1.06,.86,1.92,1.92,1.92h12.09c1.06,0,1.92-.86,1.92-1.92V5.45c0-1.06-.86-1.92-1.92-1.92Zm-6.05,0c.52,0,.94,.4,.98,.91,0,.02,0,.05,0,.07s0,.05,0,.07c-.04,.51-.46,.91-.98,.91s-.98-.44-.98-.98,.44-.98,.98-.98Zm6,16.97H6V5.5h2.02v2.02h7.97v-2.02h2.02v15Zm-2.29-11.1h-7.43c-.6,0-1.09,.49-1.09,1.09v7.43c0,.6,.49,1.09,1.09,1.09h7.43c.6,0,1.09-.49,1.09-1.09v-7.43c0-.6-.49-1.09-1.09-1.09Zm-4.57,7.8h-1.71v-6h1.71v6Zm3.43,0h-1.71v-6h1.71v6Z"
  />
</svg>
