<svg viewBox="0 0 24 24" xmlns="http://www.w3.org/2000/svg">
<path d="M9 8V6H16V8H9ZM9 12V10H16V12H9ZM11 22H5C4.16667 22 3.45833 21.7083 2.875 21.125C2.29167 20.5417 2 19.8333 2 19V16H5V2H20V11.025C19.6667 10.9917 19.3292 11.0042 18.9875 11.0625C18.6458 11.1208 18.3167 11.225 18 11.375V4H7V16H13L11 18H4V19C4 19.2833 4.09583 19.5208 4.2875 19.7125C4.47917 19.9042 4.71667 20 5 20H11V22Z" />
<path d="M12 22H14.083L20.2266 15.8564L18.1436 13.7734L12 19.917V22ZM13.111 20.378L18.1436 15.3454L18.6546 15.8564L13.622 20.889H13.111V20.378Z" />
<path d="M20.5377 12.1625C20.3211 11.9458 19.9711 11.9458 19.7545 12.1625L18.738 13.179L20.821 15.262L21.8375 14.2455C22.0542 14.0289 22.0542 13.6789 21.8375 13.4623L20.5377 12.1625Z" />
</svg>
