<svg xmlns="http://www.w3.org/2000/svg" viewBox="0 0 24 24">
  <path
    d="M9.44,18.45a1.92,1.92,0,1,1,1.91-1.91A1.92,1.92,0,0,1,9.44,18.45Zm7-1.91a1.92,1.92,0,1,0-1.91,1.91A1.92,1.92,0,0,0,16.47,16.54Zm-7,2.72C8,19.26,5,20,5,21.5v1.6h9V21.5C13.92,20,10.93,19.26,9.44,19.26Zm5.12,0-.62,0a2.7,2.7,0,0,1,1.25,2.21v1.6H19V21.5C19,20,16,19.26,14.56,19.26ZM10.79,3.75a2.6,2.6,0,1,0,2.6,2.6A2.59,2.59,0,0,0,10.79,3.75ZM19,2.7V13.58a1.59,1.59,0,0,1-1.59,1.59h-.17a2.86,2.86,0,0,0-.56-.78,3,3,0,0,0-2.15-.9,3.06,3.06,0,0,0-2.16.89,3.2,3.2,0,0,0-.4.51,2.8,2.8,0,0,0-.41-.5,3,3,0,0,0-2.15-.9,3,3,0,0,0-2.71,1.68H6.56A1.59,1.59,0,0,1,5,13.58V2.7A1.6,1.6,0,0,1,6.56,1.1H17.44A1.6,1.6,0,0,1,19,2.7Zm-1.9,9.13L14.25,8.94H13.8l-.16-.15a3.75,3.75,0,1,0-2.85,1.31,3.69,3.69,0,0,0,2.44-.91l.16.16v.46l2.88,2.88Z"
  />
</svg>
