<svg xmlns="http://www.w3.org/2000/svg" viewBox="0 0 24 24">
  <path
    d="M6.56,15.06h.17a3,3,0,0,1,.56-.77,3.08,3.08,0,0,1,1.16-.73H6.56a.09.09,0,0,1-.09-.09V2.59a.09.09,0,0,1,.09-.09h6.19L15.07,1H6.56A1.59,1.59,0,0,0,5,2.59V13.47A1.59,1.59,0,0,0,6.56,15.06Zm8,3.3a1.92,1.92,0,1,0-1.91-1.92A1.92,1.92,0,0,0,14.55,18.36Zm-7-1.92a1.91,1.91,0,1,0,1.91-1.92A1.92,1.92,0,0,0,7.53,16.44Zm7,2.73-.62,0a2.67,2.67,0,0,1,1.26,2.2V23H19V21.4C19,19.91,16,19.17,14.55,19.17Zm-5.11,0C8,19.17,5,19.91,5,21.4V23h9V21.4C13.92,19.91,10.93,19.17,9.44,19.17Zm2.81-5.61.61.35h0a3,3,0,0,0-.85.86v0a2.8,2.8,0,0,0-.41-.5,3,3,0,0,0-1.16-.73ZM19,2.57V13.5A1.52,1.52,0,0,1,17.51,15l-.3,0a3,3,0,0,0-2.66-1.59l-.27,0-1.58-.89a1.52,1.52,0,0,1-.77-1.33v-6a1.54,1.54,0,0,1,.69-1.28l4.06-2.63A1.53,1.53,0,0,1,19,2.57Z"
  />
</svg>
