<svg viewBox="0 0 24 24" xmlns="http://www.w3.org/2000/svg">
<path d="M12 9.75C13.63 9.75 15.07 10.14 16.24 10.65C17.32 11.13 18 12.21 18 13.38V15H6V13.39C6 12.21 6.68 11.13 7.76 10.66C8.93 10.14 10.37 9.75 12 9.75ZM4 10C5.1 10 6 9.1 6 8C6 6.9 5.1 6 4 6C2.9 6 2 6.9 2 8C2 9.1 2.9 10 4 10ZM5.13 11.1C4.76 11.04 4.39 11 4 11C3.01 11 2.07 11.21 1.22 11.58C0.48 11.9 0 12.62 0 13.43V15H4.5V13.39C4.5 12.56 4.73 11.78 5.13 11.1ZM20 10C21.1 10 22 9.1 22 8C22 6.9 21.1 6 20 6C18.9 6 18 6.9 18 8C18 9.1 18.9 10 20 10ZM24 13.43C24 12.62 23.52 11.9 22.78 11.58C21.93 11.21 20.99 11 20 11C19.61 11 19.24 11.04 18.87 11.1C19.27 11.78 19.5 12.56 19.5 13.39V15H24V13.43ZM12 3C13.66 3 15 4.34 15 6C15 7.66 13.66 9 12 9C10.34 9 9 7.66 9 6C9 4.34 10.34 3 12 3Z" />
<path d="M1.90677 20.1559L0.484366 18.912L0 19.3326L1.90677 21L6 17.4206L5.51904 17L1.90677 20.1559Z" />
<path d="M10.9068 20.1559L9.48437 18.912L9 19.3326L10.9068 21L15 17.4206L14.519 17L10.9068 20.1559Z" />
<path d="M19.9068 20.1559L18.4844 18.912L18 19.3326L19.9068 21L24 17.4206L23.519 17L19.9068 20.1559Z" />
</svg>
