<svg viewBox="0 0 24 24" xmlns="http://www.w3.org/2000/svg">
<path d="M6 17L12 12L18 17H14V22H10V17H6Z" />
<path fill-rule="evenodd" clip-rule="evenodd" d="M2 12C2 6.48 6.47 2 11.99 2C17.52 2 22 6.48 22 12C22 13.8204 21.5128 15.5277 20.6613 16.9985C19.9842 15.8284 19.0767 14.8082 18.001 14H19.74C19.9 13.36 20 12.69 20 12C20 11.31 19.9 10.64 19.74 10H16.36C16.44 10.66 16.5 11.32 16.5 12C16.5 12.353 16.4838 12.7007 16.4571 13.0458C15.837 12.7365 15.1803 12.4898 14.4952 12.3138C14.4983 12.2096 14.5 12.1051 14.5 12C14.5 11.32 14.43 10.65 14.34 10H9.66C9.57 10.65 9.5 11.32 9.5 12C9.5 12.1051 9.50167 12.2096 9.50483 12.3138C8.81972 12.4898 8.163 12.7365 7.54292 13.0458C7.51617 12.7007 7.5 12.353 7.5 12C7.5 11.32 7.56 10.66 7.64 10H4.26C4.1 10.64 4 11.31 4 12C4 12.69 4.1 13.36 4.26 14H5.99903C4.92249 14.8088 4.01452 15.8299 3.33723 17.001C2.4867 15.5297 2 13.8214 2 12ZM15.97 8H18.92C17.96 6.35 16.43 5.07 14.59 4.44C15.19 5.55 15.65 6.75 15.97 8ZM13.91 8C13.48 6.57 12.83 5.24 12 4.04C11.17 5.24 10.52 6.57 10.09 8H13.91ZM5.08 8H8.03C8.35 6.75 8.81 5.55 9.41 4.44C7.57 5.07 6.04 6.34 5.08 8Z" />
</svg>
