<svg viewBox="0 0 24 24" xmlns="http://www.w3.org/2000/svg">
<path d="M8 12V14H16V12H8Z" />
<path d="M8 16V18H16V16H8Z" />
<path d="M6 22C5.45 22 4.97917 21.8042 4.5875 21.4125C4.19583 21.0208 4 20.55 4 20V4C4 3.45 4.19583 2.97917 4.5875 2.5875C4.97917 2.19583 5.45 2 6 2H14L20 8V20C20 20.55 19.8042 21.0208 19.4125 21.4125C19.0208 21.8042 18.55 22 18 22H6ZM14 9V4H6V20H18V9H14Z" />
<path d="M7.31965 9.59718V6.59718L7.31965 5.59718H8.73142V9.59718H7.31965ZM9.4373 9.59718V7.93052C9.4373 7.74163 9.50495 7.58329 9.64024 7.45552C9.77553 7.32774 9.94318 7.26385 10.1432 7.26385H11.5549V6.59718H9.4373V5.59718H11.9079C12.1079 5.59718 12.2755 5.66107 12.4108 5.78885C12.5461 5.91663 12.6138 6.07496 12.6138 6.26385V7.26385C12.6138 7.45274 12.5461 7.61107 12.4108 7.73885C12.2755 7.86663 12.1079 7.93052 11.9079 7.93052H10.4961V8.59718H12.6138V9.59718H9.4373Z" />
</svg>
