<svg viewBox="0 0 24 24" xmlns="http://www.w3.org/2000/svg">
<path fill-rule="evenodd" clip-rule="evenodd" d="M2.48952 11.4748C2.24779 11.5001 1.84314 11.6367 1.41602 12.2774C0.98755 12.9201 1.07596 13.2535 1.14002 13.3898C1.18106 13.4772 1.24027 13.543 1.29218 13.588C1.31757 13.61 1.33904 13.6251 1.35176 13.6333C1.35584 13.636 1.35888 13.6379 1.36069 13.639L1.37094 13.6443L14.3402 21.6253C14.3452 21.6264 14.3511 21.6276 14.3579 21.6287C14.3978 21.6352 14.4708 21.6403 14.5708 21.6163C14.7611 21.5706 15.1339 21.3977 15.584 20.7227C16.0404 20.0381 15.99 19.7196 15.9614 19.6301C15.9447 19.5781 15.9193 19.5482 15.9025 19.5323C15.8976 19.5277 15.8935 19.5243 15.8906 19.5221L15.8851 19.5195L2.89076 11.5229C2.87519 11.5168 2.84749 11.5069 2.80983 11.4973C2.73368 11.4778 2.62222 11.4609 2.48952 11.4748ZM3.125 11.08L3.35412 10.6356L3.37093 10.6443L16.3737 18.6459C16.3752 18.6468 16.3768 18.6476 16.3784 18.6485C16.3941 18.6573 16.4133 18.6687 16.4349 18.6829C16.478 18.7112 16.5321 18.7514 16.5897 18.8058C16.7057 18.9155 16.8366 19.0844 16.9136 19.3249C17.0725 19.8204 16.9596 20.4619 16.416 21.2774C15.8661 22.1023 15.3014 22.4694 14.8042 22.5887C14.5604 22.6472 14.3522 22.641 14.1968 22.6157C14.1196 22.6031 14.0559 22.5858 14.0076 22.5699C13.9834 22.5619 13.963 22.5541 13.9464 22.5474C13.9382 22.544 13.9309 22.5409 13.9246 22.5381L13.9159 22.5342L13.9121 22.5324L13.9103 22.5316C13.9099 22.5314 13.9086 22.5308 14.125 22.08L13.9086 22.5308L13.8851 22.5195L0.873651 14.5124C0.870267 14.5105 0.866609 14.5084 0.86269 14.5062C0.847394 14.4974 0.828015 14.4857 0.80547 14.4709C0.760572 14.4417 0.701961 14.3997 0.637503 14.3439C0.509727 14.2332 0.350186 14.0603 0.234974 13.8152C-0.0134625 13.2865 0.0124478 12.5799 0.583974 11.7227C1.15686 10.8633 1.81471 10.5399 2.38547 10.4802C2.65903 10.4516 2.89132 10.486 3.05736 10.5284C3.14065 10.5497 3.20859 10.5733 3.25848 10.593C3.28349 10.6029 3.30416 10.6119 3.32015 10.6192C3.32816 10.6228 3.33502 10.6261 3.34068 10.6289L3.3483 10.6326L3.35143 10.6342L3.35283 10.6349L3.35412 10.6356C3.35443 10.6357 3.35412 10.6356 3.125 11.08Z" />
<path fill-rule="evenodd" clip-rule="evenodd" d="M13.0135 19.36C13.4012 18.7397 14.0086 18.3034 14.8419 18.0257L15.1581 18.9743C14.4914 19.1966 14.0988 19.5103 13.8615 19.89C13.6178 20.2799 13.5 20.7995 13.5 21.5H12.5C12.5 20.7006 12.6322 19.9701 13.0135 19.36Z" />
<path fill-rule="evenodd" clip-rule="evenodd" d="M6.24987 15.5962C6.621 15.0911 7.15553 14.4216 7.7977 13.7881L9.2023 15.2119C8.65968 15.7472 8.19421 16.3277 7.86154 16.7805C7.69634 17.0053 7.56655 17.1949 7.47911 17.3267C7.43544 17.3925 7.40248 17.4436 7.38111 17.4772L7.3579 17.514L7.35304 17.5219C7.3531 17.5218 7.35279 17.5223 6.5 17C5.64721 16.4778 5.64728 16.4776 5.64735 16.4775L5.64886 16.4751L5.65171 16.4704L5.66099 16.4555C5.66875 16.4431 5.67965 16.4257 5.69357 16.4038C5.72141 16.36 5.7614 16.2981 5.81267 16.2208C5.9151 16.0664 6.06316 15.8503 6.24987 15.5962Z" />
<path d="M3 19.6667C4.88852 18.3333 5.36066 17 5.36066 17C5.36066 17 7.72131 17 6.77705 18.3333C5.83279 19.6667 4.41639 21 4.41639 21V19.6667H3Z" />
<path fill-rule="evenodd" clip-rule="evenodd" d="M1 8L12 2L23 8V16H21V9.09L19 10.18V16.18L15.7629 17.9465L13.7906 16.7423L17 14.99V11.27L12 14L7 11.27V12.5962L5 11.375V10.18L1 8ZM12 11.72L18.82 8L12 4.28L5.18 8L12 11.72Z" />
</svg>
