<svg viewBox="0 0 24 24" xmlns="http://www.w3.org/2000/svg">
<path d="M12 22C10.6167 22 9.31667 21.7375 8.1 21.2125C6.88333 20.6875 5.825 19.975 4.925 19.075C4.025 18.175 3.3125 17.1167 2.7875 15.9C2.2625 14.6833 2 13.3833 2 12C2 10.6167 2.2625 9.31667 2.7875 8.1C3.3125 6.88333 4.025 5.825 4.925 4.925C5.825 4.025 6.88333 3.3125 8.1 2.7875C9.31667 2.2625 10.6167 2 12 2C13.3833 2 14.6833 2.2625 15.9 2.7875C17.1167 3.3125 18.175 4.025 19.075 4.925C19.975 5.825 20.6875 6.88333 21.2125 8.1C21.7375 9.31667 22 10.6167 22 12C22 13.3833 21.7375 14.6833 21.2125 15.9C20.6875 17.1167 19.975 18.175 19.075 19.075C18.175 19.975 17.1167 20.6875 15.9 21.2125C14.6833 21.7375 13.3833 22 12 22ZM12 20C14.2333 20 16.125 19.225 17.675 17.675C19.225 16.125 20 14.2333 20 12C20 9.76667 19.225 7.875 17.675 6.325C16.125 4.775 14.2333 4 12 4C9.76667 4 7.875 4.775 6.325 6.325C4.775 7.875 4 9.76667 4 12C4 14.2333 4.775 16.125 6.325 17.675C7.875 19.225 9.76667 20 12 20Z" />
<path d="M13.4737 14.8889C12.4168 14.8889 11.5032 14.2578 11.0484 13.3333H13.4737L13.8947 12.4444H10.7705C10.7495 12.2978 10.7368 12.1511 10.7368 12C10.7368 11.8489 10.7495 11.7022 10.7705 11.5556H13.4737L13.8947 10.6667H11.0484C11.5032 9.74222 12.4211 9.11111 13.4737 9.11111C14.1516 9.11111 14.7747 9.37333 15.2547 9.80889L16 9.02222C15.3305 8.38667 14.4421 8 13.4737 8C11.8232 8 10.4253 9.11556 9.90316 10.6667H8.42105L8 11.5556H9.70947C9.69263 11.7022 9.68421 11.8489 9.68421 12C9.68421 12.1511 9.69263 12.2978 9.70947 12.4444H8.42105L8 13.3333H9.90316C10.4253 14.8844 11.8232 16 13.4737 16C14.4463 16 15.3305 15.6133 16 14.9778L15.2505 14.1911C14.7747 14.6267 14.1558 14.8889 13.4737 14.8889Z" />
</svg>
