<svg viewBox="0 0 24 24" xmlns="http://www.w3.org/2000/svg">
<path d="M20 18.75C21.1 18.75 22 17.7375 22 16.5V5.25C22 4.0125 21.1 3 20 3H4C2.9 3 2 4.0125 2 5.25V16.5C2 17.7375 2.9 18.75 4 18.75H0V21H24V18.75H20ZM4 5.25H20V16.5H4V5.25Z" />
<path d="M13 15H11V9H13V15Z" />
<path d="M12.7125 7.7125C12.5208 7.90417 12.2833 8 12 8C11.7167 8 11.4792 7.90417 11.2875 7.7125C11.0958 7.52083 11 7.28333 11 7C11 6.71667 11.0958 6.47917 11.2875 6.2875C11.4792 6.09583 11.7167 6 12 6C12.2833 6 12.5208 6.09583 12.7125 6.2875C12.9042 6.47917 13 6.71667 13 7C13 7.28333 12.9042 7.52083 12.7125 7.7125Z" />
</svg>
