<svg viewBox="0 0 24 24" xmlns="http://www.w3.org/2000/svg">
<path d="M20 18.75C21.1 18.75 22 17.7375 22 16.5V5.25C22 4.0125 21.1 3 20 3H4C2.9 3 2 4.0125 2 5.25V16.5C2 17.7375 2.9 18.75 4 18.75H0V21H24V18.75H20ZM4 5.25H20V16.5H4V5.25Z" />
<path d="M13.8144 11.8266C14.1226 11.3363 14.3047 10.7688 14.3047 10.1524C14.3047 8.40806 12.8967 7 11.1524 7C9.40806 7 8 8.40806 8 10.1524C8 11.8967 9.40806 13.3047 11.1454 13.3047C11.7618 13.3047 12.3363 13.1226 12.8196 12.8144L15.0053 15L16 14.0053L13.8144 11.8266ZM11.1524 11.9037C10.1856 11.9037 9.40105 11.1191 9.40105 10.1524C9.40105 9.18564 10.1856 8.40105 11.1524 8.40105C12.1191 8.40105 12.9037 9.18564 12.9037 10.1524C12.9037 11.1191 12.1191 11.9037 11.1524 11.9037Z" />
</svg>
