<svg xmlns="http://www.w3.org/2000/svg" viewBox="0 0 24 24">
  <path
    d="M8.84,4.58a1,1,0,0,1,.92-1.39h.74l.65-1a1,1,0,0,1,1.7,0l.65,1h.67a1,1,0,0,1,.91,1.43l-.84,1.77A6.68,6.68,0,0,0,12,6a6.48,6.48,0,0,0-2.37.44ZM20.5,21.5H3.5l1.82-2,1-7.52a5.72,5.72,0,0,1,11.34,0l1,7.52ZM10.16,11.09a2.13,2.13,0,0,1,.79-.82A2,2,0,0,1,12,10a2,2,0,0,1,1.37.51L14,9.88a2.83,2.83,0,0,0-2-.75,2.79,2.79,0,0,0-1.7.55,3,3,0,0,0-1.07,1.41H7.81l.32.65h1a2.65,2.65,0,0,0,0,.33,2.55,2.55,0,0,0,0,.32H7.81l.32.65H9.27a3,3,0,0,0,1.07,1.41A2.85,2.85,0,0,0,12,15a3.13,3.13,0,0,0,1-.22,3,3,0,0,0,.92-.53l-.59-.58a2,2,0,0,1-1.37.51A2.1,2.1,0,0,1,11,13.86a2.06,2.06,0,0,1-.79-.82h2.2L12,12.39H9.94a2.5,2.5,0,0,1,0-.32,2.63,2.63,0,0,1,0-.33h2.42L12,11.09Z"
  />
</svg>
