<svg  viewBox="0 0 48 48"  xmlns="http://www.w3.org/2000/svg">
<path d="M25.1333 34.3582C25.0096 34.3582 24.8826 34.3514 24.752 34.338C24.6284 34.3178 24.5047 34.2841 24.381 34.237C24.1955 34.163 24.0169 34.0654 23.8452 33.9442C23.6803 33.8164 23.5292 33.675 23.3918 33.5202C23.062 33.1568 22.8112 32.7294 22.6395 32.238C22.4677 31.74 22.3819 31.2352 22.3819 30.7236C22.3819 30.0237 22.5193 29.3472 22.7941 28.6944C22.8422 28.5799 22.904 28.4588 22.9796 28.3309C23.062 28.203 23.1513 28.0819 23.2475 27.9675C23.3505 27.8463 23.4536 27.7386 23.5566 27.6444C23.6666 27.5502 23.7765 27.4795 23.8864 27.4324C24.0375 27.3651 24.2024 27.2978 24.381 27.2305C24.6009 27.1632 24.8482 27.1329 25.123 27.1396C25.3978 27.1463 25.6486 27.1766 25.8753 27.2305C26.1913 27.3045 26.4627 27.4391 26.6894 27.6343C26.9161 27.8228 27.1084 28.0516 27.2664 28.3208C27.4245 28.5833 27.5481 28.8727 27.6374 29.1891C27.7267 29.4987 27.792 29.815 27.8332 30.1381C27.8607 30.3535 27.871 30.5688 27.8641 30.7842C27.8573 30.9929 27.8401 31.2049 27.8126 31.4203C27.7851 31.6155 27.7508 31.8106 27.7096 32.0058C27.6752 32.201 27.6271 32.3895 27.5653 32.5712C27.5035 32.7529 27.4245 32.9279 27.3283 33.0962C27.2321 33.2577 27.1119 33.4092 26.9676 33.5505C26.7065 33.7995 26.4214 33.9947 26.1123 34.1361C25.81 34.2707 25.4837 34.3447 25.1333 34.3582ZM25.123 28.4723C25.0268 28.4723 24.9306 28.4824 24.8345 28.5025C24.7452 28.516 24.6593 28.5497 24.5768 28.6035C24.4807 28.6641 24.3948 28.7381 24.3192 28.8256C24.2436 28.9131 24.1784 29.004 24.1234 29.0982C23.9791 29.3405 23.8795 29.5996 23.8246 29.8756C23.7696 30.1515 23.7421 30.4309 23.7421 30.7136C23.7421 31.003 23.773 31.3025 23.8349 31.6121C23.9036 31.9217 24.0238 32.2044 24.1955 32.4601C24.278 32.5813 24.3742 32.689 24.4841 32.7832C24.6009 32.8707 24.7348 32.9347 24.886 32.975C25.0234 33.0087 25.1608 33.0188 25.2982 33.0053C25.4425 32.9919 25.5764 32.9481 25.7001 32.8741C25.8993 32.7529 26.0573 32.5914 26.1741 32.3895C26.2909 32.1876 26.3768 31.9688 26.4317 31.7332C26.4936 31.4977 26.5279 31.2554 26.5348 31.0063C26.5485 30.7573 26.5485 30.5318 26.5348 30.3299C26.5211 30.128 26.4867 29.916 26.4317 29.6939C26.3768 29.4718 26.2943 29.2698 26.1844 29.0881C26.0814 28.9064 25.9405 28.7583 25.7619 28.6439C25.5902 28.5227 25.3772 28.4655 25.123 28.4723Z" />
<path d="M30.4229 27.0992C30.471 27.0858 30.5157 27.0757 30.5569 27.0689C30.5981 27.0555 30.6393 27.0454 30.6806 27.0386C30.7286 27.0252 30.787 27.0185 30.8557 27.0185C30.9313 27.0117 31 27.0151 31.0618 27.0285C31.1305 27.0353 31.1924 27.0555 31.2473 27.0891C31.3092 27.116 31.3538 27.1598 31.3813 27.2204C31.4088 27.2877 31.426 27.3684 31.4328 27.4627C31.4466 27.5502 31.4534 27.641 31.4534 27.7353C31.4534 27.8295 31.45 27.9237 31.4431 28.0179C31.4431 28.1054 31.4431 28.1862 31.4431 28.2602V33.4193C31.4431 33.4933 31.4431 33.5707 31.4431 33.6515C31.45 33.7255 31.45 33.8029 31.4431 33.8837C31.4363 33.9644 31.4157 34.0418 31.3813 34.1159C31.3469 34.1832 31.2954 34.2404 31.2267 34.2875C31.1305 34.3615 31 34.3986 30.8351 34.3986C30.6771 34.4053 30.5397 34.3885 30.4229 34.3481C30.2993 34.3077 30.2237 34.2303 30.1962 34.1159C30.1756 34.0014 30.1653 33.887 30.1653 33.7726C30.1172 32.8842 30.0932 32.0159 30.0932 31.1679C30.1 30.3131 30.1035 29.4347 30.1035 28.5328C30.0897 28.5665 30.0416 28.5968 29.9592 28.6237C29.8836 28.6506 29.7943 28.6742 29.6913 28.6944C29.5951 28.7146 29.5023 28.7314 29.413 28.7449C29.3237 28.7583 29.2653 28.765 29.2379 28.765C29.0592 28.7852 28.8943 28.7684 28.7432 28.7146C28.5989 28.654 28.5165 28.5194 28.4959 28.3107C28.4684 28.0953 28.5165 27.9271 28.6402 27.8059C28.7707 27.6848 28.9356 27.5939 29.1348 27.5333C29.3546 27.4593 29.5676 27.3853 29.7737 27.3112C29.9867 27.2305 30.2031 27.1598 30.4229 27.0992Z" />
<path d="M35.6799 34.3582C35.5562 34.3582 35.4291 34.3514 35.2986 34.338C35.1749 34.3178 35.0513 34.2841 34.9276 34.237C34.7421 34.163 34.5635 34.0654 34.3917 33.9442C34.2269 33.8164 34.0757 33.675 33.9383 33.5202C33.6086 33.1568 33.3578 32.7294 33.1861 32.238C33.0143 31.74 32.9284 31.2352 32.9284 30.7236C32.9284 30.0237 33.0658 29.3472 33.3406 28.6944C33.3887 28.5799 33.4505 28.4588 33.5261 28.3309C33.6086 28.203 33.6979 28.0819 33.794 27.9675C33.8971 27.8463 34.0001 27.7386 34.1032 27.6444C34.2131 27.5502 34.323 27.4795 34.433 27.4324C34.5841 27.3651 34.749 27.2978 34.9276 27.2305C35.1474 27.1632 35.3948 27.1329 35.6696 27.1396C35.9444 27.1463 36.1951 27.1766 36.4218 27.2305C36.7379 27.3045 37.0092 27.4391 37.2359 27.6343C37.4626 27.8228 37.655 28.0516 37.813 28.3208C37.971 28.5833 38.0947 28.8727 38.184 29.1891C38.2733 29.4987 38.3386 29.815 38.3798 30.1381C38.4073 30.3535 38.4176 30.5688 38.4107 30.7842C38.4038 30.9929 38.3867 31.2049 38.3592 31.4203C38.3317 31.6155 38.2973 31.8106 38.2561 32.0058C38.2218 32.201 38.1737 32.3895 38.1119 32.5712C38.05 32.7529 37.971 32.9279 37.8748 33.0962C37.7787 33.2577 37.6584 33.4092 37.5142 33.5505C37.2531 33.7995 36.968 33.9947 36.6588 34.1361C36.3566 34.2707 36.0302 34.3447 35.6799 34.3582ZM35.6696 28.4723C35.5734 28.4723 35.4772 28.4824 35.381 28.5025C35.2917 28.516 35.2058 28.5497 35.1234 28.6035C35.0272 28.6641 34.9413 28.7381 34.8658 28.8256C34.7902 28.9131 34.7249 29.004 34.67 29.0982C34.5257 29.3405 34.4261 29.5996 34.3711 29.8756C34.3162 30.1515 34.2887 30.4309 34.2887 30.7136C34.2887 31.003 34.3196 31.3025 34.3814 31.6121C34.4501 31.9217 34.5704 32.2044 34.7421 32.4601C34.8246 32.5813 34.9207 32.689 35.0307 32.7832C35.1474 32.8707 35.2814 32.9347 35.4325 32.975C35.5699 33.0087 35.7074 33.0188 35.8448 33.0053C35.989 32.9919 36.123 32.9481 36.2466 32.8741C36.4459 32.7529 36.6039 32.5914 36.7207 32.3895C36.8375 32.1876 36.9233 31.9688 36.9783 31.7332C37.0401 31.4977 37.0745 31.2554 37.0814 31.0063C37.0951 30.7573 37.0951 30.5318 37.0814 30.3299C37.0676 30.128 37.0333 29.916 36.9783 29.6939C36.9233 29.4718 36.8409 29.2698 36.731 29.0881C36.6279 28.9064 36.4871 28.7583 36.3085 28.6439C36.1367 28.5227 35.9238 28.4655 35.6696 28.4723Z"/>
<path d="M40.9695 27.0992C41.0176 27.0858 41.0622 27.0757 41.1035 27.0689C41.1447 27.0555 41.1859 27.0454 41.2271 27.0386C41.2752 27.0252 41.3336 27.0185 41.4023 27.0185C41.4779 27.0117 41.5466 27.0151 41.6084 27.0285C41.6771 27.0353 41.7389 27.0555 41.7939 27.0891C41.8557 27.116 41.9004 27.1598 41.9279 27.2204C41.9553 27.2877 41.9725 27.3684 41.9794 27.4627C41.9931 27.5502 42 27.641 42 27.7353C42 27.8295 41.9966 27.9237 41.9897 28.0179C41.9897 28.1054 41.9897 28.1862 41.9897 28.2602V33.4193C41.9897 33.4933 41.9897 33.5707 41.9897 33.6515C41.9966 33.7255 41.9966 33.8029 41.9897 33.8837C41.9828 33.9644 41.9622 34.0418 41.9279 34.1159C41.8935 34.1832 41.842 34.2404 41.7733 34.2875C41.6771 34.3615 41.5466 34.3986 41.3817 34.3986C41.2237 34.4053 41.0863 34.3885 40.9695 34.3481C40.8458 34.3077 40.7703 34.2303 40.7428 34.1159C40.7222 34.0014 40.7119 33.887 40.7119 33.7726C40.6638 32.8842 40.6397 32.0159 40.6397 31.1679C40.6466 30.3131 40.65 29.4347 40.65 28.5328C40.6363 28.5665 40.5882 28.5968 40.5058 28.6237C40.4302 28.6506 40.3409 28.6742 40.2378 28.6944C40.1417 28.7146 40.0489 28.7314 39.9596 28.7449C39.8703 28.7583 39.8119 28.765 39.7844 28.765C39.6058 28.7852 39.4409 28.7684 39.2898 28.7146C39.1455 28.654 39.0631 28.5194 39.0425 28.3107C39.015 28.0953 39.0631 27.9271 39.1867 27.8059C39.3173 27.6848 39.4821 27.5939 39.6814 27.5333C39.9012 27.4593 40.1142 27.3853 40.3203 27.3112C40.5332 27.2305 40.7497 27.1598 40.9695 27.0992Z"/>
<path d="M24.1131 14.9841C24.1612 14.9707 24.2059 14.9606 24.2471 14.9538C24.2883 14.9404 24.3295 14.9303 24.3707 14.9236C24.4188 14.9101 24.4772 14.9034 24.5459 14.9034C24.6215 14.8966 24.6902 14.9 24.752 14.9135C24.8207 14.9202 24.8826 14.9404 24.9375 14.974C24.9993 15.001 25.044 15.0447 25.0715 15.1053C25.099 15.1726 25.1161 15.2534 25.123 15.3476C25.1367 15.4351 25.1436 15.5259 25.1436 15.6202C25.1436 15.7144 25.1402 15.8086 25.1333 15.9029C25.1333 15.9904 25.1333 16.0711 25.1333 16.1452V21.3042C25.1333 21.3782 25.1333 21.4556 25.1333 21.5364C25.1402 21.6104 25.1402 21.6878 25.1333 21.7686C25.1264 21.8493 25.1058 21.9267 25.0715 22.0008C25.0371 22.0681 24.9856 22.1253 24.9169 22.1724C24.8207 22.2465 24.6902 22.2835 24.5253 22.2835C24.3673 22.2902 24.2299 22.2734 24.1131 22.233C23.9894 22.1926 23.9139 22.1152 23.8864 22.0008C23.8658 21.8864 23.8555 21.7719 23.8555 21.6575C23.8074 20.7691 23.7833 19.9008 23.7833 19.0528C23.7902 18.198 23.7937 17.3197 23.7937 16.4178C23.7799 16.4514 23.7318 16.4817 23.6494 16.5086C23.5738 16.5355 23.4845 16.5591 23.3815 16.5793C23.2853 16.5995 23.1925 16.6163 23.1032 16.6298C23.0139 16.6432 22.9555 16.65 22.928 16.65C22.7494 16.6701 22.5845 16.6533 22.4334 16.5995C22.2891 16.5389 22.2067 16.4043 22.1861 16.1956C22.1586 15.9803 22.2067 15.812 22.3303 15.6908C22.4609 15.5697 22.6257 15.4788 22.825 15.4183C23.0448 15.3442 23.2578 15.2702 23.4639 15.1961C23.6769 15.1154 23.8933 15.0447 24.1131 14.9841Z"/>
<path d="M29.37 22.2431C29.2464 22.2431 29.1193 22.2364 28.9888 22.2229C28.8651 22.2027 28.7414 22.1691 28.6178 22.1219C28.4323 22.0479 28.2537 21.9503 28.0819 21.8292C27.917 21.7013 27.7659 21.5599 27.6285 21.4051C27.2987 21.0417 27.048 20.6143 26.8762 20.1229C26.7045 19.6249 26.6186 19.1201 26.6186 18.6086C26.6186 17.9086 26.756 17.2322 27.0308 16.5793C27.0789 16.4649 27.1407 16.3437 27.2163 16.2158C27.2987 16.088 27.388 15.9668 27.4842 15.8524C27.5873 15.7312 27.6903 15.6235 27.7934 15.5293C27.9033 15.4351 28.0132 15.3644 28.1231 15.3173C28.2743 15.25 28.4392 15.1827 28.6178 15.1154C28.8376 15.0481 29.0849 15.0178 29.3597 15.0245C29.6345 15.0312 29.8853 15.0615 30.112 15.1154C30.428 15.1894 30.6994 15.324 30.9261 15.5192C31.1528 15.7077 31.3452 15.9365 31.5032 16.2057C31.6612 16.4682 31.7849 16.7576 31.8742 17.074C31.9635 17.3836 32.0287 17.6999 32.07 18.023C32.0974 18.2384 32.1078 18.4538 32.1009 18.6691C32.094 18.8778 32.0768 19.0898 32.0494 19.3052C32.0219 19.5004 31.9875 19.6956 31.9463 19.8907C31.912 20.0859 31.8639 20.2744 31.802 20.4561C31.7402 20.6378 31.6612 20.8128 31.565 20.9811C31.4688 21.1426 31.3486 21.2941 31.2043 21.4354C30.9433 21.6844 30.6582 21.8796 30.349 22.021C30.0467 22.1556 29.7204 22.2296 29.37 22.2431ZM29.3597 16.3572C29.2636 16.3572 29.1674 16.3673 29.0712 16.3875C28.9819 16.4009 28.896 16.4346 28.8136 16.4884C28.7174 16.549 28.6315 16.623 28.5559 16.7105C28.4804 16.798 28.4151 16.8889 28.3602 16.9831C28.2159 17.2254 28.1163 17.4846 28.0613 17.7605C28.0063 18.0365 27.9789 18.3158 27.9789 18.5985C27.9789 18.8879 28.0098 19.1874 28.0716 19.497C28.1403 19.8066 28.2605 20.0893 28.4323 20.3451C28.5147 20.4662 28.6109 20.5739 28.7208 20.6681C28.8376 20.7556 28.9716 20.8196 29.1227 20.8599C29.2601 20.8936 29.3975 20.9037 29.5349 20.8902C29.6792 20.8768 29.8132 20.833 29.9368 20.759C30.1361 20.6378 30.2941 20.4763 30.4109 20.2744C30.5276 20.0725 30.6135 19.8537 30.6685 19.6182C30.7303 19.3826 30.7647 19.1403 30.7715 18.8912C30.7853 18.6422 30.7853 18.4167 30.7715 18.2148C30.7578 18.0129 30.7234 17.8009 30.6685 17.5788C30.6135 17.3567 30.5311 17.1548 30.4212 16.973C30.3181 16.7913 30.1773 16.6432 29.9987 16.5288C29.8269 16.4077 29.6139 16.3504 29.3597 16.3572Z"/>
<path d="M35.6799 22.2431C35.5562 22.2431 35.4291 22.2364 35.2986 22.2229C35.1749 22.2027 35.0513 22.1691 34.9276 22.1219C34.7421 22.0479 34.5635 21.9503 34.3917 21.8292C34.2269 21.7013 34.0757 21.5599 33.9383 21.4051C33.6086 21.0417 33.3578 20.6143 33.1861 20.1229C33.0143 19.6249 32.9284 19.1201 32.9284 18.6086C32.9284 17.9086 33.0658 17.2322 33.3406 16.5793C33.3887 16.4649 33.4505 16.3437 33.5261 16.2158C33.6086 16.088 33.6979 15.9668 33.794 15.8524C33.8971 15.7312 34.0001 15.6235 34.1032 15.5293C34.2131 15.4351 34.323 15.3644 34.433 15.3173C34.5841 15.25 34.749 15.1827 34.9276 15.1154C35.1474 15.0481 35.3948 15.0178 35.6696 15.0245C35.9444 15.0312 36.1951 15.0615 36.4218 15.1154C36.7379 15.1894 37.0092 15.324 37.2359 15.5192C37.4626 15.7077 37.655 15.9365 37.813 16.2057C37.971 16.4682 38.0947 16.7576 38.184 17.074C38.2733 17.3836 38.3386 17.6999 38.3798 18.023C38.4073 18.2384 38.4176 18.4538 38.4107 18.6691C38.4038 18.8778 38.3867 19.0898 38.3592 19.3052C38.3317 19.5004 38.2973 19.6956 38.2561 19.8907C38.2218 20.0859 38.1737 20.2744 38.1119 20.4561C38.05 20.6378 37.971 20.8128 37.8748 20.9811C37.7787 21.1426 37.6584 21.2941 37.5142 21.4354C37.2531 21.6844 36.968 21.8796 36.6588 22.021C36.3566 22.1556 36.0302 22.2296 35.6799 22.2431ZM35.6696 16.3572C35.5734 16.3572 35.4772 16.3673 35.381 16.3875C35.2917 16.4009 35.2058 16.4346 35.1234 16.4884C35.0272 16.549 34.9413 16.623 34.8658 16.7105C34.7902 16.798 34.7249 16.8889 34.67 16.9831C34.5257 17.2254 34.4261 17.4846 34.3711 17.7605C34.3162 18.0365 34.2887 18.3158 34.2887 18.5985C34.2887 18.8879 34.3196 19.1874 34.3814 19.497C34.4501 19.8066 34.5704 20.0893 34.7421 20.3451C34.8246 20.4662 34.9207 20.5739 35.0307 20.6681C35.1474 20.7556 35.2814 20.8196 35.4325 20.8599C35.5699 20.8936 35.7074 20.9037 35.8448 20.8902C35.989 20.8768 36.123 20.833 36.2466 20.759C36.4459 20.6378 36.6039 20.4763 36.7207 20.2744C36.8375 20.0725 36.9233 19.8537 36.9783 19.6182C37.0401 19.3826 37.0745 19.1403 37.0814 18.8912C37.0951 18.6422 37.0951 18.4167 37.0814 18.2148C37.0676 18.0129 37.0333 17.8009 36.9783 17.5788C36.9233 17.3567 36.8409 17.1548 36.731 16.973C36.6279 16.7913 36.4871 16.6432 36.3085 16.5288C36.1367 16.4077 35.9238 16.3504 35.6696 16.3572Z"/>
<path d="M40.9695 14.9841C41.0176 14.9707 41.0622 14.9606 41.1035 14.9538C41.1447 14.9404 41.1859 14.9303 41.2271 14.9236C41.2752 14.9101 41.3336 14.9034 41.4023 14.9034C41.4779 14.8966 41.5466 14.9 41.6084 14.9135C41.6771 14.9202 41.7389 14.9404 41.7939 14.974C41.8557 15.001 41.9004 15.0447 41.9279 15.1053C41.9553 15.1726 41.9725 15.2534 41.9794 15.3476C41.9931 15.4351 42 15.5259 42 15.6202C42 15.7144 41.9966 15.8086 41.9897 15.9029C41.9897 15.9904 41.9897 16.0711 41.9897 16.1452V21.3042C41.9897 21.3782 41.9897 21.4556 41.9897 21.5364C41.9966 21.6104 41.9966 21.6878 41.9897 21.7686C41.9828 21.8493 41.9622 21.9267 41.9279 22.0008C41.8935 22.0681 41.842 22.1253 41.7733 22.1724C41.6771 22.2465 41.5466 22.2835 41.3817 22.2835C41.2237 22.2902 41.0863 22.2734 40.9695 22.233C40.8458 22.1926 40.7703 22.1152 40.7428 22.0008C40.7222 21.8864 40.7119 21.7719 40.7119 21.6575C40.6638 20.7691 40.6397 19.9008 40.6397 19.0528C40.6466 18.198 40.65 17.3197 40.65 16.4178C40.6363 16.4514 40.5882 16.4817 40.5058 16.5086C40.4302 16.5355 40.3409 16.5591 40.2378 16.5793C40.1417 16.5995 40.0489 16.6163 39.9596 16.6298C39.8703 16.6432 39.8119 16.65 39.7844 16.65C39.6058 16.6701 39.4409 16.6533 39.2898 16.5995C39.1455 16.5389 39.0631 16.4043 39.0425 16.1956C39.015 15.9803 39.0631 15.812 39.1867 15.6908C39.3173 15.5697 39.4821 15.4788 39.6814 15.4183C39.9012 15.3442 40.1142 15.2702 40.3203 15.1961C40.5332 15.1154 40.7497 15.0447 40.9695 14.9841Z"/>
<path fill-rule="evenodd" clip-rule="evenodd" d="M18.2143 11C10.9068 11 5 16.85 5 24C5 27.4478 6.39222 30.7544 8.87037 33.1924C10.0974 34.3995 11.5542 35.3571 13.1574 36.0104C14.7606 36.6637 16.479 37 18.2143 37V34.348C17.1175 32.788 16.2321 31.059 15.6904 29.2H18.2143V26.6H15.1221C14.99 25.742 14.9107 24.884 14.9107 24C14.9107 23.116 14.99 22.245 15.1221 21.4H18.2143V18.8H15.6904C16.2321 16.941 17.1175 15.199 18.2143 13.639V11ZM9.07 18.8H12.9286C13.3911 17.175 13.9857 15.615 14.7786 14.172C12.3604 14.978 10.3254 16.642 9.07 18.8ZM12.9286 29.2H9.07C10.3254 31.345 12.3604 33.009 14.7786 33.828C13.9857 32.385 13.3911 30.825 12.9286 29.2ZM7.64286 24C7.64286 24.897 7.775 25.768 7.98643 26.6H12.4529C12.3471 25.742 12.2679 24.884 12.2679 24C12.2679 23.116 12.3471 22.258 12.4529 21.4H7.98643C7.775 22.232 7.64286 23.103 7.64286 24Z"/>
</svg>
