<svg viewBox="0 0 24 24" xmlns="http://www.w3.org/2000/svg">
<path d="M17.126 7.58465C17.9437 8.34869 18.5632 9.29706 18.9845 10.4298L20.0712 10.0256C19.6814 8.90491 19.0187 7.85126 18.0832 6.86467C17.1476 5.87808 15.775 5.05602 13.9652 4.39848L17.3236 3.14944L16.9195 2.06274L11.7368 3.99026L13.6643 9.173L14.751 8.76884L13.5355 5.50059C15.1112 6.12599 16.3081 6.82068 17.126 7.58465Z" />
<path d="M8.55256 5.43237C8.55256 6.63914 7.57513 7.61656 6.36837 7.61656C5.16161 7.61656 4.18419 6.63914 4.18419 5.43237C4.18419 4.22561 5.16161 3.24819 6.36837 3.24819C7.57513 3.24819 8.55256 4.22561 8.55256 5.43237Z" />
<path d="M2 10.8928C2 9.44035 4.91043 8.70865 6.36837 8.70865C7.82631 8.70865 10.7367 9.44035 10.7367 10.8928V11.9849H2V10.8928Z" />
<path d="M19.5374 14.1691C19.5374 15.3758 18.56 16.3533 17.3532 16.3533C16.1465 16.3533 15.169 15.3758 15.169 14.1691C15.169 12.9623 16.1465 11.9849 17.3532 11.9849C18.56 11.9849 19.5374 12.9623 19.5374 14.1691Z" />
<path d="M12.9849 19.6295C12.9849 18.177 15.8953 17.4453 17.3532 17.4453C18.8112 17.4453 21.7216 18.177 21.7216 19.6295V20.7216H12.9849V19.6295Z" />
<path d="M3.7523 13.5703C4.17357 14.703 4.79306 15.6514 5.61077 16.4154C6.42867 17.1794 7.62551 17.8741 9.20128 18.4994L7.98579 15.2312L9.07249 14.827L11 20.0098L5.81726 21.9373L5.41311 20.8506L8.77155 19.6016C6.96178 18.944 5.58913 18.122 4.65359 17.1354C3.71806 16.1488 3.05539 15.0951 2.6656 13.9744L3.7523 13.5703Z" />
</svg>
