<svg viewBox="0 0 24 24" xmlns="http://www.w3.org/2000/svg">
<path d="M5 20.5C6.84167 20.5 7.5 21.2462 7.5 22.167V23H2.5V22.167C2.5 21.2462 3.15833 20.5 5 20.5Z" />
<path d="M12 20.5C13.8417 20.5 14.5 21.2462 14.5 22.167V23H9.5V22.167C9.5 21.2462 10.1583 20.5 12 20.5Z" />
<path d="M19 20.5C20.8417 20.5 21.5 21.2462 21.5 22.167V23H16.5V22.167C16.5 21.2462 17.1583 20.5 19 20.5Z" />
<path d="M5 16.333C5.44203 16.333 5.86615 16.5087 6.17871 16.8213C6.49127 17.1338 6.66699 17.558 6.66699 18C6.66699 18.442 6.49127 18.8662 6.17871 19.1787C5.86615 19.4913 5.44203 19.667 5 19.667C4.55797 19.667 4.13385 19.4913 3.82129 19.1787C3.50873 18.8662 3.33301 18.442 3.33301 18C3.33301 17.558 3.50873 17.1338 3.82129 16.8213C4.13385 16.5087 4.55797 16.333 5 16.333Z" />
<path d="M12 16.333C12.442 16.333 12.8662 16.5087 13.1787 16.8213C13.4913 17.1338 13.667 17.558 13.667 18C13.667 18.442 13.4913 18.8662 13.1787 19.1787C12.8662 19.4913 12.442 19.667 12 19.667C11.558 19.667 11.1338 19.4913 10.8213 19.1787C10.5087 18.8662 10.333 18.442 10.333 18C10.333 17.558 10.5087 17.1338 10.8213 16.8213C11.1338 16.5087 11.558 16.333 12 16.333Z" />
<path d="M19 16.333C19.442 16.333 19.8662 16.5087 20.1787 16.8213C20.4912 17.1338 20.667 17.558 20.667 18C20.667 18.442 20.4913 18.8662 20.1787 19.1787C19.8662 19.4912 19.442 19.667 19 19.667C18.558 19.667 18.1338 19.4912 17.8213 19.1787C17.5087 18.8662 17.333 18.442 17.333 18C17.333 17.558 17.5088 17.1338 17.8213 16.8213C18.1338 16.5087 18.558 16.333 19 16.333Z" />
<path d="M13 11H18C19.1046 11 20 11.8954 20 13V15H18V13H13V15H11V13H6V15H4V13C4 11.8954 4.89543 11 6 11H11V9H13V11Z" />
<path d="M12 5.5C13.8417 5.5 14.5 6.24616 14.5 7.16699V8H9.5V7.16699C9.5 6.24616 10.1583 5.5 12 5.5Z" />
<path d="M12 1.33301C12.442 1.33301 12.8662 1.50873 13.1787 1.82129C13.4913 2.13385 13.667 2.55797 13.667 3C13.667 3.44203 13.4913 3.86615 13.1787 4.17871C12.8662 4.49127 12.442 4.66699 12 4.66699C11.558 4.66699 11.1338 4.49127 10.8213 4.17871C10.5087 3.86615 10.333 3.44203 10.333 3C10.333 2.55797 10.5087 2.13385 10.8213 1.82129C11.1338 1.50873 11.558 1.33301 12 1.33301Z" />
</svg>
