<svg viewBox="0 0 24 24" xmlns="http://www.w3.org/2000/svg">
<path d="M2 3.01473L3.01473 2L21.0433 20.0286L20.0286 21.0433L2 3.01473Z"/>
<path d="M9.00057 8.10221C9.03155 9.71289 10.3304 11.0117 11.9411 11.0427L9.00057 8.10221Z"/>
<path d="M13.5957 12.6974C13.008 12.5947 12.453 12.5433 12 12.5433C9.9975 12.5433 6 13.5483 6 15.5433V17.0433H17.9417L13.5957 12.6974Z"/>
<path d="M16.6672 13.7394L17.8742 14.9464C17.6696 14.4749 17.2306 14.0725 16.6672 13.7394Z"/>
<path d="M13.5441 10.6163L9.42703 6.49921C9.95154 5.62672 10.9073 5.04329 12 5.04329C13.6575 5.04329 15 6.38579 15 8.04329C15 9.13597 14.4166 10.0917 13.5441 10.6163Z"/>
</svg>
