<svg viewBox="0 0 24 24" xmlns="http://www.w3.org/2000/svg">
<path d="M4.03308 3.90242C3.98951 3.94524 3.9889 4.01532 4.03174 4.05892L5.40242 5.45352C5.44527 5.49711 5.51535 5.49772 5.55892 5.45489L8.47969 2.58422C8.52329 2.54137 8.52389 2.47129 8.48104 2.4277L7.11037 1.0331C7.06752 0.989501 6.99744 0.988895 6.95384 1.03174L4.03308 3.90242Z" />
<path d="M13.2509 2.91759L12.5706 3.54512L12.3341 3.3091C12.1059 3.08093 11.8549 2.9092 11.5809 2.79391C11.307 2.67863 11.0181 2.62098 10.7145 2.62098C10.4108 2.62098 10.121 2.67863 9.845 2.79391C9.56903 2.9092 9.31375 3.08093 9.07916 3.3091L7.02687 5.36137C6.81557 5.57267 6.65128 5.81269 6.53399 6.08141C6.41669 6.35016 6.35161 6.62873 6.33876 6.91715C6.32591 7.17745 6.35524 7.43414 6.42676 7.68721C6.49826 7.94028 6.6047 8.16885 6.7461 8.37292L7.43781 7.6812C7.37515 7.56631 7.33136 7.44359 7.30645 7.31304C7.28155 7.18249 7.27553 7.05052 7.28837 6.91715C7.30123 6.75567 7.34402 6.5972 7.41673 6.44174C7.48943 6.28628 7.58283 6.15151 7.69692 6.03742L9.75521 3.96948C9.89662 3.82808 10.0467 3.72464 10.2053 3.65916C10.364 3.59368 10.5317 3.56093 10.7085 3.56093C10.8916 3.56093 11.063 3.59368 11.2224 3.65916C11.3819 3.72464 11.5291 3.82808 11.6641 3.96948L13.8622 6.16758C13.9056 6.20454 13.9402 6.25295 13.9659 6.31279C13.9916 6.37265 14.0044 6.43753 14.0044 6.50743C14.0044 6.62954 13.963 6.72836 13.8803 6.80388C13.7975 6.87941 13.6991 6.91717 13.585 6.91717C13.5151 6.91717 13.4503 6.90431 13.3904 6.87861C13.3306 6.8529 13.2822 6.81835 13.2452 6.77496L11.5305 5.04515L11.5288 5.04594L11.2509 4.76236L6.69503 8.96483C6.24022 9.38436 6.21382 10.0834 6.63571 10.5356L11.1967 15.425C11.6148 15.8732 12.3215 15.9035 12.7763 15.484L19.3322 9.43671C19.5495 9.23625 19.6779 8.95813 19.689 8.66353C19.7001 8.36893 19.5931 8.08203 19.3915 7.86592L14.8305 2.97657C14.6289 2.76045 14.3492 2.63282 14.053 2.62177C13.7567 2.61071 13.4682 2.71712 13.2509 2.91759ZM13.3521 4.32472L13.2366 4.20951L13.8921 3.60494C13.9262 3.57342 13.9716 3.55673 14.018 3.55846C14.0644 3.56019 14.1081 3.58016 14.1396 3.6139L18.7006 8.50324C18.732 8.53696 18.7488 8.58179 18.747 8.62796C18.7453 8.67416 18.7252 8.71784 18.691 8.74936L12.1352 14.7966C12.0639 14.8623 11.9534 14.8582 11.8876 14.7876L7.32664 9.8983C7.25912 9.82592 7.26272 9.71997 7.33622 9.65218L11.2344 6.05646L11.4097 6.26721L12.5969 7.44739C12.731 7.58156 12.8847 7.67917 13.0578 7.74023C13.2309 7.80129 13.4099 7.83182 13.5947 7.83182C13.9771 7.83182 14.296 7.70408 14.5515 7.4486C14.807 7.19312 14.9347 6.87418 14.9347 6.49176C14.9347 6.30698 14.9012 6.12863 14.8341 5.9567C14.767 5.78477 14.6632 5.63173 14.5226 5.49756C14.0999 5.07132 13.7218 4.69338 13.3521 4.32472Z" />
<path d="M9.47514 15.25L7.13509 13H4.20981C3.76934 13 3.38073 13.2882 3.25287 13.7097L2.03951 17.7097C1.8447 18.352 2.32531 19 2.99646 19H4V22C4 22.5523 4.44772 23 5 23H19C19.5523 23 20 22.5523 20 22V19H21.2302C21.9013 19 22.382 18.352 22.1871 17.7097L20.9738 13.7097C20.8459 13.2882 20.4573 13 20.0168 13H17.3403L15.0002 15.25H17C17.4142 15.25 17.75 15.5858 17.75 16C17.75 16.4142 17.4142 16.75 17 16.75H7C6.58579 16.75 6.25 16.4142 6.25 16C6.25 15.5858 6.58579 15.25 7 15.25H9.47514Z" />
</svg>
