<svg viewBox="0 0 24 24" xmlns="http://www.w3.org/2000/svg">
<path d="M14.9709 10.1693L15.4102 9.70995C14.9981 9.17392 14.2242 9.00001 13.6971 9C13.17 8.99999 12.2037 9.12463 12.1597 10.1693C12.1199 11.117 13.2006 11.2732 13.9918 11.3876C14.0728 11.3993 14.1508 11.4106 14.2242 11.4222C15.0148 11.5475 14.7513 12.3827 14.2681 12.4662C13.7849 12.5498 12.9703 12.4004 12.4233 11.9651L12.028 12.3827C12.757 12.9788 13.7434 13.2179 14.3999 13.0091C15.0564 12.8003 15.4102 12.508 15.4102 11.8816C15.4102 11.2551 14.927 10.6705 13.9167 10.6705C12.9065 10.6705 12.9065 10.4199 12.9065 10.1693C12.9065 9.91876 13.2579 9.62643 13.6971 9.62643C14.1363 9.62643 14.5668 9.76846 14.9709 10.1693Z" />
<path d="M7.16667 9.00452H6.33333L5 13.0879H5.66667L6 11.999H7.41667L7.75 13.0879H8.5L9.14474 13.0879V10.4529L11.3591 13.0879H12V9.00456H11.3553V11.8125L9.14474 9.00911L8.5 9.00456V13.0879L7.16667 9.00452ZM7.37196 11.4007H6.22992L6.80094 9.72205L7.37196 11.4007Z" />
<path d="M19 10.1121L18.2972 10.3687C18.1391 9.90187 17.814 9.68436 17.243 9.68436C16.6719 9.68436 16.3326 9.943 16.2008 10.3269C16.069 10.7109 16.1129 11.6091 16.2767 11.9095C16.4404 12.2099 16.8597 12.4218 17.1671 12.4218C17.4746 12.4218 18.0111 12.3004 18.3411 11.6957L19 11.9095C18.6486 13.0644 17.287 13.1927 16.672 13.0216C16.057 12.8505 15.6179 12.38 15.486 11.9523C15.3542 11.5246 15.3191 11.0958 15.4421 10.3269C15.5652 9.55805 16.3645 9 17.243 9C18.1215 9 18.6073 9.3187 19 10.1121Z" />
<path d="M20 18.75C21.1 18.75 22 17.7375 22 16.5V5.25C22 4.0125 21.1 3 20 3H4C2.9 3 2 4.0125 2 5.25V16.5C2 17.7375 2.9 18.75 4 18.75H0V21H24V18.75H20ZM4 5.25H20V16.5H4V5.25Z" />
</svg>
