<svg xmlns="http://www.w3.org/2000/svg" width="24" height="24" viewBox="0 0 24 24"><path d="M15.5,10H14V8.5a.5.5,0,0,0-.5-.5h-3a.5.5,0,0,0-.5.5V10H8.5a1,1,0,0,0-1,1v4.5a1,1,0,0,0,1,1h7a1,1,0,0,0,1-1V11A1,1,0,0,0,15.5,10ZM11,9h2v1H11Zm6.5-5.75h-.25V2.73a1.74,1.74,0,0,0-.64-1.36A1.71,1.71,0,0,0,15.15,1L4.75,3.14V22.25H17.5a1.76,1.76,0,0,0,1.75-1.75V5A1.76,1.76,0,0,0,17.5,3.25Zm-2.05-.77a.25.25,0,0,1,.21,0,.27.27,0,0,1,.09.2v.52H11.69Zm2.3,18a.25.25,0,0,1-.25.25H6.25v-16H17.5a.25.25,0,0,1,.25.25Z"/><rect width="24" height="24" fill="none"/></svg>