<svg width="248" height="100" viewBox="0 0 248 100" fill="none" xmlns="http://www.w3.org/2000/svg">
<path d="M28.5127 44.7874V37.8487H8.62723V0.781162H0.817383V44.7874H28.5127ZM34.2055 31.0297C34.2055 35.6961 35.5918 39.2803 38.3658 41.7837C41.139 44.2871 45.0792 45.5381 50.1857 45.5381C55.2521 45.5381 59.3023 44.2573 62.3364 41.6937C65.3705 39.1301 66.8876 35.586 66.8876 31.0601V0.781162H59.077V30.4589C59.077 32.9823 58.2913 34.9699 56.7193 36.4216C55.1472 37.8739 52.9493 38.5994 50.1262 38.5994C47.6027 38.5994 45.6203 37.859 44.1783 36.3769C42.7364 34.8948 42.0154 32.9726 42.0154 30.609V0.781162H34.2055V31.0297ZM104.27 7.71988V0.781162H75.2838V44.7874H83.0936V24.6618H98.5632V18.0234H83.0936V7.71988H104.27ZM138.629 7.71988V0.781162H109.641V44.7874H117.451V24.6618H132.921V18.0234H117.451V7.71988H138.629ZM151.959 0.781162H144.15V44.7874H151.959V0.781162ZM177.637 0.030407C171.749 0.030407 166.917 2.21862 163.143 6.59374C159.368 10.9695 157.48 16.4112 157.48 22.9195C157.48 29.9087 159.183 35.4255 162.587 39.4706C165.991 43.5156 170.767 45.5381 176.915 45.5381C183.063 45.5381 187.729 43.8463 190.913 40.4621L187.278 34.1538C184.936 37.118 181.691 38.5994 177.546 38.5994C173.921 38.5994 171.023 37.2176 168.85 34.4541C166.677 31.6905 165.591 27.9561 165.591 23.2496C165.591 18.5444 166.762 14.6541 169.105 11.5798C171.448 8.50624 174.452 6.96912 178.117 6.96912C181.982 6.96912 184.786 7.84026 186.528 9.58254L189.742 3.12405C186.717 1.06205 182.683 0.030407 177.637 0.030407ZM203.643 0.781162H195.833V44.7874H203.643V0.781162ZM213.896 39.3502C217.049 43.4761 221.58 45.5381 227.488 45.5381C233.916 45.5381 238.877 43.4561 242.371 39.2907C245.866 35.1252 247.613 29.4978 247.613 22.4089C247.613 15.32 245.941 9.81295 242.597 5.88763C239.252 1.96297 234.416 -1.14441e-05 228.088 -1.14441e-05C222.341 -1.14441e-05 217.75 2.16813 214.316 6.50378C210.881 10.8394 209.164 16.1413 209.164 22.4089C209.164 29.578 210.741 35.2255 213.896 39.3502ZM220.068 11.1294C221.931 8.33602 224.604 6.93935 228.088 6.93935C235.699 6.93935 239.503 12.0956 239.503 22.4089C239.503 27.6759 238.477 31.6905 236.424 34.4541C234.371 37.2176 231.393 38.5994 227.488 38.5994C224.163 38.5994 221.63 37.1879 219.888 34.3641C218.146 31.5403 217.275 27.5555 217.275 22.4089C217.275 17.683 218.206 13.9227 220.068 11.1294Z" fill="#1D1D1B"/>
<path d="M22.9627 14.9834H26.9825L28.4905 1.87681H21.4553L22.9627 14.9834Z" fill="#1D1D1B"/>
<path d="M37.249 62.1811V55.2424H0.8125V62.1811H14.8103V99.2486H22.6202V62.1811H37.249ZM70.441 62.1811V55.2424H42.3554V99.2486H70.1109V92.3092H50.1653V79.1224H64.7042V72.484H50.1653V62.1811H70.441ZM95.4031 54.491C89.5155 54.491 84.6841 56.6792 80.9096 61.0549C77.1344 65.4301 75.2472 70.8724 75.2472 77.3808C75.2472 84.3693 76.9493 89.8874 80.3543 93.9324C83.7579 97.9775 88.5343 100 94.6822 100C100.83 100 105.496 98.3076 108.68 94.9227L105.045 88.615C102.702 91.5785 99.4586 93.0606 95.3132 93.0606C91.6882 93.0606 88.7893 91.6789 86.6167 88.9159C84.444 86.1517 83.358 82.418 83.358 77.7108C83.358 73.005 84.5294 69.1153 86.8723 66.041C89.2152 62.9674 92.2189 61.4303 95.884 61.4303C99.7485 61.4303 102.552 62.3015 104.294 64.0438L107.509 57.5853C104.485 55.5226 100.449 54.491 95.4031 54.491ZM147.04 99.8492V55.2424H139.53V81.7966L118.743 55.2424H114.988V99.2784H122.498V72.0038L143.855 99.8492H147.04ZM164.01 55.2424H156.201V99.2486H164.01V55.2424ZM191.225 54.491C185.338 54.491 180.507 56.6792 176.733 61.0549C172.957 65.4301 171.07 70.8724 171.07 77.3808C171.07 84.3693 172.772 89.8874 176.176 93.9324C179.58 97.9775 184.357 100 190.504 100C196.652 100 201.318 98.3076 204.502 94.9227L200.868 88.615C198.525 91.5785 195.281 93.0606 191.136 93.0606C187.51 93.0606 184.612 91.6789 182.439 88.9159C180.267 86.1517 179.18 82.418 179.18 77.7108C179.18 73.005 180.352 69.1153 182.695 66.041C185.038 62.9674 188.041 61.4303 191.706 61.4303C195.571 61.4303 198.374 62.3015 200.117 64.0438L203.331 57.5853C200.307 55.5226 196.272 54.491 191.225 54.491ZM213.439 93.8114C216.593 97.9367 221.123 100 227.031 100C233.459 100 238.42 97.9166 241.915 93.7512C245.41 89.5864 247.156 83.959 247.156 76.8701C247.156 69.7806 245.485 64.2742 242.141 60.3488C238.796 56.4242 233.959 54.4612 227.632 54.4612C221.884 54.4612 217.294 56.6293 213.859 60.9643C210.425 65.3006 208.708 70.6019 208.708 76.8701C208.708 84.0392 210.284 89.6861 213.439 93.8114ZM219.612 65.5906C221.474 62.7966 224.148 61.3999 227.632 61.3999C235.241 61.3999 239.046 66.5569 239.046 76.8701C239.046 82.1371 238.02 86.1517 235.968 88.9159C233.915 91.6789 230.937 93.0606 227.031 93.0606C223.707 93.0606 221.174 91.6484 219.431 88.8253C217.689 86.0022 216.818 82.0167 216.818 76.8701C216.818 72.1442 217.75 68.3839 219.612 65.5906Z" fill="#1D1D1B"/>
</svg>
