<svg width="89" height="108" viewBox="0 0 89 108" fill="none" xmlns="http://www.w3.org/2000/svg">
<path fill-rule="evenodd" clip-rule="evenodd" d="M77 100C71 100 66 97.9 66 89.5C66 81.1 71.5238 79 77 79C82.4762 79 88 81.1 88 89.5C88 97.9 83 100 77 100ZM72 89.5C72 85.9545 73 83 77 83C81 83 82 86.2641 82 89.5C82 92.7359 81 96 77 96C73 96 72 93.0455 72 89.5Z" fill="black"/>
<path fill-rule="evenodd" clip-rule="evenodd" d="M0 100L11 72H16L27 100H21L18.6136 93H8.38636L6 100H0ZM9.75 89H17.25L13.5 78L9.75 89Z" fill="black"/>
<path d="M34 79H29V100H35V85.2345C36.794 84.2932 39.3857 84 41 84V79C37.5368 79 35.2536 80.3882 34 81.6621V79Z" fill="black"/>
<path fill-rule="evenodd" clip-rule="evenodd" d="M42 89.5C42 84 43.9 79 51.5 79C55.2125 79 57.5648 80.1931 59 82.0547V79H63V99C63 106.2 55.6667 108 52 108C49.4749 108 45.4783 107.389 42.5826 105.454L44.8593 101.791C46.4209 102.983 48.8665 104 52 104C56.8 104 58 100.667 58 99V97.9996C56.5452 99.2452 54.4528 100 51.5 100C43.9 100 42 95 42 89.5ZM47 89.5C47 86.0952 48.1 83 52.5 83C56.9 83 58 86 58 89.5C58 93 56.9 96 52.5 96C48.1 96 47 92.9048 47 89.5Z" fill="black"/>
<path fill-rule="evenodd" clip-rule="evenodd" d="M24 23C24 11.402 33.402 2 45 2C56.598 2 66 11.402 66 23V58H52V46C52 42.134 48.866 39 45 39C41.134 39 38 42.134 38 46V58H24V23ZM45 30C48.866 30 52 26.866 52 23C52 19.134 48.866 16 45 16C41.134 16 38 19.134 38 23C38 26.866 41.134 30 45 30Z" fill="black"/>
</svg>
