<svg width="100" height="100" viewBox="0 0 100 100" fill="none" xmlns="http://www.w3.org/2000/svg">
<rect width="100" height="100" fill="white"/>
<path d="M37.1653 34.1434C37.1653 33.6139 37.1543 32.9385 36.0904 32.9385C35.0262 32.9385 35.0155 33.6139 35.0155 34.1434C35.0155 34.6788 35.0262 35.3548 36.0904 35.3548C37.1543 35.3548 37.1653 34.6788 37.1653 34.1434Z" fill="#0559A3"/>
<path d="M33.8482 20.2809C33.8482 20.0084 34.0775 19.9452 34.2258 19.9452C34.3752 19.9452 34.6033 20.0084 34.6033 20.2809C34.6033 20.5532 34.3752 20.6168 34.2258 20.6168C34.0775 20.6168 33.8482 20.5532 33.8482 20.2809Z" fill="#0559A3"/>
<path d="M31.7627 19.9829H31.5021V20.2313H31.7285C31.8797 20.2313 32.0397 20.2244 32.0397 20.1011C32.0397 19.9898 31.9053 19.9829 31.7627 19.9829Z" fill="#0559A3"/>
<path d="M29.3604 19.9829H29.0997V20.2313H29.3262C29.4774 20.2313 29.637 20.2244 29.637 20.1011C29.637 19.9898 29.5041 19.9829 29.3604 19.9829Z" fill="#0559A3"/>
<path d="M24.3243 19.9607H24.0509V20.204H24.3567C24.4654 20.204 24.6143 20.1918 24.6143 20.0822C24.6143 20.0052 24.5478 19.9607 24.3243 19.9607Z" fill="#0559A3"/>
<path fill-rule="evenodd" clip-rule="evenodd" d="M13 18H43V36.1556H32.8643C32.9284 36.0472 32.9639 35.9244 32.9639 35.7858C32.9639 35.6478 32.9201 35.5169 32.817 35.3995H34.3964V35.2527H33.7755V32.8106C33.3955 32.8683 32.9847 32.8744 32.5947 32.8744H31.3193C31.13 32.8348 30.9129 32.8151 30.6665 32.8151C29.6238 32.8151 29.1498 33.2929 29.1498 33.6948C29.1498 34.0584 29.4658 34.2748 29.9402 34.4146V34.4281C29.5398 34.466 29.0939 34.5771 28.8067 34.9276C28.746 35.0014 28.6945 35.0653 28.6534 35.1206C28.3665 35.0217 27.9349 35.0015 26.8875 35.0015H25.7603C25.6023 35.0015 25.4864 34.938 25.4864 34.8679C25.4864 34.5997 26.1721 34.5525 27.0106 34.4948L27.0108 34.4948C27.1692 34.4839 27.333 34.4726 27.4986 34.4594C27.7202 34.4468 28.5629 34.2622 28.5629 33.6629C28.5629 33.5531 28.5071 33.448 28.4642 33.3672C28.4373 33.3167 28.4155 33.2756 28.4155 33.2488C28.4155 33.1843 28.6435 33.0955 28.7489 33.0955C28.7782 33.0955 28.8121 33.125 28.8533 33.1607C28.9171 33.2161 28.9985 33.2867 29.107 33.2867C29.3286 33.2867 29.4447 33.172 29.4447 33.0448C29.4447 32.8788 29.2227 32.8275 29.0341 32.8275C28.6858 32.8275 28.3632 33.0377 28.2571 33.1843C27.9832 32.9361 27.5514 32.8151 26.9405 32.8151C25.8975 32.8151 25.4235 33.2929 25.4235 33.6948C25.4235 34.0584 25.7395 34.2748 26.2132 34.4146V34.4281C25.8133 34.466 25.1598 34.5685 25.1598 34.9185C25.1598 34.927 25.1543 34.9344 25.1482 34.9424C25.1443 34.9476 25.1401 34.9531 25.1371 34.9594C25.0851 35.0678 24.9796 35.2465 24.7693 35.2465C24.5475 35.2465 24.5475 35.1443 24.5475 34.9532V33.4358C24.5475 33.1806 24.5475 32.8105 23.1143 32.8105C21.861 32.8105 21.4282 33.1933 21.4282 33.4229C21.4282 33.6011 21.5869 33.7291 21.8717 33.7291C22.1344 33.7291 22.3033 33.6207 22.3033 33.461C22.3033 33.3202 22.1619 33.2595 22.0683 33.2193C22.0221 33.1995 21.9875 33.1847 21.9875 33.1677C21.9875 32.9825 22.7349 32.9384 22.9674 32.9384C23.3354 32.9384 23.7259 33.028 23.7259 33.3272V33.9329C22.1141 33.9329 21.1132 34.2646 21.081 34.8575C21.081 35.3291 21.6501 35.4824 22.3137 35.4824C22.8513 35.4824 23.3777 35.361 23.7367 35.0932C23.8101 35.3291 24.0317 35.4824 24.421 35.4824C24.7893 35.4824 25.0966 35.3536 25.237 35.1602C25.4147 35.3926 25.8697 35.4306 26.2863 35.4654L26.3083 35.4672V35.4865C25.784 35.5674 25.1098 35.7326 25.0773 36.1556H13V18ZM37.6956 35.3995V35.2527H38.507V31.3115H37.6956V31.1649H38.149C38.5394 31.1649 38.9491 31.1518 39.3284 31.1074V35.2527L40.5786 35.2527V33.0217H39.8728V32.8744H40.221C40.611 32.8744 41.0211 32.8683 41.4011 32.8106V35.2527H42.0226V35.3995L37.6956 35.3995ZM40.9794 31.9704C41.2332 31.9704 41.5164 32.1103 41.5164 32.2767C41.5164 32.474 41.2848 32.6144 40.9794 32.6144C40.6743 32.6144 40.4737 32.4614 40.4737 32.2767C40.4737 32.1103 40.7162 31.9704 40.9794 31.9704ZM34.0576 34.1434C34.0576 33.3722 34.9843 32.8105 36.0904 32.8105C37.1966 32.8105 38.1232 33.3722 38.1232 34.1434C38.1232 34.9147 37.1966 35.4825 36.0904 35.4825C34.9843 35.4825 34.0576 34.9147 34.0576 34.1434ZM33.8024 32.269C33.8024 32.1036 33.5171 31.9632 33.2643 31.9632C33.0008 31.9632 32.7597 32.1036 32.7597 32.269C32.7597 32.4542 32.9589 32.6072 33.2643 32.6072C33.5701 32.6072 33.8024 32.4665 33.8024 32.269ZM13.8606 31.1401V31.2869H14.651V35.2526H13.8606V35.3995H15.7572V35.2526H14.967V31.3635H14.988L16.9584 35.3995H17.232L19.2757 31.3635H19.2972V35.2526H18.4857V35.3995H21.1201V35.2526H20.3191V31.2869H21.1201V31.1401H19.0233L17.4742 34.2772H17.4534L15.9679 31.1401H13.8606ZM22.2763 20.8925H22.6455V20.2192H21.8691V20.4813H22.1274C22.098 20.5721 21.9599 20.6167 21.8245 20.6167C21.468 20.6167 21.3963 20.4162 21.3963 20.3016L21.3963 20.2938C21.3959 20.202 21.3948 19.9451 21.7845 19.9451C21.9225 19.9451 22.0396 20.0084 22.0608 20.0977H22.6219C22.5368 19.8099 22.231 19.6404 21.7476 19.6404C21.3191 19.6404 20.8114 19.8268 20.8114 20.2929C20.8114 20.6407 21.1573 20.9217 21.7179 20.9217C21.9253 20.9217 22.1274 20.8755 22.2573 20.7674L22.2763 20.8925ZM33.2636 20.2809C33.2636 20.6544 33.6493 20.9217 34.2258 20.9217C34.8032 20.9217 35.1882 20.6544 35.1882 20.2809C35.1882 19.9073 34.8032 19.6404 34.2258 19.6404C33.6493 19.6404 33.2636 19.9073 33.2636 20.2809ZM31.5021 20.8925H30.9175V19.6695H31.8957C32.4116 19.6695 32.592 19.9127 32.592 20.0874C32.592 20.3836 32.2837 20.5225 31.8473 20.5225H31.5021V20.8925ZM29.0997 20.8925H28.5155V19.6695H29.4935C30.0089 19.6695 30.1895 19.9127 30.1895 20.0874C30.1895 20.3836 29.8812 20.5225 29.4457 20.5225H29.0997V20.8925ZM24.0509 20.8925H23.4661V19.6696H24.5797C24.9117 19.6696 25.1994 19.7876 25.1994 20.0188C25.1994 20.1456 25.1086 20.2793 24.9147 20.3256C25.074 20.3648 25.1727 20.478 25.194 20.6306C25.1953 20.6413 25.1966 20.6547 25.1979 20.6699C25.2042 20.7396 25.2139 20.8461 25.2576 20.8925H24.6729C24.6435 20.8308 24.6329 20.7675 24.6252 20.704L24.625 20.7029C24.609 20.5868 24.5923 20.4659 24.3617 20.4659H24.0509V20.8925ZM27.1046 19.6696H27.6892V20.4195C27.6892 20.7588 27.4047 20.9217 26.8257 20.9217C26.2458 20.9217 25.9586 20.7588 25.9586 20.4195V19.6696H26.5437V20.336C26.5437 20.4609 26.5437 20.6168 26.8282 20.6168C27.1046 20.6168 27.1046 20.4609 27.1046 20.336V19.6696Z" fill="#0559A3"/>
<path d="M23.5102 35.0388C23.5954 34.9884 23.7259 34.9114 23.7259 34.6596V34.0666C23.0412 34.073 21.8717 34.1434 21.8717 34.7296C21.8717 35.0426 22.198 35.2336 22.6829 35.2336C23.0199 35.2336 23.2413 35.182 23.4943 35.0482C23.4993 35.0452 23.5045 35.0421 23.51 35.0389L23.5102 35.0388Z" fill="#0559A3"/>
<path d="M32.953 35.2527H32.6442C32.3168 35.0381 32.0213 35.0015 30.6147 35.0015H29.4866C29.3286 35.0015 29.2129 34.938 29.2129 34.8679C29.2129 34.5997 29.8985 34.5525 30.7369 34.4948C30.8953 34.4839 31.0592 34.4726 31.2249 34.4594C31.4465 34.4468 32.2889 34.2622 32.2889 33.6629C32.2889 33.3817 31.9832 33.1843 31.9832 33.1843C31.9146 33.1221 31.8361 33.068 31.7475 33.0217H32.953V35.2527Z" fill="#0559A3"/>
<path d="M29.4264 36.1409C29.4264 36.5487 30.1321 36.6832 30.6803 36.6832C32.4721 36.6832 32.5461 36.0774 32.5461 35.9755C32.5461 35.5991 32.3562 35.4145 31.0178 35.4145C29.7745 35.4145 29.4264 35.9242 29.4264 36.1409Z" fill="#0559A3"/>
<path d="M29.9221 33.6797C29.9221 33.0743 30.1754 32.9213 30.7014 32.9213C31.3338 32.9213 31.4175 33.3036 31.4175 33.6228C31.4175 34.0179 31.3648 34.3492 30.5968 34.3492C30.0162 34.3492 29.9221 33.9669 29.9221 33.6797Z" fill="#0559A3"/>
<path d="M26.9545 36.6832C26.4061 36.6832 25.7001 36.5487 25.7001 36.1409C25.7001 35.9242 26.0478 35.4145 27.2913 35.4145C28.6287 35.4145 28.8191 35.5991 28.8191 35.9755C28.8191 36.0774 28.7451 36.6832 26.9545 36.6832Z" fill="#0559A3"/>
<path d="M26.9749 32.9213C26.4484 32.9213 26.1956 33.0743 26.1956 33.6797C26.1956 33.9669 26.2902 34.3492 26.8694 34.3492C27.6389 34.3492 27.6917 34.0179 27.6917 33.6228C27.6917 33.3036 27.6075 32.9213 26.9749 32.9213Z" fill="#0559A3"/>
<path d="M85.4261 32.6217C84.9887 31.8641 84.421 30.9031 83.4997 31.435C82.5781 31.9671 83.1269 32.939 83.5643 33.6966C84.0067 34.4629 84.5744 35.4249 85.4961 34.8928C86.4174 34.3609 85.8685 33.388 85.4261 32.6217Z" fill="#0559A3"/>
<path d="M71.1003 14.443C70.8752 14.0531 71.0215 13.8479 71.1499 13.7737C71.2793 13.699 71.5291 13.6755 71.7542 14.0654C71.9792 14.4551 71.8342 14.6601 71.7048 14.7348C71.5764 14.8089 71.3253 14.8326 71.1003 14.443Z" fill="#0559A3"/>
<path d="M69.048 15.0594L68.8224 15.1896L69.0276 15.545L69.2236 15.4318C69.3545 15.3562 69.4874 15.2664 69.3856 15.09C69.2936 14.9306 69.1715 14.9881 69.048 15.0594Z" fill="#0559A3"/>
<path d="M66.9676 16.2605L66.7418 16.3909L66.9469 16.7462L67.1432 16.633C67.2741 16.5574 67.4066 16.4678 67.3048 16.2914C67.2128 16.132 67.092 16.1886 66.9676 16.2605Z" fill="#0559A3"/>
<path d="M62.5879 18.7467L62.3511 18.8834L62.5521 19.2316L62.8169 19.0787C62.911 19.0244 63.0299 18.9324 62.9394 18.7756C62.8758 18.6655 62.7814 18.635 62.5879 18.7467Z" fill="#0559A3"/>
<path fill-rule="evenodd" clip-rule="evenodd" d="M51.1608 21.6031L77.1415 6.60309L92.1415 32.5839L83.3638 37.6517C83.3297 37.4646 83.259 37.2711 83.1445 37.0728C83.0305 36.8753 82.8844 36.7098 82.6981 36.5935L84.0659 35.8037L83.9446 35.5936L83.4069 35.904L81.3893 32.4094C81.1078 32.682 80.7572 32.8962 80.4194 33.0912L79.3149 33.7289C79.1182 33.7668 78.9139 33.8472 78.7006 33.9704C77.7975 34.4918 77.7818 35.4125 78.1138 35.9876C78.4142 36.5078 78.8667 36.6596 79.3931 36.6225L79.4042 36.6417C79.0887 36.8962 78.7944 37.2781 78.8352 37.9234C78.8437 38.0593 78.8518 38.1764 78.8619 38.2762C78.5318 38.2781 78.1412 38.4649 77.2342 38.9886L76.258 39.5522C76.1212 39.6312 75.9684 39.5984 75.9105 39.498C75.6889 39.1142 76.2438 38.7038 76.9223 38.202L76.9224 38.2019C77.0505 38.1071 77.1831 38.0091 77.3156 37.9074C77.4971 37.7785 78.0743 37.093 77.5792 36.2354C77.4885 36.0782 77.3533 35.9558 77.2494 35.8616C77.1844 35.8027 77.1316 35.7549 77.1095 35.7165C77.0562 35.6242 77.1802 35.3832 77.2716 35.3305C77.2969 35.3158 77.3506 35.341 77.4158 35.3716C77.5169 35.419 77.6457 35.4793 77.7397 35.4251C77.9316 35.3143 77.9373 35.0919 77.8323 34.91C77.6951 34.6725 77.4604 34.71 77.2971 34.8042C76.9954 34.9784 76.8898 35.4406 76.919 35.7034C76.4767 35.4851 76.0028 35.528 75.4737 35.8334C74.5705 36.3549 74.5547 37.2756 74.8868 37.8508C75.1871 38.371 75.6396 38.5227 76.1654 38.486L76.1765 38.5052C75.8615 38.7595 75.3802 39.2328 75.6694 39.7336C75.6764 39.7459 75.6777 39.7592 75.6791 39.7738C75.68 39.7832 75.681 39.7931 75.6836 39.8036C75.728 39.9847 75.7843 40.2932 75.6022 40.3984C75.4101 40.5093 75.3257 40.363 75.1678 40.0896L73.9141 37.9181C73.7033 37.5529 73.3975 37.0233 72.1563 37.7399C71.0709 38.3665 71.0125 39.1307 71.2021 39.4593C71.3494 39.7143 71.5925 39.818 71.8391 39.6757C72.0667 39.5443 72.1234 39.3048 71.9914 39.0763C71.8751 38.8747 71.7024 38.8586 71.5883 38.848C71.5319 38.8427 71.4897 38.8388 71.4757 38.8144C71.3227 38.5494 71.9335 38.1126 72.1348 37.9964C72.4535 37.8124 72.8657 37.7453 73.1128 38.1735L73.6133 39.0403C72.2174 39.8461 71.6247 40.8214 72.0867 41.6858C72.4764 42.3607 73.0958 42.2955 73.6705 41.9637C74.1361 41.6949 74.4917 41.258 74.5814 40.6953C74.8398 40.9962 75.1583 41.1047 75.4955 40.9101C75.8144 40.7259 75.9742 40.3879 75.9359 40.041C76.2819 40.2847 76.7073 40.1116 77.0968 39.953L77.1174 39.9447L77.1333 39.9723C76.7461 40.3501 76.2987 40.9237 76.62 41.5452L66.1608 47.5839L51.1608 21.6031ZM86.9231 34.1541L86.8018 33.944L87.5045 33.5383L84.2484 27.8984L83.5456 28.3042L83.4245 28.0944L83.8172 27.8677C84.1553 27.6725 84.4992 27.4489 84.7911 27.1957L88.2159 33.1276L89.2986 32.5025L87.4553 29.31L86.8441 29.6628L86.7225 29.4521L87.024 29.278C87.3617 29.083 87.7118 28.8692 87.9933 28.5966L90.0109 32.0912L90.5491 31.7805L90.6705 31.9906L86.9231 34.1541ZM86.9339 27.6051C87.1537 27.4782 87.5145 27.5368 87.652 27.775C87.815 28.0573 87.7305 28.374 87.466 28.5267C87.2017 28.6793 86.9016 28.5606 86.749 28.2963C86.6115 28.0581 86.7059 27.7368 86.9339 27.6051ZM82.7348 34.1756C82.0976 33.072 82.4361 31.805 83.394 31.2519C84.352 30.6988 85.6185 31.0392 86.2557 32.1428C86.8929 33.2466 86.5595 34.5224 85.6016 35.0755C84.6436 35.6285 83.372 35.2794 82.7348 34.1756ZM80.965 31.6209C80.8284 31.3843 80.4654 31.326 80.2464 31.4524C80.0182 31.5841 79.9255 31.9056 80.0621 32.1422C80.2151 32.4073 80.5141 32.5267 80.7785 32.374C81.0434 32.2211 81.1283 31.9036 80.965 31.6209ZM62.7623 39.9763L62.8836 40.1865L63.5681 39.7913L66.8446 45.4662L66.1601 45.8614L66.2814 46.0716L67.9239 45.1233L67.8025 44.9132L67.1182 45.3083L63.9051 39.7429L63.9233 39.7323L68.9641 44.5227L69.2011 44.3859L67.6365 37.5885L67.6551 37.5778L70.8683 43.1432L70.1656 43.5489L70.2869 43.759L72.5683 42.4418L72.447 42.2317L71.7533 42.6322L68.4769 36.9572L69.1706 36.5567L69.0493 36.3466L67.2333 37.395L68.4836 42.6588L68.4656 42.6692L64.5873 38.9227L62.7623 39.9763ZM61.584 21.1041L61.9038 20.9195L61.3475 19.9561L60.6752 20.3443L60.8917 20.7193L61.1153 20.5901C61.1649 20.7348 61.0822 20.8677 60.965 20.9354C60.6562 21.1137 60.4284 20.8626 60.3337 20.6985L60.3273 20.6874C60.2511 20.5563 60.0379 20.1892 60.3754 19.9944C60.495 19.9253 60.6486 19.9574 60.7408 20.0745L61.2267 19.794C60.9153 19.4247 60.5103 19.3349 60.0916 19.5767C59.7206 19.7909 59.4349 20.3115 59.8201 20.9786C60.1074 21.4763 60.639 21.7054 61.1246 21.4251C61.3041 21.3214 61.441 21.1543 61.4643 20.9347L61.584 21.1041ZM70.594 14.7353C70.9026 15.2698 71.4574 15.4594 71.9567 15.1712C72.4567 14.8825 72.5694 14.3075 72.2608 13.773C71.9521 13.2384 71.3981 13.0489 70.8981 13.3376C70.3988 13.6258 70.2854 14.2007 70.594 14.7353ZM69.5738 16.4912L69.0675 16.7835L68.0571 15.0334L68.9043 14.5443C69.351 14.2864 69.7081 14.5441 69.8526 14.7943C70.0972 15.2181 69.945 15.571 69.5671 15.7892L69.2682 15.9617L69.5738 16.4912ZM67.4932 17.6924L66.9873 17.9845L65.9769 16.2345L66.8239 15.7454C67.2702 15.4878 67.6275 15.7454 67.7719 15.9955C68.0166 16.4193 67.8644 16.7722 67.4873 16.9899L67.1875 17.163L67.4932 17.6924ZM63.1209 20.2168L62.6144 20.5092L61.6041 18.7593L62.5685 18.2025C62.8561 18.0365 63.2026 18.0614 63.3937 18.3923C63.4985 18.5738 63.5303 18.8105 63.4006 18.9738C63.571 18.9502 63.7499 19.0627 63.8944 19.2705C63.9044 19.2851 63.9166 19.3037 63.9303 19.3247C63.9934 19.4214 64.0897 19.569 64.1659 19.6134L63.6595 19.9058C63.5831 19.8323 63.5216 19.747 63.4625 19.6599L63.4614 19.6585C63.3516 19.5003 63.2373 19.3357 63.0376 19.451L62.7685 19.6064L63.1209 20.2168ZM64.7551 16.94L65.2614 16.6476L65.881 17.7208C66.1613 18.2064 66.0495 18.5817 65.5481 18.8712C65.0459 19.1612 64.6626 19.0717 64.3822 18.5862L63.7626 17.513L64.2693 17.2204L64.8199 18.174C64.9231 18.3528 65.0519 18.5759 65.2983 18.4336C65.5377 18.2954 65.4089 18.0724 65.3057 17.8936L64.7551 16.94Z" fill="#0559A3"/>
<path d="M74.3401 40.7306C74.3724 40.616 74.4217 40.4406 74.2137 40.0801L73.7237 39.2316C73.1361 39.5831 72.1814 40.2686 72.6657 41.1074C72.9243 41.5553 73.3648 41.6656 73.7847 41.4231C74.0766 41.2546 74.2256 41.0701 74.3342 40.752C74.336 40.7452 74.338 40.7382 74.3401 40.7309L74.3401 40.7306Z" fill="#0559A3"/>
<path d="M82.6946 36.3153L82.4271 36.4697C81.9664 36.3263 81.6802 36.4217 80.462 37.125L79.4851 37.689C79.3482 37.768 79.1957 37.7351 79.1377 37.6347C78.9161 37.2509 79.4708 36.8407 80.1493 36.3388C80.2775 36.2441 80.4101 36.146 80.5427 36.0442C80.7242 35.9154 81.3012 35.2299 80.8061 34.3724C80.5737 33.9699 80.1458 33.8404 80.1458 33.8404C80.0351 33.7857 79.9224 33.7474 79.8074 33.7255L80.8514 33.1227L82.6946 36.3153Z" fill="#0559A3"/>
<path d="M80.3743 39.3496C80.7112 39.9332 81.4335 39.7728 81.9083 39.4987C83.46 38.6028 83.0236 37.699 82.9394 37.5532C82.6284 37.0145 82.3114 36.8452 81.1523 37.5144C80.0756 38.1361 80.1952 39.0395 80.3743 39.3496Z" fill="#0559A3"/>
<path d="M78.7702 35.5799C78.27 34.7135 78.3629 34.3679 78.8185 34.1049C79.3662 33.7887 79.7545 34.2939 80.0182 34.7506C80.3447 35.3162 80.5727 35.8165 79.9076 36.2005C79.4048 36.4908 79.0074 35.9908 78.7702 35.5799Z" fill="#0559A3"/>
<path d="M78.6816 41.3616C78.2067 41.6358 77.4841 41.7963 77.1472 41.2128C76.9682 40.9027 76.8482 39.9995 77.9251 39.3777C79.0834 38.709 79.4008 38.878 79.7118 39.4167C79.796 39.5625 80.2323 40.4663 78.6816 41.3616Z" fill="#0559A3"/>
<path d="M75.5912 35.9682C75.1353 36.2314 75.0427 36.5768 75.543 37.4432C75.7802 37.854 76.178 38.3538 76.6796 38.0642C77.346 37.6794 77.1181 37.1791 76.7916 36.6136C76.5279 36.1568 76.1391 35.6518 75.5912 35.9682Z" fill="#0559A3"/>
<path d="M33.9157 83.0385C33.9157 82.1189 33.908 80.9458 33.1633 80.9458C32.4183 80.9458 32.4109 82.1189 32.4109 83.0385C32.4109 83.9685 32.4183 85.1426 33.1633 85.1426C33.908 85.1426 33.9157 83.9685 33.9157 83.0385Z" fill="#0559A3"/>
<path d="M31.5938 58.9615C31.5938 58.4883 31.7543 58.3784 31.858 58.3784C31.9626 58.3784 32.1223 58.4883 32.1223 58.9615C32.1223 59.4345 31.9626 59.5449 31.858 59.5449C31.7543 59.5449 31.5938 59.4345 31.5938 58.9615Z" fill="#0559A3"/>
<path d="M30.1339 58.444H29.9515V58.8754H30.1099C30.2158 58.8754 30.3278 58.8635 30.3278 58.6494C30.3278 58.4559 30.2337 58.444 30.1339 58.444Z" fill="#0559A3"/>
<path d="M28.4523 58.444H28.2698V58.8754H28.4284C28.5342 58.8754 28.6459 58.8635 28.6459 58.6494C28.6459 58.4559 28.5529 58.444 28.4523 58.444Z" fill="#0559A3"/>
<path d="M24.927 58.4055H24.7356V58.828H24.9497C25.0258 58.828 25.13 58.8068 25.13 58.6165C25.13 58.4828 25.0834 58.4055 24.927 58.4055Z" fill="#0559A3"/>
<path fill-rule="evenodd" clip-rule="evenodd" d="M17 55H38V86.5334H30.905C30.9499 86.3452 30.9747 86.1318 30.9747 85.8911C30.9747 85.6515 30.944 85.424 30.8719 85.2202H31.9775V84.9651H31.5429V80.7237C31.2769 80.8238 30.9893 80.8345 30.7163 80.8345H29.8235C29.691 80.7656 29.539 80.7315 29.3666 80.7315C28.6366 80.7315 28.3049 81.5614 28.3049 82.2594C28.3049 82.8908 28.526 83.2667 28.8581 83.5096V83.533C28.5778 83.5989 28.2657 83.7918 28.0647 84.4006C28.0222 84.5288 27.9861 84.6397 27.9574 84.7358C27.7565 84.5641 27.4544 84.5289 26.7212 84.5289H25.9322C25.8216 84.5289 25.7405 84.4187 25.7405 84.2969C25.7405 83.831 26.2205 83.7491 26.8075 83.6489L26.8076 83.6489C26.9184 83.63 27.0331 83.6104 27.149 83.5874C27.3041 83.5656 27.894 83.2448 27.894 82.204C27.894 82.0132 27.855 81.8307 27.8249 81.6904C27.8061 81.6026 27.7909 81.5313 27.7909 81.4848C27.7909 81.3727 27.9504 81.2185 28.0243 81.2185C28.0447 81.2185 28.0685 81.2697 28.0973 81.3318C28.142 81.428 28.1989 81.5507 28.2749 81.5507C28.43 81.5507 28.5113 81.3513 28.5113 81.1305C28.5113 80.8422 28.3559 80.753 28.2239 80.753C27.9801 80.753 27.7543 81.1181 27.68 81.3727C27.4883 80.9416 27.1859 80.7315 26.7583 80.7315C26.0282 80.7315 25.6964 81.5614 25.6964 82.2594C25.6964 82.8908 25.9176 83.2667 26.2492 83.5096V83.533C25.9693 83.5989 25.5119 83.7768 25.5119 84.3847C25.5119 84.3995 25.508 84.4123 25.5037 84.4263C25.501 84.4354 25.4981 84.4449 25.496 84.4558C25.4595 84.644 25.3857 84.9545 25.2385 84.9545C25.0832 84.9545 25.0832 84.777 25.0832 84.4451V81.8095C25.0832 81.3663 25.0832 80.7234 24.08 80.7234C23.2027 80.7234 22.8998 81.3884 22.8998 81.7872C22.8998 82.0967 23.0108 82.3189 23.2102 82.3189C23.3941 82.3189 23.5123 82.1307 23.5123 81.8533C23.5123 81.6087 23.4133 81.5033 23.3478 81.4336C23.3155 81.3992 23.2913 81.3734 23.2913 81.3439C23.2913 81.0223 23.8145 80.9457 23.9772 80.9457C24.2348 80.9457 24.5081 81.1013 24.5081 81.6209V82.6729C23.3798 82.6729 22.6792 83.2491 22.6567 84.2788C22.6567 85.0979 23.055 85.3642 23.5196 85.3642C23.8959 85.3642 24.2644 85.1534 24.5157 84.6883C24.567 85.0979 24.7222 85.3642 24.9947 85.3642C25.2525 85.3642 25.4676 85.1405 25.5659 84.8046C25.6903 85.2082 26.0088 85.2742 26.3004 85.3346L26.3158 85.3378V85.3713C25.9488 85.5117 25.4768 85.7987 25.4541 86.5334H17V55ZM34.2869 85.2202V84.9652H34.8549V78.12H34.2869V77.8654H34.6043C34.8776 77.8654 35.1644 77.8426 35.4299 77.7655V84.9652L36.305 84.9651V81.0903H35.811V80.8345H36.0547C36.3277 80.8345 36.6148 80.8238 36.8808 80.7237V84.9651H37.3159V85.2202L34.2869 85.2202ZM36.5856 79.2644C36.7632 79.2644 36.9615 79.5073 36.9615 79.7964C36.9615 80.139 36.7994 80.3829 36.5856 80.3829C36.372 80.3829 36.2316 80.1171 36.2316 79.7964C36.2316 79.5073 36.4013 79.2644 36.5856 79.2644ZM31.7403 83.0385C31.7403 81.699 32.389 80.7236 33.1633 80.7236C33.9376 80.7236 34.5863 81.699 34.5863 83.0385C34.5863 84.3782 33.9376 85.3643 33.1633 85.3643C32.389 85.3643 31.7403 84.3782 31.7403 83.0385ZM31.5617 79.7829C31.5617 79.4957 31.362 79.2518 31.185 79.2518C31.0006 79.2518 30.8318 79.4957 30.8318 79.7829C30.8318 80.1046 30.9712 80.3704 31.185 80.3704C31.3991 80.3704 31.5617 80.126 31.5617 79.7829ZM17.6024 77.8222V78.0773H18.1557V84.9651H17.6024V85.2201H18.93V84.9651H18.3769V78.2103H18.3916L19.7709 85.2201H19.9624L21.393 78.2103H21.408V84.9651H20.84V85.2201H22.6841V84.9651H22.1234V78.0773H22.6841V77.8222H21.2163L20.1319 83.2709H20.1174L19.0775 77.8222H17.6024ZM23.4934 60.0238H23.7518V58.8545H23.2084V59.3096H23.3892C23.3686 59.4673 23.2719 59.5449 23.1772 59.5449C22.9276 59.5449 22.8774 59.1966 22.8774 58.9974L22.8774 58.984C22.8771 58.8246 22.8764 58.3784 23.1491 58.3784C23.2458 58.3784 23.3277 58.4883 23.3426 58.6434H23.7354C23.6758 58.1436 23.4617 57.849 23.1233 57.849C22.8234 57.849 22.468 58.1728 22.468 58.9825C22.468 59.5865 22.7101 60.0745 23.1025 60.0745C23.2477 60.0745 23.3892 59.9943 23.4801 59.8066L23.4934 60.0238ZM31.1845 58.9615C31.1845 59.6103 31.4545 60.0745 31.858 60.0745C32.2622 60.0745 32.5317 59.6103 32.5317 58.9615C32.5317 58.3128 32.2622 57.8491 31.858 57.8491C31.4545 57.8491 31.1845 58.3128 31.1845 58.9615ZM29.9515 60.0238H29.5422V57.8997H30.227C30.5881 57.8997 30.7144 58.322 30.7144 58.6256C30.7144 59.1399 30.4986 59.3812 30.1931 59.3812H29.9515V60.0238ZM28.2698 60.0238H27.8608V57.8997H28.5454C28.9062 57.8997 29.0326 58.322 29.0326 58.6256C29.0326 59.1399 28.8169 59.3812 28.512 59.3812H28.2698V60.0238ZM24.7356 60.0238H24.3262V57.8999H25.1058C25.3382 57.8999 25.5396 58.1048 25.5396 58.5063C25.5396 58.7267 25.476 58.9589 25.3403 59.0393C25.4518 59.1073 25.5209 59.3038 25.5358 59.5689C25.5367 59.5874 25.5376 59.6108 25.5385 59.6371C25.543 59.7583 25.5497 59.9433 25.5803 60.0238H25.171C25.1504 59.9167 25.143 59.8068 25.1376 59.6964L25.1375 59.6945C25.1263 59.4929 25.1146 59.2829 24.9532 59.2829H24.7356V60.0238ZM26.8732 57.8998H27.2825V59.2023C27.2825 59.7917 27.0833 60.0745 26.678 60.0745C26.2721 60.0745 26.071 59.7917 26.071 59.2023V57.8998H26.4806V59.0572C26.4806 59.2742 26.4806 59.5449 26.6798 59.5449C26.8732 59.5449 26.8732 59.2742 26.8732 59.0572V57.8998Z" fill="#0559A3"/>
<path d="M24.3571 84.5936C24.4168 84.5062 24.5081 84.3725 24.5081 83.935V82.9051C24.0288 82.9163 23.2102 83.0386 23.2102 84.0566C23.2102 84.6002 23.4386 84.9321 23.778 84.9321C24.0139 84.9321 24.1689 84.8424 24.346 84.61C24.3495 84.6047 24.3532 84.5994 24.357 84.5938L24.3571 84.5936Z" fill="#0559A3"/>
<path d="M30.9671 84.9651H30.7509C30.5218 84.5924 30.3149 84.5289 29.3303 84.5289H28.5406C28.43 84.5289 28.3491 84.4187 28.3491 84.2969C28.3491 83.831 28.8289 83.7491 29.4159 83.6489C29.5267 83.63 29.6414 83.6104 29.7574 83.5874C29.9125 83.5656 30.5023 83.2448 30.5023 82.204C30.5023 81.7155 30.2882 81.3727 30.2882 81.3727C30.2402 81.2648 30.1853 81.1707 30.1232 81.0903H30.9671V84.9651Z" fill="#0559A3"/>
<path d="M28.4985 86.5078C28.4985 87.2161 28.9925 87.4497 29.3762 87.4497C30.6304 87.4497 30.6823 86.3977 30.6823 86.2207C30.6823 85.5669 30.5493 85.2462 29.6125 85.2462C28.7421 85.2462 28.4985 86.1314 28.4985 86.5078Z" fill="#0559A3"/>
<path d="M28.8454 82.2332C28.8454 81.1817 29.0227 80.9159 29.391 80.9159C29.8336 80.9159 29.8923 81.5799 29.8923 82.1343C29.8923 82.8206 29.8553 83.3959 29.3178 83.3959C28.9114 83.3959 28.8454 82.7319 28.8454 82.2332Z" fill="#0559A3"/>
<path d="M26.7681 87.4497C26.3842 87.4497 25.8901 87.2161 25.8901 86.5078C25.8901 86.1314 26.1334 85.2462 27.0039 85.2462C27.9401 85.2462 28.0734 85.5669 28.0734 86.2207C28.0734 86.3977 28.0216 87.4497 26.7681 87.4497Z" fill="#0559A3"/>
<path d="M26.7824 80.9159C26.4139 80.9159 26.2369 81.1817 26.2369 82.2332C26.2369 82.7319 26.3031 83.3959 26.7086 83.3959C27.2473 83.3959 27.2842 82.8206 27.2842 82.1343C27.2842 81.5799 27.2252 80.9159 26.7824 80.9159Z" fill="#0559A3"/>
<path d="M81.1653 83.6751C81.1653 82.8003 81.1543 81.6842 80.0904 81.6842C79.0262 81.6842 79.0155 82.8003 79.0155 83.6751C79.0155 84.5599 79.0262 85.6769 80.0904 85.6769C81.1543 85.6769 81.1653 84.5599 81.1653 83.6751Z" fill="#0559A3"/>
<path d="M77.8482 60.7689C77.8482 60.3187 78.0775 60.2141 78.2258 60.2141C78.3752 60.2141 78.6033 60.3187 78.6033 60.7689C78.6033 61.2189 78.3752 61.3239 78.2258 61.3239C78.0775 61.3239 77.8482 61.2189 77.8482 60.7689Z" fill="#0559A3"/>
<path d="M75.7627 60.2766H75.7073C75.594 60.2766 75.5021 60.3684 75.5021 60.4818V60.4818C75.5021 60.5951 75.594 60.6869 75.7073 60.6869H75.7285C75.8797 60.6869 76.0397 60.6756 76.0397 60.4719C76.0397 60.2879 75.9053 60.2766 75.7627 60.2766Z" fill="#0559A3"/>
<path d="M73.3604 60.2766H73.3048C73.1915 60.2766 73.0997 60.3684 73.0997 60.4818V60.4818C73.0997 60.5951 73.1915 60.6869 73.3048 60.6869H73.3262C73.4774 60.6869 73.637 60.6756 73.637 60.4719C73.637 60.2879 73.5041 60.2766 73.3604 60.2766Z" fill="#0559A3"/>
<path d="M68.3244 60.2399H68.2519C68.1409 60.2399 68.0509 60.3299 68.0509 60.4409V60.4409C68.0509 60.5519 68.1409 60.6419 68.2519 60.6419H68.3567C68.4654 60.6419 68.6143 60.6217 68.6143 60.4406C68.6143 60.3134 68.5478 60.2399 68.3244 60.2399Z" fill="#0559A3"/>
<path fill-rule="evenodd" clip-rule="evenodd" d="M57 59C57 57.8954 57.8954 57 59 57H85C86.1046 57 87 57.8954 87 59V85C87 86.1046 86.1046 87 85 87H77.4864C77.1833 87 76.9639 86.6922 76.9639 86.389V86.389V86.389C76.9639 86.0891 77.1787 85.7507 77.4786 85.7507H78.2751C78.3421 85.7507 78.3964 85.6964 78.3964 85.6294V85.6294C78.3964 85.5624 78.3421 85.5081 78.2751 85.5081H78.086C77.9145 85.5081 77.7755 85.3691 77.7755 85.1976V82.6614C77.7755 82.0578 77.1983 81.5783 76.5947 81.5783V81.5783H75.6557C75.433 81.5783 75.2129 81.5321 74.9923 81.5016C74.89 81.4874 74.7814 81.4803 74.6665 81.4803C73.6237 81.4803 73.1498 82.2698 73.1498 82.9339C73.1498 83.531 73.462 83.888 73.9317 84.1192C73.9369 84.1217 73.9402 84.127 73.9402 84.1327V84.1327C73.9402 84.1401 73.9348 84.1463 73.9276 84.1475C73.5304 84.2121 73.0909 84.3979 72.8067 84.971V84.971C72.7222 85.1409 72.5074 85.2101 72.3218 85.1706C72.0309 85.1086 71.6028 85.093 70.8875 85.093H69.7603C69.6023 85.093 69.4864 84.9882 69.4864 84.8723C69.4864 84.4291 70.1721 84.3512 71.0106 84.2558L71.0108 84.2558C71.1692 84.2378 71.333 84.2192 71.4986 84.1974C71.7202 84.1765 72.5629 83.8714 72.5629 82.8812C72.5629 82.6997 72.5071 82.5261 72.4642 82.3925C72.4373 82.3091 72.4155 82.2412 72.4155 82.1969C72.4155 82.0903 72.6435 81.9436 72.7489 81.9436C72.7782 81.9436 72.8121 81.9923 72.8533 82.0514C72.9171 82.143 72.9985 82.2596 73.107 82.2596C73.3286 82.2596 73.4447 82.0699 73.4447 81.8599C73.4447 81.5856 73.2227 81.5007 73.0341 81.5007V81.5007C72.5917 81.5007 71.8621 81.6318 71.4311 81.5319C71.2825 81.4974 71.1192 81.4803 70.9405 81.4803C69.8975 81.4803 69.4235 82.2698 69.4235 82.9339C69.4235 83.531 69.7357 83.888 70.2048 84.1192C70.2099 84.1217 70.2132 84.127 70.2132 84.1327V84.1327C70.2132 84.1401 70.208 84.1463 70.2007 84.1475C69.7998 84.2118 69.1598 84.3835 69.1598 84.9558C69.1598 84.9699 69.1543 84.9821 69.1482 84.9955C69.1443 85.004 69.1401 85.0131 69.1371 85.0235C69.0851 85.2025 68.9796 85.4979 68.7693 85.4979C68.5475 85.4979 68.5475 85.3291 68.5475 85.0133V82.5059C68.5475 82.0842 68.5475 81.4726 67.1143 81.4726C65.861 81.4726 65.4282 82.1053 65.4282 82.4846C65.4282 82.7791 65.5869 82.9905 65.8717 82.9905C66.1344 82.9905 66.3033 82.8114 66.3033 82.5475C66.3033 82.3148 66.1619 82.2146 66.0683 82.1482C66.0221 82.1155 65.9875 82.091 65.9875 82.0629C65.9875 81.7569 66.7349 81.684 66.9674 81.684C67.3354 81.684 67.7259 81.8321 67.7259 82.3264V82.3264C67.7259 82.8792 67.2731 83.3102 66.7294 83.4102C65.7106 83.5975 65.1059 84.0972 65.081 84.8551C65.081 85.6344 65.6501 85.8877 66.3137 85.8877C66.5094 85.8877 66.7036 85.8611 66.8888 85.806C67.2793 85.6897 68.0136 85.8877 68.421 85.8877V85.8877V85.8877C68.8218 85.8877 69.7053 85.771 70.1014 85.8329C70.1632 85.8425 70.2251 85.8511 70.2863 85.8595L70.2916 85.8603C70.3011 85.8616 70.3083 85.8698 70.3083 85.8794V85.8794C70.3083 85.8883 70.3024 85.896 70.2938 85.8982C70.0571 85.9594 69.7915 86.0492 69.5689 86.1937C69.1071 86.4937 68.644 87 68.0933 87H59C57.8954 87 57 86.1046 57 85V59ZM81.8169 85.7507C81.7499 85.7507 81.6956 85.6964 81.6956 85.6294V85.6294C81.6956 85.5624 81.7499 85.5081 81.8169 85.5081H82.1013C82.3254 85.5081 82.507 85.3264 82.507 85.1024V79.4015C82.507 79.1774 82.3254 78.9957 82.1013 78.9957H81.8167C81.7498 78.9957 81.6956 78.9415 81.6956 78.8746V78.8746C81.6956 78.8078 81.7498 78.7535 81.8167 78.7535H82.149V78.7535C82.7635 78.7535 83.3284 79.229 83.3284 79.8436V84.883C83.3284 85.2282 83.6083 85.5081 83.9535 85.5081V85.5081C84.2987 85.5081 84.5786 85.2282 84.5786 84.883V82.1745C84.5786 81.9796 84.4206 81.8216 84.2257 81.8216H83.9945C83.9273 81.8216 83.8728 81.7672 83.8728 81.7V81.7C83.8728 81.6328 83.9273 81.5783 83.9945 81.5783H84.221V81.5783C84.8242 81.5783 85.4011 82.0575 85.4011 82.6607V85.1973C85.4011 85.3689 85.5402 85.5081 85.7119 85.5081H85.9013C85.9683 85.5081 86.0226 85.5624 86.0226 85.6294V85.6294C86.0226 85.6964 85.9683 85.7507 85.9013 85.7507L81.8169 85.7507ZM84.9794 80.0845C85.2332 80.0845 85.5164 80.3156 85.5164 80.5906C85.5164 80.9166 85.2848 81.1487 84.9794 81.1487C84.6743 81.1487 84.4737 80.8958 84.4737 80.5906C84.4737 80.3156 84.7162 80.0845 84.9794 80.0845ZM78.0576 83.6751C78.0576 82.4008 78.9843 81.4727 80.0904 81.4727C81.1966 81.4727 82.1232 82.4008 82.1232 83.6751C82.1232 84.9496 81.1966 85.8878 80.0904 85.8878C78.9843 85.8878 78.0576 84.9496 78.0576 83.6751ZM77.8024 80.5778C77.8024 80.3046 77.5171 80.0726 77.2643 80.0726C77.0008 80.0726 76.7597 80.3046 76.7597 80.5778C76.7597 80.8839 76.9589 81.1367 77.2643 81.1367C77.5701 81.1367 77.8024 80.9043 77.8024 80.5778ZM57.9819 78.7125C57.9149 78.7125 57.8606 78.7668 57.8606 78.8338V78.8338C57.8606 78.9008 57.9149 78.9551 57.9819 78.9551H58.2558C58.4741 78.9551 58.651 79.1321 58.651 79.3503V85.1128C58.651 85.3311 58.4741 85.508 58.2558 85.508H57.9819C57.9149 85.508 57.8606 85.5623 57.8606 85.6293V85.6293C57.8606 85.6963 57.9149 85.7507 57.9819 85.7507H59.6358C59.7028 85.7507 59.7572 85.6963 59.7572 85.6293V85.6293C59.7572 85.5623 59.7028 85.508 59.6358 85.508H59.3621C59.1439 85.508 58.967 85.3311 58.967 85.1129V79.0937C58.967 79.087 58.9724 79.0816 58.979 79.0816V79.0816C58.9844 79.0816 58.9891 79.0852 58.9906 79.0903L60.9194 85.6187C60.9425 85.697 61.0143 85.7507 61.0959 85.7507V85.7507C61.1768 85.7507 61.2482 85.6979 61.2719 85.6205L63.273 79.0904C63.2746 79.0852 63.2794 79.0816 63.2848 79.0816V79.0816C63.2916 79.0816 63.2972 79.0872 63.2972 79.094V85.1023C63.2972 85.3264 63.1155 85.508 62.8914 85.508H62.607C62.54 85.508 62.4857 85.5623 62.4857 85.6293V85.6293C62.4857 85.6963 62.54 85.7507 62.607 85.7507H64.9988C65.0658 85.7507 65.1201 85.6963 65.1201 85.6293V85.6293C65.1201 85.5623 65.0658 85.508 64.9988 85.508H64.7196C64.4984 85.508 64.3191 85.3287 64.3191 85.1075V79.3556C64.3191 79.1344 64.4984 78.9551 64.7196 78.9551H64.9988C65.0658 78.9551 65.1201 78.9008 65.1201 78.8338V78.8338C65.1201 78.7668 65.0658 78.7125 64.9988 78.7125H63.9184C63.3872 78.7125 62.9191 79.0612 62.767 79.5701L61.4772 83.8863C61.4754 83.8922 61.47 83.8962 61.4638 83.8962V83.8962C61.4576 83.8962 61.4522 83.8921 61.4505 83.8861L60.2174 79.5831C60.0697 79.0677 59.5984 78.7125 59.0622 78.7125H57.9819ZM66.2714 61.7267C66.2742 61.7566 66.2993 61.7795 66.3294 61.7795H66.4524C66.559 61.7795 66.6455 61.6931 66.6455 61.5865V61.0552C66.6455 60.8408 66.4717 60.667 66.2573 60.667H66.0856C65.9661 60.667 65.8691 60.764 65.8691 60.8835V60.9834C65.8691 61.0478 65.9213 61.1 65.9857 61.1V61.1C66.0591 61.1 66.1145 61.171 66.0653 61.2254C66.0056 61.2913 65.9145 61.3239 65.8245 61.3239C65.468 61.3239 65.3963 60.9925 65.3963 60.8031L65.3963 60.7902C65.3959 60.6386 65.3948 60.2141 65.7845 60.2141C65.8441 60.2141 65.8997 60.2336 65.9455 60.2676C66.0541 60.3483 66.1613 60.4663 66.2966 60.4663V60.4663C66.4662 60.4663 66.5986 60.3092 66.5225 60.1576C66.3791 59.8719 66.1145 59.7105 65.7476 59.7105C65.3191 59.7105 64.8114 60.0186 64.8114 60.7888C64.8114 61.3635 65.1573 61.8277 65.7179 61.8277C65.8752 61.8277 66.0294 61.7838 66.1514 61.6847C66.1931 61.6509 66.2665 61.6732 66.2714 61.7267V61.7267ZM77.2636 60.7689C77.2636 61.3862 77.6493 61.8278 78.2258 61.8278C78.8032 61.8278 79.1882 61.3862 79.1882 60.7689C79.1882 60.1517 78.8032 59.7105 78.2258 59.7105C77.6493 59.7105 77.2636 60.1517 77.2636 60.7689ZM75.5021 61.4872C75.5021 61.6486 75.3713 61.7795 75.2098 61.7795V61.7795C75.0484 61.7795 74.9175 61.6486 74.9175 61.4872V60.737C74.9175 60.1967 75.3555 59.7587 75.8957 59.7587V59.7587C76.4116 59.7587 76.592 60.1605 76.592 60.4493C76.592 60.9386 76.2837 61.1681 75.8473 61.1681H75.8078C75.639 61.1681 75.5021 61.305 75.5021 61.4738V61.4872ZM73.0997 61.4874C73.0997 61.6487 72.9689 61.7795 72.8076 61.7795V61.7795C72.6462 61.7795 72.5155 61.6487 72.5155 61.4874V60.7367C72.5155 60.1966 72.9533 59.7587 73.4935 59.7587V59.7587C74.0089 59.7587 74.1895 60.1605 74.1895 60.4493C74.1895 60.9386 73.8812 61.1681 73.4457 61.1681H73.4053C73.2365 61.1681 73.0997 61.305 73.0997 61.4738V61.4874ZM68.0509 61.487C68.0509 61.6485 67.92 61.7795 67.7585 61.7795V61.7795C67.597 61.7795 67.4661 61.6485 67.4661 61.487V60.7692C67.4661 60.2112 67.9184 59.7589 68.4763 59.7589H68.5797C68.9117 59.7589 69.1994 59.9538 69.1994 60.3358C69.1994 60.3397 69.1994 60.3435 69.1993 60.3473C69.1959 60.566 69.1756 61.1287 69.194 61.3467V61.3467C69.1953 61.3644 69.1966 61.3866 69.1979 61.4117V61.4117C69.2071 61.5786 69.0497 61.7795 68.8826 61.7795H68.8507C68.7454 61.7795 68.6516 61.7097 68.6383 61.6053C68.6325 61.5598 68.6285 61.5139 68.6252 61.468L68.625 61.4662C68.609 61.2744 68.5923 61.0746 68.3617 61.0746V61.0746C68.1901 61.0746 68.0509 61.2138 68.0509 61.3854V61.487ZM71.1046 60.0511C71.1046 59.8897 71.2355 59.7588 71.3969 59.7588V59.7588C71.5584 59.7588 71.6892 59.8897 71.6892 60.0511V60.998C71.6892 61.5587 71.4047 61.8278 70.8257 61.8278C70.2458 61.8278 69.9586 61.5587 69.9586 60.998V60.0513C69.9586 59.8898 70.0896 59.7588 70.2512 59.7588V59.7588C70.4127 59.7588 70.5437 59.8898 70.5437 60.0513V60.8599C70.5437 61.0664 70.5437 61.3239 70.8282 61.3239C71.1046 61.3239 71.1046 61.0664 71.1046 60.8599V60.0511Z" fill="#0559A3"/>
<path d="M67.5102 85.1546C67.5954 85.0715 67.7259 84.9442 67.7259 84.528V84.528C67.7259 83.9894 67.2749 83.5221 66.7556 83.6654C66.2801 83.7966 65.8717 84.0713 65.8717 84.6437C65.8717 85.1609 66.198 85.4766 66.6829 85.4766C67.0199 85.4766 67.2413 85.3913 67.4943 85.1702C67.4993 85.1652 67.5045 85.1601 67.51 85.1548L67.5102 85.1546Z" fill="#0559A3"/>
<path d="M76.953 85.2933C76.953 85.4119 76.8568 85.5081 76.7382 85.5081V85.5081C76.6783 85.5081 76.6216 85.4823 76.5785 85.4407C76.2723 85.1456 75.9271 85.093 74.6147 85.093H73.4866C73.3286 85.093 73.2129 84.9882 73.2129 84.8723C73.2129 84.4291 73.8985 84.3512 74.7369 84.2558C74.8953 84.2378 75.0592 84.2192 75.2249 84.1974C75.4465 84.1765 76.2889 83.8714 76.2889 82.8812C76.2889 82.4585 76.0359 82.1504 75.9902 82.0982C75.9855 82.0928 75.981 82.0871 75.977 82.0812V82.0812C75.9097 81.982 75.9755 81.8216 76.0953 81.8216H76.6263C76.8067 81.8216 76.953 81.9679 76.953 82.1483V85.2933Z" fill="#0559A3"/>
<path d="M73.4264 86.9757C73.4264 87.6495 74.1321 87.8718 74.6803 87.8718C76.4721 87.8718 76.5461 86.8709 76.5461 86.7025C76.5461 86.0805 76.3562 85.7754 75.0178 85.7754C73.7745 85.7754 73.4264 86.6176 73.4264 86.9757Z" fill="#0559A3"/>
<path d="M73.9221 82.909C73.9221 81.9086 74.1754 81.6557 74.7014 81.6557C75.3338 81.6557 75.4175 82.2875 75.4175 82.8148C75.4175 83.4678 75.3648 84.0151 74.5968 84.0151C74.0162 84.0151 73.9221 83.3834 73.9221 82.909Z" fill="#0559A3"/>
<path d="M70.9545 87.8718C70.4061 87.8718 69.7001 87.6495 69.7001 86.9757C69.7001 86.6176 70.0478 85.7754 71.2913 85.7754C72.6287 85.7754 72.8191 86.0805 72.8191 86.7025C72.8191 86.8709 72.7451 87.8718 70.9545 87.8718Z" fill="#0559A3"/>
<path d="M70.9749 81.6557C70.4484 81.6557 70.1956 81.9086 70.1956 82.909C70.1956 83.3834 70.2902 84.0151 70.8694 84.0151C71.6389 84.0151 71.6917 83.4678 71.6917 82.8148C71.6917 82.2875 71.6075 81.6557 70.9749 81.6557Z" fill="#0559A3"/>
</svg>
