<svg width="100" height="100" viewBox="0 0 100 100" fill="none" xmlns="http://www.w3.org/2000/svg">
<rect width="100" height="100" fill="white"/>
<path d="M68.3307 73.3502C68.3307 71.6005 68.3085 69.3683 66.1809 69.3683C64.0523 69.3683 64.0311 71.6005 64.0311 73.3502C64.0311 75.1197 64.0523 77.3537 66.1809 77.3537C68.3085 77.3537 68.3307 75.1197 68.3307 73.3502Z" fill="#C9AC00"/>
<path d="M61.6965 27.5378C61.6965 26.6374 62.155 26.4283 62.4515 26.4283C62.7503 26.4283 63.2066 26.6374 63.2066 27.5378C63.2066 28.4378 62.7503 28.6478 62.4515 28.6478C62.155 28.6478 61.6965 28.4378 61.6965 27.5378Z" fill="#C9AC00"/>
<path d="M57.5253 26.5531H57.0043V27.3739H57.457C57.7594 27.3739 58.0794 27.3512 58.0794 26.9438C58.0794 26.5758 57.8105 26.5531 57.5253 26.5531Z" fill="#C9AC00"/>
<path d="M52.7208 26.5531H52.1993V27.3739H52.6524C52.9548 27.3739 53.274 27.3512 53.274 26.9438C53.274 26.5758 53.0083 26.5531 52.7208 26.5531Z" fill="#C9AC00"/>
<path d="M42.6487 26.4798H42.1019V27.2837H42.7134C42.9307 27.2837 43.2286 27.2434 43.2286 26.8813C43.2286 26.6269 43.0955 26.4798 42.6487 26.4798Z" fill="#C9AC00"/>
<path fill-rule="evenodd" clip-rule="evenodd" d="M20 20H80V80.0001H59.7286C59.8567 79.642 59.9278 79.236 59.9278 78.7781C59.9278 78.322 59.8401 77.8892 59.6339 77.5014H62.7928V77.0161H61.5511V68.9457C60.791 69.1362 59.9694 69.1566 59.1894 69.1566H56.6386C56.26 69.0255 55.8258 68.9606 55.333 68.9606C53.2475 68.9606 52.2996 70.5396 52.2996 71.8678C52.2996 73.0692 52.9315 73.7845 53.8804 74.2467V74.291C53.0796 74.4164 52.1878 74.7836 51.6133 75.942C51.492 76.1859 51.389 76.3969 51.3067 76.5798C50.733 76.253 49.8697 76.186 47.775 76.186H45.5206C45.2046 76.186 44.9728 75.9764 44.9728 75.7446C44.9728 74.8582 46.3443 74.7023 48.0213 74.5116L48.0216 74.5116C48.3383 74.4756 48.6659 74.4383 48.9972 74.3947C49.4404 74.3531 51.1258 73.7428 51.1258 71.7623C51.1258 71.3993 51.0142 71.0521 50.9283 70.785C50.8747 70.6181 50.8311 70.4825 50.8311 70.3938C50.8311 70.1806 51.2869 69.8873 51.4979 69.8873C51.5563 69.8873 51.6242 69.9846 51.7066 70.1028C51.8343 70.2859 51.997 70.5192 52.214 70.5192C52.6572 70.5192 52.8894 70.1399 52.8894 69.7198C52.8894 69.1711 52.4453 69.0014 52.0683 69.0014C51.3716 69.0014 50.7265 69.6963 50.5142 70.1806C49.9664 69.3604 49.1027 68.9606 47.8809 68.9606C45.7949 68.9606 44.847 70.5396 44.847 71.8678C44.847 73.0692 45.4789 73.7845 46.4264 74.2467V74.291C45.6265 74.4164 44.3196 74.755 44.3196 75.9117C44.3196 75.9399 44.3085 75.9642 44.2964 75.9909C44.2885 76.0081 44.2803 76.0262 44.2742 76.047C44.1701 76.4051 43.9592 76.9958 43.5386 76.9958C43.095 76.9958 43.095 76.6581 43.095 76.0266V71.0118C43.095 70.1684 43.095 68.9452 40.2286 68.9452C37.722 68.9452 36.8565 70.2105 36.8565 70.9692C36.8565 71.5582 37.1738 71.981 37.7433 71.981C38.2689 71.981 38.6066 71.6229 38.6066 71.0951C38.6066 70.6297 38.3237 70.4291 38.1366 70.2965C38.0442 70.231 37.9751 70.182 37.9751 70.1259C37.9751 69.5138 39.4699 69.3681 39.9348 69.3681C40.6708 69.3681 41.4517 69.6641 41.4517 70.6528V72.6546C38.2281 72.6546 36.2264 73.751 36.1621 75.7102C36.1621 77.2688 37.3001 77.7754 38.6274 77.7754C39.7025 77.7754 40.7555 77.3743 41.4735 76.4893C41.6201 77.2688 42.0633 77.7754 42.8419 77.7754C43.5786 77.7754 44.1933 77.3497 44.4739 76.7106C44.8294 77.4787 45.7394 77.6042 46.5725 77.719L46.6166 77.7251V77.7889C45.568 78.0562 44.2196 78.6022 44.1546 80.0001H20V20ZM69.3912 77.5014V77.0161H71.0141V63.9915H69.3912V63.5071H70.2979C71.0788 63.5071 71.8982 63.4636 72.6569 63.317V77.0161L75.1572 77.0161V69.6432H73.7457V69.1566H74.4419C75.2219 69.1566 76.0422 69.1362 76.8022 68.9457V77.0161H78.0453V77.5014L69.3912 77.5014ZM75.9589 66.169C76.4664 66.169 77.0328 66.6312 77.0328 67.1813C77.0328 67.8332 76.5696 68.2973 75.9589 68.2973C75.3486 68.2973 74.9474 67.7916 74.9474 67.1813C74.9474 66.6312 75.4323 66.169 75.9589 66.169ZM62.1153 73.3502C62.1153 70.8015 63.9686 68.9455 66.1809 68.9455C68.3932 68.9455 70.2465 70.8015 70.2465 73.3502C70.2465 75.8992 68.3932 77.7756 66.1809 77.7756C63.9686 77.7756 62.1153 75.8992 62.1153 73.3502ZM61.6047 67.1557C61.6047 66.6092 61.0343 66.1451 60.5286 66.1451C60.0016 66.1451 59.5194 66.6092 59.5194 67.1557C59.5194 67.7678 59.9178 68.2735 60.5286 68.2735C61.1402 68.2735 61.6047 67.8085 61.6047 67.1557ZM21.7212 63.425V63.9102H23.302V77.016H21.7212V77.5013H25.5143V77.016H23.934V64.1633H23.9761L27.9167 77.5013H28.464L32.5513 64.1633H32.5943V77.016H30.9715V77.5013H36.2403V77.016H34.6382V63.9102H36.2403V63.425H32.0466L28.9484 73.7924H28.9068L25.9358 63.425H21.7212ZM38.5526 29.559H39.291V27.3341H37.7382V28.2001H38.2548C38.1959 28.5002 37.9198 28.6478 37.6491 28.6478C36.9361 28.6478 36.7926 27.985 36.7926 27.6061L36.7925 27.5805C36.7918 27.2772 36.7896 26.4282 37.5689 26.4282C37.8451 26.4282 38.0791 26.6374 38.1217 26.9325H39.2439C39.0737 25.9814 38.4621 25.421 37.4952 25.421C36.6382 25.421 35.6228 26.0371 35.6228 27.5776C35.6228 28.727 36.3145 29.6554 37.4358 29.6554C37.8505 29.6554 38.2548 29.5029 38.5146 29.1457L38.5526 29.559ZM60.5272 27.5378C60.5272 28.7723 61.2985 29.6555 62.4515 29.6555C63.6063 29.6555 64.3764 28.7723 64.3764 27.5378C64.3764 26.3034 63.6063 25.4211 62.4515 25.4211C61.2985 25.4211 60.5272 26.3034 60.5272 27.5378ZM57.0043 29.559H55.835V25.5174H57.7915C58.8232 25.5174 59.184 26.3209 59.184 26.8985C59.184 27.8773 58.5674 28.3363 57.6946 28.3363H57.0043V29.559ZM52.1993 29.559H51.0309V25.5174H52.987C54.0177 25.5174 54.379 26.3209 54.379 26.8985C54.379 27.8773 53.7624 28.3363 52.8915 28.3363H52.1993V29.559ZM42.1019 29.5589H40.9321V25.5178H43.1593C43.8234 25.5178 44.3988 25.9076 44.3988 26.6717C44.3988 27.0909 44.2173 27.5327 43.8293 27.6857C44.148 27.8152 44.3454 28.1891 44.3879 28.6934C44.3907 28.7288 44.3931 28.7732 44.3958 28.8233C44.4085 29.0538 44.4278 29.4058 44.5151 29.5589H43.3458C43.287 29.3552 43.2657 29.1461 43.2503 28.936L43.25 28.9325C43.218 28.5488 43.1846 28.1493 42.7234 28.1493H42.1019V29.5589ZM48.2092 25.5175H49.3785V27.996C49.3785 29.1173 48.8094 29.6556 47.6515 29.6556C46.4917 29.6556 45.9172 29.1173 45.9172 27.996V25.5175H47.0874V27.7199C47.0874 28.1327 47.0874 28.6479 47.6564 28.6479C48.2092 28.6479 48.2092 28.1327 48.2092 27.7199V25.5175Z" fill="#C9AC00"/>
<path d="M41.0203 76.3092C41.1908 76.1429 41.4517 75.8884 41.4517 75.0561V73.0964C40.0823 73.1177 37.7433 73.3503 37.7433 75.2874C37.7433 76.3218 38.3961 76.9533 39.3657 76.9533C40.0398 76.9533 40.4825 76.7826 40.9886 76.3403C40.9986 76.3304 41.0091 76.3202 41.0199 76.3096L41.0203 76.3092Z" fill="#C9AC00"/>
<path d="M59.906 77.0161H59.2883C58.6337 76.3069 58.0426 76.186 55.2294 76.186H52.9732C52.6572 76.186 52.4259 75.9764 52.4259 75.7446C52.4259 74.8582 53.7969 74.7023 55.4739 74.5116C55.7907 74.4756 56.1184 74.4384 56.4498 74.3947C56.893 74.3531 58.5779 73.7428 58.5779 71.7623C58.5779 70.833 57.9663 70.1806 57.9663 70.1806C57.8292 69.9752 57.6723 69.7962 57.495 69.6432H59.906V77.0161Z" fill="#C9AC00"/>
<path d="M52.8528 79.9514C52.8528 81.2991 54.2642 81.7436 55.3606 81.7436C58.9441 81.7436 59.0921 79.7418 59.0921 79.405C59.0921 78.1611 58.7123 77.5508 56.0356 77.5508C53.549 77.5508 52.8528 79.2353 52.8528 79.9514Z" fill="#C9AC00"/>
<path d="M53.8441 71.818C53.8441 69.8171 54.3507 69.3115 55.4027 69.3115C56.6676 69.3115 56.835 70.5749 56.835 71.6297C56.835 72.9357 56.7296 74.0303 55.1936 74.0303C54.0325 74.0303 53.8441 72.7668 53.8441 71.818Z" fill="#C9AC00"/>
<path d="M47.909 81.7436C46.8121 81.7436 45.4002 81.2991 45.4002 79.9514C45.4002 79.2353 46.0955 77.5508 48.5826 77.5508C51.2575 77.5508 51.6382 78.1611 51.6382 79.405C51.6382 79.7418 51.4902 81.7436 47.909 81.7436Z" fill="#C9AC00"/>
<path d="M47.9497 69.3115C46.8968 69.3115 46.3911 69.8171 46.3911 71.818C46.3911 72.7668 46.5803 74.0303 47.7388 74.0303C49.2779 74.0303 49.3834 72.9357 49.3834 71.6297C49.3834 70.5749 49.215 69.3115 47.9497 69.3115Z" fill="#C9AC00"/>
</svg>
