<svg width="201" height="200" viewBox="0 0 201 200" fill="none" xmlns="http://www.w3.org/2000/svg">
<g clip-path="url(#clip0_1401_48)">
<path d="M194.204 52.4548C209.118 34.6371 195.957 6.4585 172.488 6.66782C166.945 6.66824 161.526 8.31122 156.916 11.3893C152.306 14.4674 148.711 18.8425 146.586 23.9622C136.12 49.786 99.6478 52.7426 85.3884 28.6979C61.4483 -10.3388 0.957167 6.01371 0.538544 52.4548C-0.0893916 83.6946 33.165 106.719 62.1024 95.3898C96.8481 82.3079 133.033 115.196 123.326 151.067C122.044 155.973 121.903 161.108 122.912 166.077C123.921 171.047 126.054 175.719 129.147 179.737C132.241 183.755 136.213 187.012 140.759 189.257C145.306 191.503 150.306 192.679 155.377 192.694C179.919 193.165 196.533 165.378 184.707 144.029C167.648 116.321 172.096 75.6884 194.204 52.4548Z" fill="black"/>
<path d="M67.7799 164.646C67.7799 172.105 64.8166 179.259 59.5419 184.534C54.2672 189.809 47.1132 192.772 39.6536 192.772C32.1941 192.772 25.04 189.809 19.7653 184.534C14.4906 179.259 11.5273 172.105 11.5273 164.646C11.5273 149.13 16.2107 119.644 39.6536 119.644C63.0965 119.644 67.7799 148.947 67.7799 164.646Z" fill="black"/>
</g>
<defs>
<clipPath id="clip0_1401_48">
<rect width="200" height="200" fill="white" transform="translate(0.529785)"/>
</clipPath>
</defs>
</svg>
