<svg width="291" height="100" viewBox="0 0 291 100" fill="none" xmlns="http://www.w3.org/2000/svg">
<path d="M33.2133 0H26.1262L0.840454 27.8424L25.9258 56.4373H33.4939L8.68915 27.8424L33.2133 0Z" fill="#2C2C2C"/>
<path d="M74.5652 0H81.7324L106.802 27.644L81.532 56.4373L74.02 56.4031L98.953 27.644L74.5652 0Z" fill="#2C2C2C"/>
<path fill-rule="evenodd" clip-rule="evenodd" d="M76.9784 72.3882H30.6719V67.4258H76.9784V72.3882Z" fill="#00379E"/>
<path fill-rule="evenodd" clip-rule="evenodd" d="M71.5268 81.9175H36.1235V76.9551H71.5268V81.9175Z" fill="#00379E"/>
<path fill-rule="evenodd" clip-rule="evenodd" d="M65.8669 91.4469H41.7837V86.4845H65.8669V91.4469Z" fill="#00379E"/>
<path d="M47.7642 56.4715H59.7496V13.1277H47.7642V56.4715ZM47.7642 8.54426H59.7496V0H47.7642V8.54426Z" fill="#2C2C2C"/>
<path d="M264.209 34.7996C264.209 24.5725 266.895 21.8293 270.919 21.8293C275.304 21.8293 277.982 24.5793 277.982 34.7996C277.982 45.0267 275.296 47.7699 271.272 47.7699C266.886 47.7699 264.209 45.0199 264.209 34.8748V34.7996ZM251.51 34.7996C251.51 47.3115 257.771 57.3882 271.095 57.3882C284.42 57.3882 290.681 47.3115 290.681 34.7996C290.681 22.2876 284.42 12.211 271.095 12.211C257.771 12.211 251.51 22.2808 251.51 34.7243V34.7996ZM225.486 56.4715H237.472V31.1397C237.472 26.7136 239.532 23.5121 243.998 23.5121C245.786 23.5121 247.573 23.82 249.273 24.8119V12.2178C242.659 12.2178 238.185 13.3603 236.398 18.7782V13.1277H225.486V56.4715ZM205.548 34.7996C205.548 43.1933 203.76 47.161 199.199 47.161C192.761 47.161 192.761 41.2847 192.761 34.7996C192.761 28.3144 192.761 22.4381 199.199 22.4381C203.76 22.4381 205.548 26.4058 205.548 34.7243V34.7996ZM180.775 56.4715H191.687V52.1959C193.651 55.7053 196.785 57.3882 201.523 57.3882C210.647 57.3882 217.534 50.3694 217.534 34.7996C217.534 20.1464 211.898 12.211 201.523 12.211C196.513 12.211 193.835 14.5027 192.761 17.2459V13.1277V0H180.775V56.4715ZM157.165 56.4715H169.151V13.1277H157.165V56.4715ZM157.165 8.5511H169.151V0.00684756H157.165V8.5511ZM117.28 56.4715H148.226V45.786H130.877V0H117.288V56.4715H117.28Z" fill="#00379E"/>
<path d="M274.647 80.5445C274.783 75.8106 277.661 71.8771 282.015 71.8771C286.055 71.8771 289.198 74.5246 289.374 80.5445H274.647ZM290.625 81.5296C290.625 78.7659 290.224 75.7354 288.228 73.4642C286.849 71.8772 284.765 70.8921 282.239 70.8921C277.14 70.8921 273.412 74.9419 273.412 81.4544C273.412 86.2225 275.721 91.9414 282.416 91.9414C284.636 91.9414 286.36 91.2574 287.691 90.197C289.022 89.1025 289.912 87.6249 290.304 86.0309H289.15C288.436 88.7604 286.087 90.9495 282.408 90.9495C277.485 90.9495 274.647 87.0913 274.647 81.5228H290.625V81.5296ZM266.486 91.4489H267.728V72.3697H271.496V71.3846H267.728V63.4355H266.486V71.3846H262.718V72.3697H266.486V91.4489ZM243.068 91.4489H244.311V80.5445C244.311 74.7913 247.285 71.8771 251.895 71.8771C257.442 71.8771 257.747 76.2279 257.747 78.6907V91.4489H258.99V78.3486C258.99 73.0127 256.064 70.8921 251.847 70.8921C249.225 70.8921 245.593 72.0687 244.174 75.7765C244.311 74.1483 244.311 72.8212 244.311 71.3846H243.068V91.4489ZM222.352 80.5445C222.488 75.8106 225.366 71.8771 229.72 71.8771C233.76 71.8771 236.903 74.5246 237.079 80.5445H222.352ZM238.322 81.5296C238.322 78.7659 237.921 75.7354 235.925 73.4642C234.546 71.8772 232.461 70.8921 229.936 70.8921C224.837 70.8921 221.109 74.9419 221.109 81.4544C221.109 86.2225 223.418 91.9414 230.112 91.9414C232.333 91.9414 234.057 91.2574 235.388 90.197C236.718 89.1025 237.608 87.6249 238.001 86.0309H236.847C236.133 88.7604 233.784 90.9495 230.104 90.9495C225.182 90.9495 222.344 87.0913 222.344 81.5228H238.322V81.5296ZM200.874 81.4202C200.874 76.7615 203.223 71.884 207.929 71.884C210.278 71.884 212.058 73.0948 213.204 74.9145C214.399 76.6931 214.976 79.0806 214.976 81.427C214.976 83.7392 214.399 86.1199 213.204 87.9395C212.05 89.7592 210.278 90.97 207.929 90.97C203.223 90.97 200.874 86.0856 200.874 81.4681V81.4202ZM216.227 71.3846H214.984C214.984 73.43 214.984 74.8666 215.072 76.4195C213.565 72.3286 210.903 70.8921 207.841 70.8921C202.83 70.8921 199.632 75.6259 199.632 81.4544C199.632 87.1665 202.822 91.9414 207.841 91.9414C211.304 91.9414 214.006 89.8208 215.072 86.414C214.984 88.3431 214.984 90.2723 214.984 91.5652C214.984 98.2624 210.727 99.0218 208.242 99.0218C206.558 99.0218 204.562 98.6045 203.095 97.2431C201.989 96.1828 201.54 95.0472 201.411 93.2275H200.257C200.433 98.9055 205.893 100 208.065 100C210.727 100 212.86 99.2065 214.367 97.5373C215.561 96.2102 216.227 94.281 216.227 90.9495V71.3846ZM193.29 91.4489H194.533V71.3846H193.29V91.4489ZM193.29 66.8423H194.533V63.4355H193.29V66.8423ZM185.393 91.4489H186.636V63.4355H185.393V91.4489ZM177.496 91.4489H178.739V63.4355H177.496V91.4489ZM156.556 80.5445C156.692 75.8106 159.57 71.8771 163.924 71.8771C167.964 71.8771 171.107 74.5246 171.291 80.5445H156.556ZM172.526 81.5296C172.526 78.7659 172.125 75.7354 170.129 73.4642C168.758 71.8772 166.665 70.8921 164.14 70.8921C159.041 70.8921 155.313 74.9419 155.313 81.4544C155.313 86.2225 157.622 91.9414 164.316 91.9414C166.537 91.9414 168.261 91.2574 169.592 90.197C170.922 89.1025 171.812 87.6249 172.205 86.0309H171.051C170.345 88.7604 167.988 90.9495 164.308 90.9495C159.386 90.9495 156.548 87.0913 156.548 81.5228H172.526V81.5296ZM148.395 91.4489H149.637V72.3697H153.405V71.3846H149.637V63.4355H148.395V71.3846H144.627V72.3697H148.395V91.4489ZM124.977 91.4489H126.219V80.5445C126.219 74.7913 129.194 71.8771 133.803 71.8771C139.351 71.8771 139.656 76.2279 139.656 78.6907V91.4489H140.899V78.3486C140.899 73.0127 137.972 70.8921 133.755 70.8921C131.142 70.8921 127.502 72.0687 126.083 75.7765C126.219 74.1483 126.219 72.8212 126.219 71.3846H124.977V91.4489ZM117.296 91.4489H118.539V71.3846H117.296V91.4489ZM117.296 66.8423H118.539V63.4355H117.296V66.8423Z" fill="#2C2C2C"/>
</svg>
