<svg width="500" height="500" viewBox="0 0 500 500" fill="none" xmlns="http://www.w3.org/2000/svg">
<rect width="500" height="500" fill="white"/>
<rect x="100" width="50" height="50" fill="#E5E5E5"/>
<rect x="200" width="50" height="50" fill="#E5E5E5"/>
<rect x="300" width="50" height="50" fill="#E5E5E5"/>
<rect x="400" width="50" height="50" fill="#E5E5E5"/>
<rect x="50" y="50" width="50" height="50" fill="#E5E5E5"/>
<rect width="50" height="50" fill="#E5E5E5"/>
<rect x="150" y="50" width="50" height="50" fill="#E5E5E5"/>
<rect x="250" y="50" width="50" height="50" fill="#E5E5E5"/>
<rect x="350" y="50" width="50" height="50" fill="#E5E5E5"/>
<rect x="450" y="50" width="50" height="50" fill="#E5E5E5"/>
<rect y="100" width="50" height="50" fill="#E5E5E5"/>
<rect x="100" y="100" width="50" height="50" fill="#E5E5E5"/>
<rect x="200" y="100" width="50" height="50" fill="#E5E5E5"/>
<rect x="300" y="100" width="50" height="50" fill="#E5E5E5"/>
<rect x="400" y="100" width="50" height="50" fill="#E5E5E5"/>
<rect x="50" y="150" width="50" height="50" fill="#E5E5E5"/>
<rect x="150" y="150" width="50" height="50" fill="#E5E5E5"/>
<rect x="250" y="150" width="50" height="50" fill="#E5E5E5"/>
<rect x="350" y="150" width="50" height="50" fill="#E5E5E5"/>
<rect x="450" y="150" width="50" height="50" fill="#E5E5E5"/>
<rect y="200" width="50" height="50" fill="#E5E5E5"/>
<rect x="100" y="200" width="50" height="50" fill="#E5E5E5"/>
<rect x="200" y="200" width="50" height="50" fill="#E5E5E5"/>
<rect x="300" y="200" width="50" height="50" fill="#E5E5E5"/>
<rect x="400" y="200" width="50" height="50" fill="#E5E5E5"/>
<rect x="50" y="250" width="50" height="50" fill="#E5E5E5"/>
<rect x="150" y="250" width="50" height="50" fill="#E5E5E5"/>
<rect x="250" y="250" width="50" height="50" fill="#E5E5E5"/>
<rect x="350" y="250" width="50" height="50" fill="#E5E5E5"/>
<rect x="450" y="250" width="50" height="50" fill="#E5E5E5"/>
<rect y="300" width="50" height="50" fill="#E5E5E5"/>
<rect x="100" y="300" width="50" height="50" fill="#E5E5E5"/>
<rect x="200" y="300" width="50" height="50" fill="#E5E5E5"/>
<rect x="300" y="300" width="50" height="50" fill="#E5E5E5"/>
<rect x="400" y="300" width="50" height="50" fill="#E5E5E5"/>
<rect x="50" y="350" width="50" height="50" fill="#E5E5E5"/>
<rect x="150" y="350" width="50" height="50" fill="#E5E5E5"/>
<rect x="250" y="350" width="50" height="50" fill="#E5E5E5"/>
<rect x="350" y="350" width="50" height="50" fill="#E5E5E5"/>
<rect x="450" y="350" width="50" height="50" fill="#E5E5E5"/>
<rect y="400" width="50" height="50" fill="#E5E5E5"/>
<rect x="100" y="400" width="50" height="50" fill="#E5E5E5"/>
<rect x="200" y="400" width="50" height="50" fill="#E5E5E5"/>
<rect x="300" y="400" width="50" height="50" fill="#E5E5E5"/>
<rect x="400" y="400" width="50" height="50" fill="#E5E5E5"/>
<rect x="50" y="450" width="50" height="50" fill="#E5E5E5"/>
<rect x="150" y="450" width="50" height="50" fill="#E5E5E5"/>
<rect x="250" y="450" width="50" height="50" fill="#E5E5E5"/>
<rect x="350" y="450" width="50" height="50" fill="#E5E5E5"/>
<rect x="450" y="450" width="50" height="50" fill="#E5E5E5"/>
</svg>
