<svg width="220" height="77" viewBox="0 0 220 77" fill="none" xmlns="http://www.w3.org/2000/svg">
<path d="M24.5722 0.903809H19.1929L0 22.0373L19.0407 43.7419H24.7852L5.95746 22.0373L24.5722 0.903809Z" fill="white"/>
<path d="M55.9599 0.903809H61.4001L80.4287 21.8867L61.248 43.7419L55.5461 43.7159L74.4713 21.8867L55.9599 0.903809Z" fill="white"/>
<path fill-rule="evenodd" clip-rule="evenodd" d="M57.7916 55.8492H22.6432V52.0825H57.7916V55.8492Z" fill="white"/>
<path fill-rule="evenodd" clip-rule="evenodd" d="M53.6536 63.0823H26.7812V59.3157H53.6536V63.0823Z" fill="white"/>
<path fill-rule="evenodd" clip-rule="evenodd" d="M49.3574 70.3155H31.0773V66.5488H49.3574V70.3155Z" fill="white"/>
<path d="M35.617 43.7678H44.7145V10.8682H35.617V43.7678ZM35.617 7.38923H44.7145V0.903809H35.617V7.38923Z" fill="white"/>
<path d="M199.906 27.318C199.906 19.5552 201.945 17.473 205 17.473C208.328 17.473 210.361 19.5604 210.361 27.318C210.361 35.0808 208.322 37.163 205.268 37.163C201.939 37.163 199.906 35.0756 199.906 27.3751V27.318ZM190.267 27.318C190.267 36.8151 195.02 44.4636 205.134 44.4636C215.247 44.4636 220 36.8151 220 27.318C220 17.8209 215.247 10.1724 205.134 10.1724C195.02 10.1724 190.267 17.8158 190.267 27.2609V27.318ZM170.515 43.7678H179.612V24.54C179.612 21.1805 181.176 18.7504 184.566 18.7504C185.923 18.7504 187.28 18.9841 188.57 19.737V10.1776C183.549 10.1776 180.154 11.0447 178.797 15.1572V10.8682H170.515V43.7678ZM155.381 27.318C155.381 33.6892 154.024 36.7008 150.561 36.7008C145.675 36.7008 145.675 32.2405 145.675 27.318C145.675 22.3955 145.675 17.9352 150.561 17.9352C154.024 17.9352 155.381 20.9468 155.381 27.2609V27.318ZM136.577 43.7678H144.859V40.5225C146.35 43.1863 148.73 44.4636 152.326 44.4636C159.251 44.4636 164.478 39.1361 164.478 27.318C164.478 16.1957 160.2 10.1724 152.326 10.1724C148.523 10.1724 146.49 11.9119 145.675 13.9941V10.8682V0.903809H136.577V43.7678ZM118.656 43.7678H127.754V10.8682H118.656V43.7678ZM118.656 7.39442H127.754V0.909006H118.656V7.39442ZM88.3821 43.7678H111.871V35.6572H98.7027V0.903809H88.3882V43.7678H88.3821Z" fill="white"/>
<path d="M207.829 62.0402C207.933 58.447 210.118 55.4614 213.422 55.4614C216.489 55.4614 218.874 57.4708 219.008 62.0402H207.829ZM219.957 62.788C219.957 60.6902 219.653 58.3899 218.138 56.666C217.091 55.4614 215.509 54.7136 213.592 54.7136C209.722 54.7136 206.892 57.7876 206.892 62.7309C206.892 66.35 208.645 70.6909 213.726 70.6909C215.412 70.6909 216.72 70.1717 217.73 69.3669C218.74 68.5361 219.416 67.4145 219.714 66.2046H218.838C218.296 68.2764 216.513 69.938 213.72 69.938C209.984 69.938 207.829 67.0095 207.829 62.7828H219.957V62.788ZM201.635 70.3171H202.578V55.8352H205.438V55.0875H202.578V49.0538H201.635V55.0875H198.775V55.8352H201.635V70.3171ZM183.86 70.3171H184.803V62.0402C184.803 57.6734 187.061 55.4614 190.56 55.4614C194.771 55.4614 195.002 58.7638 195.002 60.6331V70.3171H195.945V60.3735C195.945 56.3233 193.724 54.7136 190.523 54.7136C188.533 54.7136 185.777 55.6068 184.699 58.4211C184.803 57.1853 184.803 56.1779 184.803 55.0875H183.86V70.3171ZM168.135 62.0402C168.239 58.447 170.423 55.4614 173.728 55.4614C176.795 55.4614 179.18 57.4708 179.314 62.0402H168.135ZM180.257 62.788C180.257 60.6902 179.953 58.3899 178.438 56.666C177.391 55.4614 175.809 54.7136 173.892 54.7136C170.022 54.7136 167.192 57.7876 167.192 62.7309C167.192 66.35 168.945 70.6909 174.026 70.6909C175.712 70.6909 177.02 70.1717 178.03 69.3669C179.04 68.5361 179.716 67.4145 180.014 66.2046H179.138C178.596 68.2764 176.813 69.938 174.02 69.938C170.283 69.938 168.129 67.0095 168.129 62.7828H180.257V62.788ZM151.833 62.7049C151.833 59.1688 153.616 55.4666 157.188 55.4666C158.971 55.4666 160.322 56.3856 161.192 57.7668C162.099 59.1169 162.537 60.9291 162.537 62.7101C162.537 64.4651 162.099 66.2721 161.192 67.6533C160.316 69.0345 158.971 69.9536 157.188 69.9536C153.616 69.9536 151.833 66.2462 151.833 62.7412V62.7049ZM163.486 55.0875H162.543C162.543 56.6401 162.543 57.7305 162.61 58.9092C161.466 55.8041 159.446 54.7136 157.121 54.7136C153.318 54.7136 150.89 58.3068 150.89 62.7309C150.89 67.0666 153.312 70.6909 157.121 70.6909C159.75 70.6909 161.801 69.0813 162.61 66.4954C162.543 67.9597 162.543 69.424 162.543 70.4054C162.543 75.4888 159.312 76.0652 157.425 76.0652C156.147 76.0652 154.632 75.7484 153.519 74.7151C152.679 73.9103 152.338 73.0483 152.241 71.6671H151.364C151.498 75.9769 155.642 76.8077 157.291 76.8077C159.312 76.8077 160.93 76.2054 162.074 74.9384C162.981 73.9311 163.486 72.4668 163.486 69.938V55.0875ZM146.076 70.3171H147.02V55.0875H146.076V70.3171ZM146.076 51.6397H147.02V49.0538H146.076V51.6397ZM140.082 70.3171H141.026V49.0538H140.082V70.3171ZM134.088 70.3171H135.032V49.0538H134.088V70.3171ZM118.194 62.0402C118.297 58.447 120.482 55.4614 123.786 55.4614C126.853 55.4614 129.238 57.4708 129.378 62.0402H118.194ZM130.316 62.788C130.316 60.6902 130.011 58.3899 128.496 56.666C127.455 55.4614 125.867 54.7136 123.95 54.7136C120.08 54.7136 117.251 57.7876 117.251 62.7309C117.251 66.35 119.003 70.6909 124.084 70.6909C125.77 70.6909 127.078 70.1717 128.088 69.3669C129.099 68.5361 129.774 67.4145 130.072 66.2046H129.196C128.66 68.2764 126.871 69.938 124.078 69.938C120.342 69.938 118.188 67.0095 118.188 62.7828H130.316V62.788ZM111.999 70.3171H112.942V55.8352H115.802V55.0875H112.942V49.0538H111.999V55.0875H109.139V55.8352H111.999V70.3171ZM94.2239 70.3171H95.1672V62.0402C95.1672 57.6734 97.4248 55.4614 100.924 55.4614C105.135 55.4614 105.366 58.7638 105.366 60.6331V70.3171H106.309V60.3735C106.309 56.3233 104.088 54.7136 100.887 54.7136C98.9035 54.7136 96.1408 55.6068 95.0637 58.4211C95.1672 57.1853 95.1672 56.1779 95.1672 55.0875H94.2239V70.3171ZM88.3943 70.3171H89.3375V55.0875H88.3943V70.3171ZM88.3943 51.6397H89.3375V49.0538H88.3943V51.6397Z" fill="white"/>
</svg>
