<svg width="220" height="77" viewBox="0 0 220 77" fill="none" xmlns="http://www.w3.org/2000/svg">
<path d="M24.5722 0.807617H19.1929L0 21.9411L19.0407 43.6457H24.7852L5.95746 21.9411L24.5722 0.807617Z" fill="black"/>
<path d="M55.9599 0.807617H61.4001L80.4287 21.7905L61.248 43.6457L55.5461 43.6197L74.4713 21.7905L55.9599 0.807617Z" fill="black"/>
<path fill-rule="evenodd" clip-rule="evenodd" d="M57.7916 55.753H22.6432V51.9863H57.7916V55.753Z" fill="black"/>
<path fill-rule="evenodd" clip-rule="evenodd" d="M53.6536 62.9861H26.7812V59.2195H53.6536V62.9861Z" fill="black"/>
<path fill-rule="evenodd" clip-rule="evenodd" d="M49.3574 70.2193H31.0773V66.4526H49.3574V70.2193Z" fill="black"/>
<path d="M35.617 43.6716H44.7145V10.772H35.617V43.6716ZM35.617 7.29304H44.7145V0.807617H35.617V7.29304Z" fill="black"/>
<path d="M199.906 27.2218C199.906 19.459 201.945 17.3769 205 17.3769C208.328 17.3769 210.361 19.4642 210.361 27.2218C210.361 34.9846 208.322 37.0668 205.268 37.0668C201.939 37.0668 199.906 34.9794 199.906 27.2789V27.2218ZM190.267 27.2218C190.267 36.7189 195.02 44.3674 205.134 44.3674C215.247 44.3674 220 36.7189 220 27.2218C220 17.7248 215.247 10.0762 205.134 10.0762C195.02 10.0762 190.267 17.7196 190.267 27.1647V27.2218ZM170.515 43.6716H179.612V24.4438C179.612 21.0843 181.176 18.6542 184.566 18.6542C185.923 18.6542 187.28 18.8879 188.57 19.6408V10.0814C183.549 10.0814 180.154 10.9486 178.797 15.061V10.772H170.515V43.6716ZM155.381 27.2218C155.381 33.593 154.024 36.6046 150.561 36.6046C145.675 36.6046 145.675 32.1443 145.675 27.2218C145.675 22.2993 145.675 17.839 150.561 17.839C154.024 17.839 155.381 20.8506 155.381 27.1647V27.2218ZM136.577 43.6716H144.859V40.4263C146.35 43.0901 148.73 44.3674 152.326 44.3674C159.251 44.3674 164.478 39.0399 164.478 27.2218C164.478 16.0995 160.2 10.0762 152.326 10.0762C148.523 10.0762 146.49 11.8157 145.675 13.8979V10.772V0.807617H136.577V43.6716ZM118.656 43.6716H127.754V10.772H118.656V43.6716ZM118.656 7.29823H127.754V0.812815H118.656V7.29823ZM88.3821 43.6716H111.871V35.561H98.7027V0.807617H88.3882V43.6716H88.3821Z" fill="black"/>
<path d="M207.829 61.9441C207.933 58.3508 210.118 55.3652 213.422 55.3652C216.489 55.3652 218.874 57.3747 219.008 61.9441H207.829ZM219.957 62.6918C219.957 60.594 219.653 58.2937 218.138 56.5698C217.091 55.3652 215.509 54.6175 213.592 54.6175C209.722 54.6175 206.892 57.6914 206.892 62.6347C206.892 66.2538 208.645 70.5947 213.726 70.5947C215.412 70.5947 216.72 70.0755 217.73 69.2707C218.74 68.4399 219.416 67.3183 219.714 66.1084H218.838C218.296 68.1802 216.513 69.8418 213.72 69.8418C209.984 69.8418 207.829 66.9133 207.829 62.6866H219.957V62.6918ZM201.635 70.2209H202.578V55.739H205.438V54.9913H202.578V48.9576H201.635V54.9913H198.775V55.739H201.635V70.2209ZM183.86 70.2209H184.803V61.9441C184.803 57.5772 187.061 55.3652 190.56 55.3652C194.771 55.3652 195.002 58.6676 195.002 60.5369V70.2209H195.945V60.2773C195.945 56.2271 193.724 54.6175 190.523 54.6175C188.533 54.6175 185.777 55.5106 184.699 58.3249C184.803 57.0891 184.803 56.0817 184.803 54.9913H183.86V70.2209ZM168.135 61.9441C168.239 58.3508 170.423 55.3652 173.728 55.3652C176.795 55.3652 179.18 57.3747 179.314 61.9441H168.135ZM180.257 62.6918C180.257 60.594 179.953 58.2937 178.438 56.5698C177.391 55.3652 175.809 54.6175 173.892 54.6175C170.022 54.6175 167.192 57.6914 167.192 62.6347C167.192 66.2538 168.945 70.5947 174.026 70.5947C175.712 70.5947 177.02 70.0755 178.03 69.2707C179.04 68.4399 179.716 67.3183 180.014 66.1084H179.138C178.596 68.1802 176.813 69.8418 174.02 69.8418C170.283 69.8418 168.129 66.9133 168.129 62.6866H180.257V62.6918ZM151.833 62.6087C151.833 59.0726 153.616 55.3704 157.188 55.3704C158.971 55.3704 160.322 56.2894 161.192 57.6706C162.099 59.0207 162.537 60.8329 162.537 62.6139C162.537 64.3689 162.099 66.1759 161.192 67.5571C160.316 68.9384 158.971 69.8574 157.188 69.8574C153.616 69.8574 151.833 66.15 151.833 62.645V62.6087ZM163.486 54.9913H162.543C162.543 56.5439 162.543 57.6343 162.61 58.813C161.466 55.7079 159.446 54.6175 157.121 54.6175C153.318 54.6175 150.89 58.2107 150.89 62.6347C150.89 66.9704 153.312 70.5947 157.121 70.5947C159.75 70.5947 161.801 68.9851 162.61 66.3992C162.543 67.8635 162.543 69.3278 162.543 70.3092C162.543 75.3926 159.312 75.969 157.425 75.969C156.147 75.969 154.632 75.6522 153.519 74.6189C152.679 73.8141 152.338 72.9521 152.241 71.5709H151.364C151.498 75.8807 155.642 76.7115 157.291 76.7115C159.312 76.7115 160.93 76.1092 162.074 74.8422C162.981 73.8349 163.486 72.3706 163.486 69.8418V54.9913ZM146.076 70.2209H147.02V54.9913H146.076V70.2209ZM146.076 51.5435H147.02V48.9576H146.076V51.5435ZM140.082 70.2209H141.026V48.9576H140.082V70.2209ZM134.088 70.2209H135.032V48.9576H134.088V70.2209ZM118.194 61.9441C118.297 58.3508 120.482 55.3652 123.786 55.3652C126.853 55.3652 129.238 57.3747 129.378 61.9441H118.194ZM130.316 62.6918C130.316 60.594 130.011 58.2937 128.496 56.5698C127.455 55.3652 125.867 54.6175 123.95 54.6175C120.08 54.6175 117.251 57.6914 117.251 62.6347C117.251 66.2538 119.003 70.5947 124.084 70.5947C125.77 70.5947 127.078 70.0755 128.088 69.2707C129.099 68.4399 129.774 67.3183 130.072 66.1084H129.196C128.66 68.1802 126.871 69.8418 124.078 69.8418C120.342 69.8418 118.188 66.9133 118.188 62.6866H130.316V62.6918ZM111.999 70.2209H112.942V55.739H115.802V54.9913H112.942V48.9576H111.999V54.9913H109.139V55.739H111.999V70.2209ZM94.2239 70.2209H95.1672V61.9441C95.1672 57.5772 97.4248 55.3652 100.924 55.3652C105.135 55.3652 105.366 58.6676 105.366 60.5369V70.2209H106.309V60.2773C106.309 56.2271 104.088 54.6175 100.887 54.6175C98.9035 54.6175 96.1408 55.5106 95.0637 58.3249C95.1672 57.0891 95.1672 56.0817 95.1672 54.9913H94.2239V70.2209ZM88.3943 70.2209H89.3375V54.9913H88.3943V70.2209ZM88.3943 51.5435H89.3375V48.9576H88.3943V51.5435Z" fill="black"/>
</svg>
