<svg width="500" height="500" viewBox="0 0 500 500" fill="none" xmlns="http://www.w3.org/2000/svg">
<rect width="500" height="500" fill="white"/>
<path d="M390.512 178.682C412.882 151.956 393.141 109.688 357.938 110.002C349.623 110.002 341.494 112.467 334.579 117.084C327.664 121.701 322.272 128.264 319.084 135.943C303.386 174.679 248.677 179.114 227.288 143.047C191.378 84.4919 100.641 109.021 100.013 178.682C99.0712 225.542 148.953 260.078 192.359 243.085C244.478 223.462 298.755 272.794 284.195 326.6C282.272 333.96 282.059 341.661 283.573 349.116C285.086 356.57 288.286 363.579 292.926 369.606C297.567 375.633 303.525 380.518 310.344 383.886C317.164 387.255 324.665 389.018 332.271 389.041C369.084 389.747 394.005 348.068 376.266 316.043C350.677 274.482 357.349 213.533 390.512 178.682Z" fill="#00379E"/>
<path d="M200.875 346.968C200.875 358.158 196.431 368.889 188.518 376.801C180.606 384.713 169.875 389.158 158.686 389.158C147.497 389.158 136.766 384.713 128.854 376.801C120.941 368.889 116.497 358.158 116.497 346.968C116.497 323.696 123.522 279.465 158.686 279.465C193.85 279.465 200.875 323.421 200.875 346.968Z" fill="#00379E"/>
</svg>
