<svg width="500" height="500" viewBox="0 0 500 500" fill="none" xmlns="http://www.w3.org/2000/svg">
<rect width="500" height="500" fill="white"/>
<path d="M152.553 377.334H118.75V375.593H122.13V333.656H118.75V331.915H152.252V346.449H149.848L149.473 344.784C148.872 342.109 148.096 339.737 147.144 337.668C146.243 335.599 145.441 334.438 144.74 334.186C144.089 333.934 143.288 333.782 142.337 333.732C141.435 333.681 140.258 333.656 138.806 333.656H133.623V352.808H136.778C137.479 352.808 138.155 352.606 138.806 352.202C139.457 351.748 140.033 350.865 140.534 349.553C141.085 348.19 141.485 346.626 141.736 344.859L141.886 343.875H143.689V363.481H142.036L141.811 362.194C141.41 360.276 140.859 358.535 140.158 356.971C139.457 355.356 138.38 354.549 136.928 354.549H133.623V375.593H139.707C141.06 375.593 142.211 375.542 143.163 375.441C144.164 375.29 144.891 375.037 145.341 374.684C146.293 373.927 147.219 372.161 148.121 369.385C148.621 367.871 149.172 365.626 149.773 362.648L150.224 360.604H152.553V377.334Z" fill="#3F3F3F"/>
<path d="M196.287 354.7C196.287 358.737 195.761 362.144 194.71 364.919C193.658 367.644 191.73 370.218 188.926 372.64C186.622 374.608 184.043 375.921 181.189 376.577C179.035 377.081 176.056 377.334 172.25 377.334H156.175V375.593H159.63V333.656H156.175V331.915H172.55C175.555 331.915 178.309 332.193 180.813 332.748C183.317 333.303 185.395 334.085 187.048 335.094C190.453 337.264 192.882 340.04 194.334 343.421C195.636 346.399 196.287 350.158 196.287 354.7ZM183.818 353.64C183.818 347.332 183.467 343.017 182.766 340.696C181.364 336.003 178.359 333.656 173.752 333.656H171.048V375.593H174.428C178.685 375.593 181.464 372.968 182.766 367.72C183.467 364.894 183.818 360.201 183.818 353.64Z" fill="#3F3F3F"/>
<path d="M218.514 377.334H200.186V375.593H203.641V333.656H200.186V331.915H218.514V333.656H215.059V375.593H218.514V377.334Z" fill="#3F3F3F"/>
<path d="M255.332 346.525H252.928L252.177 342.437C251.877 340.974 251.426 339.409 250.825 337.744C250.074 335.776 249.423 334.64 248.872 334.337C248.371 334.035 247.87 333.858 247.369 333.808C246.869 333.707 246.193 333.656 245.341 333.656H243.989V375.593H247.369V377.334H229.041V375.593H232.496V333.656H230.693C229.692 333.656 228.841 333.858 228.139 334.262C227.438 334.665 226.737 335.725 226.036 337.441C225.535 338.652 225.11 340.116 224.759 341.831L223.783 346.525H221.529V331.915H255.332V346.525Z" fill="#3F3F3F"/>
<path d="M298.444 353.413C298.444 360.731 296.717 366.685 293.261 371.278C289.806 375.82 285.048 378.091 278.989 378.091C273.08 378.091 268.272 375.769 264.566 371.126C260.861 366.484 259.008 360.705 259.008 353.792C259.008 347.837 260.785 342.614 264.341 338.122C268.097 333.379 272.754 331.007 278.313 331.007C284.022 331.007 288.804 333.076 292.66 337.214C296.516 341.352 298.444 346.752 298.444 353.413ZM285.374 352.959C285.374 346.499 285.098 341.983 284.548 339.409C283.596 334.817 281.568 332.521 278.463 332.521C275.909 332.521 274.131 334.59 273.13 338.728C272.479 341.453 272.153 345.238 272.153 350.082C272.153 350.839 272.153 351.571 272.153 352.278C272.153 352.984 272.178 353.64 272.228 354.246C272.228 361.866 272.504 367.013 273.055 369.688C274.006 374.23 276.009 376.501 279.064 376.501C282.569 376.501 284.573 373.423 285.073 367.266C285.274 364.793 285.374 360.024 285.374 352.959Z" fill="#3F3F3F"/>
<path d="M343.13 377.334H328.633L316.914 353.262H319.468C322.673 353.262 324.977 352.328 326.379 350.461C327.581 348.846 328.182 346.6 328.182 343.724C328.182 340.343 327.756 337.971 326.905 336.608C325.653 334.64 323.199 333.656 319.544 333.656H316.614V375.593H320.896V377.334H301.741V375.593H305.196V333.656H301.741V331.915H325.328C329.935 331.915 333.415 332.748 335.769 334.413C338.473 336.331 339.825 339.157 339.825 342.891C339.825 346.272 338.799 348.77 336.745 350.385C335.544 351.344 333.515 352.202 330.661 352.959L328.633 353.489L340.276 375.593H343.13V377.334Z" fill="#3F3F3F"/>
<path d="M381.135 377.334H347.332V375.593H350.713V333.656H347.332V331.915H380.835V346.449H378.431L378.055 344.784C377.454 342.109 376.678 339.737 375.727 337.668C374.825 335.599 374.024 334.438 373.323 334.186C372.672 333.934 371.871 333.782 370.919 333.732C370.018 333.681 368.841 333.656 367.389 333.656H362.206V352.808H365.361C366.062 352.808 366.738 352.606 367.389 352.202C368.04 351.748 368.616 350.865 369.116 349.553C369.667 348.19 370.068 346.626 370.318 344.859L370.469 343.875H372.271V363.481H370.619L370.393 362.194C369.993 360.276 369.442 358.535 368.741 356.971C368.04 355.356 366.963 354.549 365.511 354.549H362.206V375.593H368.29C369.642 375.593 370.794 375.542 371.746 375.441C372.747 375.29 373.473 375.037 373.924 374.684C374.875 373.927 375.802 372.161 376.703 369.385C377.204 367.871 377.755 365.626 378.356 362.648L378.807 360.604H381.135V377.334Z" fill="#3F3F3F"/>
<path d="M149.127 322.098H129.296V320.357H134.253V280.237L121.333 322.098H117.953L105.108 279.556V320.357H110.366V322.098H100V320.357H103.38V278.421H100V276.68H115.549L124.263 306.732L133.577 276.68H149.127V278.421H145.746V320.357H149.127V322.098Z" fill="#3F3F3F"/>
<path d="M192.832 322.098H173.302V320.357H178.26L173.377 304.385H162.41L157.677 320.357H163.537V322.098H153.02V320.357H155.8L168.945 276.68H176.307L190.203 320.357H192.832V322.098ZM173.001 302.795L168.044 285.763L162.861 302.795H173.001Z" fill="#3F3F3F"/>
<path d="M235.813 303.098H232.433V318.086L229.353 319.827C227.45 320.887 225.522 321.644 223.569 322.098C221.616 322.603 219.463 322.855 217.109 322.855C211.1 322.855 206.242 320.61 202.536 316.118C198.881 311.576 197.053 305.722 197.053 298.556C197.053 291.642 199.081 286.066 203.137 281.827C206.993 277.79 211.751 275.771 217.409 275.771C220.214 275.771 222.417 275.847 224.02 275.998C225.622 276.15 227.35 276.503 229.203 277.058L230.931 277.512V290.911H228.902L225.898 282.735C225.197 280.818 224.295 279.405 223.193 278.496C222.092 277.588 220.765 277.134 219.212 277.134C218.962 277.134 218.486 277.184 217.785 277.285C214.53 277.79 212.301 280.742 211.1 286.142C210.298 289.674 209.898 294.645 209.898 301.054C209.898 306.757 210.123 310.819 210.574 313.242C211.575 318.641 213.629 321.341 216.733 321.341C217.234 321.341 217.61 321.316 217.86 321.266C219.312 321.013 220.289 320.105 220.79 318.54C221.09 317.582 221.24 316.017 221.24 313.847V303.098H216.809V301.584H235.813V303.098Z" fill="#3F3F3F"/>
<path d="M278.389 303.098H275.008V318.086L271.928 319.827C270.025 320.887 268.097 321.644 266.144 322.098C264.191 322.603 262.038 322.855 259.684 322.855C253.675 322.855 248.817 320.61 245.112 316.118C241.456 311.576 239.628 305.722 239.628 298.556C239.628 291.642 241.656 286.066 245.713 281.827C249.569 277.79 254.326 275.771 259.985 275.771C262.789 275.771 264.993 275.847 266.595 275.998C268.198 276.15 269.925 276.503 271.778 277.058L273.506 277.512V290.911H271.478L268.473 282.735C267.772 280.818 266.871 279.405 265.769 278.496C264.667 277.588 263.34 277.134 261.788 277.134C261.537 277.134 261.061 277.184 260.36 277.285C257.105 277.79 254.877 280.742 253.675 286.142C252.874 289.674 252.473 294.645 252.473 301.054C252.473 306.757 252.698 310.819 253.149 313.242C254.151 318.641 256.204 321.341 259.309 321.341C259.81 321.341 260.185 321.316 260.436 321.266C261.888 321.013 262.864 320.105 263.365 318.54C263.666 317.582 263.816 316.017 263.816 313.847V303.098H259.384V301.584H278.389V303.098Z" fill="#3F3F3F"/>
<path d="M300.457 322.098H282.128V320.357H285.584V278.421H282.128V276.68H300.457V278.421H297.001V320.357H300.457V322.098Z" fill="#3F3F3F"/>
<path d="M343.284 298.178C343.284 305.495 341.556 311.45 338.101 316.042C334.645 320.584 329.888 322.855 323.828 322.855C317.919 322.855 313.112 320.534 309.406 315.891C305.7 311.248 303.847 305.47 303.847 298.556C303.847 292.601 305.625 287.378 309.181 282.887C312.936 278.143 317.594 275.771 323.152 275.771C328.861 275.771 333.644 277.84 337.5 281.978C341.356 286.117 343.284 291.516 343.284 298.178ZM330.213 297.724C330.213 291.264 329.938 286.747 329.387 284.174C328.436 279.581 326.408 277.285 323.303 277.285C320.749 277.285 318.971 279.354 317.969 283.492C317.318 286.217 316.993 290.002 316.993 294.847C316.993 295.604 316.993 296.336 316.993 297.042C316.993 297.749 317.018 298.405 317.068 299.01C317.068 306.631 317.343 311.778 317.894 314.453C318.846 318.995 320.849 321.266 323.904 321.266C327.409 321.266 329.412 318.187 329.913 312.03C330.113 309.558 330.213 304.789 330.213 297.724Z" fill="#3F3F3F"/>
<path d="M377.829 322.098H346.43V320.357H349.81V278.421H346.43V276.68H366.261V278.421H361.303V320.357H365.961C366.712 320.357 367.313 320.357 367.763 320.357C368.464 320.357 369.015 320.332 369.416 320.281C369.867 320.231 370.267 320.054 370.618 319.752C372.321 318.44 373.798 314.1 375.05 306.732L375.5 304.234H377.829V322.098Z" fill="#3F3F3F"/>
<path d="M400 322.098H381.671V320.357H385.127V278.421H381.671V276.68H400V278.421H396.545V320.357H400V322.098Z" fill="#3F3F3F"/>
<path d="M102.533 192.851V124H122.753H142.973V192.851V261.702H122.753H102.533V192.851V192.851Z" fill="#0559A3"/>
<path d="M154.279 192.851V124H174.499H194.719V192.851V261.702H174.499H154.279V192.851V192.851Z" fill="#0559A3"/>
<path d="M205.471 192.851V124H225.691H245.911V192.851V261.702H225.691H205.471V192.851Z" fill="#0559A3"/>
<path d="M257.248 242.25V223.054H327.635H398.021V242.25V261.447H327.635H257.248V242.25Z" fill="#0559A3"/>
<path d="M257.248 192.761V173.565H327.635H398.021V192.761V211.957H327.635H257.248V192.761V192.761Z" fill="#0559A3"/>
<path d="M257.248 143.619V124.423H327.635H398.021V143.619V162.815H327.635H257.248V143.619Z" fill="#0559A3"/>
</svg>
