<svg width="500" height="500" viewBox="0 0 500 500" fill="none" xmlns="http://www.w3.org/2000/svg">
<rect width="500" height="500" fill="white"/>
<path d="M337.913 354.895C337.913 346.536 337.807 335.871 327.642 335.871C317.472 335.871 317.371 346.536 317.371 354.895C317.371 363.35 317.472 374.023 327.642 374.023C337.807 374.023 337.913 363.35 337.913 354.895Z" fill="#00379E"/>
<path d="M306.216 136.014C306.216 131.712 308.407 130.713 309.824 130.713C311.251 130.713 313.432 131.712 313.432 136.014C313.432 140.314 311.251 141.317 309.824 141.317C308.407 141.317 306.216 140.314 306.216 136.014Z" fill="#00379E"/>
<path d="M286.288 131.309H283.798V135.231H285.961C287.406 135.231 288.935 135.123 288.935 133.176C288.935 131.418 287.65 131.309 286.288 131.309Z" fill="#00379E"/>
<path d="M263.333 131.309H260.841V135.231H263.006C264.451 135.231 265.976 135.123 265.976 133.176C265.976 131.418 264.706 131.309 263.333 131.309Z" fill="#00379E"/>
<path d="M215.21 130.959H212.598V134.8H215.52C216.558 134.8 217.981 134.608 217.981 132.877C217.981 131.662 217.345 130.959 215.21 130.959Z" fill="#00379E"/>
<path fill-rule="evenodd" clip-rule="evenodd" d="M107 100H393.667V386.667H296.815C297.427 384.956 297.766 383.016 297.766 380.829C297.766 378.65 297.347 376.582 296.362 374.729H311.454V372.41H305.522V333.851C301.89 334.762 297.965 334.859 294.238 334.859H282.051C280.242 334.233 278.168 333.923 275.813 333.923C265.849 333.923 261.32 341.467 261.32 347.813C261.32 353.553 264.34 356.97 268.873 359.179V359.391C265.047 359.99 260.786 361.744 258.041 367.278C257.462 368.444 256.97 369.452 256.577 370.325C253.835 368.764 249.711 368.444 239.703 368.444H228.932C227.422 368.444 226.315 367.443 226.315 366.335C226.315 362.1 232.867 361.355 240.879 360.445L240.881 360.444C242.394 360.272 243.959 360.094 245.542 359.886C247.66 359.687 255.712 356.771 255.712 347.309C255.712 345.575 255.179 343.916 254.769 342.64C254.512 341.842 254.304 341.194 254.304 340.771C254.304 339.752 256.482 338.35 257.49 338.35C257.769 338.35 258.093 338.815 258.487 339.38C259.097 340.255 259.875 341.37 260.911 341.37C263.029 341.37 264.138 339.557 264.138 337.55C264.138 334.929 262.017 334.118 260.215 334.118C256.886 334.118 253.804 337.438 252.79 339.752C250.173 335.833 246.046 333.923 240.209 333.923C230.242 333.923 225.713 341.467 225.713 347.813C225.713 353.553 228.733 356.97 233.26 359.179V359.391C229.438 359.99 223.194 361.607 223.194 367.133C223.194 367.268 223.141 367.385 223.083 367.512C223.045 367.594 223.006 367.681 222.977 367.78C222.479 369.491 221.472 372.313 219.462 372.313C217.343 372.313 217.343 370.7 217.343 367.683V343.723C217.343 339.693 217.343 333.85 203.648 333.85C191.672 333.85 187.537 339.895 187.537 343.52C187.537 346.333 189.053 348.353 191.774 348.353C194.285 348.353 195.898 346.643 195.898 344.121C195.898 341.897 194.547 340.939 193.653 340.305C193.211 339.992 192.881 339.758 192.881 339.49C192.881 336.566 200.023 335.87 202.244 335.87C205.761 335.87 209.492 337.284 209.492 342.008V351.572C194.09 351.572 184.526 356.81 184.219 366.171C184.219 373.618 189.656 376.038 195.998 376.038C201.134 376.038 206.165 374.122 209.595 369.893C210.296 373.618 212.414 376.038 216.134 376.038C219.653 376.038 222.59 374.004 223.931 370.951C225.629 374.62 229.977 375.22 233.958 375.769L234.168 375.798V376.103C229.158 377.379 222.716 379.988 222.405 386.667H107V100ZM342.98 374.729V372.41H350.734V310.181H342.98V307.867H347.312C351.043 307.867 354.958 307.66 358.583 306.959V372.41L370.529 372.41V337.184H363.785V334.859H367.111C370.838 334.859 374.757 334.762 378.388 333.851V372.41H384.327V374.729L342.98 374.729ZM374.359 320.585C376.784 320.585 379.49 322.794 379.49 325.422C379.49 328.537 377.277 330.754 374.359 330.754C371.443 330.754 369.527 328.338 369.527 325.422C369.527 322.794 371.843 320.585 374.359 320.585ZM308.217 354.895C308.217 342.718 317.072 333.851 327.642 333.851C338.212 333.851 347.066 342.718 347.066 354.895C347.066 367.074 338.212 376.039 327.642 376.039C317.072 376.039 308.217 367.074 308.217 354.895ZM305.778 325.299C305.778 322.688 303.053 320.471 300.636 320.471C298.119 320.471 295.815 322.688 295.815 325.299C295.815 328.224 297.718 330.64 300.636 330.64C303.559 330.64 305.778 328.418 305.778 325.299ZM115.224 307.475V309.793H122.776V372.41H115.224V374.728H133.346V372.41H125.796V311.002H125.997L144.824 374.728H147.439L166.967 311.002H167.173V372.41H159.419V374.728H184.592V372.41H176.938V309.793H184.592V307.475H164.556L149.753 357.008H149.554L135.36 307.475H115.224ZM195.64 145.671H199.168V135.041H191.749V139.178H194.217C193.936 140.612 192.617 141.317 191.323 141.317C187.917 141.317 187.231 138.151 187.231 136.34L187.231 136.218C187.227 134.769 187.217 130.713 190.94 130.713C192.26 130.713 193.378 131.712 193.581 133.122H198.943C198.13 128.578 195.208 125.9 190.588 125.9C186.494 125.9 181.642 128.844 181.642 136.204C181.642 141.696 184.947 146.132 190.305 146.132C192.286 146.132 194.217 145.403 195.459 143.696L195.64 145.671ZM300.63 136.014C300.63 141.912 304.315 146.132 309.824 146.132C315.341 146.132 319.02 141.912 319.02 136.014C319.02 130.116 315.341 125.901 309.824 125.901C304.315 125.901 300.63 130.116 300.63 136.014ZM283.798 145.671H278.212V126.361H287.559C292.488 126.361 294.212 130.2 294.212 132.96C294.212 137.636 291.266 139.829 287.096 139.829H283.798V145.671ZM260.841 145.671H255.259V126.361H264.604C269.529 126.361 271.255 130.2 271.255 132.96C271.255 137.636 268.309 139.829 264.148 139.829H260.841V145.671ZM212.598 145.67H207.009V126.363H217.65C220.823 126.363 223.572 128.225 223.572 131.876C223.572 133.879 222.705 135.99 220.851 136.721C222.374 137.339 223.317 139.126 223.52 141.535C223.533 141.704 223.545 141.916 223.558 142.156C223.618 143.257 223.71 144.939 224.128 145.67H218.541C218.26 144.697 218.158 143.698 218.085 142.694L218.083 142.677C217.93 140.844 217.771 138.935 215.567 138.935H212.598V145.67ZM241.777 126.362H247.364V138.203C247.364 143.561 244.645 146.132 239.113 146.132C233.571 146.132 230.827 143.561 230.827 138.203V126.362H236.418V136.884C236.418 138.856 236.418 141.318 239.136 141.318C241.777 141.318 241.777 138.856 241.777 136.884V126.362Z" fill="#00379E"/>
<path d="M207.43 369.033C208.245 368.238 209.492 367.022 209.492 363.046V353.683C202.949 353.784 191.774 354.896 191.774 364.151C191.774 369.093 194.892 372.11 199.525 372.11C202.746 372.11 204.861 371.295 207.279 369.182C207.327 369.134 207.377 369.085 207.428 369.035L207.43 369.033Z" fill="#00379E"/>
<path d="M297.662 372.41H294.711C291.583 369.022 288.759 368.444 275.318 368.444H264.538C263.029 368.444 261.924 367.443 261.924 366.335C261.924 362.1 268.474 361.355 276.486 360.444C278 360.272 279.566 360.094 281.149 359.886C283.267 359.687 291.317 356.771 291.317 347.309C291.317 342.869 288.395 339.752 288.395 339.752C287.739 338.771 286.99 337.915 286.143 337.184H297.662V372.41Z" fill="#00379E"/>
<path d="M263.963 386.435C263.963 392.873 270.707 394.997 275.945 394.997C293.066 394.997 293.774 385.433 293.774 383.824C293.774 377.881 291.959 374.965 279.17 374.965C267.29 374.965 263.963 383.013 263.963 386.435Z" fill="#00379E"/>
<path d="M268.7 347.575C268.7 338.015 271.12 335.599 276.146 335.599C282.189 335.599 282.99 341.636 282.99 346.675C282.99 352.915 282.486 358.145 275.147 358.145C269.6 358.145 268.7 352.108 268.7 347.575Z" fill="#00379E"/>
<path d="M240.343 394.997C235.102 394.997 228.356 392.873 228.356 386.435C228.356 383.013 231.679 374.965 243.561 374.965C256.341 374.965 258.16 377.881 258.16 383.824C258.16 385.433 257.453 394.997 240.343 394.997Z" fill="#00379E"/>
<path d="M240.538 335.599C235.507 335.599 233.091 338.015 233.091 347.575C233.091 352.108 233.995 358.145 239.53 358.145C246.883 358.145 247.387 352.915 247.387 346.675C247.387 341.636 246.583 335.599 240.538 335.599Z" fill="#00379E"/>
</svg>
