<svg width="500" height="500" viewBox="0 0 500 500" fill="none" xmlns="http://www.w3.org/2000/svg">
<rect width="500" height="500" fill="#282828"/>
<path d="M372.727 318.182H338.636C327.34 318.182 318.182 327.34 318.182 338.636C318.182 349.933 327.34 359.091 338.636 359.091H352.273C356.038 359.091 359.091 362.144 359.091 365.909C359.091 369.675 356.038 372.727 352.273 372.727H318.182V386.364H352.273C363.569 386.364 372.727 377.206 372.727 365.909C372.727 354.612 363.569 345.455 352.273 345.455H338.636C334.871 345.455 331.818 342.402 331.818 338.636C331.818 334.871 334.871 331.818 338.636 331.818H372.727V318.182Z" fill="#CBA26B"/>
<path d="M263.636 318.182H250V331.818C250 344.526 258.692 355.204 270.455 358.232V386.364H284.091V358.232C295.854 355.204 304.545 344.526 304.545 331.818V318.182H290.909V331.818C290.909 339.349 284.804 345.455 277.273 345.455C269.742 345.455 263.636 339.349 263.636 331.818V318.182Z" fill="#CBA26B"/>
<path fill-rule="evenodd" clip-rule="evenodd" d="M209.091 318.182C224.153 318.182 236.364 330.392 236.364 345.455V386.364H222.727V372.727H195.455V386.364H181.818V345.455C181.818 330.392 194.029 318.182 209.091 318.182ZM222.727 359.091V345.455C222.727 337.923 216.622 331.818 209.091 331.818C201.56 331.818 195.455 337.923 195.455 345.455V359.091H222.727Z" fill="#CBA26B"/>
<path fill-rule="evenodd" clip-rule="evenodd" d="M113.636 318.182V386.364H134.091C152.919 386.364 168.182 371.101 168.182 352.273C168.182 333.445 152.919 318.182 134.091 318.182H113.636ZM127.273 372.727H134.091C145.388 372.727 154.545 363.57 154.545 352.273C154.545 340.976 145.388 331.818 134.091 331.818H127.273V372.727Z" fill="#CBA26B"/>
<path fill-rule="evenodd" clip-rule="evenodd" d="M304.545 100H195.455C142.736 100 100 142.736 100 195.455V250C100 272.593 118.316 290.909 140.909 290.909H304.545C357.264 290.909 400 248.173 400 195.455C400 142.736 357.264 100 304.545 100ZM195.455 127.273C157.799 127.273 127.273 157.799 127.273 195.455V250C127.273 257.531 133.378 263.636 140.909 263.636C148.44 263.636 154.545 257.531 154.545 250V195.455C154.545 172.861 172.861 154.545 195.455 154.545H236.364C243.895 154.545 250 160.651 250 168.182C250 175.713 243.895 181.818 236.364 181.818H222.727C200.134 181.818 181.818 200.134 181.818 222.727C181.818 245.321 200.134 263.636 222.727 263.636H304.545C342.201 263.636 372.727 233.11 372.727 195.455C372.727 157.799 342.201 127.273 304.545 127.273C297.014 127.273 290.909 133.378 290.909 140.909C290.909 148.44 297.014 154.545 304.545 154.545C327.139 154.545 345.455 172.861 345.455 195.455C345.455 218.048 327.139 236.364 304.545 236.364H222.727C215.196 236.364 209.091 230.258 209.091 222.727C209.091 215.196 215.196 209.091 222.727 209.091H236.364C258.957 209.091 277.273 190.775 277.273 168.182C277.273 145.588 258.957 127.273 236.364 127.273H195.455Z" fill="#CBA26B"/>
</svg>
