<svg width="500" height="500" viewBox="0 0 500 500" fill="none" xmlns="http://www.w3.org/2000/svg">
<rect width="500" height="500" fill="white"/>
<path d="M181.43 125.935C222.238 117.254 262.432 108.707 303.374 100C306.526 112.66 309.784 125.561 313.309 139.663C272.902 148.264 232.494 156.864 191.365 165.598C188.267 153.232 185.035 140.305 181.43 125.935Z" fill="#3F3F3F"/>
<path d="M181.189 374.065C221.997 382.746 262.191 391.293 303.133 400C306.285 387.34 309.543 374.439 313.068 360.337C272.661 351.736 232.253 343.136 191.124 334.402C188.026 346.768 184.794 359.696 181.189 374.065Z" fill="#3F3F3F"/>
<path d="M400 197.463C393.216 237.073 386.513 276.122 379.703 315.892C366.189 313.916 352.408 311.912 337.372 309.749C344.102 270.513 350.806 231.277 357.669 191.319C370.836 193.216 384.67 195.219 400 197.463Z" fill="#3F3F3F"/>
<path d="M142.357 190.465C149.141 230.075 155.844 269.124 162.655 308.894C149.141 310.871 135.36 312.874 120.324 315.037C113.594 275.801 106.864 236.565 100 196.608" fill="#3F3F3F"/>
<path d="M308.207 193.135H191.631V306.677H308.207V193.135Z" fill="#00379E"/>
</svg>
