<svg width="48" height="44" viewBox="0 0 48 44" fill="none" xmlns="http://www.w3.org/2000/svg">
<path d="M20.2207 7.20605C20.1169 9.2512 18.4768 10.8913 16.4317 10.9951L16.2256 11H8.22559C7.67331 11 7.22559 11.4477 7.22559 12C7.22559 12.5523 7.67331 13 8.22559 13H16.2256C18.4347 13 20.2256 14.7909 20.2256 17C20.2256 19.14 18.545 20.8879 16.4317 20.9951L16.2256 21H4.22559C3.67331 21 3.22559 21.4477 3.22559 22C3.22559 22.5523 3.67331 23 4.22559 23H16.2256C18.4347 23 20.2256 24.7909 20.2256 27C20.2256 29.14 18.545 30.8879 16.4317 30.9951L16.2256 31H8.22559C7.67331 31 7.22559 31.4477 7.22559 32C7.22559 32.5523 7.67331 33 8.22559 33H16.2256C18.4347 33 20.2256 34.7909 20.2256 37C20.2256 39.14 18.545 40.8879 16.4317 40.9951L16.2256 41H13.2256V38H16.2256C16.7779 38 17.2256 37.5523 17.2256 37C17.2256 36.4823 16.8323 36.0562 16.3281 36.0049L16.2256 36H8.22559C6.01645 36 4.22559 34.2091 4.22559 32C4.22559 29.7909 6.01645 28 8.22559 28H16.2256C16.7779 28 17.2256 27.5523 17.2256 27C17.2256 26.4823 16.8323 26.0562 16.3281 26.0049L16.2256 26H4.22559C2.01645 26 0.225586 24.2091 0.225586 22C0.225586 19.7909 2.01645 18 4.22559 18H16.2256C16.7779 18 17.2256 17.5523 17.2256 17C17.2256 16.4823 16.8323 16.0562 16.3281 16.0049L16.2256 16H8.22559C6.01645 16 4.22559 14.2091 4.22559 12C4.22559 9.79086 6.01645 8 8.22559 8H16.2256C16.7433 8 17.1694 7.60667 17.2207 7.10254L17.2256 7V4C17.2256 1.79086 19.0165 -9.65645e-08 21.2256 0C23.3656 9.3544e-08 25.1135 1.68056 25.2207 3.79395L25.2256 4V40C25.2256 40.5523 25.6733 41 26.2256 41C26.7433 41 27.1694 40.6067 27.2207 40.1025L27.2256 40V37C27.2256 34.7909 29.0165 33 31.2256 33H39.2256C39.7779 33 40.2256 32.5523 40.2256 32C40.2256 31.4823 39.8323 31.0562 39.3281 31.0049L39.2256 31H31.2256C29.0165 31 27.2256 29.2091 27.2256 27C27.2256 24.7909 29.0165 23 31.2256 23H43.2256C43.7779 23 44.2256 22.5523 44.2256 22C44.2256 21.4823 43.8323 21.0562 43.3281 21.0049L43.2256 21H31.2256C29.0165 21 27.2256 19.2091 27.2256 17C27.2256 14.7909 29.0165 13 31.2256 13H39.2256C39.7779 13 40.2256 12.5523 40.2256 12C40.2256 11.4823 39.8323 11.0562 39.3281 11.0049L39.2256 11H31.2256C29.0165 11 27.2256 9.20914 27.2256 7C27.2256 4.79086 29.0165 3 31.2256 3H34.2256V6H31.2256C30.6733 6 30.2256 6.44772 30.2256 7C30.2256 7.55228 30.6733 8 31.2256 8H39.2256C41.4347 8 43.2256 9.79086 43.2256 12C43.2256 14.14 41.545 15.8879 39.4317 15.9951L39.2256 16H31.2256C30.6733 16 30.2256 16.4477 30.2256 17C30.2256 17.5523 30.6733 18 31.2256 18H43.2256C45.4347 18 47.2256 19.7909 47.2256 22C47.2256 24.14 45.545 25.8879 43.4317 25.9951L43.2256 26H31.2256C30.6733 26 30.2256 26.4477 30.2256 27C30.2256 27.5523 30.6733 28 31.2256 28H39.2256C41.4347 28 43.2256 29.7909 43.2256 32C43.2256 34.14 41.545 35.8879 39.4317 35.9951L39.2256 36H31.2256C30.6733 36 30.2256 36.4477 30.2256 37V40C30.2256 42.2091 28.4347 44 26.2256 44C24.0856 44 22.3377 42.3194 22.2305 40.2061L22.2256 40V4C22.2256 3.44772 21.7779 3 21.2256 3C20.6733 3 20.2256 3.44772 20.2256 4V7L20.2207 7.20605Z" fill="#036278"/>
</svg>
