<svg width="201" height="146" viewBox="0 0 201 146" fill="none" xmlns="http://www.w3.org/2000/svg">
<path d="M110.41 69.9646C108.861 71.0711 108.418 72.1776 108.418 73.948C108.418 75.4971 109.082 76.825 110.41 77.9315C110.631 78.1528 110.853 78.1528 111.074 78.3741L122.803 66.645C117.492 66.8663 113.287 67.9728 110.41 69.9646Z" fill="#343434"/>
<path d="M128.778 84.3492C133.204 85.4558 137.188 86.5623 140.95 87.6688L146.704 81.9149L141.171 82.1362C140.507 82.1362 139.843 81.6936 139.843 81.0297L139.622 79.4806C138.737 74.8332 137.188 71.5137 134.975 69.7432C134.311 69.3006 133.647 68.858 132.762 68.4154L119.262 81.9149C121.697 82.5788 124.795 83.464 128.778 84.3492Z" fill="#343434"/>
<path d="M182.998 0.254028H91.1569C86.9521 0.254028 83.1899 1.80315 80.0917 4.45879L58.6253 23.9335H16.799C8.16813 23.9335 1.08643 30.3513 1.08643 38.3182V130.823C1.08643 138.79 8.16813 145.208 16.799 145.208H87.8373C82.9686 139.454 79.6491 132.151 78.1 123.077L59.0679 142.109H47.5601L91.3782 98.2914C86.0669 93.2014 82.9686 87.2262 81.8621 80.1445L19.8972 142.109H16.799C14.3646 142.109 12.1516 141.446 10.1599 140.339L82.3047 68.1942C83.1899 64.8746 84.5178 61.555 86.5095 58.4568C89.829 53.1455 94.919 49.1621 101.337 46.5064C102.665 45.8425 104.214 45.3999 105.763 44.9573L147.368 3.35227H158.876L119.484 42.523C120.812 42.523 122.139 42.523 123.467 42.523C131.434 42.523 138.294 43.6295 144.048 45.6212L185.875 3.57358C188.752 4.23749 191.407 5.78661 192.956 7.77834L151.794 49.1621C153.122 50.0473 154.45 50.9325 155.777 52.039C159.761 55.3586 162.638 59.342 164.63 63.9894L195.612 33.0069V44.5147L167.064 73.0628C167.285 74.6119 167.507 76.1611 167.507 77.9315V79.7019C167.507 80.3658 167.064 81.0297 166.179 81.0297L158.433 81.4724L149.36 90.7671C150.687 91.2097 151.794 91.8736 152.9 92.3162C157.769 94.9718 161.974 98.5127 164.851 102.717L195.612 71.9563V83.4641L168.613 110.463C169.941 114.225 170.605 118.43 170.605 123.077C170.605 129.495 168.834 135.913 165.293 141.446L195.612 111.127V122.635L176.137 142.109H164.851C164.187 143.216 163.523 144.101 162.638 145.208H182.998C191.629 145.208 198.71 138.79 198.71 130.823V14.6387C198.71 6.67182 191.629 0.254028 182.998 0.254028ZM4.18467 38.3182C4.18467 32.1217 9.93856 27.0317 16.799 27.0317H18.1268L4.18467 40.9738V38.3182ZM4.18467 68.4155L45.5684 26.8104H57.0762L4.18467 79.9232V68.4155ZM4.18467 118.873V107.365L108.197 3.35227H119.705L4.18467 118.873Z" fill="#343434"/>
<path d="M111.517 130.38C114.836 133.036 119.262 134.585 125.016 134.585C128.778 134.585 132.098 134.143 134.753 133.036L142.499 125.29C142.72 124.627 142.72 123.741 142.72 123.077C142.72 121.307 142.278 119.979 141.171 118.651C140.065 117.324 137.852 115.996 134.753 115.11C133.426 114.668 130.77 113.783 127.229 112.897L110.631 129.495C110.853 129.717 111.074 130.159 111.517 130.38Z" fill="#343434"/>
<path d="M103.107 114.004C103.771 114.004 104.435 114.447 104.656 115.11L104.878 116.881C105.32 118.873 105.763 120.643 106.205 122.413L117.935 110.684C117.935 110.684 117.935 110.684 117.713 110.684C109.304 108.693 102.665 106.258 97.5746 103.381L85.1816 115.774L103.107 114.004Z" fill="#343434"/>
</svg>
