<svg width="788" height="173" viewBox="0 0 788 173" fill="none" xmlns="http://www.w3.org/2000/svg">
<path d="M297.252 33.2774C290.834 27.7448 282.203 24.8679 271.581 24.8679H236.393C235.508 24.8679 234.623 25.7531 234.623 26.6383V118.7C234.623 119.586 235.508 120.471 236.393 120.471H252.327C253.213 120.471 254.098 119.586 254.098 118.7V86.3902H271.359C282.425 86.3902 291.055 83.7345 297.473 78.4233C303.67 73.112 306.989 65.5877 306.989 56.0716C306.989 46.5556 303.67 39.0313 297.252 33.2774ZM271.581 69.7924H254.098V41.2443H272.023C276.892 41.2443 280.654 42.5721 283.31 45.2278C285.965 47.8834 287.293 51.4243 287.293 55.8503C287.293 60.4977 285.965 63.8172 283.31 66.2516C280.875 68.6859 276.671 69.7924 271.581 69.7924Z" fill="#010202"/>
<path d="M325.8 119.364L331.332 104.758H359.438L364.971 119.364C365.192 120.028 365.856 120.471 366.52 120.471H382.011C382.675 120.471 383.117 120.25 383.56 119.807C384.003 119.364 384.003 118.7 383.781 118.258L354.127 44.5639C353.905 43.9 353.241 43.4574 352.578 43.4574H338.414C337.75 43.4574 337.086 43.9 336.865 44.5639L306.989 118.037C306.768 118.479 306.768 119.143 307.21 119.586C307.432 120.028 308.096 120.25 308.76 120.25H324.251C324.915 120.471 325.579 120.028 325.8 119.364ZM337.308 89.4885L345.496 68.2433L353.684 89.4885H337.308Z" fill="#010202"/>
<path d="M459.025 110.512C459.246 110.291 459.467 109.848 459.467 109.406V79.9724C459.467 79.0872 458.582 78.202 457.697 78.202H426.714C425.829 78.202 424.944 79.0872 424.944 79.9724V91.2589C424.944 92.1441 425.829 93.0293 426.714 93.0293H440.656V102.988C438.001 104.758 434.017 105.644 428.706 105.644C422.952 105.644 418.747 103.873 415.649 100.332C412.551 96.7915 411.002 91.2589 411.002 83.9559V79.9724C411.002 65.1451 416.313 58.0634 427.157 58.0634C431.362 58.0634 434.46 58.9486 436.673 60.719C438.886 62.2682 440.214 65.1451 440.878 68.9073C441.099 69.7925 441.763 70.4564 442.648 70.4564H457.697C458.139 70.4564 458.582 70.2351 459.025 69.7925C459.467 69.3499 459.467 68.9073 459.467 68.4647C458.361 59.8338 455.041 53.416 449.287 48.99C443.755 44.5639 436.23 42.3509 426.714 42.3509C415.87 42.3509 407.461 45.6704 401.264 52.3095C395.068 58.9486 391.97 68.2434 391.97 79.7511V83.9559C391.97 95.4637 395.289 104.758 401.707 111.397C408.125 118.037 416.977 121.577 427.821 121.577C440.878 121.577 450.836 118.479 457.476 112.283L459.025 110.512Z" fill="#010202"/>
<path d="M543.562 83.5133V80.6363C543.562 68.9073 540.242 59.6125 534.046 52.7521C527.628 45.8917 518.997 42.3509 508.375 42.3509C501.514 42.3509 495.318 43.9 490.007 46.9982C484.695 50.0965 480.491 54.5225 477.614 60.4977C474.737 66.2516 473.188 72.8907 473.188 80.415V83.292C473.188 95.021 476.507 104.316 482.925 111.176C489.343 118.037 497.973 121.577 508.375 121.577C518.776 121.577 527.407 118.037 533.825 111.397C540.464 104.316 543.562 95.0211 543.562 83.5133ZM496.646 63.596C499.523 60.0551 503.506 58.2847 508.596 58.2847C513.907 58.2847 517.669 60.0551 520.546 63.596C523.423 67.3581 524.972 72.8907 524.972 80.1937V83.5133C524.972 90.8163 523.423 96.3489 520.546 100.111C517.669 103.873 513.907 105.644 508.596 105.644C503.506 105.644 499.523 103.873 496.646 100.111C493.769 96.3489 492.22 90.8163 492.22 83.7346V80.415C492.22 72.8907 493.769 67.3581 496.646 63.596Z" fill="#010202"/>
<path d="M565.029 120.471H572.774C573.66 120.471 574.545 119.586 574.545 118.7V45.6704L624.338 119.586C624.559 120.028 625.223 120.25 625.887 120.25H633.633C634.518 120.25 635.403 119.364 635.403 118.479V26.6383C635.403 25.7531 634.518 24.8679 633.633 24.8679H625.887C625.002 24.8679 624.117 25.7531 624.117 26.6383V99.6684L574.323 25.5318C574.102 25.0892 573.438 24.8679 572.774 24.8679H565.029C564.143 24.8679 563.258 25.7531 563.258 26.6383V118.7C563.48 119.586 564.143 120.471 565.029 120.471Z" fill="#010202"/>
<path d="M661.739 120.471H711.311C712.196 120.471 713.081 119.586 713.081 118.7V112.283C713.081 111.397 712.196 110.512 711.311 110.512H671.033V85.505H705.778C706.663 85.505 707.548 84.6198 707.548 83.7346V77.3168C707.548 76.4315 706.663 75.5463 705.778 75.5463H671.033V53.416H711.089C711.975 53.416 712.86 52.5308 712.86 51.6456V45.0065C712.86 44.1213 711.975 43.2361 711.089 43.2361H661.739C660.854 43.2361 659.968 44.1213 659.968 45.0065V118.7C659.968 119.586 660.632 120.471 661.739 120.471Z" fill="#010202"/>
<path d="M760.44 118.7V53.416H785.668C786.553 53.416 787.439 52.5308 787.439 51.6456V45.0065C787.439 44.1213 786.553 43.2361 785.668 43.2361H724.367C723.482 43.2361 722.597 44.1213 722.597 45.0065V51.6456C722.597 52.5308 723.482 53.416 724.367 53.416H749.596V118.7C749.596 119.586 750.481 120.471 751.366 120.471H758.89C759.776 120.471 760.44 119.586 760.44 118.7Z" fill="#010202"/>
<path d="M130.832 71.5629H133.045C135.479 71.5629 137.471 71.7842 139.463 72.2269L157.167 54.5226C154.954 53.4161 152.741 52.5309 150.307 52.0883L130.832 71.5629Z" fill="url(#paint0_linear)"/>
<path d="M122.422 102.103H133.044C140.126 102.103 148.536 99.6685 148.536 87.7181C148.536 75.989 140.126 73.5547 133.044 73.5547H122.422V102.103Z" fill="url(#paint1_linear)"/>
<path d="M95.2017 75.5465V84.8412L129.504 50.5392H119.988L95.2017 75.5465Z" fill="url(#paint2_linear)"/>
<path d="M153.183 122.241L173.985 101.439C175.313 97.8981 175.977 93.9146 176.198 89.9312L141.232 124.676C145.658 124.233 149.642 123.569 153.183 122.241Z" fill="url(#paint3_linear)"/>
<path d="M150.306 83.956C150.528 85.0625 150.528 86.3903 150.528 87.7181C150.528 89.9312 150.306 91.9229 149.643 93.6933L172.658 70.6778C171.773 68.4647 170.445 66.6943 169.117 64.7026L150.306 83.956Z" fill="url(#paint4_linear)"/>
<path d="M187.706 0.745911H91.8819C88.3411 0.745911 85.0215 2.07373 82.5872 4.28676L59.129 25.3106H14.2045C6.90146 25.3106 0.92627 30.6219 0.92627 37.261V133.749C0.92627 140.388 6.90146 145.7 14.2045 145.7H90.1115H93.2098V52.7522C93.2098 50.5392 94.9802 48.7687 97.1932 48.7687H139.02C162.699 48.7687 178.412 64.4813 178.412 87.7181C178.412 110.734 161.814 126.668 137.913 126.668H122.643V145.478H143.224H162.92H187.706C195.009 145.478 200.984 140.167 200.984 133.528V12.6963C200.763 6.05719 194.788 0.745911 187.706 0.745911Z" fill="url(#paint5_linear)"/>
<path d="M95.2017 145.478H98.0786L140.569 102.988C138.356 103.652 135.921 104.095 133.045 104.095H130.168L95.2017 139.06V145.478Z" fill="url(#paint6_linear)"/>
<path d="M95.2017 116.709L120.652 91.259V81.9642L95.2017 107.414V116.709Z" fill="url(#paint7_linear)"/>
<path d="M237.279 158.756V166.502H234.623V146.806H241.926C244.139 146.806 245.688 147.249 247.016 148.355C248.344 149.462 248.786 151.011 248.786 152.781C248.786 154.773 248.123 156.101 247.016 157.207C245.91 158.314 244.139 158.756 241.926 158.756H237.279ZM237.279 156.765H241.926C243.254 156.765 244.36 156.543 245.024 155.879C245.688 155.216 246.131 154.33 246.131 153.003C246.131 151.896 245.688 150.789 245.024 150.126C244.36 149.462 243.254 149.019 241.926 149.019H237.057V156.765H237.279Z" fill="#010202"/>
<path d="M262.728 166.502C262.507 166.281 262.507 165.617 262.286 164.953C261.179 166.059 259.63 166.723 258.081 166.723C256.532 166.723 255.425 166.281 254.54 165.396C253.655 164.51 253.212 163.625 253.212 162.297C253.212 160.748 253.876 159.642 254.983 158.756C256.089 157.871 257.86 157.429 259.852 157.429H262.286V156.322C262.286 155.437 262.065 154.773 261.401 154.33C260.958 153.888 260.073 153.445 259.188 153.445C258.302 153.445 257.638 153.666 256.975 154.109C256.311 154.552 256.089 155.216 256.089 155.658H253.655C253.655 154.994 253.876 154.109 254.54 153.445C254.983 152.781 255.868 152.117 256.753 151.896C257.638 151.453 258.524 151.232 259.63 151.232C261.401 151.232 262.728 151.675 263.614 152.56C264.499 153.445 265.163 154.552 265.163 156.101V162.961C265.163 164.289 265.384 165.396 265.605 166.281V166.502H262.728ZM258.524 164.732C259.409 164.732 260.073 164.51 260.737 164.068C261.401 163.625 262.065 163.182 262.286 162.519V159.42H260.294C257.196 159.42 255.647 160.306 255.647 162.076C255.647 162.961 255.868 163.404 256.532 163.846C257.196 164.51 257.86 164.732 258.524 164.732Z" fill="#010202"/>
<path d="M270.253 158.978C270.253 156.765 270.696 154.773 271.802 153.445C272.909 152.117 274.236 151.453 276.007 151.453C277.777 151.453 279.105 152.117 280.212 153.445L280.433 151.896H282.646V166.281C282.646 168.272 281.982 169.6 280.875 170.707C279.769 171.813 278.22 172.256 276.228 172.256C275.122 172.256 274.236 172.035 273.13 171.592C272.023 171.149 271.359 170.486 270.917 169.822L272.245 168.272C273.351 169.6 274.679 170.264 276.228 170.264C277.556 170.264 278.441 169.822 279.105 169.158C279.769 168.494 280.212 167.609 280.212 166.281V164.953C279.105 166.059 277.777 166.723 276.007 166.723C274.236 166.723 272.909 166.059 271.802 164.732C270.917 163.404 270.253 161.412 270.253 158.978ZM272.909 159.42C272.909 160.969 273.351 162.297 274.015 163.404C274.679 164.289 275.564 164.732 276.892 164.732C278.441 164.732 279.548 164.068 280.433 162.519V155.879C279.769 154.552 278.441 153.666 276.892 153.666C275.564 153.666 274.679 154.109 274.015 154.994C273.13 156.101 272.909 157.429 272.909 159.42Z" fill="#010202"/>
<path d="M297.695 166.502C297.473 166.281 297.473 165.617 297.252 164.953C296.146 166.059 294.597 166.723 293.047 166.723C291.498 166.723 290.392 166.281 289.507 165.396C288.621 164.51 288.179 163.625 288.179 162.297C288.179 160.748 288.843 159.642 289.949 158.756C291.056 157.871 292.826 157.429 294.818 157.429H297.252V156.322C297.252 155.437 297.031 154.773 296.367 154.33C295.924 153.888 295.039 153.445 294.154 153.445C293.269 153.445 292.605 153.666 291.941 154.109C291.277 154.552 291.056 155.216 291.056 155.658H288.621C288.621 154.994 288.843 154.109 289.507 153.445C289.949 152.781 290.834 152.117 291.72 151.896C292.605 151.453 293.49 151.232 294.596 151.232C296.367 151.232 297.695 151.675 298.58 152.56C299.465 153.445 300.129 154.552 300.129 156.101V162.961C300.129 164.289 300.35 165.396 300.572 166.281V166.502H297.695ZM293.49 164.732C294.375 164.732 295.039 164.51 295.703 164.068C296.367 163.625 297.031 163.182 297.252 162.519V159.42H295.26C292.162 159.42 290.613 160.306 290.613 162.076C290.613 162.961 290.834 163.404 291.498 163.846C291.941 164.51 292.605 164.732 293.49 164.732Z" fill="#010202"/>
<path d="M308.095 151.896V153.445C309.202 152.117 310.53 151.453 312.521 151.453C314.513 151.453 316.062 152.339 316.726 153.888C317.169 153.224 317.833 152.56 318.718 152.117C319.603 151.675 320.488 151.453 321.595 151.453C324.914 151.453 326.463 153.224 326.463 156.543V166.281H324.029V156.543C324.029 155.437 323.808 154.773 323.365 154.109C322.923 153.445 322.037 153.224 320.931 153.224C320.046 153.224 319.16 153.445 318.497 154.109C317.833 154.773 317.611 155.437 317.39 156.322V166.059H314.956V156.322C314.956 154.109 313.849 153.224 311.857 153.224C310.308 153.224 308.98 153.888 308.538 155.437V166.059H306.104V151.453H308.095V151.896Z" fill="#010202"/>
<path d="M338.414 166.723C336.422 166.723 334.873 166.059 333.545 164.732C332.218 163.404 331.775 161.633 331.775 159.42V158.978C331.775 157.429 331.996 156.322 332.66 154.994C333.324 153.888 333.988 153.003 335.094 152.339C336.201 151.675 337.086 151.453 338.414 151.453C340.406 151.453 341.734 152.117 342.84 153.445C343.947 154.773 344.389 156.543 344.389 158.756V159.863H334.431C334.431 161.412 334.873 162.519 335.758 163.404C336.644 164.289 337.529 164.732 338.857 164.732C339.742 164.732 340.406 164.51 341.07 164.289C341.734 163.846 342.176 163.404 342.619 162.74L344.168 163.846C342.619 165.838 340.848 166.723 338.414 166.723ZM337.971 153.666C336.865 153.666 336.201 154.109 335.316 154.773C334.652 155.437 334.209 156.543 333.988 157.871H341.291V157.65C341.291 156.322 340.848 155.437 340.184 154.773C339.963 154.109 339.078 153.666 337.971 153.666Z" fill="#010202"/>
<path d="M351.471 151.896V153.666C352.578 152.339 354.127 151.453 355.897 151.453C358.996 151.453 360.545 153.224 360.545 156.765V166.502H358.111V156.765C358.111 155.658 357.889 154.994 357.447 154.33C357.004 153.888 356.34 153.666 355.234 153.666C354.348 153.666 353.684 153.888 353.021 154.33C352.357 154.773 351.914 155.437 351.471 156.101V166.502H349.037V151.896H351.471Z" fill="#010202"/>
<path d="M369.839 148.355V151.896H372.495V153.888H369.839V162.961C369.839 163.625 370.06 164.068 370.282 164.289C370.503 164.51 370.946 164.732 371.609 164.732C371.831 164.732 372.273 164.732 372.716 164.51V166.502C372.052 166.723 371.388 166.723 370.724 166.723C369.618 166.723 368.732 166.281 368.29 165.617C367.626 164.953 367.405 164.068 367.405 162.74V153.666H364.749V151.675H367.405V148.134H369.839V148.355Z" fill="#010202"/>
<path d="M377.585 147.913C377.585 147.47 377.806 147.249 378.028 146.806C378.249 146.585 378.691 146.363 379.134 146.363C379.577 146.363 380.019 146.585 380.241 146.806C380.462 147.027 380.683 147.47 380.683 147.913C380.683 148.355 380.462 148.576 380.241 149.019C380.019 149.24 379.577 149.462 379.134 149.462C378.691 149.462 378.249 149.24 378.028 149.019C377.806 148.798 377.585 148.355 377.585 147.913ZM380.462 166.502H378.028V151.896H380.462V166.502Z" fill="#010202"/>
<path d="M411.002 157.207C411.002 159.199 410.78 160.748 410.116 162.297C409.453 163.846 408.567 164.953 407.461 165.617C406.354 166.281 404.805 166.723 403.256 166.723C401.707 166.723 400.379 166.281 399.051 165.617C397.945 164.953 396.838 163.846 396.174 162.297C395.51 160.969 395.068 159.199 395.068 157.429V156.101C395.068 154.109 395.289 152.56 395.953 151.011C396.617 149.462 397.502 148.355 398.83 147.691C400.158 147.027 401.486 146.585 403.035 146.585C404.584 146.585 405.912 147.027 407.24 147.691C408.346 148.355 409.453 149.462 410.116 151.011C410.78 152.56 411.002 154.109 411.002 156.101V157.207ZM408.567 156.101C408.567 153.666 408.125 151.896 407.24 150.789C406.354 149.683 405.027 149.019 403.256 149.019C401.707 149.019 400.379 149.683 399.273 150.789C398.387 152.117 397.945 153.888 397.724 156.101V157.65C397.724 159.863 398.166 161.633 399.051 162.961C399.937 164.289 401.264 164.953 403.035 164.953C404.805 164.953 405.912 164.289 407.018 163.182C407.903 161.855 408.346 160.306 408.346 157.871V156.101H408.567Z" fill="#010202"/>
<path d="M418.968 151.896V153.666C420.075 152.339 421.624 151.453 423.394 151.453C426.493 151.453 428.042 153.224 428.042 156.765V166.502H425.829V156.765C425.829 155.658 425.608 154.994 425.165 154.33C424.722 153.888 424.058 153.666 422.952 153.666C422.067 153.666 421.403 153.888 420.739 154.33C420.075 154.773 419.632 155.437 419.19 156.101V166.502H416.755V151.896H418.968Z" fill="#010202"/>
<path d="M436.894 166.502H434.459V145.7H436.894V166.502Z" fill="#010202"/>
<path d="M442.87 147.913C442.87 147.47 443.091 147.249 443.312 146.806C443.534 146.585 443.976 146.363 444.419 146.363C444.861 146.363 445.304 146.585 445.525 146.806C445.747 147.027 445.968 147.47 445.968 147.913C445.968 148.355 445.747 148.576 445.525 149.019C445.304 149.24 444.861 149.462 444.419 149.462C443.976 149.462 443.534 149.24 443.312 149.019C443.091 148.798 442.87 148.355 442.87 147.913ZM445.747 166.502H443.312V151.896H445.747V166.502Z" fill="#010202"/>
<path d="M454.156 151.896V153.666C455.263 152.339 456.812 151.453 458.582 151.453C461.68 151.453 463.229 153.224 463.229 156.765V166.502H460.795V156.765C460.795 155.658 460.574 154.994 460.131 154.33C459.689 153.888 459.025 153.666 457.918 153.666C457.033 153.666 456.369 153.888 455.705 154.33C455.041 154.773 454.599 155.437 454.156 156.101V166.502H451.722V151.896H454.156Z" fill="#010202"/>
<path d="M475.401 166.723C473.409 166.723 471.86 166.059 470.532 164.732C469.204 163.404 468.762 161.633 468.762 159.42V158.978C468.762 157.429 468.983 156.322 469.647 154.994C470.09 153.888 470.975 153.003 472.081 152.339C473.188 151.675 474.073 151.453 475.401 151.453C477.393 151.453 478.72 152.117 479.827 153.445C480.933 154.773 481.376 156.543 481.376 158.756V159.863H471.417C471.417 161.412 471.86 162.519 472.745 163.404C473.63 164.289 474.516 164.732 475.843 164.732C476.729 164.732 477.393 164.51 478.056 164.289C478.72 163.846 479.163 163.404 479.606 162.74L481.155 163.846C479.606 165.838 477.835 166.723 475.401 166.723ZM474.958 153.666C473.852 153.666 473.188 154.109 472.303 154.773C471.639 155.437 471.196 156.543 470.975 157.871H478.278V157.65C478.278 156.322 477.835 155.437 477.171 154.773C476.95 154.109 476.065 153.666 474.958 153.666Z" fill="#010202"/>
<path d="M506.604 157.429H497.974V164.51H507.932V166.723H495.318V146.806H507.711V149.019H497.974V155.437H506.604V157.429Z" fill="#010202"/>
<path d="M521.432 162.74C521.432 162.076 521.21 161.633 520.768 161.191C520.325 160.748 519.44 160.527 518.112 160.306C516.784 160.084 515.899 159.642 515.014 159.42C514.129 159.199 513.686 158.535 513.465 158.092C513.022 157.65 513.022 156.986 513.022 156.322C513.022 155.216 513.465 154.109 514.571 153.224C515.678 152.339 516.784 151.896 518.555 151.896C520.325 151.896 521.653 152.339 522.538 153.224C523.423 154.109 524.087 155.216 524.087 156.543H521.653C521.653 155.879 521.431 155.216 520.768 154.773C520.104 154.33 519.44 154.109 518.555 154.109C517.669 154.109 517.005 154.33 516.342 154.773C515.899 155.216 515.678 155.658 515.678 156.322C515.678 156.986 515.899 157.429 516.342 157.65C516.784 157.871 517.669 158.314 518.997 158.535C520.325 158.756 521.21 159.199 522.095 159.642C522.981 160.084 523.423 160.527 523.866 160.969C524.308 161.412 524.53 162.076 524.53 162.961C524.53 164.289 524.087 165.395 522.981 166.059C521.874 166.945 520.546 167.166 518.997 167.166C517.891 167.166 516.784 166.945 515.899 166.502C515.014 166.059 514.35 165.395 513.686 164.732C513.243 164.068 513.022 163.182 513.022 162.297H515.456C515.456 163.182 515.899 163.846 516.563 164.289C517.227 164.732 518.112 164.953 518.997 164.953C519.882 164.953 520.768 164.732 521.21 164.289C521.653 163.846 521.432 163.182 521.432 162.74Z" fill="#010202"/>
<path d="M532.718 148.355V151.896H535.374V153.888H532.718V162.961C532.718 163.625 532.94 164.068 533.161 164.289C533.382 164.51 533.825 164.732 534.489 164.732C534.71 164.732 535.153 164.732 535.595 164.51V166.502C534.931 166.723 534.268 166.723 533.604 166.723C532.497 166.723 531.612 166.281 531.169 165.617C530.505 164.953 530.284 164.068 530.284 162.74V153.666H527.628V151.675H530.284V148.134H532.718V148.355Z" fill="#010202"/>
<path d="M547.547 154.109C547.104 154.109 546.661 154.109 546.219 154.109C544.67 154.109 543.563 154.773 542.899 156.322V166.723H540.465V152.117H542.899V153.888C543.784 152.56 544.891 151.896 546.44 151.896C546.883 151.896 547.325 151.896 547.547 152.117V154.109Z" fill="#010202"/>
<path d="M560.603 166.502C560.382 166.281 560.382 165.617 560.16 164.953C559.054 166.059 557.505 166.723 555.956 166.723C554.406 166.723 553.3 166.281 552.415 165.396C551.53 164.51 551.087 163.625 551.087 162.297C551.087 160.748 551.751 159.642 552.857 158.756C553.964 157.871 555.734 157.429 557.726 157.429H560.16V156.322C560.16 155.437 559.939 154.773 559.275 154.33C558.833 153.888 557.947 153.445 557.062 153.445C556.177 153.445 555.513 153.666 554.849 154.109C554.185 154.552 553.964 155.216 553.964 155.658H551.53C551.53 154.994 551.751 154.109 552.415 153.445C552.857 152.781 553.743 152.117 554.628 151.896C555.513 151.453 556.398 151.232 557.505 151.232C559.275 151.232 560.603 151.675 561.488 152.56C562.373 153.445 563.037 154.552 563.037 156.101V162.961C563.037 164.289 563.259 165.396 563.48 166.281V166.502H560.603ZM556.398 164.732C557.283 164.732 557.947 164.51 558.611 164.068C559.275 163.625 559.939 163.182 560.16 162.519V159.42H558.169C555.07 159.42 553.521 160.306 553.521 162.076C553.521 162.961 553.743 163.404 554.406 163.846C554.849 164.51 555.513 164.732 556.398 164.732Z" fill="#010202"/>
<path d="M572.111 148.355V151.896H574.767V153.888H572.111V162.961C572.111 163.625 572.332 164.068 572.554 164.289C572.775 164.51 573.217 164.732 573.881 164.732C574.103 164.732 574.545 164.732 574.988 164.51V166.502C574.324 166.723 573.66 166.723 572.996 166.723C571.89 166.723 571.004 166.281 570.562 165.617C569.898 164.953 569.677 164.068 569.677 162.74V153.666H567.021V151.675H569.677V148.134H572.111V148.355Z" fill="#010202"/>
<path d="M583.176 148.355V151.896H585.832V153.888H583.176V162.961C583.176 163.625 583.398 164.068 583.619 164.289C583.84 164.51 584.283 164.732 584.947 164.732C585.168 164.732 585.611 164.732 586.053 164.51V166.502C585.389 166.723 584.726 166.723 584.062 166.723C582.955 166.723 582.07 166.281 581.627 165.617C580.963 164.953 580.742 164.068 580.742 162.74V153.666H578.086V151.675H580.742V148.134H583.176V148.355Z" fill="#010202"/>
<path d="M590.036 158.978C590.036 157.429 590.257 156.322 590.921 154.994C591.585 153.888 592.249 153.003 593.356 152.339C594.462 151.675 595.569 151.453 596.896 151.453C598.888 151.453 600.437 152.117 601.765 153.445C603.093 154.773 603.536 156.765 603.536 158.978V159.199C603.536 160.527 603.314 161.855 602.65 162.961C602.208 164.068 601.323 164.953 600.216 165.617C599.11 166.281 598.003 166.502 596.675 166.502C594.684 166.502 593.134 165.838 591.807 164.51C590.7 163.404 590.036 161.412 590.036 158.978ZM592.47 159.42C592.47 160.969 592.913 162.297 593.577 163.404C594.241 164.289 595.347 164.953 596.675 164.953C598.003 164.953 598.888 164.51 599.773 163.404C600.437 162.297 600.88 160.969 600.88 159.199C600.88 157.65 600.437 156.322 599.773 155.216C599.11 154.109 598.003 153.666 596.675 153.666C595.347 153.666 594.462 154.109 593.577 155.216C592.913 156.101 592.47 157.429 592.47 159.42Z" fill="#010202"/>
<path d="M632.526 160.306C632.305 162.297 631.42 164.068 630.313 165.174C628.985 166.281 627.215 166.945 625.223 166.945C622.789 166.945 621.018 166.059 619.691 164.51C618.363 162.74 617.478 160.527 617.478 157.871V155.658C617.478 153.888 617.699 152.117 618.363 150.789C619.027 149.462 619.912 148.355 621.24 147.47C622.346 146.806 623.895 146.363 625.444 146.363C627.436 146.363 629.207 147.027 630.534 148.134C631.862 149.24 632.526 151.011 632.747 153.003H630.092C629.87 151.453 629.428 150.347 628.543 149.462C627.879 148.798 626.772 148.355 625.444 148.355C623.674 148.355 622.567 149.019 621.461 150.126C620.576 151.453 620.133 153.002 620.133 155.437V157.429C620.133 159.642 620.576 161.191 621.461 162.519C622.346 163.846 623.674 164.51 625.223 164.51C626.772 164.51 627.879 164.289 628.543 163.625C629.207 162.961 629.87 161.855 630.092 160.306H632.526Z" fill="#010202"/>
<path d="M637.173 158.978C637.173 157.429 637.395 156.322 638.059 154.994C638.722 153.888 639.386 153.003 640.493 152.339C641.599 151.675 642.706 151.453 644.034 151.453C646.025 151.453 647.575 152.117 648.902 153.445C650.23 154.773 650.673 156.765 650.673 158.978V159.199C650.673 160.527 650.452 161.855 649.788 162.961C649.345 164.068 648.46 164.953 647.353 165.617C646.247 166.281 645.14 166.502 643.812 166.502C641.821 166.502 640.272 165.838 638.944 164.51C637.837 163.404 637.173 161.412 637.173 158.978ZM639.608 159.42C639.608 160.969 640.05 162.297 640.714 163.404C641.378 164.289 642.485 164.953 643.812 164.953C645.14 164.953 646.025 164.51 646.911 163.404C647.575 162.297 648.017 160.969 648.017 159.199C648.017 157.65 647.575 156.322 646.911 155.216C646.247 154.109 645.14 153.666 643.812 153.666C642.485 153.666 641.599 154.109 640.714 155.216C640.05 156.101 639.608 157.429 639.608 159.42Z" fill="#010202"/>
<path d="M658.197 151.896V153.666C659.304 152.339 660.853 151.453 662.623 151.453C665.721 151.453 667.27 153.224 667.27 156.765V166.502H664.836V156.765C664.836 155.658 664.615 154.994 664.172 154.33C663.73 153.888 663.066 153.666 661.959 153.666C661.074 153.666 660.41 153.888 659.746 154.33C659.082 154.773 658.64 155.437 658.197 156.101V166.502H655.763V151.896H658.197Z" fill="#010202"/>
<path d="M676.566 148.355V151.896H679.221V153.888H676.566V162.961C676.566 163.625 676.787 164.068 677.008 164.289C677.229 164.51 677.672 164.732 678.336 164.732C678.557 164.732 679 164.732 679.443 164.51V166.502C678.779 166.723 678.115 166.723 677.451 166.723C676.344 166.723 675.459 166.281 675.016 165.617C674.353 164.953 674.131 164.068 674.131 162.74V153.666H671.476V151.675H674.131V148.134H676.566V148.355Z" fill="#010202"/>
<path d="M683.426 158.978C683.426 157.429 683.647 156.322 684.311 154.994C684.975 153.666 685.639 153.003 686.745 152.339C687.852 151.675 688.958 151.453 690.286 151.453C692.278 151.453 693.827 152.117 695.155 153.445C696.483 154.773 696.925 156.765 696.925 158.978V159.199C696.925 160.527 696.704 161.855 696.04 162.961C695.597 164.068 694.712 164.953 693.606 165.617C692.499 166.281 691.393 166.502 690.065 166.502C688.073 166.502 686.524 165.838 685.196 164.51C684.09 163.404 683.426 161.412 683.426 158.978ZM685.86 159.42C685.86 160.969 686.303 162.297 686.967 163.404C687.631 164.289 688.737 164.953 690.065 164.953C691.393 164.953 692.278 164.51 693.163 163.404C694.048 162.297 694.27 160.969 694.27 159.199C694.27 157.65 693.827 156.322 693.163 155.216C692.499 154.109 691.393 153.666 690.065 153.666C688.737 153.666 687.852 154.109 686.967 155.216C686.303 156.101 685.86 157.429 685.86 159.42Z" fill="#010202"/>
<defs>
<linearGradient id="paint0_linear" x1="130.916" y1="62.216" x2="157.182" y2="62.216" gradientUnits="userSpaceOnUse">
<stop offset="0.00227348" stop-color="#9C76B3"/>
<stop offset="1" stop-color="#DA78AE"/>
</linearGradient>
<linearGradient id="paint1_linear" x1="122.482" y1="87.8303" x2="148.585" y2="87.8303" gradientUnits="userSpaceOnUse">
<stop offset="0.00227348" stop-color="#9C76B3"/>
<stop offset="1" stop-color="#DA78AE"/>
</linearGradient>
<linearGradient id="paint2_linear" x1="95.1649" y1="67.7803" x2="129.428" y2="67.7803" gradientUnits="userSpaceOnUse">
<stop offset="0.00227348" stop-color="#9C76B3"/>
<stop offset="1" stop-color="#DA78AE"/>
</linearGradient>
<linearGradient id="paint3_linear" x1="141.336" y1="107.187" x2="176.258" y2="107.187" gradientUnits="userSpaceOnUse">
<stop offset="0.00227348" stop-color="#9C76B3"/>
<stop offset="1" stop-color="#DA78AE"/>
</linearGradient>
<linearGradient id="paint4_linear" x1="149.752" y1="79.3407" x2="172.826" y2="79.3407" gradientUnits="userSpaceOnUse">
<stop offset="0.00227348" stop-color="#9C76B3"/>
<stop offset="1" stop-color="#DA78AE"/>
</linearGradient>
<linearGradient id="paint5_linear" x1="0.92627" y1="73.1663" x2="200.795" y2="73.1663" gradientUnits="userSpaceOnUse">
<stop offset="0.00227348" stop-color="#9C76B3"/>
<stop offset="1" stop-color="#DA78AE"/>
</linearGradient>
<linearGradient id="paint6_linear" x1="95.1649" y1="124.312" x2="140.542" y2="124.312" gradientUnits="userSpaceOnUse">
<stop offset="0.00227348" stop-color="#9C76B3"/>
<stop offset="1" stop-color="#DA78AE"/>
</linearGradient>
<linearGradient id="paint7_linear" x1="95.1649" y1="99.2923" x2="120.561" y2="99.2923" gradientUnits="userSpaceOnUse">
<stop offset="0.00227348" stop-color="#9C76B3"/>
<stop offset="1" stop-color="#DA78AE"/>
</linearGradient>
</defs>
</svg>
