<svg width="739" height="168" viewBox="0 0 739 168" fill="none" xmlns="http://www.w3.org/2000/svg">
<path d="M114.012 44.8947L82.5869 76.0985C82.5869 78.7541 83.0295 81.4098 83.6934 84.0654L123.528 44.2308C123.528 44.2308 123.528 44.2308 123.307 44.2308C119.987 44.2308 116.889 44.4521 114.012 44.8947Z" fill="url(#paint0_linear)"/>
<path d="M119.103 109.737L139.905 88.9341C137.692 88.2702 135.479 87.6063 132.824 86.9424L112.021 107.745C113.791 108.409 116.004 109.073 118.217 109.515C118.439 109.737 118.66 109.737 119.103 109.737Z" fill="url(#paint1_linear)"/>
<path d="M91.8823 97.3435C92.3249 97.7861 92.7675 98.2288 92.9888 98.4501C94.0954 99.3353 95.4232 100.442 96.751 101.327L115.783 82.2949C112.464 81.1884 110.693 80.0819 109.808 79.418L91.8823 97.3435Z" fill="url(#paint2_linear)"/>
<path d="M141.012 81.1886L147.872 80.9673L163.363 65.4761C162.478 63.4843 161.372 61.4926 160.265 59.7222L140.791 79.1969C140.791 79.4182 140.791 79.4182 140.791 79.6395L141.012 81.1886Z" fill="url(#paint3_linear)"/>
<path d="M123.528 65.9187C126.627 65.9187 129.282 66.3613 131.495 67.0252L148.978 49.5422C146.986 48.4357 144.773 47.5505 142.56 46.8866L123.528 65.9187Z" fill="url(#paint4_linear)"/>
<path d="M103.389 116.597L83.4722 136.514C84.3574 138.506 85.6852 140.498 86.7917 142.047L105.16 123.679C104.496 121.687 103.832 119.695 103.389 117.482V116.597Z" fill="url(#paint5_linear)"/>
<path d="M80.3744 117.925L78.604 118.146L78.8253 119.474L80.3744 117.925Z" fill="url(#paint6_linear)"/>
<path d="M187.706 0.634155H91.8819C88.3411 0.634155 85.0215 1.96198 82.5872 4.17501L59.129 25.1988H14.2045C6.90146 25.1988 0.92627 30.5101 0.92627 37.1492V133.637C0.92627 140.277 6.90146 145.588 14.2045 145.588H87.6772C82.1446 139.17 78.825 130.539 77.4972 120.138L77.2759 118.146C77.2759 117.704 77.2759 117.482 77.4972 117.04C77.7185 116.597 78.1611 116.597 78.3824 116.597L102.947 114.163C103.611 114.163 104.275 114.605 104.496 115.269L104.718 117.04C105.824 123.236 108.037 127.884 111.357 130.539C114.676 133.195 119.102 134.744 124.856 134.744C131.053 134.744 135.479 133.416 138.356 131.203C141.011 128.99 142.56 126.334 142.56 123.457C142.56 121.687 142.118 120.359 141.011 119.031C139.905 117.704 137.692 116.376 134.593 115.491C132.159 114.605 126.405 113.056 117.774 110.843C105.603 107.745 97.1932 104.204 92.1032 99.5567C84.8002 93.1389 81.2594 85.172 81.2594 75.656C81.2594 69.6808 83.0298 63.9269 86.3493 58.6156C89.6689 53.3043 94.7589 49.3209 101.177 46.6652C107.373 44.0096 114.897 42.6818 123.307 42.6818C137.47 42.6818 148.314 46.0013 155.617 52.1978C163.142 58.6156 166.904 67.2465 167.346 78.0903V79.8607C167.346 80.5247 166.904 81.1886 166.019 81.1886L141.011 82.5164C140.347 82.5164 139.683 82.0738 139.683 81.4099L139.462 79.8607C138.577 75.2134 137.028 71.8938 134.815 70.1234C132.38 68.1317 128.397 67.2465 123.307 67.2465C117.774 67.2465 113.57 68.353 110.471 70.566C108.922 71.6725 108.48 72.779 108.48 74.5495C108.48 76.0986 109.144 77.4264 110.471 78.5329C111.799 79.6394 115.783 81.8525 128.84 84.9507C139.462 87.3851 147.65 90.0407 152.74 92.9176C158.273 95.7946 162.699 99.778 165.797 104.868C168.895 109.958 170.445 116.154 170.445 123.457C170.445 130.097 168.674 136.514 164.912 142.268C164.248 143.375 163.363 144.481 162.478 145.588H162.699H187.485C194.788 145.588 200.763 140.277 200.763 133.637V12.5845C200.763 5.94544 194.788 0.634155 187.706 0.634155Z" fill="url(#paint7_linear)"/>
<path d="M104.939 145.366H107.152H113.791L123.086 136.072C120.209 135.85 117.775 135.408 115.562 134.523L104.939 145.366Z" fill="url(#paint8_linear)"/>
<path d="M167.789 113.056L135.479 145.366H143.224H144.331L169.117 120.802C168.895 118.146 168.453 115.49 167.789 113.056Z" fill="url(#paint9_linear)"/>
<path d="M159.822 99.5567C158.273 98.0076 156.724 96.6798 154.732 95.5732L135.921 114.384C138.577 115.269 140.347 116.376 141.675 117.704L159.822 99.5567Z" fill="url(#paint10_linear)"/>
<path d="M292.382 74.992C287.735 72.1151 281.76 69.4594 274.235 67.2464C267.154 65.2547 262.064 63.0416 259.187 60.8286C256.531 59.0582 255.425 56.6238 255.425 53.9682C255.425 50.6487 256.531 47.993 258.965 46.2226C261.4 44.2309 265.162 43.3456 270.031 43.3456C275.121 43.3456 279.104 44.4522 281.76 46.8865C284.415 49.3208 285.743 52.4191 285.743 56.8451C285.743 58.173 286.628 59.0582 287.956 59.0582H304.111C305.439 59.0582 306.324 58.173 306.324 56.8451C306.324 51.0913 304.775 45.5587 301.677 40.9113C298.579 36.0426 294.153 32.5018 288.62 29.8461C283.309 27.4118 277.112 26.084 270.252 26.084C259.851 26.084 251.441 28.7396 244.802 33.8296C238.163 39.1409 234.622 46.0013 234.622 54.1895C234.622 63.7056 239.269 71.2299 248.564 77.205C253.212 80.082 259.408 82.7376 267.154 85.172C274.457 87.385 279.547 89.598 282.202 91.5898C284.637 93.3602 285.743 96.0158 285.743 99.3354C285.743 102.434 284.637 104.868 282.202 106.638C279.768 108.63 276.006 109.515 270.694 109.515C264.719 109.515 260.072 108.188 256.974 105.532C253.875 103.098 252.548 99.5567 252.548 94.9093C252.548 93.5815 251.662 92.6963 250.335 92.6963H233.958C232.63 92.6963 231.745 93.5815 231.745 94.9093C231.745 101.327 233.516 106.86 236.835 111.728C240.155 116.376 245.023 120.138 250.998 122.794C256.974 125.449 263.613 126.777 270.694 126.777C281.538 126.777 290.169 124.343 296.587 119.474C303.226 114.384 306.546 107.524 306.546 99.1141C306.546 94.0241 305.439 89.3767 303.226 85.3933C300.792 81.4098 297.251 77.869 292.382 74.992Z" fill="#010202"/>
<path d="M351.47 44.8948C344.388 44.8948 338.192 46.4439 332.659 49.7635C327.127 52.8617 322.7 57.7304 319.824 63.7056C316.725 69.6807 315.397 76.5411 315.397 84.2868V87.1637C315.397 99.3354 318.717 108.851 325.577 115.933C332.216 123.015 341.069 126.556 351.913 126.556C362.756 126.556 371.608 123.015 378.248 115.933C384.887 108.851 388.206 99.3354 388.206 87.385V84.5081C388.206 72.5577 384.887 62.8203 378.248 55.7386C371.166 48.4356 362.314 44.8948 351.47 44.8948ZM363.199 104.204C360.543 107.745 356.56 109.515 351.47 109.515C346.38 109.515 342.396 107.745 339.52 103.983C336.643 100.221 335.093 94.4667 335.093 87.385V84.0655C335.093 76.7625 336.643 71.2299 339.52 67.4677C342.396 63.9269 346.159 62.1564 351.249 62.1564C356.339 62.1564 360.322 63.9269 363.199 67.4677C366.076 71.2299 367.625 76.7625 367.625 84.0655V87.385C367.625 94.688 366.076 100.221 363.199 104.204Z" fill="#010202"/>
<path d="M449.287 92.9176C458.36 88.4916 462.787 80.9673 462.787 70.7873C462.787 62.8204 459.91 56.4026 454.156 52.1978C448.623 47.9931 440.877 45.78 430.919 45.78H401.485C400.158 45.78 399.272 46.6652 399.272 47.9931V123.236C399.272 124.564 400.158 125.449 401.485 125.449H417.198C418.526 125.449 419.411 124.564 419.411 123.236V98.0076H430.255L444.861 124.343C445.304 125.007 445.967 125.449 446.853 125.449H463.672C465 125.449 465.885 124.564 465.885 123.236V122.572C465.885 122.13 465.885 121.908 465.663 121.466L449.287 92.9176ZM419.411 63.0417H430.919C435.124 63.0417 438.222 63.9269 439.992 65.476C441.763 67.0251 442.648 69.2382 442.648 72.1151C442.648 74.7708 441.763 76.9838 439.992 78.5329C438.001 80.3033 435.124 80.9673 430.919 80.9673H419.411V63.0417Z" fill="#010202"/>
<path d="M493.548 45.78H477.835C476.507 45.78 475.622 46.6652 475.622 47.9931V123.236C475.622 124.564 476.507 125.449 477.835 125.449H493.548C494.875 125.449 495.761 124.564 495.761 123.236V47.9931C495.761 46.8865 494.875 45.78 493.548 45.78Z" fill="#010202"/>
<path d="M587.38 27.1906H579.413C578.085 27.1906 577.2 28.0758 577.2 29.4036V102.434L527.185 28.0758C526.743 27.4119 526.079 27.1906 525.415 27.1906H517.448C516.12 27.1906 515.235 28.0758 515.235 29.4036V123.457C515.235 124.785 516.12 125.671 517.448 125.671H525.415C526.743 125.671 527.628 124.785 527.628 123.457V50.2061L577.421 124.564C577.864 125.228 578.528 125.449 579.192 125.449H587.158C588.486 125.449 589.371 124.564 589.371 123.236V29.4036C589.593 28.0758 588.486 27.1906 587.38 27.1906Z" fill="#010202"/>
<path d="M663.066 114.605H622.346V89.8194H657.312C658.64 89.8194 659.525 88.9342 659.525 87.6064V80.9673C659.525 79.6394 658.64 78.7542 657.312 78.7542H622.346V57.0665H662.844C664.172 57.0665 665.057 56.1813 665.057 54.8535V48.2144C665.057 46.8866 664.172 46.0013 662.844 46.0013H612.609C611.281 46.0013 610.396 46.8866 610.396 48.2144V123.457C610.396 124.785 611.281 125.671 612.609 125.671H663.287C664.615 125.671 665.5 124.785 665.5 123.457V117.04C665.279 115.491 664.394 114.605 663.066 114.605Z" fill="#010202"/>
<path d="M735.874 45.78H673.245C671.917 45.78 671.032 46.6652 671.032 47.9931V54.6322C671.032 55.96 671.917 56.8452 673.245 56.8452H698.474V123.015C698.474 124.343 699.359 125.228 700.687 125.228H708.433C709.76 125.228 710.646 124.343 710.646 123.015V57.0665H735.874C737.202 57.0665 738.087 56.1813 738.087 54.8535V48.2144C738.087 46.8865 736.981 45.78 735.874 45.78Z" fill="#010202"/>
<path d="M239.048 159.309H234.401V167.276H231.745V147.58H238.384C240.597 147.58 242.368 148.022 243.474 149.129C244.581 150.235 245.245 151.563 245.245 153.555C245.245 154.883 245.023 155.768 244.138 156.874C243.253 157.981 242.589 158.423 241.261 158.866L245.909 167.276V167.497H243.032L239.048 159.309ZM234.401 157.317H238.384C239.712 157.317 240.597 156.874 241.482 156.21C242.146 155.547 242.589 154.661 242.589 153.555C242.589 152.227 242.146 151.342 241.482 150.678C240.819 150.014 239.712 149.793 238.384 149.793H234.401V157.317Z" fill="#010202"/>
<path d="M256.532 167.718C254.54 167.718 252.991 167.054 251.663 165.726C250.335 164.399 249.893 162.628 249.893 160.415V159.973C249.893 158.423 250.114 157.317 250.778 155.989C251.442 154.883 252.106 153.997 253.212 153.333C254.319 152.67 255.204 152.448 256.532 152.448C258.523 152.448 259.851 153.112 260.958 154.44C262.064 155.768 262.507 157.538 262.507 159.751V160.858H252.548C252.548 162.407 252.991 163.513 253.876 164.399C254.761 165.284 255.646 165.726 256.974 165.726C257.859 165.726 258.523 165.505 259.187 165.284C259.851 164.841 260.294 164.399 260.736 163.735L262.286 164.841C260.958 166.612 258.966 167.718 256.532 167.718ZM256.31 154.44C255.204 154.44 254.54 154.883 253.655 155.546C252.991 156.21 252.548 157.317 252.327 158.645H259.63V158.423C259.63 157.096 259.187 156.21 258.523 155.546C258.081 154.883 257.417 154.44 256.31 154.44Z" fill="#010202"/>
<path d="M269.809 152.669V154.44C270.916 153.112 272.465 152.227 274.235 152.227C277.334 152.227 278.883 153.997 278.883 157.538V167.275H276.448V157.538C276.448 156.432 276.227 155.768 275.785 155.104C275.342 154.661 274.678 154.44 273.571 154.44C272.686 154.44 272.022 154.661 271.358 155.104C270.695 155.546 270.252 156.21 269.809 156.874V167.275H267.375V152.669H269.809Z" fill="#010202"/>
<path d="M284.194 159.973C284.194 157.759 284.637 155.989 285.743 154.44C286.85 153.112 288.178 152.448 289.948 152.448C291.719 152.448 293.046 153.112 293.932 154.219V146.473H296.366V167.276H294.153L293.932 165.726C292.825 167.054 291.497 167.497 289.727 167.497C287.956 167.497 286.629 166.833 285.522 165.505C284.637 164.177 284.194 162.407 284.194 159.973ZM286.629 160.194C286.629 161.964 287.071 163.071 287.735 164.177C288.399 165.063 289.284 165.505 290.612 165.505C292.161 165.505 293.268 164.841 294.153 163.292V156.653C293.489 155.325 292.161 154.661 290.612 154.661C289.284 154.661 288.399 155.104 287.735 155.989C287.071 156.874 286.629 158.423 286.629 160.194Z" fill="#010202"/>
<path d="M302.562 148.686C302.562 148.243 302.783 148.022 303.005 147.58C303.226 147.358 303.669 147.137 304.111 147.137C304.554 147.137 304.996 147.358 305.218 147.58C305.439 147.801 305.66 148.243 305.66 148.686C305.66 149.129 305.439 149.35 305.218 149.793C304.996 150.235 304.554 150.235 304.111 150.235C303.669 150.235 303.226 150.014 303.005 149.793C302.562 149.571 302.562 149.129 302.562 148.686ZM305.218 167.276H302.783V152.67H305.218V167.276Z" fill="#010202"/>
<path d="M317.168 165.505C318.054 165.505 318.939 165.284 319.603 164.62C320.267 163.956 320.709 163.292 320.709 162.628H323.144C323.144 163.513 322.701 164.177 322.258 165.062C321.816 165.726 320.931 166.39 320.045 166.833C319.16 167.275 318.275 167.497 317.168 167.497C315.177 167.497 313.628 166.833 312.3 165.505C310.972 164.177 310.529 162.407 310.529 159.972V159.53C310.529 158.202 310.751 156.874 311.415 155.768C311.857 154.661 312.742 153.776 313.628 153.112C314.513 152.448 315.841 152.227 317.168 152.227C318.718 152.227 320.267 152.669 321.373 153.776C322.48 154.661 323.144 155.989 323.144 157.538H320.709C320.709 156.653 320.267 155.768 319.603 155.104C318.939 154.44 318.054 154.219 317.168 154.219C315.841 154.219 314.955 154.661 314.291 155.546C313.628 156.432 313.185 157.759 313.185 159.53V159.972C313.185 161.743 313.628 163.071 314.291 163.956C314.955 165.062 316.062 165.505 317.168 165.505Z" fill="#010202"/>
<path d="M327.349 159.973C327.349 158.423 327.57 157.317 328.234 155.989C328.898 154.883 329.562 153.997 330.668 153.333C331.775 152.67 332.881 152.448 334.209 152.448C336.201 152.448 337.75 153.112 339.078 154.44C340.406 155.768 340.848 157.76 340.848 159.973V160.194C340.848 161.522 340.627 162.85 339.963 163.956C339.52 165.063 338.635 165.948 337.529 166.612C336.422 167.276 335.316 167.497 333.988 167.497C331.996 167.497 330.447 166.833 329.119 165.505C328.013 164.177 327.349 162.407 327.349 159.973ZM329.783 160.194C329.783 161.743 330.226 163.071 330.889 164.177C331.553 165.063 332.66 165.726 333.988 165.726C335.316 165.726 336.201 165.284 337.086 164.177C337.75 163.071 338.192 161.743 338.192 159.973C338.192 158.423 337.75 157.096 337.086 155.989C336.422 154.883 335.316 154.44 333.988 154.44C332.66 154.44 331.775 154.883 330.889 155.989C330.226 156.874 329.783 158.423 329.783 160.194Z" fill="#010202"/>
<path d="M348.372 152.669V154.44C349.479 153.112 351.028 152.227 352.798 152.227C355.897 152.227 357.446 153.997 357.446 157.538V167.275H355.011V157.538C355.011 156.432 354.79 155.768 354.348 155.104C353.905 154.661 353.241 154.44 352.134 154.44C351.249 154.44 350.585 154.661 349.921 155.104C349.258 155.546 348.815 156.21 348.372 156.874V167.275H345.938V152.669H348.372Z" fill="#010202"/>
<path d="M366.74 149.129V152.669H369.396V154.661H366.74V163.735C366.74 164.399 366.962 164.841 367.183 165.062C367.404 165.284 367.847 165.505 368.511 165.505C368.732 165.505 369.175 165.505 369.617 165.284V167.276C368.953 167.497 368.289 167.497 367.626 167.497C366.519 167.497 365.634 167.054 365.191 166.39C364.527 165.726 364.306 164.841 364.306 163.513V154.44H361.65V152.448H364.306V148.907H366.74V149.129Z" fill="#010202"/>
<path d="M383.558 167.276C383.337 167.054 383.337 166.39 383.116 165.726C382.009 166.833 380.46 167.497 378.911 167.497C377.362 167.497 376.255 167.054 375.37 166.169C374.485 165.284 374.042 164.399 374.042 163.071C374.042 161.522 374.706 160.415 375.813 159.53C376.919 158.645 378.69 158.202 380.682 158.202H383.116V157.096C383.116 156.21 382.895 155.546 382.231 155.104C381.567 154.661 380.903 154.219 380.018 154.219C379.132 154.219 378.469 154.44 377.805 154.883C377.141 155.325 376.919 155.989 376.919 156.432H374.485C374.485 155.768 374.706 154.883 375.37 154.219C375.813 153.555 376.698 152.891 377.583 152.67C378.469 152.227 379.354 152.006 380.46 152.006C382.231 152.006 383.559 152.448 384.444 153.333C385.329 154.219 385.993 155.325 385.993 156.874V163.735C385.993 165.063 386.214 166.169 386.435 167.054V167.276H383.558ZM379.354 165.505C380.239 165.505 380.903 165.284 381.567 164.841C382.231 164.399 382.895 163.956 383.116 163.292V160.194H381.124C378.026 160.194 376.477 161.079 376.477 162.849C376.477 163.735 376.698 164.177 377.362 164.62C378.026 165.284 378.69 165.505 379.354 165.505Z" fill="#010202"/>
<path d="M394.182 165.284H402.813V167.275H391.083V165.505L399.272 154.661H391.305V152.669H402.37V154.44L394.182 165.284Z" fill="#010202"/>
<path d="M407.681 148.686C407.681 148.243 407.902 148.022 408.124 147.58C408.345 147.358 408.788 147.137 409.23 147.137C409.673 147.137 410.115 147.358 410.337 147.58C410.558 147.801 410.779 148.243 410.779 148.686C410.779 149.129 410.558 149.35 410.337 149.793C410.115 150.235 409.673 150.235 409.23 150.235C408.788 150.235 408.345 150.014 408.124 149.793C407.681 149.571 407.681 149.129 407.681 148.686ZM410.337 167.276H407.902V152.67H410.337V167.276Z" fill="#010202"/>
<path d="M415.87 159.973C415.87 158.423 416.091 157.317 416.755 155.989C417.419 154.883 418.083 153.997 419.19 153.333C420.296 152.67 421.403 152.448 422.731 152.448C424.722 152.448 426.271 153.112 427.599 154.44C428.927 155.768 429.37 157.76 429.37 159.973V160.194C429.37 161.522 429.148 162.85 428.484 163.956C428.042 165.063 427.157 165.948 426.05 166.612C424.944 167.276 423.837 167.497 422.509 167.497C420.517 167.497 418.968 166.833 417.641 165.505C416.313 164.177 415.87 162.407 415.87 159.973ZM418.304 160.194C418.304 161.743 418.747 163.071 419.411 164.177C420.075 165.063 421.181 165.726 422.509 165.726C423.837 165.726 424.722 165.284 425.607 164.177C426.271 163.071 426.714 161.743 426.714 159.973C426.714 158.423 426.271 157.096 425.607 155.989C424.944 154.883 423.837 154.44 422.509 154.44C421.181 154.44 420.296 154.883 419.411 155.989C418.747 156.874 418.304 158.423 418.304 160.194Z" fill="#010202"/>
<path d="M436.893 152.669V154.44C438 153.112 439.549 152.227 441.319 152.227C444.418 152.227 445.967 153.997 445.967 157.538V167.275H443.532V157.538C443.532 156.432 443.311 155.768 442.869 155.104C442.426 154.661 441.762 154.44 440.655 154.44C439.77 154.44 439.106 154.661 438.442 155.104C437.779 155.546 437.336 156.21 436.893 156.874V167.275H434.459V152.669H436.893Z" fill="#010202"/>
<path d="M457.917 167.718C455.926 167.718 454.377 167.054 453.049 165.726C451.721 164.399 451.278 162.628 451.278 160.415V159.973C451.278 158.423 451.5 157.317 452.164 155.989C452.827 154.883 453.491 153.997 454.598 153.333C455.704 152.67 456.59 152.448 457.917 152.448C459.909 152.448 461.237 153.112 462.343 154.44C463.45 155.768 463.893 157.538 463.893 159.751V160.858H453.934C453.934 162.407 454.377 163.513 455.262 164.399C456.147 165.284 457.032 165.726 458.36 165.726C459.245 165.726 459.909 165.505 460.573 165.284C461.237 164.841 461.68 164.399 462.122 163.735L463.671 164.841C462.343 166.612 460.352 167.718 457.917 167.718ZM457.696 154.44C456.59 154.44 455.926 154.883 455.04 155.546C454.377 156.21 453.934 157.317 453.713 158.645H461.016V158.423C461.016 157.096 460.573 156.21 459.909 155.546C459.467 154.883 458.581 154.44 457.696 154.44Z" fill="#010202"/>
<defs>
<linearGradient id="paint0_linear" x1="82.6582" y1="64.1273" x2="123.538" y2="64.1273" gradientUnits="userSpaceOnUse">
<stop stop-color="#62A5DA"/>
<stop offset="0.6422" stop-color="#65B9DE"/>
<stop offset="1" stop-color="#68C6DE"/>
</linearGradient>
<linearGradient id="paint1_linear" x1="111.944" y1="98.4803" x2="139.698" y2="98.4803" gradientUnits="userSpaceOnUse">
<stop stop-color="#62A5DA"/>
<stop offset="0.6422" stop-color="#65B9DE"/>
<stop offset="1" stop-color="#68C6DE"/>
</linearGradient>
<linearGradient id="paint2_linear" x1="91.8631" y1="90.5095" x2="115.797" y2="90.5095" gradientUnits="userSpaceOnUse">
<stop stop-color="#62A5DA"/>
<stop offset="0.6422" stop-color="#65B9DE"/>
<stop offset="1" stop-color="#68C6DE"/>
</linearGradient>
<linearGradient id="paint3_linear" x1="140.715" y1="70.4368" x2="163.377" y2="70.4368" gradientUnits="userSpaceOnUse">
<stop stop-color="#62A5DA"/>
<stop offset="0.6422" stop-color="#65B9DE"/>
<stop offset="1" stop-color="#68C6DE"/>
</linearGradient>
<linearGradient id="paint4_linear" x1="123.502" y1="56.8751" x2="148.833" y2="56.8751" gradientUnits="userSpaceOnUse">
<stop stop-color="#62A5DA"/>
<stop offset="0.6422" stop-color="#65B9DE"/>
<stop offset="1" stop-color="#68C6DE"/>
</linearGradient>
<linearGradient id="paint5_linear" x1="83.3695" y1="129.308" x2="105.151" y2="129.308" gradientUnits="userSpaceOnUse">
<stop stop-color="#62A5DA"/>
<stop offset="0.6422" stop-color="#65B9DE"/>
<stop offset="1" stop-color="#68C6DE"/>
</linearGradient>
<linearGradient id="paint6_linear" x1="78.5832" y1="118.699" x2="80.4342" y2="118.699" gradientUnits="userSpaceOnUse">
<stop stop-color="#62A5DA"/>
<stop offset="0.6422" stop-color="#65B9DE"/>
<stop offset="1" stop-color="#68C6DE"/>
</linearGradient>
<linearGradient id="paint7_linear" x1="0.92627" y1="73.0548" x2="200.795" y2="73.0548" gradientUnits="userSpaceOnUse">
<stop stop-color="#62A5DA"/>
<stop offset="0.6422" stop-color="#65B9DE"/>
<stop offset="1" stop-color="#68C6DE"/>
</linearGradient>
<linearGradient id="paint8_linear" x1="104.868" y1="140.089" x2="123.166" y2="140.089" gradientUnits="userSpaceOnUse">
<stop stop-color="#62A5DA"/>
<stop offset="0.6422" stop-color="#65B9DE"/>
<stop offset="1" stop-color="#68C6DE"/>
</linearGradient>
<linearGradient id="paint9_linear" x1="135.382" y1="129.259" x2="169.035" y2="129.259" gradientUnits="userSpaceOnUse">
<stop stop-color="#62A5DA"/>
<stop offset="0.6422" stop-color="#65B9DE"/>
<stop offset="1" stop-color="#68C6DE"/>
</linearGradient>
<linearGradient id="paint10_linear" x1="135.871" y1="106.645" x2="159.811" y2="106.645" gradientUnits="userSpaceOnUse">
<stop stop-color="#62A5DA"/>
<stop offset="0.6422" stop-color="#65B9DE"/>
<stop offset="1" stop-color="#68C6DE"/>
</linearGradient>
</defs>
</svg>
