<svg width="825" height="167" viewBox="0 0 825 167" fill="none" xmlns="http://www.w3.org/2000/svg">
<path d="M287.514 79.9251C292.383 77.7121 296.145 74.3925 299.022 70.6304C302.12 66.2043 303.891 60.6717 303.891 54.0326C303.891 44.5166 300.793 36.9923 294.596 31.9023C288.621 26.8123 279.769 24.378 268.925 24.378H236.615C235.729 24.378 234.844 25.2632 234.844 26.1484V118.211C234.844 119.096 235.729 119.981 236.615 119.981H252.549C253.434 119.981 254.319 119.096 254.319 118.211V84.5725H269.368L287.293 119.096C287.514 119.76 288.178 119.981 288.842 119.981H305.883C306.768 119.981 307.653 119.096 307.653 118.211V117.325C307.653 117.104 307.653 116.661 307.432 116.44L287.514 79.9251ZM284.195 54.6965C284.195 58.9013 282.867 62.2209 280.211 64.6552C277.556 67.0895 273.572 68.196 268.704 68.196H254.098V40.7544H269.146C274.236 40.7544 277.998 42.0823 280.433 44.5166C283.088 46.9509 284.195 50.2705 284.195 54.6965Z" fill="#010202"/>
<path d="M337.972 42.7461H322.702C321.816 42.7461 320.931 43.6313 320.931 44.5165V118.211C320.931 119.096 321.816 119.981 322.702 119.981H337.972C338.857 119.981 339.742 119.096 339.742 118.211V44.5165C339.742 43.6313 338.857 42.7461 337.972 42.7461Z" fill="#010202"/>
<path d="M378.692 59.1226C380.683 57.7947 383.56 56.9095 387.101 56.9095C390.863 56.9095 393.961 57.7947 396.175 59.5652C398.166 61.1143 399.273 63.3273 399.273 66.2043C399.273 67.0895 400.158 67.9747 401.043 67.9747H416.313C417.198 67.9747 418.084 67.0895 418.084 66.2043C418.084 58.9013 415.207 52.9261 409.453 48.5C403.699 44.0739 396.174 41.8609 387.101 41.8609C378.47 41.8609 371.389 44.0739 365.856 48.0574C360.323 52.2622 357.446 57.7947 357.446 64.6551C357.446 68.8599 358.332 72.6221 360.323 75.499C362.315 78.5972 365.192 81.0316 369.175 83.2446C372.938 85.4577 378.249 87.2281 384.888 88.9985C391.085 90.5476 395.289 92.0968 397.281 93.6459C399.051 94.9737 399.937 96.7441 399.937 98.9571C399.937 101.17 399.051 102.719 397.281 103.826C395.289 105.154 392.412 105.818 388.65 105.818C375.815 105.818 374.265 99.8424 374.265 95.4163C374.265 94.5311 373.38 93.6459 372.495 93.6459H357.004C356.119 93.6459 355.233 94.5311 355.233 95.4163C355.233 100.506 356.783 105.154 359.659 108.916C362.536 112.678 366.52 115.776 371.61 117.768C376.7 119.76 382.232 120.866 388.208 120.866C397.06 120.866 404.363 118.874 409.895 115.112C415.649 111.129 418.526 105.596 418.526 98.5145C418.526 92.0968 416.313 86.7855 411.887 82.5807C407.682 78.5973 400.601 75.499 391.085 73.0647C385.331 71.7369 381.126 70.1877 379.134 68.6386C377.142 67.3108 376.257 65.7617 376.257 63.9912C376.036 61.9995 376.921 60.4504 378.692 59.1226Z" fill="#010202"/>
<path d="M465 57.5734C469.426 57.5734 472.745 58.4586 474.959 60.4504C477.172 62.4421 478.499 65.5403 479.163 69.7451C479.163 70.6303 480.048 71.2942 480.934 71.2942H496.204C496.646 71.2942 497.089 71.0729 497.531 70.6303C497.753 70.1877 497.974 69.7451 497.974 69.3025C497.089 60.6717 493.769 53.8113 487.794 48.9426C482.04 44.0739 474.295 41.6396 465 41.6396C458.139 41.6396 451.943 43.1887 446.853 46.287C441.542 49.3852 437.558 53.8113 434.681 59.3439C432.026 64.8764 430.477 71.5155 430.477 78.8185V83.0233C430.477 94.7524 433.575 104.047 439.771 110.465C445.968 117.104 454.377 120.424 464.779 120.424C474.295 120.424 482.04 117.989 488.015 113.342C493.991 108.473 497.31 101.834 498.195 93.4246C498.195 92.9819 497.974 92.5393 497.753 92.0967C497.531 91.6541 496.868 91.4328 496.425 91.4328H481.155C480.27 91.4328 479.606 92.0967 479.385 92.982C478.942 97.1867 477.614 100.285 475.401 102.055C473.188 103.826 469.647 104.711 465 104.711C459.91 104.711 456.148 103.162 453.713 99.6211C451.058 96.0802 449.73 90.5476 449.73 83.2446V78.5972C449.509 64.6551 454.599 57.5734 465 57.5734Z" fill="#010202"/>
<path d="M545.111 41.8609C538.251 41.8609 532.054 43.41 526.743 46.5083C521.432 49.6065 517.227 54.0326 514.35 60.0078C511.473 65.7617 509.924 72.4008 509.924 79.9251V82.802C509.924 94.5311 513.243 103.826 519.661 110.686C526.079 117.547 534.71 121.087 545.111 121.087C555.512 121.087 564.143 117.547 570.561 110.908C576.979 104.047 580.077 94.7524 580.077 83.2446V80.3677C580.077 68.6386 576.757 59.3439 570.561 52.4835C564.143 45.4018 555.512 41.8609 545.111 41.8609ZM533.161 63.106C536.038 59.5652 540.021 57.7947 545.111 57.7947C550.422 57.7947 554.184 59.5652 557.061 63.106C559.938 66.8682 561.488 72.4008 561.488 79.7038V83.0233C561.488 90.3263 559.938 95.8589 557.061 99.6211C554.184 103.383 550.422 105.154 545.111 105.154C540.021 105.154 536.038 103.383 533.161 99.6211C530.284 95.8589 528.735 90.3263 528.735 83.2446V79.9251C528.735 72.4008 530.284 66.8682 533.161 63.106Z" fill="#010202"/>
<path d="M670.148 24.378H662.402C661.517 24.378 660.632 25.2632 660.632 26.1484V99.1785L610.839 25.0419C610.617 24.5993 609.953 24.378 609.289 24.378H601.544C600.659 24.378 599.773 25.2632 599.773 26.1484V118.211C599.773 119.096 600.659 119.981 601.544 119.981H609.289C610.175 119.981 611.06 119.096 611.06 118.211V45.1805L660.853 119.096C661.074 119.538 661.738 119.76 662.402 119.76H670.148C671.033 119.76 671.918 118.875 671.918 117.989V26.1484C671.918 25.2632 671.033 24.378 670.148 24.378Z" fill="#010202"/>
<path d="M747.604 110.022H707.327V85.015H742.071C742.957 85.015 743.842 84.1298 743.842 83.2446V76.8268C743.842 75.9416 742.957 75.0564 742.071 75.0564H707.327V52.926H747.383C748.268 52.926 749.153 52.0408 749.153 51.1556V44.5165C749.153 43.6313 748.268 42.7461 747.383 42.7461H698.032C697.147 42.7461 696.262 43.6313 696.262 44.5165V118.211C696.262 119.096 697.147 119.981 698.032 119.981H747.604C748.489 119.981 749.375 119.096 749.375 118.211V111.793C749.375 110.908 748.711 110.022 747.604 110.022Z" fill="#010202"/>
<path d="M822.183 42.7461H760.882C759.997 42.7461 759.112 43.6313 759.112 44.5165V51.1556C759.112 52.0408 759.997 52.926 760.882 52.926H786.111V118.211C786.111 119.096 786.996 119.981 787.881 119.981H795.406C796.291 119.981 797.176 119.096 797.176 118.211V52.926H822.405C823.29 52.926 824.175 52.0408 824.175 51.1556V44.5165C823.954 43.6313 823.068 42.7461 822.183 42.7461Z" fill="#010202"/>
<path d="M90.3325 118.653L115.782 93.2033V83.9086L90.3325 109.137V118.653Z" fill="url(#paint0_linear)"/>
<path d="M137.249 71.5156L154.732 54.0327C152.519 53.1474 150.306 52.2622 147.871 51.5983L128.839 70.6304H132.159C133.929 70.8517 135.7 71.073 137.249 71.5156Z" fill="url(#paint1_linear)"/>
<path d="M117.554 97.6294H132.16C140.569 97.6294 145.438 93.2033 145.438 85.2364C145.438 77.4908 140.348 72.8434 131.938 72.8434H117.554V97.6294Z" fill="url(#paint2_linear)"/>
<path d="M90.3325 52.0409V54.9179L95.2012 50.0492H92.3242C91.2177 50.0492 90.3325 50.9344 90.3325 52.0409Z" fill="url(#paint3_linear)"/>
<path d="M90.3325 86.7855L127.069 50.0492H117.553L90.3325 77.4908V86.7855Z" fill="url(#paint4_linear)"/>
<path d="M166.682 105.596C170.002 101.17 172.215 95.8589 172.879 90.105L134.593 128.612L137.692 134.808L156.281 116.219L155.617 114.891C157.388 114.006 159.158 112.899 160.707 111.793L166.682 105.596Z" fill="url(#paint5_linear)"/>
<path d="M187.706 0.25592H91.8819C88.3411 0.25592 85.0215 1.58374 82.5872 3.79677L59.129 24.8206H14.2045C6.90146 24.8206 0.92627 30.1319 0.92627 36.771V133.259C0.92627 139.898 6.90146 145.21 14.2045 145.21H88.3411V52.2622C88.3411 50.0492 90.1115 48.2787 92.3245 48.2787H134.372C160.043 48.2787 175.313 61.9995 175.313 84.7938C175.313 98.2933 168.895 109.801 158.273 115.776L173.764 145.21H187.706C195.009 145.21 200.984 139.898 200.984 133.259V12.2063C200.763 5.5672 194.788 0.25592 187.706 0.25592Z" fill="url(#paint6_linear)"/>
<path d="M117.554 121.087V144.988H140.791L128.398 121.087H117.554Z" fill="url(#paint7_linear)"/>
<path d="M149.643 144.988H158.937L167.126 137.021L164.027 130.825L149.643 144.988Z" fill="url(#paint8_linear)"/>
<path d="M90.3325 144.988H95.6438L115.782 124.85V119.096H121.536L170.666 69.9665C169.78 67.7534 168.674 65.7617 167.346 63.9913L147.429 83.9086C147.429 84.3512 147.429 84.7938 147.429 85.2364C147.429 94.3098 141.896 99.6211 132.159 99.6211H131.716L90.3325 141.005V144.988Z" fill="url(#paint9_linear)"/>
<path d="M241.926 158.045H237.279V166.012H234.623V146.316H241.262C243.475 146.316 245.246 146.759 246.352 147.865C247.459 148.972 248.123 150.3 248.123 152.291C248.123 153.619 247.901 154.504 247.016 155.611C246.131 156.717 245.467 157.16 244.139 157.603L248.786 166.012V166.233H245.91L241.926 158.045ZM237.279 155.832H241.262C242.59 155.832 243.475 155.39 244.36 154.726C245.024 154.062 245.467 153.176 245.467 152.07C245.467 150.742 245.024 149.857 244.36 149.193C243.696 148.529 242.59 148.308 241.262 148.308H237.279V155.832Z" fill="#010202"/>
<path d="M259.63 166.233C257.638 166.233 256.089 165.57 254.761 164.242C253.433 162.914 252.991 161.144 252.991 158.93V158.488C252.991 156.939 253.212 155.832 253.876 154.504C254.54 153.398 255.204 152.513 256.31 151.849C257.417 151.185 258.302 150.964 259.63 150.964C261.622 150.964 262.949 151.627 264.056 152.955C265.162 154.283 265.605 156.054 265.605 158.267V159.373H255.646C255.646 160.922 256.089 162.029 256.974 162.914C257.859 163.799 258.745 164.242 260.072 164.242C260.958 164.242 261.622 164.02 262.285 163.799C262.949 163.357 263.392 162.914 263.835 162.25L265.384 163.357C263.835 165.348 262.064 166.233 259.63 166.233ZM259.187 153.177C258.081 153.177 257.417 153.619 256.532 154.283C255.868 154.947 255.425 156.054 255.204 157.381H262.507V157.16C262.507 155.832 262.064 154.947 261.4 154.283C261.179 153.398 260.294 153.177 259.187 153.177Z" fill="#010202"/>
<path d="M272.687 151.406V153.177C273.794 151.849 275.343 150.964 277.113 150.964C280.212 150.964 281.761 152.734 281.761 156.275V166.012H279.326V156.275C279.326 155.168 279.105 154.504 278.662 153.841C278.22 153.398 277.556 153.177 276.449 153.177C275.564 153.177 274.9 153.398 274.236 153.841C273.572 154.283 273.13 154.947 272.687 155.611V166.012H270.253V151.406H272.687Z" fill="#010202"/>
<path d="M287.072 158.488C287.072 156.275 287.515 154.504 288.621 152.955C289.728 151.627 291.056 150.964 292.826 150.964C294.597 150.964 295.924 151.627 296.81 152.734V144.988H299.244V165.791H297.031L296.81 164.242C295.703 165.57 294.375 166.012 292.605 166.012C290.834 166.012 289.507 165.348 288.4 164.02C287.515 162.914 287.072 160.922 287.072 158.488ZM289.507 158.93C289.507 160.701 289.949 161.807 290.613 162.914C291.277 163.799 292.162 164.242 293.49 164.242C295.039 164.242 296.146 163.578 297.031 162.029V155.39C296.367 154.062 295.039 153.398 293.49 153.398C292.162 153.398 291.277 153.84 290.613 154.726C289.949 155.611 289.507 156.939 289.507 158.93Z" fill="#010202"/>
<path d="M305.44 147.423C305.44 146.98 305.661 146.759 305.883 146.316C306.104 146.095 306.546 145.874 306.989 145.874C307.432 145.874 307.874 146.095 308.096 146.316C308.317 146.537 308.538 146.98 308.538 147.423C308.538 147.865 308.317 148.087 308.096 148.529C307.874 148.751 307.432 148.972 306.989 148.972C306.546 148.972 306.104 148.751 305.883 148.529C305.661 148.087 305.44 147.865 305.44 147.423ZM308.096 166.012H305.661V151.406H308.096V166.012Z" fill="#010202"/>
<path d="M320.268 164.242C321.153 164.242 322.038 164.02 322.702 163.357C323.366 162.693 323.809 162.029 323.809 161.365H326.243C326.243 162.25 325.801 162.914 325.358 163.799C324.915 164.463 324.03 165.127 323.145 165.57C322.26 166.012 321.375 166.233 320.268 166.233C318.276 166.233 316.727 165.57 315.399 164.242C314.072 162.914 313.629 161.144 313.629 158.709V158.267C313.629 156.939 313.85 155.611 314.514 154.504C314.957 153.398 315.842 152.513 316.727 151.849C317.612 151.185 318.94 150.964 320.268 150.964C321.817 150.964 323.366 151.406 324.473 152.513C325.579 153.398 326.243 154.726 326.243 156.275H323.809C323.809 155.39 323.366 154.504 322.702 153.841C322.038 153.177 321.153 152.955 320.268 152.955C318.94 152.955 318.055 153.398 317.391 154.283C316.727 155.168 316.285 156.496 316.285 158.267V158.709C316.285 160.48 316.727 161.807 317.391 162.693C317.834 163.799 318.94 164.242 320.268 164.242Z" fill="#010202"/>
<path d="M330.227 158.488C330.227 156.939 330.448 155.832 331.112 154.504C331.776 153.398 332.44 152.513 333.546 151.849C334.653 151.185 335.759 150.964 337.087 150.964C339.079 150.964 340.628 151.627 341.956 152.955C343.283 154.283 343.726 156.275 343.726 158.488V158.709C343.726 160.037 343.505 161.365 342.841 162.471C342.398 163.578 341.513 164.463 340.406 165.127C339.3 165.791 338.193 166.012 336.866 166.012C334.874 166.012 333.325 165.348 331.997 164.02C330.89 162.914 330.227 160.922 330.227 158.488ZM332.882 158.93C332.882 160.48 333.325 161.807 333.989 162.914C334.653 163.799 335.759 164.463 337.087 164.463C338.415 164.463 339.3 164.02 340.185 162.914C340.849 161.807 341.292 160.48 341.292 158.709C341.292 157.16 340.849 155.832 340.185 154.726C339.521 153.619 338.415 153.177 337.087 153.177C335.759 153.177 334.874 153.619 333.989 154.726C333.103 155.611 332.882 156.939 332.882 158.93Z" fill="#010202"/>
<path d="M351.25 151.406V153.177C352.357 151.849 353.906 150.964 355.676 150.964C358.775 150.964 360.324 152.734 360.324 156.275V166.012H357.889V156.275C357.889 155.168 357.668 154.504 357.225 153.841C356.783 153.398 356.119 153.177 355.012 153.177C354.127 153.177 353.463 153.398 352.799 153.841C352.135 154.283 351.693 154.947 351.25 155.611V166.012H348.816V151.406H351.25Z" fill="#010202"/>
<path d="M369.618 147.865V151.406H372.274V153.398H369.618V162.471C369.618 163.135 369.84 163.578 370.061 163.799C370.282 164.02 370.725 164.242 371.389 164.242C371.61 164.242 372.053 164.242 372.495 164.02V166.012C371.831 166.233 371.167 166.233 370.504 166.233C369.397 166.233 368.512 165.791 368.069 165.127C367.405 164.463 367.184 163.578 367.184 162.25V153.177H364.528V151.185H367.184V147.644H369.618V147.865Z" fill="#010202"/>
<path d="M386.436 166.012C386.215 165.791 386.215 165.127 385.994 164.463C384.887 165.57 383.338 166.233 381.789 166.233C380.24 166.233 379.133 165.791 378.248 164.906C377.363 164.02 376.92 163.135 376.92 161.807C376.92 160.258 377.584 159.152 378.691 158.267C379.797 157.381 381.568 156.939 383.56 156.939H385.994V155.832C385.994 154.947 385.773 154.283 385.109 153.84C384.445 153.398 383.781 152.955 382.896 152.955C382.01 152.955 381.347 153.177 380.683 153.619C380.019 154.062 379.797 154.726 379.797 155.168H377.363C377.363 154.504 377.584 153.619 378.248 152.955C378.691 152.291 379.576 151.627 380.461 151.406C381.346 150.963 382.232 150.742 383.338 150.742C385.109 150.742 386.436 151.185 387.322 152.07C388.207 152.955 388.871 154.062 388.871 155.611V162.471C388.871 163.799 389.092 164.906 389.313 165.791V166.012H386.436ZM382.453 164.02C383.338 164.02 384.002 163.799 384.666 163.356C385.33 162.914 385.994 162.471 386.215 161.807V158.709H384.223C381.125 158.709 379.576 159.594 379.576 161.365C379.576 162.25 379.797 162.693 380.461 163.135C380.904 163.799 381.568 164.02 382.453 164.02Z" fill="#010202"/>
<path d="M397.06 164.02H405.69V166.012H393.961V164.242L402.15 153.398H394.183V151.406H405.248V153.177L397.06 164.02Z" fill="#010202"/>
<path d="M410.559 147.423C410.559 146.98 410.78 146.759 411.002 146.316C411.223 146.095 411.666 145.874 412.108 145.874C412.551 145.874 412.993 146.095 413.215 146.316C413.436 146.537 413.657 146.98 413.657 147.423C413.657 147.865 413.436 148.087 413.215 148.529C412.993 148.972 412.551 148.972 412.108 148.972C411.666 148.972 411.223 148.751 411.002 148.529C410.78 148.087 410.559 147.865 410.559 147.423ZM413.215 166.012H410.78V151.406H413.215V166.012Z" fill="#010202"/>
<path d="M418.748 158.488C418.748 156.939 418.969 155.832 419.633 154.504C420.297 153.398 420.961 152.513 422.068 151.849C423.174 151.185 424.281 150.964 425.608 150.964C427.6 150.964 429.149 151.627 430.477 152.955C431.805 154.283 432.248 156.275 432.248 158.488V158.709C432.248 160.037 432.026 161.365 431.362 162.471C430.92 163.578 430.034 164.463 428.928 165.127C427.821 165.791 426.715 166.012 425.387 166.012C423.395 166.012 421.846 165.348 420.518 164.02C419.412 162.914 418.748 160.922 418.748 158.488ZM421.182 158.93C421.182 160.48 421.625 161.807 422.289 162.914C422.953 163.799 424.059 164.463 425.387 164.463C426.715 164.463 427.6 164.02 428.485 162.914C429.149 161.807 429.592 160.48 429.592 158.709C429.592 157.16 429.149 155.832 428.485 154.726C427.821 153.619 426.715 153.177 425.387 153.177C424.059 153.177 423.174 153.619 422.289 154.726C421.625 155.611 421.182 156.939 421.182 158.93Z" fill="#010202"/>
<path d="M439.771 151.406V153.177C440.878 151.849 442.427 150.964 444.197 150.964C447.296 150.964 448.845 152.734 448.845 156.275V166.012H446.41V156.275C446.41 155.168 446.189 154.504 445.746 153.841C445.304 153.398 444.64 153.177 443.533 153.177C442.648 153.177 441.984 153.398 441.32 153.841C440.656 154.283 440.214 154.947 439.771 155.611V166.012H437.337V151.406H439.771Z" fill="#010202"/>
<path d="M460.795 166.233C458.804 166.233 457.255 165.57 455.927 164.242C454.599 162.914 454.156 161.144 454.156 158.93V158.488C454.156 156.939 454.378 155.832 455.041 154.504C455.705 153.398 456.369 152.513 457.476 151.849C458.582 151.185 459.468 150.964 460.795 150.964C462.787 150.964 464.115 151.627 465.221 152.955C466.328 154.283 466.771 156.054 466.771 158.267V159.373H456.812C456.812 160.922 457.255 162.029 458.14 162.914C459.025 163.799 459.91 164.242 461.238 164.242C462.123 164.242 462.787 164.02 463.451 163.799C464.115 163.357 464.557 162.914 465 162.25L466.549 163.357C465.221 165.348 463.23 166.233 460.795 166.233ZM460.574 153.177C459.468 153.177 458.804 153.619 457.918 154.283C457.254 154.947 456.812 156.054 456.591 157.381H463.894V157.16C463.894 155.832 463.451 154.947 462.787 154.283C462.344 153.398 461.681 153.177 460.574 153.177Z" fill="#010202"/>
<defs>
<linearGradient id="paint0_linear" x1="90.288" y1="101.219" x2="115.685" y2="101.219" gradientUnits="userSpaceOnUse">
<stop stop-color="#6DB96E"/>
<stop offset="1" stop-color="#71C4BB"/>
</linearGradient>
<linearGradient id="paint1_linear" x1="128.668" y1="61.6413" x2="154.757" y2="61.6413" gradientUnits="userSpaceOnUse">
<stop stop-color="#6DB96E"/>
<stop offset="1" stop-color="#71C4BB"/>
</linearGradient>
<linearGradient id="paint2_linear" x1="117.652" y1="85.2437" x2="145.39" y2="85.2437" gradientUnits="userSpaceOnUse">
<stop stop-color="#6DB96E"/>
<stop offset="1" stop-color="#71C4BB"/>
</linearGradient>
<linearGradient id="paint3_linear" x1="90.288" y1="52.6232" x2="95.2173" y2="52.6232" gradientUnits="userSpaceOnUse">
<stop stop-color="#6DB96E"/>
<stop offset="1" stop-color="#71C4BB"/>
</linearGradient>
<linearGradient id="paint4_linear" x1="90.288" y1="68.4986" x2="126.968" y2="68.4986" gradientUnits="userSpaceOnUse">
<stop stop-color="#6DB96E"/>
<stop offset="1" stop-color="#71C4BB"/>
</linearGradient>
<linearGradient id="paint5_linear" x1="134.505" y1="112.398" x2="172.959" y2="112.398" gradientUnits="userSpaceOnUse">
<stop stop-color="#6DB96E"/>
<stop offset="1" stop-color="#71C4BB"/>
</linearGradient>
<linearGradient id="paint6_linear" x1="0.92627" y1="72.6763" x2="200.795" y2="72.6763" gradientUnits="userSpaceOnUse">
<stop stop-color="#6DB96E"/>
<stop offset="1" stop-color="#71C4BB"/>
</linearGradient>
<linearGradient id="paint7_linear" x1="117.652" y1="133.092" x2="140.739" y2="133.092" gradientUnits="userSpaceOnUse">
<stop stop-color="#6DB96E"/>
<stop offset="1" stop-color="#71C4BB"/>
</linearGradient>
<linearGradient id="paint8_linear" x1="149.688" y1="137.977" x2="167.168" y2="137.977" gradientUnits="userSpaceOnUse">
<stop stop-color="#6DB96E"/>
<stop offset="1" stop-color="#71C4BB"/>
</linearGradient>
<linearGradient id="paint9_linear" x1="90.288" y1="104.583" x2="170.568" y2="104.583" gradientUnits="userSpaceOnUse">
<stop stop-color="#6DB96E"/>
<stop offset="1" stop-color="#71C4BB"/>
</linearGradient>
</defs>
</svg>
