<svg width="566" height="146" viewBox="0 0 566 146" fill="none" xmlns="http://www.w3.org/2000/svg">
<path d="M277.998 68.437L262.728 64.6749C255.425 62.9044 251.663 59.5849 251.663 54.4949C251.663 46.0854 259.629 42.9871 267.375 42.9871C277.112 42.9871 283.309 47.6345 283.973 55.3801C283.973 56.4866 285.079 57.3719 286.186 57.3719H301.013C301.677 57.3719 302.12 57.1505 302.562 56.7079C303.005 56.2653 303.226 55.8227 303.226 55.1588C302.784 37.8972 288.178 25.9468 267.596 25.9468C246.573 25.9468 231.967 38.1185 231.967 55.6014C231.967 69.3222 240.597 79.0596 256.31 82.8217L271.58 86.5839C283.088 89.2395 284.637 93.6656 284.637 97.6491C284.637 105.395 278.219 109.821 267.596 109.821C256.974 109.821 249.671 104.731 249.007 96.9851C249.007 95.8786 247.9 94.9934 246.794 94.9934H231.745C231.081 94.9934 230.639 95.2147 230.196 95.6573C229.754 96.0999 229.532 96.5425 229.532 97.2064C230.196 119.115 249.892 126.861 266.49 126.861C289.505 126.861 304.333 114.911 304.333 96.3212C304.333 77.0678 289.284 71.0927 277.998 68.437Z" fill="#010202"/>
<path d="M383.559 46.9706H368.29C367.183 46.9706 366.077 47.8558 366.077 49.1836V96.0999C366.077 104.731 360.765 109.821 351.913 109.821C342.84 109.821 337.75 104.731 337.75 96.0999V49.1836C337.75 48.0771 336.864 46.9706 335.537 46.9706H320.267C319.16 46.9706 318.054 47.8558 318.054 49.1836V97.2064C318.054 114.689 331.553 126.418 351.913 126.418C372.052 126.418 385.773 114.689 385.773 97.2064V49.1836C385.773 48.0771 384.666 46.9706 383.559 46.9706Z" fill="#010202"/>
<path d="M420.96 46.9706H405.69C404.584 46.9706 403.477 47.8558 403.477 49.1836V122.878C403.477 123.984 404.362 125.091 405.69 125.091H420.96C422.067 125.091 423.173 124.205 423.173 122.878V49.1836C423.173 48.0771 422.288 46.9706 420.96 46.9706Z" fill="#010202"/>
<path d="M496.867 46.9706H436.894C435.787 46.9706 434.681 47.8558 434.681 49.1836V61.134C434.681 62.2405 435.566 63.347 436.894 63.347H457.032V122.878C457.032 123.984 457.918 125.091 459.245 125.091H474.515C475.622 125.091 476.728 124.205 476.728 122.878V63.347H496.867C497.973 63.347 499.08 62.4618 499.08 61.134V49.1836C498.859 48.0771 497.973 46.9706 496.867 46.9706Z" fill="#010202"/>
<path d="M562.815 63.1257C563.921 63.1257 565.028 62.2405 565.028 60.9127V49.1836C565.028 48.0771 564.143 46.9706 562.815 46.9706H512.358C511.251 46.9706 510.145 47.8558 510.145 49.1836V122.878C510.145 123.984 511.03 125.091 512.358 125.091H562.815C563.921 125.091 565.028 124.205 565.028 122.878V111.149C565.028 110.042 564.143 108.936 562.815 108.936H529.841V93.4443H560.823C561.929 93.4443 563.036 92.5591 563.036 91.2312V79.9448C563.036 78.8383 562.151 77.7317 560.823 77.7317H529.841V63.1257H562.815Z" fill="#010202"/>
<path d="M110.25 70.4287C108.701 71.5352 108.258 72.6417 108.258 74.4121C108.258 75.9613 108.922 77.2891 110.25 78.3956C110.471 78.6169 110.693 78.6169 110.914 78.8382L122.643 67.1091C117.332 67.3304 113.127 68.437 110.25 70.4287Z" fill="#343434"/>
<path d="M128.618 84.8134C133.044 85.9199 137.028 87.0264 140.79 88.1329L146.544 82.379L141.011 82.6003C140.347 82.6003 139.683 82.1577 139.683 81.4938L139.462 79.9447C138.577 75.2973 137.028 71.9778 134.815 70.2073C134.151 69.7647 133.487 69.3221 132.602 68.8795L119.102 82.379C121.536 83.0429 124.635 83.9281 128.618 84.8134Z" fill="#343434"/>
<path d="M182.838 0.71814H90.9967C86.7919 0.71814 83.0298 2.26726 79.9315 4.9229L58.4651 24.3976H16.6388C8.00797 24.3976 0.92627 30.8154 0.92627 38.7823V131.287C0.92627 139.254 8.00797 145.672 16.6388 145.672H87.6772C82.8085 139.918 79.4889 132.615 77.9398 123.541L58.9077 142.574H47.4L91.218 98.7555C85.9067 93.6655 82.8085 87.6903 81.702 80.6086L19.737 142.574H16.6388C14.2045 142.574 11.9914 141.91 9.9997 140.803L82.1446 68.6583C83.0298 65.3387 84.3576 62.0192 86.3493 58.9209C89.6689 53.6096 94.7589 49.6262 101.177 46.9705C102.504 46.3066 104.054 45.864 105.603 45.4214L147.208 3.81639H158.716L119.324 42.9871C120.651 42.9871 121.979 42.9871 123.307 42.9871C131.274 42.9871 138.134 44.0936 143.888 46.0853L185.715 4.03769C188.591 4.7016 191.247 6.25072 192.796 8.24245L151.634 49.6262C152.962 50.5114 154.289 51.3966 155.617 52.5031C159.601 55.8227 162.478 59.8061 164.469 64.4535L195.452 33.471V44.9788L166.904 73.5269C167.125 75.0761 167.346 76.6252 167.346 78.3956V80.166C167.346 80.8299 166.904 81.4939 166.019 81.4939L158.273 81.9365L149.199 91.2312C150.527 91.6738 151.634 92.3377 152.74 92.7803C157.609 95.436 161.814 98.9768 164.691 103.182L195.452 72.4204V83.9282L168.453 110.927C169.781 114.689 170.445 118.894 170.445 123.541C170.445 129.959 168.674 136.377 165.133 141.91L195.452 111.591V123.099L175.977 142.574H164.691C164.027 143.68 163.363 144.565 162.478 145.672H182.838C191.468 145.672 198.55 139.254 198.55 131.287V15.1029C198.55 7.13594 191.468 0.71814 182.838 0.71814ZM4.02452 38.7823C4.02452 32.5858 9.7784 27.4958 16.6388 27.4958H17.9666L4.02452 41.438V38.7823ZM4.02452 68.8796L45.4082 27.2745H56.916L4.02452 80.3873V68.8796ZM4.02452 119.337V107.829L108.037 3.81639H119.545L4.02452 119.337Z" fill="#343434"/>
<path d="M111.357 130.845C114.676 133.5 119.103 135.049 124.856 135.049C128.619 135.049 131.938 134.607 134.594 133.5L142.339 125.755C142.561 125.091 142.561 124.205 142.561 123.542C142.561 121.771 142.118 120.443 141.012 119.115C139.905 117.788 137.692 116.46 134.594 115.575C133.266 115.132 130.61 114.247 127.069 113.362L110.472 129.959C110.693 130.181 110.914 130.623 111.357 130.845Z" fill="#343434"/>
<path d="M102.947 114.468C103.611 114.468 104.275 114.911 104.496 115.574L104.717 117.345C105.16 119.337 105.603 121.107 106.045 122.877L117.774 111.148C117.774 111.148 117.774 111.148 117.553 111.148C109.144 109.157 102.504 106.722 97.4145 103.845L85.0215 116.238L102.947 114.468Z" fill="#343434"/>
</svg>
