<svg width="220" height="76" viewBox="0 0 220 76" fill="none" xmlns="http://www.w3.org/2000/svg">
<g clip-path="url(#clip0)">
<path d="M151.57 71.946H137.367V58.7495H145.856V55.5965H137.367V44.6986H150.862V41.5897H133.24V75.0549H151.57V71.946ZM126.349 71.946H113.206V41.5897H109.078V75.0549H126.343V71.946H126.349ZM92.3449 41.5897H87.9848L78.1999 75.0549H82.2655L84.7401 66.3565H95.5214L97.9395 75.0549H102.124L92.3449 41.5897ZM85.5668 63.2531L87.8658 54.9295C88.7492 51.8205 89.6949 48.2376 90.1025 45.7515C90.5725 48.2376 91.4559 51.7269 92.3393 54.8854L94.6386 63.2531H85.5668ZM70.0684 67.1171C68.4207 70.7994 66.6483 72.4696 63.5848 72.4696C58.9868 72.4696 56.1612 67.6409 56.1612 58.3195C56.1612 49.1856 58.8735 44.1695 63.4093 44.1695C66.2972 44.1695 67.9449 45.4593 69.655 49.5716L73.3697 48.2321C71.4218 43.6899 68.5962 41.0605 63.4715 41.0605C55.9857 41.0605 52.0388 47.7029 52.0388 58.3195C52.0388 69.0741 55.7535 75.5786 63.3527 75.5786C68.7717 75.5786 71.7219 72.7562 73.4886 68.5008L70.0684 67.1171ZM33.8225 72.4751C29.1678 72.4751 26.1044 67.6464 26.1044 58.3251C26.1044 48.9542 29.0489 44.175 33.6468 44.175C38.3015 44.175 41.4272 49.0037 41.4272 58.3251C41.4272 67.6904 38.4204 72.4751 33.8225 72.4751ZM33.7658 41.066C25.9855 41.066 21.9764 47.521 21.9764 58.3251C21.9764 69.1788 25.9231 75.5841 33.7035 75.5841C41.4838 75.5841 45.5496 69.1291 45.5496 58.3251C45.5496 47.4713 41.5462 41.066 33.7658 41.066ZM17.2651 71.946H4.12234V41.5897H0V75.0549H17.2651V71.946Z" fill="black"/>
<path d="M210.76 1.1184H202.312L193.421 34.5836H201.87L203.099 28.3712H209.877L211.157 34.5836H219.605L210.76 1.1184ZM204.43 21.8666L204.627 20.8139C205.46 16.3654 206.151 12.7329 206.446 9.67347C206.791 12.7329 207.527 16.3654 208.314 20.7642L208.512 21.8612H204.43V21.8666ZM188.122 1.1184H179.82V34.5836H188.122V1.1184ZM173.24 27.9358H167.985C165.63 27.9358 162.878 27.9853 161.009 28.0294C162.039 26.4529 163.954 23.1511 165.426 20.5713L173.183 7.13782V1.11289H152.606V7.7552H157.073C159.429 7.7552 162.277 7.7056 164.095 7.6615C163.064 9.23802 161.099 12.584 159.673 15.0701L151.915 28.5531V34.5781H173.228V27.9358H173.24ZM145.448 1.1184H137.147V34.5836H145.448V1.1184ZM131.502 27.605H120.793V1.1184H112.543V34.5836H131.502V27.605ZM94.474 28.2278C91.9202 28.2278 90.5952 25.8852 90.5952 17.8041C90.5952 9.72313 91.824 7.47958 94.4232 7.47958C96.9768 7.47958 98.3015 9.82236 98.3015 17.9034C98.3015 25.9789 97.0219 28.2278 94.474 28.2278ZM94.474 0.594727C86.7616 0.594727 82.1467 6.09048 82.1467 17.9034C82.1467 29.7107 86.6653 35.1128 94.3781 35.1128C102.135 35.1128 106.751 29.617 106.751 17.8096C106.751 6.04088 102.181 0.594727 94.474 0.594727ZM66.2349 15.9409H63.5848V7.62291H66.3821C68.6925 7.62291 69.6211 8.76946 69.6211 11.735C69.6211 14.7448 68.5905 15.9409 66.2349 15.9409ZM67.1182 1.1184H55.527V34.5836H63.5792V22.4399H66.5237C73.1036 22.4399 77.7695 19.4743 77.7695 11.5422C77.7752 3.79737 73.2564 1.1184 67.1182 1.1184ZM35.827 1.1184H31.4668L21.6819 34.5836H25.7476L28.2221 25.8852H39.0036L41.4216 34.5836H45.6062L35.827 1.1184ZM29.0489 22.7762L31.3479 14.4582C32.2312 11.3492 33.1768 7.76623 33.5846 5.28018C34.0546 7.76623 34.938 11.2555 35.827 14.4141L38.126 22.7817H29.0489V22.7762ZM17.2651 31.4746H4.12234V1.1184H0V34.5836H17.2651V31.4746Z" fill="black"/>
</g>
<defs>
<clipPath id="clip0">
<rect width="220" height="75.9038" fill="white"/>
</clipPath>
</defs>
</svg>
