<svg width="76" height="80" viewBox="0 0 76 80" fill="none" xmlns="http://www.w3.org/2000/svg">
<path d="M61.2189 67.9721C61.2189 65.7429 61.1908 62.8989 58.4958 62.8989C55.7996 62.8989 55.7727 65.7429 55.7727 67.9721C55.7727 70.2266 55.7996 73.0729 58.4958 73.0729C61.1908 73.0729 61.2189 70.2266 61.2189 67.9721Z" fill="#0559A4"/>
<path d="M52.8155 9.60375C52.8155 8.45658 53.3964 8.19012 53.7719 8.19012C54.1504 8.19012 54.7284 8.45658 54.7284 9.60375C54.7284 10.7503 54.1504 11.018 53.7719 11.018C53.3964 11.018 52.8155 10.7503 52.8155 9.60375Z" fill="#0559A4"/>
<path d="M47.5321 8.34919H46.8721V9.39486H47.4455C47.8285 9.39486 48.2339 9.36602 48.2339 8.84694C48.2339 8.37803 47.8933 8.34919 47.5321 8.34919Z" fill="#0559A4"/>
<path d="M41.4463 8.34919H40.7858V9.39486H41.3598C41.7428 9.39486 42.147 9.36602 42.147 8.84694C42.147 8.37803 41.8105 8.34919 41.4463 8.34919Z" fill="#0559A4"/>
<path d="M28.6884 8.25569H27.9957V9.28001H28.7704C29.0456 9.28001 29.4229 9.22868 29.4229 8.76727C29.4229 8.44314 29.2543 8.25569 28.6884 8.25569Z" fill="#0559A4"/>
<path fill-rule="evenodd" clip-rule="evenodd" d="M0 0H76V76.4445H50.3229C50.4852 75.9883 50.5752 75.471 50.5752 74.8876C50.5752 74.3066 50.4642 73.7552 50.203 73.2611H54.2042V72.6428H52.6313V62.3604C51.6686 62.6032 50.6279 62.6292 49.6399 62.6292H46.4089C45.9293 62.4621 45.3793 62.3795 44.7552 62.3795C42.1135 62.3795 40.9128 64.3912 40.9128 66.0834C40.9128 67.6141 41.7133 68.5254 42.9151 69.1143V69.1708C41.9008 69.3306 40.7712 69.7983 40.0435 71.2742C39.8899 71.585 39.7594 71.8538 39.6552 72.0868C38.9284 71.6705 37.835 71.5851 35.1816 71.5851H32.3261C31.9259 71.5851 31.6323 71.3181 31.6323 71.0228C31.6323 69.8934 33.3694 69.6948 35.4936 69.4519L35.4941 69.4518C35.8952 69.406 36.3102 69.3585 36.7298 69.3029C37.2912 69.2498 39.426 68.4723 39.426 65.949C39.426 65.4866 39.2846 65.0442 39.1759 64.7039C39.1079 64.4912 39.0527 64.3184 39.0527 64.2055C39.0527 63.9338 39.6301 63.5601 39.8973 63.5601C39.9713 63.5601 40.0573 63.6841 40.1617 63.8347C40.3234 64.068 40.5295 64.3653 40.8044 64.3653C41.3658 64.3653 41.6599 63.8819 41.6599 63.3467C41.6599 62.6477 41.0974 62.4314 40.6198 62.4314C39.7373 62.4314 38.9202 63.3167 38.6513 63.9338C37.9575 62.8888 36.8634 62.3795 35.3158 62.3795C32.6736 62.3795 31.4729 64.3912 31.4729 66.0834C31.4729 67.6141 32.2733 68.5254 33.4735 69.1143V69.1708C32.4603 69.3306 30.8048 69.762 30.8048 71.2356C30.8048 71.2715 30.7908 71.3025 30.7754 71.3366C30.7655 71.3584 30.755 71.3816 30.7474 71.408C30.6155 71.8642 30.3483 72.6169 29.8156 72.6169C29.2536 72.6169 29.2536 72.1867 29.2536 71.3821V64.9928C29.2536 63.9183 29.2536 62.3599 25.6228 62.3599C22.4479 62.3599 21.3516 63.9719 21.3516 64.9386C21.3516 65.6889 21.7535 66.2276 22.4749 66.2276C23.1406 66.2276 23.5683 65.7714 23.5683 65.0989C23.5683 64.506 23.21 64.2505 22.973 64.0815C22.8559 63.998 22.7684 63.9356 22.7684 63.8641C22.7684 63.0843 24.6618 62.8986 25.2507 62.8986C26.1831 62.8986 27.1722 63.2758 27.1722 64.5354V67.0858C23.089 67.0858 20.5534 68.4827 20.472 70.9789C20.472 72.9647 21.9135 73.6101 23.5947 73.6101C24.9566 73.6101 26.2903 73.0991 27.1997 71.9715C27.3855 72.9647 27.9469 73.6101 28.9331 73.6101C29.8662 73.6101 30.6448 73.0678 31.0003 72.2535C31.4505 73.2321 32.6033 73.392 33.6586 73.5383L33.7143 73.5461V73.6274C32.3862 73.9679 30.6781 74.6635 30.5958 76.4445H0V0ZM62.5621 73.2611V72.6428H64.6178V56.0484H62.5621V55.4313H63.7107C64.6998 55.4313 65.7377 55.3759 66.6987 55.189V72.6428L69.8657 72.6428V63.2492H68.0779V62.6292H68.9598C69.9477 62.6292 70.9867 62.6032 71.9495 62.3604V72.6428H73.524V73.2611L62.5621 73.2611ZM70.8812 58.8227C71.5241 58.8227 72.2415 59.4116 72.2415 60.1125C72.2415 60.9431 71.6548 61.5343 70.8812 61.5343C70.1082 61.5343 69.6001 60.89 69.6001 60.1125C69.6001 59.4116 70.2143 58.8227 70.8812 58.8227ZM53.346 67.9721C53.346 64.7249 55.6935 62.3602 58.4958 62.3602C61.298 62.3602 63.6455 64.7249 63.6455 67.9721C63.6455 71.2198 61.298 73.6104 58.4958 73.6104C55.6935 73.6104 53.346 71.2198 53.346 67.9721ZM52.6993 60.0798C52.6993 59.3836 51.9767 58.7923 51.3362 58.7923C50.6687 58.7923 50.0579 59.3836 50.0579 60.0798C50.0579 60.8597 50.5626 61.504 51.3362 61.504C52.1109 61.504 52.6993 60.9116 52.6993 60.0798ZM2.18025 55.3266V55.9449H4.18257V72.6426H2.18025V73.2609H6.9848V72.6426H4.98305V56.2673H5.03637L10.0279 73.2609H10.7211L15.8984 56.2673H15.9528V72.6426H13.8972V73.2609H20.571V72.6426H18.5417V55.9449H20.571V55.3266H15.259L11.3346 68.5355H11.2819L7.51864 55.3266H2.18025ZM23.5 12.1789H24.4352V9.34414H22.4684V10.4475H23.1227C23.0482 10.8299 22.6984 11.0179 22.3555 11.0179C21.4524 11.0179 21.2706 10.1735 21.2706 9.69077L21.2705 9.6581C21.2696 9.27173 21.2668 8.19005 22.254 8.19005C22.6038 8.19005 22.9002 8.45651 22.9541 8.83255H24.3756C24.16 7.62079 23.3853 6.90676 22.1605 6.90676C21.0751 6.90676 19.7889 7.69173 19.7889 9.65443C19.7889 11.1188 20.6651 12.3018 22.0854 12.3018C22.6106 12.3018 23.1227 12.1074 23.4518 11.6523L23.5 12.1789ZM51.3344 9.60375C51.3344 11.1766 52.3115 12.3018 53.7719 12.3018C55.2347 12.3018 56.2101 11.1766 56.2101 9.60375C56.2101 8.03094 55.2347 6.90684 53.7719 6.90684C52.3115 6.90684 51.3344 8.03094 51.3344 9.60375ZM46.8721 12.1789H45.391V7.02957H47.8692C49.176 7.02957 49.633 8.05332 49.633 8.78926C49.633 10.0362 48.852 10.621 47.7465 10.621H46.8721V12.1789ZM40.7858 12.1789H39.3058V7.02957H41.7835C43.0891 7.02957 43.5467 8.05332 43.5467 8.78926C43.5467 10.0362 42.7657 10.621 41.6625 10.621H40.7858V12.1789ZM27.9957 12.1788H26.514V7.03008H29.3352C30.1763 7.03008 30.9051 7.52667 30.9051 8.50024C30.9051 9.03431 30.6752 9.59723 30.1838 9.79217C30.5875 9.95712 30.8375 10.4335 30.8914 11.076C30.8948 11.1211 30.8979 11.1777 30.9014 11.2416C30.9174 11.5352 30.9418 11.9836 31.0525 12.1788H29.5714C29.4969 11.9193 29.4699 11.6528 29.4504 11.3852L29.45 11.3806C29.4094 10.8918 29.3672 10.3828 28.783 10.3828H27.9957V12.1788ZM35.7316 7.02976H37.2127V10.1875C37.2127 11.6161 36.492 12.3019 35.0252 12.3019C33.5561 12.3019 32.8285 11.6161 32.8285 10.1875V7.02976H34.3107V9.83569C34.3107 10.3617 34.3107 11.018 35.0315 11.018C35.7316 11.018 35.7316 10.3617 35.7316 9.83569V7.02976Z" fill="#0559A4"/>
<path d="M26.6257 71.7421C26.8417 71.5303 27.1722 71.206 27.1722 70.1455V67.6487C25.4376 67.6758 22.4749 67.9723 22.4749 70.4402C22.4749 71.7581 23.3017 72.5627 24.5299 72.5627C25.3837 72.5627 25.9445 72.3453 26.5856 71.7818C26.5983 71.7691 26.6115 71.7561 26.6252 71.7426L26.6257 71.7421Z" fill="#0559A4"/>
<path d="M50.5476 72.6428H49.7652C48.936 71.7392 48.1873 71.5851 44.6239 71.5851H41.766C41.3658 71.5851 41.0728 71.3181 41.0728 71.0228C41.0728 69.8934 42.8094 69.6948 44.9336 69.4519C45.3349 69.406 45.7499 69.3585 46.1698 69.3029C46.7311 69.2498 48.8653 68.4723 48.8653 65.949C48.8653 64.765 48.0907 63.9338 48.0907 63.9338C47.9169 63.6722 47.7182 63.4441 47.4936 63.2492H50.5476V72.6428Z" fill="#0559A4"/>
<path d="M41.6135 76.3826C41.6135 78.0996 43.4014 78.666 44.7901 78.666C49.3292 78.666 49.5167 76.1155 49.5167 75.6864C49.5167 74.1015 49.0356 73.324 45.6451 73.324C42.4954 73.324 41.6135 75.4701 41.6135 76.3826Z" fill="#0559A4"/>
<path d="M42.8692 66.02C42.8692 63.4707 43.5109 62.8265 44.8435 62.8265C46.4456 62.8265 46.6577 64.4362 46.6577 65.78C46.6577 67.444 46.5241 68.8386 44.5786 68.8386C43.1078 68.8386 42.8692 67.2289 42.8692 66.02Z" fill="#0559A4"/>
<path d="M35.3514 78.666C33.962 78.666 32.1736 78.0996 32.1736 76.3826C32.1736 75.4701 33.0543 73.324 36.2046 73.324C39.5928 73.324 40.0751 74.1015 40.0751 75.6864C40.0751 76.1155 39.8876 78.666 35.3514 78.666Z" fill="#0559A4"/>
<path d="M35.403 62.8265C34.0692 62.8265 33.4287 63.4707 33.4287 66.02C33.4287 67.2289 33.6684 68.8386 35.1358 68.8386C37.0853 68.8386 37.2189 67.444 37.2189 65.78C37.2189 64.4362 37.0056 62.8265 35.403 62.8265Z" fill="#0559A4"/>
</svg>
