<svg width="230" height="235" viewBox="0 0 230 235" fill="none" xmlns="http://www.w3.org/2000/svg">
<g clip-path="url(#clip0)">
<rect width="230" height="240.109" fill="white"/>
<path d="M10 10H220V220H10V10V10Z" fill="#0359A3"/>
<path d="M205.856 171.591C207.632 171.591 209.615 173.209 209.615 175.134C209.615 177.416 207.994 179.041 205.856 179.041C203.72 179.041 202.316 177.271 202.316 175.134C202.316 173.209 204.013 171.591 205.856 171.591Z" fill="white"/>
<path d="M182.869 211.255V209.556H188.549V163.97H182.869V162.275H186.043C188.776 162.275 191.643 162.123 194.299 161.609V209.556H199.984V211.255H182.869Z" fill="white"/>
<path d="M198.11 211.255V209.556H203.05V183.751H198.11V182.048H200.547C203.277 182.048 206.148 181.977 208.808 181.31V209.556H213.159V211.255H198.11Z" fill="white"/>
<path d="M171.633 181.309C163.89 181.309 157.403 187.805 157.403 196.725C157.403 205.647 163.89 212.215 171.633 212.215C179.376 212.215 185.863 205.647 185.863 196.725C185.863 187.805 179.376 181.309 171.633 181.309ZM171.633 182.789C179.08 182.789 179.157 190.602 179.157 196.725C179.157 202.919 179.08 210.738 171.633 210.738C164.183 210.738 164.109 202.919 164.109 196.725C164.109 190.602 164.183 182.789 171.633 182.789" fill="white"/>
<path d="M144.726 211.255V209.556H149.671V183.751H137.511V182.048H147.163C149.893 182.048 152.768 181.977 155.429 181.31V209.556H159.775V211.255H144.726Z" fill="white"/>
<path d="M151.85 171.508C153.62 171.508 155.617 173.132 155.617 175.045C155.617 177.33 153.991 178.957 151.85 178.957C149.712 178.957 148.318 177.187 148.318 175.045C148.318 173.132 150.006 171.508 151.85 171.508Z" fill="white"/>
<path d="M133.762 226.103C129.925 226.103 124.985 224.547 124.985 219.83C124.985 217.323 127.421 211.428 136.125 211.428C145.493 211.428 146.822 213.564 146.822 217.918C146.822 219.096 146.304 226.103 133.762 226.103Z" fill="#0359A3"/>
<path d="M133.762 226.103C129.925 226.103 124.985 224.547 124.985 219.83C124.985 217.323 127.421 211.428 136.125 211.428C145.493 211.428 146.823 213.564 146.823 217.918C146.823 219.096 146.304 226.103 133.762 226.103ZM128.455 191.363C128.455 184.36 130.227 182.59 133.91 182.59C138.336 182.59 138.923 187.012 138.923 190.704C138.923 195.275 138.553 199.106 133.178 199.106C129.114 199.106 128.455 194.684 128.455 191.363V191.363ZM142.882 185.632C140.965 182.761 137.947 181.362 133.666 181.362C126.366 181.362 123.049 186.889 123.049 191.537C123.049 195.742 125.26 198.246 128.581 199.863V200.019C125.778 200.457 122.657 201.742 120.647 205.797C118.135 210.846 117.863 211.862 121.624 212.375L122.182 213.92C122.182 218.119 120.613 215.203 120.613 220.372C120.613 223.466 124.153 228.04 134.778 228.04C141.784 228.04 149.747 224.791 149.747 215.723C149.747 213.508 149.156 211.45 147.686 209.752C145.319 207.096 143.402 206.651 133.303 206.651H125.406C124.3 206.651 123.491 205.917 123.491 205.106C123.491 201.418 130.273 201.343 137.574 200.381C139.125 200.236 145.023 198.1 145.023 191.168C145.023 187.915 142.882 185.632 142.882 185.632" fill="white"/>
<path d="M107.682 226.103C103.843 226.103 98.9008 224.547 98.9008 219.83C98.9008 217.323 101.334 211.428 110.039 211.428C119.401 211.428 120.734 213.564 120.734 217.918C120.734 219.096 120.216 226.103 107.682 226.103Z" fill="#0359A3"/>
<path d="M107.681 226.103C103.842 226.103 98.9006 224.547 98.9006 219.83C98.9006 217.323 101.334 211.428 110.039 211.428C119.401 211.428 120.734 213.564 120.734 217.918C120.734 219.096 120.216 226.103 107.681 226.103ZM102.369 191.363C102.369 184.36 104.139 182.59 107.824 182.59C112.252 182.59 112.842 187.012 112.842 190.704C112.842 195.275 112.473 199.106 107.086 199.106C103.031 199.106 102.369 194.684 102.369 191.363ZM107.212 206.651H99.3221C98.2161 206.651 97.4049 205.917 97.4049 205.106C97.4049 201.418 104.189 201.343 111.49 200.381C113.041 200.236 118.94 198.1 118.94 191.168C118.94 189.104 117.909 187.185 117.909 186.378C117.909 185.632 119.504 184.605 120.243 184.605C120.764 184.605 121.499 186.817 122.749 186.817C124.3 186.817 125.113 185.49 125.113 184.019C125.113 182.099 123.559 181.505 122.239 181.505C119.8 181.505 117.543 183.937 116.8 185.632C114.882 182.761 111.859 181.362 107.583 181.362C100.282 181.362 96.9645 186.889 96.9645 191.537C96.9645 195.742 99.1763 198.246 102.492 199.863V200.019C99.6928 200.457 95.1186 201.643 95.1186 205.691C95.1186 211.002 99.3965 211.518 103.158 212.038V212.261C99.3965 213.22 94.5324 215.203 94.5324 220.372C94.5324 223.466 98.0672 228.04 108.686 228.04C115.697 228.04 123.66 224.791 123.66 215.723C123.66 213.508 123.071 211.45 121.594 209.752C119.233 207.096 117.315 206.651 107.212 206.651" fill="white"/>
<path d="M94.9598 206.164C94.5954 207.418 93.8571 209.485 92.3851 209.485C90.8324 209.485 90.8324 208.303 90.8324 206.093V188.541C90.8324 185.589 90.8324 181.308 80.8 181.308C72.0271 181.308 68.9977 185.737 68.9977 188.392C68.9977 190.453 70.1084 191.933 72.1016 191.933C73.9411 191.933 75.123 190.68 75.123 188.833C75.123 186.399 72.9128 186.035 72.9128 185.44C72.9128 183.298 78.1445 182.788 79.7717 182.788C82.3479 182.788 85.081 183.824 85.081 187.285V194.291C73.7985 194.291 66.7922 198.128 66.5673 204.986C66.5673 210.441 70.5505 212.214 75.1959 212.214C78.9589 212.214 82.6442 210.81 85.1571 207.712C85.6704 210.441 87.2216 212.214 89.9467 212.214C93.3405 212.214 95.9944 209.633 96.2162 206.164H94.9598ZM85.081 202.696C85.081 205.797 84.0464 206.606 83.4602 207.191C81.6888 208.739 80.1393 209.336 77.7801 209.336C74.3863 209.336 72.1016 207.126 72.1016 203.506C72.1016 196.726 80.2882 195.912 85.081 195.837V202.696V202.696Z" fill="white"/>
<path d="M16.0244 163.686V161.987H30.7752L41.1736 198.273H41.3194L52.163 161.987H66.841V163.686H61.2337V209.556H66.841V211.255H48.4001V209.556H54.0802V164.571H53.9296L39.6241 211.255H37.7085L23.9163 164.571H23.7689V209.556H29.3001V211.255H16.0244V209.556H21.5571V163.686H16.0244Z" fill="white"/>
<path fill-rule="evenodd" clip-rule="evenodd" d="M155.938 36.3824C155.938 33.231 157.543 32.499 158.58 32.499C159.626 32.499 161.223 33.231 161.223 36.3824C161.223 39.5322 159.626 40.2674 158.58 40.2674C157.543 40.2674 155.938 39.5322 155.938 36.3824ZM151.845 36.3824C151.845 40.7031 154.545 43.7943 158.58 43.7943C162.622 43.7943 165.317 40.7031 165.317 36.3824C165.317 32.0617 162.622 28.9737 158.58 28.9737C154.545 28.9737 151.845 32.0617 151.845 36.3824Z" fill="white"/>
<path fill-rule="evenodd" clip-rule="evenodd" d="M139.515 32.936H141.339C142.337 32.936 143.278 33.0152 143.278 34.3033C143.278 35.7293 142.158 35.8085 141.099 35.8085H139.515V32.936ZM135.422 43.4564H139.515V39.1769H141.931C144.986 39.1769 147.144 37.5703 147.144 34.1449C147.144 32.1232 145.881 29.3108 142.27 29.3108H135.422V43.4564V43.4564Z" fill="white"/>
<path fill-rule="evenodd" clip-rule="evenodd" d="M122.698 32.936H124.523C125.529 32.936 126.459 33.0152 126.459 34.3033C126.459 35.7293 125.342 35.8085 124.284 35.8085H122.698V32.936ZM118.608 43.4564H122.698V39.1769H125.12C128.169 39.1769 130.326 37.5703 130.326 34.1449C130.326 32.1232 129.062 29.3108 125.454 29.3108H118.608V43.4564V43.4564Z" fill="white"/>
<path fill-rule="evenodd" clip-rule="evenodd" d="M87.3565 32.6791H89.2704C90.8342 32.6791 91.3001 33.194 91.3001 34.0845C91.3001 35.352 90.2575 35.493 89.497 35.493H87.3565V32.6791ZM83.2624 43.4562H87.3565V38.5224H89.5319C91.1511 38.5224 91.2636 39.9294 91.3761 41.2761C91.43 42.0113 91.5044 42.7433 91.7104 43.4562H95.8029C95.4306 42.8035 95.4116 41.1192 95.3577 40.4269C95.2088 38.6618 94.518 37.3531 93.4026 36.9C94.7604 36.3644 95.3957 34.8181 95.3957 33.3509C95.3957 30.6764 93.382 29.3123 91.0576 29.3123H83.2624V43.4562Z" fill="white"/>
<path d="M112.825 29.3114H108.732V37.0195C108.732 38.4645 108.732 40.2675 106.798 40.2675C104.806 40.2675 104.806 38.4645 104.806 37.0195V29.3114H100.71V37.986C100.71 41.9106 102.721 43.7944 106.78 43.7944C110.833 43.7944 112.825 41.9106 112.825 37.986V29.3114Z" fill="white"/>
<path d="M74.9342 43.4566H77.5183V35.6692H72.0838V38.7002H73.8916C73.6857 39.7507 72.7192 40.2672 71.7717 40.2672C69.2763 40.2672 68.774 37.9476 68.774 36.6215C68.774 35.6502 68.6821 32.4988 71.4913 32.4988C72.4578 32.4988 73.2769 33.2308 73.4258 34.2639H77.3536C76.7578 30.935 74.6173 28.9735 71.233 28.9735C68.2337 28.9735 64.6799 31.1299 64.6799 36.5216C64.6799 40.5444 67.1009 43.7941 71.0255 43.7941C72.4768 43.7941 73.8916 43.2601 74.8011 42.01L74.9342 43.4566Z" fill="white"/>
</g>
<defs>
<clipPath id="clip0">
<path d="M0 0H230V235H0V0Z" fill="white"/>
</clipPath>
</defs>
</svg>
