<svg width="220" height="220" viewBox="0 0 220 220" fill="none" xmlns="http://www.w3.org/2000/svg">
<path d="M164.992 180.05C164.992 174.802 164.926 168.105 158.543 168.105C152.157 168.105 152.093 174.802 152.093 180.05C152.093 185.359 152.157 192.061 158.543 192.061C164.926 192.061 164.992 185.359 164.992 180.05Z" fill="#0559A4"/>
<path d="M145.089 42.6135C145.089 39.9123 146.465 39.2849 147.355 39.2849C148.251 39.2849 149.62 39.9123 149.62 42.6135C149.62 45.3133 148.251 45.9435 147.355 45.9435C146.465 45.9435 145.089 45.3133 145.089 42.6135Z" fill="#0559A4"/>
<path d="M132.576 39.6594H131.013V42.1216H132.371C133.278 42.1216 134.238 42.0537 134.238 40.8314C134.238 39.7273 133.432 39.6594 132.576 39.6594Z" fill="#0559A4"/>
<path d="M118.162 39.6594H116.598V42.1216H117.957C118.865 42.1216 119.822 42.0537 119.822 40.8314C119.822 39.7273 119.025 39.6594 118.162 39.6594Z" fill="#0559A4"/>
<path d="M87.9461 39.4393H86.3056V41.8512H88.1403C88.7922 41.8512 89.6858 41.7303 89.6858 40.6439C89.6858 39.8806 89.2865 39.4393 87.9461 39.4393Z" fill="#0559A4"/>
<path fill-rule="evenodd" clip-rule="evenodd" d="M20 20H200V200H139.186C139.57 198.926 139.783 197.708 139.783 196.334C139.783 194.966 139.52 193.668 138.902 192.504H148.378V191.048H144.653V166.837C142.373 167.409 139.908 167.47 137.568 167.47H129.916C128.78 167.077 127.477 166.882 125.999 166.882C119.743 166.882 116.899 171.619 116.899 175.603C116.899 179.208 118.795 181.353 121.641 182.74V182.873C119.239 183.249 116.563 184.351 114.84 187.826C114.476 188.558 114.167 189.191 113.92 189.739C112.199 188.759 109.609 188.558 103.325 188.558H96.5618C95.6139 188.558 94.9185 187.929 94.9185 187.234C94.9185 184.575 99.0328 184.107 104.064 183.535L104.065 183.535C105.015 183.427 105.998 183.315 106.992 183.184C108.321 183.059 113.377 181.228 113.377 175.287C113.377 174.198 113.042 173.156 112.785 172.355C112.624 171.854 112.493 171.447 112.493 171.182C112.493 170.542 113.861 169.662 114.494 169.662C114.669 169.662 114.872 169.954 115.12 170.308C115.503 170.858 115.991 171.558 116.642 171.558C117.972 171.558 118.668 170.42 118.668 169.159C118.668 167.513 117.336 167.004 116.205 167.004C114.115 167.004 112.179 169.089 111.543 170.542C109.899 168.081 107.308 166.882 103.643 166.882C97.3848 166.882 94.541 171.619 94.541 175.603C94.541 179.208 96.4368 181.353 99.2793 182.74V182.873C96.8796 183.249 92.9589 184.265 92.9589 187.735C92.9589 187.82 92.9256 187.893 92.8891 187.973C92.8656 188.024 92.8408 188.079 92.8227 188.141C92.5103 189.215 91.8775 190.987 90.6158 190.987C89.2849 190.987 89.2849 189.974 89.2849 188.08V173.035C89.2849 170.505 89.2849 166.836 80.6857 166.836C73.1661 166.836 70.5695 170.632 70.5695 172.908C70.5695 174.674 71.5215 175.943 73.2299 175.943C74.8066 175.943 75.8198 174.869 75.8198 173.285C75.8198 171.889 74.9711 171.287 74.4098 170.889C74.1325 170.693 73.9253 170.546 73.9253 170.378C73.9253 168.541 78.4096 168.104 79.8043 168.104C82.0125 168.104 84.3552 168.992 84.3552 171.958V177.964C74.6844 177.964 68.6791 181.253 68.4862 187.131C68.4862 191.806 71.9004 193.326 75.8822 193.326C79.1076 193.326 82.2665 192.123 84.4204 189.468C84.8604 191.806 86.1899 193.326 88.5258 193.326C90.7359 193.326 92.5799 192.049 93.4217 190.132C94.4881 192.436 97.2182 192.812 99.7176 193.157L99.8497 193.175V193.367C96.7041 194.168 92.6587 195.807 92.4637 200H20V20ZM168.174 192.504V191.048H173.042V151.974H168.174V150.521H170.894C173.236 150.521 175.694 150.391 177.971 149.951V191.048L185.471 191.048V168.93H181.237V167.47H183.326C185.666 167.47 188.126 167.409 190.407 166.837V191.048H194.136V192.504L168.174 192.504ZM187.877 158.507C189.399 158.507 191.098 159.894 191.098 161.544C191.098 163.5 189.709 164.892 187.877 164.892C186.046 164.892 184.842 163.375 184.842 161.544C184.842 159.894 186.297 158.507 187.877 158.507ZM146.346 180.05C146.346 172.405 151.906 166.836 158.543 166.836C165.179 166.836 170.739 172.405 170.739 180.05C170.739 187.698 165.179 193.327 158.543 193.327C151.906 193.327 146.346 187.698 146.346 180.05ZM144.814 161.467C144.814 159.828 143.103 158.435 141.586 158.435C140.005 158.435 138.558 159.828 138.558 161.467C138.558 163.303 139.753 164.82 141.586 164.82C143.421 164.82 144.814 163.425 144.814 161.467ZM25.1637 150.275V151.731H29.9061V191.048H25.1637V192.504H36.5429V191.048H31.802V152.49H31.9283L43.7502 192.504H45.3921L57.654 152.49H57.783V191.048H52.9144V192.504H68.7208V191.048H63.9147V151.731H68.7208V150.275H56.1398L46.8452 181.377H46.7203L37.8073 150.275H25.1637ZM75.6579 48.6771H77.8729V42.0022H73.2147V44.6002H74.7643C74.5877 45.5006 73.7593 45.9433 72.9472 45.9433C70.8083 45.9433 70.3778 43.9551 70.3778 42.8184L70.3776 42.7415C70.3753 41.8317 70.3687 39.2847 72.7068 39.2847C73.5352 39.2847 74.2374 39.9121 74.365 40.7976H77.7316C77.221 37.9443 75.3863 36.263 72.4855 36.263C69.9147 36.263 66.8685 38.1113 66.8685 42.7328C66.8685 46.1809 68.9436 48.9663 72.3076 48.9663C73.5515 48.9663 74.7643 48.5087 75.5438 47.4372L75.6579 48.6771ZM141.581 42.6135C141.581 46.3169 143.896 48.9665 147.355 48.9665C150.819 48.9665 153.129 46.3169 153.129 42.6135C153.129 38.9101 150.819 36.2632 147.355 36.2632C143.896 36.2632 141.581 38.9101 141.581 42.6135ZM131.013 48.677H127.505V36.5522H133.374C136.469 36.5522 137.552 38.9627 137.552 40.6956C137.552 43.6318 135.702 45.0088 133.084 45.0088H131.013V48.677ZM116.598 48.677H113.093V36.5522H118.961C122.053 36.5522 123.137 38.9627 123.137 40.6956C123.137 43.6318 121.287 45.0088 118.674 45.0088H116.598V48.677ZM86.3056 48.6768H82.7963V36.5534H89.478C91.4703 36.5534 93.1963 37.7227 93.1963 40.0151C93.1963 41.2727 92.6518 42.5981 91.4879 43.0571C92.444 43.4456 93.0361 44.5673 93.1638 46.0802C93.172 46.1863 93.1793 46.3195 93.1876 46.47C93.2254 47.1614 93.2833 48.2173 93.5454 48.6768H90.0375C89.861 48.0657 89.7971 47.4383 89.751 46.8081L89.7501 46.7974C89.6539 45.6463 89.5538 44.4478 88.1702 44.4478H86.3056V48.6768ZM104.628 36.5526H108.135V43.988C108.135 47.3519 106.428 48.9667 102.954 48.9667C99.475 48.9667 97.7516 47.3519 97.7516 43.988V36.5526H101.262V43.1596C101.262 44.3982 101.262 45.9436 102.969 45.9436C104.628 45.9436 104.628 44.3982 104.628 43.1596V36.5526Z" fill="#0559A4"/>
<path d="M83.061 188.928C83.5723 188.429 84.3552 187.665 84.3552 185.168V179.289C80.247 179.353 73.2299 180.051 73.2299 185.862C73.2299 188.965 75.1883 190.86 78.0972 190.86C80.1194 190.86 81.4476 190.348 82.9659 189.021C82.9959 188.991 83.0273 188.96 83.0598 188.929L83.061 188.928Z" fill="#0559A4"/>
<path d="M139.718 191.048H137.865C135.901 188.921 134.128 188.558 125.688 188.558H118.92C117.972 188.558 117.278 187.929 117.278 187.234C117.278 184.575 121.391 184.107 126.422 183.535C127.372 183.427 128.355 183.315 129.349 183.184C130.679 183.059 135.734 181.228 135.734 175.287C135.734 172.499 133.899 170.542 133.899 170.542C133.487 169.926 133.017 169.389 132.485 168.93H139.718V191.048Z" fill="#0559A4"/>
<path d="M118.558 199.854C118.558 203.897 122.793 205.231 126.082 205.231C136.832 205.231 137.276 199.226 137.276 198.215C137.276 194.483 136.137 192.652 128.107 192.652C120.647 192.652 118.558 197.706 118.558 199.854Z" fill="#0559A4"/>
<path d="M121.532 175.454C121.532 169.451 123.052 167.934 126.208 167.934C130.003 167.934 130.505 171.725 130.505 174.889C130.505 178.807 130.189 182.091 125.581 182.091C122.097 182.091 121.532 178.3 121.532 175.454Z" fill="#0559A4"/>
<path d="M103.727 205.231C100.436 205.231 96.2005 203.897 96.2005 199.854C96.2005 197.706 98.2865 192.652 105.748 192.652C113.772 192.652 114.915 194.483 114.915 198.215C114.915 199.226 114.471 205.231 103.727 205.231Z" fill="#0559A4"/>
<path d="M103.849 167.934C100.69 167.934 99.1733 169.451 99.1733 175.454C99.1733 178.3 99.741 182.091 103.216 182.091C107.834 182.091 108.15 178.807 108.15 174.889C108.15 171.725 107.645 167.934 103.849 167.934Z" fill="#0559A4"/>
</svg>
