<svg width="180" height="189" viewBox="0 0 180 189" fill="none" xmlns="http://www.w3.org/2000/svg">
<path d="M144.992 160.05C144.992 154.802 144.926 148.105 138.543 148.105C132.157 148.105 132.093 154.802 132.093 160.05C132.093 165.359 132.157 172.061 138.543 172.061C144.926 172.061 144.992 165.359 144.992 160.05Z" fill="#0559A4"/>
<path d="M125.089 22.6135C125.089 19.9123 126.465 19.2849 127.355 19.2849C128.251 19.2849 129.62 19.9123 129.62 22.6135C129.62 25.3133 128.251 25.9435 127.355 25.9435C126.465 25.9435 125.089 25.3133 125.089 22.6135Z" fill="#0559A4"/>
<path d="M112.576 19.6594H111.013V22.1216H112.371C113.278 22.1216 114.238 22.0537 114.238 20.8314C114.238 19.7273 113.432 19.6594 112.576 19.6594Z" fill="#0559A4"/>
<path d="M98.1624 19.6594H96.5979V22.1216H97.9573C98.8645 22.1216 99.822 22.0537 99.822 20.8314C99.822 19.7273 99.0248 19.6594 98.1624 19.6594Z" fill="#0559A4"/>
<path d="M67.9461 19.4393H66.3056V21.8512H68.1403C68.7922 21.8512 69.6858 21.7303 69.6858 20.6439C69.6858 19.8806 69.2865 19.4393 67.9461 19.4393Z" fill="#0559A4"/>
<path fill-rule="evenodd" clip-rule="evenodd" d="M0 0H180V180H119.186C119.57 178.926 119.783 177.708 119.783 176.334C119.783 174.966 119.52 173.668 118.902 172.504H128.378V171.048H124.653V146.837C122.373 147.409 119.908 147.47 117.568 147.47H109.916C108.78 147.077 107.477 146.882 105.999 146.882C99.7425 146.882 96.8987 151.619 96.8987 155.603C96.8987 159.208 98.7946 161.353 101.641 162.74V162.873C99.2387 163.249 96.5633 164.351 94.8399 167.826C94.476 168.558 94.1669 169.191 93.9202 169.739C92.1989 168.759 89.6092 168.558 83.3249 168.558H76.5618C75.6139 168.558 74.9185 167.929 74.9185 167.234C74.9185 164.575 79.0328 164.107 84.0639 163.535L84.0649 163.535C85.015 163.427 85.9977 163.315 86.9917 163.184C88.3212 163.059 93.3773 161.228 93.3773 155.287C93.3773 154.198 93.0425 153.156 92.7849 152.355C92.624 151.854 92.4932 151.447 92.4932 151.182C92.4932 150.542 93.8608 149.662 94.4936 149.662C94.6689 149.662 94.8725 149.954 95.1198 150.308C95.5029 150.858 95.991 151.558 96.6421 151.558C97.9716 151.558 98.6683 150.42 98.6683 149.159C98.6683 147.513 97.336 147.004 96.2048 147.004C94.1147 147.004 92.1795 149.089 91.5425 150.542C89.8993 148.081 87.3081 146.882 83.6427 146.882C77.3848 146.882 74.541 151.619 74.541 155.603C74.541 159.208 76.4368 161.353 79.2793 162.74V162.873C76.8796 163.249 72.9589 164.265 72.9589 167.735C72.9589 167.82 72.9256 167.893 72.8891 167.973C72.8656 168.024 72.8408 168.079 72.8227 168.141C72.5103 169.215 71.8775 170.987 70.6158 170.987C69.2849 170.987 69.2849 169.974 69.2849 168.08V153.035C69.2849 150.505 69.2849 146.836 60.6857 146.836C53.1661 146.836 50.5695 150.632 50.5695 152.908C50.5695 154.674 51.5215 155.943 53.2299 155.943C54.8066 155.943 55.8198 154.869 55.8198 153.285C55.8198 151.889 54.9711 151.287 54.4098 150.889C54.1325 150.693 53.9253 150.546 53.9253 150.378C53.9253 148.541 58.4096 148.104 59.8043 148.104C62.0125 148.104 64.3552 148.992 64.3552 151.958V157.964C54.6844 157.964 48.6791 161.253 48.4862 167.131C48.4862 171.806 51.9004 173.326 55.8822 173.326C59.1076 173.326 62.2665 172.123 64.4204 169.468C64.8604 171.806 66.1899 173.326 68.5258 173.326C70.7359 173.326 72.5799 172.049 73.4217 170.132C74.4881 172.436 77.2182 172.812 79.7176 173.157L79.8497 173.175V173.367C76.7041 174.168 72.6587 175.807 72.4637 180H0V0ZM148.174 172.504V171.048H153.042V131.974H148.174V130.521H150.894C153.236 130.521 155.694 130.391 157.971 129.951V171.048L165.471 171.048V148.93H161.237V147.47H163.326C165.666 147.47 168.126 147.409 170.407 146.837V171.048H174.136V172.504L148.174 172.504ZM167.877 138.507C169.399 138.507 171.098 139.894 171.098 141.544C171.098 143.5 169.709 144.892 167.877 144.892C166.046 144.892 164.842 143.375 164.842 141.544C164.842 139.894 166.297 138.507 167.877 138.507ZM126.346 160.05C126.346 152.405 131.906 146.836 138.543 146.836C145.179 146.836 150.739 152.405 150.739 160.05C150.739 167.698 145.179 173.327 138.543 173.327C131.906 173.327 126.346 167.698 126.346 160.05ZM124.814 141.467C124.814 139.828 123.103 138.435 121.586 138.435C120.005 138.435 118.558 139.828 118.558 141.467C118.558 143.303 119.753 144.82 121.586 144.82C123.421 144.82 124.814 143.425 124.814 141.467ZM5.16375 130.275V131.731H9.9061V171.048H5.16375V172.504H16.5429V171.048H11.802V132.49H11.9283L23.7502 172.504H25.3921L37.654 132.49H37.783V171.048H32.9144V172.504H48.7208V171.048H43.9147V131.731H48.7208V130.275H36.1398L26.8452 161.377H26.7203L17.8073 130.275H5.16375ZM55.6579 28.6771H57.8729V22.0022H53.2147V24.6002H54.7643C54.5877 25.5006 53.7593 25.9433 52.9472 25.9433C50.8083 25.9433 50.3778 23.9551 50.3778 22.8184L50.3776 22.7415C50.3753 21.8317 50.3687 19.2847 52.7068 19.2847C53.5352 19.2847 54.2374 19.9121 54.365 20.7976H57.7316C57.221 17.9443 55.3863 16.263 52.4855 16.263C49.9147 16.263 46.8685 18.1113 46.8685 22.7328C46.8685 26.1809 48.9436 28.9663 52.3076 28.9663C53.5515 28.9663 54.7643 28.5087 55.5438 27.4372L55.6579 28.6771ZM121.581 22.6135C121.581 26.3169 123.896 28.9665 127.355 28.9665C130.819 28.9665 133.129 26.3169 133.129 22.6135C133.129 18.9101 130.819 16.2632 127.355 16.2632C123.896 16.2632 121.581 18.9101 121.581 22.6135ZM111.013 28.677H107.505V16.5522H113.374C116.469 16.5522 117.552 18.9627 117.552 20.6956C117.552 23.6318 115.702 25.0088 113.084 25.0088H111.013V28.677ZM96.5979 28.677H93.0928V16.5522H98.9609C102.053 16.5522 103.137 18.9627 103.137 20.6956C103.137 23.6318 101.287 25.0088 98.6744 25.0088H96.5979V28.677ZM66.3056 28.6768H62.7963V16.5534H69.478C71.4703 16.5534 73.1963 17.7227 73.1963 20.0151C73.1963 21.2727 72.6518 22.5981 71.4879 23.0571C72.444 23.4456 73.0361 24.5673 73.1638 26.0802C73.172 26.1863 73.1793 26.3195 73.1876 26.47C73.2254 27.1614 73.2833 28.2173 73.5454 28.6768H70.0375C69.861 28.0657 69.7971 27.4383 69.751 26.8081L69.7501 26.7974C69.6539 25.6463 69.5538 24.4478 68.1702 24.4478H66.3056V28.6768ZM84.6275 16.5526H88.1354V23.988C88.1354 27.3519 86.4283 28.9667 82.9544 28.9667C79.475 28.9667 77.7516 27.3519 77.7516 23.988V16.5526H81.2622V23.1596C81.2622 24.3982 81.2622 25.9436 82.9693 25.9436C84.6275 25.9436 84.6275 24.3982 84.6275 23.1596V16.5526Z" fill="#0559A4"/>
<path d="M63.061 168.928C63.5723 168.429 64.3552 167.665 64.3552 165.168V159.289C60.247 159.353 53.2299 160.051 53.2299 165.862C53.2299 168.965 55.1883 170.86 58.0972 170.86C60.1194 170.86 61.4476 170.348 62.9659 169.021C62.9959 168.991 63.0273 168.96 63.0598 168.929L63.061 168.928Z" fill="#0559A4"/>
<path d="M119.718 171.048H117.865C115.901 168.921 114.128 168.558 105.688 168.558H98.9195C97.9716 168.558 97.2776 167.929 97.2776 167.234C97.2776 164.575 101.391 164.107 106.422 163.535C107.372 163.427 108.355 163.315 109.349 163.184C110.679 163.059 115.734 161.228 115.734 155.287C115.734 152.499 113.899 150.542 113.899 150.542C113.487 149.926 113.017 149.389 112.485 148.93H119.718V171.048Z" fill="#0559A4"/>
<path d="M98.5583 179.854C98.5583 183.897 102.793 185.231 106.082 185.231C116.832 185.231 117.276 179.226 117.276 178.215C117.276 174.483 116.137 172.652 108.107 172.652C100.647 172.652 98.5583 177.706 98.5583 179.854Z" fill="#0559A4"/>
<path d="M101.532 155.454C101.532 149.451 103.052 147.934 106.208 147.934C110.003 147.934 110.505 151.725 110.505 154.889C110.505 158.807 110.189 162.091 105.581 162.091C102.097 162.091 101.532 158.3 101.532 155.454Z" fill="#0559A4"/>
<path d="M83.7269 185.231C80.4363 185.231 76.2005 183.897 76.2005 179.854C76.2005 177.706 78.2865 172.652 85.7477 172.652C93.7725 172.652 94.9146 174.483 94.9146 178.215C94.9146 179.226 94.4705 185.231 83.7269 185.231Z" fill="#0559A4"/>
<path d="M83.8491 147.934C80.6903 147.934 79.1733 149.451 79.1733 155.454C79.1733 158.3 79.741 162.091 83.2163 162.091C87.8337 162.091 88.1501 158.807 88.1501 154.889C88.1501 151.725 87.6449 147.934 83.8491 147.934Z" fill="#0559A4"/>
</svg>
