<svg width="100" height="100" viewBox="0 0 100 100" fill="none" xmlns="http://www.w3.org/2000/svg">
<rect width="100" height="100" fill="white"/>
<path d="M68.8307 73.3502C68.8307 71.6005 68.8085 69.3683 66.6809 69.3683C64.5523 69.3683 64.5311 71.6005 64.5311 73.3502C64.5311 75.1197 64.5523 77.3537 66.6809 77.3537C68.8085 77.3537 68.8307 75.1197 68.8307 73.3502Z" fill="#0559A4"/>
<path d="M62.1965 27.5378C62.1965 26.6374 62.655 26.4283 62.9515 26.4283C63.2503 26.4283 63.7066 26.6374 63.7066 27.5378C63.7066 28.4378 63.2503 28.6478 62.9515 28.6478C62.655 28.6478 62.1965 28.4378 62.1965 27.5378Z" fill="#0559A4"/>
<path d="M58.0253 26.5531H57.5043V27.3739H57.957C58.2594 27.3739 58.5794 27.3512 58.5794 26.9438C58.5794 26.5758 58.3105 26.5531 58.0253 26.5531Z" fill="#0559A4"/>
<path d="M53.2208 26.5531H52.6993V27.3739H53.1524C53.4548 27.3739 53.774 27.3512 53.774 26.9438C53.774 26.5758 53.5083 26.5531 53.2208 26.5531Z" fill="#0559A4"/>
<path d="M43.1487 26.4798H42.6019V27.2837H43.2134C43.4307 27.2837 43.7286 27.2434 43.7286 26.8813C43.7286 26.6269 43.5955 26.4798 43.1487 26.4798Z" fill="#0559A4"/>
<path fill-rule="evenodd" clip-rule="evenodd" d="M20.5 20H80.5V80.0001H60.2286C60.3567 79.642 60.4278 79.236 60.4278 78.7781C60.4278 78.322 60.3401 77.8892 60.1339 77.5014H63.2928V77.0161H62.0511V68.9457C61.291 69.1362 60.4694 69.1566 59.6894 69.1566H57.1386C56.76 69.0255 56.3258 68.9606 55.833 68.9606C53.7475 68.9606 52.7996 70.5396 52.7996 71.8678C52.7996 73.0692 53.4315 73.7845 54.3804 74.2467V74.291C53.5796 74.4164 52.6878 74.7836 52.1133 75.942C51.992 76.1859 51.889 76.3969 51.8067 76.5798C51.233 76.253 50.3697 76.186 48.275 76.186H46.0206C45.7046 76.186 45.4728 75.9764 45.4728 75.7446C45.4728 74.8582 46.8443 74.7023 48.5213 74.5116L48.5216 74.5116C48.8383 74.4756 49.1659 74.4383 49.4972 74.3947C49.9404 74.3531 51.6258 73.7428 51.6258 71.7623C51.6258 71.3993 51.5142 71.0521 51.4283 70.785C51.3747 70.6181 51.3311 70.4825 51.3311 70.3938C51.3311 70.1806 51.7869 69.8873 51.9979 69.8873C52.0563 69.8873 52.1242 69.9846 52.2066 70.1028C52.3343 70.2859 52.497 70.5192 52.714 70.5192C53.1572 70.5192 53.3894 70.1399 53.3894 69.7198C53.3894 69.1711 52.9453 69.0014 52.5683 69.0014C51.8716 69.0014 51.2265 69.6963 51.0142 70.1806C50.4664 69.3604 49.6027 68.9606 48.3809 68.9606C46.2949 68.9606 45.347 70.5396 45.347 71.8678C45.347 73.0692 45.9789 73.7845 46.9264 74.2467V74.291C46.1265 74.4164 44.8196 74.755 44.8196 75.9117C44.8196 75.9399 44.8085 75.9642 44.7964 75.9909C44.7885 76.0081 44.7803 76.0262 44.7742 76.047C44.6701 76.4051 44.4592 76.9958 44.0386 76.9958C43.595 76.9958 43.595 76.6581 43.595 76.0266V71.0118C43.595 70.1684 43.595 68.9452 40.7286 68.9452C38.222 68.9452 37.3565 70.2105 37.3565 70.9692C37.3565 71.5582 37.6738 71.981 38.2433 71.981C38.7689 71.981 39.1066 71.6229 39.1066 71.0951C39.1066 70.6297 38.8237 70.4291 38.6366 70.2965C38.5442 70.231 38.4751 70.182 38.4751 70.1259C38.4751 69.5138 39.9699 69.3681 40.4348 69.3681C41.1708 69.3681 41.9517 69.6641 41.9517 70.6528V72.6546C38.7281 72.6546 36.7264 73.751 36.6621 75.7102C36.6621 77.2688 37.8001 77.7754 39.1274 77.7754C40.2025 77.7754 41.2555 77.3743 41.9735 76.4893C42.1201 77.2688 42.5633 77.7754 43.3419 77.7754C44.0786 77.7754 44.6933 77.3497 44.9739 76.7106C45.3294 77.4787 46.2394 77.6042 47.0725 77.719L47.1166 77.7251V77.7889C46.068 78.0562 44.7196 78.6022 44.6546 80.0001H20.5V20ZM69.8912 77.5014V77.0161H71.5141V63.9915H69.8912V63.5071H70.7979C71.5788 63.5071 72.3982 63.4636 73.1569 63.317V77.0161L75.6572 77.0161V69.6432H74.2457V69.1566H74.9419C75.7219 69.1566 76.5422 69.1362 77.3022 68.9457V77.0161H78.5453V77.5014L69.8912 77.5014ZM76.4589 66.169C76.9664 66.169 77.5328 66.6312 77.5328 67.1813C77.5328 67.8332 77.0696 68.2973 76.4589 68.2973C75.8486 68.2973 75.4474 67.7916 75.4474 67.1813C75.4474 66.6312 75.9323 66.169 76.4589 66.169ZM62.6153 73.3502C62.6153 70.8015 64.4686 68.9455 66.6809 68.9455C68.8932 68.9455 70.7465 70.8015 70.7465 73.3502C70.7465 75.8992 68.8932 77.7756 66.6809 77.7756C64.4686 77.7756 62.6153 75.8992 62.6153 73.3502ZM62.1047 67.1557C62.1047 66.6092 61.5343 66.1451 61.0286 66.1451C60.5016 66.1451 60.0194 66.6092 60.0194 67.1557C60.0194 67.7678 60.4178 68.2735 61.0286 68.2735C61.6402 68.2735 62.1047 67.8085 62.1047 67.1557ZM22.2212 63.425V63.9102H23.802V77.016H22.2212V77.5013H26.0143V77.016H24.434V64.1633H24.4761L28.4167 77.5013H28.964L33.0513 64.1633H33.0943V77.016H31.4715V77.5013H36.7403V77.016H35.1382V63.9102H36.7403V63.425H32.5466L29.4484 73.7924H29.4068L26.4358 63.425H22.2212ZM39.0526 29.559H39.791V27.3341H38.2382V28.2001H38.7548C38.6959 28.5002 38.4198 28.6478 38.1491 28.6478C37.4361 28.6478 37.2926 27.985 37.2926 27.6061L37.2925 27.5805C37.2918 27.2772 37.2896 26.4282 38.0689 26.4282C38.3451 26.4282 38.5791 26.6374 38.6217 26.9325H39.7439C39.5737 25.9814 38.9621 25.421 37.9952 25.421C37.1382 25.421 36.1228 26.0371 36.1228 27.5776C36.1228 28.727 36.8145 29.6554 37.9358 29.6554C38.3505 29.6554 38.7548 29.5029 39.0146 29.1457L39.0526 29.559ZM61.0272 27.5378C61.0272 28.7723 61.7985 29.6555 62.9515 29.6555C64.1063 29.6555 64.8764 28.7723 64.8764 27.5378C64.8764 26.3034 64.1063 25.4211 62.9515 25.4211C61.7985 25.4211 61.0272 26.3034 61.0272 27.5378ZM57.5043 29.559H56.335V25.5174H58.2915C59.3232 25.5174 59.684 26.3209 59.684 26.8985C59.684 27.8773 59.0674 28.3363 58.1946 28.3363H57.5043V29.559ZM52.6993 29.559H51.5309V25.5174H53.487C54.5177 25.5174 54.879 26.3209 54.879 26.8985C54.879 27.8773 54.2624 28.3363 53.3915 28.3363H52.6993V29.559ZM42.6019 29.5589H41.4321V25.5178H43.6593C44.3234 25.5178 44.8988 25.9076 44.8988 26.6717C44.8988 27.0909 44.7173 27.5327 44.3293 27.6857C44.648 27.8152 44.8454 28.1891 44.8879 28.6934C44.8907 28.7288 44.8931 28.7732 44.8958 28.8233C44.9085 29.0538 44.9278 29.4058 45.0151 29.5589H43.8458C43.787 29.3552 43.7657 29.1461 43.7503 28.936L43.75 28.9325C43.718 28.5488 43.6846 28.1493 43.2234 28.1493H42.6019V29.5589ZM48.7092 25.5175H49.8785V27.996C49.8785 29.1173 49.3094 29.6556 48.1515 29.6556C46.9917 29.6556 46.4172 29.1173 46.4172 27.996V25.5175H47.5874V27.7199C47.5874 28.1327 47.5874 28.6479 48.1564 28.6479C48.7092 28.6479 48.7092 28.1327 48.7092 27.7199V25.5175Z" fill="#0559A4"/>
<path d="M41.5203 76.3092C41.6908 76.1429 41.9517 75.8884 41.9517 75.0561V73.0964C40.5823 73.1177 38.2433 73.3503 38.2433 75.2874C38.2433 76.3218 38.8961 76.9533 39.8657 76.9533C40.5398 76.9533 40.9825 76.7826 41.4886 76.3403C41.4986 76.3304 41.5091 76.3202 41.5199 76.3096L41.5203 76.3092Z" fill="#0559A4"/>
<path d="M60.406 77.0161H59.7883C59.1337 76.3069 58.5426 76.186 55.7294 76.186H53.4732C53.1572 76.186 52.9259 75.9764 52.9259 75.7446C52.9259 74.8582 54.2969 74.7023 55.9739 74.5116C56.2907 74.4756 56.6184 74.4384 56.9498 74.3947C57.393 74.3531 59.0779 73.7428 59.0779 71.7623C59.0779 70.833 58.4663 70.1806 58.4663 70.1806C58.3292 69.9752 58.1723 69.7962 57.995 69.6432H60.406V77.0161Z" fill="#0559A4"/>
<path d="M53.3528 79.9514C53.3528 81.2991 54.7642 81.7436 55.8606 81.7436C59.4441 81.7436 59.5921 79.7418 59.5921 79.405C59.5921 78.1611 59.2123 77.5508 56.5356 77.5508C54.049 77.5508 53.3528 79.2353 53.3528 79.9514Z" fill="#0559A4"/>
<path d="M54.3441 71.818C54.3441 69.8171 54.8507 69.3115 55.9027 69.3115C57.1676 69.3115 57.335 70.5749 57.335 71.6297C57.335 72.9357 57.2296 74.0303 55.6936 74.0303C54.5325 74.0303 54.3441 72.7668 54.3441 71.818Z" fill="#0559A4"/>
<path d="M48.409 81.7436C47.3121 81.7436 45.9002 81.2991 45.9002 79.9514C45.9002 79.2353 46.5955 77.5508 49.0826 77.5508C51.7575 77.5508 52.1382 78.1611 52.1382 79.405C52.1382 79.7418 51.9902 81.7436 48.409 81.7436Z" fill="#0559A4"/>
<path d="M48.4497 69.3115C47.3968 69.3115 46.8911 69.8171 46.8911 71.818C46.8911 72.7668 47.0803 74.0303 48.2388 74.0303C49.7779 74.0303 49.8834 72.9357 49.8834 71.6297C49.8834 70.5749 49.715 69.3115 48.4497 69.3115Z" fill="#0559A4"/>
</svg>
