<svg width="180" height="190" viewBox="0 0 180 190" fill="none" xmlns="http://www.w3.org/2000/svg">
<path d="M144.992 160.795C144.992 155.546 144.926 148.849 138.543 148.849C132.157 148.849 132.093 155.546 132.093 160.795C132.093 166.103 132.157 172.805 138.543 172.805C144.926 172.805 144.992 166.103 144.992 160.795Z" fill="white"/>
<path d="M125.089 23.3576C125.089 20.6564 126.465 20.029 127.355 20.029C128.251 20.029 129.62 20.6564 129.62 23.3576C129.62 26.0575 128.251 26.6876 127.355 26.6876C126.465 26.6876 125.089 26.0575 125.089 23.3576Z" fill="white"/>
<path d="M112.576 20.4036H111.013V22.8657H112.371C113.278 22.8657 114.238 22.7978 114.238 21.5756C114.238 20.4715 113.432 20.4036 112.576 20.4036Z" fill="white"/>
<path d="M98.1624 20.4036H96.5979V22.8657H97.9573C98.8645 22.8657 99.822 22.7978 99.822 21.5756C99.822 20.4715 99.0248 20.4036 98.1624 20.4036Z" fill="white"/>
<path d="M67.9461 20.1834H66.3056V22.5953H68.1403C68.7922 22.5953 69.6858 22.4745 69.6858 21.388C69.6858 20.6248 69.2865 20.1834 67.9461 20.1834Z" fill="white"/>
<path fill-rule="evenodd" clip-rule="evenodd" d="M0 0.744141H180V180.744H119.186C119.57 179.67 119.783 178.452 119.783 177.078C119.783 175.71 119.52 174.412 118.902 173.248H128.378V171.793H124.653V147.581C122.373 148.153 119.908 148.214 117.568 148.214H109.916C108.78 147.821 107.477 147.626 105.999 147.626C99.7425 147.626 96.8987 152.363 96.8987 156.348C96.8987 159.952 98.7946 162.098 101.641 163.484V163.617C99.2387 163.993 96.5633 165.095 94.8399 168.57C94.476 169.302 94.1669 169.935 93.9202 170.483C92.1989 169.503 89.6092 169.302 83.3249 169.302H76.5618C75.6139 169.302 74.9185 168.673 74.9185 167.978C74.9185 165.319 79.0328 164.851 84.0639 164.279L84.0649 164.279C85.015 164.171 85.9977 164.059 86.9917 163.928C88.3212 163.803 93.3773 161.973 93.3773 156.031C93.3773 154.942 93.0425 153.901 92.7849 153.099C92.624 152.598 92.4932 152.192 92.4932 151.926C92.4932 151.286 93.8608 150.406 94.4936 150.406C94.6689 150.406 94.8725 150.698 95.1198 151.053C95.5029 151.602 95.991 152.302 96.6421 152.302C97.9716 152.302 98.6683 151.164 98.6683 149.904C98.6683 148.258 97.336 147.748 96.2048 147.748C94.1147 147.748 92.1795 149.833 91.5425 151.286C89.8993 148.825 87.3081 147.626 83.6427 147.626C77.3848 147.626 74.541 152.363 74.541 156.348C74.541 159.952 76.4368 162.098 79.2793 163.484V163.617C76.8796 163.993 72.9589 165.009 72.9589 168.479C72.9589 168.564 72.9256 168.637 72.8891 168.717C72.8656 168.768 72.8408 168.823 72.8227 168.885C72.5103 169.959 71.8775 171.732 70.6158 171.732C69.2849 171.732 69.2849 170.719 69.2849 168.824V153.779C69.2849 151.249 69.2849 147.58 60.6857 147.58C53.1661 147.58 50.5695 151.376 50.5695 153.652C50.5695 155.419 51.5215 156.687 53.2299 156.687C54.8066 156.687 55.8198 155.613 55.8198 154.029C55.8198 152.633 54.9711 152.032 54.4098 151.634C54.1325 151.437 53.9253 151.29 53.9253 151.122C53.9253 149.286 58.4096 148.848 59.8043 148.848C62.0125 148.848 64.3552 149.736 64.3552 152.702V158.708C54.6844 158.708 48.6791 161.997 48.4862 167.875C48.4862 172.551 51.9004 174.07 55.8822 174.07C59.1076 174.07 62.2665 172.867 64.4204 170.212C64.8604 172.551 66.1899 174.07 68.5258 174.07C70.7359 174.07 72.5799 172.793 73.4217 170.876C74.4881 173.18 77.2182 173.557 79.7176 173.901L79.8497 173.919V174.111C76.7041 174.913 72.6587 176.551 72.4637 180.744H0V0.744141ZM148.174 173.248V171.793H153.042V132.719H148.174V131.265H150.894C153.236 131.265 155.694 131.135 157.971 130.695V171.793L165.471 171.793V149.674H161.237V148.214H163.326C165.666 148.214 168.126 148.153 170.407 147.581V171.793H174.136V173.248L148.174 173.248ZM167.877 139.251C169.399 139.251 171.098 140.638 171.098 142.288C171.098 144.244 169.709 145.636 167.877 145.636C166.046 145.636 164.842 144.119 164.842 142.288C164.842 140.638 166.297 139.251 167.877 139.251ZM126.346 160.795C126.346 153.149 131.906 147.581 138.543 147.581C145.179 147.581 150.739 153.149 150.739 160.795C150.739 168.442 145.179 174.071 138.543 174.071C131.906 174.071 126.346 168.442 126.346 160.795ZM124.814 142.211C124.814 140.572 123.103 139.18 121.586 139.18C120.005 139.18 118.558 140.572 118.558 142.211C118.558 144.047 119.753 145.565 121.586 145.565C123.421 145.565 124.814 144.17 124.814 142.211ZM5.16375 131.019V132.475H9.9061V171.792H5.16375V173.248H16.5429V171.792H11.802V133.234H11.9283L23.7502 173.248H25.3921L37.654 133.234H37.783V171.792H32.9144V173.248H48.7208V171.792H43.9147V132.475H48.7208V131.019H36.1398L26.8452 162.121H26.7203L17.8073 131.019H5.16375ZM55.6579 29.4212H57.8729V22.7463H53.2147V25.3443H54.7643C54.5877 26.2447 53.7593 26.6874 52.9472 26.6874C50.8083 26.6874 50.3778 24.6992 50.3778 23.5625L50.3776 23.4856C50.3753 22.5758 50.3687 20.0288 52.7068 20.0288C53.5352 20.0288 54.2374 20.6563 54.365 21.5417H57.7316C57.221 18.6884 55.3863 17.0071 52.4855 17.0071C49.9147 17.0071 46.8685 18.8555 46.8685 23.477C46.8685 26.9251 48.9436 29.7105 52.3076 29.7105C53.5515 29.7105 54.7643 29.2528 55.5438 28.1813L55.6579 29.4212ZM121.581 23.3576C121.581 27.0611 123.896 29.7106 127.355 29.7106C130.819 29.7106 133.129 27.0611 133.129 23.3576C133.129 19.6542 130.819 17.0073 127.355 17.0073C123.896 17.0073 121.581 19.6542 121.581 23.3576ZM111.013 29.4211H107.505V17.2963H113.374C116.469 17.2963 117.552 19.7069 117.552 21.4398C117.552 24.3759 115.702 25.753 113.084 25.753H111.013V29.4211ZM96.5979 29.4211H93.0928V17.2963H98.9609C102.053 17.2963 103.137 19.7069 103.137 21.4398C103.137 24.3759 101.287 25.753 98.6744 25.753H96.5979V29.4211ZM66.3056 29.4209H62.7963V17.2975H69.478C71.4703 17.2975 73.1963 18.4668 73.1963 20.7592C73.1963 22.0168 72.6518 23.3423 71.4879 23.8013C72.444 24.1897 73.0361 25.3115 73.1638 26.8243C73.172 26.9304 73.1793 27.0636 73.1876 27.2141C73.2254 27.9056 73.2833 28.9614 73.5454 29.4209H70.0375C69.861 28.8098 69.7971 28.1824 69.751 27.5523L69.7501 27.5416C69.6539 26.3905 69.5538 25.1919 68.1702 25.1919H66.3056V29.4209ZM84.6275 17.2968H88.1354V24.7322C88.1354 28.0961 86.4283 29.7108 82.9544 29.7108C79.475 29.7108 77.7516 28.0961 77.7516 24.7322V17.2968H81.2622V23.9037C81.2622 25.1423 81.2622 26.6878 82.9693 26.6878C84.6275 26.6878 84.6275 25.1423 84.6275 23.9037V17.2968Z" fill="white"/>
<path d="M63.061 169.672C63.5723 169.173 64.3552 168.409 64.3552 165.912V160.033C60.247 160.097 53.2299 160.795 53.2299 166.606C53.2299 169.709 55.1883 171.604 58.0972 171.604C60.1194 171.604 61.4476 171.092 62.9659 169.765C62.9959 169.735 63.0273 169.705 63.0598 169.673L63.061 169.672Z" fill="white"/>
<path d="M119.718 171.793H117.865C115.901 169.665 114.128 169.302 105.688 169.302H98.9195C97.9716 169.302 97.2776 168.673 97.2776 167.978C97.2776 165.319 101.391 164.851 106.422 164.279C107.372 164.171 108.355 164.059 109.349 163.928C110.679 163.803 115.734 161.973 115.734 156.031C115.734 153.243 113.899 151.286 113.899 151.286C113.487 150.67 113.017 150.133 112.485 149.674H119.718V171.793Z" fill="white"/>
<path d="M98.5583 180.598C98.5583 184.641 102.793 185.975 106.082 185.975C116.832 185.975 117.276 179.97 117.276 178.959C117.276 175.227 116.137 173.397 108.107 173.397C100.647 173.397 98.5583 178.45 98.5583 180.598Z" fill="white"/>
<path d="M101.532 156.198C101.532 150.195 103.052 148.679 106.208 148.679C110.003 148.679 110.505 152.469 110.505 155.633C110.505 159.551 110.189 162.835 105.581 162.835C102.097 162.835 101.532 159.045 101.532 156.198Z" fill="white"/>
<path d="M83.7269 185.975C80.4363 185.975 76.2005 184.641 76.2005 180.598C76.2005 178.45 78.2865 173.397 85.7477 173.397C93.7725 173.397 94.9146 175.227 94.9146 178.959C94.9146 179.97 94.4705 185.975 83.7269 185.975Z" fill="white"/>
<path d="M83.8491 148.679C80.6903 148.679 79.1733 150.195 79.1733 156.198C79.1733 159.045 79.741 162.835 83.2163 162.835C87.8337 162.835 88.1501 159.551 88.1501 155.633C88.1501 152.469 87.6449 148.679 83.8491 148.679Z" fill="white"/>
</svg>
