<svg width="180" height="189" viewBox="0 0 180 189" fill="none" xmlns="http://www.w3.org/2000/svg">
<path d="M144.992 160.423C144.992 155.174 144.926 148.477 138.543 148.477C132.157 148.477 132.093 155.174 132.093 160.423C132.093 165.731 132.157 172.433 138.543 172.433C144.926 172.433 144.992 165.731 144.992 160.423Z" fill="black"/>
<path d="M125.089 22.9856C125.089 20.2844 126.465 19.6569 127.355 19.6569C128.251 19.6569 129.62 20.2844 129.62 22.9856C129.62 25.6854 128.251 26.3155 127.355 26.3155C126.465 26.3155 125.089 25.6854 125.089 22.9856Z" fill="black"/>
<path d="M112.576 20.0315H111.013V22.4937H112.371C113.278 22.4937 114.238 22.4258 114.238 21.2035C114.238 20.0994 113.432 20.0315 112.576 20.0315Z" fill="black"/>
<path d="M98.1624 20.0315H96.5979V22.4937H97.9573C98.8645 22.4937 99.822 22.4258 99.822 21.2035C99.822 20.0994 99.0248 20.0315 98.1624 20.0315Z" fill="black"/>
<path d="M67.9461 19.8113H66.3056V22.2233H68.1403C68.7922 22.2233 69.6858 22.1024 69.6858 21.0159C69.6858 20.2527 69.2865 19.8113 67.9461 19.8113Z" fill="black"/>
<path fill-rule="evenodd" clip-rule="evenodd" d="M0 0.37207H180V180.372H119.186C119.57 179.298 119.783 178.08 119.783 176.706C119.783 175.338 119.52 174.04 118.902 172.876H128.378V171.42H124.653V147.209C122.373 147.781 119.908 147.842 117.568 147.842H109.916C108.78 147.449 107.477 147.254 105.999 147.254C99.7425 147.254 96.8987 151.991 96.8987 155.975C96.8987 159.58 98.7946 161.725 101.641 163.112V163.245C99.2387 163.621 96.5633 164.723 94.8399 168.198C94.476 168.93 94.1669 169.563 93.9202 170.111C92.1989 169.131 89.6092 168.93 83.3249 168.93H76.5618C75.6139 168.93 74.9185 168.301 74.9185 167.606C74.9185 164.947 79.0328 164.479 84.0639 163.907L84.0649 163.907C85.015 163.799 85.9977 163.687 86.9917 163.556C88.3212 163.431 93.3773 161.601 93.3773 155.659C93.3773 154.57 93.0425 153.528 92.7849 152.727C92.624 152.226 92.4932 151.819 92.4932 151.554C92.4932 150.914 93.8608 150.034 94.4936 150.034C94.6689 150.034 94.8725 150.326 95.1198 150.681C95.5029 151.23 95.991 151.93 96.6421 151.93C97.9716 151.93 98.6683 150.792 98.6683 149.531C98.6683 147.885 97.336 147.376 96.2048 147.376C94.1147 147.376 92.1795 149.461 91.5425 150.914C89.8993 148.453 87.3081 147.254 83.6427 147.254C77.3848 147.254 74.541 151.991 74.541 155.975C74.541 159.58 76.4368 161.725 79.2793 163.112V163.245C76.8796 163.621 72.9589 164.637 72.9589 168.107C72.9589 168.192 72.9256 168.265 72.8891 168.345C72.8656 168.396 72.8408 168.451 72.8227 168.513C72.5103 169.587 71.8775 171.36 70.6158 171.36C69.2849 171.36 69.2849 170.346 69.2849 168.452V153.407C69.2849 150.877 69.2849 147.208 60.6857 147.208C53.1661 147.208 50.5695 151.004 50.5695 153.28C50.5695 155.047 51.5215 156.315 53.2299 156.315C54.8066 156.315 55.8198 155.241 55.8198 153.657C55.8198 152.261 54.9711 151.659 54.4098 151.262C54.1325 151.065 53.9253 150.918 53.9253 150.75C53.9253 148.914 58.4096 148.476 59.8043 148.476C62.0125 148.476 64.3552 149.364 64.3552 152.33V158.336C54.6844 158.336 48.6791 161.625 48.4862 167.503C48.4862 172.178 51.9004 173.698 55.8822 173.698C59.1076 173.698 62.2665 172.495 64.4204 169.84C64.8604 172.178 66.1899 173.698 68.5258 173.698C70.7359 173.698 72.5799 172.421 73.4217 170.504C74.4881 172.808 77.2182 173.185 79.7176 173.529L79.8497 173.547V173.739C76.7041 174.541 72.6587 176.179 72.4637 180.372H0V0.37207ZM148.174 172.876V171.421H153.042V132.346H148.174V130.893H150.894C153.236 130.893 155.694 130.763 157.971 130.323V171.421L165.471 171.42V149.302H161.237V147.842H163.326C165.666 147.842 168.126 147.781 170.407 147.209V171.42H174.136V172.876L148.174 172.876ZM167.877 138.879C169.399 138.879 171.098 140.266 171.098 141.916C171.098 143.872 169.709 145.264 167.877 145.264C166.046 145.264 164.842 143.747 164.842 141.916C164.842 140.266 166.297 138.879 167.877 138.879ZM126.346 160.423C126.346 152.777 131.906 147.209 138.543 147.209C145.179 147.209 150.739 152.777 150.739 160.423C150.739 168.07 145.179 173.699 138.543 173.699C131.906 173.699 126.346 168.07 126.346 160.423ZM124.814 141.839C124.814 140.2 123.103 138.807 121.586 138.807C120.005 138.807 118.558 140.2 118.558 141.839C118.558 143.675 119.753 145.192 121.586 145.192C123.421 145.192 124.814 143.798 124.814 141.839ZM5.16375 130.647V132.103H9.9061V171.42H5.16375V172.876H16.5429V171.42H11.802V132.862H11.9283L23.7502 172.876H25.3921L37.654 132.862H37.783V171.42H32.9144V172.876H48.7208V171.42H43.9147V132.103H48.7208V130.647H36.1398L26.8452 161.749H26.7203L17.8073 130.647H5.16375ZM55.6579 29.0491H57.8729V22.3743H53.2147V24.9722H54.7643C54.5877 25.8726 53.7593 26.3154 52.9472 26.3154C50.8083 26.3154 50.3778 24.3271 50.3778 23.1904L50.3776 23.1135C50.3753 22.2038 50.3687 19.6568 52.7068 19.6568C53.5352 19.6568 54.2374 20.2842 54.365 21.1697H57.7316C57.221 18.3164 55.3863 16.6351 52.4855 16.6351C49.9147 16.6351 46.8685 18.4834 46.8685 23.1049C46.8685 26.553 48.9436 29.3384 52.3076 29.3384C53.5515 29.3384 54.7643 28.8807 55.5438 27.8092L55.6579 29.0491ZM121.581 22.9856C121.581 26.689 123.896 29.3386 127.355 29.3386C130.819 29.3386 133.129 26.689 133.129 22.9856C133.129 19.2821 130.819 16.6353 127.355 16.6353C123.896 16.6353 121.581 19.2821 121.581 22.9856ZM111.013 29.049H107.505V16.9243H113.374C116.469 16.9243 117.552 19.3348 117.552 21.0677C117.552 24.0038 115.702 25.3809 113.084 25.3809H111.013V29.049ZM96.5979 29.049H93.0928V16.9243H98.9609C102.053 16.9243 103.137 19.3348 103.137 21.0677C103.137 24.0038 101.287 25.3809 98.6744 25.3809H96.5979V29.049ZM66.3056 29.0489H62.7963V16.9255H69.478C71.4703 16.9255 73.1963 18.0947 73.1963 20.3872C73.1963 21.6447 72.6518 22.9702 71.4879 23.4292C72.444 23.8176 73.0361 24.9394 73.1638 26.4523C73.172 26.5583 73.1793 26.6916 73.1876 26.842C73.2254 27.5335 73.2833 28.5894 73.5454 29.0489H70.0375C69.861 28.4377 69.7971 27.8103 69.751 27.1802L69.7501 27.1695C69.6539 26.0184 69.5538 24.8199 68.1702 24.8199H66.3056V29.0489ZM84.6275 16.9247H88.1354V24.3601C88.1354 27.724 86.4283 29.3387 82.9544 29.3387C79.475 29.3387 77.7516 27.724 77.7516 24.3601V16.9247H81.2622V23.5317C81.2622 24.7702 81.2622 26.3157 82.9693 26.3157C84.6275 26.3157 84.6275 24.7702 84.6275 23.5317V16.9247Z" fill="black"/>
<path d="M63.061 169.3C63.5723 168.801 64.3552 168.037 64.3552 165.54V159.661C60.247 159.725 53.2299 160.423 53.2299 166.234C53.2299 169.337 55.1883 171.232 58.0972 171.232C60.1194 171.232 61.4476 170.72 62.9659 169.393C62.9959 169.363 63.0273 169.333 63.0598 169.301L63.061 169.3Z" fill="black"/>
<path d="M119.718 171.42H117.865C115.901 169.293 114.128 168.93 105.688 168.93H98.9195C97.9716 168.93 97.2776 168.301 97.2776 167.606C97.2776 164.947 101.391 164.479 106.422 163.907C107.372 163.799 108.355 163.687 109.349 163.556C110.679 163.431 115.734 161.601 115.734 155.659C115.734 152.871 113.899 150.914 113.899 150.914C113.487 150.298 113.017 149.761 112.485 149.302H119.718V171.42Z" fill="black"/>
<path d="M98.5583 180.226C98.5583 184.269 102.793 185.603 106.082 185.603C116.832 185.603 117.276 179.598 117.276 178.587C117.276 174.855 116.137 173.025 108.107 173.025C100.647 173.025 98.5583 178.078 98.5583 180.226Z" fill="black"/>
<path d="M101.532 155.826C101.532 149.823 103.052 148.306 106.208 148.306C110.003 148.306 110.505 152.097 110.505 155.261C110.505 159.179 110.189 162.463 105.581 162.463C102.097 162.463 101.532 158.673 101.532 155.826Z" fill="black"/>
<path d="M83.7269 185.603C80.4363 185.603 76.2005 184.269 76.2005 180.226C76.2005 178.078 78.2865 173.025 85.7477 173.025C93.7725 173.025 94.9146 174.855 94.9146 178.587C94.9146 179.598 94.4705 185.603 83.7269 185.603Z" fill="black"/>
<path d="M83.8491 148.306C80.6903 148.306 79.1733 149.823 79.1733 155.826C79.1733 158.673 79.741 162.463 83.2163 162.463C87.8337 162.463 88.1501 159.179 88.1501 155.261C88.1501 152.097 87.6449 148.306 83.8491 148.306Z" fill="black"/>
</svg>
