<svg width="301" height="189" viewBox="0 0 301 189" fill="none" xmlns="http://www.w3.org/2000/svg">
<path fill-rule="evenodd" clip-rule="evenodd" d="M71.2344 187.048V147.117L104.793 127.171V167.101L71.2344 187.048Z" fill="white"/>
<path fill-rule="evenodd" clip-rule="evenodd" d="M71.2344 145.372V105.442L104.793 85.4954V125.426L71.2344 145.372Z" fill="white"/>
<path fill-rule="evenodd" clip-rule="evenodd" d="M1.14941 187.048V147.117L34.7077 127.171V167.101L1.14941 187.048Z" fill="white"/>
<path fill-rule="evenodd" clip-rule="evenodd" d="M71.2344 103.697V63.766L104.793 43.8198V83.7504L71.2344 103.697Z" fill="white"/>
<path fill-rule="evenodd" clip-rule="evenodd" d="M71.2344 62.021V22.0905L104.793 2.14432V42.0749L71.2344 62.021Z" fill="white"/>
<path fill-rule="evenodd" clip-rule="evenodd" d="M36.2075 167.102V127.171L69.734 147.117V187.047L36.2075 167.102Z" fill="white"/>
<path fill-rule="evenodd" clip-rule="evenodd" d="M1.5 103.513V63.5827L35.0583 43.6365V83.5671L1.5 103.513Z" fill="white"/>
<path fill-rule="evenodd" clip-rule="evenodd" d="M36.2075 83.7506V43.8204L69.734 63.7658V103.696L36.2075 83.7506Z" fill="white"/>
<path d="M294.387 180.667C294.609 179.076 295.373 177.358 297.186 177.358C298.141 177.358 298.363 177.995 298.363 178.408C298.363 179.903 296.868 180.413 294.387 180.667ZM299.954 178.376C299.954 177.231 299.031 176.15 297.186 176.15C293.878 176.15 292.701 179.363 292.701 181.749C292.701 183.944 293.878 185.28 296.041 185.28C297.186 185.28 298.236 184.898 299.159 184.23L298.522 183.212C297.727 183.785 296.995 184.039 296.2 184.039C295.087 184.039 294.355 183.467 294.323 181.876C297.345 181.494 299.954 180.826 299.954 178.376ZM289.551 176.15C286.306 176.15 285.129 179.426 285.129 181.717C285.129 183.944 286.306 185.28 288.406 185.28C289.36 185.28 290.283 184.994 291.142 184.357L290.537 183.308C289.837 183.753 289.265 183.976 288.501 183.976C287.388 183.976 286.72 183.339 286.72 181.812C286.72 179.999 287.356 177.39 289.583 177.39C290.251 177.39 290.76 177.581 291.301 178.027L292.128 177.072C291.396 176.436 290.537 176.15 289.551 176.15ZM278.957 184.071C277.78 184.071 277.144 183.371 277.144 181.844C277.144 180.158 277.748 177.39 280.039 177.39C281.184 177.39 281.82 178.09 281.82 179.617C281.82 181.271 281.216 184.071 278.957 184.071ZM278.894 185.28C282.329 185.28 283.411 181.876 283.411 179.776C283.411 177.549 282.266 176.15 280.071 176.15C276.667 176.15 275.553 179.522 275.553 181.653C275.553 183.88 276.73 185.28 278.894 185.28ZM274.122 172.65L272.595 172.841L271.131 183.117C270.94 184.548 271.545 185.28 272.69 185.28C273.072 185.28 273.454 185.185 273.899 184.994L273.581 183.912C273.39 183.976 273.167 184.039 272.976 184.039C272.626 184.039 272.531 183.848 272.563 183.403L274.122 172.65ZM263.973 180.667C264.196 179.076 264.959 177.358 266.773 177.358C267.727 177.358 267.95 177.995 267.95 178.408C267.982 179.903 266.486 180.413 263.973 180.667ZM269.572 178.376C269.572 177.231 268.65 176.15 266.805 176.15C263.496 176.15 262.319 179.363 262.319 181.749C262.319 183.944 263.496 185.28 265.659 185.28C266.805 185.28 267.854 184.898 268.777 184.23L268.141 183.212C267.345 183.785 266.614 184.039 265.818 184.039C264.705 184.039 263.973 183.467 263.941 181.876C266.932 181.494 269.572 180.826 269.572 178.376ZM261.969 176.34H260.315L257.07 183.689L255.861 176.34H254.206L255.956 185.057H257.77L261.969 176.34ZM243.199 180.667C243.422 179.076 244.185 177.358 245.999 177.358C246.953 177.358 247.207 177.995 247.207 178.408C247.176 179.903 245.68 180.413 243.199 180.667ZM248.766 178.376C248.766 177.231 247.844 176.15 245.999 176.15C242.69 176.15 241.513 179.363 241.513 181.749C241.513 183.944 242.69 185.28 244.853 185.28C245.999 185.28 247.048 184.898 247.971 184.23L247.335 183.212C246.539 183.785 245.808 184.039 245.012 184.039C243.899 184.039 243.167 183.467 243.135 181.876C246.158 181.494 248.766 180.826 248.766 178.376ZM230.378 180.667C230.601 179.076 231.364 177.358 233.178 177.358C234.132 177.358 234.355 177.995 234.355 178.408C234.387 179.903 232.891 180.413 230.378 180.667ZM235.977 178.376C235.977 177.231 235.055 176.15 233.21 176.15C229.901 176.15 228.724 179.363 228.724 181.749C228.724 183.944 229.901 185.28 232.064 185.28C233.21 185.28 234.259 184.898 235.182 184.23L234.546 183.212C233.75 183.785 233.019 184.039 232.223 184.039C231.11 184.039 230.378 183.467 230.346 181.876C233.337 181.494 235.977 180.826 235.977 178.376ZM225.574 176.15C222.329 176.15 221.152 179.426 221.152 181.717C221.152 183.944 222.361 185.28 224.429 185.28C225.384 185.28 226.306 184.994 227.165 184.357L226.561 183.308C225.861 183.753 225.288 183.976 224.525 183.976C223.411 183.976 222.743 183.339 222.743 181.812C222.743 179.999 223.379 177.39 225.606 177.39C226.274 177.39 226.783 177.581 227.324 178.027L228.151 177.072C227.388 176.436 226.529 176.15 225.574 176.15ZM219.339 176.34H217.844L216.603 185.057H218.098L219.339 176.34ZM218.925 174.241C219.562 174.241 220.071 173.764 220.071 173.127C220.071 172.586 219.689 172.173 219.084 172.173C218.448 172.173 217.939 172.65 217.939 173.286C217.939 173.827 218.321 174.241 218.925 174.241ZM215.012 172.65L213.485 172.841L212.022 183.117C211.831 184.548 212.435 185.28 213.581 185.28C213.963 185.28 214.344 185.185 214.79 184.994L214.472 183.912C214.281 183.976 214.058 184.039 213.867 184.039C213.517 184.039 213.422 183.848 213.454 183.403L215.012 172.65ZM205.468 184.071C204.864 184.071 204.482 184.007 203.941 183.817L204.641 178.631C205.277 177.963 205.977 177.358 206.932 177.358C207.823 177.358 208.459 177.899 208.459 179.458C208.459 181.431 207.663 184.071 205.468 184.071ZM201.746 188.652L203.241 188.461L203.75 184.994C204.291 185.185 204.8 185.28 205.405 185.28C208.809 185.28 210.049 182.035 210.049 179.585C210.049 177.39 209 176.15 207.377 176.15C206.486 176.15 205.627 176.436 204.737 177.454L204.768 176.372H203.464L201.746 188.652ZM198.183 176.15C197.101 176.15 196.179 176.786 195.32 177.931C195.161 176.786 194.365 176.15 193.411 176.15C192.266 176.15 191.343 176.881 190.548 178.027L190.675 176.34H189.371L188.13 185.057H189.625L190.325 179.808C191.025 178.567 191.884 177.39 192.87 177.39C193.411 177.39 193.888 177.645 193.729 178.949L192.87 185.057H194.365L195.097 179.808C195.797 178.567 196.656 177.39 197.61 177.39C198.183 177.39 198.66 177.645 198.469 178.949L197.61 185.057H199.106L199.996 178.854C200.315 177.231 199.487 176.15 198.183 176.15ZM181.195 180.667C181.417 179.076 182.181 177.358 183.994 177.358C184.949 177.358 185.171 177.995 185.171 178.408C185.203 179.903 183.708 180.413 181.195 180.667ZM186.794 178.376C186.794 177.231 185.871 176.15 184.026 176.15C180.718 176.15 179.54 179.363 179.54 181.749C179.54 183.944 180.718 185.28 182.881 185.28C184.026 185.28 185.076 184.898 185.999 184.23L185.362 183.212C184.567 183.785 183.835 184.039 183.04 184.039C181.926 184.039 181.195 183.467 181.163 181.876C184.185 181.494 186.794 180.826 186.794 178.376ZM175.405 176.15C173.146 176.15 172.096 177.486 172.096 178.631C172.096 179.808 172.764 180.508 174.419 181.017C175.818 181.462 176.264 181.749 176.264 182.639C176.264 183.212 175.818 184.071 174.291 184.071C173.305 184.071 172.51 183.721 171.842 183.148L170.983 184.039C171.651 184.707 172.701 185.312 174.228 185.312C176.041 185.312 177.854 184.453 177.854 182.512C177.854 181.144 177.027 180.413 175.373 179.903C174.196 179.554 173.623 179.267 173.623 178.567C173.623 177.836 174.291 177.39 175.373 177.39C176.136 177.39 176.868 177.645 177.504 178.154L178.236 177.231C177.504 176.563 176.614 176.15 175.405 176.15ZM160.293 180.953L162.902 175.004L163.825 180.953H160.293ZM164.461 185.089H166.083L164.079 173.668H162.107L156.858 185.089H158.48L159.753 182.226H164.047L164.461 185.089ZM153.549 179.649H152.213L152.881 174.909H154.312C155.808 174.909 156.762 175.354 156.762 176.69C156.762 178.154 156.126 179.649 153.549 179.649ZM154.44 173.668H151.513L149.89 185.089H151.449L152.022 180.89H153.485C157.144 180.89 158.385 178.79 158.385 176.69C158.416 174.622 156.921 173.668 154.44 173.668ZM140.728 177.358C141.301 177.358 141.683 177.454 142.16 177.645L141.492 182.48C140.824 183.403 140.124 184.103 139.169 184.103C138.247 184.103 137.706 183.435 137.706 181.971C137.642 179.999 138.501 177.358 140.728 177.358ZM140.696 176.15C137.292 176.15 136.052 179.554 136.052 181.94C136.052 183.944 137.038 185.28 138.819 185.28C139.837 185.28 140.728 184.707 141.428 183.817C141.555 184.771 142.096 185.153 142.955 185.28L143.4 184.23C142.86 184.007 142.796 183.689 142.86 183.085L143.75 176.881C142.764 176.436 141.81 176.15 140.696 176.15ZM131.948 176.15C130.675 176.15 129.721 176.913 128.925 178.058L129.053 176.34H127.748L126.508 185.057H128.003L128.735 179.808C129.434 178.567 130.389 177.39 131.502 177.39C132.17 177.39 132.584 177.708 132.425 178.949L131.566 185.057H133.061L133.92 178.917C134.206 177.231 133.411 176.15 131.948 176.15ZM119.35 185.28C120.558 185.28 121.417 184.58 122.245 183.467L122.117 185.089H123.422L124.662 176.372H123.167L122.372 182.067C121.704 183.085 120.813 184.135 119.731 184.135C118.968 184.135 118.65 183.721 118.809 182.512L119.668 176.372H118.172L117.282 182.576C116.995 184.262 117.823 185.28 119.35 185.28Z" fill="white"/>
<path d="M253.22 158.589C252.265 158.589 251.343 159.225 250.675 160.561L250.77 158.779H249.498L248.257 167.496H249.752L250.42 162.883C251.025 161.102 251.788 160.084 252.933 160.084C253.22 160.084 253.411 160.116 253.633 160.179L254.079 158.716C253.824 158.62 253.538 158.589 253.22 158.589ZM241.29 163.106C241.512 161.515 242.276 159.797 244.089 159.797C245.044 159.797 245.266 160.434 245.266 160.847C245.266 162.343 243.771 162.82 241.29 163.106ZM246.857 160.784C246.857 159.638 245.935 158.557 244.089 158.557C240.781 158.557 239.604 161.77 239.604 164.156C239.604 166.351 240.781 167.687 242.944 167.687C244.089 167.687 245.139 167.305 246.062 166.637L245.426 165.619C244.63 166.192 243.898 166.446 243.103 166.446C241.99 166.446 241.258 165.874 241.226 164.283C244.248 163.933 246.857 163.233 246.857 160.784ZM233.336 166.478C232.732 166.478 232.35 166.415 231.809 166.224L232.509 161.038C233.146 160.37 233.845 159.766 234.8 159.766C235.691 159.766 236.327 160.306 236.327 161.865C236.327 163.838 235.532 166.478 233.336 166.478ZM229.614 171.091L231.109 170.9L231.619 167.433C232.159 167.624 232.668 167.719 233.273 167.719C236.677 167.719 237.918 164.474 237.918 162.024C237.918 159.829 236.868 158.589 235.245 158.589C234.354 158.589 233.496 158.875 232.605 159.893L232.637 158.811H231.332L229.614 171.091ZM219.561 166.478C218.384 166.478 217.748 165.778 217.748 164.251C217.748 162.565 218.352 159.797 220.643 159.797C221.788 159.797 222.424 160.497 222.424 162.024C222.424 163.679 221.82 166.478 219.561 166.478ZM219.498 167.687C222.933 167.687 224.015 164.283 224.015 162.183C224.015 159.957 222.87 158.557 220.675 158.557C217.271 158.557 216.157 161.929 216.157 164.06C216.157 166.319 217.334 167.687 219.498 167.687ZM212.021 158.589C209.763 158.589 208.713 159.925 208.713 161.07C208.713 162.247 209.381 162.947 211.035 163.456C212.435 163.901 212.88 164.188 212.88 165.078C212.88 165.651 212.435 166.51 210.908 166.51C209.922 166.51 209.126 166.16 208.458 165.587L207.599 166.478C208.267 167.146 209.317 167.751 210.844 167.751C212.658 167.751 214.471 166.892 214.471 164.951C214.471 163.583 213.644 162.852 211.99 162.343C210.813 161.993 210.24 161.706 210.24 161.006C210.24 160.275 210.908 159.829 211.99 159.829C212.753 159.829 213.485 160.084 214.121 160.593L214.853 159.67C214.121 159.002 213.23 158.589 212.021 158.589ZM207.472 158.589C206.518 158.589 205.595 159.225 204.927 160.561L205.023 158.779H203.718L202.477 167.496H203.973L204.641 162.883C205.245 161.102 206.009 160.084 207.154 160.084C207.44 160.084 207.631 160.116 207.854 160.179L208.299 158.716C208.108 158.62 207.79 158.589 207.472 158.589ZM196.274 166.478C195.097 166.478 194.461 165.778 194.461 164.251C194.461 162.565 195.065 159.797 197.356 159.797C198.501 159.797 199.137 160.497 199.137 162.024C199.137 163.679 198.533 166.478 196.274 166.478ZM196.21 167.687C199.646 167.687 200.728 164.283 200.728 162.183C200.728 159.957 199.582 158.557 197.387 158.557C193.983 158.557 192.87 161.929 192.87 164.06C192.87 166.319 194.047 167.687 196.21 167.687ZM189.72 158.589C186.475 158.589 185.298 161.865 185.298 164.156C185.298 166.383 186.475 167.719 188.575 167.719C189.529 167.719 190.452 167.433 191.311 166.796L190.707 165.747C190.007 166.192 189.434 166.415 188.67 166.415C187.557 166.415 186.889 165.778 186.889 164.251C186.889 162.438 187.525 159.829 189.752 159.829C190.42 159.829 190.929 160.02 191.47 160.466L192.297 159.511C191.534 158.843 190.707 158.589 189.72 158.589ZM176.9 158.589C175.627 158.589 174.673 159.352 173.877 160.497L174.005 158.779H172.7L171.459 167.496H172.955L173.686 162.247C174.386 161.006 175.341 159.829 176.454 159.829C177.122 159.829 177.536 160.147 177.377 161.388L176.518 167.496H178.013L178.872 161.356C179.158 159.638 178.363 158.589 176.9 158.589ZM169.582 158.779H168.087L166.847 167.496H168.342L169.582 158.779ZM169.201 156.648C169.837 156.648 170.346 156.171 170.346 155.534C170.346 154.994 169.964 154.58 169.36 154.58C168.723 154.58 168.214 155.057 168.214 155.694C168.214 156.234 168.596 156.648 169.201 156.648ZM160.675 158.779H159.179L157.939 167.496H159.434L160.675 158.779ZM160.293 156.648C160.929 156.648 161.438 156.171 161.438 155.534C161.438 154.994 161.056 154.58 160.452 154.58C159.816 154.58 159.307 155.057 159.307 155.694C159.307 156.234 159.688 156.648 160.293 156.648ZM156.603 158.589C155.648 158.589 154.726 159.225 154.058 160.561L154.153 158.779H152.849L151.608 167.496H153.103L153.771 162.883C154.376 161.102 155.139 160.084 156.284 160.084C156.571 160.084 156.762 160.116 156.984 160.179L157.43 158.716C157.207 158.62 156.889 158.589 156.603 158.589ZM145.372 166.478C144.195 166.478 143.559 165.778 143.559 164.251C143.559 162.565 144.164 159.797 146.454 159.797C147.599 159.797 148.236 160.497 148.236 162.024C148.236 163.679 147.631 166.478 145.372 166.478ZM145.309 167.687C148.745 167.687 149.826 164.283 149.826 162.183C149.826 159.957 148.681 158.557 146.486 158.557C143.082 158.557 141.968 161.929 141.968 164.06C141.968 166.319 143.146 167.687 145.309 167.687ZM141.65 158.779H139.996L136.751 166.128L135.574 158.779H133.92L135.669 167.496H137.483L141.65 158.779ZM129.307 159.797C129.879 159.797 130.261 159.893 130.738 160.084L130.07 164.919C129.402 165.842 128.702 166.542 127.748 166.542C126.825 166.542 126.284 165.874 126.284 164.41C126.221 162.406 127.08 159.797 129.307 159.797ZM129.275 158.589C125.871 158.589 124.63 161.993 124.63 164.379C124.63 166.383 125.616 167.719 127.43 167.719C128.448 167.719 129.339 167.146 130.038 166.256C130.166 167.21 130.707 167.592 131.565 167.719L132.011 166.669C131.47 166.446 131.406 166.128 131.47 165.524L132.361 159.32C131.343 158.843 130.388 158.589 129.275 158.589ZM120.24 156.075H118.681L117.059 167.496H123.103L123.453 166.128H118.808L120.24 156.075Z" fill="white"/>
<path d="M300.145 104.919H288.788V125.884H300.4V123.562H291.683V116.372H298.745V114.05H291.683V107.21H299.795L300.145 104.919ZM282.743 104.919H280.039V116.372C280.039 118.917 280.389 122.29 280.421 122.767L271.799 104.919H268.014V125.884H270.718V116.277C270.718 112.396 270.463 109.819 270.336 108.101L278.862 125.916H282.711V104.919H282.743V104.919ZM254.493 106.924C258.088 106.924 260.283 109.373 260.283 115.418C260.283 121.494 258.024 123.88 254.493 123.88C251.089 123.88 248.703 121.494 248.703 115.45C248.735 109.373 250.993 106.924 254.493 106.924ZM254.493 104.538C249.244 104.538 245.649 108.514 245.649 115.418C245.649 122.449 249.275 126.234 254.493 126.234C259.742 126.234 263.337 122.353 263.337 115.386C263.369 108.355 259.774 104.538 254.493 104.538ZM240.972 104.919H238.077V125.884H240.972V104.919ZM233.687 104.919H221.184V107.369H230.569L220.103 123.594V125.916H233.369L233.719 123.467H223.348L233.719 107.305L233.687 104.919ZM207.155 118.281L210.431 107.337L213.676 118.281H207.155ZM215.967 125.884H219.021L212.34 104.919H208.682L201.969 125.884H204.896L206.487 120.635H214.44L215.967 125.884ZM202.033 104.919H199.106L193.857 122.767L188.607 104.919H185.49L192.234 125.884H195.352L202.033 104.919ZM174.959 106.924C178.554 106.924 180.75 109.373 180.75 115.418C180.75 121.494 178.491 123.88 174.959 123.88C171.555 123.88 169.169 121.494 169.169 115.45C169.169 109.373 171.46 106.924 174.959 106.924ZM174.959 104.538C169.71 104.538 166.115 108.514 166.115 115.418C166.115 122.449 169.742 126.234 174.959 126.234C180.209 126.234 183.804 122.353 183.804 115.386C183.804 108.355 180.209 104.538 174.959 104.538ZM161.407 104.919H158.703V116.372C158.703 118.917 159.053 122.29 159.085 122.767L150.463 104.919H146.677V125.884H149.382V116.277C149.382 112.396 149.127 109.819 149 108.101L157.526 125.916H161.375V104.919H161.407V104.919ZM140.665 104.919H137.961V116.372C137.961 118.917 138.31 122.29 138.342 122.767L129.721 104.919H125.935V125.884H128.639V116.277C128.639 112.396 128.385 109.819 128.257 108.101L136.783 125.916H140.633V104.919H140.665V104.919ZM119.922 104.919H117.027V125.884H119.922V104.919Z" fill="white"/>
<path d="M243.04 73.8059H231.683V94.7709H243.263V92.4486H234.546V85.2587H241.609V82.9364H234.546V76.0965H242.659L243.04 73.8059ZM216.158 83.6681V76.0647H218.735C222.171 76.0647 223.666 77.1145 223.666 79.755C223.666 82.5864 221.98 83.6681 219.085 83.6681H216.158V83.6681ZM224.43 94.7709H227.865L222.203 85.3542C225.225 84.4316 226.752 82.6818 226.752 79.7232C226.752 75.8102 224.016 73.7741 218.767 73.7741H213.263V94.7391H216.158V85.8632H219.403L224.43 94.7709ZM208.332 73.8059H197.007V94.7709H208.587V92.4486H199.87V85.2587H206.932V82.9364H199.87V76.0965H207.982L208.332 73.8059ZM190.898 73.8059H188.003V94.7709H190.898V73.8059ZM184.663 73.8059H169.679V76.2556H175.628V94.7709H178.523V76.2556H184.345L184.663 73.8059ZM166.211 73.8059H163.507V85.2587C163.507 87.8038 163.857 91.176 163.889 91.6532L155.267 73.8059H151.482V94.7709H154.186V85.1633C154.186 81.2821 153.931 78.7052 153.804 76.9873L162.33 94.8027H166.179V73.8059H166.211V73.8059ZM136.402 87.1675L139.679 76.2237L142.924 87.1675H136.402ZM145.214 94.7709H148.268L141.588 73.8059H137.929L131.216 94.7709H134.143L135.734 89.5217H143.687L145.214 94.7709ZM124.345 73.4242C119.605 73.4242 115.628 77.1781 115.628 84.2725C115.628 91.3351 119.318 95.1527 124.408 95.1527C127.24 95.1527 129.244 94.0074 130.389 92.7985L128.958 90.9851C127.781 91.8759 126.476 92.7349 124.472 92.7349C121.227 92.7349 118.682 90.3489 118.682 84.3043C118.682 77.9735 121.323 75.842 124.504 75.842C125.967 75.842 127.24 76.3192 128.544 77.4008L130.135 75.5557C128.481 74.1559 126.985 73.4242 124.345 73.4242Z" fill="white"/>
<path d="M207.854 42.6925H203.941L199.742 57.9311L195.32 42.6925H191.439L189.689 63.6575H192.425L193.125 54.3998C193.379 51.3139 193.507 48.0689 193.507 45.6193L198.279 61.3033H200.983L205.532 45.6511C205.564 47.4009 205.787 50.9003 206.041 54.2089L206.773 63.6575H209.572L207.854 42.6925ZM185.076 42.6925H182.149V56.7222C182.149 59.9671 180.718 61.5896 177.695 61.5896C174.705 61.5896 173.273 59.9671 173.273 56.7222V42.6925H170.378V56.9449C170.378 61.1124 172.892 64.0392 177.695 64.0392C182.404 64.0392 185.044 61.1124 185.044 56.9449V42.6925H185.076ZM155.394 52.5546V44.9512H157.971C161.407 44.9512 162.902 46.0011 162.902 48.6416C162.902 51.473 161.216 52.5546 158.321 52.5546H155.394V52.5546ZM163.666 63.6575H167.102L161.439 54.2407C164.461 53.3181 165.988 51.5684 165.988 48.6098C165.988 44.6967 163.252 42.6607 158.003 42.6607H152.499V63.6257H155.394V54.7816H158.639L163.666 63.6575ZM138.915 44.6967C142.51 44.6967 144.705 47.1463 144.705 53.1909C144.705 59.2672 142.446 61.6532 138.915 61.6532C135.511 61.6532 133.125 59.2672 133.125 53.2227C133.157 47.1782 135.415 44.6967 138.915 44.6967ZM138.915 42.3425C133.666 42.3425 130.071 46.3192 130.071 53.2227C130.071 60.2535 133.698 64.0392 138.915 64.0392C144.164 64.0392 147.759 60.158 147.759 53.1909C147.791 46.1283 144.196 42.3425 138.915 42.3425ZM117.027 63.6575H119.922V54.4316H126.762V52.1411H119.922V44.983H127.844L128.194 42.6607H117.059V63.6575H117.027Z" fill="white"/>
</svg>
