<svg width="301" height="188" viewBox="0 0 301 188" fill="none" xmlns="http://www.w3.org/2000/svg">
<path d="M70.4844 145.864V187.54L105.543 166.702V125.027L70.4844 145.864Z" fill="#E3CA11"/>
<path d="M105.543 83.351L70.4844 104.189V145.864L105.543 125.027V83.351Z" fill="#FBE00E"/>
<path d="M0.399414 145.864V187.54L35.4577 166.702V125.027L0.399414 145.864Z" fill="#C6C6C6"/>
<path d="M105.543 41.6755L70.4844 62.5132V104.189L105.543 83.351V41.6755Z" fill="#E3CA11"/>
<path d="M105.543 0L70.4844 20.8378V62.5133L105.543 41.6755V0Z" fill="#FBE00E"/>
<path d="M35.4575 166.702L70.484 187.54V145.864L35.4575 125.027V166.702Z" fill="#DADADA"/>
<path d="M0.399414 62.5132V104.189L35.4577 83.351V41.6755L0.399414 62.5132Z" fill="#C6C6C6"/>
<path d="M35.4575 41.6755L70.484 62.5132V104.189L35.4575 83.351V41.6755Z" fill="#DADADA"/>
<path d="M294.387 179.841C294.609 178.25 295.373 176.532 297.186 176.532C298.141 176.532 298.363 177.169 298.363 177.582C298.363 179.077 296.868 179.586 294.387 179.841ZM299.954 177.55C299.954 176.405 299.031 175.323 297.186 175.323C293.878 175.323 292.701 178.537 292.701 180.923C292.701 183.118 293.878 184.454 296.041 184.454C297.186 184.454 298.236 184.072 299.159 183.404L298.522 182.386C297.727 182.959 296.995 183.213 296.2 183.213C295.087 183.213 294.355 182.64 294.323 181.05C297.345 180.668 299.954 180 299.954 177.55ZM289.551 175.323C286.306 175.323 285.129 178.6 285.129 180.891C285.129 183.118 286.306 184.454 288.406 184.454C289.36 184.454 290.283 184.168 291.142 183.531L290.537 182.481C289.837 182.927 289.265 183.149 288.501 183.149C287.388 183.149 286.72 182.513 286.72 180.986C286.72 179.173 287.356 176.564 289.583 176.564C290.251 176.564 290.76 176.755 291.301 177.2L292.128 176.246C291.396 175.61 290.537 175.323 289.551 175.323ZM278.957 183.245C277.78 183.245 277.144 182.545 277.144 181.018C277.144 179.332 277.748 176.564 280.039 176.564C281.184 176.564 281.82 177.264 281.82 178.791C281.82 180.445 281.216 183.245 278.957 183.245ZM278.894 184.454C282.329 184.454 283.411 181.05 283.411 178.95C283.411 176.723 282.266 175.323 280.071 175.323C276.667 175.323 275.553 178.696 275.553 180.827C275.553 183.054 276.73 184.454 278.894 184.454ZM274.122 171.824L272.595 172.015L271.131 182.291C270.94 183.722 271.545 184.454 272.69 184.454C273.072 184.454 273.454 184.358 273.899 184.168L273.581 183.086C273.39 183.15 273.167 183.213 272.976 183.213C272.626 183.213 272.531 183.022 272.563 182.577L274.122 171.824ZM263.973 179.841C264.196 178.25 264.959 176.532 266.773 176.532C267.727 176.532 267.95 177.169 267.95 177.582C267.982 179.077 266.486 179.586 263.973 179.841ZM269.572 177.55C269.572 176.405 268.65 175.323 266.805 175.323C263.496 175.323 262.319 178.537 262.319 180.923C262.319 183.118 263.496 184.454 265.659 184.454C266.805 184.454 267.854 184.072 268.777 183.404L268.141 182.386C267.345 182.959 266.614 183.213 265.818 183.213C264.705 183.213 263.973 182.64 263.941 181.05C266.932 180.668 269.572 180 269.572 177.55ZM261.969 175.514H260.315L257.07 182.863L255.861 175.514H254.206L255.956 184.231H257.77L261.969 175.514ZM243.199 179.841C243.422 178.25 244.185 176.532 245.999 176.532C246.953 176.532 247.207 177.169 247.207 177.582C247.176 179.077 245.68 179.586 243.199 179.841ZM248.766 177.55C248.766 176.405 247.844 175.323 245.999 175.323C242.69 175.323 241.513 178.537 241.513 180.923C241.513 183.118 242.69 184.454 244.853 184.454C245.999 184.454 247.048 184.072 247.971 183.404L247.335 182.386C246.539 182.959 245.808 183.213 245.012 183.213C243.899 183.213 243.167 182.64 243.135 181.05C246.158 180.668 248.766 180 248.766 177.55ZM230.378 179.841C230.601 178.25 231.364 176.532 233.178 176.532C234.132 176.532 234.355 177.169 234.355 177.582C234.387 179.077 232.891 179.586 230.378 179.841ZM235.977 177.55C235.977 176.405 235.055 175.323 233.21 175.323C229.901 175.323 228.724 178.537 228.724 180.923C228.724 183.118 229.901 184.454 232.064 184.454C233.21 184.454 234.259 184.072 235.182 183.404L234.546 182.386C233.75 182.959 233.019 183.213 232.223 183.213C231.11 183.213 230.378 182.64 230.346 181.05C233.337 180.668 235.977 180 235.977 177.55ZM225.574 175.323C222.329 175.323 221.152 178.6 221.152 180.891C221.152 183.118 222.361 184.454 224.429 184.454C225.384 184.454 226.306 184.168 227.165 183.531L226.561 182.481C225.861 182.927 225.288 183.149 224.525 183.149C223.411 183.149 222.743 182.513 222.743 180.986C222.743 179.173 223.379 176.564 225.606 176.564C226.274 176.564 226.783 176.755 227.324 177.2L228.151 176.246C227.388 175.61 226.529 175.323 225.574 175.323ZM219.339 175.514H217.844L216.603 184.231H218.098L219.339 175.514ZM218.925 173.415C219.562 173.415 220.071 172.937 220.071 172.301C220.071 171.76 219.689 171.347 219.084 171.347C218.448 171.347 217.939 171.824 217.939 172.46C217.939 173.001 218.321 173.415 218.925 173.415ZM215.012 171.824L213.485 172.015L212.022 182.291C211.831 183.722 212.435 184.454 213.581 184.454C213.963 184.454 214.344 184.358 214.79 184.168L214.472 183.086C214.281 183.15 214.058 183.213 213.867 183.213C213.517 183.213 213.422 183.022 213.454 182.577L215.012 171.824ZM205.468 183.245C204.864 183.245 204.482 183.181 203.941 182.99L204.641 177.805C205.277 177.137 205.977 176.532 206.932 176.532C207.823 176.532 208.459 177.073 208.459 178.632C208.459 180.604 207.663 183.245 205.468 183.245ZM201.746 187.826L203.241 187.635L203.75 184.168C204.291 184.358 204.8 184.454 205.405 184.454C208.809 184.454 210.049 181.209 210.049 178.759C210.049 176.564 209 175.323 207.377 175.323C206.486 175.323 205.627 175.61 204.737 176.628L204.768 175.546H203.464L201.746 187.826ZM198.183 175.323C197.101 175.323 196.179 175.96 195.32 177.105C195.161 175.96 194.365 175.323 193.411 175.323C192.266 175.323 191.343 176.055 190.548 177.2L190.675 175.514H189.371L188.13 184.231H189.625L190.325 178.982C191.025 177.741 191.884 176.564 192.87 176.564C193.411 176.564 193.888 176.819 193.729 178.123L192.87 184.231H194.365L195.097 178.982C195.797 177.741 196.656 176.564 197.61 176.564C198.183 176.564 198.66 176.819 198.469 178.123L197.61 184.231H199.106L199.996 178.028C200.315 176.405 199.487 175.323 198.183 175.323ZM181.195 179.841C181.417 178.25 182.181 176.532 183.994 176.532C184.949 176.532 185.171 177.169 185.171 177.582C185.203 179.077 183.708 179.586 181.195 179.841ZM186.794 177.55C186.794 176.405 185.871 175.323 184.026 175.323C180.718 175.323 179.54 178.537 179.54 180.923C179.54 183.118 180.718 184.454 182.881 184.454C184.026 184.454 185.076 184.072 185.999 183.404L185.362 182.386C184.567 182.959 183.835 183.213 183.04 183.213C181.926 183.213 181.195 182.64 181.163 181.05C184.185 180.668 186.794 180 186.794 177.55ZM175.405 175.323C173.146 175.323 172.096 176.66 172.096 177.805C172.096 178.982 172.764 179.682 174.419 180.191C175.818 180.636 176.264 180.923 176.264 181.813C176.264 182.386 175.818 183.245 174.291 183.245C173.305 183.245 172.51 182.895 171.842 182.322L170.983 183.213C171.651 183.881 172.701 184.486 174.228 184.486C176.041 184.486 177.854 183.627 177.854 181.686C177.854 180.318 177.027 179.586 175.373 179.077C174.196 178.727 173.623 178.441 173.623 177.741C173.623 177.01 174.291 176.564 175.373 176.564C176.136 176.564 176.868 176.819 177.504 177.328L178.236 176.405C177.504 175.737 176.614 175.323 175.405 175.323ZM160.293 180.127L162.902 174.178L163.825 180.127H160.293ZM164.461 184.263H166.083L164.079 172.842H162.107L156.858 184.263H158.48L159.753 181.4H164.047L164.461 184.263ZM153.549 178.823H152.213L152.881 174.083H154.312C155.808 174.083 156.762 174.528 156.762 175.864C156.762 177.328 156.126 178.823 153.549 178.823ZM154.44 172.842H151.513L149.89 184.263H151.449L152.022 180.064H153.485C157.144 180.064 158.385 177.964 158.385 175.864C158.416 173.796 156.921 172.842 154.44 172.842ZM140.728 176.532C141.301 176.532 141.683 176.628 142.16 176.819L141.492 181.654C140.824 182.577 140.124 183.277 139.169 183.277C138.247 183.277 137.706 182.609 137.706 181.145C137.642 179.173 138.501 176.532 140.728 176.532ZM140.696 175.323C137.292 175.323 136.052 178.727 136.052 181.113C136.052 183.118 137.038 184.454 138.819 184.454C139.837 184.454 140.728 183.881 141.428 182.99C141.555 183.945 142.096 184.327 142.955 184.454L143.4 183.404C142.86 183.181 142.796 182.863 142.86 182.259L143.75 176.055C142.764 175.61 141.81 175.323 140.696 175.323ZM131.948 175.323C130.675 175.323 129.721 176.087 128.925 177.232L129.053 175.514H127.748L126.508 184.231H128.003L128.735 178.982C129.434 177.741 130.389 176.564 131.502 176.564C132.17 176.564 132.584 176.882 132.425 178.123L131.566 184.231H133.061L133.92 178.091C134.206 176.405 133.411 175.323 131.948 175.323ZM119.35 184.454C120.558 184.454 121.417 183.754 122.245 182.64L122.117 184.263H123.422L124.662 175.546H123.167L122.372 181.241C121.704 182.259 120.813 183.309 119.731 183.309C118.968 183.309 118.65 182.895 118.809 181.686L119.668 175.546H118.172L117.282 181.75C116.995 183.436 117.823 184.454 119.35 184.454Z" fill="black"/>
<path d="M253.22 157.762C252.265 157.762 251.343 158.399 250.675 159.735L250.77 157.953H249.498L248.257 166.67H249.752L250.42 162.057C251.025 160.276 251.788 159.258 252.933 159.258C253.22 159.258 253.411 159.289 253.633 159.353L254.079 157.89C253.824 157.794 253.538 157.762 253.22 157.762ZM241.29 162.28C241.512 160.689 242.276 158.971 244.089 158.971C245.044 158.971 245.266 159.608 245.266 160.021C245.266 161.516 243.771 161.994 241.29 162.28ZM246.857 159.958C246.857 158.812 245.935 157.731 244.089 157.731C240.781 157.731 239.604 160.944 239.604 163.33C239.604 165.525 240.781 166.861 242.944 166.861C244.089 166.861 245.139 166.479 246.062 165.811L245.426 164.793C244.63 165.366 243.898 165.62 243.103 165.62C241.99 165.62 241.258 165.048 241.226 163.457C244.248 163.107 246.857 162.407 246.857 159.958ZM233.336 165.652C232.732 165.652 232.35 165.589 231.809 165.398L232.509 160.212C233.146 159.544 233.845 158.94 234.8 158.94C235.691 158.94 236.327 159.48 236.327 161.039C236.327 163.012 235.532 165.652 233.336 165.652ZM229.614 170.265L231.109 170.074L231.619 166.607C232.159 166.797 232.668 166.893 233.273 166.893C236.677 166.893 237.918 163.648 237.918 161.198C237.918 159.003 236.868 157.762 235.245 157.762C234.354 157.762 233.496 158.049 232.605 159.067L232.637 157.985H231.332L229.614 170.265ZM219.561 165.652C218.384 165.652 217.748 164.952 217.748 163.425C217.748 161.739 218.352 158.971 220.643 158.971C221.788 158.971 222.424 159.671 222.424 161.198C222.424 162.853 221.82 165.652 219.561 165.652ZM219.498 166.861C222.933 166.861 224.015 163.457 224.015 161.357C224.015 159.13 222.87 157.731 220.675 157.731C217.271 157.731 216.157 161.103 216.157 163.234C216.157 165.493 217.334 166.861 219.498 166.861ZM212.021 157.762C209.763 157.762 208.713 159.099 208.713 160.244C208.713 161.421 209.381 162.121 211.035 162.63C212.435 163.075 212.88 163.362 212.88 164.252C212.88 164.825 212.435 165.684 210.908 165.684C209.922 165.684 209.126 165.334 208.458 164.761L207.599 165.652C208.267 166.32 209.317 166.925 210.844 166.925C212.658 166.925 214.471 166.066 214.471 164.125C214.471 162.757 213.644 162.025 211.99 161.516C210.813 161.166 210.24 160.88 210.24 160.18C210.24 159.449 210.908 159.003 211.99 159.003C212.753 159.003 213.485 159.258 214.121 159.767L214.853 158.844C214.121 158.176 213.23 157.762 212.021 157.762ZM207.472 157.762C206.518 157.762 205.595 158.399 204.927 159.735L205.023 157.953H203.718L202.477 166.67H203.973L204.641 162.057C205.245 160.276 206.009 159.258 207.154 159.258C207.44 159.258 207.631 159.289 207.854 159.353L208.299 157.89C208.108 157.794 207.79 157.762 207.472 157.762ZM196.274 165.652C195.097 165.652 194.461 164.952 194.461 163.425C194.461 161.739 195.065 158.971 197.356 158.971C198.501 158.971 199.137 159.671 199.137 161.198C199.137 162.853 198.533 165.652 196.274 165.652ZM196.21 166.861C199.646 166.861 200.728 163.457 200.728 161.357C200.728 159.13 199.582 157.731 197.387 157.731C193.983 157.731 192.87 161.103 192.87 163.234C192.87 165.493 194.047 166.861 196.21 166.861ZM189.72 157.762C186.475 157.762 185.298 161.039 185.298 163.33C185.298 165.557 186.475 166.893 188.575 166.893C189.529 166.893 190.452 166.607 191.311 165.97L190.707 164.92C190.007 165.366 189.434 165.589 188.67 165.589C187.557 165.589 186.889 164.952 186.889 163.425C186.889 161.612 187.525 159.003 189.752 159.003C190.42 159.003 190.929 159.194 191.47 159.639L192.297 158.685C191.534 158.017 190.707 157.762 189.72 157.762ZM176.9 157.762C175.627 157.762 174.673 158.526 173.877 159.671L174.005 157.953H172.7L171.459 166.67H172.955L173.686 161.421C174.386 160.18 175.341 159.003 176.454 159.003C177.122 159.003 177.536 159.321 177.377 160.562L176.518 166.67H178.013L178.872 160.53C179.158 158.812 178.363 157.762 176.9 157.762ZM169.582 157.953H168.087L166.847 166.67H168.342L169.582 157.953ZM169.201 155.822C169.837 155.822 170.346 155.345 170.346 154.708C170.346 154.168 169.964 153.754 169.36 153.754C168.723 153.754 168.214 154.231 168.214 154.867C168.214 155.408 168.596 155.822 169.201 155.822ZM160.675 157.953H159.179L157.939 166.67H159.434L160.675 157.953ZM160.293 155.822C160.929 155.822 161.438 155.345 161.438 154.708C161.438 154.168 161.056 153.754 160.452 153.754C159.816 153.754 159.307 154.231 159.307 154.867C159.307 155.408 159.688 155.822 160.293 155.822ZM156.603 157.762C155.648 157.762 154.726 158.399 154.058 159.735L154.153 157.953H152.849L151.608 166.67H153.103L153.771 162.057C154.376 160.276 155.139 159.258 156.284 159.258C156.571 159.258 156.762 159.289 156.984 159.353L157.43 157.89C157.207 157.794 156.889 157.762 156.603 157.762ZM145.372 165.652C144.195 165.652 143.559 164.952 143.559 163.425C143.559 161.739 144.164 158.971 146.454 158.971C147.599 158.971 148.236 159.671 148.236 161.198C148.236 162.853 147.631 165.652 145.372 165.652ZM145.309 166.861C148.745 166.861 149.826 163.457 149.826 161.357C149.826 159.13 148.681 157.731 146.486 157.731C143.082 157.731 141.968 161.103 141.968 163.234C141.968 165.493 143.146 166.861 145.309 166.861ZM141.65 157.953H139.996L136.751 165.302L135.574 157.953H133.92L135.669 166.67H137.483L141.65 157.953ZM129.307 158.971C129.879 158.971 130.261 159.067 130.738 159.258L130.07 164.093C129.402 165.016 128.702 165.716 127.748 165.716C126.825 165.716 126.284 165.048 126.284 163.584C126.221 161.58 127.08 158.971 129.307 158.971ZM129.275 157.762C125.871 157.762 124.63 161.166 124.63 163.552C124.63 165.557 125.616 166.893 127.43 166.893C128.448 166.893 129.339 166.32 130.038 165.429C130.166 166.384 130.707 166.766 131.565 166.893L132.011 165.843C131.47 165.62 131.406 165.302 131.47 164.698L132.361 158.494C131.343 158.017 130.388 157.762 129.275 157.762ZM120.24 155.249H118.681L117.059 166.67H123.103L123.453 165.302H118.808L120.24 155.249Z" fill="black"/>
<path d="M300.145 104.093H288.788V125.058H300.4V122.736H291.683V115.546H298.745V113.224H291.683V106.384H299.795L300.145 104.093ZM282.743 104.093H280.039V115.546C280.039 118.091 280.389 121.463 280.421 121.941L271.799 104.093H268.014V125.058H270.718V115.451C270.718 111.569 270.463 108.993 270.336 107.275L278.862 125.09H282.711V104.093H282.743V104.093ZM254.493 106.098C258.088 106.098 260.283 108.547 260.283 114.592C260.283 120.668 258.024 123.054 254.493 123.054C251.089 123.054 248.703 120.668 248.703 114.624C248.735 108.547 250.993 106.098 254.493 106.098ZM254.493 103.712C249.244 103.712 245.649 107.688 245.649 114.592C245.649 121.622 249.275 125.408 254.493 125.408C259.742 125.408 263.337 121.527 263.337 114.56C263.369 107.529 259.774 103.712 254.493 103.712ZM240.972 104.093H238.077V125.058H240.972V104.093ZM233.687 104.093H221.184V106.543H230.569L220.103 122.768V125.09H233.369L233.719 122.641H223.348L233.719 106.479L233.687 104.093ZM207.155 117.455L210.431 106.511L213.676 117.455H207.155ZM215.967 125.058H219.021L212.34 104.093H208.682L201.969 125.058H204.896L206.487 119.809H214.44L215.967 125.058ZM202.033 104.093H199.106L193.857 121.941L188.607 104.093H185.49L192.234 125.058H195.352L202.033 104.093ZM174.959 106.098C178.554 106.098 180.75 108.547 180.75 114.592C180.75 120.668 178.491 123.054 174.959 123.054C171.555 123.054 169.169 120.668 169.169 114.624C169.169 108.547 171.46 106.098 174.959 106.098ZM174.959 103.712C169.71 103.712 166.115 107.688 166.115 114.592C166.115 121.622 169.742 125.408 174.959 125.408C180.209 125.408 183.804 121.527 183.804 114.56C183.804 107.529 180.209 103.712 174.959 103.712ZM161.407 104.093H158.703V115.546C158.703 118.091 159.053 121.463 159.085 121.941L150.463 104.093H146.677V125.058H149.382V115.451C149.382 111.569 149.127 108.993 149 107.275L157.526 125.09H161.375V104.093H161.407V104.093ZM140.665 104.093H137.961V115.546C137.961 118.091 138.31 121.463 138.342 121.941L129.721 104.093H125.935V125.058H128.639V115.451C128.639 111.569 128.385 108.993 128.257 107.275L136.783 125.09H140.633V104.093H140.665V104.093ZM119.922 104.093H117.027V125.058H119.922V104.093Z" fill="black"/>
<path d="M243.04 72.9798H231.683V93.9449H243.263V91.6225H234.546V84.4326H241.609V82.1103H234.546V75.2704H242.659L243.04 72.9798ZM216.158 82.842V75.2386H218.735C222.171 75.2386 223.666 76.2884 223.666 78.9289C223.666 81.7603 221.98 82.842 219.085 82.842H216.158V82.842ZM224.43 93.9449H227.865L222.203 84.5281C225.225 83.6055 226.752 81.8558 226.752 78.8971C226.752 74.9841 224.016 72.948 218.767 72.948H213.263V93.913H216.158V85.0371H219.403L224.43 93.9449ZM208.332 72.9798H197.007V93.9449H208.587V91.6225H199.87V84.4326H206.932V82.1103H199.87V75.2704H207.982L208.332 72.9798ZM190.898 72.9798H188.003V93.9449H190.898V72.9798ZM184.663 72.9798H169.679V75.4295H175.628V93.9449H178.523V75.4295H184.345L184.663 72.9798ZM166.211 72.9798H163.507V84.4326C163.507 86.9777 163.857 90.3499 163.889 90.8271L155.267 72.9798H151.482V93.9449H154.186V84.3372C154.186 80.456 153.931 77.8791 153.804 76.1612L162.33 93.9767H166.179V72.9798H166.211V72.9798ZM136.402 86.3415L139.679 75.3977L142.924 86.3415H136.402ZM145.214 93.9449H148.268L141.588 72.9798H137.929L131.216 93.9449H134.143L135.734 88.6956H143.687L145.214 93.9449ZM124.345 72.5981C119.605 72.5981 115.628 76.3521 115.628 83.4464C115.628 90.509 119.318 94.3266 124.408 94.3266C127.24 94.3266 129.244 93.1813 130.389 91.9724L128.958 90.1591C127.781 91.0498 126.476 91.9088 124.472 91.9088C121.227 91.9088 118.682 89.5228 118.682 83.4782C118.682 77.1474 121.323 75.0159 124.504 75.0159C125.967 75.0159 127.24 75.4931 128.544 76.5748L130.135 74.7296C128.481 73.3298 126.985 72.5981 124.345 72.5981Z" fill="black"/>
<path d="M207.854 41.8664H203.941L199.742 57.105L195.32 41.8664H191.439L189.689 62.8314H192.425L193.125 53.5737C193.379 50.4878 193.507 47.2429 193.507 44.7932L198.279 60.4772H200.983L205.532 44.825C205.564 46.5748 205.787 50.0742 206.041 53.3828L206.773 62.8314H209.572L207.854 41.8664ZM185.076 41.8664H182.149V55.8961C182.149 59.1411 180.718 60.7635 177.695 60.7635C174.705 60.7635 173.273 59.1411 173.273 55.8961V41.8664H170.378V56.1188C170.378 60.2863 172.892 63.2132 177.695 63.2132C182.404 63.2132 185.044 60.2863 185.044 56.1188V41.8664H185.076ZM155.394 51.7285V44.1251H157.971C161.407 44.1251 162.902 45.175 162.902 47.8155C162.902 50.6469 161.216 51.7285 158.321 51.7285H155.394V51.7285ZM163.666 62.8314H167.102L161.439 53.4146C164.461 52.4921 165.988 50.7423 165.988 47.7837C165.988 43.8706 163.252 41.8346 158.003 41.8346H152.499V62.7996H155.394V53.9555H158.639L163.666 62.8314ZM138.915 43.8706C142.51 43.8706 144.705 46.3203 144.705 52.3648C144.705 58.4412 142.446 60.8272 138.915 60.8272C135.511 60.8272 133.125 58.4412 133.125 52.3966C133.157 46.3521 135.415 43.8706 138.915 43.8706ZM138.915 41.5164C133.666 41.5164 130.071 45.4931 130.071 52.3966C130.071 59.4274 133.698 63.2132 138.915 63.2132C144.164 63.2132 147.759 59.3319 147.759 52.3648C147.791 45.3022 144.196 41.5164 138.915 41.5164ZM117.027 62.8314H119.922V53.6055H126.762V51.315H119.922V44.157H127.844L128.194 41.8346H117.059V62.8314H117.027Z" fill="black"/>
</svg>
