<svg width="220" height="77" viewBox="0 0 220 77" fill="none" xmlns="http://www.w3.org/2000/svg">
<g clip-path="url(#clip0)">
<path d="M151.57 72.8498H137.367V59.6533H145.856V56.5003H137.367V45.6024H150.862V42.4935H133.24V75.9587H151.57V72.8498ZM126.349 72.8498H113.206V42.4935H109.078V75.9587H126.343V72.8498H126.349ZM92.3449 42.4935H87.9848L78.1999 75.9587H82.2655L84.7401 67.2603H95.5214L97.9395 75.9587H102.124L92.3449 42.4935ZM85.5668 64.1569L87.8658 55.8333C88.7492 52.7243 89.6949 49.1414 90.1025 46.6553C90.5725 49.1414 91.4559 52.6307 92.3393 55.7892L94.6386 64.1569H85.5668ZM70.0684 68.0209C68.4207 71.7032 66.6483 73.3735 63.5848 73.3735C58.9868 73.3735 56.1612 68.5447 56.1612 59.2233C56.1612 50.0894 58.8735 45.0733 63.4093 45.0733C66.2972 45.0733 67.9449 46.3631 69.655 50.4754L73.3697 49.1359C71.4218 44.5937 68.5962 41.9644 63.4715 41.9644C55.9857 41.9644 52.0388 48.6067 52.0388 59.2233C52.0388 69.9779 55.7535 76.4824 63.3527 76.4824C68.7717 76.4824 71.7219 73.6601 73.4886 69.4046L70.0684 68.0209ZM33.8225 73.3789C29.1678 73.3789 26.1044 68.5502 26.1044 59.2289C26.1044 49.858 29.0489 45.0788 33.6468 45.0788C38.3015 45.0788 41.4272 49.9076 41.4272 59.2289C41.4272 68.5942 38.4204 73.3789 33.8225 73.3789ZM33.7658 41.9698C25.9855 41.9698 21.9764 48.4248 21.9764 59.2289C21.9764 70.0826 25.9231 76.4879 33.7035 76.4879C41.4838 76.4879 45.5496 70.0329 45.5496 59.2289C45.5496 48.3751 41.5462 41.9698 33.7658 41.9698ZM17.2651 72.8498H4.12234V42.4935H0V75.9587H17.2651V72.8498Z" fill="white"/>
<path d="M210.76 2.02221H202.312L193.421 35.4874H201.87L203.099 29.275H209.877L211.157 35.4874H219.605L210.76 2.02221ZM204.43 22.7705L204.627 21.7177C205.46 17.2693 206.151 13.6367 206.446 10.5773C206.791 13.6367 207.527 17.2693 208.314 21.668L208.512 22.765H204.43V22.7705ZM188.122 2.02221H179.82V35.4874H188.122V2.02221ZM173.24 28.8396H167.985C165.63 28.8396 162.878 28.8891 161.009 28.9332C162.039 27.3567 163.954 24.0549 165.426 21.4751L173.183 8.04163V2.01669H152.606V8.65901H157.073C159.429 8.65901 162.277 8.60941 164.095 8.56531C163.064 10.1418 161.099 13.4878 159.673 15.9739L151.915 29.4569V35.4819H173.228V28.8396H173.24ZM145.448 2.02221H137.147V35.4874H145.448V2.02221ZM131.502 28.5088H120.793V2.02221H112.543V35.4874H131.502V28.5088ZM94.474 29.1317C91.9202 29.1317 90.5952 26.789 90.5952 18.708C90.5952 10.6269 91.824 8.38339 94.4232 8.38339C96.9768 8.38339 98.3015 10.7262 98.3015 18.8072C98.3015 26.8827 97.0219 29.1317 94.474 29.1317ZM94.474 1.49854C86.7616 1.49854 82.1467 6.99429 82.1467 18.8072C82.1467 30.6145 86.6653 36.0166 94.3781 36.0166C102.135 36.0166 106.751 30.5208 106.751 18.7134C106.751 6.94469 102.181 1.49854 94.474 1.49854ZM66.2349 16.8447H63.5848V8.52672H66.3821C68.6925 8.52672 69.6211 9.67327 69.6211 12.6388C69.6211 15.6486 68.5905 16.8447 66.2349 16.8447ZM67.1182 2.02221H55.527V35.4874H63.5792V23.3438H66.5237C73.1036 23.3438 77.7695 20.3781 77.7695 12.446C77.7752 4.70117 73.2564 2.02221 67.1182 2.02221ZM35.827 2.02221H31.4668L21.6819 35.4874H25.7476L28.2221 26.789H39.0036L41.4216 35.4874H45.6062L35.827 2.02221ZM29.0489 23.68L31.3479 15.362C32.2312 12.253 33.1768 8.67004 33.5846 6.18399C34.0546 8.67004 34.938 12.1593 35.827 15.3179L38.126 23.6855H29.0489V23.68ZM17.2651 32.3784H4.12234V2.02221H0V35.4874H17.2651V32.3784Z" fill="white"/>
</g>
<defs>
<clipPath id="clip0">
<rect width="220" height="75.9038" fill="white" transform="translate(0 0.903809)"/>
</clipPath>
</defs>
</svg>
