<svg width="105" height="186" viewBox="0 0 105 186" fill="none" xmlns="http://www.w3.org/2000/svg">
<path fill-rule="evenodd" clip-rule="evenodd" d="M70.6338 185.221V145.291L104.192 125.345V165.275L70.6338 185.221Z" fill="black"/>
<path fill-rule="evenodd" clip-rule="evenodd" d="M70.6338 143.546V103.616L104.192 83.6693V123.6L70.6338 143.546Z" fill="black"/>
<path fill-rule="evenodd" clip-rule="evenodd" d="M0.548828 185.221V145.291L34.1072 125.345V165.275L0.548828 185.221Z" fill="black"/>
<path fill-rule="evenodd" clip-rule="evenodd" d="M70.6338 101.871V61.94L104.192 41.9938V81.9243L70.6338 101.871Z" fill="black"/>
<path fill-rule="evenodd" clip-rule="evenodd" d="M70.6338 60.195V20.2644L104.192 0.318237V40.2488L70.6338 60.195Z" fill="black"/>
<path fill-rule="evenodd" clip-rule="evenodd" d="M35.6069 165.275V125.345L69.1334 145.291V185.221L35.6069 165.275Z" fill="black"/>
<path fill-rule="evenodd" clip-rule="evenodd" d="M0.899414 101.687V61.7566L34.4577 41.8104V81.741L0.899414 101.687Z" fill="black"/>
<path fill-rule="evenodd" clip-rule="evenodd" d="M35.6069 81.9245V41.9944L69.1334 61.9398V101.87L35.6069 81.9245Z" fill="black"/>
</svg>
