<svg width="301" height="189" viewBox="0 0 301 189" fill="none" xmlns="http://www.w3.org/2000/svg">
<path fill-rule="evenodd" clip-rule="evenodd" d="M71.2344 186.874V146.943L104.793 126.997V166.927L71.2344 186.874Z" fill="black"/>
<path fill-rule="evenodd" clip-rule="evenodd" d="M71.2344 145.198V105.268L104.793 85.3214V125.252L71.2344 145.198Z" fill="black"/>
<path fill-rule="evenodd" clip-rule="evenodd" d="M1.14941 186.874V146.943L34.7077 126.997V166.927L1.14941 186.874Z" fill="black"/>
<path fill-rule="evenodd" clip-rule="evenodd" d="M71.2344 103.523V63.5921L104.793 43.6459V83.5765L71.2344 103.523Z" fill="black"/>
<path fill-rule="evenodd" clip-rule="evenodd" d="M71.2344 61.8471V21.9166L104.793 1.9704V41.9009L71.2344 61.8471Z" fill="black"/>
<path fill-rule="evenodd" clip-rule="evenodd" d="M36.2075 166.928V126.998L69.734 146.943V186.873L36.2075 166.928Z" fill="black"/>
<path fill-rule="evenodd" clip-rule="evenodd" d="M1.5 103.339V63.4088L35.0583 43.4626V83.3931L1.5 103.339Z" fill="black"/>
<path fill-rule="evenodd" clip-rule="evenodd" d="M36.2075 83.5767V43.6465L69.734 63.5919V103.522L36.2075 83.5767Z" fill="black"/>
<path d="M294.387 180.493C294.609 178.902 295.373 177.184 297.186 177.184C298.141 177.184 298.363 177.821 298.363 178.234C298.363 179.73 296.868 180.239 294.387 180.493ZM299.954 178.203C299.954 177.057 299.031 175.976 297.186 175.976C293.878 175.976 292.701 179.189 292.701 181.575C292.701 183.77 293.878 185.106 296.041 185.106C297.186 185.106 298.236 184.724 299.159 184.056L298.522 183.038C297.727 183.611 296.995 183.865 296.2 183.865C295.087 183.865 294.355 183.293 294.323 181.702C297.345 181.32 299.954 180.652 299.954 178.203ZM289.551 175.976C286.306 175.976 285.129 179.252 285.129 181.543C285.129 183.77 286.306 185.106 288.406 185.106C289.36 185.106 290.283 184.82 291.142 184.183L290.537 183.134C289.837 183.579 289.265 183.802 288.501 183.802C287.388 183.802 286.72 183.165 286.72 181.638C286.72 179.825 287.356 177.216 289.583 177.216C290.251 177.216 290.76 177.407 291.301 177.853L292.128 176.898C291.396 176.262 290.537 175.976 289.551 175.976ZM278.957 183.897C277.78 183.897 277.144 183.197 277.144 181.67C277.144 179.984 277.748 177.216 280.039 177.216C281.184 177.216 281.82 177.916 281.82 179.443C281.82 181.098 281.216 183.897 278.957 183.897ZM278.894 185.106C282.329 185.106 283.411 181.702 283.411 179.602C283.411 177.375 282.266 175.976 280.071 175.976C276.667 175.976 275.553 179.348 275.553 181.479C275.553 183.706 276.73 185.106 278.894 185.106ZM274.122 172.476L272.595 172.667L271.131 182.943C270.94 184.374 271.545 185.106 272.69 185.106C273.072 185.106 273.454 185.011 273.899 184.82L273.581 183.738C273.39 183.802 273.167 183.865 272.976 183.865C272.626 183.865 272.531 183.674 272.563 183.229L274.122 172.476ZM263.973 180.493C264.196 178.902 264.959 177.184 266.773 177.184C267.727 177.184 267.95 177.821 267.95 178.234C267.982 179.73 266.486 180.239 263.973 180.493ZM269.572 178.203C269.572 177.057 268.65 175.976 266.805 175.976C263.496 175.976 262.319 179.189 262.319 181.575C262.319 183.77 263.496 185.106 265.659 185.106C266.805 185.106 267.854 184.724 268.777 184.056L268.141 183.038C267.345 183.611 266.614 183.865 265.818 183.865C264.705 183.865 263.973 183.293 263.941 181.702C266.932 181.32 269.572 180.652 269.572 178.203ZM261.969 176.166H260.315L257.07 183.515L255.861 176.166H254.206L255.956 184.883H257.77L261.969 176.166ZM243.199 180.493C243.422 178.902 244.185 177.184 245.999 177.184C246.953 177.184 247.207 177.821 247.207 178.234C247.176 179.73 245.68 180.239 243.199 180.493ZM248.766 178.203C248.766 177.057 247.844 175.976 245.999 175.976C242.69 175.976 241.513 179.189 241.513 181.575C241.513 183.77 242.69 185.106 244.853 185.106C245.999 185.106 247.048 184.724 247.971 184.056L247.335 183.038C246.539 183.611 245.808 183.865 245.012 183.865C243.899 183.865 243.167 183.293 243.135 181.702C246.158 181.32 248.766 180.652 248.766 178.203ZM230.378 180.493C230.601 178.902 231.364 177.184 233.178 177.184C234.132 177.184 234.355 177.821 234.355 178.234C234.387 179.73 232.891 180.239 230.378 180.493ZM235.977 178.203C235.977 177.057 235.055 175.976 233.21 175.976C229.901 175.976 228.724 179.189 228.724 181.575C228.724 183.77 229.901 185.106 232.064 185.106C233.21 185.106 234.259 184.724 235.182 184.056L234.546 183.038C233.75 183.611 233.019 183.865 232.223 183.865C231.11 183.865 230.378 183.293 230.346 181.702C233.337 181.32 235.977 180.652 235.977 178.203ZM225.574 175.976C222.329 175.976 221.152 179.252 221.152 181.543C221.152 183.77 222.361 185.106 224.429 185.106C225.384 185.106 226.306 184.82 227.165 184.183L226.561 183.134C225.861 183.579 225.288 183.802 224.525 183.802C223.411 183.802 222.743 183.165 222.743 181.638C222.743 179.825 223.379 177.216 225.606 177.216C226.274 177.216 226.783 177.407 227.324 177.853L228.151 176.898C227.388 176.262 226.529 175.976 225.574 175.976ZM219.339 176.166H217.844L216.603 184.883H218.098L219.339 176.166ZM218.925 174.067C219.562 174.067 220.071 173.59 220.071 172.953C220.071 172.412 219.689 171.999 219.084 171.999C218.448 171.999 217.939 172.476 217.939 173.112C217.939 173.653 218.321 174.067 218.925 174.067ZM215.012 172.476L213.485 172.667L212.022 182.943C211.831 184.374 212.435 185.106 213.581 185.106C213.963 185.106 214.344 185.011 214.79 184.82L214.472 183.738C214.281 183.802 214.058 183.865 213.867 183.865C213.517 183.865 213.422 183.674 213.454 183.229L215.012 172.476ZM205.468 183.897C204.864 183.897 204.482 183.833 203.941 183.643L204.641 178.457C205.277 177.789 205.977 177.184 206.932 177.184C207.823 177.184 208.459 177.725 208.459 179.284C208.459 181.257 207.663 183.897 205.468 183.897ZM201.746 188.478L203.241 188.287L203.75 184.82C204.291 185.011 204.8 185.106 205.405 185.106C208.809 185.106 210.049 181.861 210.049 179.411C210.049 177.216 209 175.976 207.377 175.976C206.486 175.976 205.627 176.262 204.737 177.28L204.768 176.198H203.464L201.746 188.478ZM198.183 175.976C197.101 175.976 196.179 176.612 195.32 177.757C195.161 176.612 194.365 175.976 193.411 175.976C192.266 175.976 191.343 176.707 190.548 177.853L190.675 176.166H189.371L188.13 184.883H189.625L190.325 179.634C191.025 178.393 191.884 177.216 192.87 177.216C193.411 177.216 193.888 177.471 193.729 178.775L192.87 184.883H194.365L195.097 179.634C195.797 178.393 196.656 177.216 197.61 177.216C198.183 177.216 198.66 177.471 198.469 178.775L197.61 184.883H199.106L199.996 178.68C200.315 177.057 199.487 175.976 198.183 175.976ZM181.195 180.493C181.417 178.902 182.181 177.184 183.994 177.184C184.949 177.184 185.171 177.821 185.171 178.234C185.203 179.73 183.708 180.239 181.195 180.493ZM186.794 178.203C186.794 177.057 185.871 175.976 184.026 175.976C180.718 175.976 179.54 179.189 179.54 181.575C179.54 183.77 180.718 185.106 182.881 185.106C184.026 185.106 185.076 184.724 185.999 184.056L185.362 183.038C184.567 183.611 183.835 183.865 183.04 183.865C181.926 183.865 181.195 183.293 181.163 181.702C184.185 181.32 186.794 180.652 186.794 178.203ZM175.405 175.976C173.146 175.976 172.096 177.312 172.096 178.457C172.096 179.634 172.764 180.334 174.419 180.843C175.818 181.288 176.264 181.575 176.264 182.466C176.264 183.038 175.818 183.897 174.291 183.897C173.305 183.897 172.51 183.547 171.842 182.975L170.983 183.865C171.651 184.533 172.701 185.138 174.228 185.138C176.041 185.138 177.854 184.279 177.854 182.338C177.854 180.97 177.027 180.239 175.373 179.73C174.196 179.38 173.623 179.093 173.623 178.393C173.623 177.662 174.291 177.216 175.373 177.216C176.136 177.216 176.868 177.471 177.504 177.98L178.236 177.057C177.504 176.389 176.614 175.976 175.405 175.976ZM160.293 180.779L162.902 174.83L163.825 180.779H160.293ZM164.461 184.915H166.083L164.079 173.494H162.107L156.858 184.915H158.48L159.753 182.052H164.047L164.461 184.915ZM153.549 179.475H152.213L152.881 174.735H154.312C155.808 174.735 156.762 175.18 156.762 176.516C156.762 177.98 156.126 179.475 153.549 179.475ZM154.44 173.494H151.513L149.89 184.915H151.449L152.022 180.716H153.485C157.144 180.716 158.385 178.616 158.385 176.516C158.416 174.449 156.921 173.494 154.44 173.494ZM140.728 177.184C141.301 177.184 141.683 177.28 142.16 177.471L141.492 182.306C140.824 183.229 140.124 183.929 139.169 183.929C138.247 183.929 137.706 183.261 137.706 181.797C137.642 179.825 138.501 177.184 140.728 177.184ZM140.696 175.976C137.292 175.976 136.052 179.38 136.052 181.766C136.052 183.77 137.038 185.106 138.819 185.106C139.837 185.106 140.728 184.533 141.428 183.643C141.555 184.597 142.096 184.979 142.955 185.106L143.4 184.056C142.86 183.833 142.796 183.515 142.86 182.911L143.75 176.707C142.764 176.262 141.81 175.976 140.696 175.976ZM131.948 175.976C130.675 175.976 129.721 176.739 128.925 177.884L129.053 176.166H127.748L126.508 184.883H128.003L128.735 179.634C129.434 178.393 130.389 177.216 131.502 177.216C132.17 177.216 132.584 177.534 132.425 178.775L131.566 184.883H133.061L133.92 178.743C134.206 177.057 133.411 175.976 131.948 175.976ZM119.35 185.106C120.558 185.106 121.417 184.406 122.245 183.293L122.117 184.915H123.422L124.662 176.198H123.167L122.372 181.893C121.704 182.911 120.813 183.961 119.731 183.961C118.968 183.961 118.65 183.547 118.809 182.338L119.668 176.198H118.172L117.282 182.402C116.995 184.088 117.823 185.106 119.35 185.106Z" fill="black"/>
<path d="M253.22 158.415C252.265 158.415 251.343 159.051 250.675 160.387L250.77 158.605H249.498L248.257 167.322H249.752L250.42 162.709C251.025 160.928 251.788 159.91 252.933 159.91C253.22 159.91 253.411 159.942 253.633 160.005L254.079 158.542C253.824 158.446 253.538 158.415 253.22 158.415ZM241.29 162.932C241.512 161.341 242.276 159.624 244.089 159.624C245.044 159.624 245.266 160.26 245.266 160.673C245.266 162.169 243.771 162.646 241.29 162.932ZM246.857 160.61C246.857 159.464 245.935 158.383 244.089 158.383C240.781 158.383 239.604 161.596 239.604 163.982C239.604 166.177 240.781 167.513 242.944 167.513C244.089 167.513 245.139 167.131 246.062 166.463L245.426 165.445C244.63 166.018 243.898 166.273 243.103 166.273C241.99 166.273 241.258 165.7 241.226 164.109C244.248 163.759 246.857 163.059 246.857 160.61ZM233.336 166.304C232.732 166.304 232.35 166.241 231.809 166.05L232.509 160.864C233.146 160.196 233.845 159.592 234.8 159.592C235.691 159.592 236.327 160.133 236.327 161.691C236.327 163.664 235.532 166.304 233.336 166.304ZM229.614 170.917L231.109 170.726L231.619 167.259C232.159 167.45 232.668 167.545 233.273 167.545C236.677 167.545 237.918 164.3 237.918 161.85C237.918 159.655 236.868 158.415 235.245 158.415C234.354 158.415 233.496 158.701 232.605 159.719L232.637 158.637H231.332L229.614 170.917ZM219.561 166.304C218.384 166.304 217.748 165.604 217.748 164.077C217.748 162.391 218.352 159.624 220.643 159.624C221.788 159.624 222.424 160.323 222.424 161.85C222.424 163.505 221.82 166.304 219.561 166.304ZM219.498 167.513C222.933 167.513 224.015 164.109 224.015 162.01C224.015 159.783 222.87 158.383 220.675 158.383C217.271 158.383 216.157 161.755 216.157 163.887C216.157 166.145 217.334 167.513 219.498 167.513ZM212.021 158.415C209.763 158.415 208.713 159.751 208.713 160.896C208.713 162.073 209.381 162.773 211.035 163.282C212.435 163.727 212.88 164.014 212.88 164.905C212.88 165.477 212.435 166.336 210.908 166.336C209.922 166.336 209.126 165.986 208.458 165.414L207.599 166.304C208.267 166.972 209.317 167.577 210.844 167.577C212.658 167.577 214.471 166.718 214.471 164.777C214.471 163.409 213.644 162.678 211.99 162.169C210.813 161.819 210.24 161.532 210.24 160.832C210.24 160.101 210.908 159.655 211.99 159.655C212.753 159.655 213.485 159.91 214.121 160.419L214.853 159.496C214.121 158.828 213.23 158.415 212.021 158.415ZM207.472 158.415C206.518 158.415 205.595 159.051 204.927 160.387L205.023 158.605H203.718L202.477 167.322H203.973L204.641 162.709C205.245 160.928 206.009 159.91 207.154 159.91C207.44 159.91 207.631 159.942 207.854 160.005L208.299 158.542C208.108 158.446 207.79 158.415 207.472 158.415ZM196.274 166.304C195.097 166.304 194.461 165.604 194.461 164.077C194.461 162.391 195.065 159.624 197.356 159.624C198.501 159.624 199.137 160.323 199.137 161.85C199.137 163.505 198.533 166.304 196.274 166.304ZM196.21 167.513C199.646 167.513 200.728 164.109 200.728 162.01C200.728 159.783 199.582 158.383 197.387 158.383C193.983 158.383 192.87 161.755 192.87 163.887C192.87 166.145 194.047 167.513 196.21 167.513ZM189.72 158.415C186.475 158.415 185.298 161.691 185.298 163.982C185.298 166.209 186.475 167.545 188.575 167.545C189.529 167.545 190.452 167.259 191.311 166.622L190.707 165.573C190.007 166.018 189.434 166.241 188.67 166.241C187.557 166.241 186.889 165.604 186.889 164.077C186.889 162.264 187.525 159.655 189.752 159.655C190.42 159.655 190.929 159.846 191.47 160.292L192.297 159.337C191.534 158.669 190.707 158.415 189.72 158.415ZM176.9 158.415C175.627 158.415 174.673 159.178 173.877 160.323L174.005 158.605H172.7L171.459 167.322H172.955L173.686 162.073C174.386 160.832 175.341 159.655 176.454 159.655C177.122 159.655 177.536 159.973 177.377 161.214L176.518 167.322H178.013L178.872 161.182C179.158 159.464 178.363 158.415 176.9 158.415ZM169.582 158.605H168.087L166.847 167.322H168.342L169.582 158.605ZM169.201 156.474C169.837 156.474 170.346 155.997 170.346 155.361C170.346 154.82 169.964 154.406 169.36 154.406C168.723 154.406 168.214 154.883 168.214 155.52C168.214 156.06 168.596 156.474 169.201 156.474ZM160.675 158.605H159.179L157.939 167.322H159.434L160.675 158.605ZM160.293 156.474C160.929 156.474 161.438 155.997 161.438 155.361C161.438 154.82 161.056 154.406 160.452 154.406C159.816 154.406 159.307 154.883 159.307 155.52C159.307 156.06 159.688 156.474 160.293 156.474ZM156.603 158.415C155.648 158.415 154.726 159.051 154.058 160.387L154.153 158.605H152.849L151.608 167.322H153.103L153.771 162.709C154.376 160.928 155.139 159.91 156.284 159.91C156.571 159.91 156.762 159.942 156.984 160.005L157.43 158.542C157.207 158.446 156.889 158.415 156.603 158.415ZM145.372 166.304C144.195 166.304 143.559 165.604 143.559 164.077C143.559 162.391 144.164 159.624 146.454 159.624C147.599 159.624 148.236 160.323 148.236 161.85C148.236 163.505 147.631 166.304 145.372 166.304ZM145.309 167.513C148.745 167.513 149.826 164.109 149.826 162.01C149.826 159.783 148.681 158.383 146.486 158.383C143.082 158.383 141.968 161.755 141.968 163.887C141.968 166.145 143.146 167.513 145.309 167.513ZM141.65 158.605H139.996L136.751 165.954L135.574 158.605H133.92L135.669 167.322H137.483L141.65 158.605ZM129.307 159.624C129.879 159.624 130.261 159.719 130.738 159.91L130.07 164.745C129.402 165.668 128.702 166.368 127.748 166.368C126.825 166.368 126.284 165.7 126.284 164.236C126.221 162.232 127.08 159.624 129.307 159.624ZM129.275 158.415C125.871 158.415 124.63 161.819 124.63 164.205C124.63 166.209 125.616 167.545 127.43 167.545C128.448 167.545 129.339 166.972 130.038 166.082C130.166 167.036 130.707 167.418 131.565 167.545L132.011 166.495C131.47 166.273 131.406 165.954 131.47 165.35L132.361 159.146C131.343 158.669 130.388 158.415 129.275 158.415ZM120.24 155.901H118.681L117.059 167.322H123.103L123.453 165.954H118.808L120.24 155.901Z" fill="black"/>
<path d="M300.145 104.746H288.788V125.711H300.4V123.388H291.683V116.198H298.745V113.876H291.683V107.036H299.795L300.145 104.746ZM282.743 104.746H280.039V116.198C280.039 118.743 280.389 122.116 280.421 122.593L271.799 104.746H268.014V125.711H270.718V116.103C270.718 112.222 270.463 109.645 270.336 107.927L278.862 125.742H282.711V104.746H282.743V104.746ZM254.493 106.75C258.088 106.75 260.283 109.199 260.283 115.244C260.283 121.32 258.024 123.706 254.493 123.706C251.089 123.706 248.703 121.32 248.703 115.276C248.735 109.199 250.993 106.75 254.493 106.75ZM254.493 104.364C249.244 104.364 245.649 108.34 245.649 115.244C245.649 122.275 249.275 126.06 254.493 126.06C259.742 126.06 263.337 122.179 263.337 115.212C263.369 108.181 259.774 104.364 254.493 104.364ZM240.972 104.746H238.077V125.711H240.972V104.746ZM233.687 104.746H221.184V107.195H230.569L220.103 123.42V125.742H233.369L233.719 123.293H223.348L233.719 107.132L233.687 104.746ZM207.155 118.107L210.431 107.163L213.676 118.107H207.155ZM215.967 125.711H219.021L212.34 104.746H208.682L201.969 125.711H204.896L206.487 120.461H214.44L215.967 125.711ZM202.033 104.746H199.106L193.857 122.593L188.607 104.746H185.49L192.234 125.711H195.352L202.033 104.746ZM174.959 106.75C178.554 106.75 180.75 109.199 180.75 115.244C180.75 121.32 178.491 123.706 174.959 123.706C171.555 123.706 169.169 121.32 169.169 115.276C169.169 109.199 171.46 106.75 174.959 106.75ZM174.959 104.364C169.71 104.364 166.115 108.34 166.115 115.244C166.115 122.275 169.742 126.06 174.959 126.06C180.209 126.06 183.804 122.179 183.804 115.212C183.804 108.181 180.209 104.364 174.959 104.364ZM161.407 104.746H158.703V116.198C158.703 118.743 159.053 122.116 159.085 122.593L150.463 104.746H146.677V125.711H149.382V116.103C149.382 112.222 149.127 109.645 149 107.927L157.526 125.742H161.375V104.746H161.407V104.746ZM140.665 104.746H137.961V116.198C137.961 118.743 138.31 122.116 138.342 122.593L129.721 104.746H125.935V125.711H128.639V116.103C128.639 112.222 128.385 109.645 128.257 107.927L136.783 125.742H140.633V104.746H140.665V104.746ZM119.922 104.746H117.027V125.711H119.922V104.746Z" fill="black"/>
<path d="M243.04 73.632H231.683V94.597H243.263V92.2746H234.546V85.0848H241.609V82.7624H234.546V75.9226H242.659L243.04 73.632ZM216.158 83.4941V75.8907H218.735C222.171 75.8907 223.666 76.9406 223.666 79.5811C223.666 82.4125 221.98 83.4941 219.085 83.4941H216.158V83.4941ZM224.43 94.597H227.865L222.203 85.1803C225.225 84.2577 226.752 82.5079 226.752 79.5493C226.752 75.6362 224.016 73.6002 218.767 73.6002H213.263V94.5652H216.158V85.6893H219.403L224.43 94.597ZM208.332 73.632H197.007V94.597H208.587V92.2746H199.87V85.0848H206.932V82.7624H199.87V75.9226H207.982L208.332 73.632ZM190.898 73.632H188.003V94.597H190.898V73.632ZM184.663 73.632H169.679V76.0816H175.628V94.597H178.523V76.0816H184.345L184.663 73.632ZM166.211 73.632H163.507V85.0848C163.507 87.6299 163.857 91.0021 163.889 91.4793L155.267 73.632H151.482V94.597H154.186V84.9894C154.186 81.1081 153.931 78.5313 153.804 76.8133L162.33 94.6288H166.179V73.632H166.211V73.632ZM136.402 86.9936L139.679 76.0498L142.924 86.9936H136.402ZM145.214 94.597H148.268L141.588 73.632H137.929L131.216 94.597H134.143L135.734 89.3478H143.687L145.214 94.597ZM124.345 73.2502C119.605 73.2502 115.628 77.0042 115.628 84.0986C115.628 91.1612 119.318 94.9788 124.408 94.9788C127.24 94.9788 129.244 93.8335 130.389 92.6246L128.958 90.8112C127.781 91.702 126.476 92.5609 124.472 92.5609C121.227 92.5609 118.682 90.1749 118.682 84.1304C118.682 77.7995 121.323 75.6681 124.504 75.6681C125.967 75.6681 127.24 76.1453 128.544 77.2269L130.135 75.3817C128.481 73.9819 126.985 73.2502 124.345 73.2502Z" fill="black"/>
<path d="M207.854 42.5185H203.941L199.742 57.7571L195.32 42.5185H191.439L189.689 63.4835H192.425L193.125 54.2258C193.379 51.1399 193.507 47.895 193.507 45.4454L198.279 61.1293H200.983L205.532 45.4772C205.564 47.2269 205.787 50.7264 206.041 54.035L206.773 63.4835H209.572L207.854 42.5185ZM185.076 42.5185H182.149V56.5482C182.149 59.7932 180.718 61.4157 177.695 61.4157C174.705 61.4157 173.273 59.7932 173.273 56.5482V42.5185H170.378V56.7709C170.378 60.9385 172.892 63.8653 177.695 63.8653C182.404 63.8653 185.044 60.9385 185.044 56.7709V42.5185H185.076ZM155.394 52.3807V44.7773H157.971C161.407 44.7773 162.902 45.8271 162.902 48.4676C162.902 51.299 161.216 52.3807 158.321 52.3807H155.394V52.3807ZM163.666 63.4835H167.102L161.439 54.0668C164.461 53.1442 165.988 51.3945 165.988 48.4358C165.988 44.5228 163.252 42.4867 158.003 42.4867H152.499V63.4517H155.394V54.6076H158.639L163.666 63.4835ZM138.915 44.5228C142.51 44.5228 144.705 46.9724 144.705 53.0169C144.705 59.0933 142.446 61.4793 138.915 61.4793C135.511 61.4793 133.125 59.0933 133.125 53.0488C133.157 47.0042 135.415 44.5228 138.915 44.5228ZM138.915 42.1686C133.666 42.1686 130.071 46.1453 130.071 53.0488C130.071 60.0795 133.698 63.8653 138.915 63.8653C144.164 63.8653 147.759 59.9841 147.759 53.0169C147.791 45.9544 144.196 42.1686 138.915 42.1686ZM117.027 63.4835H119.922V54.2577H126.762V51.9671H119.922V44.8091H127.844L128.194 42.4867H117.059V63.4835H117.027Z" fill="black"/>
</svg>
