<svg width="107" height="188" viewBox="0 0 107 188" fill="none" xmlns="http://www.w3.org/2000/svg">
<path d="M71.2803 145.864V187.54L106.339 166.702V125.027L71.2803 145.864Z" fill="#E2C904"/>
<path d="M106.339 83.351L71.2803 104.189V145.864L106.339 125.027V83.351Z" fill="#FBE00E"/>
<path d="M1.19531 145.864V187.54L36.2536 166.702V125.027L1.19531 145.864Z" fill="#C8C8C8"/>
<path d="M106.339 41.6755L71.2803 62.5132V104.189L106.339 83.351V41.6755Z" fill="#E2C904"/>
<path d="M106.339 0L71.2803 20.8377V62.5133L106.339 41.6755V0Z" fill="#FBE00E"/>
<path d="M36.2534 166.702L71.2799 187.54V145.864L36.2534 125.027V166.702Z" fill="#D8D8D8"/>
<path d="M1.19531 62.5132V104.189L36.2536 83.351V41.6755L1.19531 62.5132Z" fill="#C8C8C8"/>
<path d="M36.2534 41.6755L71.2799 62.5132V104.189L36.2534 83.351V41.6755Z" fill="#D8D8D8"/>
</svg>
