<svg width="202" height="147" viewBox="0 0 202 147" fill="none" xmlns="http://www.w3.org/2000/svg">
<path d="M114.335 45.5146L82.9102 76.7184C82.9102 79.374 83.3528 82.0297 84.0167 84.6853L123.851 44.8507C123.851 44.8507 123.851 44.8507 123.63 44.8507C120.31 44.8507 117.212 45.072 114.335 45.5146Z" fill="url(#paint0_linear)"/>
<path d="M119.426 110.356L140.228 89.554C138.015 88.8901 135.802 88.2262 133.147 87.5623L112.344 108.365C114.115 109.029 116.328 109.693 118.541 110.135C118.762 110.356 118.983 110.356 119.426 110.356Z" fill="url(#paint1_linear)"/>
<path d="M92.2056 97.9634C92.6482 98.406 93.0908 98.8486 93.3121 99.0699C94.4186 99.9551 95.7464 101.062 97.0742 101.947L116.106 82.9148C112.787 81.8083 111.016 80.7018 110.131 80.0378L92.2056 97.9634Z" fill="url(#paint2_linear)"/>
<path d="M141.335 81.8085L148.195 81.5872L163.687 66.0959C162.801 64.1042 161.695 62.1125 160.588 60.342L141.114 79.8167C141.114 80.038 141.114 80.038 141.114 80.2593L141.335 81.8085Z" fill="url(#paint3_linear)"/>
<path d="M123.852 66.5386C126.95 66.5386 129.605 66.9812 131.818 67.6451L149.301 50.1621C147.31 49.0556 145.097 48.1704 142.884 47.5065L123.852 66.5386Z" fill="url(#paint4_linear)"/>
<path d="M103.713 117.217L83.7954 137.134C84.6806 139.126 86.0084 141.118 87.115 142.667L105.483 124.299C104.819 122.307 104.155 120.315 103.713 118.102V117.217Z" fill="url(#paint5_linear)"/>
<path d="M80.6977 118.545L78.9272 118.766L79.1486 120.094L80.6977 118.545Z" fill="url(#paint6_linear)"/>
<path d="M188.03 1.25403H92.2052C88.6643 1.25403 85.3448 2.58185 82.9104 4.79488L59.4523 25.8187H14.5277C7.2247 25.8187 1.24951 31.13 1.24951 37.7691V134.257C1.24951 140.896 7.2247 146.208 14.5277 146.208H88.0004C82.4678 139.79 79.1483 131.159 77.8205 120.758L77.5992 118.766C77.5992 118.323 77.5992 118.102 77.8205 117.66C78.0418 117.217 78.4844 117.217 78.7057 117.217L103.27 114.783C103.934 114.783 104.598 115.225 104.819 115.889L105.041 117.66C106.147 123.856 108.36 128.503 111.68 131.159C114.999 133.815 119.425 135.364 125.179 135.364C131.376 135.364 135.802 134.036 138.679 131.823C141.335 129.61 142.884 126.954 142.884 124.077C142.884 122.307 142.441 120.979 141.335 119.651C140.228 118.323 138.015 116.996 134.917 116.11C132.482 115.225 126.728 113.676 118.098 111.463C105.926 108.365 97.5165 104.824 92.4265 100.177C85.1235 93.7588 81.5826 85.7919 81.5826 76.2759C81.5826 70.3007 83.353 64.5468 86.6726 59.2355C89.9921 53.9242 95.0821 49.9408 101.5 47.2851C107.696 44.6295 115.221 43.3017 123.63 43.3017C137.794 43.3017 148.638 46.6212 155.941 52.8177C163.465 59.2355 167.227 67.8663 167.67 78.7102V80.4806C167.67 81.1445 167.227 81.8084 166.342 81.8084L141.335 83.1363C140.671 83.1363 140.007 82.6936 140.007 82.0297L139.785 80.4806C138.9 75.8332 137.351 72.5137 135.138 70.7433C132.704 68.7515 128.72 67.8663 123.63 67.8663C118.098 67.8663 113.893 68.9728 110.795 71.1859C109.246 72.2924 108.803 73.3989 108.803 75.1693C108.803 76.7185 109.467 78.0463 110.795 79.1528C112.122 80.2593 116.106 82.4723 129.163 85.5706C139.785 88.0049 147.974 90.6606 153.064 93.5375C158.596 96.4145 163.022 100.398 166.12 105.488C169.219 110.578 170.768 116.774 170.768 124.077C170.768 130.716 168.997 137.134 165.235 142.888C164.571 143.995 163.686 145.101 162.801 146.208H163.022H187.808C195.111 146.208 201.086 140.896 201.086 134.257V13.2044C201.086 6.56531 195.111 1.25403 188.03 1.25403Z" fill="url(#paint7_linear)"/>
<path d="M105.262 145.986H107.475H114.114L123.409 136.692C120.532 136.47 118.098 136.028 115.885 135.142L105.262 145.986Z" fill="url(#paint8_linear)"/>
<path d="M168.112 113.676L135.802 145.986H143.547H144.654L169.44 121.422C169.219 118.766 168.776 116.11 168.112 113.676Z" fill="url(#paint9_linear)"/>
<path d="M160.145 100.177C158.596 98.6274 157.047 97.2996 155.055 96.1931L136.245 115.004C138.9 115.889 140.671 116.996 141.999 118.323L160.145 100.177Z" fill="url(#paint10_linear)"/>
<defs>
<linearGradient id="paint0_linear" x1="82.9814" y1="64.7472" x2="123.861" y2="64.7472" gradientUnits="userSpaceOnUse">
<stop stop-color="#62A5DA"/>
<stop offset="0.6422" stop-color="#65B9DE"/>
<stop offset="1" stop-color="#68C6DE"/>
</linearGradient>
<linearGradient id="paint1_linear" x1="112.268" y1="99.1001" x2="140.021" y2="99.1001" gradientUnits="userSpaceOnUse">
<stop stop-color="#62A5DA"/>
<stop offset="0.6422" stop-color="#65B9DE"/>
<stop offset="1" stop-color="#68C6DE"/>
</linearGradient>
<linearGradient id="paint2_linear" x1="92.1863" y1="91.1293" x2="116.12" y2="91.1293" gradientUnits="userSpaceOnUse">
<stop stop-color="#62A5DA"/>
<stop offset="0.6422" stop-color="#65B9DE"/>
<stop offset="1" stop-color="#68C6DE"/>
</linearGradient>
<linearGradient id="paint3_linear" x1="141.038" y1="71.0567" x2="163.7" y2="71.0567" gradientUnits="userSpaceOnUse">
<stop stop-color="#62A5DA"/>
<stop offset="0.6422" stop-color="#65B9DE"/>
<stop offset="1" stop-color="#68C6DE"/>
</linearGradient>
<linearGradient id="paint4_linear" x1="123.825" y1="57.495" x2="149.156" y2="57.495" gradientUnits="userSpaceOnUse">
<stop stop-color="#62A5DA"/>
<stop offset="0.6422" stop-color="#65B9DE"/>
<stop offset="1" stop-color="#68C6DE"/>
</linearGradient>
<linearGradient id="paint5_linear" x1="83.6927" y1="129.928" x2="105.475" y2="129.928" gradientUnits="userSpaceOnUse">
<stop stop-color="#62A5DA"/>
<stop offset="0.6422" stop-color="#65B9DE"/>
<stop offset="1" stop-color="#68C6DE"/>
</linearGradient>
<linearGradient id="paint6_linear" x1="78.9064" y1="119.319" x2="80.7574" y2="119.319" gradientUnits="userSpaceOnUse">
<stop stop-color="#62A5DA"/>
<stop offset="0.6422" stop-color="#65B9DE"/>
<stop offset="1" stop-color="#68C6DE"/>
</linearGradient>
<linearGradient id="paint7_linear" x1="1.24951" y1="73.6747" x2="201.118" y2="73.6747" gradientUnits="userSpaceOnUse">
<stop stop-color="#62A5DA"/>
<stop offset="0.6422" stop-color="#65B9DE"/>
<stop offset="1" stop-color="#68C6DE"/>
</linearGradient>
<linearGradient id="paint8_linear" x1="105.191" y1="140.709" x2="123.489" y2="140.709" gradientUnits="userSpaceOnUse">
<stop stop-color="#62A5DA"/>
<stop offset="0.6422" stop-color="#65B9DE"/>
<stop offset="1" stop-color="#68C6DE"/>
</linearGradient>
<linearGradient id="paint9_linear" x1="135.706" y1="129.879" x2="169.358" y2="129.879" gradientUnits="userSpaceOnUse">
<stop stop-color="#62A5DA"/>
<stop offset="0.6422" stop-color="#65B9DE"/>
<stop offset="1" stop-color="#68C6DE"/>
</linearGradient>
<linearGradient id="paint10_linear" x1="136.194" y1="107.264" x2="160.134" y2="107.264" gradientUnits="userSpaceOnUse">
<stop stop-color="#62A5DA"/>
<stop offset="0.6422" stop-color="#65B9DE"/>
<stop offset="1" stop-color="#68C6DE"/>
</linearGradient>
</defs>
</svg>
