<svg width="201" height="146" viewBox="0 0 201 146" fill="none" xmlns="http://www.w3.org/2000/svg">
<path d="M166.515 67.4326V66.99L161.867 71.4161H162.31C164.744 71.4161 166.515 69.6456 166.515 67.4326Z" fill="url(#paint0_linear)"/>
<path d="M130.441 71.4161H139.736L161.866 49.2858H152.793L130.441 71.4161Z" fill="url(#paint1_linear)"/>
<path d="M99.4592 49.2858C97.2461 49.2858 95.2544 51.0562 95.2544 53.4905V62.3427C99.9018 57.474 105.213 53.0479 110.746 49.2858H99.4592Z" fill="url(#paint2_linear)"/>
<path d="M95.2544 84.6943L130.663 49.2858H121.368L95.2544 75.3996V84.6943Z" fill="url(#paint3_linear)"/>
<path d="M187.759 0.377686H91.9347C88.3938 0.377686 85.0743 1.70551 82.6399 3.91854L59.1818 24.9424H14.2572C6.95419 24.9424 0.979004 30.2536 0.979004 36.8927V133.381C0.979004 140.02 6.95419 145.331 14.2572 145.331H90.1642H93.2625V53.4905C93.2625 50.1709 95.9181 47.294 99.459 47.294H162.53C165.85 47.294 168.727 49.9496 168.727 53.4905V67.4326C168.727 70.7521 166.071 73.6291 162.53 73.6291H122.696V90.8907H156.555C159.875 90.8907 162.752 93.5464 162.752 97.0872V110.808C162.752 114.128 160.096 117.005 156.555 117.005H122.696V145.553H143.056H162.752H187.538C194.841 145.553 200.816 140.241 200.816 133.602V12.3281C200.816 5.68897 194.841 0.377686 187.759 0.377686Z" fill="url(#paint4_linear)"/>
<path d="M95.2544 116.119L120.704 90.4482V81.3748L95.2544 106.825V116.119Z" fill="url(#paint5_linear)"/>
<path d="M119.376 145.331H120.704V144.004L119.376 145.331Z" fill="url(#paint6_linear)"/>
<path d="M160.76 110.587V103.948L150.137 114.57H156.776C158.768 114.791 160.76 113.021 160.76 110.587Z" fill="url(#paint7_linear)"/>
<path d="M95.2544 145.331H97.2461L120.704 121.873V114.791H127.786L149.916 92.6611H140.622L95.2544 138.25V145.331Z" fill="url(#paint8_linear)"/>
<defs>
<linearGradient id="paint0_linear" x1="161.872" y1="69.182" x2="166.512" y2="69.182" gradientUnits="userSpaceOnUse">
<stop stop-color="#941821"/>
<stop offset="1" stop-color="#E6224A"/>
</linearGradient>
<linearGradient id="paint1_linear" x1="130.528" y1="60.422" x2="161.913" y2="60.422" gradientUnits="userSpaceOnUse">
<stop stop-color="#941821"/>
<stop offset="1" stop-color="#E6224A"/>
</linearGradient>
<linearGradient id="paint2_linear" x1="95.2316" y1="55.883" x2="110.768" y2="55.883" gradientUnits="userSpaceOnUse">
<stop stop-color="#941821"/>
<stop offset="1" stop-color="#E6224A"/>
</linearGradient>
<linearGradient id="paint3_linear" x1="95.2316" y1="67.0113" x2="130.57" y2="67.0113" gradientUnits="userSpaceOnUse">
<stop stop-color="#941821"/>
<stop offset="1" stop-color="#E6224A"/>
</linearGradient>
<linearGradient id="paint4_linear" x1="0.979004" y1="72.8897" x2="200.848" y2="72.8897" gradientUnits="userSpaceOnUse">
<stop stop-color="#941821"/>
<stop offset="1" stop-color="#E6224A"/>
</linearGradient>
<linearGradient id="paint5_linear" x1="95.2316" y1="98.6623" x2="120.73" y2="98.6623" gradientUnits="userSpaceOnUse">
<stop stop-color="#941821"/>
<stop offset="1" stop-color="#E6224A"/>
</linearGradient>
<linearGradient id="paint6_linear" x1="119.407" y1="144.649" x2="120.73" y2="144.649" gradientUnits="userSpaceOnUse">
<stop stop-color="#941821"/>
<stop offset="1" stop-color="#E6224A"/>
</linearGradient>
<linearGradient id="paint7_linear" x1="149.953" y1="109.414" x2="160.652" y2="109.414" gradientUnits="userSpaceOnUse">
<stop stop-color="#941821"/>
<stop offset="1" stop-color="#E6224A"/>
</linearGradient>
<linearGradient id="paint8_linear" x1="95.2316" y1="119.025" x2="149.859" y2="119.025" gradientUnits="userSpaceOnUse">
<stop stop-color="#941821"/>
<stop offset="1" stop-color="#E6224A"/>
</linearGradient>
</defs>
</svg>
