<svg width="751" height="222" viewBox="0 0 751 222" fill="none" xmlns="http://www.w3.org/2000/svg">
<path d="M238.828 212.451C236.615 211.787 235.066 211.123 233.959 210.017C232.853 209.132 232.41 208.025 232.41 206.476C232.41 204.927 233.074 203.599 234.181 202.714C235.508 201.607 237.057 201.165 239.049 201.165C240.377 201.165 241.705 201.386 242.59 202.05C243.475 202.714 244.582 203.378 245.024 204.263C245.467 205.148 245.91 206.255 245.91 207.361H243.254C243.254 206.255 242.811 205.148 242.147 204.484C241.484 203.82 240.377 203.378 238.828 203.378C237.5 203.378 236.615 203.599 235.73 204.263C235.066 204.927 234.623 205.591 234.623 206.697C234.623 207.582 235.066 208.246 235.73 208.689C236.394 209.132 237.5 209.796 239.271 210.238C240.82 210.681 242.147 211.123 243.033 211.787C243.918 212.451 244.582 212.894 245.024 213.779C245.467 214.443 245.688 215.328 245.688 216.435C245.688 217.984 245.024 219.312 243.918 220.197C242.59 221.082 241.041 221.746 238.828 221.746C237.5 221.746 236.172 221.525 235.066 220.861C233.959 220.418 233.074 219.533 232.41 218.648C231.746 217.762 231.525 216.656 231.525 215.549H234.181C234.181 216.656 234.623 217.762 235.508 218.426C236.394 219.09 237.5 219.533 239.049 219.533C240.377 219.533 241.484 219.312 242.147 218.648C242.811 217.984 243.254 217.32 243.254 216.435C243.254 215.549 242.811 214.664 242.147 214.222C241.484 213.779 240.598 212.894 238.828 212.451Z" fill="#010202"/>
<path d="M250.999 202.714C250.999 202.271 251.22 202.05 251.442 201.607C251.663 201.386 252.106 201.165 252.548 201.165C252.991 201.165 253.433 201.386 253.655 201.607C253.876 201.829 254.097 202.271 254.097 202.714C254.097 203.156 253.876 203.378 253.655 203.82C253.433 204.263 252.991 204.263 252.548 204.263C252.106 204.263 251.663 204.042 251.442 203.82C251.22 203.378 250.999 203.156 250.999 202.714ZM253.876 221.303H251.442V206.697H253.876V221.303Z" fill="#010202"/>
<path d="M268.482 217.32C268.482 216.656 268.261 216.213 267.818 215.771C267.376 215.328 266.491 215.107 265.163 214.885C263.835 214.664 262.95 214.222 262.064 214C261.179 213.779 260.737 213.115 260.515 212.672C260.073 212.23 260.073 211.566 260.073 210.902C260.073 209.796 260.515 208.689 261.622 207.804C262.728 206.919 263.835 206.476 265.605 206.476C267.376 206.476 268.704 206.919 269.589 207.804C270.474 208.689 271.138 209.796 271.138 211.123H268.704C268.704 210.459 268.482 209.796 267.818 209.353C267.154 208.91 266.491 208.689 265.605 208.689C264.72 208.689 264.056 208.91 263.392 209.353C262.95 209.796 262.728 210.238 262.728 210.902C262.728 211.566 262.95 212.009 263.392 212.23C263.835 212.451 264.72 212.894 266.048 213.115C267.376 213.336 268.261 213.779 269.146 214.222C270.031 214.664 270.474 215.107 270.917 215.549C271.359 215.992 271.581 216.656 271.581 217.541C271.581 218.869 271.138 219.975 270.031 220.639C268.925 221.525 267.597 221.746 266.048 221.746C264.941 221.746 263.835 221.525 262.95 221.082C262.064 220.639 261.401 219.975 260.737 219.312C260.294 218.648 260.073 217.762 260.073 216.877H262.507C262.507 217.762 262.95 218.426 263.614 218.869C264.278 219.312 265.163 219.533 266.048 219.533C266.933 219.533 267.818 219.312 268.261 218.869C268.704 218.426 268.482 217.984 268.482 217.32Z" fill="#010202"/>
<path d="M279.769 203.156V206.697H282.425V208.689H279.769V217.762C279.769 218.426 279.99 218.869 280.212 219.09C280.433 219.312 280.876 219.533 281.54 219.533C281.761 219.533 282.204 219.533 282.646 219.312V221.303C281.982 221.525 281.318 221.525 280.654 221.525C279.548 221.525 278.663 221.082 278.22 220.418C277.556 219.754 277.335 218.869 277.335 217.541V208.468H274.679V206.476H277.335V202.935H279.769V203.156Z" fill="#010202"/>
<path d="M293.711 221.525C291.72 221.525 290.171 220.861 288.843 219.533C287.515 218.205 287.072 216.435 287.072 214.222V213.779C287.072 212.23 287.294 211.123 287.957 209.796C288.621 208.689 289.285 207.804 290.392 207.14C291.498 206.476 292.384 206.255 293.711 206.255C295.703 206.255 297.031 206.919 298.137 208.246C299.244 209.574 299.687 211.345 299.687 213.558V214.664H289.728C289.728 216.213 290.171 217.32 291.056 218.205C291.941 219.09 292.826 219.533 294.154 219.533C295.039 219.533 295.703 219.312 296.367 219.09C297.031 218.648 297.474 218.205 297.916 217.541L299.465 218.648C297.916 220.639 296.146 221.525 293.711 221.525ZM293.269 208.468C292.162 208.468 291.498 208.91 290.613 209.574C289.949 210.238 289.507 211.345 289.285 212.672H296.588V212.451C296.588 211.123 296.146 210.238 295.482 209.574C295.26 208.689 294.375 208.468 293.269 208.468Z" fill="#010202"/>
<path d="M306.768 206.697V208.246C307.875 206.919 309.203 206.255 311.195 206.255C313.186 206.255 314.735 207.14 315.399 208.689C315.842 208.025 316.506 207.361 317.391 206.919C318.276 206.476 319.161 206.255 320.268 206.255C323.588 206.255 325.137 208.025 325.137 211.345V221.082H322.702V211.345C322.702 210.238 322.481 209.574 322.038 208.91C321.596 208.246 320.711 208.025 319.604 208.025C318.719 208.025 317.834 208.246 317.391 208.91C316.727 209.574 316.506 210.238 316.285 211.123V220.861H313.85V211.123C313.85 208.91 312.744 208.025 310.752 208.025C309.203 208.025 307.875 208.689 307.432 210.238V220.861H304.998V206.255H306.768V206.697Z" fill="#010202"/>
<path d="M339.964 221.303C339.743 221.082 339.743 220.418 339.521 219.754C338.415 220.861 336.866 221.525 335.316 221.525C333.767 221.525 332.661 221.082 331.776 220.197C330.89 219.312 330.448 218.426 330.448 217.099C330.448 215.549 331.112 214.443 332.218 213.558C333.325 212.672 335.095 212.23 337.087 212.23H339.521V211.123C339.521 210.238 339.3 209.574 338.636 209.132C337.972 208.689 337.308 208.246 336.423 208.246C335.538 208.246 334.874 208.468 334.21 208.91C333.546 209.353 333.325 210.017 333.325 210.459H330.669C330.669 209.796 330.89 208.91 331.554 208.246C331.997 207.583 332.882 206.919 333.767 206.697C334.653 206.255 335.538 206.033 336.644 206.033C338.415 206.033 339.743 206.476 340.628 207.361C341.513 208.246 342.177 209.353 342.177 210.902V217.762C342.177 219.09 342.398 220.197 342.619 221.082V221.303H339.964ZM335.759 219.312C336.644 219.312 337.308 219.09 337.972 218.648C338.636 218.205 339.3 217.762 339.521 217.099V214H337.529C334.431 214 332.882 214.886 332.882 216.656C332.882 217.541 333.103 217.984 333.767 218.426C334.21 219.09 334.874 219.312 335.759 219.312Z" fill="#010202"/>
<path d="M356.34 213.779C356.34 211.566 356.782 209.796 357.889 208.246C358.995 206.919 360.323 206.255 362.094 206.255C363.864 206.255 365.192 206.919 366.077 208.025V200.279H368.512V221.082H366.298L366.077 219.533C364.971 220.861 363.643 221.303 361.872 221.303C360.102 221.303 358.774 220.639 357.668 219.312C357.004 217.984 356.34 216.213 356.34 213.779ZM358.774 214.222C358.774 215.992 359.217 217.099 359.881 218.205C360.545 219.09 361.43 219.533 362.758 219.533C364.307 219.533 365.413 218.869 366.298 217.32V210.681C365.635 209.353 364.307 208.689 362.758 208.689C361.43 208.689 360.545 209.132 359.881 210.017C359.217 210.902 358.774 212.23 358.774 214.222Z" fill="#010202"/>
<path d="M374.708 202.714C374.708 202.271 374.93 202.05 375.151 201.607C375.372 201.386 375.815 201.165 376.258 201.165C376.7 201.165 377.143 201.386 377.364 201.607C377.585 201.829 377.807 202.271 377.807 202.714C377.807 203.156 377.585 203.378 377.364 203.82C377.143 204.263 376.7 204.263 376.258 204.263C375.815 204.263 375.372 204.042 375.151 203.82C374.93 203.378 374.708 203.156 374.708 202.714ZM377.364 221.303H374.93V206.697H377.364V221.303Z" fill="#010202"/>
<path d="M400.158 213.336H395.511V221.303H392.855V201.607H399.494C401.707 201.607 403.478 202.05 404.584 203.156C405.691 204.263 406.354 205.591 406.354 207.583C406.354 208.91 406.133 209.796 405.248 210.902C404.363 212.009 403.699 212.451 402.371 212.894L407.018 221.303V221.525H404.141L400.158 213.336ZM395.511 211.123H399.494C400.822 211.123 401.707 210.681 402.592 210.017C403.256 209.353 403.699 208.468 403.699 207.361C403.699 206.033 403.256 205.148 402.592 204.484C401.928 203.82 400.822 203.599 399.494 203.599H395.511V211.123Z" fill="#010202"/>
<path d="M411.666 202.714C411.666 202.271 411.887 202.05 412.108 201.607C412.329 201.386 412.772 201.165 413.215 201.165C413.657 201.165 414.1 201.386 414.321 201.607C414.542 201.829 414.764 202.271 414.764 202.714C414.764 203.156 414.542 203.378 414.321 203.82C414.1 204.263 413.657 204.263 413.215 204.263C412.772 204.263 412.329 204.042 412.108 203.82C411.887 203.378 411.666 203.156 411.666 202.714ZM414.542 221.303H412.108V206.697H414.542V221.303Z" fill="#010202"/>
<path d="M429.149 217.32C429.149 216.656 428.927 216.213 428.485 215.771C428.042 215.328 427.157 215.107 425.829 214.885C424.501 214.664 423.616 214.222 422.731 214C421.846 213.779 421.403 213.115 421.182 212.672C420.739 212.23 420.739 211.566 420.739 210.902C420.739 209.796 421.182 208.689 422.288 207.804C423.395 206.919 424.501 206.476 426.272 206.476C428.042 206.476 429.37 206.919 430.255 207.804C431.141 208.689 431.804 209.796 431.804 211.123H429.37C429.37 210.459 429.149 209.796 428.485 209.353C427.821 208.91 427.157 208.689 426.272 208.689C425.387 208.689 424.723 208.91 424.059 209.353C423.616 209.796 423.395 210.238 423.395 210.902C423.395 211.566 423.616 212.009 424.059 212.23C424.501 212.451 425.387 212.894 426.714 213.115C428.042 213.336 428.927 213.779 429.813 214.222C430.698 214.664 431.141 215.107 431.583 215.549C432.026 215.992 432.247 216.656 432.247 217.541C432.247 218.869 431.804 219.975 430.698 220.639C429.591 221.525 428.264 221.746 426.714 221.746C425.608 221.746 424.501 221.525 423.616 221.082C422.731 220.639 422.067 219.975 421.403 219.312C420.961 218.648 420.739 217.762 420.739 216.877H423.174C423.174 217.762 423.616 218.426 424.28 218.869C424.944 219.312 425.829 219.533 426.714 219.533C427.6 219.533 428.485 219.312 428.927 218.869C429.37 218.426 429.149 217.984 429.149 217.32Z" fill="#010202"/>
<path d="M442.87 219.533C443.755 219.533 444.64 219.312 445.304 218.648C445.968 217.984 446.41 217.32 446.41 216.656H448.845C448.845 217.541 448.402 218.205 447.96 219.09C447.517 219.754 446.632 220.418 445.747 220.861C444.861 221.303 443.976 221.525 442.87 221.525C440.878 221.525 439.329 220.861 438.001 219.533C436.673 218.205 436.23 216.435 436.23 214V213.558C436.23 212.23 436.452 210.902 437.116 209.796C437.558 208.689 438.444 207.804 439.329 207.14C440.214 206.476 441.542 206.255 442.87 206.255C444.419 206.255 445.968 206.697 447.074 207.804C448.181 208.689 448.845 210.017 448.845 211.566H446.41C446.41 210.681 445.968 209.796 445.304 209.132C444.64 208.468 443.755 208.246 442.87 208.246C441.542 208.246 440.657 208.689 439.993 209.574C439.329 210.459 438.886 211.787 438.886 213.558V214C438.886 215.771 439.329 217.099 439.993 217.984C440.657 219.09 441.542 219.533 442.87 219.533Z" fill="#010202"/>
<path d="M453.05 213.779C453.05 212.23 453.271 211.123 453.935 209.796C454.599 208.689 455.263 207.804 456.369 207.14C457.476 206.476 458.582 206.255 459.91 206.255C461.902 206.255 463.451 206.919 464.779 208.246C466.107 209.574 466.549 211.566 466.549 213.779V214C466.549 215.328 466.328 216.656 465.664 217.762C465.221 218.869 464.336 219.754 463.23 220.418C462.123 221.082 461.017 221.303 459.689 221.303C457.697 221.303 456.148 220.639 454.82 219.312C453.714 218.205 453.05 216.213 453.05 213.779ZM455.484 214.222C455.484 215.771 455.927 217.099 456.591 218.205C457.255 219.09 458.361 219.754 459.689 219.754C461.017 219.754 461.902 219.312 462.787 218.205C463.451 217.099 463.894 215.771 463.894 214C463.894 212.451 463.451 211.123 462.787 210.017C462.123 208.91 461.017 208.468 459.689 208.468C458.361 208.468 457.476 208.91 456.591 210.017C455.927 210.902 455.484 212.23 455.484 214.222Z" fill="#010202"/>
<path d="M480.049 217.32C480.049 216.656 479.827 216.213 479.385 215.771C478.942 215.328 478.057 215.107 476.729 214.885C475.401 214.664 474.516 214.222 473.631 214C472.746 213.779 472.303 213.115 472.082 212.672C471.639 212.23 471.639 211.566 471.639 210.902C471.639 209.796 472.082 208.689 473.188 207.804C474.295 206.919 475.401 206.476 477.172 206.476C478.942 206.476 480.27 206.919 481.155 207.804C482.04 208.689 482.704 209.796 482.704 211.123H480.27C480.27 210.459 480.049 209.796 479.385 209.353C478.721 208.91 478.057 208.689 477.172 208.689C476.287 208.689 475.623 208.91 474.959 209.353C474.516 209.796 474.295 210.238 474.295 210.902C474.295 211.566 474.516 212.009 474.959 212.23C475.401 212.451 476.287 212.894 477.614 213.115C478.942 213.336 479.827 213.779 480.713 214.222C481.598 214.664 482.04 215.107 482.483 215.549C482.926 215.992 483.147 216.656 483.147 217.541C483.147 218.869 482.704 219.975 481.598 220.639C480.491 221.525 479.163 221.746 477.614 221.746C476.508 221.746 475.401 221.525 474.516 221.082C473.631 220.639 472.967 219.975 472.303 219.312C471.86 218.648 471.639 217.762 471.639 216.877H474.074C474.074 217.762 474.516 218.426 475.18 218.869C475.844 219.312 476.729 219.533 477.614 219.533C478.5 219.533 479.385 219.312 479.827 218.869C480.27 218.426 480.049 217.984 480.049 217.32Z" fill="#010202"/>
<path d="M496.646 217.32C496.646 216.656 496.425 216.213 495.982 215.771C495.54 215.328 494.655 215.107 493.327 214.885C491.999 214.664 491.114 214.222 490.229 214C489.343 213.779 488.901 213.115 488.679 212.672C488.237 212.23 488.237 211.566 488.237 210.902C488.237 209.796 488.679 208.689 489.786 207.804C490.892 206.919 491.999 206.476 493.769 206.476C495.54 206.476 496.868 206.919 497.753 207.804C498.638 208.689 499.302 209.796 499.302 211.123H496.868C496.868 210.459 496.646 209.796 495.982 209.353C495.319 208.91 494.655 208.689 493.769 208.689C492.884 208.689 492.22 208.91 491.556 209.353C491.114 209.796 490.892 210.238 490.892 210.902C490.892 211.566 491.114 212.009 491.556 212.23C491.999 212.451 492.884 212.894 494.212 213.115C495.54 213.336 496.425 213.779 497.31 214.222C498.195 214.664 498.638 215.107 499.081 215.549C499.523 215.992 499.745 216.656 499.745 217.541C499.745 218.869 499.302 219.975 498.195 220.639C497.089 221.525 495.761 221.746 494.212 221.746C493.105 221.746 491.999 221.525 491.114 221.082C490.229 220.639 489.565 219.975 488.901 219.312C488.458 218.648 488.237 217.762 488.237 216.877H490.671C490.671 217.762 491.114 218.426 491.778 218.869C492.442 219.312 493.327 219.533 494.212 219.533C495.097 219.533 495.982 219.312 496.425 218.869C496.868 218.426 496.646 217.984 496.646 217.32Z" fill="#010202"/>
<path d="M504.392 202.714C504.392 202.271 504.613 202.05 504.834 201.607C505.056 201.386 505.498 201.165 505.941 201.165C506.383 201.165 506.826 201.386 507.047 201.607C507.269 201.829 507.49 202.271 507.49 202.714C507.49 203.156 507.269 203.378 507.047 203.82C506.826 204.263 506.383 204.263 505.941 204.263C505.498 204.263 505.056 204.042 504.834 203.82C504.613 203.378 504.392 203.156 504.392 202.714ZM507.269 221.303H504.834V206.697H507.269V221.303Z" fill="#010202"/>
<path d="M512.58 213.779C512.58 212.23 512.801 211.123 513.465 209.796C514.129 208.689 514.793 207.804 515.9 207.14C517.006 206.476 518.113 206.255 519.44 206.255C521.432 206.255 522.981 206.919 524.309 208.246C525.637 209.574 526.08 211.566 526.08 213.779V214C526.08 215.328 525.858 216.656 525.194 217.762C524.752 218.869 523.867 219.754 522.76 220.418C521.654 221.082 520.547 221.303 519.219 221.303C517.227 221.303 515.678 220.639 514.351 219.312C513.244 218.205 512.58 216.213 512.58 213.779ZM515.236 214.222C515.236 215.771 515.678 217.099 516.342 218.205C517.006 219.09 518.113 219.754 519.44 219.754C520.768 219.754 521.654 219.312 522.539 218.205C523.203 217.099 523.645 215.771 523.645 214C523.645 212.451 523.203 211.123 522.539 210.017C521.875 208.91 520.768 208.468 519.44 208.468C518.113 208.468 517.227 208.91 516.342 210.017C515.457 210.902 515.236 212.23 515.236 214.222Z" fill="#010202"/>
<path d="M533.604 206.697V208.468C534.71 207.14 536.259 206.255 538.03 206.255C541.128 206.255 542.677 208.025 542.677 211.566V221.303H540.243V211.566C540.243 210.459 540.022 209.796 539.579 209.132C539.136 208.689 538.472 208.468 537.366 208.468C536.481 208.468 535.817 208.689 535.153 209.132C534.489 209.574 534.046 210.238 533.604 210.902V221.303H531.169V206.697H533.604Z" fill="#010202"/>
<path d="M554.849 221.525C552.857 221.525 551.308 220.861 549.98 219.533C548.653 218.205 548.21 216.435 548.21 214.222V213.779C548.21 212.23 548.431 211.123 549.095 209.796C549.759 208.689 550.423 207.804 551.53 207.14C552.636 206.476 553.521 206.255 554.849 206.255C556.841 206.255 558.169 206.919 559.275 208.246C560.382 209.574 560.824 211.345 560.824 213.558V214.664H550.866C550.866 216.213 551.308 217.32 552.193 218.205C553.079 219.09 553.964 219.533 555.292 219.533C556.177 219.533 556.841 219.312 557.505 219.09C558.169 218.648 558.611 218.205 559.054 217.541L560.603 218.648C559.054 220.639 557.283 221.525 554.849 221.525ZM554.406 208.468C553.3 208.468 552.636 208.91 551.751 209.574C551.087 210.238 550.644 211.345 550.423 212.672H557.726V212.451C557.726 211.123 557.283 210.238 556.619 209.574C556.398 208.689 555.513 208.468 554.406 208.468Z" fill="#010202"/>
<path d="M573.881 213.779C573.881 211.566 574.324 209.796 575.43 208.246C576.537 206.919 577.865 206.255 579.635 206.255C581.406 206.255 582.733 206.919 583.619 208.025V200.279H586.053V221.082H583.84L583.619 219.533C582.512 220.861 581.184 221.303 579.414 221.303C577.644 221.303 576.316 220.639 575.209 219.312C574.324 217.984 573.881 216.213 573.881 213.779ZM576.316 214.222C576.316 215.992 576.758 217.099 577.422 218.205C578.086 219.09 578.971 219.533 580.299 219.533C581.848 219.533 582.955 218.869 583.84 217.32V210.681C583.176 209.353 581.848 208.689 580.299 208.689C578.971 208.689 578.086 209.132 577.422 210.017C576.758 210.902 576.316 212.23 576.316 214.222Z" fill="#010202"/>
<path d="M598.225 221.525C596.233 221.525 594.684 220.861 593.356 219.533C592.029 218.205 591.586 216.435 591.586 214.222V213.779C591.586 212.23 591.807 211.123 592.471 209.796C593.135 208.689 593.799 207.804 594.905 207.14C596.012 206.476 596.897 206.255 598.225 206.255C600.217 206.255 601.545 206.919 602.651 208.246C603.758 209.574 604.2 211.345 604.2 213.558V214.664H594.02C594.02 216.213 594.463 217.32 595.348 218.205C596.233 219.09 597.119 219.533 598.446 219.533C599.332 219.533 599.995 219.312 600.659 219.09C601.323 218.648 601.766 218.205 602.209 217.541L603.758 218.648C602.651 220.639 600.881 221.525 598.225 221.525ZM598.004 208.468C596.897 208.468 596.233 208.91 595.348 209.574C594.684 210.238 594.242 211.345 594.02 212.672H601.323V212.451C601.323 211.123 600.881 210.238 600.217 209.574C599.774 208.689 599.11 208.468 598.004 208.468Z" fill="#010202"/>
<path d="M611.724 221.303H609.29V200.501H611.724V221.303Z" fill="#010202"/>
<path d="M620.576 221.303H618.142V200.501H620.576V221.303Z" fill="#010202"/>
<path d="M632.747 221.525C630.756 221.525 629.207 220.861 627.879 219.533C626.551 218.205 626.108 216.435 626.108 214.222V213.779C626.108 212.23 626.33 211.123 626.994 209.796C627.658 208.689 628.321 207.804 629.428 207.14C630.534 206.476 631.42 206.255 632.747 206.255C634.739 206.255 636.067 206.919 637.174 208.246C638.28 209.574 638.723 211.345 638.723 213.558V214.664H628.764C628.764 216.213 629.207 217.32 630.092 218.205C630.977 219.09 631.862 219.533 633.19 219.533C634.075 219.533 634.739 219.312 635.403 219.09C636.067 218.648 636.51 218.205 636.952 217.541L638.501 218.648C637.174 220.639 635.182 221.525 632.747 221.525ZM632.526 208.468C631.42 208.468 630.756 208.91 629.871 209.574C629.207 210.238 628.764 211.345 628.543 212.672H635.846V212.451C635.846 211.123 635.403 210.238 634.739 209.574C634.297 208.689 633.633 208.468 632.526 208.468Z" fill="#010202"/>
<path d="M663.951 212.23H655.32V219.09H665.279V221.303H652.665V201.607H665.058V203.82H655.32V210.238H663.951V212.23Z" fill="#010202"/>
<path d="M672.803 206.697V208.468C673.91 207.14 675.459 206.255 677.23 206.255C680.328 206.255 681.877 208.025 681.877 211.566V221.303H679.443V211.566C679.443 210.459 679.221 209.796 678.779 209.132C678.336 208.689 677.672 208.468 676.566 208.468C675.68 208.468 675.016 208.689 674.353 209.132C673.689 209.574 673.246 210.238 672.803 210.902V221.303H670.369V206.697H672.803Z" fill="#010202"/>
<path d="M691.171 203.156V206.697H693.827V208.689H691.171V217.762C691.171 218.426 691.393 218.869 691.614 219.09C691.835 219.312 692.278 219.533 692.942 219.533C693.163 219.533 693.606 219.533 694.048 219.312V221.303C693.385 221.525 692.721 221.525 692.057 221.525C690.95 221.525 690.065 221.082 689.622 220.418C688.958 219.754 688.737 218.869 688.737 217.541V208.468H686.082V206.476H688.737V202.935H691.171V203.156Z" fill="#010202"/>
<path d="M706 208.91C705.557 208.91 705.114 208.91 704.672 208.91C703.123 208.91 702.016 209.574 701.352 211.123V221.525H698.918V206.919H701.352V208.689C702.238 207.361 703.344 206.697 704.893 206.697C705.336 206.697 705.778 206.697 706 206.919V208.91Z" fill="#010202"/>
<path d="M719.056 221.303C718.835 221.082 718.835 220.418 718.613 219.754C717.507 220.861 715.958 221.525 714.409 221.525C712.86 221.525 711.753 221.082 710.868 220.197C709.983 219.312 709.54 218.426 709.54 217.099C709.54 215.549 710.204 214.443 711.31 213.558C712.417 212.672 714.187 212.23 716.179 212.23H718.613V211.123C718.613 210.238 718.392 209.574 717.728 209.132C717.064 208.689 716.4 208.246 715.515 208.246C714.63 208.246 713.966 208.468 713.302 208.91C712.638 209.353 712.417 210.017 712.417 210.459H709.983C709.983 209.796 710.204 208.91 710.868 208.246C711.31 207.583 712.196 206.919 713.081 206.697C713.966 206.255 714.851 206.033 715.958 206.033C717.728 206.033 719.056 206.476 719.941 207.361C720.826 208.246 721.49 209.353 721.49 210.902V217.762C721.49 219.09 721.712 220.197 721.933 221.082V221.303H719.056ZM714.851 219.312C715.737 219.312 716.4 219.09 717.064 218.648C717.728 218.205 718.392 217.762 718.613 217.099V214H716.622C713.523 214 711.974 214.886 711.974 216.656C711.974 217.541 712.196 217.984 712.86 218.426C713.302 219.09 713.966 219.312 714.851 219.312Z" fill="#010202"/>
<path d="M730.564 203.156V206.697H733.22V208.689H730.564V217.762C730.564 218.426 730.785 218.869 731.007 219.09C731.228 219.312 731.671 219.533 732.335 219.533C732.556 219.533 732.998 219.533 733.441 219.312V221.303C732.777 221.525 732.113 221.525 731.449 221.525C730.343 221.525 729.458 221.082 729.015 220.418C728.351 219.754 728.13 218.869 728.13 217.541V208.468H725.474V206.476H728.13V202.935H730.564V203.156Z" fill="#010202"/>
<path d="M744.505 221.525C742.514 221.525 740.964 220.861 739.637 219.533C738.309 218.205 737.866 216.435 737.866 214.222V213.779C737.866 212.23 738.088 211.123 738.751 209.796C739.415 208.689 740.079 207.804 741.186 207.14C742.292 206.476 743.177 206.255 744.505 206.255C746.497 206.255 747.825 206.919 748.931 208.246C750.038 209.574 750.481 211.345 750.481 213.558V214.664H740.079C740.079 216.213 740.522 217.32 741.407 218.205C742.292 219.09 743.177 219.533 744.505 219.533C745.391 219.533 746.054 219.312 746.718 219.09C747.382 218.648 747.825 218.205 748.267 217.541L749.817 218.648C748.71 220.639 746.94 221.525 744.505 221.525ZM744.063 208.468C742.956 208.468 742.292 208.91 741.407 209.574C740.743 210.238 740.301 211.345 740.079 212.672H747.382V212.451C747.382 211.123 746.94 210.238 746.276 209.574C746.054 208.689 745.169 208.468 744.063 208.468Z" fill="#010202"/>
<path d="M287.515 36.0724H259.852C259.63 36.0724 259.63 36.0724 259.63 36.2937V44.2607C259.63 44.482 259.63 44.482 259.852 44.482H278.22V51.3424C278.22 60.6371 271.138 67.0549 260.737 67.0549C248.123 67.0549 241.262 58.4241 241.262 42.7115V32.089C241.262 17.483 248.565 8.85213 260.516 8.85213C270.253 8.85213 276.892 14.3847 277.999 23.9008C277.999 23.9008 277.999 24.1221 278.22 24.1221H287.293H287.515C287.515 24.1221 287.515 24.1221 287.515 23.9008C286.629 9.51604 275.786 0 260.516 0C251.664 0 244.36 2.87694 239.271 8.63083C234.181 14.1634 231.525 22.3516 231.525 32.089V42.7115C231.525 63.9567 241.926 75.6857 260.516 75.6857C276.228 75.6857 287.515 65.2845 287.515 51.1211V36.0724C287.736 36.2937 287.736 36.0724 287.515 36.0724Z" fill="#010202"/>
<path d="M304.333 74.1366H341.955C342.176 74.1366 342.176 74.1366 342.176 73.9153V66.6123C342.176 66.391 342.176 66.391 341.955 66.391H313.849V48.908H340.406C340.627 48.908 340.627 48.908 340.627 48.6867V41.3837C340.627 41.1624 340.627 41.1624 340.406 41.1624H313.849V24.5647H341.955C342.176 24.5647 342.176 24.5647 342.176 24.3434V17.0403C342.176 16.819 342.176 16.819 341.955 16.819H304.333C304.112 16.819 304.112 16.819 304.112 17.0403L304.333 74.1366C304.112 74.1366 304.333 74.1366 304.333 74.1366Z" fill="#010202"/>
<path d="M377.142 75.2431C391.305 75.2431 400.6 68.3827 400.6 57.7602C400.6 49.3506 395.51 44.482 384.445 41.8263L374.265 39.392C368.732 38.2855 365.855 35.4085 365.855 31.6464C365.855 26.3351 370.503 23.2368 377.806 23.2368C385.109 23.2368 389.977 26.5564 390.42 32.089C390.42 32.089 390.42 32.3103 390.641 32.3103H399.494H399.715C399.715 32.3103 399.715 32.3103 399.715 32.089C399.715 26.999 397.28 22.7942 393.076 19.696C389.092 17.0403 383.781 15.4912 378.027 15.4912C372.052 15.4912 366.741 17.0403 362.757 19.9173C358.331 23.0155 356.118 27.2203 356.118 32.5316C356.118 42.9328 365.413 46.695 370.945 47.8015L381.347 50.2358C387.986 51.785 390.863 54.2193 390.863 58.6454C390.863 64.178 385.994 67.4975 378.027 67.4975C370.06 67.4975 364.528 63.9566 364.085 58.4241C364.085 58.4241 364.085 58.2028 363.864 58.2028H354.79H354.569C354.569 58.2028 354.569 58.2028 354.569 58.4241C354.348 61.301 355.897 75.2431 377.142 75.2431Z" fill="#010202"/>
<path d="M428.042 73.9153C428.042 74.1366 428.042 74.1366 428.042 73.9153L437.558 74.1366C437.78 74.1366 437.78 74.1366 437.78 73.9153V24.786H455.705C455.927 24.786 455.927 24.786 455.927 24.5647V17.0403C455.927 16.819 455.927 16.819 455.705 16.819H410.117C409.895 16.819 409.896 16.819 409.896 17.0403V24.3434C409.896 24.5647 409.895 24.5647 410.117 24.5647H428.042V73.9153Z" fill="#010202"/>
<path d="M477.835 73.9153V17.0403C477.835 16.819 477.835 16.819 477.614 16.819H468.319C468.098 16.819 468.098 16.819 468.098 17.0403V73.9153C468.098 74.1366 468.098 74.1366 468.319 74.1366L477.835 73.9153C477.835 74.1366 477.835 74.1366 477.835 73.9153Z" fill="#010202"/>
<path d="M519.219 75.2431C535.153 75.2431 544.448 65.7271 544.448 49.7932V41.8263C544.448 25.6712 534.711 15.7125 519.219 15.7125C503.728 15.7125 493.991 25.6712 493.991 41.8263V49.7932C494.212 65.7271 503.507 75.2431 519.219 75.2431ZM534.711 49.7932C534.711 60.8584 528.957 67.4975 519.219 67.4975C509.482 67.4975 503.728 60.8584 503.728 49.7932V41.605C503.728 30.5398 509.703 23.4581 519.219 23.4581C528.735 23.4581 534.711 30.3185 534.711 41.605V49.7932Z" fill="#010202"/>
<path d="M561.045 74.1366H569.897C570.118 74.1366 570.118 74.1366 570.118 73.9153V31.8677L599.33 74.1366C599.33 74.1366 599.331 74.1366 599.552 74.1366H607.961C608.183 74.1366 608.183 74.1366 608.183 73.9153V17.0403C608.183 16.819 608.183 16.819 607.961 16.819H599.109C598.888 16.819 598.888 16.819 598.888 17.0403V59.088L569.676 17.0403C569.676 17.0403 569.676 17.0403 569.455 17.0403H561.045C560.824 17.0403 560.824 17.0403 560.824 17.2617L561.045 74.1366C560.824 74.1366 560.824 74.1366 561.045 74.1366Z" fill="#010202"/>
<path d="M664.616 24.5647C664.837 24.5647 664.837 24.5647 664.616 24.5647L664.837 17.0403C664.837 16.819 664.837 16.819 664.616 16.819H626.994C626.773 16.819 626.773 16.819 626.773 17.0403V73.9153C626.773 74.1366 626.773 74.1366 626.994 74.1366H664.616C664.837 74.1366 664.837 74.1366 664.837 73.9153V66.6123C664.837 66.391 664.837 66.391 664.616 66.391H636.51V48.908H663.067C663.288 48.908 663.288 48.908 663.288 48.6867V41.3837C663.288 41.1624 663.288 41.1624 663.067 41.1624H636.51V24.5647H664.616Z" fill="#010202"/>
<path d="M279.326 100.029H234.18C233.295 100.029 232.41 100.693 232.41 101.8V173.944C232.41 174.83 233.074 175.715 234.18 175.715H279.326C280.211 175.715 281.096 175.051 281.096 173.944V163.764C281.096 162.879 280.432 161.994 279.326 161.994H247.901V143.626H277.334C278.219 143.626 279.105 142.962 279.105 141.855V132.118C279.105 131.233 278.441 130.348 277.334 130.348H247.901V113.086H279.326C280.211 113.086 281.096 112.422 281.096 111.316V101.136C280.875 100.693 280.211 100.029 279.326 100.029Z" fill="#010202"/>
<path d="M344.169 114.856H332.882C331.997 114.856 331.112 115.52 331.112 116.627V150.265L306.768 115.742C306.547 115.299 305.883 115.078 305.441 115.078H295.482C294.597 115.078 293.711 115.742 293.711 116.848V174.166C293.711 175.051 294.375 175.936 295.482 175.936H306.768C307.654 175.936 308.539 175.272 308.539 174.166V140.085L332.882 174.83C333.103 175.272 333.767 175.494 334.21 175.494H344.169C345.054 175.494 345.939 174.83 345.939 173.723V116.406C345.939 115.52 345.054 114.856 344.169 114.856Z" fill="#010202"/>
<path d="M403.035 114.856H356.34C355.455 114.856 354.57 115.52 354.57 116.627V125.922C354.57 126.807 355.234 127.692 356.34 127.692H372.053V173.944C372.053 174.83 372.717 175.715 373.823 175.715H385.774C386.659 175.715 387.544 175.051 387.544 173.944V127.471H403.257C404.142 127.471 405.027 126.807 405.027 125.7V116.406C404.806 115.52 404.142 114.856 403.035 114.856Z" fill="#010202"/>
<path d="M452.165 151.593C457.476 148.937 462.566 143.405 462.566 134.774C462.566 125.258 456.591 114.856 439.55 114.856H415.207C414.322 114.856 413.437 115.52 413.437 116.627V173.944C413.437 174.83 414.1 175.715 415.207 175.715H426.936C427.821 175.715 428.706 175.051 428.706 173.944V154.248H436.895L447.075 174.608C447.296 175.272 447.96 175.494 448.624 175.494H461.902C462.566 175.494 463.008 175.272 463.451 174.608C463.672 174.166 463.672 173.502 463.451 172.838L452.165 151.593ZM428.706 127.028H437.78C440.436 127.028 446.853 127.692 446.853 134.774C446.853 140.749 441.763 142.077 437.559 142.077H428.706V127.028Z" fill="#010202"/>
<path d="M506.826 115.963C506.605 115.299 505.941 114.856 505.277 114.856H491.335C490.671 114.856 490.007 115.299 489.786 115.963L469.204 173.28C468.983 173.723 469.204 174.387 469.426 174.83C469.647 175.272 470.311 175.494 470.754 175.494H482.704C483.368 175.494 484.032 175.051 484.253 174.387L488.679 160.887H506.605L511.031 174.387C511.252 175.051 511.916 175.494 512.58 175.494H525.415C525.858 175.494 526.522 175.272 526.743 174.83C526.965 174.387 527.186 173.723 526.965 173.28L506.826 115.963ZM503.285 148.937H492.441L497.974 132.118L503.285 148.937Z" fill="#010202"/>
<path d="M573.217 114.856H526.522C525.637 114.856 524.752 115.52 524.752 116.627V125.922C524.752 126.807 525.416 127.692 526.522 127.692H542.235V173.944C542.235 174.83 542.899 175.715 544.005 175.715H555.956C556.841 175.715 557.726 175.051 557.726 173.944V127.471H573.439C574.324 127.471 575.209 126.807 575.209 125.7V116.406C574.988 115.52 574.324 114.856 573.217 114.856Z" fill="#010202"/>
<path d="M624.781 114.856H585.611C584.726 114.856 583.84 115.52 583.84 116.627V173.944C583.84 174.83 584.504 175.715 585.611 175.715H624.781C625.667 175.715 626.552 175.051 626.552 173.944V164.65C626.552 163.764 625.888 162.879 624.781 162.879H599.11V150.708H623.232C624.118 150.708 625.003 150.044 625.003 148.937V140.085C625.003 139.2 624.339 138.315 623.232 138.315H599.11V127.028H624.781C625.667 127.028 626.552 126.364 626.552 125.258V115.963C626.331 115.52 625.667 114.856 624.781 114.856Z" fill="#010202"/>
<path d="M144.552 160.224H154.29L164.691 149.822H154.732L144.552 160.224Z" fill="url(#paint0_linear)"/>
<path d="M89.2261 158.674L115.782 131.897V126.807H120.872L142.339 105.34H132.602L89.2261 148.716V158.674Z" fill="url(#paint1_linear)"/>
<path d="M110.471 60.8584L89.2261 82.1035V91.8409L120.209 60.8584H110.471Z" fill="url(#paint2_linear)"/>
<path d="M89.2261 125.258L115.782 98.7013V88.7426L89.2261 115.52V125.258Z" fill="url(#paint3_linear)"/>
<path d="M111.135 160.224H120.873L131.274 149.822H121.537L111.135 160.224Z" fill="url(#paint4_linear)"/>
<path d="M187.706 15.2699H91.8819C88.3411 15.2699 85.0215 16.5977 82.5872 18.8108L59.129 39.8346H14.2045C6.90146 39.8346 0.92627 45.1459 0.92627 51.785V148.273C0.92627 154.912 6.90146 160.224 14.2045 160.224H88.1198V60.8584C88.1198 60.1945 88.5624 59.7519 89.2263 59.7519H164.691C165.355 59.7519 165.797 60.1945 165.797 60.8584V83.6527C165.797 84.3166 165.355 84.7592 164.691 84.7592H116.889V104.455H161.814C162.478 104.455 162.92 104.898 162.92 105.562V127.028C162.92 127.692 162.478 128.135 161.814 128.135H116.889V149.158H164.691C165.355 149.158 165.797 149.601 165.797 150.265V160.666H187.706C195.009 160.666 200.984 155.355 200.984 148.716V27.2203C200.763 20.5812 194.788 15.2699 187.706 15.2699Z" fill="url(#paint5_linear)"/>
<path d="M164.691 73.2514L154.511 83.6527H164.248L164.691 83.2101V73.2514Z" fill="url(#paint6_linear)"/>
<path d="M143.888 60.8584L121.094 83.6527H130.831L153.625 60.8584H143.888Z" fill="url(#paint7_linear)"/>
<path d="M161.814 109.545L144.552 126.807H154.29L161.814 119.282V109.545Z" fill="url(#paint8_linear)"/>
<defs>
<linearGradient id="paint0_linear" x1="144.468" y1="155.048" x2="164.592" y2="155.048" gradientUnits="userSpaceOnUse">
<stop stop-color="#E6224A"/>
<stop offset="1" stop-color="#EF783B"/>
</linearGradient>
<linearGradient id="paint1_linear" x1="89.1555" y1="132.022" x2="142.384" y2="132.022" gradientUnits="userSpaceOnUse">
<stop stop-color="#E6224A"/>
<stop offset="1" stop-color="#EF783B"/>
</linearGradient>
<linearGradient id="paint2_linear" x1="89.1555" y1="76.3961" x2="120.252" y2="76.3961" gradientUnits="userSpaceOnUse">
<stop stop-color="#E6224A"/>
<stop offset="1" stop-color="#EF783B"/>
</linearGradient>
<linearGradient id="paint3_linear" x1="89.1555" y1="107.047" x2="115.828" y2="107.047" gradientUnits="userSpaceOnUse">
<stop stop-color="#E6224A"/>
<stop offset="1" stop-color="#EF783B"/>
</linearGradient>
<linearGradient id="paint4_linear" x1="111.122" y1="155.048" x2="131.246" y2="155.048" gradientUnits="userSpaceOnUse">
<stop stop-color="#E6224A"/>
<stop offset="1" stop-color="#EF783B"/>
</linearGradient>
<linearGradient id="paint5_linear" x1="0.92627" y1="87.782" x2="200.795" y2="87.782" gradientUnits="userSpaceOnUse">
<stop stop-color="#E6224A"/>
<stop offset="1" stop-color="#EF783B"/>
</linearGradient>
<linearGradient id="paint6_linear" x1="154.413" y1="78.45" x2="164.642" y2="78.45" gradientUnits="userSpaceOnUse">
<stop stop-color="#E6224A"/>
<stop offset="1" stop-color="#EF783B"/>
</linearGradient>
<linearGradient id="paint7_linear" x1="121.067" y1="72.2064" x2="153.598" y2="72.2064" gradientUnits="userSpaceOnUse">
<stop stop-color="#E6224A"/>
<stop offset="1" stop-color="#EF783B"/>
</linearGradient>
<linearGradient id="paint8_linear" x1="144.469" y1="118.149" x2="161.881" y2="118.149" gradientUnits="userSpaceOnUse">
<stop stop-color="#E6224A"/>
<stop offset="1" stop-color="#EF783B"/>
</linearGradient>
</defs>
</svg>
