<svg width="751" height="223" viewBox="0 0 751 223" fill="none" xmlns="http://www.w3.org/2000/svg">
<path d="M166.462 82.5964V82.1538L161.814 86.5799H162.257C164.691 86.5799 166.462 84.8095 166.462 82.5964Z" fill="url(#paint0_linear)"/>
<path d="M130.389 86.5799H139.683L161.814 64.4495H152.74L130.389 86.5799Z" fill="url(#paint1_linear)"/>
<path d="M99.4064 64.4495C97.1934 64.4495 95.2017 66.2199 95.2017 68.6543V77.5064C99.849 72.6377 105.16 68.2117 110.693 64.4495H99.4064Z" fill="url(#paint2_linear)"/>
<path d="M95.2017 99.8581L130.61 64.4495H121.315L95.2017 90.5633V99.8581Z" fill="url(#paint3_linear)"/>
<path d="M187.706 15.5415H91.8819C88.3411 15.5415 85.0215 16.8693 82.5872 19.0824L59.129 40.1062H14.2045C6.90146 40.1062 0.92627 45.4175 0.92627 52.0566V148.545C0.92627 155.184 6.90146 160.495 14.2045 160.495H90.1115H93.2098V68.6543C93.2098 65.3348 95.8654 62.4578 99.4062 62.4578H162.478C165.797 62.4578 168.674 65.1134 168.674 68.6543V82.5964C168.674 85.916 166.019 88.7929 162.478 88.7929H122.643V106.055H156.503C159.822 106.055 162.699 108.71 162.699 112.251V125.972C162.699 129.291 160.043 132.168 156.503 132.168H122.643V160.716H143.003H162.699H187.485C194.788 160.716 200.763 155.405 200.763 148.766V27.4919C200.763 20.8528 194.788 15.5415 187.706 15.5415Z" fill="url(#paint4_linear)"/>
<path d="M95.2017 131.283L120.652 105.612V96.5385L95.2017 121.988V131.283Z" fill="url(#paint5_linear)"/>
<path d="M119.324 160.495H120.652V159.167L119.324 160.495Z" fill="url(#paint6_linear)"/>
<path d="M160.707 125.751V119.111L150.084 129.734H156.724C158.715 129.955 160.707 128.185 160.707 125.751Z" fill="url(#paint7_linear)"/>
<path d="M95.2017 160.495H97.1934L120.652 137.037V129.955H127.733L149.864 107.825H140.569L95.2017 153.413V160.495Z" fill="url(#paint8_linear)"/>
<path d="M245.868 76.1406C246.754 76.1406 247.639 75.4766 247.639 74.3701V46.0433H275.744C276.63 46.0433 277.515 45.3794 277.515 44.2729V34.0929C277.515 33.2077 276.851 32.3225 275.744 32.3225H247.639V13.9543H278.621C279.506 13.9543 280.392 13.2904 280.392 12.1839V2.00395C280.392 1.11873 279.728 0.233521 278.621 0.233521H233.697C232.811 0.233521 231.926 0.89743 231.926 2.00395V74.3701C231.926 75.2553 232.59 76.1406 233.697 76.1406H245.868Z" fill="#010202"/>
<path d="M329.963 63.0837H305.62V16.8313C305.62 15.9461 304.956 15.0609 303.849 15.0609H291.899C291.014 15.0609 290.128 15.7248 290.128 16.8313V74.3702C290.128 75.2554 290.792 76.1406 291.899 76.1406H329.963C330.848 76.1406 331.733 75.4767 331.733 74.3702V64.8542C331.512 63.9689 330.848 63.0837 329.963 63.0837Z" fill="#010202"/>
<path d="M392.371 54.4529V16.8313C392.371 15.9461 391.707 15.0609 390.601 15.0609H378.65C377.765 15.0609 376.88 15.7248 376.88 16.8313V53.3464C376.88 59.9855 372.675 63.9689 365.815 63.9689C358.733 63.9689 354.75 59.9855 354.75 53.3464V16.8313C354.75 15.9461 354.086 15.0609 352.979 15.0609H341.029C340.144 15.0609 339.258 15.7248 339.258 16.8313V54.2316C339.258 67.9524 349.881 77.0258 365.593 77.0258C381.749 77.2471 392.371 67.9524 392.371 54.4529Z" fill="#010202"/>
<path d="M453.893 57.3299C453.893 47.8138 448.139 41.8386 436.189 39.4043L426.673 37.1913C419.591 35.8634 419.591 32.7652 419.591 31.88C419.591 26.5687 426.451 26.1261 428.664 26.1261C434.418 26.1261 438.18 28.5604 438.623 32.7652C438.623 33.6504 439.508 34.3143 440.393 34.3143H451.68C452.123 34.3143 452.565 34.093 452.786 33.8717C453.008 33.6504 453.229 33.2078 453.229 32.7652C453.008 21.7 443.049 13.9544 428.886 13.9544C414.501 13.9544 404.321 21.7 404.321 32.9865C404.321 42.0599 410.296 48.2564 421.14 50.4695L430.656 52.6825C437.295 54.2316 438.844 56.002 438.844 58.4364C438.844 62.1985 435.082 64.6329 428.886 64.6329C422.468 64.6329 418.042 61.9772 417.82 57.7725C417.82 56.8872 416.935 56.2233 416.05 56.2233H404.542C404.1 56.2233 403.657 56.4446 403.436 56.6659C403.214 56.8872 402.993 57.3299 402.993 57.9938C403.214 67.2885 409.854 77.0259 428.443 77.0259C443.713 77.2472 453.893 69.5015 453.893 57.3299Z" fill="#010202"/>
<path d="M486.868 77.2471C502.58 77.2471 512.76 69.5015 512.76 57.5511C512.76 48.0351 507.006 42.0599 495.056 39.6255L485.54 37.4125C478.458 36.0847 478.458 32.9864 478.458 32.1012C478.458 26.7899 485.318 26.3473 487.532 26.3473C493.285 26.3473 497.048 28.7817 497.49 32.9864C497.49 33.8717 498.375 34.5356 499.261 34.5356H510.547C510.99 34.5356 511.432 34.3143 511.654 34.093C511.875 33.8717 512.096 33.429 512.096 32.9864C511.875 21.9213 501.916 14.1757 487.753 14.1757C473.368 14.1757 463.188 21.9213 463.188 33.2077C463.188 42.2812 469.163 48.4777 480.007 50.6907L489.523 52.9037C496.162 54.4529 497.711 56.2233 497.711 58.6576C497.711 62.4198 493.949 64.8541 487.753 64.8541C481.335 64.8541 476.909 62.1985 476.688 57.9937C476.688 57.1085 475.802 56.4446 474.917 56.4446H463.409C462.967 56.4446 462.524 56.6659 462.303 56.8872C462.082 57.1085 461.86 57.5511 461.86 58.215C461.86 67.2885 468.499 77.2471 486.868 77.2471Z" fill="#010202"/>
<path d="M538.211 15.0609H526.26C525.375 15.0609 524.49 15.7248 524.49 16.8313V74.3702C524.49 75.2554 525.154 76.1406 526.26 76.1406H538.211C539.096 76.1406 539.981 75.4767 539.981 74.3702V16.8313C539.981 15.9461 539.096 15.0609 538.211 15.0609Z" fill="#010202"/>
<path d="M254.278 115.311H233.697C233.476 115.311 233.476 115.311 233.476 115.533V172.629C233.476 172.85 233.476 172.85 233.697 172.85H254.278C272.204 172.85 281.498 162.891 281.498 144.081C281.498 125.27 272.204 115.311 254.278 115.311ZM243.213 123.278H253.393C265.565 123.278 271.54 130.139 271.54 144.302C271.54 158.244 265.565 165.105 253.393 165.105H243.213V123.278Z" fill="#010202"/>
<path d="M306.505 115.311H297.211C296.989 115.311 296.989 115.311 296.989 115.533V172.629C296.989 172.85 296.989 172.85 297.211 172.85H306.505C306.727 172.85 306.727 172.85 306.727 172.629L306.505 115.311C306.727 115.533 306.505 115.311 306.505 115.311Z" fill="#010202"/>
<path d="M376.658 97.1644C357.184 97.1644 345.455 110.221 345.455 132.13V140.982C345.455 162.67 357.184 175.727 376.658 175.727C393.699 175.727 406.092 164.883 406.092 150.056V149.171C406.092 148.285 405.428 147.4 404.321 147.4H392.592C391.707 147.4 390.822 148.064 390.822 149.171C390.6 156.916 385.068 162.006 376.658 162.006C366.478 162.006 360.946 154.482 360.946 140.982V132.13C360.946 124.163 362.938 110.885 376.658 110.885C385.068 110.885 390.6 116.418 390.822 124.606C390.822 125.491 391.486 126.376 392.592 126.376H404.321C405.206 126.376 406.092 125.712 406.092 124.606V123.721C405.87 108.23 393.699 97.1644 376.658 97.1644Z" fill="#010202"/>
<path d="M449.025 114.647C448.803 113.984 448.14 113.541 447.476 113.541H433.534C432.87 113.541 432.206 113.984 431.984 114.647L411.403 172.186C411.182 172.629 411.403 173.293 411.624 173.735C411.846 174.178 412.51 174.399 412.952 174.399H424.903C425.567 174.399 426.231 173.957 426.452 173.293L431.099 159.572H449.246L453.672 173.293C453.893 173.957 454.557 174.399 455.221 174.399H468.057C468.499 174.399 469.163 174.178 469.385 173.735C469.606 173.293 469.827 172.629 469.606 172.186L449.025 114.647ZM445.484 147.622H434.419L439.951 130.803L445.484 147.622Z" fill="#010202"/>
<path d="M517.186 150.277C522.497 147.622 527.587 142.089 527.587 133.237C527.587 123.721 521.612 113.32 504.572 113.32H480.228C479.343 113.32 478.458 113.983 478.458 115.09V172.629C478.458 173.514 479.122 174.399 480.228 174.399H491.957C492.843 174.399 493.728 173.735 493.728 172.629V152.933H501.916L512.317 173.514C512.539 174.178 513.203 174.399 513.867 174.399H527.145C527.809 174.399 528.251 174.178 528.694 173.514C528.915 173.071 528.915 172.408 528.694 171.744L517.186 150.277ZM493.507 125.713H502.58C505.236 125.713 511.654 126.376 511.654 133.458C511.654 139.655 506.564 140.761 502.359 140.761H493.285V125.713H493.507Z" fill="#010202"/>
<path d="M553.48 113.541H541.53C540.644 113.541 539.759 114.205 539.759 115.311V172.85C539.759 173.735 540.423 174.621 541.53 174.621H553.48C554.365 174.621 555.251 173.957 555.251 172.85V115.311C555.251 114.205 554.587 113.541 553.48 113.541Z" fill="#010202"/>
<path d="M594.864 112.434C578.045 112.434 567.644 123.278 567.644 140.54V147.843C567.644 165.326 577.824 175.727 594.864 175.727C611.683 175.727 620.535 165.105 620.535 154.482V153.375C620.535 152.49 619.871 151.605 618.765 151.605H607.257C606.372 151.605 605.486 152.269 605.486 153.375C605.486 159.129 601.282 162.891 594.864 162.891C584.905 162.891 582.913 154.703 582.913 148.064V140.982C582.913 131.466 587.118 125.934 594.643 125.934C601.946 125.934 605.265 131.024 605.265 135.892C605.265 136.778 605.929 137.663 607.036 137.663H618.543C619.429 137.663 620.314 136.999 620.314 135.892V134.786C620.535 119.959 607.478 112.434 594.864 112.434Z" fill="#010202"/>
<path d="M657.713 112.434C640.452 112.434 629.829 123.278 629.829 140.54V147.843C629.829 164.883 640.452 175.506 657.713 175.506C674.975 175.506 685.598 164.883 685.598 147.843V140.54C685.598 123.057 674.975 112.434 657.713 112.434ZM645.542 140.319C645.542 130.802 650.189 125.27 657.935 125.27C665.68 125.27 670.328 131.024 670.328 140.319V147.843C670.328 157.359 665.902 162.67 657.935 162.67C650.189 162.67 645.542 157.359 645.542 147.843V140.319Z" fill="#010202"/>
<path d="M238.828 212.723C236.615 212.059 235.066 211.395 233.959 210.288C232.853 209.403 232.41 208.297 232.41 206.747C232.41 205.198 233.074 203.87 234.181 202.985C235.508 201.879 237.057 201.436 239.049 201.436C240.377 201.436 241.705 201.657 242.59 202.321C243.475 202.985 244.582 203.649 245.024 204.534C245.467 205.42 245.91 206.526 245.91 207.633H243.254C243.254 206.526 242.811 205.42 242.147 204.756C241.484 204.092 240.377 203.649 238.828 203.649C237.5 203.649 236.615 203.87 235.73 204.534C235.066 205.198 234.623 205.862 234.623 206.969C234.623 207.854 235.066 208.518 235.73 208.96C236.394 209.403 237.5 210.067 239.271 210.51C240.82 210.952 242.147 211.395 243.033 212.059C243.918 212.723 244.582 213.165 245.024 214.05C245.467 214.714 245.688 215.6 245.688 216.706C245.688 218.255 245.024 219.583 243.918 220.468C242.59 221.353 241.041 222.017 238.828 222.017C237.5 222.017 236.172 221.796 235.066 221.132C233.959 220.69 233.074 219.804 232.41 218.919C231.746 218.034 231.525 216.927 231.525 215.821H234.181C234.181 216.927 234.623 218.034 235.508 218.698C236.394 219.362 237.5 219.804 239.049 219.804C240.377 219.804 241.484 219.583 242.147 218.919C242.811 218.255 243.254 217.591 243.254 216.706C243.254 215.821 242.811 214.936 242.147 214.493C241.484 214.05 240.598 213.165 238.828 212.723Z" fill="#010202"/>
<path d="M250.999 202.985C250.999 202.543 251.22 202.321 251.442 201.879C251.663 201.657 252.106 201.436 252.548 201.436C252.991 201.436 253.433 201.657 253.655 201.879C253.876 202.1 254.097 202.543 254.097 202.985C254.097 203.428 253.876 203.649 253.655 204.092C253.433 204.534 252.991 204.534 252.548 204.534C252.106 204.534 251.663 204.313 251.442 204.092C251.22 203.649 250.999 203.428 250.999 202.985ZM253.876 221.575H251.442V206.969H253.876V221.575Z" fill="#010202"/>
<path d="M268.482 217.591C268.482 216.927 268.261 216.485 267.818 216.042C267.376 215.6 266.491 215.378 265.163 215.157C263.835 214.936 262.95 214.493 262.064 214.272C261.179 214.05 260.737 213.387 260.515 212.944C260.073 212.501 260.073 211.837 260.073 211.174C260.073 210.067 260.515 208.96 261.622 208.075C262.728 207.19 263.835 206.747 265.605 206.747C267.376 206.747 268.704 207.19 269.589 208.075C270.474 208.96 271.138 210.067 271.138 211.395H268.704C268.704 210.731 268.482 210.067 267.818 209.624C267.154 209.182 266.491 208.96 265.605 208.96C264.72 208.96 264.056 209.182 263.392 209.624C262.95 210.067 262.728 210.51 262.728 211.174C262.728 211.837 262.95 212.28 263.392 212.501C263.835 212.723 264.72 213.165 266.048 213.387C267.376 213.608 268.261 214.05 269.146 214.493C270.031 214.936 270.474 215.378 270.917 215.821C271.359 216.263 271.581 216.927 271.581 217.813C271.581 219.14 271.138 220.247 270.031 220.911C268.925 221.796 267.597 222.017 266.048 222.017C264.941 222.017 263.835 221.796 262.95 221.353C262.064 220.911 261.401 220.247 260.737 219.583C260.294 218.919 260.073 218.034 260.073 217.149H262.507C262.507 218.034 262.95 218.698 263.614 219.14C264.278 219.583 265.163 219.804 266.048 219.804C266.933 219.804 267.818 219.583 268.261 219.14C268.704 218.698 268.482 218.255 268.482 217.591Z" fill="#010202"/>
<path d="M279.769 203.428V206.969H282.425V208.961H279.769V218.034C279.769 218.698 279.99 219.141 280.212 219.362C280.433 219.583 280.876 219.804 281.54 219.804C281.761 219.804 282.204 219.804 282.646 219.583V221.575C281.982 221.796 281.318 221.796 280.654 221.796C279.548 221.796 278.663 221.354 278.22 220.69C277.556 220.026 277.335 219.141 277.335 217.813V208.739H274.679V206.748H277.335V203.207H279.769V203.428Z" fill="#010202"/>
<path d="M293.711 221.796C291.72 221.796 290.171 221.132 288.843 219.804C287.515 218.477 287.072 216.706 287.072 214.493V214.051C287.072 212.501 287.294 211.395 287.957 210.067C288.621 208.961 289.285 208.075 290.392 207.411C291.498 206.748 292.384 206.526 293.711 206.526C295.703 206.526 297.031 207.19 298.137 208.518C299.244 209.846 299.687 211.616 299.687 213.829V214.936H289.728C289.728 216.485 290.171 217.591 291.056 218.477C291.941 219.362 292.826 219.804 294.154 219.804C295.039 219.804 295.703 219.583 296.367 219.362C297.031 218.919 297.474 218.477 297.916 217.813L299.465 218.919C297.916 220.911 296.146 221.796 293.711 221.796ZM293.269 208.739C292.162 208.739 291.498 209.182 290.613 209.846C289.949 210.51 289.507 211.616 289.285 212.944H296.588V212.723C296.588 211.395 296.146 210.51 295.482 209.846C295.26 208.961 294.375 208.739 293.269 208.739Z" fill="#010202"/>
<path d="M306.768 206.969V208.518C307.875 207.19 309.203 206.526 311.195 206.526C313.186 206.526 314.735 207.411 315.399 208.961C315.842 208.297 316.506 207.633 317.391 207.19C318.276 206.748 319.161 206.526 320.268 206.526C323.588 206.526 325.137 208.297 325.137 211.616V221.354H322.702V211.616C322.702 210.51 322.481 209.846 322.038 209.182C321.596 208.518 320.711 208.297 319.604 208.297C318.719 208.297 317.834 208.518 317.391 209.182C316.727 209.846 316.506 210.51 316.285 211.395V221.132H313.85V211.395C313.85 209.182 312.744 208.297 310.752 208.297C309.203 208.297 307.875 208.961 307.432 210.51V221.132H304.998V206.526H306.768V206.969Z" fill="#010202"/>
<path d="M339.964 221.575C339.743 221.354 339.743 220.69 339.521 220.026C338.415 221.132 336.866 221.796 335.316 221.796C333.767 221.796 332.661 221.354 331.776 220.468C330.89 219.583 330.448 218.698 330.448 217.37C330.448 215.821 331.112 214.714 332.218 213.829C333.325 212.944 335.095 212.501 337.087 212.501H339.521V211.395C339.521 210.51 339.3 209.846 338.636 209.403C337.972 208.961 337.308 208.518 336.423 208.518C335.538 208.518 334.874 208.739 334.21 209.182C333.546 209.624 333.325 210.288 333.325 210.731H330.669C330.669 210.067 330.89 209.182 331.554 208.518C331.997 207.854 332.882 207.19 333.767 206.969C334.653 206.526 335.538 206.305 336.644 206.305C338.415 206.305 339.743 206.748 340.628 207.633C341.513 208.518 342.177 209.624 342.177 211.174V218.034C342.177 219.362 342.398 220.468 342.619 221.354V221.575H339.964ZM335.759 219.583C336.644 219.583 337.308 219.362 337.972 218.919C338.636 218.477 339.3 218.034 339.521 217.37V214.272H337.529C334.431 214.272 332.882 215.157 332.882 216.927C332.882 217.813 333.103 218.255 333.767 218.698C334.21 219.362 334.874 219.583 335.759 219.583Z" fill="#010202"/>
<path d="M356.34 214.051C356.34 211.837 356.782 210.067 357.889 208.518C358.995 207.19 360.323 206.526 362.094 206.526C363.864 206.526 365.192 207.19 366.077 208.297V200.551H368.512V221.354H366.298L366.077 219.804C364.971 221.132 363.643 221.575 361.872 221.575C360.102 221.575 358.774 220.911 357.668 219.583C357.004 218.255 356.34 216.485 356.34 214.051ZM358.774 214.493C358.774 216.264 359.217 217.37 359.881 218.477C360.545 219.362 361.43 219.804 362.758 219.804C364.307 219.804 365.413 219.14 366.298 217.591V210.952C365.635 209.624 364.307 208.961 362.758 208.961C361.43 208.961 360.545 209.403 359.881 210.288C359.217 211.174 358.774 212.501 358.774 214.493Z" fill="#010202"/>
<path d="M374.708 202.985C374.708 202.543 374.93 202.321 375.151 201.879C375.372 201.657 375.815 201.436 376.258 201.436C376.7 201.436 377.143 201.657 377.364 201.879C377.585 202.1 377.807 202.543 377.807 202.985C377.807 203.428 377.585 203.649 377.364 204.092C377.143 204.534 376.7 204.534 376.258 204.534C375.815 204.534 375.372 204.313 375.151 204.092C374.93 203.649 374.708 203.428 374.708 202.985ZM377.364 221.575H374.93V206.969H377.364V221.575Z" fill="#010202"/>
<path d="M400.158 213.608H395.511V221.575H392.855V201.879H399.494C401.707 201.879 403.478 202.321 404.584 203.428C405.691 204.534 406.354 205.862 406.354 207.854C406.354 209.182 406.133 210.067 405.248 211.174C404.363 212.28 403.699 212.723 402.371 213.165L407.018 221.575V221.796H404.141L400.158 213.608ZM395.511 211.395H399.494C400.822 211.395 401.707 210.952 402.592 210.288C403.256 209.624 403.699 208.739 403.699 207.633C403.699 206.305 403.256 205.42 402.592 204.756C401.928 204.092 400.822 203.871 399.494 203.871H395.511V211.395Z" fill="#010202"/>
<path d="M411.666 202.985C411.666 202.543 411.887 202.321 412.108 201.879C412.329 201.657 412.772 201.436 413.215 201.436C413.657 201.436 414.1 201.657 414.321 201.879C414.542 202.1 414.764 202.543 414.764 202.985C414.764 203.428 414.542 203.649 414.321 204.092C414.1 204.534 413.657 204.534 413.215 204.534C412.772 204.534 412.329 204.313 412.108 204.092C411.887 203.649 411.666 203.428 411.666 202.985ZM414.542 221.575H412.108V206.969H414.542V221.575Z" fill="#010202"/>
<path d="M429.149 217.591C429.149 216.927 428.927 216.485 428.485 216.042C428.042 215.6 427.157 215.378 425.829 215.157C424.501 214.936 423.616 214.493 422.731 214.272C421.846 214.05 421.403 213.387 421.182 212.944C420.739 212.501 420.739 211.837 420.739 211.174C420.739 210.067 421.182 208.96 422.288 208.075C423.395 207.19 424.501 206.747 426.272 206.747C428.042 206.747 429.37 207.19 430.255 208.075C431.141 208.96 431.804 210.067 431.804 211.395H429.37C429.37 210.731 429.149 210.067 428.485 209.624C427.821 209.182 427.157 208.96 426.272 208.96C425.387 208.96 424.723 209.182 424.059 209.624C423.616 210.067 423.395 210.51 423.395 211.174C423.395 211.837 423.616 212.28 424.059 212.501C424.501 212.723 425.387 213.165 426.714 213.387C428.042 213.608 428.927 214.05 429.813 214.493C430.698 214.936 431.141 215.378 431.583 215.821C432.026 216.263 432.247 216.927 432.247 217.813C432.247 219.14 431.804 220.247 430.698 220.911C429.591 221.796 428.264 222.017 426.714 222.017C425.608 222.017 424.501 221.796 423.616 221.353C422.731 220.911 422.067 220.247 421.403 219.583C420.961 218.919 420.739 218.034 420.739 217.149H423.174C423.174 218.034 423.616 218.698 424.28 219.14C424.944 219.583 425.829 219.804 426.714 219.804C427.6 219.804 428.485 219.583 428.927 219.14C429.37 218.698 429.149 218.255 429.149 217.591Z" fill="#010202"/>
<path d="M442.87 219.804C443.755 219.804 444.64 219.583 445.304 218.919C445.968 218.255 446.41 217.591 446.41 216.928H448.845C448.845 217.813 448.402 218.477 447.96 219.362C447.517 220.026 446.632 220.69 445.747 221.132C444.861 221.575 443.976 221.796 442.87 221.796C440.878 221.796 439.329 221.132 438.001 219.804C436.673 218.477 436.23 216.706 436.23 214.272V213.829C436.23 212.501 436.452 211.174 437.116 210.067C437.558 208.961 438.444 208.075 439.329 207.411C440.214 206.748 441.542 206.526 442.87 206.526C444.419 206.526 445.968 206.969 447.074 208.075C448.181 208.961 448.845 210.288 448.845 211.838H446.41C446.41 210.952 445.968 210.067 445.304 209.403C444.64 208.739 443.755 208.518 442.87 208.518C441.542 208.518 440.657 208.961 439.993 209.846C439.329 210.731 438.886 212.059 438.886 213.829V214.272C438.886 216.042 439.329 217.37 439.993 218.255C440.657 219.362 441.542 219.804 442.87 219.804Z" fill="#010202"/>
<path d="M453.05 214.051C453.05 212.501 453.271 211.395 453.935 210.067C454.599 208.961 455.263 208.075 456.369 207.411C457.476 206.748 458.582 206.526 459.91 206.526C461.902 206.526 463.451 207.19 464.779 208.518C466.107 209.846 466.549 211.838 466.549 214.051V214.272C466.549 215.6 466.328 216.928 465.664 218.034C465.221 219.141 464.336 220.026 463.23 220.69C462.123 221.354 461.017 221.575 459.689 221.575C457.697 221.575 456.148 220.911 454.82 219.583C453.714 218.477 453.05 216.485 453.05 214.051ZM455.484 214.493C455.484 216.042 455.927 217.37 456.591 218.477C457.255 219.362 458.361 220.026 459.689 220.026C461.017 220.026 461.902 219.583 462.787 218.477C463.451 217.37 463.894 216.042 463.894 214.272C463.894 212.723 463.451 211.395 462.787 210.288C462.123 209.182 461.017 208.739 459.689 208.739C458.361 208.739 457.476 209.182 456.591 210.288C455.927 211.174 455.484 212.501 455.484 214.493Z" fill="#010202"/>
<path d="M480.049 217.591C480.049 216.927 479.827 216.485 479.385 216.042C478.942 215.6 478.057 215.378 476.729 215.157C475.401 214.936 474.516 214.493 473.631 214.272C472.746 214.05 472.303 213.387 472.082 212.944C471.639 212.501 471.639 211.837 471.639 211.174C471.639 210.067 472.082 208.96 473.188 208.075C474.295 207.19 475.401 206.747 477.172 206.747C478.942 206.747 480.27 207.19 481.155 208.075C482.04 208.96 482.704 210.067 482.704 211.395H480.27C480.27 210.731 480.049 210.067 479.385 209.624C478.721 209.182 478.057 208.96 477.172 208.96C476.287 208.96 475.623 209.182 474.959 209.624C474.516 210.067 474.295 210.51 474.295 211.174C474.295 211.837 474.516 212.28 474.959 212.501C475.401 212.723 476.287 213.165 477.614 213.387C478.942 213.608 479.827 214.05 480.713 214.493C481.598 214.936 482.04 215.378 482.483 215.821C482.926 216.263 483.147 216.927 483.147 217.813C483.147 219.14 482.704 220.247 481.598 220.911C480.491 221.796 479.163 222.017 477.614 222.017C476.508 222.017 475.401 221.796 474.516 221.353C473.631 220.911 472.967 220.247 472.303 219.583C471.86 218.919 471.639 218.034 471.639 217.149H474.074C474.074 218.034 474.516 218.698 475.18 219.14C475.844 219.583 476.729 219.804 477.614 219.804C478.5 219.804 479.385 219.583 479.827 219.14C480.27 218.698 480.049 218.255 480.049 217.591Z" fill="#010202"/>
<path d="M496.646 217.591C496.646 216.927 496.425 216.485 495.982 216.042C495.54 215.6 494.655 215.378 493.327 215.157C491.999 214.936 491.114 214.493 490.229 214.272C489.343 214.05 488.901 213.387 488.679 212.944C488.237 212.501 488.237 211.837 488.237 211.174C488.237 210.067 488.679 208.96 489.786 208.075C490.892 207.19 491.999 206.747 493.769 206.747C495.54 206.747 496.868 207.19 497.753 208.075C498.638 208.96 499.302 210.067 499.302 211.395H496.868C496.868 210.731 496.646 210.067 495.982 209.624C495.319 209.182 494.655 208.96 493.769 208.96C492.884 208.96 492.22 209.182 491.556 209.624C491.114 210.067 490.892 210.51 490.892 211.174C490.892 211.837 491.114 212.28 491.556 212.501C491.999 212.723 492.884 213.165 494.212 213.387C495.54 213.608 496.425 214.05 497.31 214.493C498.195 214.936 498.638 215.378 499.081 215.821C499.523 216.263 499.745 216.927 499.745 217.813C499.745 219.14 499.302 220.247 498.195 220.911C497.089 221.796 495.761 222.017 494.212 222.017C493.105 222.017 491.999 221.796 491.114 221.353C490.229 220.911 489.565 220.247 488.901 219.583C488.458 218.919 488.237 218.034 488.237 217.149H490.671C490.671 218.034 491.114 218.698 491.778 219.14C492.442 219.583 493.327 219.804 494.212 219.804C495.097 219.804 495.982 219.583 496.425 219.14C496.868 218.698 496.646 218.255 496.646 217.591Z" fill="#010202"/>
<path d="M504.392 202.985C504.392 202.543 504.613 202.321 504.834 201.879C505.056 201.657 505.498 201.436 505.941 201.436C506.383 201.436 506.826 201.657 507.047 201.879C507.269 202.1 507.49 202.543 507.49 202.985C507.49 203.428 507.269 203.649 507.047 204.092C506.826 204.534 506.383 204.534 505.941 204.534C505.498 204.534 505.056 204.313 504.834 204.092C504.613 203.649 504.392 203.428 504.392 202.985ZM507.269 221.575H504.834V206.969H507.269V221.575Z" fill="#010202"/>
<path d="M512.58 214.051C512.58 212.501 512.801 211.395 513.465 210.067C514.129 208.961 514.793 208.075 515.9 207.411C517.006 206.748 518.113 206.526 519.44 206.526C521.432 206.526 522.981 207.19 524.309 208.518C525.637 209.846 526.08 211.838 526.08 214.051V214.272C526.08 215.6 525.858 216.928 525.194 218.034C524.752 219.141 523.867 220.026 522.76 220.69C521.654 221.354 520.547 221.575 519.219 221.575C517.227 221.575 515.678 220.911 514.351 219.583C513.244 218.477 512.58 216.485 512.58 214.051ZM515.236 214.493C515.236 216.042 515.678 217.37 516.342 218.477C517.006 219.362 518.113 220.026 519.44 220.026C520.768 220.026 521.654 219.583 522.539 218.477C523.203 217.37 523.645 216.042 523.645 214.272C523.645 212.723 523.203 211.395 522.539 210.288C521.875 209.182 520.768 208.739 519.44 208.739C518.113 208.739 517.227 209.182 516.342 210.288C515.457 211.174 515.236 212.501 515.236 214.493Z" fill="#010202"/>
<path d="M533.604 206.969V208.739C534.71 207.411 536.259 206.526 538.03 206.526C541.128 206.526 542.677 208.297 542.677 211.838V221.575H540.243V211.838C540.243 210.731 540.022 210.067 539.579 209.403C539.136 208.961 538.472 208.739 537.366 208.739C536.481 208.739 535.817 208.961 535.153 209.403C534.489 209.846 534.046 210.51 533.604 211.174V221.575H531.169V206.969H533.604Z" fill="#010202"/>
<path d="M554.849 221.796C552.857 221.796 551.308 221.132 549.98 219.804C548.653 218.477 548.21 216.706 548.21 214.493V214.051C548.21 212.501 548.431 211.395 549.095 210.067C549.759 208.961 550.423 208.075 551.53 207.411C552.636 206.748 553.521 206.526 554.849 206.526C556.841 206.526 558.169 207.19 559.275 208.518C560.382 209.846 560.824 211.616 560.824 213.829V214.936H550.866C550.866 216.485 551.308 217.591 552.193 218.477C553.079 219.362 553.964 219.804 555.292 219.804C556.177 219.804 556.841 219.583 557.505 219.362C558.169 218.919 558.611 218.477 559.054 217.813L560.603 218.919C559.054 220.911 557.283 221.796 554.849 221.796ZM554.406 208.739C553.3 208.739 552.636 209.182 551.751 209.846C551.087 210.51 550.644 211.616 550.423 212.944H557.726V212.723C557.726 211.395 557.283 210.51 556.619 209.846C556.398 208.961 555.513 208.739 554.406 208.739Z" fill="#010202"/>
<path d="M573.881 214.051C573.881 211.837 574.324 210.067 575.43 208.518C576.537 207.19 577.865 206.526 579.635 206.526C581.406 206.526 582.733 207.19 583.619 208.297V200.551H586.053V221.354H583.84L583.619 219.804C582.512 221.132 581.184 221.575 579.414 221.575C577.644 221.575 576.316 220.911 575.209 219.583C574.324 218.255 573.881 216.485 573.881 214.051ZM576.316 214.493C576.316 216.264 576.758 217.37 577.422 218.477C578.086 219.362 578.971 219.804 580.299 219.804C581.848 219.804 582.955 219.14 583.84 217.591V210.952C583.176 209.624 581.848 208.961 580.299 208.961C578.971 208.961 578.086 209.403 577.422 210.288C576.758 211.174 576.316 212.501 576.316 214.493Z" fill="#010202"/>
<path d="M598.225 221.796C596.233 221.796 594.684 221.132 593.356 219.804C592.029 218.477 591.586 216.706 591.586 214.493V214.051C591.586 212.501 591.807 211.395 592.471 210.067C593.135 208.961 593.799 208.075 594.905 207.411C596.012 206.748 596.897 206.526 598.225 206.526C600.217 206.526 601.545 207.19 602.651 208.518C603.758 209.846 604.2 211.616 604.2 213.829V214.936H594.02C594.02 216.485 594.463 217.591 595.348 218.477C596.233 219.362 597.119 219.804 598.446 219.804C599.332 219.804 599.995 219.583 600.659 219.362C601.323 218.919 601.766 218.477 602.209 217.813L603.758 218.919C602.651 220.911 600.881 221.796 598.225 221.796ZM598.004 208.739C596.897 208.739 596.233 209.182 595.348 209.846C594.684 210.51 594.242 211.616 594.02 212.944H601.323V212.723C601.323 211.395 600.881 210.51 600.217 209.846C599.774 208.961 599.11 208.739 598.004 208.739Z" fill="#010202"/>
<path d="M611.724 221.575H609.29V200.772H611.724V221.575Z" fill="#010202"/>
<path d="M620.576 221.575H618.142V200.772H620.576V221.575Z" fill="#010202"/>
<path d="M632.747 221.796C630.756 221.796 629.207 221.132 627.879 219.804C626.551 218.477 626.108 216.706 626.108 214.493V214.051C626.108 212.501 626.33 211.395 626.994 210.067C627.658 208.961 628.321 208.075 629.428 207.411C630.534 206.748 631.42 206.526 632.747 206.526C634.739 206.526 636.067 207.19 637.174 208.518C638.28 209.846 638.723 211.616 638.723 213.829V214.936H628.764C628.764 216.485 629.207 217.591 630.092 218.477C630.977 219.362 631.862 219.804 633.19 219.804C634.075 219.804 634.739 219.583 635.403 219.362C636.067 218.919 636.51 218.477 636.952 217.813L638.501 218.919C637.174 220.911 635.182 221.796 632.747 221.796ZM632.526 208.739C631.42 208.739 630.756 209.182 629.871 209.846C629.207 210.51 628.764 211.616 628.543 212.944H635.846V212.723C635.846 211.395 635.403 210.51 634.739 209.846C634.297 208.961 633.633 208.739 632.526 208.739Z" fill="#010202"/>
<path d="M663.951 212.501H655.32V219.362H665.279V221.575H652.665V201.879H665.058V204.092H655.32V210.51H663.951V212.501Z" fill="#010202"/>
<path d="M672.803 206.969V208.739C673.91 207.411 675.459 206.526 677.23 206.526C680.328 206.526 681.877 208.297 681.877 211.838V221.575H679.443V211.838C679.443 210.731 679.221 210.067 678.779 209.403C678.336 208.961 677.672 208.739 676.566 208.739C675.68 208.739 675.016 208.961 674.353 209.403C673.689 209.846 673.246 210.51 672.803 211.174V221.575H670.369V206.969H672.803Z" fill="#010202"/>
<path d="M691.171 203.428V206.969H693.827V208.961H691.171V218.034C691.171 218.698 691.393 219.141 691.614 219.362C691.835 219.583 692.278 219.804 692.942 219.804C693.163 219.804 693.606 219.804 694.048 219.583V221.575C693.385 221.796 692.721 221.796 692.057 221.796C690.95 221.796 690.065 221.354 689.622 220.69C688.958 220.026 688.737 219.141 688.737 217.813V208.739H686.082V206.748H688.737V203.207H691.171V203.428Z" fill="#010202"/>
<path d="M706 209.182C705.557 209.182 705.114 209.182 704.672 209.182C703.123 209.182 702.016 209.846 701.352 211.395V221.796H698.918V207.19H701.352V208.96C702.238 207.633 703.344 206.969 704.893 206.969C705.336 206.969 705.778 206.969 706 207.19V209.182Z" fill="#010202"/>
<path d="M719.056 221.575C718.835 221.354 718.835 220.69 718.613 220.026C717.507 221.132 715.958 221.796 714.409 221.796C712.86 221.796 711.753 221.354 710.868 220.468C709.983 219.583 709.54 218.698 709.54 217.37C709.54 215.821 710.204 214.714 711.31 213.829C712.417 212.944 714.187 212.501 716.179 212.501H718.613V211.395C718.613 210.51 718.392 209.846 717.728 209.403C717.064 208.961 716.4 208.518 715.515 208.518C714.63 208.518 713.966 208.739 713.302 209.182C712.638 209.624 712.417 210.288 712.417 210.731H709.983C709.983 210.067 710.204 209.182 710.868 208.518C711.31 207.854 712.196 207.19 713.081 206.969C713.966 206.526 714.851 206.305 715.958 206.305C717.728 206.305 719.056 206.748 719.941 207.633C720.826 208.518 721.49 209.624 721.49 211.174V218.034C721.49 219.362 721.712 220.468 721.933 221.354V221.575H719.056ZM714.851 219.583C715.737 219.583 716.4 219.362 717.064 218.919C717.728 218.477 718.392 218.034 718.613 217.37V214.272H716.622C713.523 214.272 711.974 215.157 711.974 216.927C711.974 217.813 712.196 218.255 712.86 218.698C713.302 219.362 713.966 219.583 714.851 219.583Z" fill="#010202"/>
<path d="M730.564 203.428V206.969H733.22V208.961H730.564V218.034C730.564 218.698 730.785 219.141 731.007 219.362C731.228 219.583 731.671 219.804 732.335 219.804C732.556 219.804 732.998 219.804 733.441 219.583V221.575C732.777 221.796 732.113 221.796 731.449 221.796C730.343 221.796 729.458 221.354 729.015 220.69C728.351 220.026 728.13 219.141 728.13 217.813V208.739H725.474V206.748H728.13V203.207H730.564V203.428Z" fill="#010202"/>
<path d="M744.505 221.796C742.514 221.796 740.964 221.132 739.637 219.804C738.309 218.477 737.866 216.706 737.866 214.493V214.051C737.866 212.501 738.088 211.395 738.751 210.067C739.415 208.961 740.079 208.075 741.186 207.411C742.292 206.748 743.177 206.526 744.505 206.526C746.497 206.526 747.825 207.19 748.931 208.518C750.038 209.846 750.481 211.616 750.481 213.829V214.936H740.079C740.079 216.485 740.522 217.591 741.407 218.477C742.292 219.362 743.177 219.804 744.505 219.804C745.391 219.804 746.054 219.583 746.718 219.362C747.382 218.919 747.825 218.477 748.267 217.813L749.817 218.919C748.71 220.911 746.94 221.796 744.505 221.796ZM744.063 208.739C742.956 208.739 742.292 209.182 741.407 209.846C740.743 210.51 740.301 211.616 740.079 212.944H747.382V212.723C747.382 211.395 746.94 210.51 746.276 209.846C746.054 208.961 745.169 208.739 744.063 208.739Z" fill="#010202"/>
<defs>
<linearGradient id="paint0_linear" x1="161.819" y1="84.3458" x2="166.459" y2="84.3458" gradientUnits="userSpaceOnUse">
<stop stop-color="#941821"/>
<stop offset="1" stop-color="#E6224A"/>
</linearGradient>
<linearGradient id="paint1_linear" x1="130.476" y1="75.5857" x2="161.86" y2="75.5857" gradientUnits="userSpaceOnUse">
<stop stop-color="#941821"/>
<stop offset="1" stop-color="#E6224A"/>
</linearGradient>
<linearGradient id="paint2_linear" x1="95.1789" y1="71.0468" x2="110.715" y2="71.0468" gradientUnits="userSpaceOnUse">
<stop stop-color="#941821"/>
<stop offset="1" stop-color="#E6224A"/>
</linearGradient>
<linearGradient id="paint3_linear" x1="95.1789" y1="82.175" x2="130.517" y2="82.175" gradientUnits="userSpaceOnUse">
<stop stop-color="#941821"/>
<stop offset="1" stop-color="#E6224A"/>
</linearGradient>
<linearGradient id="paint4_linear" x1="0.92627" y1="88.0535" x2="200.795" y2="88.0535" gradientUnits="userSpaceOnUse">
<stop stop-color="#941821"/>
<stop offset="1" stop-color="#E6224A"/>
</linearGradient>
<linearGradient id="paint5_linear" x1="95.1789" y1="113.826" x2="120.677" y2="113.826" gradientUnits="userSpaceOnUse">
<stop stop-color="#941821"/>
<stop offset="1" stop-color="#E6224A"/>
</linearGradient>
<linearGradient id="paint6_linear" x1="119.354" y1="159.812" x2="120.677" y2="159.812" gradientUnits="userSpaceOnUse">
<stop stop-color="#941821"/>
<stop offset="1" stop-color="#E6224A"/>
</linearGradient>
<linearGradient id="paint7_linear" x1="149.901" y1="124.577" x2="160.599" y2="124.577" gradientUnits="userSpaceOnUse">
<stop stop-color="#941821"/>
<stop offset="1" stop-color="#E6224A"/>
</linearGradient>
<linearGradient id="paint8_linear" x1="95.1789" y1="134.189" x2="149.806" y2="134.189" gradientUnits="userSpaceOnUse">
<stop stop-color="#941821"/>
<stop offset="1" stop-color="#E6224A"/>
</linearGradient>
</defs>
</svg>
