<svg width="931" height="173" viewBox="0 0 931 173" fill="none" xmlns="http://www.w3.org/2000/svg">
<path d="M250.777 115.759C256.974 119.521 263.834 121.513 271.58 121.513C279.325 121.513 286.407 119.521 292.604 115.759C298.579 111.997 303.447 106.464 306.546 99.3826C309.865 92.3009 311.414 84.1127 311.414 74.8179V69.728C311.414 60.4332 309.644 52.245 306.546 45.3846C303.226 38.3029 298.579 32.7703 292.382 29.0082C286.407 25.246 279.325 23.2543 271.58 23.2543C263.834 23.2543 256.752 25.246 250.777 29.0082C244.802 32.7703 239.933 38.3029 236.614 45.6059C233.294 52.6876 231.745 60.8758 231.745 70.1706V75.2606C231.745 84.334 233.516 92.3009 236.835 99.3826C239.933 106.464 244.802 111.997 250.777 115.759ZM271.58 40.0733C278.219 40.0733 283.087 42.5077 286.628 47.5976C290.169 52.6876 292.161 60.2119 292.161 69.9493V74.8179C292.161 84.7766 290.39 92.3009 286.85 97.3909C283.309 102.26 278.44 104.694 272.022 104.694C265.605 104.694 260.736 102.26 256.974 97.1696C253.212 92.0796 251.441 84.334 251.441 74.8179V69.5067C251.441 59.9906 253.433 52.6876 257.195 47.5976C260.515 42.5077 265.162 40.0733 271.58 40.0733Z" fill="#010202"/>
<path d="M323.365 44.7207V57.1137C323.365 57.9989 324.25 58.8842 325.135 58.8842H347.487V118.415C347.487 119.3 348.372 120.185 349.257 120.185H364.527C365.412 120.185 366.298 119.3 366.298 118.415V58.8842H388.871C389.756 58.8842 390.641 57.9989 390.641 57.1137V44.7207C390.641 43.8355 389.756 42.9503 388.871 42.9503H324.914C324.25 43.1716 323.365 43.8355 323.365 44.7207Z" fill="#010202"/>
<path d="M398.386 44.7207V57.1137C398.386 57.9989 399.271 58.8842 400.157 58.8842H422.508V118.415C422.508 119.3 423.393 120.185 424.279 120.185H439.549C440.434 120.185 441.319 119.3 441.319 118.415V58.8842H463.892C464.777 58.8842 465.662 57.9989 465.662 57.1137V44.7207C465.662 43.8355 464.777 42.9503 463.892 42.9503H399.935C399.05 43.1716 398.386 43.8355 398.386 44.7207Z" fill="#010202"/>
<path d="M481.154 43.1716C480.269 43.1716 479.383 44.0568 479.383 44.942V118.636C479.383 119.521 480.269 120.406 481.154 120.406H496.424C497.309 120.406 498.194 119.521 498.194 118.636V44.7207C498.194 43.8355 497.309 42.9503 496.424 42.9503H481.154V43.1716Z" fill="#010202"/>
<path d="M549.094 57.7776C553.52 57.7776 556.839 58.6628 559.052 60.6545C561.265 62.6463 562.593 65.7445 563.257 69.9493C563.257 70.8345 564.142 71.4984 565.027 71.4984H580.297C580.74 71.4984 581.183 71.2771 581.625 70.8345C582.068 70.3919 582.068 69.9493 582.068 69.5067C581.183 60.8758 577.863 54.0154 571.888 49.1468C566.134 44.2781 558.388 41.8438 549.094 41.8438C542.233 41.8438 536.037 43.3929 530.947 46.4911C525.635 49.5894 521.652 54.0154 518.775 59.548C516.119 65.0806 514.57 71.7197 514.57 79.0227V83.2275C514.57 94.9565 517.669 104.251 523.865 110.669C530.062 117.308 538.471 120.628 548.872 120.628C558.388 120.628 566.134 118.193 572.109 113.546C578.084 108.677 581.404 102.038 582.289 93.6287C582.289 93.1861 582.068 92.7435 581.847 92.3009C581.625 91.8583 580.961 91.637 580.519 91.637H565.249C564.364 91.637 563.7 92.3009 563.478 93.1861C563.036 97.3909 561.708 100.489 559.495 102.26C557.282 104.03 553.741 104.915 549.094 104.915C544.004 104.915 540.241 103.366 537.807 99.8252C535.152 96.2844 533.824 90.7518 533.824 83.4488V78.8014C533.381 64.8593 538.471 57.7776 549.094 57.7776Z" fill="#010202"/>
<path d="M664.172 83.2275V80.3505C664.172 68.6215 660.853 59.3267 654.656 52.4663C648.238 45.6059 639.608 42.0651 628.985 42.0651C622.125 42.0651 615.928 43.6142 610.617 46.7124C605.306 49.8107 601.101 54.2367 598.224 60.2119C595.347 65.9658 593.798 72.6049 593.798 80.1292V83.0062C593.798 94.7353 597.117 104.03 603.535 110.89C609.953 117.751 618.584 121.292 628.985 121.292C639.386 121.292 648.017 117.751 654.435 111.112C660.853 104.03 664.172 94.7352 664.172 83.2275ZM617.035 63.3102C619.912 59.7693 623.895 57.9989 628.985 57.9989C634.296 57.9989 638.059 59.7693 640.936 63.3102C643.812 67.0723 645.362 72.6049 645.362 79.9079V83.2275C645.362 90.5305 643.812 96.0631 640.936 99.8252C638.059 103.587 634.296 105.358 628.985 105.358C623.895 105.358 619.912 103.587 617.035 99.8252C614.158 96.0631 612.609 90.3092 612.609 83.4488V80.1292C612.609 72.6049 614.158 67.0723 617.035 63.3102Z" fill="#010202"/>
<path d="M732.554 44.4993L733.218 46.9337L754.021 118.857C754.242 119.521 754.906 120.185 755.791 120.185H763.315C764.201 120.185 764.864 119.742 765.086 118.857L788.765 26.7951C788.987 26.3524 788.765 25.6885 788.544 25.2459C788.323 24.8033 787.659 24.582 787.216 24.582H779.249C778.364 24.582 777.7 25.0246 777.479 25.9098L760.881 93.1861L759.332 100.046L757.783 93.6287L738.087 25.6885C737.865 25.0246 737.201 24.3607 736.316 24.3607H729.013C728.128 24.3607 727.464 24.8033 727.243 25.6885L707.326 93.6287L705.776 99.8251L704.449 93.1861L687.63 25.9098C687.408 25.0246 686.744 24.582 685.859 24.582H677.892C677.45 24.582 676.786 24.8033 676.564 25.2459C676.343 25.6885 676.122 26.1311 676.343 26.7951L699.801 118.857C700.023 119.742 700.686 120.185 701.572 120.185H709.096C709.76 120.185 710.645 119.742 710.866 118.857L732.333 46.7124L732.554 44.4993Z" fill="#010202"/>
<path d="M855.82 110.227H815.543V85.2192H850.288C851.173 85.2192 852.058 84.334 852.058 83.4488V77.031C852.058 76.1458 851.173 75.2606 850.288 75.2606H815.543V53.1303H855.599C856.484 53.1303 857.37 52.2451 857.37 51.3598V44.7207C857.37 43.8355 856.484 42.9503 855.599 42.9503H806.248C805.363 42.9503 804.478 43.8355 804.478 44.7207V118.415C804.478 119.3 805.363 120.185 806.248 120.185H855.82C856.706 120.185 857.591 119.3 857.591 118.415V111.997C857.591 111.112 856.706 110.227 855.82 110.227Z" fill="#010202"/>
<path d="M925.752 85.2192C923.76 82.7849 921.326 81.0145 918.67 79.908C920.883 78.5801 922.654 77.031 924.203 75.2606C926.637 72.1624 927.744 68.6215 927.744 64.4167C927.744 57.5563 925.31 52.2451 920.22 48.4829C915.351 44.942 908.49 42.9503 899.417 42.9503H875.959C875.074 42.9503 874.188 43.8355 874.188 44.7207V118.415C874.188 119.3 875.074 120.185 875.959 120.185H902.737C911.146 120.185 918.007 118.193 922.875 114.431C927.965 110.448 930.4 104.915 930.4 97.8335C930.4 93.1862 928.85 88.9814 925.752 85.2192ZM915.351 106.907C912.474 109.12 908.491 110.227 903.179 110.227H885.475V85.4405H904.286C909.154 85.4405 912.917 86.7684 915.572 88.9814C918.228 91.1944 919.556 94.0714 919.556 97.8335C919.334 101.817 918.007 104.694 915.351 106.907ZM912.695 72.8263C909.818 74.818 905.835 75.7032 900.302 75.7032H885.254V53.1303H900.302C916.679 53.3516 916.679 61.7611 916.679 64.638C916.679 68.4002 915.351 71.0558 912.695 72.8263Z" fill="#010202"/>
<path d="M160.486 58.2201L143.667 75.2605C144.995 77.0309 146.323 78.8013 147.208 81.0143L165.133 63.0888C164.248 61.7609 163.142 60.6544 162.035 59.5479C161.371 59.1053 160.929 58.6627 160.486 58.2201Z" fill="url(#paint0_linear)"/>
<path d="M150.528 100.046C150.528 103.809 150.306 107.128 149.643 110.226L174.65 85.2191C174.207 82.5635 173.543 80.1292 172.658 77.9161L150.528 100.046Z" fill="url(#paint1_linear)"/>
<path d="M175.978 106.243L137.471 144.75H143.225H146.987L174.65 117.087C175.314 113.767 175.757 110.227 175.978 106.243Z" fill="url(#paint2_linear)"/>
<path d="M120.208 66.851C121.315 66.6297 122.422 66.6297 123.749 66.6297C125.741 66.6297 127.512 66.851 129.282 67.0723L146.986 49.368C144.773 48.4828 142.56 47.5976 140.126 46.9337L120.208 66.851Z" fill="url(#paint3_linear)"/>
<path d="M123.749 134.57C121.315 134.57 119.102 134.349 116.889 133.685L105.603 144.971H107.152H115.119L125.52 134.57C125.077 134.349 124.413 134.57 123.749 134.57Z" fill="url(#paint4_linear)"/>
<path d="M105.824 76.1458C101.176 81.2357 98.9634 89.424 98.9634 100.489C98.9634 111.333 101.398 119.3 106.045 124.611C110.692 129.922 116.668 132.357 123.971 132.357C131.274 132.357 137.028 129.922 141.675 124.611C146.322 119.3 148.757 111.112 148.757 100.047C148.757 89.2027 146.544 81.0144 141.896 75.9245C137.47 70.8345 131.495 68.4001 123.971 68.4001C116.225 68.6214 110.471 71.0558 105.824 76.1458Z" fill="url(#paint5_linear)"/>
<path d="M73.2924 81.8997C72.4072 85.4405 71.7433 88.9814 71.522 92.9648L119.766 44.7207C116.004 44.942 112.463 45.3846 108.922 46.0485L73.2924 81.8997Z" fill="url(#paint6_linear)"/>
<path d="M187.706 0.0174561H91.8819C88.3411 0.0174561 85.0215 1.34528 82.5872 3.55831L59.129 24.5821H14.2045C6.90146 24.5821 0.92627 29.8934 0.92627 36.5325V133.021C0.92627 139.66 6.90146 144.971 14.2045 144.971H86.128C85.4641 144.307 84.8002 143.643 84.1363 143.201C74.399 133.021 69.309 119.079 69.309 101.374C69.309 90.3092 71.0794 80.7932 74.399 73.0476C77.0546 67.2937 80.3742 62.2037 84.8002 57.5563C89.2263 52.909 94.3163 49.5894 99.6275 47.3764C106.488 44.4994 114.676 42.9503 123.528 42.9503C139.905 42.9503 153.183 48.2616 163.142 58.4415C173.1 68.6215 177.969 83.0062 177.969 100.932C177.969 118.636 172.879 133.021 163.142 143.201C162.478 143.865 161.814 144.529 161.15 145.192H162.478H187.264C194.567 145.192 200.542 139.881 200.542 133.242V11.9678C200.763 5.32874 194.788 0.0174561 187.706 0.0174561Z" fill="url(#paint7_linear)"/>
<path d="M86.1282 142.094L103.611 124.611C102.283 122.841 101.177 120.849 100.07 118.636L81.7021 137.225C82.8087 138.774 84.1365 140.324 85.4643 141.651C85.6856 141.873 85.9069 141.873 86.1282 142.094Z" fill="url(#paint8_linear)"/>
<path d="M96.9714 99.6039C96.9714 95.8417 97.414 92.5222 97.8566 89.2026L72.4067 114.653C72.8493 117.308 73.5133 119.742 74.1772 122.177L96.9714 99.6039Z" fill="url(#paint9_linear)"/>
<path d="M239.048 158.691H234.401V166.658H231.745V146.962H238.384C240.597 146.962 242.368 147.405 243.474 148.511C244.581 149.618 245.245 150.945 245.245 152.937C245.245 154.265 245.023 155.15 244.359 156.257C243.695 157.363 242.81 157.806 241.482 158.248L246.13 166.658V166.879H243.253L239.048 158.691ZM234.401 156.478H238.384C239.712 156.478 240.819 156.035 241.482 155.371C242.146 154.708 242.589 153.822 242.589 152.716C242.589 151.388 242.146 150.503 241.482 149.839C240.819 149.175 239.712 148.954 238.384 148.954H234.401V156.478Z" fill="#010202"/>
<path d="M256.532 166.88C254.54 166.88 252.991 166.216 251.663 164.888C250.335 163.56 249.893 161.79 249.893 159.577V159.134C249.893 157.585 250.114 156.479 250.778 155.151C251.22 154.044 252.106 153.159 253.212 152.495C254.319 151.831 255.204 151.61 256.532 151.61C258.523 151.61 259.851 152.274 260.958 153.602C262.064 154.93 262.507 156.7 262.507 158.913V160.02H252.548C252.548 161.569 252.991 162.675 253.876 163.56C254.761 164.446 255.646 164.888 256.974 164.888C257.859 164.888 258.523 164.667 259.187 164.446C259.851 164.003 260.294 163.56 260.736 162.897L262.286 164.003C260.958 165.995 258.966 166.88 256.532 166.88ZM256.31 153.823C255.204 153.823 254.54 154.266 253.655 154.93C252.991 155.594 252.548 156.7 252.327 158.028H259.63V157.807C259.63 156.479 259.187 155.594 258.523 154.93C258.081 154.044 257.417 153.823 256.31 153.823Z" fill="#010202"/>
<path d="M279.768 159.356C279.768 161.569 279.326 163.339 278.219 164.667C277.113 165.995 275.785 166.659 274.015 166.659C272.244 166.659 270.916 165.995 269.81 164.889V171.97H267.375V151.61H269.589L269.81 153.159C270.916 151.832 272.244 151.168 274.015 151.168C275.785 151.168 277.113 151.832 278.219 153.159C279.326 154.487 279.768 156.258 279.768 158.692V159.356ZM277.334 159.135C277.334 157.586 276.892 156.258 276.228 155.151C275.564 154.045 274.457 153.602 273.351 153.602C271.802 153.602 270.695 154.266 270.031 155.594V162.675C270.695 164.003 272.023 164.667 273.572 164.667C274.678 164.667 275.785 164.225 276.449 163.339C276.892 162.454 277.334 161.126 277.334 159.135Z" fill="#010202"/>
<path d="M284.415 159.134C284.415 157.585 284.636 156.479 285.3 155.151C285.964 154.044 286.628 153.159 287.735 152.495C288.841 151.831 289.948 151.61 291.275 151.61C293.267 151.61 294.816 152.274 296.144 153.602C297.472 154.93 297.915 156.921 297.915 159.134V159.356C297.915 160.684 297.693 162.011 297.029 163.118C296.587 164.224 295.701 165.11 294.595 165.774C293.488 166.437 292.382 166.659 291.054 166.659C289.062 166.659 287.513 165.995 286.185 164.667C285.079 163.339 284.415 161.569 284.415 159.134ZM286.849 159.356C286.849 160.905 287.292 162.233 287.956 163.339C288.62 164.224 289.726 164.888 291.054 164.888C292.382 164.888 293.267 164.446 294.152 163.339C294.816 162.233 295.259 160.905 295.259 159.134C295.259 157.585 294.816 156.257 294.152 155.151C293.488 154.044 292.382 153.602 291.054 153.602C289.726 153.602 288.841 154.044 287.956 155.151C287.292 156.257 286.849 157.585 286.849 159.356Z" fill="#010202"/>
<path d="M311.415 162.675C311.415 162.011 311.194 161.569 310.751 161.126C310.308 160.684 309.423 160.462 308.095 160.241C306.768 160.02 305.882 159.577 304.997 159.356C304.112 159.135 303.669 158.471 303.448 158.028C303.005 157.585 303.005 156.922 303.005 156.258C303.005 155.151 303.448 154.045 304.554 153.159C305.661 152.274 306.768 151.832 308.538 151.832C310.308 151.832 311.636 152.274 312.521 153.159C313.407 154.045 314.071 155.151 314.071 156.479H311.636C311.636 155.815 311.415 155.151 310.751 154.708C310.087 154.266 309.423 154.045 308.538 154.045C307.653 154.045 306.989 154.266 306.325 154.708C305.882 155.151 305.661 155.594 305.661 156.258C305.661 156.922 305.882 157.364 306.325 157.585C306.768 157.807 307.653 158.249 308.981 158.471C310.308 158.692 311.194 159.135 312.079 159.577C312.964 160.02 313.407 160.462 313.849 160.905C314.292 161.348 314.513 162.011 314.513 162.897C314.513 164.225 314.071 165.331 312.964 165.995C311.858 166.88 310.53 167.101 308.981 167.101C307.874 167.101 306.768 166.88 305.882 166.438C304.997 165.995 304.333 165.331 303.669 164.667C303.227 164.003 303.005 163.118 303.005 162.233H305.44C305.44 163.118 305.882 163.782 306.546 164.225C307.21 164.667 308.095 164.888 308.981 164.888C309.866 164.888 310.751 164.667 311.194 164.225C311.636 163.782 311.415 163.339 311.415 162.675Z" fill="#010202"/>
<path d="M319.382 148.069C319.382 147.627 319.603 147.405 319.824 146.963C320.046 146.52 320.488 146.52 320.931 146.52C321.374 146.52 321.816 146.742 322.038 146.963C322.259 147.184 322.48 147.627 322.48 148.069C322.48 148.512 322.259 148.733 322.038 149.176C321.816 149.397 321.374 149.619 320.931 149.619C320.488 149.619 320.046 149.397 319.824 149.176C319.603 148.955 319.382 148.512 319.382 148.069ZM322.038 166.659H319.603V152.053H322.038V166.659Z" fill="#010202"/>
<path d="M331.553 148.291V151.831H334.209V153.823H331.553V162.897C331.553 163.561 331.774 164.003 331.995 164.224C332.217 164.446 332.659 164.667 333.323 164.667C333.545 164.667 333.987 164.667 334.43 164.446V166.438C333.766 166.659 333.102 166.659 332.438 166.659C331.332 166.659 330.446 166.216 330.004 165.552C329.34 164.888 329.119 164.003 329.119 162.675V153.602H326.463V151.61H329.119V148.291H331.553Z" fill="#010202"/>
<path d="M338.414 159.134C338.414 157.585 338.635 156.479 339.299 155.151C339.963 153.823 340.627 153.159 341.734 152.495C342.84 151.831 343.947 151.61 345.274 151.61C347.266 151.61 348.815 152.274 350.143 153.602C351.471 154.93 351.914 156.921 351.914 159.134V159.356C351.914 160.684 351.692 162.011 351.028 163.118C350.586 164.224 349.701 165.11 348.594 165.774C347.488 166.437 346.381 166.659 345.053 166.659C343.061 166.659 341.512 165.995 340.184 164.667C339.078 163.339 338.414 161.569 338.414 159.134ZM341.07 159.356C341.07 160.905 341.512 162.233 342.176 163.339C342.84 164.224 343.947 164.888 345.274 164.888C346.602 164.888 347.487 164.446 348.373 163.339C349.258 162.233 349.479 160.905 349.479 159.134C349.479 157.585 349.037 156.257 348.373 155.151C347.709 154.044 346.602 153.602 345.274 153.602C343.947 153.602 343.061 154.044 342.176 155.151C341.291 156.257 341.07 157.585 341.07 159.356Z" fill="#010202"/>
<path d="M364.085 154.266C363.643 154.266 363.2 154.266 362.757 154.266C361.208 154.266 360.102 154.93 359.438 156.479V166.88H357.003V152.274H359.438V154.045C360.323 152.717 361.43 152.053 362.979 152.053C363.421 152.053 363.864 152.053 364.085 152.274V154.266Z" fill="#010202"/>
<path d="M373.601 162.897L376.92 151.832H379.576L373.601 168.872C372.715 171.306 371.166 172.634 369.175 172.634H368.732L367.847 172.413V170.421H368.511C369.396 170.421 370.06 170.2 370.502 169.978C370.945 169.757 371.388 169.093 371.609 167.987L372.052 166.438L366.74 151.832H369.396L373.601 162.897Z" fill="#010202"/>
<path d="M396.174 166.659H393.518V146.963H396.174V166.659Z" fill="#010202"/>
<path d="M405.026 151.832V153.381C406.132 152.053 407.46 151.389 409.452 151.389C411.444 151.389 412.993 152.274 413.657 153.823C414.099 153.159 414.763 152.495 415.648 152.053C416.534 151.61 417.419 151.389 418.525 151.389C421.845 151.389 423.394 153.159 423.394 156.479V166.216H420.96V156.479C420.96 155.372 420.738 154.708 420.296 154.045C419.853 153.381 418.968 153.159 417.861 153.159C416.976 153.159 416.091 153.381 415.648 154.045C415.206 154.708 414.763 155.372 414.542 156.258V165.995H412.108V156.258C412.108 154.045 411.001 153.159 409.009 153.159C407.46 153.159 406.132 153.823 405.69 155.372V165.995H403.255V151.389H405.026V151.832Z" fill="#010202"/>
<path d="M431.582 151.832V153.381C432.689 152.053 434.016 151.389 436.008 151.389C438 151.389 439.549 152.274 440.213 153.823C440.656 153.159 441.319 152.495 442.205 152.053C443.09 151.61 443.975 151.389 445.082 151.389C448.401 151.389 449.95 153.159 449.95 156.479V166.216H447.516V156.479C447.516 155.372 447.295 154.708 446.852 154.045C446.409 153.381 445.524 153.159 444.418 153.159C443.532 153.159 442.647 153.381 441.983 154.045C441.319 154.708 441.098 155.372 440.877 156.258V165.995H438.442V156.258C438.442 154.045 437.336 153.159 435.344 153.159C433.795 153.159 432.467 153.823 432.025 155.372V165.995H429.59V151.389H431.582V151.832Z" fill="#010202"/>
<path d="M464.556 166.659C464.335 166.438 464.335 165.774 464.113 165.11C463.007 166.216 461.458 166.88 459.909 166.88C458.36 166.88 457.253 166.438 456.368 165.552C455.483 164.667 455.04 163.782 455.04 162.454C455.04 160.905 455.704 159.798 456.81 158.913C457.917 158.028 459.687 157.585 461.679 157.585H464.113V156.479C464.113 155.594 463.892 154.93 463.228 154.487C462.786 154.045 461.9 153.602 461.015 153.602C460.13 153.602 459.466 153.823 458.802 154.266C458.138 154.708 457.917 155.372 457.917 155.815H455.483C455.483 155.151 455.704 154.266 456.368 153.602C456.81 152.938 457.696 152.274 458.581 152.053C459.466 151.61 460.351 151.389 461.458 151.389C463.228 151.389 464.556 151.832 465.441 152.717C466.327 153.602 466.99 154.708 466.99 156.258V163.118C466.99 164.446 467.212 165.552 467.433 166.438V166.659H464.556ZM460.573 164.667C461.458 164.667 462.122 164.446 462.786 164.003C463.45 163.561 464.113 163.118 464.335 162.454V159.356H462.343C459.245 159.356 457.696 160.241 457.696 162.011C457.696 162.897 457.917 163.339 458.581 163.782C459.024 164.446 459.687 164.667 460.573 164.667Z" fill="#010202"/>
<path d="M472.302 159.134C472.302 156.921 472.745 154.93 473.851 153.602C474.958 152.274 476.286 151.61 478.056 151.61C479.827 151.61 481.154 152.274 482.261 153.602L482.482 152.053H484.695V166.437C484.695 168.429 484.031 169.757 482.925 170.863C481.818 171.97 480.269 172.413 478.277 172.413C477.171 172.413 476.286 172.191 475.179 171.749C474.073 171.306 473.409 170.642 472.966 169.978L474.294 168.429C475.4 169.757 476.728 170.421 478.277 170.421C479.605 170.421 480.49 169.978 481.154 169.314C481.818 168.65 482.261 167.765 482.261 166.437V165.11C481.154 166.216 479.827 166.88 478.056 166.88C476.286 166.88 474.958 166.216 473.851 164.888C472.745 163.339 472.302 161.569 472.302 159.134ZM474.737 159.356C474.737 160.905 475.179 162.233 475.843 163.339C476.507 164.224 477.392 164.667 478.72 164.667C480.269 164.667 481.376 164.003 482.261 162.454V155.815C481.597 154.487 480.269 153.602 478.72 153.602C477.392 153.602 476.507 154.044 475.843 154.93C475.179 156.257 474.737 157.585 474.737 159.356Z" fill="#010202"/>
<path d="M490.449 148.069C490.449 147.627 490.67 147.405 490.891 146.963C491.113 146.52 491.555 146.52 491.998 146.52C492.44 146.52 492.883 146.742 493.104 146.963C493.326 147.184 493.547 147.627 493.547 148.069C493.547 148.512 493.326 148.733 493.104 149.176C492.883 149.397 492.44 149.619 491.998 149.619C491.555 149.619 491.113 149.397 490.891 149.176C490.67 148.955 490.449 148.512 490.449 148.069ZM493.326 166.659H490.891V152.053H493.326V166.659Z" fill="#010202"/>
<path d="M501.735 151.832V153.602C502.842 152.274 504.391 151.389 506.161 151.389C509.259 151.389 510.809 153.159 510.809 156.7V166.438H508.374V156.7C508.374 155.594 508.153 154.93 507.71 154.266C507.268 153.823 506.604 153.602 505.497 153.602C504.612 153.602 503.948 153.823 503.284 154.266C502.62 154.708 502.178 155.372 501.735 156.036V166.438H499.301V151.832H501.735Z" fill="#010202"/>
<path d="M516.784 148.069C516.784 147.627 517.005 147.405 517.226 146.963C517.448 146.742 517.89 146.52 518.333 146.52C518.775 146.52 519.218 146.742 519.439 146.963C519.661 147.184 519.882 147.627 519.882 148.069C519.882 148.512 519.661 148.733 519.439 149.176C519.218 149.397 518.775 149.619 518.333 149.619C517.89 149.619 517.448 149.397 517.226 149.176C516.784 148.733 516.784 148.512 516.784 148.069ZM519.439 166.659H517.005V152.053H519.439V166.659Z" fill="#010202"/>
<defs>
<linearGradient id="paint0_linear" x1="143.588" y1="69.6918" x2="164.998" y2="69.6918" gradientUnits="userSpaceOnUse">
<stop stop-color="#F7B807"/>
<stop offset="0.5922" stop-color="#F8C845"/>
<stop offset="1" stop-color="#F8D365"/>
</linearGradient>
<linearGradient id="paint1_linear" x1="149.767" y1="94.0122" x2="174.768" y2="94.0122" gradientUnits="userSpaceOnUse">
<stop stop-color="#F7B807"/>
<stop offset="0.5922" stop-color="#F8C845"/>
<stop offset="1" stop-color="#F8D365"/>
</linearGradient>
<linearGradient id="paint2_linear" x1="137.51" y1="125.592" x2="176.044" y2="125.592" gradientUnits="userSpaceOnUse">
<stop stop-color="#F7B807"/>
<stop offset="0.5922" stop-color="#F8C845"/>
<stop offset="1" stop-color="#F8D365"/>
</linearGradient>
<linearGradient id="paint3_linear" x1="120.292" y1="56.9742" x2="147.144" y2="56.9742" gradientUnits="userSpaceOnUse">
<stop stop-color="#F7B807"/>
<stop offset="0.5922" stop-color="#F8C845"/>
<stop offset="1" stop-color="#F8D365"/>
</linearGradient>
<linearGradient id="paint4_linear" x1="105.758" y1="139.248" x2="125.577" y2="139.248" gradientUnits="userSpaceOnUse">
<stop stop-color="#F7B807"/>
<stop offset="0.5922" stop-color="#F8C845"/>
<stop offset="1" stop-color="#F8D365"/>
</linearGradient>
<linearGradient id="paint5_linear" x1="98.8886" y1="100.571" x2="148.656" y2="100.571" gradientUnits="userSpaceOnUse">
<stop stop-color="#F7B807"/>
<stop offset="0.5922" stop-color="#F8C845"/>
<stop offset="1" stop-color="#F8D365"/>
</linearGradient>
<linearGradient id="paint6_linear" x1="71.5753" y1="68.9713" x2="119.901" y2="68.9713" gradientUnits="userSpaceOnUse">
<stop stop-color="#F7B807"/>
<stop offset="0.5922" stop-color="#F8C845"/>
<stop offset="1" stop-color="#F8D365"/>
</linearGradient>
<linearGradient id="paint7_linear" x1="0.92627" y1="72.4379" x2="200.795" y2="72.4379" gradientUnits="userSpaceOnUse">
<stop stop-color="#F7B807"/>
<stop offset="0.5922" stop-color="#F8C845"/>
<stop offset="1" stop-color="#F8D365"/>
</linearGradient>
<linearGradient id="paint8_linear" x1="81.7294" y1="130.476" x2="103.508" y2="130.476" gradientUnits="userSpaceOnUse">
<stop stop-color="#F7B807"/>
<stop offset="0.5922" stop-color="#F8C845"/>
<stop offset="1" stop-color="#F8D365"/>
</linearGradient>
<linearGradient id="paint9_linear" x1="72.3921" y1="105.765" x2="97.8285" y2="105.765" gradientUnits="userSpaceOnUse">
<stop stop-color="#F7B807"/>
<stop offset="0.5922" stop-color="#F8C845"/>
<stop offset="1" stop-color="#F8D365"/>
</linearGradient>
</defs>
</svg>
