<svg width="200" height="173" viewBox="0 0 200 173" fill="none" xmlns="http://www.w3.org/2000/svg">
<path d="M35.035 170.889H12.4998V169.728H14.7534V141.771H12.4998V140.61H34.8347V150.299H33.2322L32.9818 149.189C32.5812 147.406 32.0637 145.825 31.4294 144.445C30.8285 143.066 30.2943 142.292 29.8269 142.124C29.3929 141.956 28.8587 141.855 28.2244 141.821C27.6235 141.788 26.8389 141.771 25.8707 141.771H22.4153V154.538H24.5186C24.986 154.538 25.4367 154.404 25.8707 154.135C26.3047 153.832 26.6887 153.243 27.0225 152.368C27.3898 151.46 27.6568 150.417 27.8238 149.24L27.9239 148.584H29.1258V161.654H28.0241L27.8739 160.796C27.6068 159.518 27.2395 158.357 26.7721 157.314C26.3047 156.237 25.5869 155.699 24.6188 155.699H22.4153V169.728H26.4717C27.3731 169.728 28.1409 169.695 28.7753 169.627C29.443 169.527 29.9271 169.358 30.2275 169.123C30.8619 168.618 31.4795 167.441 32.0804 165.59C32.4143 164.581 32.7815 163.084 33.1821 161.099L33.4826 159.736H35.035V170.889Z" fill="#3F3F3F"/>
<path d="M64.1915 155.8C64.1915 158.492 63.841 160.762 63.1399 162.613C62.4388 164.43 61.1534 166.145 59.2838 167.76C57.7481 169.072 56.0288 169.947 54.1258 170.384C52.6902 170.721 50.7038 170.889 48.1665 170.889H37.4497V169.728H39.7533V141.771H37.4497V140.61H48.3668C50.3699 140.61 52.2061 140.795 53.8754 141.165C55.5447 141.535 56.9302 142.057 58.0319 142.73C60.3021 144.176 61.9213 146.027 62.8895 148.281C63.7575 150.266 64.1915 152.772 64.1915 155.8ZM55.8785 155.094C55.8785 150.888 55.6448 148.012 55.1774 146.464C54.2426 143.335 52.2395 141.771 49.168 141.771H47.3652V169.728H49.6187C52.4565 169.728 54.3094 167.979 55.1774 164.48C55.6448 162.596 55.8785 159.467 55.8785 155.094Z" fill="#3F3F3F"/>
<path d="M79.0096 170.889H66.7905V169.728H69.0941V141.771H66.7905V140.61H79.0096V141.771H76.706V169.728H79.0096V170.889Z" fill="#3F3F3F"/>
<path d="M103.555 150.35H101.952L101.451 147.625C101.251 146.649 100.951 145.606 100.55 144.496C100.049 143.184 99.6151 142.427 99.2479 142.225C98.914 142.023 98.5802 141.905 98.2463 141.872C97.9125 141.804 97.4618 141.771 96.8942 141.771H95.9928V169.728H98.2463V170.889H86.0273V169.728H88.3309V141.771H87.129C86.4613 141.771 85.8937 141.905 85.4263 142.175C84.9589 142.444 84.4915 143.15 84.0241 144.294C83.6903 145.101 83.4065 146.077 83.1728 147.221L82.5218 150.35H81.0194V140.61H103.555V150.35Z" fill="#3F3F3F"/>
<path d="M132.296 154.942C132.296 159.82 131.144 163.79 128.841 166.852C126.537 169.88 123.366 171.394 119.326 171.394C115.386 171.394 112.181 169.846 109.711 166.751C107.24 163.656 106.005 159.804 106.005 155.194C106.005 151.225 107.19 147.742 109.561 144.748C112.065 141.586 115.169 140.005 118.875 140.005C122.681 140.005 125.869 141.384 128.44 144.143C131.011 146.901 132.296 150.501 132.296 154.942ZM123.583 154.639C123.583 150.333 123.399 147.322 123.032 145.606C122.397 142.545 121.045 141.014 118.975 141.014C117.273 141.014 116.088 142.393 115.42 145.152C114.986 146.969 114.769 149.492 114.769 152.722C114.769 153.226 114.769 153.714 114.769 154.185C114.769 154.656 114.785 155.094 114.819 155.497C114.819 160.577 115.003 164.009 115.37 165.792C116.004 168.82 117.34 170.334 119.376 170.334C121.713 170.334 123.048 168.282 123.382 164.177C123.516 162.529 123.583 159.349 123.583 154.639Z" fill="#3F3F3F"/>
<path d="M162.087 170.889H152.422L144.61 154.841H146.312C148.449 154.841 149.985 154.219 150.92 152.974C151.721 151.897 152.121 150.4 152.121 148.483C152.121 146.229 151.838 144.647 151.27 143.739C150.435 142.427 148.8 141.771 146.362 141.771H144.409V169.728H147.264V170.889H134.494V169.728H136.797V141.771H134.494V140.61H150.218C153.29 140.61 155.61 141.165 157.179 142.275C158.982 143.554 159.883 145.438 159.883 147.928C159.883 150.182 159.199 151.847 157.83 152.924C157.029 153.563 155.677 154.135 153.774 154.639L152.422 154.993L160.184 169.728H162.087V170.889Z" fill="#3F3F3F"/>
<path d="M187.423 170.889H164.888V169.728H167.142V141.771H164.888V140.61H187.223V150.299H185.621L185.37 149.189C184.97 147.406 184.452 145.825 183.818 144.445C183.217 143.066 182.683 142.292 182.215 142.124C181.781 141.956 181.247 141.855 180.613 141.821C180.012 141.788 179.227 141.771 178.259 141.771H174.804V154.538H176.907C177.374 154.538 177.825 154.404 178.259 154.135C178.693 153.832 179.077 153.243 179.411 152.368C179.778 151.46 180.045 150.417 180.212 149.24L180.312 148.584H181.514V161.654H180.413L180.262 160.796C179.995 159.518 179.628 158.357 179.161 157.314C178.693 156.237 177.975 155.699 177.007 155.699H174.804V169.728H178.86C179.762 169.728 180.529 169.695 181.164 169.627C181.831 169.527 182.316 169.358 182.616 169.123C183.25 168.618 183.868 167.441 184.469 165.59C184.803 164.581 185.17 163.084 185.571 161.099L185.871 159.736H187.423V170.889Z" fill="#3F3F3F"/>
<path d="M32.7511 134.066H19.5305V132.905H22.8356V106.158L14.2222 134.066H11.9687L3.40532 105.704V132.905H6.91079V134.066H0V132.905H2.25352V104.947H0V103.786H10.3662L16.1753 123.821L22.3849 103.786H32.7511V104.947H30.4976V132.905H32.7511V134.066Z" fill="#3F3F3F"/>
<path d="M61.8882 134.066H48.8679V132.905H52.173L48.918 122.257H41.6066L38.4516 132.905H42.3577V134.066H35.3468V132.905H37.1997L45.9634 103.786H50.871L60.1355 132.905H61.8882V134.066ZM48.6676 121.197L45.3624 109.842L41.907 121.197H48.6676Z" fill="#3F3F3F"/>
<path d="M90.5421 121.399H88.2886V131.391L86.2354 132.552C84.9668 133.258 83.6814 133.763 82.3794 134.066C81.0774 134.402 79.6418 134.57 78.0727 134.57C74.0664 134.57 70.828 133.073 68.3575 130.079C65.9204 127.051 64.7018 123.148 64.7018 118.371C64.7018 113.762 66.0539 110.044 68.7581 107.218C71.3288 104.527 74.5004 103.181 78.273 103.181C80.1426 103.181 81.6115 103.231 82.6799 103.332C83.7482 103.433 84.9 103.669 86.1352 104.039L87.2871 104.341V113.274H85.9349L83.9318 107.824C83.4644 106.545 82.8635 105.603 82.129 104.998C81.3945 104.392 80.5098 104.089 79.4748 104.089C79.3079 104.089 78.9908 104.123 78.5234 104.19C76.3533 104.527 74.8677 106.495 74.0664 110.095C73.5322 112.45 73.2652 115.763 73.2652 120.036C73.2652 123.838 73.4154 126.546 73.7159 128.161C74.3836 131.761 75.7524 133.561 77.8223 133.561C78.1561 133.561 78.4065 133.544 78.5734 133.51C79.5416 133.342 80.1926 132.737 80.5265 131.694C80.7268 131.054 80.827 130.011 80.827 128.565V121.399H77.8723V120.389H90.5421V121.399Z" fill="#3F3F3F"/>
<path d="M118.926 121.399H116.672V131.391L114.619 132.552C113.35 133.258 112.065 133.763 110.763 134.066C109.461 134.402 108.025 134.57 106.456 134.57C102.45 134.57 99.2116 133.073 96.7411 130.079C94.3039 127.051 93.0854 123.148 93.0854 118.371C93.0854 113.762 94.4375 110.044 97.1417 107.218C99.7124 104.527 102.884 103.181 106.657 103.181C108.526 103.181 109.995 103.231 111.063 103.332C112.132 103.433 113.284 103.669 114.519 104.039L115.671 104.341V113.274H114.318L112.315 107.824C111.848 106.545 111.247 105.603 110.513 104.998C109.778 104.392 108.893 104.089 107.858 104.089C107.691 104.089 107.374 104.123 106.907 104.19C104.737 104.527 103.251 106.495 102.45 110.095C101.916 112.45 101.649 115.763 101.649 120.036C101.649 123.838 101.799 126.546 102.099 128.161C102.767 131.761 104.136 133.561 106.206 133.561C106.54 133.561 106.79 133.544 106.957 133.51C107.925 133.342 108.576 132.737 108.91 131.694C109.11 131.054 109.211 130.011 109.211 128.565V121.399H106.256V120.389H118.926V121.399Z" fill="#3F3F3F"/>
<path d="M133.638 134.066H121.419V132.905H123.722V104.947H121.419V103.786H133.638V104.947H131.334V132.905H133.638V134.066Z" fill="#3F3F3F"/>
<path d="M162.189 118.118C162.189 122.997 161.037 126.967 158.734 130.028C156.43 133.056 153.259 134.57 149.219 134.57C145.279 134.57 142.074 133.023 139.604 129.927C137.133 126.832 135.898 122.98 135.898 118.371C135.898 114.401 137.083 110.919 139.454 107.925C141.958 104.762 145.062 103.181 148.768 103.181C152.574 103.181 155.763 104.56 158.333 107.319C160.904 110.078 162.189 113.678 162.189 118.118ZM153.476 117.816C153.476 113.509 153.292 110.498 152.925 108.782C152.29 105.721 150.938 104.19 148.868 104.19C147.166 104.19 145.981 105.569 145.313 108.328C144.879 110.145 144.662 112.668 144.662 115.898C144.662 116.403 144.662 116.891 144.662 117.362C144.662 117.833 144.679 118.27 144.712 118.674C144.712 123.754 144.896 127.185 145.263 128.969C145.897 131.996 147.233 133.51 149.269 133.51C151.606 133.51 152.941 131.458 153.275 127.354C153.409 125.705 153.476 122.526 153.476 117.816Z" fill="#3F3F3F"/>
<path d="M185.219 134.066H164.287V132.905H166.54V104.947H164.287V103.786H177.507V104.947H174.202V132.905H177.307C177.808 132.905 178.208 132.905 178.509 132.905C178.976 132.905 179.344 132.888 179.611 132.854C179.911 132.821 180.178 132.703 180.412 132.501C181.547 131.626 182.532 128.733 183.367 123.821L183.667 122.156H185.219V134.066Z" fill="#3F3F3F"/>
<path d="M200 134.066H187.781V132.905H190.085V104.947H187.781V103.786H200V104.947H197.696V132.905H200V134.066Z" fill="#3F3F3F"/>
<path d="M1.6886 47.9005V2H15.1687H28.6487V47.9005V93.801H15.1687H1.6886V47.9005V47.9005Z" fill="#0559A3"/>
<path d="M36.186 47.9005V2H49.6661H63.1461V47.9005V93.801H49.6661H36.186V47.9005V47.9005Z" fill="#0559A3"/>
<path d="M70.3137 47.9005V2H83.7938H97.2738V47.9005V93.801H83.7938H70.3137V47.9005Z" fill="#0559A3"/>
<path d="M104.832 80.8335V68.036H151.756H198.681V80.8335V93.631H151.756H104.832V80.8335Z" fill="#0559A3"/>
<path d="M104.832 47.8406V35.0431H151.756H198.681V47.8406V60.6382H151.756H104.832V47.8406Z" fill="#0559A3"/>
<path d="M104.832 15.0793V2.28174H151.756H198.681V15.0793V27.8768H151.756H104.832V15.0793Z" fill="#0559A3"/>
</svg>
