<?xml version="1.0" encoding="UTF-8" standalone="no"?>
<!-- Created with Inkscape (http://www.inkscape.org/) -->

<svg
   xmlns:dc="http://purl.org/dc/elements/1.1/"
   xmlns:cc="http://creativecommons.org/ns#"
   xmlns:rdf="http://www.w3.org/1999/02/22-rdf-syntax-ns#"
   xmlns:svg="http://www.w3.org/2000/svg"
   xmlns="http://www.w3.org/2000/svg"
   xmlns:sodipodi="http://sodipodi.sourceforge.net/DTD/sodipodi-0.dtd"
   xmlns:inkscape="http://www.inkscape.org/namespaces/inkscape"
   id="svg2"
   version="1.1"
   inkscape:version="0.48.4 r9939"
   width="165.67751"
   height="172.01988"
   xml:space="preserve"
   sodipodi:docname="logo_Gruppo Maggioli.svg"><metadata
     id="metadata8"><rdf:RDF><cc:Work
         rdf:about=""><dc:format>image/svg+xml</dc:format><dc:type
           rdf:resource="http://purl.org/dc/dcmitype/StillImage" /><dc:title /></cc:Work></rdf:RDF></metadata><defs
     id="defs6"><clipPath
       clipPathUnits="userSpaceOnUse"
       id="clipPath16"><path
         d="m 0,198.425 198.425,0 L 198.425,0 0,0 0,198.425 z"
         id="path18"
         inkscape:connector-curvature="0" /></clipPath></defs><sodipodi:namedview
     pagecolor="#ffffff"
     bordercolor="#666666"
     borderopacity="1"
     objecttolerance="10"
     gridtolerance="10"
     guidetolerance="10"
     inkscape:pageopacity="0"
     inkscape:pageshadow="2"
     inkscape:window-width="1920"
     inkscape:window-height="1018"
     id="namedview4"
     showgrid="false"
     inkscape:zoom="3.805972"
     inkscape:cx="78.072534"
     inkscape:cy="78.518"
     inkscape:window-x="1358"
     inkscape:window-y="-8"
     inkscape:window-maximized="1"
     inkscape:current-layer="g10"
     fit-margin-top="0"
     fit-margin-left="0"
     fit-margin-right="0"
     fit-margin-bottom="0" /><g
     id="g10"
     inkscape:groupmode="layer"
     inkscape:label="logo_Gruppo Maggioli"
     transform="matrix(1.25,0,0,-1.25,-45.4425,217.8825)"><g
       id="g12"><g
         id="g14"
         clip-path="url(#clipPath16)"><g
           id="g20"
           transform="translate(114.4668,37.9131)"><path
             d="m 0,0 c -2.422,0 -5.54,0.982 -5.54,3.959 0,1.582 1.538,5.303 7.031,5.303 5.913,0 6.752,-1.348 6.752,-4.096 C 8.243,4.422 7.916,0 0,0"
             style="fill:#0359a3;fill-opacity:1;fill-rule:nonzero;stroke:none"
             id="path22"
             inkscape:connector-curvature="0" /></g><g
           id="g24"
           transform="translate(98.0059,37.9131)"><path
             d="m 0,0 c -2.423,0 -5.542,0.982 -5.542,3.959 0,1.582 1.536,5.303 7.03,5.303 5.909,0 6.75,-1.348 6.75,-4.096 C 8.238,4.422 7.911,0 0,0"
             style="fill:#0359a3;fill-opacity:1;fill-rule:nonzero;stroke:none"
             id="path26"
             inkscape:connector-curvature="0" /></g><path
           d="m 36.354,174.306 132.542,0 0,-132.542 -132.542,0 0,132.542 z"
           style="fill:#0359a3;fill-opacity:1;fill-rule:nonzero;stroke:none"
           id="path28"
           inkscape:connector-curvature="0" /><g
           id="g30"
           transform="translate(138.3691,66.1846)"><path
             d="m 0,0 c -4.887,0 -8.981,-4.1 -8.981,-9.73 0,-5.631 4.094,-9.776 8.981,-9.776 4.887,0 8.981,4.145 8.981,9.776 C 8.981,-4.1 4.887,0 0,0 m 0,-0.934 c 4.7,0 4.749,-4.931 4.749,-8.796 0,-3.909 -0.049,-8.844 -4.749,-8.844 -4.702,0 -4.749,4.935 -4.749,8.844 0,3.865 0.047,8.796 4.749,8.796"
             style="fill:#ffffff;fill-opacity:1;fill-rule:nonzero;stroke:none"
             id="path32"
             inkscape:connector-curvature="0" /></g><g
           id="g34"
           transform="translate(145.4609,47.2842)"><path
             d="m 0,0 0,1.072 3.585,0 0,28.772 -3.585,0 0,1.07 2.003,0 c 1.725,0 3.535,0.096 5.211,0.42 l 0,-30.262 3.588,0 L 10.802,0 0,0 z"
             style="fill:#ffffff;fill-opacity:1;fill-rule:nonzero;stroke:none"
             id="path36"
             inkscape:connector-curvature="0" /></g><g
           id="g38"
           transform="translate(77.3374,153.1904)"><path
             d="m 0,0 1.631,0 0,4.915 -3.43,0 0,-1.913 1.141,0 c -0.13,-0.663 -0.74,-0.989 -1.338,-0.989 -1.575,0 -1.892,1.464 -1.892,2.301 0,0.613 -0.058,2.602 1.715,2.602 0.61,0 1.127,-0.462 1.221,-1.114 l 2.479,0 C 1.151,7.903 -0.2,9.141 -2.336,9.141 c -1.893,0 -4.136,-1.361 -4.136,-4.764 0,-2.539 1.528,-4.59 4.005,-4.59 0.916,0 1.809,0.337 2.383,1.126 L 0,0 z"
             style="fill:#ffffff;fill-opacity:1;fill-rule:nonzero;stroke:none"
             id="path40"
             inkscape:connector-curvature="0" /></g><g
           id="g42"
           transform="translate(85.1777,159.9927)"><path
             d="m 0,0 1.208,0 c 0.987,0 1.281,-0.325 1.281,-0.887 0,-0.8 -0.658,-0.889 -1.138,-0.889 L 0,-1.776 0,0 z m -2.584,-6.802 2.584,0 0,3.114 1.373,0 c 1.022,0 1.093,-0.888 1.164,-1.738 0.034,-0.464 0.081,-0.926 0.211,-1.376 l 2.583,0 C 5.096,-6.39 5.084,-5.327 5.05,-4.89 c -0.094,1.114 -0.53,1.94 -1.234,2.226 0.857,0.338 1.258,1.314 1.258,2.24 0,1.688 -1.271,2.549 -2.738,2.549 l -4.92,0 0,-8.927 z"
             style="fill:#ffffff;fill-opacity:1;fill-rule:evenodd;stroke:none"
             id="path44"
             inkscape:connector-curvature="0" /></g><g
           id="g46"
           transform="translate(101.252,162.1182)"><path
             d="m 0,0 -2.583,0 0,-4.865 c 0,-0.912 0,-2.05 -1.221,-2.05 -1.257,0 -1.257,1.138 -1.257,2.05 l 0,4.865 -2.585,0 0,-5.475 c 0,-2.477 1.269,-3.666 3.831,-3.666 2.558,0 3.815,1.189 3.815,3.666 L 0,0 z"
             style="fill:#ffffff;fill-opacity:1;fill-rule:nonzero;stroke:none"
             id="path48"
             inkscape:connector-curvature="0" /></g><g
           id="g50"
           transform="translate(107.4834,159.8306)"><path
             d="m 0,0 1.152,0 c 0.635,0 1.222,-0.05 1.222,-0.863 0,-0.9 -0.705,-0.95 -1.373,-0.95 L 0,-1.813 0,0 z m -2.581,-6.64 2.581,0 0,2.701 1.529,0 c 1.924,0 3.286,1.014 3.286,3.176 0,1.276 -0.798,3.051 -3.075,3.051 l -4.321,0 0,-8.928 z"
             style="fill:#ffffff;fill-opacity:1;fill-rule:evenodd;stroke:none"
             id="path52"
             inkscape:connector-curvature="0" /></g><g
           id="g54"
           transform="translate(118.0977,159.8306)"><path
             d="m 0,0 1.151,0 c 0.63,0 1.224,-0.05 1.224,-0.863 0,-0.9 -0.707,-0.95 -1.375,-0.95 l -1,0 L 0,0 z m -2.583,-6.64 2.583,0 0,2.701 1.525,0 c 1.928,0 3.29,1.014 3.29,3.176 0,1.276 -0.797,3.051 -3.076,3.051 l -4.322,0 0,-8.928 z"
             style="fill:#ffffff;fill-opacity:1;fill-rule:evenodd;stroke:none"
             id="path56"
             inkscape:connector-curvature="0" /></g><g
           id="g58"
           transform="translate(128.4629,157.6553)"><path
             d="M 0,0 C 0,1.989 1.013,2.451 1.668,2.451 2.328,2.451 3.336,1.989 3.336,0 3.336,-1.988 2.328,-2.452 1.668,-2.452 1.013,-2.452 0,-1.988 0,0 m -2.583,0 c 0,-2.727 1.704,-4.678 4.251,-4.678 2.551,0 4.252,1.951 4.252,4.678 0,2.727 -1.701,4.676 -4.252,4.676 -2.547,0 -4.251,-1.949 -4.251,-4.676"
             style="fill:#ffffff;fill-opacity:1;fill-rule:evenodd;stroke:none"
             id="path60"
             inkscape:connector-curvature="0" /></g><g
           id="g62"
           transform="translate(98.0059,37.9131)"><path
             d="m 0,0 c -2.423,0 -5.542,0.982 -5.542,3.959 0,1.582 1.536,5.303 7.03,5.303 5.909,0 6.75,-1.348 6.75,-4.096 C 8.238,4.422 7.911,0 0,0 m -3.353,21.926 c 0,4.42 1.117,5.537 3.443,5.537 2.795,0 3.167,-2.791 3.167,-5.121 0,-2.885 -0.233,-5.303 -3.633,-5.303 -2.559,0 -2.977,2.791 -2.977,4.887 m 3.057,-9.649 -4.98,0 c -0.698,0 -1.21,0.463 -1.21,0.975 0,2.328 4.282,2.375 8.89,2.982 0.979,0.092 4.702,1.44 4.702,5.815 0,1.303 -0.651,2.514 -0.651,3.023 0,0.471 1.007,1.119 1.473,1.119 0.329,0 0.793,-1.396 1.582,-1.396 0.979,0 1.492,0.838 1.492,1.766 0,1.212 -0.981,1.587 -1.814,1.587 -1.539,0 -2.964,-1.535 -3.433,-2.605 -1.21,1.812 -3.118,2.695 -5.817,2.695 -4.608,0 -6.702,-3.488 -6.702,-6.422 0,-2.654 1.396,-4.234 3.489,-5.255 l 0,-0.098 c -1.767,-0.277 -4.654,-1.025 -4.654,-3.58 0,-3.352 2.7,-3.678 5.074,-4.006 l 0,-0.141 C -5.229,8.131 -8.299,6.879 -8.299,3.617 c 0,-1.953 2.231,-4.84 8.933,-4.84 4.425,0 9.451,2.051 9.451,7.774 0,1.398 -0.372,2.697 -1.304,3.769 -1.49,1.676 -2.701,1.957 -9.077,1.957"
             style="fill:#ffffff;fill-opacity:1;fill-rule:nonzero;stroke:none"
             id="path64"
             inkscape:connector-curvature="0" /></g><g
           id="g66"
           transform="translate(114.4668,37.9131)"><path
             d="m 0,0 c -2.422,0 -5.54,0.982 -5.54,3.959 0,1.582 1.538,5.303 7.031,5.303 5.913,0 6.752,-1.348 6.752,-4.096 C 8.243,4.422 7.916,0 0,0 m -3.35,21.926 c 0,4.42 1.119,5.537 3.443,5.537 2.794,0 3.164,-2.791 3.164,-5.121 0,-2.885 -0.233,-5.303 -3.626,-5.303 -2.565,0 -2.981,2.791 -2.981,4.887 m 9.106,3.617 c -1.21,1.812 -3.115,2.695 -5.817,2.695 -4.607,0 -6.701,-3.488 -6.701,-6.422 0,-2.654 1.396,-4.234 3.492,-5.255 l 0,-0.098 C -5.039,16.186 -7.009,15.375 -8.278,12.816 -9.863,9.629 -10.035,8.988 -7.661,8.664 l 0.352,-0.975 c 0,-2.65 -0.99,-0.81 -0.99,-4.072 0,-1.953 2.234,-4.84 8.94,-4.84 4.422,0 9.448,2.051 9.448,7.774 0,1.398 -0.373,2.697 -1.301,3.769 -1.494,1.676 -2.704,1.957 -9.078,1.957 l -4.984,0 c -0.698,0 -1.209,0.463 -1.209,0.975 0,2.328 4.281,2.375 8.889,2.982 0.979,0.092 4.701,1.44 4.701,5.815 0,2.053 -1.351,3.494 -1.351,3.494"
             style="fill:#ffffff;fill-opacity:1;fill-rule:nonzero;stroke:none"
             id="path68"
             inkscape:connector-curvature="0" /></g><g
           id="g70"
           transform="translate(121.3867,47.2842)"><path
             d="m 0,0 0,1.072 3.121,0 0,16.287 -7.675,0 0,1.075 6.092,0 c 1.723,0 3.538,0.045 5.217,0.466 l 0,-17.828 2.743,0 L 9.498,0 0,0 z"
             style="fill:#ffffff;fill-opacity:1;fill-rule:nonzero;stroke:none"
             id="path72"
             inkscape:connector-curvature="0" /></g><g
           id="g74"
           transform="translate(125.8828,72.3701)"><path
             d="m 0,0 c 1.117,0 2.377,-1.025 2.377,-2.232 0,-1.442 -1.026,-2.469 -2.377,-2.469 -1.349,0 -2.229,1.117 -2.229,2.469 C -2.229,-1.025 -1.164,0 0,0"
             style="fill:#ffffff;fill-opacity:1;fill-rule:nonzero;stroke:none"
             id="path76"
             inkscape:connector-curvature="0" /></g><g
           id="g78"
           transform="translate(159.9688,72.3174)"><path
             d="m 0,0 c 1.121,0 2.372,-1.021 2.372,-2.236 0,-1.44 -1.023,-2.465 -2.372,-2.465 -1.348,0 -2.234,1.117 -2.234,2.465 C -2.234,-1.021 -1.163,0 0,0"
             style="fill:#ffffff;fill-opacity:1;fill-rule:nonzero;stroke:none"
             id="path80"
             inkscape:connector-curvature="0" /></g><g
           id="g82"
           transform="translate(155.0801,47.2842)"><path
             d="m 0,0 0,1.072 3.118,0 0,16.287 -3.118,0 0,1.075 1.538,0 c 1.723,0 3.535,0.045 5.214,0.466 l 0,-17.828 2.746,0 L 9.498,0 0,0 z"
             style="fill:#ffffff;fill-opacity:1;fill-rule:nonzero;stroke:none"
             id="path84"
             inkscape:connector-curvature="0" /></g><g
           id="g86"
           transform="translate(40.1563,77.3076)"><path
             d="m 0,0 0,1.072 9.31,0 6.563,-22.902 0.092,0 6.844,22.902 9.264,0 0,-1.072 -3.539,0 0,-28.951 3.539,0 0,-1.072 -11.639,0 0,1.072 3.585,0 0,28.392 -0.095,0 -9.029,-29.464 -1.209,0 -8.705,29.464 -0.093,0 0,-28.392 3.491,0 0,-1.072 -8.379,0 0,1.072 3.492,0 L 3.492,0 0,0 z"
             style="fill:#ffffff;fill-opacity:1;fill-rule:nonzero;stroke:none"
             id="path88"
             inkscape:connector-curvature="0" /></g><g
           id="g90"
           transform="translate(89.9766,50.4971)"><path
             d="m 0,0 c -0.23,-0.791 -0.696,-2.096 -1.625,-2.096 -0.98,0 -0.98,0.746 -0.98,2.141 l 0,11.078 c 0,1.863 0,4.565 -6.332,4.565 -5.537,0 -7.449,-2.795 -7.449,-4.471 0,-1.301 0.701,-2.235 1.959,-2.235 1.161,0 1.907,0.791 1.907,1.957 0,1.536 -1.395,1.766 -1.395,2.141 0,1.352 3.302,1.674 4.329,1.674 1.626,0 3.351,-0.654 3.351,-2.838 l 0,-4.422 c -7.121,0 -11.543,-2.422 -11.685,-6.75 0,-3.443 2.514,-4.562 5.446,-4.562 2.375,0 4.701,0.886 6.287,2.841 0.324,-1.722 1.303,-2.841 3.023,-2.841 2.142,0 3.817,1.629 3.957,3.818 L 0,0 z m -6.235,2.189 c 0,-1.957 -0.653,-2.468 -1.023,-2.837 -1.118,-0.977 -2.096,-1.354 -3.585,-1.354 -2.142,0 -3.584,1.395 -3.584,3.68 0,4.279 5.167,4.793 8.192,4.84 l 0,-4.329 z"
             style="fill:#ffffff;fill-opacity:1;fill-rule:nonzero;stroke:none"
             id="path92"
             inkscape:connector-curvature="0" /></g></g></g></g></svg>