<svg width="130" height="130" viewBox="0 0 130 130" fill="none" xmlns="http://www.w3.org/2000/svg">
<path d="M124.315 35.1539C133.811 23.8092 125.431 5.86747 110.488 6.00074C106.959 6.00101 103.509 7.04711 100.573 9.00697C97.638 10.9668 95.3492 13.7525 93.996 17.0123C87.3324 33.4547 64.1098 35.3372 55.0307 20.0276C39.7877 -4.8276 1.27212 5.58426 1.00558 35.1539C0.605761 55.0448 21.7793 69.7047 40.2041 62.4913C62.3273 54.1618 85.3667 75.1022 79.1862 97.9416C78.3701 101.065 78.2798 104.335 78.9222 107.499C79.5647 110.663 80.9228 113.638 82.8925 116.196C84.8623 118.755 87.3914 120.828 90.2862 122.258C93.181 123.688 96.3647 124.436 99.5934 124.446C115.22 124.746 125.798 107.054 118.268 93.4603C107.406 75.8185 110.239 49.9471 124.315 35.1539Z" fill="#00379E"/>
<path d="M43.8192 106.588C43.8192 111.337 41.9325 115.892 38.574 119.251C35.2155 122.609 30.6604 124.496 25.9108 124.496C21.1612 124.496 16.6061 122.609 13.2477 119.251C9.88919 115.892 8.00244 111.337 8.00244 106.588C8.00244 96.7089 10.9844 77.9342 25.9108 77.9342C40.8373 77.9342 43.8192 96.5923 43.8192 106.588Z" fill="#00379E"/>
</svg>
