<svg width="262" height="115" viewBox="0 0 262 115" fill="none" xmlns="http://www.w3.org/2000/svg">
<path d="M88.6062 97.7098C88.6062 94.5054 88.5656 90.4171 84.6649 90.4171C80.7626 90.4171 80.7236 94.5054 80.7236 97.7098C80.7236 100.951 80.7626 105.042 84.6649 105.042C88.5656 105.042 88.6062 100.951 88.6062 97.7098Z" fill="#00379E"/>
<path d="M76.4435 13.8054C76.4435 12.1563 77.2842 11.7733 77.8278 11.7733C78.3756 11.7733 79.2121 12.1563 79.2121 13.8054C79.2121 15.4536 78.3756 15.8383 77.8278 15.8383C77.2842 15.8383 76.4435 15.4536 76.4435 13.8054Z" fill="#00379E"/>
<path d="M68.7964 12.002H67.8412V13.5051H68.6711C69.2255 13.5051 69.8122 13.4637 69.8122 12.7175C69.8122 12.0434 69.3193 12.002 68.7964 12.002Z" fill="#00379E"/>
<path d="M59.9881 12.002H59.0321V13.5051H59.8628C60.4172 13.5051 61.0023 13.4637 61.0023 12.7175C61.0023 12.0434 60.5151 12.002 59.9881 12.002Z" fill="#00379E"/>
<path d="M41.5226 11.8676H40.5201V13.34H41.6413C42.0397 13.34 42.5858 13.2662 42.5858 12.603C42.5858 12.137 42.3418 11.8676 41.5226 11.8676Z" fill="#00379E"/>
<path fill-rule="evenodd" clip-rule="evenodd" d="M0 0H110V109.889H72.8358C73.0707 109.233 73.201 108.49 73.201 107.651C73.201 106.816 73.0402 106.023 72.6622 105.313H78.4534V104.424H76.177V89.6431C74.7835 89.9921 73.2772 90.0294 71.8472 90.0294H67.1708C66.4766 89.7893 65.6806 89.6705 64.7772 89.6705C60.9538 89.6705 59.2159 92.5624 59.2159 94.9949C59.2159 97.1953 60.3745 98.5053 62.114 99.3518V99.433C60.6459 99.6627 59.0109 100.335 57.9577 102.457C57.7353 102.903 57.5465 103.29 57.3957 103.625C56.3438 103.026 54.7612 102.904 50.9208 102.904H46.7878C46.2085 102.904 45.7835 102.52 45.7835 102.095C45.7835 100.472 48.2978 100.186 51.3724 99.8371L51.373 99.837C51.9536 99.7711 52.5542 99.7028 53.1616 99.6229C53.9741 99.5466 57.0639 98.429 57.0639 94.8017C57.0639 94.1369 56.8593 93.501 56.7019 93.0119C56.6035 92.7061 56.5236 92.4577 56.5236 92.2954C56.5236 91.9049 57.3594 91.3677 57.7461 91.3677C57.8532 91.3677 57.9776 91.5458 58.1288 91.7624C58.3629 92.0977 58.6612 92.5251 59.059 92.5251C59.8715 92.5251 60.2973 91.8303 60.2973 91.0609C60.2973 90.056 59.4831 89.7451 58.7918 89.7451C57.5146 89.7451 56.3319 91.0178 55.9427 91.9049C54.9385 90.4026 53.355 89.6705 51.115 89.6705C47.2907 89.6705 45.5528 92.5624 45.5528 94.9949C45.5528 97.1953 46.7114 98.5053 48.4484 99.3518V99.433C46.982 99.6627 44.586 100.283 44.586 102.401C44.586 102.453 44.5656 102.497 44.5433 102.546C44.529 102.578 44.5138 102.611 44.5028 102.649C44.3119 103.305 43.9251 104.387 43.1541 104.387C42.3408 104.387 42.3408 103.768 42.3408 102.612V93.4271C42.3408 91.8825 42.3408 89.6423 37.0857 89.6423C32.4904 89.6423 30.9036 91.9596 30.9036 93.3492C30.9036 94.4278 31.4854 95.2022 32.5294 95.2022C33.493 95.2022 34.1121 94.5464 34.1121 93.5796C34.1121 92.7273 33.5935 92.36 33.2504 92.1171C33.0809 91.9971 32.9543 91.9074 32.9543 91.8046C32.9543 90.6836 35.6947 90.4167 36.5471 90.4167C37.8965 90.4167 39.3282 90.9589 39.3282 92.7696V96.4359C33.4183 96.4359 29.7483 98.4439 29.6305 102.032C29.6305 104.887 31.7169 105.815 34.1503 105.815C36.1213 105.815 38.0517 105.08 39.368 103.459C39.6369 104.887 40.4494 105.815 41.8769 105.815C43.2275 105.815 44.3544 105.035 44.8688 103.864C45.5205 105.271 47.1889 105.501 48.7163 105.711L48.797 105.722V105.839C46.8747 106.329 44.4025 107.329 44.2834 109.889H0V0ZM90.5505 105.313V104.424H93.5258V80.5696H90.5505V79.6824H92.2128C93.6444 79.6824 95.1466 79.6029 96.5376 79.3342V104.424L101.121 104.424V90.9207H98.5338V90.0294H99.8102C101.24 90.0294 102.744 89.9921 104.137 89.6431V104.424H106.416V105.313L90.5505 105.313ZM102.591 84.5576C103.522 84.5576 104.56 85.4042 104.56 86.4117C104.56 87.6057 103.711 88.4556 102.591 88.4556C101.472 88.4556 100.737 87.5294 100.737 86.4117C100.737 85.4042 101.626 84.5576 102.591 84.5576ZM77.2113 97.7098C77.2113 93.042 80.6091 89.6428 84.6649 89.6428C88.7208 89.6428 92.1185 93.042 92.1185 97.7098C92.1185 102.378 88.7208 105.815 84.6649 105.815C80.6091 105.815 77.2113 102.378 77.2113 97.7098ZM76.2753 86.3647C76.2753 85.3639 75.2295 84.514 74.3024 84.514C73.3362 84.514 72.4522 85.3639 72.4522 86.3647C72.4522 87.4858 73.1827 88.412 74.3024 88.412C75.4237 88.412 76.2753 87.5604 76.2753 86.3647ZM3.15562 79.532V80.4208H6.05373V104.424H3.15562V105.313H10.1096V104.424H7.2123V80.8842H7.28949L14.514 105.313H15.5174L23.0108 80.8842H23.0896V104.424H20.1143V105.313H29.7738V104.424H26.8367V80.4208H29.7738V79.532H22.0854L16.4054 98.5198H16.329L10.8822 79.532H3.15562ZM34.0131 17.5072H35.3668V13.4322H32.5201V15.0182H33.4671C33.3592 15.5679 32.8529 15.8382 32.3566 15.8382C31.0495 15.8382 30.7864 14.6244 30.7864 13.9305L30.7863 13.8835C30.7849 13.3281 30.7809 11.7732 32.2097 11.7732C32.716 11.7732 33.145 12.1562 33.2231 12.6968H35.2804C34.9684 10.9549 33.8472 9.92847 32.0744 9.92847C30.5034 9.92847 28.6419 11.0569 28.6419 13.8782C28.6419 15.9833 29.91 17.6838 31.9657 17.6838C32.7259 17.6838 33.4671 17.4044 33.9434 16.7502L34.0131 17.5072ZM74.2998 13.8054C74.2998 16.0663 75.714 17.6839 77.8278 17.6839C79.945 17.6839 81.3567 16.0663 81.3567 13.8054C81.3567 11.5445 79.945 9.92858 77.8278 9.92858C75.714 9.92858 74.2998 11.5445 74.2998 13.8054ZM67.8412 17.5071H65.6975V10.105H69.2844C71.1758 10.105 71.8372 11.5766 71.8372 12.6346C71.8372 14.4271 70.7069 15.2677 69.1068 15.2677H67.8412V17.5071ZM59.0321 17.5071H56.89V10.105H60.4761C62.3659 10.105 63.0282 11.5766 63.0282 12.6346C63.0282 14.4271 61.8978 15.2677 60.301 15.2677H59.0321V17.5071ZM40.5201 17.507H38.3755V10.1057H42.4588C43.6763 10.1057 44.7311 10.8196 44.7311 12.2191C44.7311 12.9868 44.3983 13.796 43.6871 14.0762C44.2713 14.3134 44.6332 14.9982 44.7112 15.9218C44.7162 15.9866 44.7207 16.0679 44.7257 16.1597C44.7489 16.5819 44.7842 17.2265 44.9444 17.507H42.8007C42.6928 17.1339 42.6538 16.7509 42.6256 16.3662L42.625 16.3597C42.5663 15.6569 42.5051 14.9252 41.6596 14.9252H40.5201V17.507ZM51.7168 10.1053H53.8605V14.6445C53.8605 16.6982 52.8173 17.684 50.6943 17.684C48.5681 17.684 47.5149 16.6982 47.5149 14.6445V10.1053H49.6603V14.1388C49.6603 14.8949 49.6603 15.8384 50.7035 15.8384C51.7168 15.8384 51.7168 14.8949 51.7168 14.1388V10.1053Z" fill="#00379E"/>
<path d="M38.5372 103.129C38.8498 102.825 39.3282 102.359 39.3282 100.834V97.245C36.8176 97.284 32.5294 97.7102 32.5294 101.258C32.5294 103.152 33.7262 104.309 35.5039 104.309C36.7396 104.309 37.5513 103.996 38.4791 103.186C38.4975 103.168 38.5167 103.149 38.5365 103.13L38.5372 103.129Z" fill="#00379E"/>
<path d="M73.161 104.424H72.0286C70.8284 103.125 69.7448 102.904 64.5872 102.904H60.4508C59.8715 102.904 59.4474 102.52 59.4474 102.095C59.4474 100.472 61.961 100.186 65.0355 99.8371C65.6162 99.7711 66.217 99.7028 66.8247 99.6229C67.6372 99.5466 70.7261 98.429 70.7261 94.8017C70.7261 93.0996 69.6049 91.9049 69.6049 91.9049C69.3535 91.5287 69.0659 91.2009 68.7408 90.9207H73.161V104.424Z" fill="#00379E"/>
<path d="M60.2301 109.8C60.2301 112.268 62.8178 113.082 64.8279 113.082C71.3975 113.082 71.6689 109.416 71.6689 108.799C71.6689 106.521 70.9726 105.403 66.0653 105.403C61.5065 105.403 60.2301 108.488 60.2301 109.8Z" fill="#00379E"/>
<path d="M62.0476 94.9037C62.0476 91.2391 62.9763 90.3131 64.905 90.3131C67.2238 90.3131 67.5309 92.627 67.5309 94.5588C67.5309 96.9507 67.3375 98.9555 64.5216 98.9555C62.3928 98.9555 62.0476 96.6415 62.0476 94.9037Z" fill="#00379E"/>
<path d="M51.1664 113.082C49.1555 113.082 46.567 112.268 46.567 109.8C46.567 108.488 47.8418 105.403 52.4014 105.403C57.3054 105.403 58.0034 106.521 58.0034 108.799C58.0034 109.416 57.732 113.082 51.1664 113.082Z" fill="#00379E"/>
<path d="M51.2411 90.3131C49.3107 90.3131 48.3837 91.2391 48.3837 94.9037C48.3837 96.6415 48.7306 98.9555 50.8544 98.9555C53.6761 98.9555 53.8695 96.9507 53.8695 94.5588C53.8695 92.627 53.5608 90.3131 51.2411 90.3131Z" fill="#00379E"/>
<path d="M150.037 33.4062L155.75 51.2129L161.445 33.4062H169.566V59H163.379V53.0234L163.977 40.7891L157.789 59H153.711L147.506 40.7715L148.104 53.0234V59H141.934V33.4062H150.037ZM183.945 59C183.734 58.6133 183.547 58.0449 183.383 57.2949C182.293 58.666 180.77 59.3516 178.812 59.3516C177.02 59.3516 175.496 58.8125 174.242 57.7344C172.988 56.6445 172.361 55.2793 172.361 53.6387C172.361 51.5762 173.123 50.0176 174.646 48.9629C176.17 47.9082 178.385 47.3809 181.291 47.3809H183.119V46.3789C183.119 44.6328 182.363 43.7598 180.852 43.7598C179.445 43.7598 178.742 44.4512 178.742 45.834H172.818C172.818 43.9941 173.598 42.5 175.156 41.3516C176.727 40.2031 178.725 39.6289 181.15 39.6289C183.576 39.6289 185.492 40.2207 186.898 41.4043C188.305 42.5879 189.025 44.2109 189.061 46.2734V54.6934C189.084 56.4395 189.354 57.7754 189.869 58.7012V59H183.945ZM180.236 55.1328C180.975 55.1328 181.584 54.9746 182.064 54.6582C182.557 54.3418 182.908 53.9844 183.119 53.5859V50.5449H181.396C179.334 50.5449 178.303 51.4707 178.303 53.3223C178.303 53.8613 178.484 54.3008 178.848 54.6406C179.211 54.9688 179.674 55.1328 180.236 55.1328ZM191.662 49.3496C191.662 47.4277 191.979 45.7285 192.611 44.252C193.244 42.7754 194.152 41.6387 195.336 40.8418C196.52 40.0332 197.896 39.6289 199.467 39.6289C201.447 39.6289 202.994 40.2969 204.107 41.6328L204.318 39.9805H209.697V58.2793C209.697 59.9551 209.305 61.4082 208.52 62.6387C207.746 63.8809 206.621 64.8301 205.145 65.4863C203.668 66.1543 201.957 66.4883 200.012 66.4883C198.617 66.4883 197.264 66.2246 195.951 65.6973C194.65 65.1699 193.654 64.4844 192.963 63.6406L195.441 60.1602C196.543 61.4609 197.996 62.1113 199.801 62.1113C202.426 62.1113 203.738 60.7637 203.738 58.0684V57.4707C202.602 58.7246 201.166 59.3516 199.432 59.3516C197.111 59.3516 195.236 58.4668 193.807 56.6973C192.377 54.916 191.662 52.5371 191.662 49.5605V49.3496ZM197.604 49.7188C197.604 51.2773 197.896 52.5137 198.482 53.4277C199.068 54.3301 199.889 54.7812 200.943 54.7812C202.221 54.7812 203.152 54.3535 203.738 53.498V45.5C203.164 44.6328 202.244 44.1992 200.979 44.1992C199.924 44.1992 199.098 44.6738 198.5 45.623C197.902 46.5605 197.604 47.9258 197.604 49.7188ZM218.662 39.9805L218.855 42.2129C220.203 40.4902 222.014 39.6289 224.287 39.6289C226.689 39.6289 228.312 40.584 229.156 42.4941C230.445 40.584 232.309 39.6289 234.746 39.6289C238.602 39.6289 240.582 41.9609 240.688 46.625V59H234.746V46.9941C234.746 46.0215 234.582 45.3125 234.254 44.8672C233.926 44.4219 233.328 44.1992 232.461 44.1992C231.289 44.1992 230.416 44.7207 229.842 45.7637L229.859 46.0098V59H223.918V47.0293C223.918 46.0332 223.76 45.3125 223.443 44.8672C223.127 44.4219 222.523 44.1992 221.633 44.1992C220.496 44.1992 219.629 44.7207 219.031 45.7637V59H213.107V39.9805H218.662ZM254.785 59C254.574 58.6133 254.387 58.0449 254.223 57.2949C253.133 58.666 251.609 59.3516 249.652 59.3516C247.859 59.3516 246.336 58.8125 245.082 57.7344C243.828 56.6445 243.201 55.2793 243.201 53.6387C243.201 51.5762 243.963 50.0176 245.486 48.9629C247.01 47.9082 249.225 47.3809 252.131 47.3809H253.959V46.3789C253.959 44.6328 253.203 43.7598 251.691 43.7598C250.285 43.7598 249.582 44.4512 249.582 45.834H243.658C243.658 43.9941 244.438 42.5 245.996 41.3516C247.566 40.2031 249.564 39.6289 251.99 39.6289C254.416 39.6289 256.332 40.2207 257.738 41.4043C259.145 42.5879 259.865 44.2109 259.9 46.2734V54.6934C259.924 56.4395 260.193 57.7754 260.709 58.7012V59H254.785ZM251.076 55.1328C251.814 55.1328 252.424 54.9746 252.904 54.6582C253.396 54.3418 253.748 53.9844 253.959 53.5859V50.5449H252.236C250.174 50.5449 249.143 51.4707 249.143 53.3223C249.143 53.8613 249.324 54.3008 249.688 54.6406C250.051 54.9688 250.514 55.1328 251.076 55.1328Z" fill="#4C4C4C"/>
<path d="M141.824 76.212L143.54 82.128L145.208 76.728H146.168L147.932 82.152L149.756 76.212H151.352L148.676 84H147.188L145.724 79.608L144.272 84H142.784L140.24 76.212H141.824ZM152.694 76.212H157.71V77.436H154.11V79.488H157.482V80.712H154.11V82.764H157.71V84H152.694V76.212ZM159.737 76.212H162.881C163.745 76.212 164.413 76.416 164.885 76.824C165.333 77.2 165.557 77.684 165.557 78.276C165.557 78.716 165.433 79.092 165.185 79.404C164.945 79.716 164.605 79.936 164.165 80.064C164.605 80.152 164.969 80.352 165.257 80.664C165.545 80.968 165.689 81.36 165.689 81.84C165.689 82.8 165.213 83.456 164.261 83.808C163.901 83.936 163.445 84 162.893 84H159.737V76.212ZM162.857 82.764C163.313 82.764 163.641 82.672 163.841 82.488C164.049 82.304 164.153 82.06 164.153 81.756C164.153 81.452 164.045 81.208 163.829 81.024C163.621 80.832 163.297 80.736 162.857 80.736H161.153V82.764H162.857ZM161.153 79.5H162.821C163.245 79.5 163.565 79.408 163.781 79.224C163.997 79.04 164.105 78.792 164.105 78.48C164.105 78.16 163.997 77.908 163.781 77.724C163.573 77.532 163.257 77.436 162.833 77.436H161.153V79.5ZM173.35 76.056C173.83 76.056 174.246 76.116 174.598 76.236C174.95 76.348 175.254 76.508 175.51 76.716C176.014 77.124 176.342 77.696 176.493 78.432L174.982 78.708C174.854 78.3 174.654 77.972 174.382 77.724C174.118 77.468 173.786 77.34 173.386 77.34C172.842 77.34 172.402 77.568 172.066 78.024C171.706 78.52 171.526 79.208 171.526 80.088C171.526 80.96 171.686 81.644 172.006 82.14C172.326 82.628 172.762 82.872 173.314 82.872C173.866 82.872 174.282 82.74 174.562 82.476C174.842 82.204 174.982 81.856 174.982 81.432H176.506C176.506 82.304 176.226 82.98 175.666 83.46C175.114 83.932 174.354 84.168 173.386 84.168C172.354 84.168 171.534 83.808 170.926 83.088C170.31 82.352 170.002 81.352 170.002 80.088C170.002 78.808 170.318 77.808 170.95 77.088C171.558 76.4 172.358 76.056 173.35 76.056ZM181.147 76.056C181.667 76.056 182.143 76.144 182.575 76.32C183.007 76.488 183.379 76.74 183.691 77.076C184.347 77.78 184.675 78.788 184.675 80.1C184.675 81.42 184.347 82.44 183.691 83.16C183.067 83.832 182.215 84.168 181.135 84.168C180.063 84.168 179.215 83.824 178.591 83.136C177.935 82.424 177.607 81.412 177.607 80.1C177.607 78.772 177.935 77.756 178.591 77.052C179.207 76.388 180.059 76.056 181.147 76.056ZM183.211 80.124C183.211 79.228 183.023 78.54 182.647 78.06C182.279 77.572 181.779 77.328 181.147 77.328C180.515 77.328 180.011 77.572 179.635 78.06C179.259 78.54 179.071 79.228 179.071 80.124C179.071 81.012 179.259 81.696 179.635 82.176C180.011 82.648 180.515 82.884 181.147 82.884C181.779 82.884 182.279 82.648 182.647 82.176C183.023 81.696 183.211 81.012 183.211 80.124ZM188.378 76.212L190.514 80.844L192.65 76.212H194.606V84H193.178V78.084L190.97 83.148H190.046L187.766 77.916V84H186.35V76.212H188.378ZM199.551 76.212C200.431 76.212 201.115 76.428 201.603 76.86C202.099 77.284 202.347 77.896 202.347 78.696C202.347 79.488 202.099 80.1 201.603 80.532C201.115 80.956 200.431 81.168 199.551 81.168H198.231V84H196.803V76.212H199.551ZM199.551 79.932C199.991 79.932 200.323 79.816 200.547 79.584C200.771 79.352 200.883 79.056 200.883 78.696C200.883 78.328 200.771 78.028 200.547 77.796C200.323 77.556 199.991 77.436 199.551 77.436H198.231V79.932H199.551ZM206.799 76.056C207.319 76.056 207.795 76.144 208.227 76.32C208.659 76.488 209.031 76.74 209.343 77.076C209.999 77.78 210.327 78.788 210.327 80.1C210.327 81.42 209.999 82.44 209.343 83.16C208.719 83.832 207.867 84.168 206.787 84.168C205.715 84.168 204.867 83.824 204.243 83.136C203.587 82.424 203.259 81.412 203.259 80.1C203.259 78.772 203.587 77.756 204.243 77.052C204.859 76.388 205.711 76.056 206.799 76.056ZM208.863 80.124C208.863 79.228 208.675 78.54 208.299 78.06C207.931 77.572 207.431 77.328 206.799 77.328C206.167 77.328 205.663 77.572 205.287 78.06C204.911 78.54 204.723 79.228 204.723 80.124C204.723 81.012 204.911 81.696 205.287 82.176C205.663 82.648 206.167 82.884 206.799 82.884C207.431 82.884 207.931 82.648 208.299 82.176C208.675 81.696 208.863 81.012 208.863 80.124ZM213.527 76.212L216.959 81.732V76.212H218.375V84H216.935L213.395 78.288V84H211.979V76.212H213.527ZM220.592 76.212H225.608V77.436H222.008V79.488H225.38V80.712H222.008V82.764H225.608V84H220.592V76.212ZM229.16 76.212L232.592 81.732V76.212H234.008V84H232.568L229.028 78.288V84H227.612V76.212H229.16ZM235.193 76.212H241.433V77.436H239.021V84H237.605V77.436H235.193V76.212ZM246.716 78.36C246.588 77.68 246.108 77.34 245.276 77.34C244.868 77.34 244.548 77.424 244.316 77.592C244.092 77.752 243.98 77.948 243.98 78.18C243.98 78.412 244.052 78.596 244.196 78.732C244.348 78.86 244.58 78.98 244.892 79.092L246.584 79.752C247.16 79.976 247.604 80.26 247.916 80.604C248.228 80.94 248.384 81.364 248.384 81.876C248.384 82.58 248.12 83.14 247.592 83.556C247.064 83.964 246.312 84.168 245.336 84.168C244.472 84.168 243.772 83.956 243.236 83.532C242.636 83.068 242.32 82.412 242.288 81.564H243.692C243.692 82.204 244.024 82.608 244.688 82.776C244.888 82.832 245.152 82.86 245.48 82.86C245.808 82.86 246.112 82.78 246.392 82.62C246.672 82.452 246.812 82.232 246.812 81.96C246.812 81.68 246.736 81.468 246.584 81.324C246.432 81.172 246.184 81.032 245.84 80.904L244.292 80.292C243.692 80.06 243.232 79.788 242.912 79.476C242.592 79.164 242.432 78.732 242.432 78.18C242.432 77.532 242.684 77.02 243.188 76.644C243.7 76.252 244.392 76.056 245.264 76.056C246.144 76.056 246.82 76.26 247.292 76.668C247.772 77.068 248.048 77.632 248.12 78.36H246.716Z" fill="#4C4C4C"/>
</svg>
