<?xml version="1.0" encoding="utf-8"?>
<!-- Generator: Adobe Illustrator 26.3.1, SVG Export Plug-In . SVG Version: 6.00 Build 0)  -->
<svg version="1.1" id="Livello_1" xmlns="http://www.w3.org/2000/svg" xmlns:xlink="http://www.w3.org/1999/xlink" x="0px" y="0px"
	 viewBox="0 0 473.1 66.1" style="enable-background:new 0 0 473.1 66.1;" xml:space="preserve">
<style type="text/css">
	.st0{clip-path:url(#SVGID_00000073704536610109033920000010350113370545559205_);fill:#8F9BA4;}
	.st1{clip-path:url(#SVGID_00000073704536610109033920000010350113370545559205_);fill:#E6BC00;}
	.st2{clip-path:url(#SVGID_00000073704536610109033920000010350113370545559205_);fill:#536776;}
	.st3{clip-path:url(#SVGID_00000073704536610109033920000010350113370545559205_);fill:#306C8D;}
</style>
<g>
	<defs>
		<rect id="SVGID_1_" x="4.5" y="2.5" width="464.5" height="61.2"/>
	</defs>
	<clipPath id="SVGID_00000183957234745128918860000014626379231275009422_">
		<use xlink:href="#SVGID_1_"  style="overflow:visible;"/>
	</clipPath>
	<path style="clip-path:url(#SVGID_00000183957234745128918860000014626379231275009422_);fill:#8F9BA4;" d="M458.8,44.2
		c-0.3-0.1-0.5-0.3-0.8-0.4c-0.3-0.1-0.6-0.2-1-0.4v-8.7c0.2-1,0.5-1.7,1-2.3c0.4-0.6,1-0.9,1.8-0.9c1,0,1.7,0.4,2,1.2
		c0.3,0.8,0.5,2,0.5,3.7v7c-0.6,0.2-1.1,0.5-1.6,0.8v1.2h8.3v-1.2c-0.7-0.4-1.4-0.6-2.1-0.8v-7.6c0-1.3-0.1-2.5-0.3-3.3
		c-0.2-0.9-0.5-1.6-0.9-2.1c-0.4-0.5-0.9-0.9-1.5-1.1c-0.6-0.2-1.3-0.3-2.1-0.3c-1.3,0-2.4,0.4-3.3,1.1c-0.9,0.7-1.5,1.7-1.9,2.9
		c-0.1-0.8-0.3-1.5-0.6-2c-0.3-0.5-0.7-0.9-1.1-1.2c-0.4-0.3-0.9-0.5-1.4-0.6c-0.5-0.1-1-0.2-1.5-0.2c-1.2,0-2.3,0.4-3.1,1.1
		c-0.9,0.7-1.5,1.6-1.8,2.6h0V29h-1.1c-0.3,0-0.8,0.1-1.3,0.2c-0.5,0.1-1,0.1-1.6,0.2c-0.5,0.1-1.1,0.2-1.6,0.3
		c-0.5,0.1-0.9,0.3-1.3,0.4v1.2l2.1,0.3v11.8c-0.4,0.1-0.8,0.2-1.1,0.4c-0.4,0.1-0.7,0.3-1,0.4v1.2h8.3v-1.2c-0.5-0.3-1-0.6-1.6-0.8
		v-9c0.2-0.9,0.6-1.5,1.1-2.1c0.5-0.5,1.1-0.8,1.8-0.8c0.5,0,0.9,0.1,1.2,0.3c0.3,0.2,0.5,0.5,0.7,1c0.2,0.4,0.3,1,0.3,1.7
		c0.1,0.7,0.1,1.5,0.1,2.5v6.4c-0.3,0.1-0.6,0.2-0.9,0.4c-0.3,0.1-0.5,0.3-0.7,0.4v1.2h8V44.2z M426,34.4c0.1-0.8,0.3-1.5,0.6-2
		c0.3-0.5,0.6-0.9,1-1.1c0.4-0.2,0.9-0.3,1.4-0.3c0.7,0,1.4,0.2,1.9,0.5c0.5,0.3,0.9,0.7,1.2,1.3c0.3,0.6,0.5,1.2,0.6,2
		c0.1,0.8,0.2,1.7,0.2,2.7c0,1.2-0.1,2.2-0.2,3c-0.1,0.8-0.3,1.5-0.6,2c-0.3,0.5-0.6,0.9-1,1.1c-0.4,0.2-0.8,0.3-1.3,0.3
		c-0.8,0-1.5-0.2-2-0.5c-0.5-0.3-0.9-0.7-1.2-1.3c-0.3-0.6-0.5-1.2-0.6-2c-0.1-0.8-0.2-1.7-0.2-2.6C425.8,36.2,425.8,35.2,426,34.4
		 M421.3,40.8c0.3,1,0.9,1.9,1.6,2.7c0.7,0.7,1.6,1.3,2.7,1.7c1.1,0.4,2.3,0.6,3.8,0.6c1.3,0,2.5-0.2,3.6-0.6c1.1-0.4,2-0.9,2.7-1.7
		c0.7-0.7,1.3-1.6,1.7-2.6c0.4-1,0.6-2.2,0.6-3.5c0-1.2-0.2-2.3-0.5-3.4c-0.3-1-0.8-1.9-1.5-2.7c-0.7-0.7-1.6-1.3-2.7-1.7
		c-1.1-0.4-2.4-0.6-3.9-0.6c-1.3,0-2.5,0.2-3.6,0.6c-1,0.4-1.9,0.9-2.7,1.7c-0.7,0.7-1.3,1.6-1.7,2.6c-0.4,1-0.6,2.2-0.6,3.5
		C420.8,38.6,421,39.8,421.3,40.8 M417.4,42.2c-0.4,0.3-0.9,0.6-1.4,0.8c-0.6,0.2-1.2,0.3-2,0.3c-0.8,0-1.5-0.2-2.1-0.5
		c-0.6-0.3-1.1-0.7-1.5-1.3c-0.4-0.5-0.7-1.2-0.9-1.9c-0.2-0.7-0.3-1.5-0.3-2.4c0-1.2,0.1-2.2,0.2-3c0.1-0.8,0.4-1.5,0.6-2
		c0.3-0.5,0.6-0.8,1-1c0.4-0.2,0.9-0.3,1.4-0.3c0.3,0,0.6,0,0.8,0.1c0.2,0.1,0.3,0.1,0.5,0.2l1.3,3.8h1.6c0.1-0.3,0.3-0.6,0.4-1
		c0.1-0.4,0.2-0.8,0.3-1.3c0.1-0.4,0.2-0.9,0.3-1.3c0.1-0.4,0.1-0.8,0.2-1.2c-0.6-0.3-1.3-0.6-2.2-0.8c-0.9-0.2-1.8-0.3-2.9-0.3
		c-2.7,0-4.8,0.7-6.3,2.2c-1.5,1.4-2.2,3.5-2.2,6.2c0,1.3,0.2,2.4,0.5,3.4c0.3,1,0.8,1.9,1.5,2.7c0.7,0.7,1.5,1.3,2.5,1.7
		c1,0.4,2.2,0.6,3.6,0.6c0.7,0,1.3-0.1,1.9-0.2c0.6-0.2,1.2-0.4,1.6-0.6c0.5-0.3,0.9-0.6,1.2-0.9c0.3-0.4,0.6-0.7,0.7-1.2
		L417.4,42.2z M395.6,45c0.5,0.5,1.1,0.7,2,0.7c0.8,0,1.5-0.2,2-0.7c0.5-0.5,0.8-1.1,0.8-1.8c0-0.8-0.3-1.4-0.8-1.9s-1.2-0.7-2-0.7
		c-0.8,0-1.5,0.2-2,0.7c-0.5,0.5-0.7,1.1-0.7,1.9C394.9,43.9,395.2,44.5,395.6,45 M384.7,25.9c0.5,0.4,1.2,0.6,2,0.6
		c0.8,0,1.5-0.2,2-0.6c0.5-0.4,0.8-1,0.8-1.7c0-0.7-0.3-1.3-0.8-1.8c-0.5-0.4-1.2-0.6-2-0.6c-0.8,0-1.5,0.2-2,0.6
		c-0.5,0.4-0.8,1-0.8,1.8C383.9,24.9,384.2,25.5,384.7,25.9 M391.1,44.2c-0.3-0.2-0.6-0.3-1-0.4c-0.3-0.1-0.7-0.2-1.2-0.3V29h-1.1
		c-0.4,0-0.8,0.1-1.3,0.2s-1,0.2-1.6,0.3c-0.5,0.1-1,0.2-1.5,0.3c-0.5,0.1-0.9,0.3-1.2,0.4v1.2l2.1,0.3v11.8
		c-0.4,0.1-0.8,0.2-1.1,0.3c-0.3,0.1-0.7,0.3-1,0.4v1.2h8.8V44.2z M378.9,42.2c-0.4,0.3-0.9,0.6-1.4,0.8c-0.6,0.2-1.2,0.3-2,0.3
		c-0.8,0-1.5-0.2-2.1-0.5c-0.6-0.3-1.1-0.7-1.5-1.3c-0.4-0.5-0.7-1.2-0.9-1.9c-0.2-0.7-0.3-1.5-0.3-2.4c0-1.2,0.1-2.2,0.2-3
		c0.1-0.8,0.4-1.5,0.6-2c0.3-0.5,0.6-0.8,1-1c0.4-0.2,0.9-0.3,1.4-0.3c0.3,0,0.6,0,0.8,0.1c0.2,0.1,0.3,0.1,0.5,0.2l1.3,3.8h1.6
		c0.1-0.3,0.3-0.6,0.4-1c0.1-0.4,0.2-0.8,0.3-1.3s0.2-0.9,0.3-1.3c0.1-0.4,0.1-0.8,0.2-1.2c-0.6-0.3-1.3-0.6-2.2-0.8
		c-0.9-0.2-1.8-0.3-2.9-0.3c-2.7,0-4.8,0.7-6.3,2.2c-1.5,1.4-2.2,3.5-2.2,6.2c0,1.3,0.2,2.4,0.5,3.4c0.3,1,0.8,1.9,1.5,2.7
		c0.7,0.7,1.5,1.3,2.5,1.7c1,0.4,2.2,0.6,3.6,0.6c0.7,0,1.3-0.1,1.9-0.2c0.6-0.2,1.2-0.4,1.6-0.6c0.5-0.3,0.9-0.6,1.2-0.9
		c0.3-0.4,0.6-0.7,0.7-1.2L378.9,42.2z M356.6,25.9c0.5,0.4,1.2,0.6,2,0.6c0.8,0,1.5-0.2,2-0.6c0.5-0.4,0.8-1,0.8-1.7
		c0-0.7-0.3-1.3-0.8-1.8c-0.5-0.4-1.2-0.6-2-0.6c-0.8,0-1.5,0.2-2,0.6c-0.5,0.4-0.8,1-0.8,1.8C355.8,24.9,356.1,25.5,356.6,25.9
		 M363,44.2c-0.3-0.2-0.6-0.3-1-0.4c-0.3-0.1-0.7-0.2-1.2-0.3V29h-1.1c-0.4,0-0.8,0.1-1.3,0.2s-1,0.2-1.6,0.3
		c-0.5,0.1-1,0.2-1.5,0.3c-0.5,0.1-0.9,0.3-1.2,0.4v1.2l2.1,0.3v11.8c-0.4,0.1-0.8,0.2-1.1,0.3c-0.3,0.1-0.7,0.3-1,0.4v1.2h8.8V44.2
		z M347.8,21.6c-0.9,0.2-1.6,0.5-2.3,1c-0.6,0.5-1.1,1.2-1.5,2.1c-0.4,0.9-0.6,2-0.6,3.3v1.1c-0.9,0.2-1.7,0.6-2.4,1.1v1.3h2.4v12
		c-0.7,0.1-1.5,0.4-2.1,0.8v1.2h9.8v-1.2c-0.9-0.4-2-0.6-3.1-0.8v-12h3.4v-2.1h-3.4v-1.6c0-1,0.1-1.8,0.2-2.5
		c0.1-0.6,0.3-1.1,0.5-1.5c0.2-0.3,0.5-0.6,0.9-0.7c0.4-0.1,0.8-0.2,1.4-0.2l1.4,3h1.1c0.2-0.5,0.4-1.1,0.6-1.9
		c0.2-0.7,0.4-1.5,0.4-2.2c-0.4-0.1-0.9-0.3-1.6-0.5c-0.7-0.2-1.5-0.2-2.4-0.2C349.6,21.3,348.7,21.4,347.8,21.6 M327.8,42.6
		c-0.4-0.4-0.6-1.1-0.6-1.9c0-0.5,0.1-1,0.2-1.4c0.1-0.4,0.4-0.7,0.8-0.9c0.4-0.2,0.9-0.4,1.5-0.5c0.6-0.1,1.5-0.2,2.5-0.2v3.2
		c-0.1,0.2-0.2,0.5-0.3,0.7c-0.1,0.3-0.3,0.5-0.5,0.8c-0.2,0.2-0.5,0.4-0.8,0.6c-0.3,0.2-0.7,0.3-1.2,0.3
		C328.7,43.3,328.1,43,327.8,42.6 M336.7,37.6c0.1-1,0.1-2.2,0.1-3.5c0-0.7-0.1-1.4-0.3-2c-0.2-0.6-0.5-1.2-0.9-1.6
		c-0.4-0.5-1-0.8-1.8-1.1c-0.8-0.3-1.8-0.4-3-0.4c-1.4,0-2.8,0.2-4.1,0.5c-1.3,0.3-2.3,0.8-3.1,1.3c0,0.4,0.1,0.7,0.2,1.1
		c0.1,0.4,0.2,0.8,0.4,1.1s0.3,0.7,0.4,1.1c0.2,0.3,0.3,0.6,0.5,0.9h1.4l1.5-3.8c0.6-0.2,1.2-0.3,1.8-0.3c1.1,0,1.8,0.4,2.1,1.3
		c0.3,0.9,0.4,2.2,0.2,4c-1.8,0.1-3.2,0.2-4.5,0.4c-1.2,0.2-2.2,0.5-3,0.9c-0.8,0.4-1.4,0.9-1.7,1.5c-0.4,0.6-0.5,1.4-0.5,2.4
		c0,0.7,0.1,1.3,0.4,1.8c0.3,0.5,0.6,1,1.1,1.4c0.4,0.4,1,0.7,1.6,0.9c0.6,0.2,1.2,0.3,2,0.3c0.7,0,1.3-0.1,1.8-0.3
		c0.5-0.2,1-0.4,1.4-0.8c0.4-0.3,0.7-0.7,1-1.1c0.3-0.4,0.4-0.8,0.5-1.2h0.2c0,0.7,0.1,1.3,0.1,1.8c0,0.5,0.2,1,0.4,1.5h1.1
		c0.4,0,0.8-0.1,1.2-0.2c0.5-0.1,0.9-0.2,1.4-0.3c0.5-0.1,0.9-0.2,1.4-0.4c0.4-0.1,0.8-0.3,1-0.4v-1.1l-2.2-0.3
		c0-0.4-0.1-0.7-0.1-1.1c0-0.3,0-0.7,0-1.2C336.6,39.7,336.6,38.6,336.7,37.6 M320.4,33.1v-1.3c-0.1-0.5-0.2-1-0.4-1.6
		c-0.2-0.5-0.4-1-0.6-1.3c-0.6,0-1.1,0.1-1.7,0.4c-0.5,0.3-1,0.6-1.5,1c-0.4,0.4-0.8,0.9-1.2,1.4c-0.3,0.5-0.6,1-0.8,1.5h-0.1V29
		h-1.1c-0.3,0-0.8,0.1-1.3,0.2c-0.5,0.1-1,0.1-1.6,0.2c-0.5,0.1-1.1,0.2-1.6,0.3c-0.5,0.1-0.9,0.3-1.3,0.4v1.2l2.1,0.3v11.8
		c-0.3,0.1-0.7,0.2-1,0.3c-0.3,0.1-0.7,0.3-1.1,0.5v1.2h9.3v-1.2c-0.4-0.2-0.9-0.4-1.3-0.5c-0.4-0.1-0.9-0.2-1.3-0.2v-8.2
		c0.3-0.7,0.6-1.2,0.9-1.5c0.3-0.3,0.6-0.5,0.9-0.6H320.4z M294,31.7c0.4-0.6,1.1-0.8,2.2-0.8c1,0,1.7,0.3,2.1,0.9
		c0.4,0.6,0.6,1.4,0.6,2.6c0,1.1-0.2,1.9-0.6,2.5c-0.4,0.6-1.1,0.9-2.2,0.9c-1.1,0-1.8-0.3-2.2-0.9s-0.6-1.4-0.6-2.5
		C293.4,33.1,293.6,32.2,294,31.7 M299.3,49.7c-0.6,0.5-1.5,0.8-2.7,0.8c-1.2,0-2.2-0.3-2.8-0.8c-0.7-0.5-1-1.3-1-2.3
		c0-0.6,0.1-1.1,0.4-1.5c0.2-0.4,0.6-0.9,1.2-1.3c0.7,0.2,1.4,0.4,2.1,0.6c0.7,0.2,1.3,0.4,1.9,0.6c0.6,0.2,1,0.5,1.4,0.9
		c0.4,0.4,0.5,0.8,0.5,1.4C300.2,48.6,299.9,49.1,299.3,49.7 M290.8,30.4c-1.3,0.9-2,2.1-2,3.8c0,1.3,0.4,2.5,1.2,3.3
		c0.8,0.9,1.9,1.4,3.2,1.7c-0.3,0.1-0.6,0.3-1,0.5c-0.3,0.2-0.6,0.4-0.9,0.6c-0.3,0.2-0.5,0.5-0.7,0.7c-0.2,0.3-0.3,0.5-0.3,0.8
		c0,0.3,0.1,0.6,0.2,0.8c0.1,0.2,0.3,0.5,0.6,0.6c0.2,0.2,0.5,0.3,0.8,0.5c0.3,0.1,0.6,0.2,0.9,0.3c-0.7,0.2-1.3,0.4-1.9,0.6
		c-0.6,0.2-1.1,0.5-1.5,0.8c-0.4,0.3-0.8,0.7-1,1.1c-0.2,0.4-0.4,0.9-0.4,1.5c0,0.5,0.1,1,0.4,1.5c0.3,0.5,0.7,0.9,1.4,1.3
		c0.6,0.4,1.4,0.7,2.4,0.9c1,0.2,2.2,0.3,3.6,0.3c1.2,0,2.3-0.1,3.4-0.4c1.1-0.2,2-0.6,2.8-1.1c0.8-0.5,1.4-1,1.8-1.7
		c0.4-0.7,0.7-1.4,0.6-2.3c0-0.9-0.3-1.6-0.8-2.2c-0.5-0.6-1.2-1-2-1.4c-0.8-0.4-1.6-0.6-2.5-0.8c-0.9-0.2-1.8-0.4-2.5-0.6
		c-0.8-0.2-1.4-0.4-2-0.6c-0.5-0.2-0.8-0.5-0.8-0.9c0-0.2,0-0.3,0.1-0.5c0.1-0.2,0.2-0.3,0.3-0.5c0.2,0,0.5,0.1,0.8,0.1
		c0.3,0,0.6,0,1,0c1.2,0,2.3-0.1,3.3-0.4c0.9-0.3,1.7-0.7,2.3-1.1c0.6-0.5,1.1-1,1.4-1.7c0.3-0.6,0.4-1.3,0.4-2
		c0-0.7-0.1-1.2-0.3-1.7s-0.4-0.9-0.7-1.2h3.4l0.4-0.8c0-0.1,0-0.3-0.1-0.6c-0.1-0.2-0.1-0.5-0.3-0.7c-0.1-0.2-0.2-0.5-0.4-0.7
		c-0.1-0.2-0.3-0.4-0.4-0.5c-1.3,0.4-2.5,1.2-3.5,2.3c-0.5-0.4-1.2-0.8-2.1-1.1c-0.9-0.3-2.1-0.4-3.5-0.4
		C293.9,29,292.1,29.5,290.8,30.4 M273.9,34.4c0.1-0.8,0.3-1.5,0.6-2c0.3-0.5,0.6-0.9,1-1.1c0.4-0.2,0.9-0.3,1.4-0.3
		c0.7,0,1.4,0.2,1.9,0.5c0.5,0.3,0.9,0.7,1.2,1.3c0.3,0.6,0.5,1.2,0.6,2c0.1,0.8,0.2,1.7,0.2,2.7c0,1.2-0.1,2.2-0.2,3
		c-0.1,0.8-0.3,1.5-0.6,2c-0.3,0.5-0.6,0.9-1,1.1c-0.4,0.2-0.8,0.3-1.3,0.3c-0.8,0-1.5-0.2-2-0.5c-0.5-0.3-0.9-0.7-1.2-1.3
		c-0.3-0.6-0.5-1.2-0.6-2c-0.1-0.8-0.2-1.7-0.2-2.6C273.7,36.2,273.7,35.2,273.9,34.4 M269.2,40.8c0.3,1,0.9,1.9,1.6,2.7
		c0.7,0.7,1.6,1.3,2.7,1.7c1.1,0.4,2.3,0.6,3.8,0.6c1.3,0,2.5-0.2,3.6-0.6c1.1-0.4,2-0.9,2.7-1.7c0.7-0.7,1.3-1.6,1.7-2.6
		c0.4-1,0.6-2.2,0.6-3.5c0-1.2-0.2-2.3-0.5-3.4c-0.3-1-0.8-1.9-1.5-2.7c-0.7-0.7-1.6-1.3-2.7-1.7c-1.1-0.4-2.4-0.6-3.9-0.6
		c-1.3,0-2.5,0.2-3.6,0.6c-1,0.4-1.9,0.9-2.7,1.7c-0.7,0.7-1.3,1.6-1.7,2.6c-0.4,1-0.6,2.2-0.6,3.5
		C268.7,38.6,268.9,39.8,269.2,40.8 M256.2,44.2c-0.3-0.1-0.5-0.3-0.8-0.4c-0.3-0.1-0.6-0.2-1-0.4v-8.7c0.2-1,0.5-1.7,1-2.3
		c0.4-0.6,1-0.9,1.8-0.9c1,0,1.7,0.4,2,1.2c0.3,0.8,0.5,2,0.5,3.7v7c-0.6,0.2-1.1,0.5-1.6,0.8v1.2h8.3v-1.2
		c-0.7-0.4-1.4-0.6-2.1-0.8v-7.6c0-1.3-0.1-2.5-0.3-3.3c-0.2-0.9-0.5-1.6-0.9-2.1c-0.4-0.5-0.9-0.9-1.5-1.1
		c-0.6-0.2-1.3-0.3-2.1-0.3c-1.3,0-2.4,0.4-3.3,1.1c-0.9,0.7-1.5,1.7-1.9,2.9c-0.1-0.8-0.3-1.5-0.6-2c-0.3-0.5-0.7-0.9-1.1-1.2
		c-0.4-0.3-0.9-0.5-1.4-0.6c-0.5-0.1-1-0.2-1.5-0.2c-1.2,0-2.3,0.4-3.1,1.1c-0.9,0.7-1.5,1.6-1.8,2.6h0V29h-1.1
		c-0.3,0-0.8,0.1-1.3,0.2c-0.5,0.1-1,0.1-1.6,0.2s-1.1,0.2-1.6,0.3c-0.5,0.1-0.9,0.3-1.3,0.4v1.2l2.1,0.3v11.8
		c-0.4,0.1-0.8,0.2-1.1,0.4c-0.4,0.1-0.7,0.3-1,0.4v1.2h8.3v-1.2c-0.5-0.3-1-0.6-1.6-0.8v-9c0.2-0.9,0.6-1.5,1.1-2.1
		c0.5-0.5,1.1-0.8,1.8-0.8c0.5,0,0.9,0.1,1.2,0.3c0.3,0.2,0.5,0.5,0.7,1c0.2,0.4,0.3,1,0.3,1.7c0.1,0.7,0.1,1.5,0.1,2.5v6.4
		c-0.3,0.1-0.6,0.2-0.9,0.4c-0.3,0.1-0.5,0.3-0.7,0.4v1.2h8V44.2z M229.8,32.2c0.3,0.9,0.4,2.2,0.3,3.8H225c0.1-1,0.2-1.9,0.3-2.5
		c0.1-0.7,0.3-1.2,0.6-1.6c0.2-0.4,0.5-0.7,0.9-0.8c0.3-0.2,0.7-0.2,1.1-0.2C228.9,30.9,229.5,31.3,229.8,32.2 M233.9,42.1
		c-0.4,0.3-1,0.6-1.8,0.8c-0.8,0.2-1.5,0.3-2.2,0.3c-1.6,0-2.9-0.5-3.7-1.5c-0.8-1-1.3-2.4-1.3-4h9.8c0.3-1.6,0.3-3,0-4.1
		c-0.2-1.1-0.7-2-1.3-2.7c-0.6-0.7-1.4-1.2-2.4-1.5c-1-0.3-2-0.4-3.1-0.4c-2.5,0-4.5,0.7-6,2.1c-1.4,1.4-2.1,3.5-2.1,6.2
		c0,1.3,0.2,2.4,0.5,3.5c0.4,1,0.9,1.9,1.6,2.6s1.5,1.3,2.6,1.7c1,0.4,2.2,0.6,3.5,0.6c0.8,0,1.6-0.1,2.3-0.3
		c0.7-0.2,1.3-0.4,1.9-0.7c0.5-0.3,1-0.6,1.4-1c0.4-0.4,0.6-0.7,0.8-1.1L233.9,42.1z"/>
	<path style="clip-path:url(#SVGID_00000183957234745128918860000014626379231275009422_);fill:#E6BC00;" d="M207.6,25.6
		c0.9,0.5,1.6,1.2,2.2,2.1c0.6,0.9,1,1.8,1.2,2.9c0.3,1.1,0.4,2.2,0.4,3.4c0,1.3-0.1,2.6-0.4,3.8c-0.3,1.2-0.7,2.2-1.2,3.1
		c-0.6,0.9-1.3,1.6-2.1,2.1c-0.9,0.5-1.9,0.8-3.2,0.8c-0.1,0-0.3,0-0.5,0c-0.2,0-0.4,0-0.7,0c-0.2,0-0.4,0-0.7,0c-0.2,0-0.4,0-0.4,0
		V25c0.3,0,0.6-0.1,1-0.1c0.4,0,0.8,0,1.2,0C205.7,24.8,206.7,25.1,207.6,25.6 M198.6,45.4c0.4,0,0.9,0,1.4,0s1.1,0.1,1.6,0.1
		c0.5,0,1,0.1,1.5,0.1c0.5,0,0.8,0,1.1,0c2.1,0,4-0.3,5.5-0.8c1.6-0.6,2.9-1.4,3.9-2.4c1-1,1.8-2.3,2.3-3.7c0.5-1.5,0.8-3.1,0.8-4.8
		c0-1.8-0.3-3.4-0.8-4.8c-0.5-1.4-1.3-2.6-2.3-3.5c-1-0.9-2.3-1.7-3.7-2.1c-1.5-0.5-3.1-0.7-5-0.7c-0.4,0-0.8,0-1.4,0
		c-0.5,0-1.1,0.1-1.7,0.1c-0.6,0-1.1,0.1-1.7,0.1c-0.5,0-1,0-1.3,0H195v1.2c0.3,0.2,0.7,0.4,1.2,0.5c0.5,0.2,0.9,0.3,1.4,0.4v18.1
		c-0.5,0.1-1,0.2-1.4,0.4c-0.4,0.2-0.9,0.3-1.2,0.6v1.2H198.6z"/>
	<path style="clip-path:url(#SVGID_00000183957234745128918860000014626379231275009422_);fill:#8F9BA4;" d="M176.9,25.9
		c0.5,0.4,1.2,0.6,2,0.6c0.8,0,1.5-0.2,2-0.6c0.5-0.4,0.8-1,0.8-1.7c0-0.7-0.3-1.3-0.8-1.8c-0.5-0.4-1.2-0.6-2-0.6
		c-0.8,0-1.5,0.2-2,0.6c-0.5,0.4-0.8,1-0.8,1.8C176.1,24.9,176.4,25.5,176.9,25.9 M183.3,44.2c-0.3-0.2-0.6-0.3-1-0.4
		c-0.3-0.1-0.7-0.2-1.2-0.3V29h-1.1c-0.4,0-0.8,0.1-1.3,0.2s-1,0.2-1.6,0.3c-0.5,0.1-1,0.2-1.5,0.3c-0.5,0.1-0.9,0.3-1.2,0.4v1.2
		l2.1,0.3v11.8c-0.4,0.1-0.8,0.2-1.1,0.3c-0.3,0.1-0.7,0.3-1,0.4v1.2h8.8V44.2z M169.4,39.5l-1.7,4.1h-5.5l9.2-12.9v-1.2h-13.8
		c0,0.8,0.1,1.7,0.2,2.7c0.1,1,0.3,2,0.6,2.9h1.1l1.4-3.8h5.3L157,44.2v1.2h14.3c0-0.9,0-1.9-0.2-3c-0.2-1.1-0.4-2-0.6-2.9H169.4z
		 M147.8,25.9c0.5,0.4,1.2,0.6,2,0.6c0.8,0,1.5-0.2,2-0.6c0.5-0.4,0.8-1,0.8-1.7c0-0.7-0.3-1.3-0.8-1.8c-0.5-0.4-1.2-0.6-2-0.6
		c-0.8,0-1.5,0.2-2,0.6c-0.5,0.4-0.8,1-0.8,1.8C147,24.9,147.3,25.5,147.8,25.9 M154.2,44.2c-0.3-0.2-0.6-0.3-1-0.4
		c-0.3-0.1-0.7-0.2-1.2-0.3V29H151c-0.4,0-0.8,0.1-1.3,0.2s-1,0.2-1.6,0.3c-0.5,0.1-1,0.2-1.5,0.3c-0.5,0.1-0.9,0.3-1.2,0.4v1.2
		l2.1,0.3v11.8c-0.4,0.1-0.8,0.2-1.1,0.3c-0.3,0.1-0.7,0.3-1,0.4v1.2h8.8V44.2z M136.3,45.4l5.6-14c0.4-0.1,0.7-0.2,1-0.4
		c0.3-0.1,0.6-0.3,0.8-0.4v-1.2h-6.2v1.2c0.3,0.2,0.5,0.3,0.8,0.5c0.3,0.1,0.6,0.2,0.9,0.3l-2.7,8.2l-0.5,2.2H136l-0.6-2.2l-3-8.2
		c0.4-0.1,0.7-0.2,1-0.4c0.3-0.1,0.6-0.3,0.8-0.4v-1.2h-8.4v1.2c0.5,0.3,1.1,0.6,1.7,0.8l6.4,14.4L136.3,45.4z M125,33.1v-1.3
		c-0.1-0.5-0.2-1-0.4-1.6c-0.2-0.5-0.4-1-0.6-1.3c-0.6,0-1.1,0.1-1.7,0.4c-0.5,0.3-1,0.6-1.5,1c-0.4,0.4-0.8,0.9-1.2,1.4
		c-0.3,0.5-0.6,1-0.8,1.5h-0.1V29h-1.1c-0.3,0-0.8,0.1-1.3,0.2c-0.5,0.1-1,0.1-1.6,0.2c-0.5,0.1-1.1,0.2-1.6,0.3
		c-0.5,0.1-0.9,0.3-1.3,0.4v1.2l2.1,0.3v11.8c-0.3,0.1-0.7,0.2-1,0.3c-0.3,0.1-0.7,0.3-1.1,0.5v1.2h9.3v-1.2
		c-0.4-0.2-0.9-0.4-1.3-0.5c-0.4-0.1-0.9-0.2-1.3-0.2v-8.2c0.3-0.7,0.6-1.2,0.9-1.5s0.6-0.5,0.9-0.6H125z M104.1,32.2
		c0.3,0.9,0.4,2.2,0.3,3.8h-5.1c0.1-1,0.2-1.9,0.3-2.5c0.1-0.7,0.3-1.2,0.6-1.6c0.2-0.4,0.5-0.7,0.9-0.8c0.3-0.2,0.7-0.2,1.1-0.2
		C103.1,30.9,103.7,31.3,104.1,32.2 M108.2,42.1c-0.4,0.3-1,0.6-1.8,0.8c-0.8,0.2-1.5,0.3-2.2,0.3c-1.6,0-2.9-0.5-3.7-1.5
		c-0.8-1-1.3-2.4-1.3-4h9.8c0.3-1.6,0.3-3,0-4.1s-0.7-2-1.3-2.7c-0.6-0.7-1.4-1.2-2.4-1.5c-1-0.3-2-0.4-3.1-0.4
		c-2.5,0-4.5,0.7-6,2.1c-1.4,1.4-2.1,3.5-2.1,6.2c0,1.3,0.2,2.4,0.5,3.5c0.4,1,0.9,1.9,1.6,2.6c0.7,0.7,1.5,1.3,2.6,1.7
		c1,0.4,2.2,0.6,3.5,0.6c0.8,0,1.6-0.1,2.3-0.3c0.7-0.2,1.3-0.4,1.9-0.7c0.5-0.3,1-0.6,1.4-1c0.4-0.4,0.6-0.7,0.8-1.1L108.2,42.1z"
		/>
	<path style="clip-path:url(#SVGID_00000183957234745128918860000014626379231275009422_);fill:#536776;" d="M78.1,38.1h-1.3
		c-0.1,0.4-0.2,0.8-0.3,1.3c-0.1,0.5-0.2,1.1-0.3,1.6c-0.1,0.6-0.2,1.1-0.3,1.7c-0.1,0.6-0.1,1.1-0.2,1.6c0.2,0.2,0.6,0.4,1.1,0.5
		c0.5,0.2,1,0.3,1.7,0.5c0.6,0.1,1.3,0.3,2,0.4c0.7,0.1,1.4,0.1,2.1,0.1c2.8,0,4.9-0.6,6.4-1.7c1.4-1.2,2.2-2.8,2.2-5
		c0-1.2-0.3-2.2-0.8-3c-0.5-0.8-1.2-1.5-1.9-2.1c-0.8-0.6-1.6-1.1-2.5-1.6c-0.9-0.5-1.8-0.9-2.5-1.4c-0.8-0.5-1.4-1-1.9-1.6
		c-0.5-0.6-0.8-1.3-0.8-2.1c0-0.9,0.3-1.6,0.9-2.1c0.6-0.5,1.4-0.7,2.3-0.7c0.5,0,1.1,0.1,1.6,0.2c0.5,0.1,0.9,0.2,1.1,0.4l1.5,4.4
		h1.3c0.1-0.3,0.2-0.7,0.3-1.2c0.1-0.5,0.2-1,0.3-1.5c0.1-0.5,0.2-1.1,0.2-1.7c0.1-0.6,0.1-1,0.1-1.5c-0.9-0.4-1.9-0.7-3-0.8
		c-1.1-0.2-2.3-0.3-3.6-0.3c-1.1,0-2.1,0.1-3,0.4c-0.9,0.2-1.7,0.6-2.4,1.1c-0.7,0.5-1.2,1.1-1.6,1.9c-0.4,0.8-0.6,1.7-0.6,2.7
		c0,1.2,0.3,2.2,0.8,3.1c0.5,0.8,1.1,1.5,1.9,2.1c0.8,0.6,1.6,1.1,2.5,1.6c0.9,0.4,1.7,0.9,2.5,1.3c0.8,0.4,1.4,0.9,1.9,1.5
		c0.5,0.5,0.8,1.2,0.8,2c0,1.1-0.4,1.9-1.2,2.5c-0.8,0.6-1.8,0.9-2.9,0.9c-0.7,0-1.3-0.1-1.7-0.3c-0.4-0.2-0.8-0.4-1-0.7L78.1,38.1z
		"/>
	<path style="clip-path:url(#SVGID_00000183957234745128918860000014626379231275009422_);fill:#536776;" d="M17.2,34.1h-1.3
		c-0.1,0.4-0.2,0.8-0.3,1.4c-0.1,0.5-0.2,1.1-0.3,1.7c-0.1,0.6-0.2,1.2-0.3,1.7c-0.1,0.6-0.1,1.1-0.2,1.6c0.2,0.2,0.6,0.4,1.1,0.6
		c0.5,0.2,1.1,0.3,1.7,0.5c0.6,0.2,1.3,0.3,2,0.4C20.3,42,21,42,21.7,42c2.9,0,5-0.6,6.5-1.8s2.2-2.9,2.2-5.1c0-1.2-0.3-2.2-0.8-3
		c-0.5-0.8-1.2-1.5-2-2.1c-0.8-0.6-1.6-1.2-2.6-1.6c-0.9-0.5-1.8-0.9-2.6-1.4c-0.8-0.5-1.4-1-2-1.6c-0.5-0.6-0.8-1.3-0.8-2.1
		c0-0.9,0.3-1.6,1-2.1s1.4-0.7,2.3-0.7c0.5,0,1.1,0.1,1.6,0.2c0.5,0.1,0.9,0.2,1.2,0.4l1.5,4.5h1.3c0.1-0.3,0.2-0.7,0.3-1.2
		c0.1-0.5,0.2-1,0.3-1.6c0.1-0.6,0.2-1.1,0.2-1.7c0.1-0.6,0.1-1.1,0.1-1.5c-0.9-0.4-1.9-0.7-3.1-0.9c-1.1-0.2-2.4-0.3-3.7-0.3
		c-1.1,0-2.1,0.1-3,0.4c-0.9,0.3-1.7,0.6-2.4,1.1c-0.7,0.5-1.2,1.2-1.6,1.9c-0.4,0.8-0.6,1.7-0.6,2.8c0,1.2,0.3,2.3,0.8,3.1
		c0.5,0.8,1.2,1.6,1.9,2.2s1.6,1.1,2.5,1.6c0.9,0.4,1.7,0.9,2.5,1.4c0.8,0.5,1.4,1,1.9,1.5c0.5,0.5,0.8,1.2,0.8,2
		c0,1.1-0.4,2-1.2,2.6c-0.8,0.6-1.8,0.9-3,0.9c-0.7,0-1.3-0.1-1.7-0.3c-0.4-0.2-0.8-0.4-1-0.7L17.2,34.1z"/>
	<path style="clip-path:url(#SVGID_00000183957234745128918860000014626379231275009422_);fill:#E6BC00;" d="M45.7,28.5
		c0.9,0.5,1.6,1.2,2.2,2.1c0.6,0.9,1,1.9,1.3,3c0.3,1.1,0.4,2.3,0.4,3.5c0,1.4-0.1,2.6-0.4,3.8C49,42.1,48.5,43.1,48,44
		c-0.6,0.9-1.3,1.6-2.2,2.1s-2,0.8-3.2,0.8c-0.1,0-0.3,0-0.5,0c-0.2,0-0.4,0-0.7,0c-0.2,0-0.5,0-0.7,0c-0.2,0-0.4,0-0.5,0V27.9
		c0.3,0,0.6-0.1,1-0.1c0.4,0,0.8,0,1.2,0C43.7,27.7,44.8,28,45.7,28.5 M36.5,48.7c0.4,0,0.9,0,1.4,0c0.5,0,1.1,0.1,1.6,0.1
		c0.5,0,1.1,0.1,1.5,0.1c0.5,0,0.9,0,1.1,0c2.2,0,4-0.3,5.6-0.9c1.6-0.6,2.9-1.4,4-2.4c1-1,1.8-2.3,2.4-3.8c0.5-1.5,0.8-3.1,0.8-4.9
		c0-1.9-0.3-3.5-0.8-4.9s-1.4-2.6-2.4-3.6c-1-1-2.3-1.7-3.8-2.2c-1.5-0.5-3.2-0.8-5.1-0.8c-0.4,0-0.9,0-1.4,0
		c-0.6,0-1.1,0.1-1.7,0.1c-0.6,0-1.2,0.1-1.7,0.1c-0.5,0-1,0-1.4,0h-3.8v1.2c0.3,0.2,0.8,0.4,1.2,0.5c0.5,0.2,1,0.3,1.5,0.4v18.5
		c-0.5,0.1-1,0.2-1.4,0.4c-0.5,0.2-0.9,0.4-1.2,0.6v1.2H36.5z"/>
	<path style="clip-path:url(#SVGID_00000183957234745128918860000014626379231275009422_);fill:#306C8D;" d="M35,6.3
		c-14.7,0-26.7,12-26.7,26.8s12,26.8,26.7,26.8s26.7-12,26.7-26.8S49.7,6.3,35,6.3 M35,63.7C18.2,63.7,4.5,50,4.5,33.1
		S18.2,2.5,35,2.5s30.5,13.7,30.5,30.6S51.8,63.7,35,63.7"/>
</g>
</svg>
