<?xml version="1.0" encoding="utf-8"?>
<!-- Generator: Adobe Illustrator 26.3.1, SVG Export Plug-In . SVG Version: 6.00 Build 0)  -->
<svg version="1.1" id="Livello_1" xmlns="http://www.w3.org/2000/svg" xmlns:xlink="http://www.w3.org/1999/xlink" x="0px" y="0px"
	 viewBox="0 0 380.76 116.06" style="enable-background:new 0 0 380.76 116.06;" xml:space="preserve">
<style type="text/css">
	.st0{clip-path:url(#SVGID_00000060719282326783615580000013669296278692751255_);fill:#E3924C;}
	.st1{clip-path:url(#SVGID_00000060719282326783615580000013669296278692751255_);fill:#005984;}
	.st2{clip-path:url(#SVGID_00000060719282326783615580000013669296278692751255_);fill:#009FE3;}
	.st3{clip-path:url(#SVGID_00000060719282326783615580000013669296278692751255_);fill:#004661;}
</style>
<g>
	<defs>
		<rect id="SVGID_1_" x="4.99" y="14.99" width="371.12" height="90.65"/>
	</defs>
	<clipPath id="SVGID_00000028298637684175906710000016854384336691812742_">
		<use xlink:href="#SVGID_1_"  style="overflow:visible;"/>
	</clipPath>
	<path style="clip-path:url(#SVGID_00000028298637684175906710000016854384336691812742_);fill:#E3924C;" d="M52.99,54.18
		c1.08,0.68,2.41,1.16,4.01,1.42v27.65c-0.59,0.1-1.21,0.26-1.88,0.49c-0.67,0.23-1.38,0.54-2.13,0.93v1.86h26.82
		c0.03-0.81,0.03-1.76,0-2.83c-0.03-1.08-0.08-2.17-0.15-3.27c-0.06-1.11-0.16-2.17-0.27-3.18c-0.11-1.01-0.24-1.89-0.37-2.64h-2
		l-3.27,8.75h-9.43V55.59c0.78-0.1,1.59-0.27,2.42-0.51c0.83-0.24,1.59-0.55,2.27-0.9v-1.86H52.99V54.18z"/>
	<path style="clip-path:url(#SVGID_00000028298637684175906710000016854384336691812742_);fill:#005984;" d="M39.69,43.49
		c1.27,1.24,1.91,3.16,1.91,5.77c0,1.37-0.19,2.54-0.59,3.52c-0.39,0.98-0.9,1.78-1.54,2.39c-0.64,0.62-1.36,1.08-2.17,1.37
		c-0.81,0.29-1.66,0.44-2.54,0.44c-0.36,0-0.83-0.01-1.42-0.02c-0.59-0.02-1.03-0.07-1.32-0.17V41.93c0.36-0.1,0.72-0.17,1.1-0.22
		c0.37-0.05,0.89-0.07,1.54-0.07C36.74,41.64,38.42,42.25,39.69,43.49 M32.02,60.01c0.16,0.03,0.43,0.06,0.81,0.07
		c0.37,0.02,0.77,0.03,1.17,0.05c0.41,0.02,0.79,0.02,1.15,0.02h0.78c1.76,0,3.47-0.22,5.13-0.66c1.66-0.44,3.13-1.12,4.4-2.03
		c1.27-0.91,2.29-2.07,3.05-3.47c0.76-1.4,1.15-3.06,1.15-4.98c0-2.02-0.39-3.7-1.17-5.06c-0.78-1.35-1.82-2.43-3.1-3.25
		c-1.29-0.81-2.75-1.39-4.4-1.73c-1.65-0.34-3.33-0.51-5.06-0.51c-1.4,0-2.94,0.07-4.62,0.2c-1.68,0.13-3.17,0.2-4.47,0.2h-6.16
		v1.86c0.55,0.33,1.17,0.61,1.86,0.85c0.68,0.24,1.4,0.43,2.15,0.56v27.65c-0.65,0.13-1.33,0.31-2.03,0.54
		c-0.7,0.23-1.36,0.52-1.98,0.88v1.86h16.27v-1.86c-0.68-0.32-1.46-0.61-2.32-0.85c-0.86-0.24-1.73-0.43-2.61-0.56V60.01z"/>
	<path style="clip-path:url(#SVGID_00000028298637684175906710000016854384336691812742_);fill:#009FE3;" d="M50.31,20.63
		c-21.89,0-39.69,17.81-39.69,39.69c0,21.89,17.81,39.69,39.69,39.69s39.7-17.81,39.7-39.69C90.01,38.43,72.2,20.63,50.31,20.63
		 M50.31,105.65c-24.99,0-45.33-20.33-45.33-45.33c0-24.99,20.33-45.33,45.33-45.33s45.33,20.33,45.33,45.33
		C95.64,85.31,75.31,105.65,50.31,105.65"/>
	<path style="clip-path:url(#SVGID_00000028298637684175906710000016854384336691812742_);fill:#E3924C;" d="M370.15,62.66
		c-0.15-0.09-0.31-0.17-0.48-0.24c-0.17-0.07-0.36-0.14-0.57-0.21v-5.07c0.12-0.56,0.31-1.01,0.57-1.35
		c0.26-0.34,0.61-0.51,1.06-0.51c0.6,0,0.99,0.23,1.17,0.7c0.18,0.46,0.27,1.18,0.27,2.16v4.07c-0.34,0.11-0.65,0.26-0.94,0.45v0.71
		h4.87v-0.71c-0.4-0.22-0.81-0.37-1.23-0.45v-4.45c0-0.79-0.06-1.44-0.19-1.95c-0.12-0.51-0.31-0.92-0.55-1.22
		c-0.24-0.3-0.54-0.51-0.9-0.63c-0.36-0.12-0.76-0.18-1.23-0.18c-0.75,0-1.39,0.21-1.91,0.64c-0.52,0.42-0.9,0.98-1.12,1.67
		c-0.07-0.47-0.2-0.86-0.37-1.16c-0.17-0.3-0.38-0.53-0.63-0.7c-0.24-0.17-0.51-0.28-0.79-0.35c-0.29-0.06-0.58-0.09-0.88-0.09
		c-0.71,0-1.32,0.21-1.83,0.62c-0.51,0.41-0.86,0.91-1.06,1.5h-0.02v-2.12h-0.64c-0.2,0.02-0.45,0.06-0.74,0.09
		c-0.29,0.04-0.6,0.08-0.91,0.14c-0.31,0.06-0.61,0.12-0.91,0.2c-0.29,0.07-0.54,0.16-0.74,0.24v0.71l1.24,0.15v6.89
		c-0.22,0.06-0.44,0.13-0.65,0.21c-0.21,0.08-0.41,0.16-0.58,0.24v0.71h4.87v-0.71c-0.29-0.2-0.6-0.35-0.94-0.45v-5.26
		c0.14-0.5,0.35-0.9,0.64-1.21c0.29-0.31,0.64-0.46,1.04-0.46c0.27,0,0.5,0.06,0.68,0.18c0.17,0.12,0.31,0.31,0.41,0.56
		c0.1,0.26,0.17,0.58,0.2,0.98c0.03,0.4,0.05,0.89,0.05,1.47v3.74c-0.19,0.06-0.36,0.14-0.52,0.22c-0.16,0.08-0.3,0.16-0.42,0.23
		v0.71h4.68V62.66z M350.95,56.92c0.08-0.48,0.2-0.87,0.36-1.16c0.16-0.29,0.36-0.51,0.6-0.64c0.24-0.13,0.52-0.2,0.84-0.2
		c0.44,0,0.8,0.09,1.09,0.27c0.29,0.18,0.51,0.43,0.68,0.76c0.17,0.32,0.29,0.72,0.36,1.18c0.07,0.46,0.1,0.98,0.1,1.55
		c0,0.7-0.04,1.29-0.12,1.77c-0.08,0.48-0.2,0.87-0.37,1.16c-0.16,0.29-0.36,0.51-0.58,0.64c-0.22,0.13-0.47,0.2-0.75,0.2
		c-0.47,0-0.86-0.09-1.16-0.27c-0.3-0.18-0.54-0.43-0.71-0.76c-0.17-0.33-0.3-0.72-0.36-1.19c-0.07-0.47-0.1-0.98-0.1-1.54
		C350.82,57.99,350.86,57.4,350.95,56.92 M348.22,60.67c0.2,0.6,0.51,1.12,0.92,1.55c0.41,0.43,0.93,0.77,1.55,1.01
		c0.62,0.24,1.36,0.37,2.21,0.37c0.77,0,1.47-0.11,2.09-0.34c0.62-0.23,1.14-0.55,1.57-0.97c0.43-0.42,0.76-0.94,0.98-1.54
		c0.22-0.61,0.34-1.29,0.34-2.05c0-0.71-0.09-1.37-0.28-1.97c-0.19-0.61-0.49-1.12-0.89-1.55c-0.41-0.43-0.92-0.77-1.55-1.01
		c-0.63-0.24-1.38-0.36-2.26-0.36c-0.77,0-1.47,0.11-2.08,0.34c-0.61,0.22-1.13,0.55-1.56,0.97c-0.43,0.42-0.76,0.94-0.99,1.55
		c-0.23,0.6-0.35,1.29-0.35,2.05C347.92,59.4,348.02,60.06,348.22,60.67 M345.96,61.46c-0.23,0.17-0.5,0.32-0.82,0.45
		c-0.33,0.13-0.71,0.19-1.14,0.19c-0.47,0-0.89-0.09-1.24-0.27c-0.35-0.18-0.64-0.43-0.87-0.75c-0.23-0.32-0.4-0.69-0.52-1.12
		c-0.11-0.43-0.17-0.9-0.17-1.41c0-0.7,0.04-1.29,0.12-1.76c0.08-0.47,0.21-0.85,0.37-1.14c0.17-0.29,0.37-0.49,0.61-0.61
		c0.24-0.12,0.52-0.18,0.84-0.18c0.2,0,0.35,0.02,0.45,0.05c0.1,0.03,0.19,0.08,0.28,0.14l0.79,2.23h0.92
		c0.07-0.16,0.15-0.36,0.22-0.61c0.08-0.24,0.14-0.49,0.2-0.75c0.06-0.25,0.11-0.51,0.15-0.77c0.04-0.26,0.08-0.49,0.1-0.7
		c-0.34-0.17-0.76-0.33-1.27-0.46s-1.07-0.2-1.69-0.2c-1.6,0-2.83,0.42-3.7,1.26c-0.87,0.84-1.3,2.06-1.3,3.64
		c0,0.74,0.09,1.41,0.28,2.01c0.19,0.61,0.47,1.12,0.86,1.55c0.39,0.43,0.88,0.76,1.47,0.99s1.3,0.35,2.13,0.35
		c0.39,0,0.76-0.04,1.11-0.13c0.36-0.09,0.67-0.21,0.96-0.38c0.28-0.16,0.52-0.35,0.72-0.55c0.2-0.21,0.34-0.43,0.43-0.68
		L345.96,61.46z M333.22,63.12c0.29,0.27,0.67,0.4,1.14,0.4c0.47,0,0.86-0.14,1.16-0.4s0.45-0.63,0.45-1.08s-0.15-0.81-0.45-1.09
		c-0.3-0.27-0.69-0.41-1.16-0.41c-0.48,0-0.86,0.14-1.14,0.41c-0.29,0.27-0.43,0.64-0.43,1.09S332.93,62.85,333.22,63.12"/>
	<path style="clip-path:url(#SVGID_00000028298637684175906710000016854384336691812742_);fill:#004661;" d="M324.03,49.57
		c0.35,0.94,0.45,2.27,0.3,4.01h-5.35c0.07-1.07,0.18-1.95,0.33-2.66c0.16-0.7,0.36-1.26,0.61-1.67c0.25-0.41,0.55-0.7,0.9-0.85
		c0.34-0.16,0.74-0.23,1.18-0.23C323,48.16,323.67,48.63,324.03,49.57 M328.27,59.9c-0.45,0.36-1.06,0.65-1.86,0.87
		c-0.79,0.22-1.55,0.34-2.29,0.34c-1.72,0-3.01-0.52-3.89-1.57c-0.88-1.05-1.33-2.45-1.35-4.21h10.26c0.29-1.67,0.31-3.09,0.05-4.24
		s-0.71-2.09-1.37-2.81c-0.66-0.71-1.48-1.22-2.47-1.54c-0.99-0.31-2.06-0.47-3.19-0.47c-2.65,0-4.72,0.75-6.22,2.24
		c-1.49,1.49-2.24,3.66-2.24,6.52c0,1.34,0.18,2.54,0.55,3.61c0.37,1.07,0.91,1.99,1.62,2.76c0.71,0.77,1.6,1.36,2.67,1.77
		c1.07,0.41,2.3,0.62,3.68,0.62c0.87,0,1.68-0.09,2.42-0.28c0.75-0.19,1.4-0.43,1.97-0.74c0.57-0.3,1.05-0.65,1.44-1.04
		c0.39-0.39,0.67-0.77,0.85-1.15L328.27,59.9z M310.82,62.1c-0.74-0.36-1.47-0.62-2.21-0.8V38.24h-1.14c-0.47,0.04-1,0.11-1.59,0.18
		c-0.59,0.08-1.18,0.17-1.77,0.27c-0.59,0.1-1.14,0.22-1.65,0.35c-0.51,0.13-0.91,0.27-1.2,0.4v1.27l2.54,0.27V61.3
		c-0.74,0.18-1.47,0.45-2.21,0.8v1.27h9.22V62.1z M287.46,60.4c-0.4-0.47-0.6-1.13-0.6-1.97c0-0.56,0.07-1.03,0.22-1.42
		c0.14-0.39,0.41-0.71,0.79-0.97c0.38-0.25,0.9-0.44,1.57-0.55c0.67-0.11,1.53-0.18,2.57-0.2v3.34c-0.07,0.22-0.16,0.48-0.28,0.77
		c-0.12,0.29-0.3,0.56-0.54,0.8c-0.23,0.24-0.52,0.46-0.85,0.63s-0.74,0.27-1.2,0.27C288.41,61.1,287.86,60.87,287.46,60.4
		 M296.73,55.2c0.06-1.08,0.08-2.29,0.08-3.63c0-0.74-0.09-1.43-0.27-2.07c-0.18-0.65-0.5-1.21-0.95-1.69
		c-0.46-0.48-1.09-0.86-1.89-1.14c-0.8-0.28-1.84-0.42-3.11-0.42c-1.49,0-2.91,0.17-4.24,0.5c-1.34,0.33-2.43,0.79-3.28,1.37
		c0.04,0.38,0.12,0.77,0.22,1.17c0.1,0.4,0.22,0.8,0.37,1.19c0.15,0.39,0.3,0.76,0.47,1.1c0.17,0.35,0.34,0.65,0.52,0.92h1.47
		l1.57-4.01c0.58-0.22,1.21-0.34,1.9-0.34c1.11,0,1.84,0.45,2.17,1.34c0.33,0.89,0.41,2.3,0.23,4.21c-1.83,0.09-3.38,0.23-4.66,0.43
		c-1.28,0.2-2.33,0.51-3.14,0.92c-0.81,0.41-1.41,0.94-1.79,1.59c-0.38,0.65-0.57,1.47-0.57,2.47c0,0.71,0.13,1.35,0.4,1.92
		c0.27,0.57,0.63,1.05,1.1,1.45c0.47,0.4,1.01,0.71,1.64,0.94c0.62,0.22,1.3,0.33,2.04,0.33c0.69,0,1.31-0.1,1.87-0.3
		c0.56-0.2,1.04-0.46,1.45-0.78c0.41-0.32,0.75-0.69,1.02-1.1c0.27-0.41,0.46-0.84,0.57-1.29h0.17c0.02,0.74,0.05,1.36,0.1,1.87
		c0.04,0.51,0.18,1.02,0.4,1.54h1.14c0.38-0.04,0.81-0.11,1.3-0.18c0.49-0.08,0.99-0.18,1.49-0.3s0.98-0.25,1.44-0.38
		c0.46-0.13,0.82-0.27,1.09-0.4v-1.17l-2.31-0.34c-0.04-0.4-0.07-0.78-0.08-1.14c-0.01-0.36-0.02-0.78-0.02-1.27
		C296.65,57.39,296.68,56.28,296.73,55.2 M278.47,59.96c-0.4,0.31-0.89,0.58-1.47,0.8c-0.58,0.22-1.26,0.34-2.04,0.34
		c-0.85,0-1.58-0.16-2.21-0.49c-0.62-0.32-1.14-0.77-1.55-1.34c-0.41-0.57-0.72-1.24-0.92-2.01c-0.2-0.77-0.3-1.61-0.3-2.52
		c0-1.25,0.07-2.29,0.22-3.14c0.14-0.85,0.37-1.53,0.67-2.04c0.3-0.51,0.66-0.88,1.09-1.09c0.42-0.21,0.92-0.32,1.5-0.32
		c0.36,0,0.62,0.03,0.8,0.08c0.18,0.06,0.35,0.14,0.5,0.25l1.4,3.98h1.64c0.13-0.29,0.27-0.65,0.4-1.09
		c0.13-0.43,0.25-0.88,0.35-1.34c0.1-0.46,0.19-0.91,0.27-1.37c0.08-0.46,0.14-0.87,0.18-1.25c-0.6-0.31-1.36-0.58-2.27-0.82
		c-0.91-0.23-1.92-0.35-3.01-0.35c-2.85,0-5.05,0.75-6.6,2.26c-1.55,1.5-2.32,3.67-2.32,6.5c0,1.32,0.17,2.51,0.5,3.59
		c0.33,1.08,0.85,2.01,1.54,2.78c0.69,0.77,1.56,1.36,2.62,1.77c1.06,0.41,2.32,0.62,3.79,0.62c0.69,0,1.35-0.08,1.99-0.23
		c0.63-0.16,1.2-0.38,1.71-0.67c0.5-0.29,0.93-0.62,1.29-0.99c0.36-0.37,0.61-0.77,0.77-1.22L278.47,59.96z M249.34,51.86
		c0.14-0.86,0.36-1.55,0.65-2.07c0.29-0.52,0.65-0.9,1.07-1.14c0.42-0.23,0.92-0.35,1.5-0.35c0.78,0,1.42,0.16,1.94,0.49
		c0.51,0.32,0.92,0.77,1.22,1.35c0.3,0.58,0.51,1.28,0.64,2.11c0.12,0.82,0.18,1.75,0.18,2.77c0,1.25-0.07,2.3-0.22,3.16
		c-0.14,0.86-0.36,1.55-0.65,2.07c-0.29,0.52-0.64,0.9-1.04,1.14c-0.4,0.23-0.85,0.35-1.34,0.35c-0.85,0-1.54-0.16-2.07-0.49
		c-0.54-0.32-0.96-0.77-1.27-1.35c-0.31-0.58-0.53-1.29-0.65-2.12c-0.12-0.84-0.18-1.75-0.18-2.76
		C249.12,53.77,249.19,52.72,249.34,51.86 M244.47,58.54c0.36,1.08,0.9,2.01,1.64,2.77c0.74,0.77,1.66,1.37,2.77,1.81
		c1.11,0.43,2.43,0.65,3.95,0.65c1.38,0,2.62-0.2,3.73-0.6c1.1-0.4,2.04-0.98,2.81-1.74c0.77-0.76,1.35-1.68,1.75-2.76
		c0.4-1.08,0.6-2.3,0.6-3.66c0-1.27-0.17-2.45-0.5-3.53c-0.34-1.08-0.87-2.01-1.59-2.77c-0.72-0.77-1.65-1.37-2.77-1.8
		c-1.13-0.43-2.47-0.65-4.03-0.65c-1.38,0-2.62,0.2-3.71,0.6c-1.09,0.4-2.02,0.98-2.79,1.74c-0.77,0.76-1.36,1.68-1.77,2.76
		c-0.41,1.08-0.62,2.3-0.62,3.66C243.94,56.29,244.12,57.46,244.47,58.54"/>
	<path style="clip-path:url(#SVGID_00000028298637684175906710000016854384336691812742_);fill:#E3924C;" d="M223.08,41.25
		c0.74,0.47,1.65,0.79,2.74,0.97v18.92c-0.4,0.07-0.83,0.18-1.29,0.34c-0.46,0.16-0.94,0.37-1.45,0.63v1.27h18.35
		c0.02-0.56,0.02-1.2,0-1.94c-0.02-0.73-0.06-1.48-0.1-2.24c-0.05-0.76-0.11-1.48-0.18-2.17c-0.08-0.69-0.16-1.29-0.25-1.8h-1.37
		l-2.24,5.98h-6.45V42.21c0.53-0.07,1.09-0.18,1.65-0.35c0.57-0.17,1.09-0.37,1.55-0.62v-1.27h-10.96V41.25z"/>
	<path style="clip-path:url(#SVGID_00000028298637684175906710000016854384336691812742_);fill:#004661;" d="M209.31,60.4
		c-0.4-0.47-0.6-1.13-0.6-1.97c0-0.56,0.07-1.03,0.22-1.42s0.41-0.71,0.79-0.97c0.38-0.26,0.9-0.44,1.57-0.55
		c0.67-0.11,1.53-0.18,2.57-0.2v3.34c-0.07,0.22-0.16,0.48-0.28,0.77c-0.12,0.29-0.3,0.56-0.53,0.8c-0.23,0.25-0.52,0.46-0.85,0.64
		c-0.33,0.18-0.74,0.27-1.2,0.27C210.27,61.1,209.71,60.87,209.31,60.4 M218.59,55.2c0.05-1.08,0.08-2.29,0.08-3.63
		c0-0.74-0.09-1.43-0.27-2.07c-0.18-0.65-0.5-1.21-0.95-1.69c-0.46-0.48-1.09-0.86-1.89-1.14c-0.8-0.28-1.84-0.42-3.11-0.42
		c-1.49,0-2.91,0.17-4.24,0.5c-1.34,0.33-2.43,0.79-3.28,1.37c0.04,0.38,0.12,0.77,0.22,1.17c0.1,0.4,0.22,0.8,0.37,1.19
		c0.15,0.39,0.3,0.76,0.47,1.1c0.17,0.35,0.34,0.65,0.52,0.92h1.47l1.57-4.01c0.58-0.22,1.21-0.33,1.9-0.33
		c1.11,0,1.84,0.45,2.17,1.34c0.33,0.89,0.41,2.3,0.23,4.21c-1.83,0.09-3.38,0.23-4.66,0.43c-1.28,0.2-2.33,0.51-3.14,0.92
		c-0.81,0.41-1.41,0.94-1.79,1.59c-0.38,0.65-0.57,1.47-0.57,2.47c0,0.71,0.13,1.35,0.4,1.92c0.27,0.57,0.63,1.05,1.1,1.46
		c0.47,0.4,1.01,0.71,1.64,0.94c0.62,0.22,1.3,0.33,2.04,0.33c0.69,0,1.32-0.1,1.87-0.3c0.56-0.2,1.04-0.46,1.45-0.79
		c0.41-0.32,0.75-0.69,1.02-1.1c0.27-0.41,0.46-0.84,0.57-1.29h0.17c0.02,0.74,0.06,1.36,0.1,1.87c0.04,0.51,0.18,1.03,0.4,1.54
		h1.14c0.38-0.05,0.81-0.11,1.3-0.18c0.49-0.08,0.99-0.18,1.49-0.3c0.5-0.12,0.98-0.25,1.44-0.38c0.46-0.13,0.82-0.27,1.09-0.4
		v-1.17l-2.31-0.33c-0.04-0.4-0.07-0.78-0.08-1.14c-0.01-0.36-0.02-0.78-0.02-1.27C218.5,57.39,218.53,56.28,218.59,55.2
		 M194.23,42.98c0.53,0.45,1.21,0.67,2.05,0.67c0.84,0,1.52-0.22,2.05-0.67c0.53-0.45,0.79-1.05,0.79-1.8
		c0-0.78-0.26-1.39-0.79-1.84c-0.53-0.44-1.21-0.67-2.05-0.67c-0.84,0-1.52,0.22-2.05,0.67c-0.53,0.45-0.79,1.06-0.79,1.84
		C193.43,41.94,193.7,42.54,194.23,42.98 M200.95,62.1c-0.31-0.18-0.65-0.33-1-0.45c-0.36-0.12-0.76-0.24-1.2-0.35V46.26h-1.14
		c-0.4,0.05-0.87,0.11-1.4,0.18c-0.53,0.08-1.08,0.17-1.64,0.27c-0.56,0.1-1.09,0.22-1.59,0.35c-0.5,0.13-0.92,0.27-1.25,0.4v1.27
		l2.21,0.27V61.3c-0.42,0.11-0.81,0.23-1.17,0.35c-0.36,0.12-0.7,0.27-1.03,0.45v1.27h9.22V62.1z M186.45,57.19l-1.8,4.28h-5.78
		l9.56-13.5v-1.3h-14.37c0,0.8,0.08,1.74,0.23,2.81c0.16,1.07,0.36,2.08,0.6,3.04h1.14l1.47-3.94h5.55l-9.53,13.5v1.3h14.91
		c0.04-0.98-0.02-2.03-0.2-3.14c-0.18-1.11-0.39-2.13-0.63-3.04H186.45z M163.88,42.98c0.53,0.45,1.21,0.67,2.05,0.67
		s1.52-0.22,2.05-0.67c0.53-0.45,0.79-1.05,0.79-1.8c0-0.78-0.26-1.39-0.79-1.84c-0.53-0.44-1.21-0.67-2.05-0.67
		s-1.52,0.22-2.05,0.67c-0.53,0.45-0.79,1.06-0.79,1.84C163.08,41.94,163.35,42.54,163.88,42.98 M170.6,62.1
		c-0.31-0.18-0.65-0.33-1-0.45c-0.36-0.12-0.76-0.24-1.2-0.35V46.26h-1.14c-0.4,0.05-0.87,0.11-1.4,0.18
		c-0.54,0.08-1.08,0.17-1.64,0.27s-1.09,0.22-1.59,0.35c-0.5,0.13-0.92,0.27-1.25,0.4v1.27l2.21,0.27V61.3
		c-0.42,0.11-0.81,0.23-1.17,0.35c-0.36,0.12-0.7,0.27-1.04,0.45v1.27h9.22V62.1z M158.5,62.1c-0.74-0.36-1.47-0.62-2.21-0.8V38.24
		h-1.14c-0.47,0.04-1,0.11-1.59,0.18c-0.59,0.08-1.18,0.17-1.77,0.27c-0.59,0.1-1.14,0.22-1.66,0.35c-0.51,0.13-0.91,0.27-1.2,0.4
		v1.27l2.54,0.27V61.3c-0.74,0.18-1.47,0.45-2.21,0.8v1.27h9.22V62.1z M133.82,51.86c0.15-0.86,0.36-1.55,0.65-2.07
		c0.29-0.52,0.65-0.9,1.07-1.14c0.42-0.23,0.93-0.35,1.5-0.35c0.78,0,1.43,0.16,1.94,0.49c0.51,0.32,0.92,0.77,1.22,1.35
		c0.3,0.58,0.51,1.28,0.63,2.11c0.12,0.82,0.18,1.75,0.18,2.78c0,1.25-0.07,2.3-0.22,3.16c-0.15,0.86-0.36,1.55-0.65,2.07
		c-0.29,0.52-0.63,0.9-1.04,1.14c-0.4,0.23-0.85,0.35-1.34,0.35c-0.85,0-1.54-0.16-2.07-0.49c-0.53-0.32-0.96-0.77-1.27-1.35
		c-0.31-0.58-0.53-1.29-0.65-2.12c-0.12-0.84-0.18-1.76-0.18-2.76C133.6,53.77,133.68,52.72,133.82,51.86 M128.96,58.54
		c0.36,1.08,0.9,2.01,1.64,2.77c0.74,0.77,1.66,1.37,2.78,1.8c1.11,0.43,2.43,0.65,3.94,0.65c1.38,0,2.62-0.2,3.73-0.6
		c1.1-0.4,2.04-0.98,2.81-1.74c0.77-0.76,1.35-1.68,1.75-2.76c0.4-1.08,0.6-2.3,0.6-3.66c0-1.27-0.17-2.45-0.5-3.53
		c-0.33-1.08-0.86-2.01-1.59-2.78c-0.72-0.77-1.65-1.37-2.78-1.8c-1.12-0.43-2.47-0.65-4.03-0.65c-1.38,0-2.62,0.2-3.71,0.6
		c-1.09,0.4-2.02,0.98-2.79,1.74c-0.77,0.76-1.36,1.68-1.77,2.76c-0.41,1.08-0.62,2.3-0.62,3.66
		C128.42,56.29,128.6,57.46,128.96,58.54 M118.66,43.15c0.87,0.85,1.3,2.16,1.3,3.94c0,0.94-0.13,1.74-0.4,2.41
		c-0.27,0.67-0.62,1.21-1.05,1.64c-0.43,0.42-0.93,0.74-1.49,0.94c-0.56,0.2-1.14,0.3-1.74,0.3c-0.24,0-0.57,0-0.97-0.02
		c-0.4-0.01-0.7-0.05-0.9-0.12V42.08c0.24-0.07,0.5-0.12,0.75-0.15c0.25-0.03,0.61-0.05,1.05-0.05
		C116.65,41.88,117.79,42.31,118.66,43.15 M113.41,54.45c0.11,0.02,0.3,0.04,0.55,0.05c0.26,0.01,0.52,0.02,0.8,0.03
		c0.28,0.01,0.54,0.02,0.78,0.02h0.54c1.2,0,2.37-0.15,3.51-0.45c1.14-0.3,2.14-0.76,3.01-1.39c0.87-0.62,1.57-1.41,2.09-2.37
		c0.52-0.96,0.78-2.09,0.78-3.41c0-1.38-0.27-2.53-0.8-3.46c-0.54-0.92-1.24-1.67-2.12-2.22c-0.88-0.56-1.88-0.95-3.01-1.19
		c-1.13-0.23-2.28-0.35-3.46-0.35c-0.96,0-2.01,0.04-3.16,0.13c-1.15,0.09-2.17,0.13-3.06,0.13h-4.21v1.27
		c0.38,0.22,0.8,0.42,1.27,0.58c0.47,0.17,0.96,0.3,1.47,0.39v18.92c-0.45,0.09-0.91,0.21-1.39,0.37c-0.48,0.16-0.93,0.36-1.35,0.6
		v1.27h11.13V62.1c-0.47-0.22-1-0.42-1.59-0.58c-0.59-0.17-1.19-0.3-1.79-0.38V54.45z"/>
	<path style="clip-path:url(#SVGID_00000028298637684175906710000016854384336691812742_);fill:#009FE3;" d="M338.84,89.73
		c-0.3-0.4-0.39-0.96-0.26-1.68c0.07-0.42,0.21-0.8,0.4-1.13c0.19-0.33,0.49-0.6,0.88-0.82c0.39-0.22,0.91-0.38,1.55-0.48
		c0.64-0.1,1.45-0.15,2.43-0.15l-0.47,2.65c-0.08,0.17-0.21,0.38-0.39,0.62c-0.18,0.24-0.4,0.48-0.66,0.72s-0.57,0.44-0.92,0.61
		s-0.74,0.25-1.16,0.25C339.61,90.33,339.14,90.13,338.84,89.73 M346.03,85.59c0.21-0.94,0.4-1.91,0.58-2.92
		c0.08-0.47,0.12-0.94,0.12-1.42c0-0.47-0.1-0.9-0.3-1.29c-0.2-0.39-0.54-0.7-1.01-0.95s-1.14-0.37-1.99-0.37
		c-0.96,0-1.85,0.11-2.68,0.33c-0.82,0.22-1.59,0.52-2.3,0.91c-0.06,0.52-0.07,1.05-0.04,1.59c0.03,0.54,0.09,1.06,0.17,1.57h0.66
		l1.72-3.03c0.31-0.12,0.61-0.19,0.91-0.22c0.3-0.02,0.57-0.04,0.8-0.04c0.51,0,0.89,0.11,1.17,0.34s0.45,0.55,0.54,0.96
		c0.09,0.41,0.09,0.91,0.01,1.49c-0.08,0.58-0.21,1.23-0.41,1.96c-1.19,0.07-2.25,0.16-3.16,0.29c-0.92,0.13-1.7,0.33-2.36,0.62
		c-0.66,0.29-1.19,0.68-1.59,1.18c-0.4,0.5-0.67,1.13-0.8,1.91c-0.18,1.01,0,1.83,0.54,2.45c0.54,0.62,1.32,0.93,2.35,0.93
		c0.54,0,1.03-0.08,1.49-0.25c0.45-0.17,0.85-0.39,1.21-0.66c0.36-0.27,0.67-0.58,0.92-0.92c0.25-0.35,0.44-0.69,0.57-1.02h0.13
		c-0.08,0.56-0.15,1.07-0.19,1.53c-0.05,0.46-0.02,0.89,0.08,1.28h0.63c0.49-0.08,1-0.21,1.55-0.38s1.04-0.36,1.51-0.58l0.09-0.53
		l-1.7-0.25c0.04-0.3,0.07-0.59,0.1-0.86c0.03-0.27,0.08-0.59,0.15-0.96C345.64,87.42,345.82,86.52,346.03,85.59 M326.45,89.93
		c-0.33-0.26-0.59-0.62-0.76-1.07c-0.17-0.45-0.27-0.98-0.28-1.58c-0.01-0.6,0.04-1.24,0.16-1.93c0.29-1.67,0.83-3,1.62-4.01
		c0.78-1,1.75-1.5,2.89-1.5c0.61,0,1.1,0.03,1.47,0.1c0.38,0.07,0.69,0.19,0.95,0.35l-1.26,7.13c-0.34,0.89-0.8,1.6-1.38,2.12
		c-0.58,0.52-1.29,0.78-2.11,0.78C327.22,90.33,326.78,90.2,326.45,89.93 M330.99,89.09l-0.26,2.75h0.63
		c0.52-0.07,1.05-0.19,1.6-0.35c0.55-0.17,1.09-0.37,1.62-0.61l0.09-0.53l-1.63-0.2l3.1-17.57h-0.63c-0.61,0.1-1.25,0.23-1.92,0.38
		c-0.68,0.15-1.28,0.33-1.8,0.53l-0.12,0.66l1.89,0.2l-0.84,4.78c-0.39-0.15-0.76-0.26-1.11-0.32c-0.34-0.06-0.83-0.09-1.45-0.09
		c-1.79,0-3.31,0.56-4.56,1.69c-1.25,1.13-2.07,2.77-2.45,4.93c-0.4,2.24-0.27,3.89,0.36,4.96c0.64,1.06,1.79,1.59,3.46,1.59
		c0.44,0,0.86-0.07,1.27-0.23c0.41-0.15,0.78-0.36,1.12-0.62c0.34-0.26,0.64-0.56,0.9-0.9c0.26-0.34,0.47-0.69,0.62-1.06H330.99z
		 M313.05,89.73c-0.3-0.4-0.39-0.96-0.26-1.68c0.07-0.42,0.21-0.8,0.4-1.13c0.19-0.33,0.49-0.6,0.88-0.82
		c0.39-0.22,0.91-0.38,1.55-0.48c0.64-0.1,1.45-0.15,2.43-0.15l-0.47,2.65c-0.08,0.17-0.21,0.38-0.39,0.62
		c-0.18,0.24-0.4,0.48-0.66,0.72s-0.57,0.44-0.92,0.61c-0.35,0.17-0.74,0.25-1.16,0.25C313.82,90.33,313.35,90.13,313.05,89.73
		 M320.24,85.59c0.21-0.94,0.4-1.91,0.58-2.92c0.08-0.47,0.12-0.94,0.12-1.42c0-0.47-0.1-0.9-0.3-1.29c-0.2-0.39-0.54-0.7-1.01-0.95
		c-0.47-0.24-1.14-0.37-2-0.37c-0.96,0-1.85,0.11-2.67,0.33c-0.82,0.22-1.59,0.52-2.3,0.91c-0.06,0.52-0.07,1.05-0.04,1.59
		c0.03,0.54,0.09,1.06,0.17,1.57h0.66l1.72-3.03c0.31-0.12,0.61-0.19,0.91-0.22c0.3-0.02,0.57-0.04,0.8-0.04
		c0.51,0,0.89,0.11,1.17,0.34c0.27,0.23,0.45,0.55,0.54,0.96c0.09,0.41,0.09,0.91,0.01,1.49c-0.08,0.58-0.21,1.23-0.41,1.96
		c-1.19,0.07-2.25,0.16-3.16,0.29s-1.7,0.33-2.36,0.62c-0.66,0.29-1.18,0.68-1.58,1.18c-0.4,0.5-0.67,1.13-0.8,1.91
		c-0.18,1.01,0,1.83,0.54,2.45c0.54,0.62,1.32,0.93,2.35,0.93c0.54,0,1.03-0.08,1.49-0.25s0.86-0.39,1.22-0.66
		c0.36-0.27,0.67-0.58,0.92-0.92c0.25-0.35,0.44-0.69,0.57-1.02h0.13c-0.08,0.56-0.15,1.07-0.19,1.53
		c-0.05,0.46-0.02,0.89,0.08,1.28h0.63c0.49-0.08,1-0.21,1.55-0.38c0.54-0.17,1.04-0.36,1.51-0.58l0.09-0.53l-1.7-0.25
		c0.04-0.3,0.07-0.59,0.1-0.86c0.03-0.27,0.08-0.59,0.14-0.96C319.86,87.42,320.03,86.52,320.24,85.59 M310.98,80.85l0.12-0.66
		c-0.03-0.29-0.07-0.56-0.12-0.82c-0.05-0.26-0.11-0.5-0.19-0.72c-0.45-0.05-0.9,0-1.35,0.14c-0.45,0.14-0.89,0.35-1.3,0.62
		c-0.41,0.27-0.78,0.57-1.12,0.91c-0.34,0.34-0.61,0.68-0.82,1.01h-0.1l0.47-2.68h-0.63c-0.54,0.08-1.11,0.2-1.7,0.34
		c-0.6,0.14-1.19,0.33-1.77,0.57l-0.12,0.66l1.63,0.2l-1.75,9.93c-0.28,0.07-0.56,0.14-0.85,0.23c-0.28,0.08-0.59,0.21-0.93,0.38
		l-0.11,0.63h5.97l0.11-0.63c-0.31-0.19-0.62-0.33-0.94-0.42c-0.32-0.09-0.65-0.16-0.98-0.19l1.32-7.51
		c0.33-0.61,0.65-1.07,0.99-1.38c0.33-0.31,0.6-0.52,0.8-0.62H310.98z M293.06,80.26h2.02l-1.41,8c-0.23,1.28-0.12,2.2,0.31,2.77
		s1.15,0.85,2.16,0.85c0.39,0,0.78-0.05,1.16-0.15c0.39-0.1,0.75-0.23,1.09-0.38c0.34-0.15,0.64-0.31,0.92-0.48
		c0.27-0.17,0.49-0.33,0.65-0.48l-0.11-0.38c-0.34,0.12-0.74,0.2-1.21,0.24c-0.46,0.04-0.84,0.06-1.15,0.06
		c-0.64,0-1.08-0.21-1.33-0.63c-0.25-0.42-0.28-1.13-0.1-2.14l1.29-7.29h3.79l0.23-1.31h-3.79l0.58-3.31h-0.63
		c-0.31,0.12-0.62,0.26-0.95,0.42c-0.32,0.16-0.61,0.33-0.86,0.49l-0.38,2.15c-0.74,0.17-1.47,0.47-2.18,0.89L293.06,80.26z
		 M287.26,90.17c-0.53,0.4-1.16,0.61-1.9,0.61c-0.22,0-0.46-0.01-0.72-0.03c-0.26-0.02-0.47-0.09-0.63-0.23l-0.63-2.75h-0.63
		c-0.28,0.52-0.52,1.07-0.74,1.63c-0.22,0.57-0.4,1.15-0.54,1.76c0.62,0.24,1.22,0.42,1.8,0.54c0.58,0.13,1.24,0.19,1.96,0.19
		c0.64,0,1.26-0.09,1.86-0.26c0.59-0.18,1.14-0.43,1.62-0.75c0.49-0.32,0.89-0.71,1.22-1.16s0.54-0.97,0.64-1.54
		c0.11-0.62,0.06-1.16-0.16-1.61c-0.22-0.45-0.52-0.84-0.92-1.17c-0.39-0.34-0.83-0.64-1.29-0.91c-0.47-0.27-0.9-0.54-1.31-0.82
		c-0.41-0.28-0.73-0.58-0.96-0.91c-0.24-0.33-0.32-0.72-0.24-1.17c0.04-0.22,0.12-0.44,0.24-0.66c0.12-0.22,0.28-0.41,0.47-0.58
		c0.19-0.17,0.41-0.31,0.65-0.42c0.25-0.11,0.52-0.16,0.82-0.16c0.27,0,0.53,0.01,0.78,0.04c0.25,0.03,0.47,0.08,0.65,0.16
		l0.51,2.58h0.63c0.27-0.57,0.5-1.13,0.69-1.68c0.19-0.55,0.36-1.09,0.53-1.63c-0.51-0.19-1.04-0.33-1.6-0.43
		c-0.56-0.1-1.3-0.15-2.21-0.15c-0.54,0-1.06,0.08-1.56,0.24c-0.5,0.16-0.95,0.38-1.35,0.66c-0.4,0.28-0.74,0.61-1.02,1
		c-0.28,0.39-0.46,0.81-0.54,1.27c-0.12,0.69-0.08,1.27,0.13,1.74c0.21,0.47,0.51,0.89,0.91,1.25c0.39,0.36,0.82,0.68,1.29,0.95
		c0.47,0.27,0.9,0.55,1.31,0.83c0.4,0.29,0.73,0.59,0.96,0.92c0.24,0.33,0.31,0.73,0.23,1.2C288.1,89.28,287.79,89.77,287.26,90.17
		 M266.64,89.73c-0.3-0.4-0.39-0.96-0.26-1.68c0.07-0.42,0.21-0.8,0.4-1.13c0.19-0.33,0.49-0.6,0.88-0.82
		c0.39-0.22,0.91-0.38,1.55-0.48c0.64-0.1,1.45-0.15,2.43-0.15l-0.47,2.65c-0.08,0.17-0.21,0.38-0.39,0.62
		c-0.18,0.24-0.4,0.48-0.66,0.72s-0.57,0.44-0.92,0.61c-0.35,0.17-0.74,0.25-1.16,0.25C267.41,90.33,266.94,90.13,266.64,89.73
		 M273.83,85.59c0.21-0.94,0.4-1.91,0.58-2.92c0.08-0.47,0.12-0.94,0.12-1.42c0-0.47-0.1-0.9-0.3-1.29c-0.2-0.39-0.54-0.7-1.01-0.95
		c-0.47-0.24-1.14-0.37-1.99-0.37c-0.96,0-1.85,0.11-2.67,0.33c-0.82,0.22-1.59,0.52-2.3,0.91c-0.06,0.52-0.07,1.05-0.04,1.59
		c0.03,0.54,0.09,1.06,0.17,1.57h0.66l1.72-3.03c0.31-0.12,0.61-0.19,0.91-0.22c0.3-0.02,0.57-0.04,0.8-0.04
		c0.51,0,0.89,0.11,1.17,0.34c0.27,0.23,0.45,0.55,0.54,0.96c0.09,0.41,0.09,0.91,0.02,1.49c-0.08,0.58-0.21,1.23-0.41,1.96
		c-1.19,0.07-2.25,0.16-3.16,0.29c-0.92,0.13-1.7,0.33-2.36,0.62c-0.66,0.29-1.19,0.68-1.58,1.18c-0.4,0.5-0.67,1.13-0.8,1.91
		c-0.18,1.01,0,1.83,0.54,2.45c0.54,0.62,1.32,0.93,2.35,0.93c0.54,0,1.03-0.08,1.49-0.25c0.45-0.17,0.85-0.39,1.21-0.66
		c0.36-0.27,0.67-0.58,0.92-0.92c0.25-0.35,0.45-0.69,0.57-1.02h0.13c-0.08,0.56-0.15,1.07-0.19,1.53
		c-0.05,0.46-0.02,0.89,0.08,1.28h0.63c0.49-0.08,1-0.21,1.54-0.38c0.54-0.17,1.05-0.36,1.51-0.58l0.09-0.53l-1.7-0.25
		c0.04-0.3,0.07-0.59,0.1-0.86c0.03-0.27,0.08-0.59,0.14-0.96C273.44,87.42,273.62,86.52,273.83,85.59 M262,90.96
		c-0.51-0.27-1.03-0.47-1.56-0.61l3.13-17.77h-0.63c-0.64,0.1-1.3,0.23-1.99,0.38c-0.68,0.15-1.26,0.33-1.74,0.53l-0.12,0.66
		l1.89,0.2l-2.82,16c-0.58,0.14-1.17,0.34-1.77,0.61l-0.11,0.63h5.61L262,90.96z M254.89,90.96c-0.51-0.27-1.03-0.47-1.56-0.61
		l3.13-17.77h-0.63c-0.64,0.1-1.3,0.23-1.99,0.38c-0.68,0.15-1.26,0.33-1.74,0.53l-0.12,0.66l1.89,0.2l-2.82,16
		c-0.58,0.14-1.17,0.34-1.78,0.61l-0.11,0.63h5.61L254.89,90.96z M236.78,89.18c0.06,0.68,0.24,1.23,0.52,1.63
		c0.28,0.4,0.67,0.69,1.15,0.85c0.49,0.16,1.07,0.24,1.74,0.24c0.51,0,0.99-0.09,1.45-0.28s0.89-0.42,1.28-0.72
		c0.39-0.3,0.72-0.62,1-0.99c0.27-0.36,0.49-0.72,0.63-1.08h0.1l-0.35,3.01h0.63c0.55-0.08,1.09-0.21,1.62-0.38s1.05-0.36,1.58-0.58
		l0.09-0.53l-1.63-0.2l2.03-11.5h-0.63c-0.56,0.1-1.13,0.23-1.72,0.38c-0.59,0.15-1.17,0.33-1.72,0.53l-0.12,0.66l1.61,0.2
		l-1.23,6.95c-0.44,0.88-0.97,1.59-1.58,2.14c-0.61,0.55-1.3,0.82-2.05,0.82c-0.52,0-0.94-0.1-1.24-0.29
		c-0.3-0.19-0.52-0.47-0.65-0.82c-0.13-0.35-0.19-0.79-0.17-1.32c0.02-0.52,0.08-1.11,0.2-1.77c0.22-1.23,0.46-2.47,0.73-3.72
		c0.27-1.25,0.52-2.5,0.74-3.77h-0.63c-0.56,0.1-1.13,0.23-1.72,0.38c-0.59,0.15-1.17,0.33-1.75,0.53l-0.12,0.66l1.63,0.2
		c-0.18,1.01-0.38,2.03-0.61,3.05c-0.23,1.02-0.44,2.06-0.63,3.12C236.77,87.63,236.72,88.49,236.78,89.18 M230.71,90.17
		c-0.53,0.4-1.16,0.61-1.9,0.61c-0.22,0-0.46-0.01-0.72-0.03c-0.26-0.02-0.47-0.09-0.63-0.23l-0.63-2.75h-0.63
		c-0.28,0.52-0.53,1.07-0.74,1.63c-0.22,0.57-0.4,1.15-0.54,1.76c0.62,0.24,1.21,0.42,1.8,0.54c0.58,0.13,1.24,0.19,1.96,0.19
		c0.64,0,1.26-0.09,1.85-0.26c0.6-0.18,1.14-0.43,1.62-0.75c0.49-0.32,0.89-0.71,1.22-1.16c0.32-0.45,0.54-0.97,0.64-1.54
		c0.11-0.62,0.06-1.16-0.16-1.61c-0.22-0.45-0.52-0.84-0.92-1.17c-0.4-0.34-0.83-0.64-1.29-0.91c-0.47-0.27-0.9-0.54-1.31-0.82
		c-0.41-0.28-0.73-0.58-0.96-0.91c-0.24-0.33-0.32-0.72-0.23-1.17c0.04-0.22,0.12-0.44,0.24-0.66c0.12-0.22,0.28-0.41,0.47-0.58
		c0.19-0.17,0.41-0.31,0.65-0.42c0.25-0.11,0.52-0.16,0.83-0.16c0.27,0,0.53,0.01,0.78,0.04c0.25,0.03,0.47,0.08,0.65,0.16
		l0.51,2.58h0.63c0.27-0.57,0.5-1.13,0.69-1.68c0.19-0.55,0.37-1.09,0.53-1.63c-0.51-0.19-1.04-0.33-1.6-0.43
		c-0.56-0.1-1.3-0.15-2.21-0.15c-0.54,0-1.06,0.08-1.56,0.24c-0.5,0.16-0.95,0.38-1.36,0.66c-0.4,0.28-0.74,0.61-1.02,1
		c-0.28,0.39-0.46,0.81-0.54,1.27c-0.12,0.69-0.08,1.27,0.14,1.74c0.21,0.47,0.51,0.89,0.9,1.25c0.39,0.36,0.82,0.68,1.29,0.95
		c0.47,0.27,0.9,0.55,1.31,0.83c0.4,0.29,0.73,0.59,0.96,0.92c0.24,0.33,0.31,0.73,0.23,1.2C231.55,89.28,231.24,89.77,230.71,90.17
		 M216.3,80.72c0.29,0.64,0.34,1.5,0.15,2.58c-0.02,0.14-0.05,0.27-0.09,0.42c-0.03,0.14-0.07,0.29-0.12,0.44h-5.56
		c0.39-1.64,0.89-2.78,1.51-3.43c0.62-0.65,1.41-0.97,2.37-0.97C215.44,79.76,216.01,80.08,216.3,80.72 M217.15,89.42
		c-0.35,0.27-0.84,0.49-1.48,0.66c-0.64,0.17-1.25,0.25-1.84,0.25c-0.73,0-1.33-0.13-1.83-0.39c-0.49-0.26-0.88-0.62-1.15-1.07
		c-0.27-0.45-0.44-0.99-0.51-1.61c-0.07-0.61-0.04-1.28,0.08-1.98h7.89c0.13-0.34,0.23-0.65,0.31-0.95c0.08-0.3,0.14-0.59,0.19-0.87
		c0.16-0.91,0.16-1.67-0.01-2.29c-0.17-0.62-0.44-1.11-0.83-1.48c-0.38-0.37-0.84-0.64-1.39-0.8c-0.54-0.16-1.11-0.24-1.7-0.24
		c-1.82,0-3.33,0.57-4.52,1.69c-1.19,1.13-1.98,2.77-2.36,4.93c-0.18,1.01-0.21,1.92-0.09,2.73c0.12,0.81,0.38,1.5,0.78,2.09
		c0.4,0.58,0.96,1.03,1.66,1.34c0.7,0.31,1.55,0.47,2.55,0.47c0.45,0,0.91-0.05,1.37-0.16c0.46-0.11,0.89-0.26,1.29-0.44
		s0.77-0.4,1.1-0.66c0.33-0.25,0.59-0.52,0.77-0.81L217.15,89.42z M208.07,80.85l0.12-0.66c-0.03-0.29-0.07-0.56-0.12-0.82
		c-0.05-0.26-0.11-0.5-0.19-0.72c-0.45-0.05-0.9,0-1.35,0.14c-0.45,0.14-0.89,0.35-1.3,0.62c-0.41,0.27-0.78,0.57-1.12,0.91
		c-0.34,0.34-0.61,0.68-0.82,1.01h-0.1l0.47-2.68h-0.63c-0.54,0.08-1.11,0.2-1.7,0.34c-0.6,0.14-1.19,0.33-1.77,0.57l-0.12,0.66
		l1.63,0.2l-1.75,9.93c-0.28,0.07-0.56,0.14-0.85,0.23c-0.28,0.08-0.59,0.21-0.93,0.38l-0.11,0.63h5.96l0.11-0.63
		c-0.31-0.19-0.62-0.33-0.94-0.42c-0.32-0.09-0.65-0.16-0.98-0.19l1.32-7.51c0.33-0.61,0.65-1.07,0.99-1.38
		c0.33-0.31,0.6-0.52,0.8-0.62H208.07z M188.68,89.73c-0.3-0.4-0.39-0.96-0.26-1.68c0.07-0.42,0.21-0.8,0.4-1.13
		c0.19-0.33,0.49-0.6,0.88-0.82c0.39-0.22,0.91-0.38,1.55-0.48c0.64-0.1,1.45-0.15,2.43-0.15l-0.47,2.65
		c-0.08,0.17-0.21,0.38-0.39,0.62c-0.18,0.24-0.4,0.48-0.66,0.72c-0.26,0.24-0.57,0.44-0.92,0.61c-0.35,0.17-0.74,0.25-1.16,0.25
		C189.45,90.33,188.98,90.13,188.68,89.73 M195.87,85.59c0.21-0.94,0.4-1.91,0.58-2.92c0.08-0.47,0.12-0.94,0.12-1.42
		c0-0.47-0.1-0.9-0.3-1.29c-0.2-0.39-0.54-0.7-1.01-0.95c-0.47-0.24-1.14-0.37-1.99-0.37c-0.96,0-1.85,0.11-2.67,0.33
		c-0.82,0.22-1.59,0.52-2.3,0.91c-0.06,0.52-0.07,1.05-0.04,1.59c0.03,0.54,0.09,1.06,0.17,1.57h0.66l1.72-3.03
		c0.31-0.12,0.61-0.19,0.91-0.22c0.3-0.02,0.57-0.04,0.8-0.04c0.51,0,0.89,0.11,1.17,0.34c0.27,0.23,0.45,0.55,0.54,0.96
		c0.09,0.41,0.09,0.91,0.02,1.49c-0.08,0.58-0.21,1.23-0.41,1.96c-1.19,0.07-2.25,0.16-3.16,0.29s-1.7,0.33-2.36,0.62
		c-0.66,0.29-1.19,0.68-1.58,1.18c-0.4,0.5-0.67,1.13-0.8,1.91c-0.18,1.01,0,1.83,0.54,2.45c0.54,0.62,1.32,0.93,2.35,0.93
		c0.54,0,1.03-0.08,1.49-0.25c0.45-0.17,0.85-0.39,1.21-0.66c0.36-0.27,0.67-0.58,0.92-0.92c0.25-0.35,0.45-0.69,0.57-1.02h0.13
		c-0.08,0.56-0.15,1.07-0.19,1.53c-0.05,0.46-0.02,0.89,0.08,1.28h0.63c0.49-0.08,1-0.21,1.55-0.38c0.54-0.17,1.05-0.36,1.51-0.58
		l0.09-0.53l-1.7-0.25c0.04-0.3,0.07-0.59,0.1-0.86c0.03-0.27,0.08-0.59,0.14-0.96C195.48,87.42,195.66,86.52,195.87,85.59
		 M184.04,90.96c-0.51-0.27-1.03-0.47-1.56-0.61l3.13-17.77h-0.63c-0.64,0.1-1.3,0.23-1.99,0.38c-0.68,0.15-1.26,0.33-1.74,0.53
		l-0.12,0.66l1.89,0.2l-2.82,16c-0.58,0.14-1.17,0.34-1.78,0.61l-0.11,0.63h5.61L184.04,90.96z M175.64,75.73
		c0.25,0.26,0.62,0.39,1.11,0.39c0.49,0,0.9-0.13,1.23-0.39c0.33-0.26,0.54-0.62,0.62-1.08c0.08-0.45,0-0.82-0.24-1.09
		c-0.24-0.27-0.6-0.4-1.09-0.4c-0.49,0-0.91,0.14-1.25,0.4c-0.34,0.27-0.55,0.63-0.63,1.09C175.3,75.11,175.39,75.47,175.64,75.73
		 M176.93,90.96c-0.21-0.14-0.44-0.25-0.7-0.34c-0.25-0.09-0.54-0.18-0.86-0.26l2.06-11.7h-0.63c-0.59,0.1-1.19,0.23-1.79,0.38
		c-0.6,0.15-1.16,0.33-1.69,0.53l-0.12,0.66l1.63,0.2l-1.75,9.93c-0.34,0.08-0.65,0.17-0.93,0.26c-0.28,0.09-0.57,0.21-0.84,0.34
		l-0.11,0.63h5.61L176.93,90.96z M163.43,80.53c0.5-0.51,1.26-0.77,2.28-0.77c0.99,0,1.65,0.26,1.97,0.8
		c0.32,0.53,0.4,1.25,0.24,2.16c-0.15,0.84-0.49,1.55-1.01,2.12c-0.52,0.57-1.27,0.86-2.25,0.86c-0.52,0-0.95-0.08-1.27-0.24
		c-0.33-0.16-0.57-0.37-0.73-0.64c-0.16-0.27-0.26-0.59-0.29-0.95c-0.03-0.36-0.01-0.75,0.06-1.15
		C162.6,81.77,162.93,81.05,163.43,80.53 M166.7,94.5c-0.15,0.27-0.36,0.5-0.64,0.7c-0.28,0.19-0.63,0.35-1.07,0.47
		c-0.43,0.12-0.96,0.18-1.58,0.18c-1.21,0-2.1-0.22-2.66-0.67c-0.56-0.45-0.76-1.12-0.61-2.01c0.08-0.46,0.26-0.9,0.54-1.33
		c0.28-0.43,0.77-0.84,1.48-1.22c0.51,0.17,1.07,0.32,1.66,0.45c0.6,0.14,1.15,0.3,1.66,0.51c0.5,0.2,0.91,0.46,1.21,0.78
		c0.31,0.32,0.41,0.75,0.32,1.29C166.95,93.94,166.85,94.23,166.7,94.5 M163.68,78.95c-0.66,0.2-1.23,0.49-1.72,0.86
		c-0.49,0.37-0.88,0.8-1.19,1.3c-0.31,0.5-0.51,1.03-0.61,1.6c-0.16,0.89-0.04,1.69,0.35,2.4c0.39,0.71,1.04,1.19,1.96,1.44
		c-0.38,0.22-0.76,0.52-1.16,0.9c-0.4,0.38-0.63,0.76-0.7,1.15c-0.07,0.42-0.02,0.78,0.18,1.08c0.19,0.3,0.46,0.53,0.8,0.7
		c-0.55,0.17-1.05,0.35-1.49,0.54c-0.44,0.19-0.81,0.42-1.13,0.67c-0.31,0.25-0.57,0.55-0.77,0.88c-0.2,0.34-0.34,0.73-0.42,1.19
		c-0.17,0.94,0.16,1.73,0.99,2.35c0.82,0.62,2.16,0.94,3.99,0.94c0.88,0,1.7-0.09,2.46-0.26s1.44-0.43,2.02-0.76
		c0.58-0.33,1.06-0.74,1.44-1.23c0.38-0.49,0.62-1.04,0.71-1.64c0.11-0.71,0-1.29-0.31-1.73c-0.32-0.45-0.75-0.81-1.29-1.09
		c-0.54-0.28-1.14-0.5-1.79-0.66c-0.65-0.16-1.26-0.32-1.81-0.47c-0.56-0.15-1.01-0.32-1.36-0.52c-0.35-0.19-0.5-0.46-0.44-0.8
		c0.04-0.2,0.12-0.4,0.27-0.58s0.27-0.35,0.38-0.51c0.25,0.03,0.47,0.06,0.67,0.08c0.2,0.02,0.46,0.02,0.78,0.02
		c1.64,0,2.94-0.38,3.93-1.14c0.98-0.76,1.58-1.74,1.8-2.96c0.17-0.99,0.11-1.79-0.21-2.4h2.65l0.43-0.61
		c0.04-0.24,0.06-0.49,0.05-0.76c-0.01-0.27-0.07-0.5-0.17-0.68c-1.13,0.3-2.26,0.79-3.37,1.47c-0.36-0.37-0.83-0.64-1.42-0.82
		c-0.59-0.18-1.34-0.27-2.25-0.27C165.08,78.65,164.34,78.75,163.68,78.95 M155.74,75.73c0.25,0.26,0.62,0.39,1.11,0.39
		c0.49,0,0.9-0.13,1.23-0.39c0.33-0.26,0.54-0.62,0.62-1.08c0.08-0.45,0-0.82-0.24-1.09c-0.24-0.27-0.6-0.4-1.09-0.4
		c-0.49,0-0.91,0.14-1.25,0.4c-0.34,0.27-0.55,0.63-0.63,1.09C155.41,75.11,155.49,75.47,155.74,75.73 M157.04,90.96
		c-0.21-0.14-0.44-0.25-0.7-0.34c-0.25-0.09-0.54-0.18-0.86-0.26l2.06-11.7h-0.63c-0.59,0.1-1.19,0.23-1.79,0.38
		c-0.6,0.15-1.16,0.33-1.69,0.53l-0.12,0.66l1.63,0.2l-1.75,9.93c-0.34,0.08-0.65,0.17-0.93,0.26c-0.29,0.09-0.57,0.21-0.84,0.34
		l-0.11,0.63h5.61L157.04,90.96z M144.38,86.76l-0.87,2.07h-0.05l-0.17-2.02L141,75.26c0.4-0.08,0.79-0.18,1.16-0.29
		c0.37-0.11,0.71-0.22,1.02-0.34l0.13-0.73h-6.7l-0.13,0.73c0.28,0.12,0.57,0.23,0.88,0.34c0.3,0.11,0.61,0.21,0.93,0.29l3.51,16.63
		l1.44-0.3l8.59-16.33c0.75-0.15,1.39-0.36,1.93-0.63l0.13-0.73h-5.69l-0.13,0.73c0.32,0.12,0.64,0.23,0.98,0.34
		c0.33,0.11,0.7,0.21,1.09,0.29L144.38,86.76z"/>
</g>
</svg>
