<?xml version="1.0" encoding="utf-8"?>
<!-- Generator: Adobe Illustrator 26.3.1, SVG Export Plug-In . SVG Version: 6.00 Build 0)  -->
<svg version="1.1" id="Livello_1" xmlns="http://www.w3.org/2000/svg" xmlns:xlink="http://www.w3.org/1999/xlink" x="0px" y="0px"
	 viewBox="0 0 286.9 66.1" style="enable-background:new 0 0 286.9 66.1;" xml:space="preserve">
<style type="text/css">
	.st0{clip-path:url(#SVGID_00000105426768736584225340000013631770628072615051_);fill:#07465D;}
	.st1{clip-path:url(#SVGID_00000105426768736584225340000013631770628072615051_);fill:#21537F;}
	.st2{clip-path:url(#SVGID_00000105426768736584225340000013631770628072615051_);fill:#9B7BA6;}
</style>
<g>
	<defs>
		<rect id="SVGID_1_" x="3.1" y="1.5" width="280.1" height="63"/>
	</defs>
	<clipPath id="SVGID_00000036250750941446872010000010649179048974484902_">
		<use xlink:href="#SVGID_1_"  style="overflow:visible;"/>
	</clipPath>
	<path style="clip-path:url(#SVGID_00000036250750941446872010000010649179048974484902_);fill:#07465D;" d="M218.6,44
		c0.4,0,0.7,0.2,0.8,0.5c0.1,0.2,0.1,0.4,0.1,0.8h-2.3c0.1-0.3,0.2-0.5,0.4-0.7C217.9,44.2,218.2,44,218.6,44 M219,43.7
		c-0.7,0-1.3,0.3-1.8,0.8c-0.5,0.5-0.8,1.1-1,1.9c-0.1,0.7,0,1.3,0.2,1.8c0.3,0.5,0.8,0.8,1.4,0.8c0.6,0,1.1-0.2,1.6-0.6
		c0.5-0.4,0.8-0.8,1-1.3l-0.2-0.1c-0.3,0.4-0.6,0.6-0.9,0.8c-0.3,0.2-0.6,0.3-1,0.3c-0.5,0-0.8-0.2-1.1-0.6c-0.3-0.4-0.4-1-0.2-1.8
		h3.4c0.1-0.6,0-1.1-0.3-1.5C219.9,43.8,219.5,43.7,219,43.7 M212,48.7h2.7l0-0.2c-0.3,0-0.6,0-0.7-0.2c-0.1-0.1-0.2-0.3-0.1-0.6
		l0.4-2.4c0-0.2,0.2-0.4,0.4-0.6c0.2-0.2,0.4-0.3,0.5-0.3c0.1,0,0.2,0.1,0.3,0.2c0.1,0.1,0.2,0.2,0.4,0.2c0.1,0,0.3,0,0.4-0.2
		c0.1-0.1,0.2-0.2,0.2-0.4c0-0.2,0-0.3-0.1-0.4c-0.1-0.1-0.2-0.2-0.4-0.2c-0.2,0-0.5,0.1-0.7,0.3c-0.2,0.2-0.5,0.4-0.8,0.7l0.2-0.9
		c0-0.1,0-0.1,0-0.1c0,0,0,0,0,0c-0.2,0.1-0.4,0.2-0.6,0.2c-0.1,0-0.2,0.1-0.5,0.2s-0.5,0.1-0.7,0.2l0,0.2c0.1,0,0.1,0,0.2,0
		c0.1,0,0.1,0,0.1,0c0.2,0,0.3,0.1,0.3,0.2c0,0.2,0,0.4,0,0.8l-0.4,2.4c-0.1,0.3-0.1,0.5-0.3,0.6c-0.1,0.1-0.4,0.1-0.7,0.2L212,48.7
		z M209.8,44c0.5,0,0.9,0.3,1.1,0.8c0.2,0.5,0.2,1.1,0.1,1.8c-0.1,0.6-0.3,1.1-0.6,1.5c-0.3,0.4-0.6,0.6-1,0.6
		c-0.5,0-0.9-0.3-1.1-0.8s-0.2-1.1-0.1-1.8c0.1-0.8,0.4-1.4,0.8-1.7C209.3,44.1,209.5,44,209.8,44 M207.1,46.2
		c-0.1,0.8,0,1.4,0.4,1.9s0.9,0.8,1.6,0.8c0.7,0,1.3-0.3,1.9-0.8c0.5-0.5,0.9-1.1,1-1.9c0.1-0.8,0-1.4-0.4-1.9
		c-0.4-0.5-0.9-0.7-1.6-0.7c-0.7,0-1.3,0.2-1.9,0.7C207.6,44.9,207.3,45.5,207.1,46.2 M203.6,48.7h2.6l0-0.2c-0.3,0-0.6-0.1-0.6-0.2
		c-0.1-0.1-0.1-0.4,0-0.8l0.7-3.9c0,0,0-0.1,0-0.1c0,0-0.1,0-0.2,0.1c-0.3,0.1-0.7,0.3-1.4,0.5l-0.2,0.1l0,0.2
		c0.2,0,0.3-0.1,0.3-0.1c0,0,0.1,0,0.1,0c0.2,0,0.3,0.1,0.3,0.2c0,0.1,0,0.3,0,0.5l-0.5,2.6c-0.1,0.4-0.2,0.7-0.3,0.8
		c-0.1,0.1-0.4,0.2-0.8,0.2L203.6,48.7z M205.5,41.7c0,0.2,0,0.3,0.1,0.4c0.1,0.1,0.2,0.2,0.4,0.2c0.2,0,0.3-0.1,0.4-0.2
		s0.2-0.2,0.2-0.4c0-0.2,0-0.3-0.1-0.4c-0.1-0.1-0.2-0.2-0.4-0.2c-0.2,0-0.3,0.1-0.4,0.2C205.6,41.5,205.5,41.6,205.5,41.7
		 M197.4,48.7h3.1l0-0.2c-0.4,0-0.7-0.1-0.8-0.2c-0.1-0.1-0.1-0.4,0-0.8l0.4-2.4h1.6c0.5,0,0.8,0.1,0.9,0.2s0.2,0.4,0.2,0.8h0.3
		l0.4-2.5h-0.3c-0.2,0.4-0.3,0.7-0.5,0.8c-0.2,0.1-0.5,0.2-0.9,0.2h-1.6l0.4-2.5c0-0.1,0.1-0.2,0.1-0.3c0.1,0,0.1-0.1,0.3-0.1h1.5
		c0.6,0,1,0.1,1.2,0.2c0.2,0.1,0.3,0.5,0.3,1h0.3l0.2-1.6h-5.9l0,0.2c0.4,0,0.7,0.1,0.8,0.2c0.1,0.1,0.1,0.4,0,0.8l-0.8,4.8
		c-0.1,0.5-0.2,0.8-0.3,0.9c-0.1,0.1-0.4,0.2-0.9,0.2L197.4,48.7z M190.2,47.6c-0.1,0.3,0,0.6,0.2,0.8c0.2,0.2,0.4,0.3,0.7,0.3
		c0.3,0,0.6-0.1,1-0.3c0.2-0.1,0.5-0.3,0.8-0.5c0,0.2,0,0.4,0.1,0.6c0.1,0.2,0.2,0.2,0.5,0.2c0.2,0,0.4-0.1,0.7-0.2
		c0.1-0.1,0.3-0.2,0.4-0.3l0.1-0.3c-0.1,0.1-0.3,0.2-0.3,0.2c-0.1,0-0.1,0-0.2,0c-0.1,0-0.2-0.1-0.3-0.2c0-0.1,0-0.2,0-0.4l0.4-2.2
		c0.1-0.5,0.1-0.8,0-1.1c-0.2-0.5-0.6-0.7-1.3-0.7c-0.6,0-1.1,0.1-1.4,0.4c-0.4,0.3-0.6,0.5-0.6,0.8c0,0.1,0,0.2,0.1,0.4
		c0.1,0.1,0.2,0.2,0.3,0.2c0.1,0,0.2,0,0.3-0.1c0.1-0.1,0.2-0.2,0.3-0.4c0,0,0-0.1,0-0.2c0-0.1,0-0.2,0-0.2c0-0.2,0.1-0.3,0.3-0.4
		c0.2-0.1,0.4-0.1,0.5-0.1c0.4,0,0.6,0.1,0.7,0.4c0,0.1,0,0.4,0,0.8l-0.1,0.5c-1.1,0.4-1.8,0.7-2.1,0.9
		C190.6,46.7,190.3,47.1,190.2,47.6 M193,47.4c0,0.2-0.2,0.4-0.4,0.5s-0.5,0.2-0.7,0.2c-0.2,0-0.3,0-0.4-0.1
		c-0.2-0.2-0.3-0.4-0.2-0.7c0.1-0.4,0.4-0.8,1-1.1c0.3-0.2,0.7-0.3,1.1-0.5L193,47.4z M184.3,48.7h2.4l0-0.2c-0.2,0-0.4-0.1-0.5-0.1
		c-0.1-0.1-0.1-0.3-0.1-0.5l0.5-3c0.2-0.2,0.4-0.3,0.5-0.4c0.2-0.1,0.5-0.2,0.7-0.2c0.3,0,0.5,0.1,0.6,0.3c0.1,0.2,0.1,0.5,0,0.8
		l-0.4,2.3c-0.1,0.4-0.2,0.6-0.3,0.7c-0.1,0.1-0.3,0.2-0.6,0.2l0,0.2h2.3l0-0.2c-0.2,0-0.4-0.1-0.5-0.2c-0.1-0.1-0.1-0.3-0.1-0.6
		l0.4-2.5c0.1-0.7,0-1.2-0.3-1.5c-0.2-0.1-0.4-0.2-0.6-0.2c-0.3,0-0.6,0.1-0.9,0.3c-0.2,0.1-0.5,0.3-0.9,0.6l0.1-0.8
		c0,0,0-0.1,0-0.1c0,0,0,0,0,0l-0.5,0.2c-0.6,0.2-0.9,0.3-1.1,0.3l0,0.2c0.1,0,0.1,0,0.1,0c0,0,0.1,0,0.1,0c0.2,0,0.3,0.1,0.4,0.2
		c0,0.1,0,0.3,0,0.5l-0.5,2.7c-0.1,0.3-0.1,0.5-0.3,0.6c-0.1,0.1-0.3,0.2-0.6,0.2L184.3,48.7z M182.2,44c0.4,0,0.7,0.2,0.8,0.5
		c0.1,0.2,0.1,0.4,0.1,0.8h-2.3c0.1-0.3,0.2-0.5,0.4-0.7C181.4,44.2,181.8,44,182.2,44 M182.6,43.7c-0.7,0-1.3,0.3-1.8,0.8
		c-0.5,0.5-0.8,1.1-1,1.9c-0.1,0.7,0,1.3,0.2,1.8c0.3,0.5,0.8,0.8,1.4,0.8c0.6,0,1.1-0.2,1.6-0.6s0.8-0.8,1.1-1.3l-0.2-0.1
		c-0.3,0.4-0.6,0.6-0.9,0.8c-0.3,0.2-0.6,0.3-1,0.3c-0.5,0-0.8-0.2-1.1-0.6c-0.3-0.4-0.4-1-0.2-1.8h3.4c0.1-0.6,0-1.1-0.3-1.5
		C183.5,43.8,183.1,43.7,182.6,43.7 M176.3,48.7h2.6l0-0.2c-0.3,0-0.5-0.1-0.6-0.2c-0.1-0.1-0.1-0.3-0.1-0.6l1.1-6.5
		c0-0.1,0-0.1,0-0.1c0,0,0,0,0,0c-0.7,0.2-1.3,0.4-1.8,0.5l0,0.2c0.1,0,0.2,0,0.2,0c0.1,0,0.1,0,0.2,0c0.2,0,0.4,0.1,0.4,0.2
		c0,0.1,0,0.3,0,0.5l-0.9,5.3c-0.1,0.3-0.1,0.5-0.3,0.6c-0.1,0.1-0.4,0.2-0.7,0.2L176.3,48.7z M169.5,48.7h6l0.8-1.9H176
		c-0.4,0.6-0.8,1-1.2,1.2c-0.4,0.2-1,0.2-1.7,0.2c-0.7,0-1.1,0-1.2-0.1c-0.1,0-0.2-0.2-0.1-0.4l0.5-2.7h1.7c0.5,0,0.8,0.1,0.9,0.2
		c0.1,0.1,0.2,0.4,0.2,0.8h0.3l0.4-2.5h-0.3c-0.2,0.4-0.3,0.7-0.5,0.8c-0.2,0.1-0.5,0.2-0.9,0.2h-1.7l0.4-2.5c0-0.1,0.1-0.2,0.1-0.3
		c0-0.1,0.2-0.1,0.3-0.1h1.5c0.6,0,1.1,0.1,1.2,0.2c0.2,0.1,0.2,0.5,0.3,0.9h0.3l0.2-1.6h-5.9l0,0.2c0.4,0,0.7,0.1,0.8,0.2
		c0.1,0.1,0.1,0.4,0,0.8l-0.9,4.9c-0.1,0.4-0.2,0.7-0.3,0.8c-0.1,0.1-0.4,0.2-0.8,0.2L169.5,48.7z M163.2,44c0.4,0,0.7,0.2,0.9,0.5
		c0.1,0.2,0.2,0.4,0.2,0.8H162c0.1-0.3,0.1-0.5,0.2-0.7C162.4,44.2,162.8,44,163.2,44 M163.5,43.7c-0.7,0-1.2,0.3-1.7,0.8
		c-0.4,0.5-0.6,1.1-0.6,1.9c0,0.7,0.2,1.3,0.6,1.8c0.4,0.5,0.9,0.8,1.6,0.8c0.6,0,1.1-0.2,1.5-0.6c0.4-0.4,0.7-0.8,0.8-1.3l-0.2-0.1
		c-0.2,0.4-0.5,0.6-0.7,0.8c-0.3,0.2-0.6,0.3-1,0.3c-0.5,0-0.9-0.2-1.2-0.6c-0.3-0.4-0.5-1-0.6-1.8h3.4c0-0.6-0.2-1.1-0.6-1.5
		C164.4,43.8,164,43.7,163.5,43.7 M157.3,48.7h2.7v-0.2c-0.3,0-0.6,0-0.7-0.2c-0.1-0.1-0.2-0.3-0.2-0.6v-2.4c0-0.2,0.1-0.4,0.3-0.6
		s0.3-0.3,0.5-0.3c0.1,0,0.2,0.1,0.3,0.2c0.1,0.1,0.3,0.2,0.4,0.2c0.1,0,0.2,0,0.3-0.2c0.1-0.1,0.1-0.2,0.1-0.4
		c0-0.2-0.1-0.3-0.2-0.4c-0.1-0.1-0.3-0.2-0.4-0.2c-0.2,0-0.5,0.1-0.7,0.3c-0.2,0.2-0.4,0.4-0.7,0.7v-0.9c0-0.1,0-0.1,0-0.1
		c0,0,0,0,0,0c-0.2,0.1-0.4,0.2-0.6,0.2c-0.1,0-0.2,0.1-0.4,0.2c-0.2,0.1-0.4,0.1-0.6,0.2v0.2c0.1,0,0.1,0,0.2,0c0.1,0,0.1,0,0.1,0
		c0.2,0,0.3,0.1,0.4,0.2c0.1,0.2,0.1,0.4,0.1,0.8v2.4c0,0.3-0.1,0.5-0.2,0.6c-0.1,0.1-0.3,0.1-0.7,0.2V48.7z M154.3,44
		c0.5,0,0.9,0.3,1.2,0.8c0.3,0.5,0.4,1.1,0.4,1.8c0,0.6-0.1,1.1-0.3,1.5c-0.2,0.4-0.5,0.6-0.9,0.6c-0.5,0-0.9-0.3-1.2-0.8
		c-0.3-0.6-0.4-1.1-0.4-1.8c0-0.8,0.2-1.4,0.5-1.7C153.8,44.1,154,44,154.3,44 M152,46.2c0,0.8,0.2,1.4,0.7,1.9
		c0.5,0.5,1.1,0.8,1.7,0.8c0.7,0,1.3-0.3,1.8-0.8c0.5-0.5,0.7-1.1,0.7-1.9c0-0.8-0.2-1.4-0.7-1.9c-0.5-0.5-1.1-0.7-1.8-0.7
		c-0.7,0-1.3,0.2-1.8,0.7C152.3,44.9,152,45.5,152,46.2 M150.4,43.7v-1.3c0,0,0-0.1,0-0.1s0,0-0.1,0c-0.4,0.5-0.7,0.9-0.8,1
		c-0.1,0.1-0.3,0.3-0.5,0.5c-0.1,0.1-0.1,0.1-0.2,0.1c0,0,0,0,0,0.1c0,0,0,0,0,0c0,0,0,0,0,0h0.6v3.3c0,0.4,0,0.6,0.1,0.9
		c0.2,0.4,0.4,0.6,0.9,0.6c0.2,0,0.4-0.1,0.6-0.2c0.2-0.1,0.4-0.3,0.6-0.5l0.1-0.2l-0.1-0.1c-0.1,0.1-0.2,0.2-0.3,0.3
		c-0.1,0.1-0.2,0.1-0.3,0.1c-0.3,0-0.4-0.1-0.5-0.4c0-0.1-0.1-0.3-0.1-0.6l0-3.1h1.1v-0.4H150.4z M147.4,43.7v-1.3c0,0,0-0.1,0-0.1
		s0,0-0.1,0c-0.4,0.5-0.7,0.9-0.8,1c-0.1,0.1-0.3,0.3-0.5,0.5c-0.1,0.1-0.1,0.1-0.2,0.1s0,0,0,0.1c0,0,0,0,0,0c0,0,0,0,0,0h0.6v3.3
		c0,0.4,0,0.6,0.1,0.9c0.2,0.4,0.4,0.6,0.9,0.6c0.2,0,0.4-0.1,0.6-0.2c0.2-0.1,0.4-0.3,0.6-0.5l0.1-0.2l-0.1-0.1
		c-0.1,0.1-0.2,0.2-0.3,0.3c-0.1,0.1-0.2,0.1-0.3,0.1c-0.3,0-0.4-0.1-0.5-0.4c0-0.1-0.1-0.3-0.1-0.6l0-3.1h1.1v-0.4H147.4z M143,44
		c0.4,0,0.7,0.2,0.9,0.5c0.1,0.2,0.2,0.4,0.2,0.8h-2.3c0.1-0.3,0.1-0.5,0.2-0.7C142.2,44.2,142.5,44,143,44 M143.3,43.7
		c-0.7,0-1.2,0.3-1.7,0.8c-0.4,0.5-0.6,1.1-0.6,1.9c0,0.7,0.2,1.3,0.6,1.8c0.4,0.5,0.9,0.8,1.6,0.8c0.6,0,1.1-0.2,1.5-0.6
		c0.4-0.4,0.7-0.8,0.8-1.3l-0.2-0.1c-0.2,0.4-0.5,0.6-0.7,0.8c-0.3,0.2-0.6,0.3-1,0.3c-0.5,0-0.9-0.2-1.2-0.6
		c-0.3-0.4-0.5-1-0.6-1.8h3.4c0-0.6-0.2-1.1-0.6-1.5C144.2,43.8,143.8,43.7,143.3,43.7 M137.1,48.7h2.7v-0.2c-0.3,0-0.6,0-0.7-0.2
		c-0.1-0.1-0.2-0.3-0.2-0.6v-2.4c0-0.2,0.1-0.4,0.3-0.6s0.3-0.3,0.5-0.3c0.1,0,0.2,0.1,0.3,0.2c0.1,0.1,0.3,0.2,0.4,0.2
		c0.1,0,0.2,0,0.3-0.2c0.1-0.1,0.1-0.2,0.1-0.4c0-0.2-0.1-0.3-0.2-0.4c-0.1-0.1-0.3-0.2-0.4-0.2c-0.2,0-0.5,0.1-0.7,0.3
		c-0.2,0.2-0.4,0.4-0.7,0.7v-0.9c0-0.1,0-0.1,0-0.1c0,0,0,0,0,0c-0.2,0.1-0.4,0.2-0.6,0.2c-0.1,0-0.2,0.1-0.4,0.2
		c-0.2,0.1-0.4,0.1-0.6,0.2v0.2c0.1,0,0.1,0,0.2,0c0.1,0,0.1,0,0.1,0c0.2,0,0.3,0.1,0.4,0.2c0.1,0.2,0.1,0.4,0.1,0.8v2.4
		c0,0.3-0.1,0.5-0.2,0.6c-0.1,0.1-0.3,0.1-0.7,0.2V48.7z M134.2,48.7h2.6v-0.2c-0.3,0-0.6-0.1-0.7-0.2c-0.1-0.1-0.1-0.4-0.1-0.8
		v-3.9c0,0,0-0.1,0-0.1c0,0-0.1,0-0.2,0.1c-0.2,0.1-0.7,0.3-1.3,0.5l-0.2,0.1v0.2c0.2,0,0.3-0.1,0.3-0.1c0,0,0.1,0,0.1,0
		c0.2,0,0.3,0.1,0.3,0.2c0,0.1,0,0.3,0,0.5v2.6c0,0.4,0,0.7-0.2,0.8c-0.1,0.1-0.3,0.2-0.7,0.2V48.7z M134.9,41.7
		c0,0.2,0.1,0.3,0.2,0.4c0.1,0.1,0.2,0.2,0.4,0.2c0.2,0,0.3-0.1,0.4-0.2c0.1-0.1,0.2-0.2,0.2-0.4c0-0.2-0.1-0.3-0.2-0.4
		c-0.1-0.1-0.2-0.2-0.4-0.2c-0.2,0-0.3,0.1-0.4,0.2C135,41.5,134.9,41.6,134.9,41.7 M126.2,48.7h3.1c0.8,0,1.5-0.1,2.1-0.3
		c0.3-0.1,0.6-0.3,0.9-0.5c0.5-0.3,0.8-0.8,1-1.3c0.2-0.5,0.3-1,0.3-1.6c0-1.5-0.6-2.6-1.9-3.2c-0.7-0.3-1.5-0.5-2.5-0.5h-3v0.2
		c0.4,0,0.7,0.1,0.8,0.2c0.1,0.1,0.2,0.4,0.2,0.8v4.9c0,0.4-0.1,0.7-0.2,0.8c-0.1,0.1-0.4,0.2-0.8,0.2V48.7z M128.3,47.8v-5.6
		c0-0.2,0-0.3,0.1-0.4s0.3-0.1,0.5-0.1c1,0,1.8,0.2,2.4,0.7c0.7,0.6,1.1,1.4,1.1,2.6c0,1.3-0.4,2.2-1.3,2.7
		c-0.6,0.3-1.3,0.5-2.1,0.5c-0.3,0-0.5,0-0.5-0.1C128.4,48.1,128.3,48,128.3,47.8"/>
	<path style="clip-path:url(#SVGID_00000036250750941446872010000010649179048974484902_);fill:#21537F;" d="M274.8,27
		c0.1-0.6,0.2-1.1,0.4-1.4c0.2-0.4,0.4-0.6,0.7-0.8c0.3-0.2,0.6-0.2,1-0.2c0.5,0,1,0.1,1.3,0.3c0.3,0.2,0.6,0.5,0.8,0.9
		c0.2,0.4,0.3,0.9,0.4,1.4c0.1,0.6,0.1,1.2,0.1,1.9c0,0.8,0,1.6-0.1,2.1s-0.2,1.1-0.4,1.4c-0.2,0.4-0.4,0.6-0.7,0.8
		c-0.3,0.2-0.6,0.2-0.9,0.2c-0.6,0-1-0.1-1.4-0.3c-0.4-0.2-0.7-0.5-0.9-0.9c-0.2-0.4-0.4-0.9-0.4-1.4c-0.1-0.6-0.1-1.2-0.1-1.9
		C274.7,28.3,274.7,27.6,274.8,27 M271.5,31.6c0.2,0.7,0.6,1.4,1.1,1.9c0.5,0.5,1.1,0.9,1.9,1.2c0.8,0.3,1.7,0.4,2.7,0.4
		c0.9,0,1.8-0.1,2.5-0.4c0.8-0.3,1.4-0.7,1.9-1.2c0.5-0.5,0.9-1.1,1.2-1.9c0.3-0.7,0.4-1.6,0.4-2.5c0-0.9-0.1-1.7-0.3-2.4
		c-0.2-0.7-0.6-1.4-1.1-1.9c-0.5-0.5-1.1-0.9-1.9-1.2c-0.8-0.3-1.7-0.4-2.7-0.4c-0.9,0-1.8,0.1-2.5,0.4c-0.7,0.3-1.4,0.7-1.9,1.2
		c-0.5,0.5-0.9,1.1-1.2,1.9c-0.3,0.7-0.4,1.6-0.4,2.5C271.2,30.1,271.3,30.9,271.5,31.6 M264.7,21c0.4,0.3,0.8,0.5,1.4,0.5
		c0.6,0,1-0.2,1.4-0.5c0.4-0.3,0.5-0.7,0.5-1.2c0-0.5-0.2-0.9-0.5-1.3c-0.4-0.3-0.8-0.5-1.4-0.5c-0.6,0-1,0.2-1.4,0.5
		c-0.4,0.3-0.5,0.7-0.5,1.3C264.2,20.3,264.4,20.7,264.7,21 M269.3,34c-0.2-0.1-0.4-0.2-0.7-0.3c-0.2-0.1-0.5-0.2-0.8-0.2V23.2H267
		c-0.3,0-0.6,0.1-1,0.1c-0.4,0.1-0.7,0.1-1.1,0.2c-0.4,0.1-0.7,0.1-1.1,0.2c-0.3,0.1-0.6,0.2-0.9,0.3v0.9l1.5,0.2v8.4
		c-0.3,0.1-0.6,0.2-0.8,0.2c-0.2,0.1-0.5,0.2-0.7,0.3v0.9h6.3V34z M260.8,32.6c-0.3,0.2-0.6,0.4-1,0.5c-0.4,0.2-0.9,0.2-1.4,0.2
		c-0.6,0-1.1-0.1-1.5-0.3c-0.4-0.2-0.8-0.5-1.1-0.9c-0.3-0.4-0.5-0.8-0.6-1.4c-0.1-0.5-0.2-1.1-0.2-1.7c0-0.8,0-1.6,0.1-2.1
		s0.2-1,0.5-1.4c0.2-0.3,0.5-0.6,0.7-0.7c0.3-0.1,0.6-0.2,1-0.2c0.2,0,0.4,0,0.5,0.1c0.1,0,0.2,0.1,0.3,0.2l1,2.7h1.1
		c0.1-0.2,0.2-0.4,0.3-0.7c0.1-0.3,0.2-0.6,0.2-0.9c0.1-0.3,0.1-0.6,0.2-0.9s0.1-0.6,0.1-0.9c-0.4-0.2-0.9-0.4-1.5-0.6
		c-0.6-0.2-1.3-0.2-2-0.2c-1.9,0-3.4,0.5-4.5,1.5c-1.1,1-1.6,2.5-1.6,4.4c0,0.9,0.1,1.7,0.3,2.4c0.2,0.7,0.6,1.4,1,1.9
		c0.5,0.5,1.1,0.9,1.8,1.2c0.7,0.3,1.6,0.4,2.6,0.4c0.5,0,0.9-0.1,1.4-0.2c0.4-0.1,0.8-0.3,1.2-0.5c0.3-0.2,0.6-0.4,0.9-0.7
		c0.2-0.2,0.4-0.5,0.5-0.8L260.8,32.6z M250.1,26.1v-0.9c-0.1-0.3-0.2-0.7-0.3-1.1c-0.1-0.4-0.3-0.7-0.4-0.9c-0.4,0-0.8,0.1-1.2,0.2
		c-0.4,0.2-0.7,0.4-1,0.7c-0.3,0.3-0.6,0.6-0.8,1c-0.2,0.4-0.4,0.7-0.5,1h-0.1v-3h-0.8c-0.2,0-0.5,0.1-0.9,0.1
		c-0.4,0-0.7,0.1-1.1,0.2c-0.4,0.1-0.7,0.1-1.1,0.2c-0.4,0.1-0.7,0.2-0.9,0.3v0.9l1.5,0.2v8.4c-0.2,0.1-0.5,0.1-0.7,0.2
		c-0.2,0.1-0.5,0.2-0.8,0.3v0.9h6.6V34c-0.3-0.2-0.6-0.3-0.9-0.4c-0.3-0.1-0.6-0.1-0.9-0.2v-5.8c0.2-0.5,0.4-0.8,0.7-1
		c0.2-0.2,0.5-0.4,0.6-0.5H250.1z M235.3,25.5c0.2,0.6,0.3,1.5,0.2,2.7h-3.6c0-0.7,0.1-1.3,0.2-1.8c0.1-0.5,0.2-0.9,0.4-1.1
		c0.2-0.3,0.4-0.5,0.6-0.6c0.2-0.1,0.5-0.2,0.8-0.2C234.6,24.5,235.1,24.8,235.3,25.5 M238.2,32.5c-0.3,0.2-0.7,0.4-1.3,0.6
		c-0.5,0.2-1.1,0.2-1.6,0.2c-1.2,0-2.1-0.4-2.6-1.1c-0.6-0.7-0.9-1.7-0.9-2.9h7c0.2-1.1,0.2-2.1,0-2.9c-0.2-0.8-0.5-1.4-0.9-1.9
		c-0.4-0.5-1-0.8-1.7-1c-0.7-0.2-1.4-0.3-2.2-0.3c-1.8,0-3.2,0.5-4.2,1.5c-1,1-1.5,2.5-1.5,4.4c0,0.9,0.1,1.7,0.4,2.5
		c0.2,0.7,0.6,1.4,1.1,1.9c0.5,0.5,1.1,0.9,1.8,1.2c0.7,0.3,1.6,0.4,2.5,0.4c0.6,0,1.1-0.1,1.6-0.2c0.5-0.1,1-0.3,1.3-0.5
		c0.4-0.2,0.7-0.4,1-0.7c0.3-0.3,0.5-0.5,0.6-0.8L238.2,32.5z M219.5,34c-0.2-0.1-0.4-0.2-0.6-0.3c-0.2-0.1-0.4-0.2-0.7-0.3v-6.2
		c0.2-0.7,0.4-1.2,0.7-1.6c0.3-0.4,0.7-0.6,1.3-0.6c0.7,0,1.2,0.3,1.4,0.8c0.2,0.6,0.3,1.4,0.3,2.6v4.9c-0.4,0.1-0.8,0.3-1.1,0.5
		v0.9h5.9V34c-0.5-0.3-1-0.5-1.5-0.5v-5.4c0-1-0.1-1.7-0.2-2.4c-0.2-0.6-0.4-1.1-0.7-1.5c-0.3-0.4-0.7-0.6-1.1-0.8
		c-0.4-0.1-0.9-0.2-1.5-0.2c-0.9,0-1.7,0.3-2.3,0.8c-0.6,0.5-1.1,1.2-1.4,2c-0.1-0.6-0.2-1-0.5-1.4c-0.2-0.4-0.5-0.6-0.8-0.9
		c-0.3-0.2-0.6-0.3-1-0.4s-0.7-0.1-1.1-0.1c-0.9,0-1.6,0.2-2.2,0.8c-0.6,0.5-1,1.1-1.3,1.8h0v-2.6h-0.8c-0.2,0-0.5,0.1-0.9,0.1
		c-0.4,0-0.7,0.1-1.1,0.2c-0.4,0.1-0.7,0.1-1.1,0.2c-0.4,0.1-0.7,0.2-0.9,0.3v0.9l1.5,0.2v8.4c-0.3,0.1-0.5,0.2-0.8,0.3
		c-0.3,0.1-0.5,0.2-0.7,0.3v0.9h5.9V34c-0.3-0.2-0.7-0.4-1.1-0.5v-6.4c0.2-0.6,0.4-1.1,0.8-1.5c0.4-0.4,0.8-0.6,1.3-0.6
		c0.3,0,0.6,0.1,0.8,0.2c0.2,0.1,0.4,0.4,0.5,0.7c0.1,0.3,0.2,0.7,0.2,1.2c0,0.5,0.1,1.1,0.1,1.8v4.5c-0.2,0.1-0.4,0.2-0.6,0.3
		c-0.2,0.1-0.4,0.2-0.5,0.3v0.9h5.7V34z M198,34c-0.2-0.1-0.4-0.2-0.6-0.3c-0.2-0.1-0.4-0.2-0.7-0.3v-6.2c0.2-0.7,0.4-1.2,0.7-1.6
		c0.3-0.4,0.7-0.6,1.3-0.6c0.7,0,1.2,0.3,1.4,0.8c0.2,0.6,0.3,1.4,0.3,2.6v4.9c-0.4,0.1-0.8,0.3-1.1,0.5v0.9h5.9V34
		c-0.5-0.3-1-0.5-1.5-0.5v-5.4c0-1-0.1-1.7-0.2-2.4c-0.2-0.6-0.4-1.1-0.7-1.5c-0.3-0.4-0.7-0.6-1.1-0.8c-0.4-0.1-0.9-0.2-1.5-0.2
		c-0.9,0-1.7,0.3-2.3,0.8c-0.6,0.5-1.1,1.2-1.4,2c-0.1-0.6-0.2-1-0.5-1.4c-0.2-0.4-0.5-0.6-0.8-0.9c-0.3-0.2-0.6-0.3-1-0.4
		s-0.7-0.1-1.1-0.1c-0.9,0-1.6,0.2-2.2,0.8c-0.6,0.5-1,1.1-1.3,1.8h0v-2.6H189c-0.2,0-0.5,0.1-0.9,0.1c-0.4,0-0.7,0.1-1.1,0.2
		c-0.4,0.1-0.7,0.1-1.1,0.2c-0.4,0.1-0.7,0.2-0.9,0.3v0.9l1.5,0.2v8.4c-0.3,0.1-0.5,0.2-0.8,0.3c-0.3,0.1-0.5,0.2-0.7,0.3v0.9h5.9
		V34c-0.3-0.2-0.7-0.4-1.1-0.5v-6.4c0.2-0.6,0.4-1.1,0.8-1.5c0.4-0.4,0.8-0.6,1.3-0.6c0.3,0,0.6,0.1,0.8,0.2
		c0.2,0.1,0.4,0.4,0.5,0.7c0.1,0.3,0.2,0.7,0.2,1.2c0,0.5,0.1,1.1,0.1,1.8v4.5c-0.2,0.1-0.4,0.2-0.6,0.3c-0.2,0.1-0.4,0.2-0.5,0.3
		v0.9h5.7V34z M174.7,27c0.1-0.6,0.2-1.1,0.4-1.4c0.2-0.4,0.4-0.6,0.7-0.8c0.3-0.2,0.6-0.2,1-0.2c0.5,0,1,0.1,1.3,0.3
		c0.3,0.2,0.6,0.5,0.8,0.9c0.2,0.4,0.3,0.9,0.4,1.4c0.1,0.6,0.1,1.2,0.1,1.9c0,0.8,0,1.6-0.1,2.1c-0.1,0.6-0.2,1.1-0.4,1.4
		s-0.4,0.6-0.7,0.8c-0.3,0.2-0.6,0.2-0.9,0.2c-0.6,0-1-0.1-1.4-0.3c-0.4-0.2-0.7-0.5-0.9-0.9c-0.2-0.4-0.4-0.9-0.4-1.4
		c-0.1-0.6-0.1-1.2-0.1-1.9C174.6,28.3,174.6,27.6,174.7,27 M171.4,31.6c0.2,0.7,0.6,1.4,1.1,1.9c0.5,0.5,1.1,0.9,1.9,1.2
		c0.8,0.3,1.7,0.4,2.7,0.4c0.9,0,1.8-0.1,2.5-0.4c0.8-0.3,1.4-0.7,1.9-1.2c0.5-0.5,0.9-1.1,1.2-1.9c0.3-0.7,0.4-1.6,0.4-2.5
		c0-0.9-0.1-1.7-0.3-2.4c-0.2-0.7-0.6-1.4-1.1-1.9c-0.5-0.5-1.1-0.9-1.9-1.2c-0.8-0.3-1.7-0.4-2.7-0.4c-0.9,0-1.8,0.1-2.5,0.4
		c-0.7,0.3-1.4,0.7-1.9,1.2c-0.5,0.5-0.9,1.1-1.2,1.9c-0.3,0.7-0.4,1.6-0.4,2.5C171.1,30.1,171.2,30.9,171.4,31.6 M166.1,33.3
		c-0.1,0.1-0.3,0.2-0.6,0.3c-0.3,0.1-0.7,0.1-1.1,0.1c-1.5,0-2.7-0.6-3.5-1.8c-0.9-1.2-1.3-2.8-1.3-5c0-1.2,0.1-2.2,0.4-3.1
		c0.2-0.9,0.6-1.6,1-2.1c0.4-0.5,0.9-0.9,1.5-1.2c0.5-0.2,1.1-0.4,1.8-0.4c0.3,0,0.6,0,0.9,0.1c0.3,0,0.5,0.1,0.7,0.2l1.2,3.4h1
		c0.1-0.3,0.1-0.6,0.2-1c0.1-0.4,0.1-0.8,0.2-1.2c0.1-0.4,0.1-0.8,0.1-1.2c0-0.4,0-0.7,0-0.9c-0.5-0.2-1.2-0.4-2-0.6
		c-0.8-0.1-1.7-0.2-2.7-0.2c-1.1,0-2.1,0.2-3,0.5c-1,0.3-1.8,0.8-2.5,1.5c-0.7,0.7-1.3,1.5-1.7,2.6c-0.4,1-0.6,2.3-0.6,3.7
		c0,1.5,0.2,2.7,0.6,3.7c0.4,1,1,1.9,1.7,2.6c0.7,0.7,1.6,1.2,2.6,1.5c1,0.3,2.2,0.5,3.4,0.5c0.8,0,1.6-0.1,2.4-0.2
		c0.8-0.1,1.5-0.4,2-0.7c0-0.3,0-0.6,0-1c0-0.4,0-0.8-0.1-1.1c0-0.4-0.1-0.7-0.1-1.1c-0.1-0.3-0.1-0.6-0.2-0.9h-0.9L166.1,33.3z
		 M138.6,27c0.1-0.6,0.2-1.1,0.4-1.4c0.2-0.4,0.4-0.6,0.7-0.8c0.3-0.2,0.6-0.2,1-0.2c0.5,0,1,0.1,1.3,0.3c0.3,0.2,0.6,0.5,0.8,0.9
		c0.2,0.4,0.3,0.9,0.4,1.4c0.1,0.6,0.1,1.2,0.1,1.9c0,0.8-0.1,1.6-0.1,2.1c-0.1,0.6-0.2,1.1-0.4,1.4c-0.2,0.4-0.4,0.6-0.7,0.8
		c-0.3,0.2-0.6,0.2-0.9,0.2c-0.6,0-1-0.1-1.4-0.3c-0.4-0.2-0.7-0.5-0.9-0.9c-0.2-0.4-0.4-0.9-0.4-1.4c-0.1-0.6-0.1-1.2-0.1-1.9
		C138.4,28.3,138.5,27.6,138.6,27 M135.3,31.6c0.2,0.7,0.6,1.4,1.1,1.9c0.5,0.5,1.1,0.9,1.9,1.2c0.8,0.3,1.7,0.4,2.7,0.4
		c0.9,0,1.8-0.1,2.5-0.4c0.8-0.3,1.4-0.7,1.9-1.2c0.5-0.5,0.9-1.1,1.2-1.9c0.3-0.7,0.4-1.6,0.4-2.5c0-0.9-0.1-1.7-0.3-2.4
		c-0.2-0.7-0.6-1.4-1.1-1.9c-0.5-0.5-1.1-0.9-1.9-1.2c-0.8-0.3-1.7-0.4-2.7-0.4c-0.9,0-1.8,0.1-2.5,0.4c-0.7,0.3-1.4,0.7-1.9,1.2
		c-0.5,0.5-0.9,1.1-1.2,1.9c-0.3,0.7-0.4,1.6-0.4,2.5C134.9,30.1,135,30.9,135.3,31.6 M128.5,21c0.4,0.3,0.8,0.5,1.4,0.5
		c0.6,0,1-0.2,1.4-0.5c0.4-0.3,0.5-0.7,0.5-1.2c0-0.5-0.2-0.9-0.5-1.3c-0.4-0.3-0.8-0.5-1.4-0.5c-0.6,0-1,0.2-1.4,0.5
		c-0.4,0.3-0.5,0.7-0.5,1.3C127.9,20.3,128.1,20.7,128.5,21 M133.1,34c-0.2-0.1-0.4-0.2-0.7-0.3c-0.2-0.1-0.5-0.2-0.8-0.2V23.2h-0.8
		c-0.3,0-0.6,0.1-1,0.1c-0.4,0.1-0.7,0.1-1.1,0.2c-0.4,0.1-0.7,0.1-1.1,0.2c-0.3,0.1-0.6,0.2-0.9,0.3v0.9l1.5,0.2v8.4
		c-0.3,0.1-0.6,0.2-0.8,0.2c-0.2,0.1-0.5,0.2-0.7,0.3v0.9h6.3V34z M124.5,32.6c-0.3,0.2-0.6,0.4-1,0.5c-0.4,0.2-0.9,0.2-1.4,0.2
		c-0.6,0-1.1-0.1-1.5-0.3c-0.4-0.2-0.8-0.5-1.1-0.9c-0.3-0.4-0.5-0.8-0.6-1.4c-0.1-0.5-0.2-1.1-0.2-1.7c0-0.8,0-1.6,0.1-2.1
		c0.1-0.6,0.2-1,0.5-1.4c0.2-0.3,0.4-0.6,0.7-0.7c0.3-0.1,0.6-0.2,1-0.2c0.2,0,0.4,0,0.5,0.1c0.1,0,0.2,0.1,0.3,0.2l1,2.7h1.1
		c0.1-0.2,0.2-0.4,0.3-0.7c0.1-0.3,0.2-0.6,0.2-0.9c0.1-0.3,0.1-0.6,0.2-0.9s0.1-0.6,0.1-0.9c-0.4-0.2-0.9-0.4-1.5-0.6
		c-0.6-0.2-1.3-0.2-2-0.2c-1.9,0-3.4,0.5-4.5,1.5c-1.1,1-1.6,2.5-1.6,4.4c0,0.9,0.1,1.7,0.3,2.4c0.2,0.7,0.6,1.4,1,1.9
		c0.5,0.5,1.1,0.9,1.8,1.2c0.7,0.3,1.6,0.4,2.6,0.4c0.5,0,0.9-0.1,1.4-0.2c0.4-0.1,0.8-0.3,1.2-0.5c0.3-0.2,0.6-0.4,0.9-0.7
		c0.2-0.2,0.4-0.5,0.5-0.8L124.5,32.6z M108.8,21c0.4,0.3,0.8,0.5,1.4,0.5c0.6,0,1-0.2,1.4-0.5c0.4-0.3,0.5-0.7,0.5-1.2
		c0-0.5-0.2-0.9-0.5-1.3s-0.8-0.5-1.4-0.5c-0.6,0-1,0.2-1.4,0.5c-0.4,0.3-0.5,0.7-0.5,1.3C108.2,20.3,108.4,20.7,108.8,21 M113.4,34
		c-0.2-0.1-0.4-0.2-0.7-0.3c-0.2-0.1-0.5-0.2-0.8-0.2V23.2h-0.8c-0.3,0-0.6,0.1-1,0.1c-0.4,0.1-0.7,0.1-1.1,0.2
		c-0.4,0.1-0.7,0.1-1.1,0.2c-0.3,0.1-0.6,0.2-0.9,0.3v0.9l1.5,0.2v8.4c-0.3,0.1-0.6,0.2-0.8,0.2c-0.2,0.1-0.5,0.2-0.7,0.3v0.9h6.3
		V34z M102.7,18c-0.6,0.1-1.1,0.4-1.6,0.7c-0.5,0.4-0.8,0.8-1.1,1.5c-0.3,0.6-0.4,1.4-0.4,2.3v0.8c-0.6,0.2-1.2,0.4-1.7,0.8V25h1.7
		v8.5c-0.5,0.1-1,0.3-1.5,0.5v0.9h7V34c-0.7-0.3-1.4-0.5-2.2-0.5V25h2.4v-1.5h-2.4v-1.1c0-0.7,0-1.3,0.1-1.7c0.1-0.4,0.2-0.8,0.4-1
		c0.2-0.2,0.4-0.4,0.6-0.5c0.3-0.1,0.6-0.1,1-0.1l1,2.2h0.8c0.1-0.3,0.3-0.8,0.4-1.3c0.2-0.5,0.2-1,0.3-1.5
		c-0.3-0.1-0.6-0.2-1.1-0.3c-0.5-0.1-1.1-0.2-1.7-0.2C104,17.8,103.3,17.8,102.7,18 M93.7,18c-0.6,0.1-1.1,0.4-1.6,0.7
		c-0.5,0.4-0.8,0.8-1.1,1.5c-0.3,0.6-0.4,1.4-0.4,2.3v0.8c-0.6,0.2-1.2,0.4-1.7,0.8V25h1.7v8.5c-0.5,0.1-1,0.3-1.5,0.5v0.9h7V34
		c-0.7-0.3-1.4-0.5-2.2-0.5V25h2.4v-1.5h-2.4v-1.1c0-0.7,0-1.3,0.1-1.7c0.1-0.4,0.2-0.8,0.4-1c0.2-0.2,0.4-0.4,0.6-0.5
		c0.3-0.1,0.6-0.1,1-0.1l1,2.2h0.8c0.1-0.3,0.3-0.8,0.4-1.3c0.2-0.5,0.3-1,0.3-1.5c-0.3-0.1-0.6-0.2-1.1-0.3
		c-0.5-0.1-1.1-0.2-1.7-0.2C94.9,17.8,94.3,17.8,93.7,18 M71.6,19.8c0.3,0.2,0.6,0.3,0.9,0.4c0.3,0.1,0.7,0.2,1,0.2v8.9
		c0,2,0.6,3.5,1.7,4.4c1.1,0.9,2.7,1.4,4.7,1.4c1.9,0,3.3-0.5,4.3-1.5c1-1,1.5-2.5,1.5-4.4v-8.6c0.3-0.1,0.6-0.2,1-0.3
		c0.3-0.1,0.6-0.3,0.9-0.5V19H82v0.9c0.2,0.2,0.5,0.3,0.9,0.5c0.4,0.1,0.7,0.2,1.1,0.3v8.5c0,0.8-0.1,1.4-0.2,1.9
		c-0.2,0.5-0.4,0.9-0.7,1.3c-0.3,0.3-0.7,0.5-1.1,0.7c-0.4,0.1-0.9,0.2-1.4,0.2c-0.6,0-1.1-0.1-1.5-0.2c-0.4-0.1-0.8-0.4-1.1-0.7
		s-0.6-0.7-0.7-1.2s-0.2-1.1-0.2-1.9v-8.8c0.7-0.1,1.2-0.3,1.7-0.7V19h-7V19.8z"/>
	<path style="clip-path:url(#SVGID_00000036250750941446872010000010649179048974484902_);fill:#9B7BA6;" d="M34.6,5.5
		C19.4,5.5,7.1,17.8,7.1,33c0,15.2,12.4,27.6,27.6,27.6S62.2,48.2,62.2,33C62.2,17.8,49.8,5.5,34.6,5.5 M34.6,64.5
		C17.3,64.5,3.1,50.4,3.1,33c0-17.4,14.1-31.5,31.5-31.5S66.1,15.7,66.1,33C66.1,50.4,52,64.5,34.6,64.5"/>
	<path style="clip-path:url(#SVGID_00000036250750941446872010000010649179048974484902_);fill:#21537F;" d="M12.2,19
		c0.4,0.2,0.8,0.4,1.3,0.6c0.5,0.2,0.9,0.3,1.4,0.3v12.9c0,2.9,0.8,5,2.4,6.4c1.6,1.3,3.9,2,6.8,2c2.7,0,4.8-0.7,6.3-2.2
		c1.5-1.5,2.2-3.6,2.2-6.4V20.2c0.5-0.1,0.9-0.3,1.4-0.4c0.5-0.2,0.9-0.4,1.3-0.7v-1.3h-8.2V19c0.4,0.2,0.8,0.5,1.3,0.7
		c0.5,0.2,1.1,0.4,1.6,0.5v12.4c0,1.1-0.1,2-0.4,2.8c-0.2,0.8-0.6,1.4-1,1.8c-0.5,0.5-1,0.8-1.6,1c-0.6,0.2-1.3,0.3-2,0.3
		c-0.8,0-1.5-0.1-2.2-0.3c-0.7-0.2-1.2-0.5-1.7-1c-0.5-0.5-0.8-1-1.1-1.8c-0.2-0.7-0.4-1.6-0.4-2.7V20c0.9-0.2,1.8-0.5,2.5-1v-1.3
		H12.2V19z"/>
	<path style="clip-path:url(#SVGID_00000036250750941446872010000010649179048974484902_);fill:#21537F;" d="M50.6,47.6
		c-0.2,0.2-0.4,0.3-0.9,0.4c-0.4,0.1-1,0.1-1.6,0.1c-2.2,0-3.9-0.8-5.1-2.5c-1.3-1.7-1.9-4.1-1.9-7.3c0-1.7,0.2-3.2,0.5-4.5
		c0.4-1.2,0.8-2.3,1.5-3.1c0.6-0.8,1.3-1.4,2.1-1.7c0.8-0.4,1.6-0.5,2.5-0.5c0.5,0,0.9,0,1.4,0.1c0.4,0.1,0.8,0.2,1,0.3l1.8,5h1.4
		c0.1-0.4,0.2-0.9,0.3-1.5c0.1-0.6,0.2-1.2,0.3-1.8C54,30,54,29.5,54,28.9c0-0.6,0-1,0-1.4c-0.8-0.4-1.7-0.6-2.9-0.8
		c-1.2-0.2-2.5-0.3-4-0.3c-1.5,0-3,0.2-4.4,0.7c-1.4,0.5-2.6,1.2-3.7,2.1c-1.1,1-1.9,2.2-2.5,3.7c-0.6,1.5-0.9,3.3-0.9,5.4
		c0,2.1,0.3,3.9,0.9,5.4c0.6,1.5,1.4,2.8,2.4,3.7c1,1,2.3,1.7,3.8,2.1c1.5,0.5,3.1,0.7,5,0.7c1.2,0,2.4-0.1,3.6-0.3
		c1.2-0.2,2.1-0.5,2.9-1c0-0.4,0-0.9,0-1.5c0-0.6-0.1-1.1-0.1-1.7c-0.1-0.6-0.1-1.1-0.2-1.6c-0.1-0.5-0.2-0.9-0.2-1.3h-1.4
		L50.6,47.6z"/>
</g>
</svg>
