<?xml version="1.0" encoding="utf-8"?>
<!-- Generator: Adobe Illustrator 26.3.1, SVG Export Plug-In . SVG Version: 6.00 Build 0)  -->
<svg version="1.1" id="Livello_1" xmlns="http://www.w3.org/2000/svg" xmlns:xlink="http://www.w3.org/1999/xlink" x="0px" y="0px"
	 viewBox="0 0 344.6 59.4" style="enable-background:new 0 0 344.6 59.4;" xml:space="preserve">
<style type="text/css">
	.st0{clip-path:url(#SVGID_00000098918195456996573730000014113692608738638266_);fill:#07465D;}
	.st1{clip-path:url(#SVGID_00000098918195456996573730000014113692608738638266_);fill:#B23017;}
	.st2{clip-path:url(#SVGID_00000098918195456996573730000014113692608738638266_);fill:#8296B9;}
</style>
<g>
	<defs>
		<rect id="SVGID_1_" x="2" y="2.6" width="334.8" height="53.2"/>
	</defs>
	<clipPath id="SVGID_00000133487626333790032900000000793724284427659956_">
		<use xlink:href="#SVGID_1_"  style="overflow:visible;"/>
	</clipPath>
	<path style="clip-path:url(#SVGID_00000133487626333790032900000000793724284427659956_);fill:#07465D;" d="M243.4,48.1h3.6l0-0.2
		c-0.5,0-0.8-0.1-0.9-0.3c-0.1-0.1-0.1-0.5,0-1l0.9-5.3c0,0,0-0.1,0-0.1c0,0-0.1,0-0.3,0.1c-0.4,0.1-1,0.4-1.9,0.6l-0.3,0.1l0,0.2
		c0.3-0.1,0.4-0.1,0.5-0.1c0.1,0,0.1,0,0.2,0c0.2,0,0.4,0.1,0.4,0.3c0,0.1,0,0.3-0.1,0.7l-0.6,3.5c-0.1,0.6-0.2,0.9-0.4,1.1
		c-0.2,0.1-0.5,0.2-1,0.3L243.4,48.1z M246,38.6c0,0.2,0,0.4,0.1,0.5c0.1,0.1,0.3,0.2,0.5,0.2c0.2,0,0.4-0.1,0.6-0.2
		c0.2-0.1,0.3-0.3,0.3-0.5c0-0.2,0-0.4-0.1-0.5c-0.1-0.1-0.3-0.2-0.5-0.2c-0.2,0-0.4,0.1-0.6,0.2S246,38.4,246,38.6 M242.4,41.3
		l0.3-1.8c0-0.1,0-0.1,0-0.1c0,0,0,0-0.1,0c-0.7,0.7-1.1,1.2-1.3,1.4c-0.2,0.2-0.5,0.4-0.8,0.7c-0.1,0.1-0.2,0.2-0.2,0.2
		c0,0,0,0.1-0.1,0.1c0,0,0,0,0,0.1c0,0,0,0,0,0h0.8l-0.8,4.4c-0.1,0.5-0.1,0.9,0,1.2c0.1,0.5,0.5,0.8,1,0.8c0.3,0,0.6-0.1,0.9-0.2
		c0.3-0.1,0.6-0.4,0.9-0.7l0.2-0.2l-0.2-0.2c-0.2,0.2-0.4,0.3-0.5,0.4c-0.1,0.1-0.3,0.1-0.5,0.1c-0.3,0-0.5-0.2-0.6-0.5
		c0-0.2,0-0.5,0.1-0.8l0.8-4.2h1.5l0.1-0.5H242.4z M238.3,41.3l0.3-1.8c0-0.1,0-0.1,0-0.1c0,0,0,0-0.1,0c-0.7,0.7-1.1,1.2-1.3,1.4
		c-0.2,0.2-0.5,0.4-0.8,0.7c-0.1,0.1-0.2,0.2-0.2,0.2c0,0,0,0.1-0.1,0.1c0,0,0,0,0,0.1c0,0,0,0,0,0h0.8l-0.8,4.4
		c-0.1,0.5-0.1,0.9,0,1.2c0.1,0.5,0.5,0.8,1,0.8c0.3,0,0.5-0.1,0.9-0.2c0.3-0.1,0.6-0.4,0.9-0.7l0.2-0.2l-0.2-0.2
		c-0.2,0.2-0.4,0.3-0.5,0.4s-0.3,0.1-0.5,0.1c-0.3,0-0.5-0.2-0.6-0.5c0-0.2,0-0.5,0.1-0.8l0.8-4.2h1.5l0.1-0.5H238.3z M231.9,41.6
		c0.7,0,1.2,0.4,1.4,1.1c0.2,0.7,0.3,1.5,0.1,2.4c-0.1,0.8-0.4,1.5-0.8,2c-0.4,0.5-0.9,0.8-1.4,0.8c-0.7,0-1.2-0.4-1.4-1.1
		c-0.3-0.8-0.3-1.6-0.2-2.4c0.2-1.1,0.6-1.9,1.1-2.3C231.1,41.8,231.5,41.6,231.9,41.6 M228.2,44.7c-0.2,1,0,1.9,0.5,2.6
		s1.3,1,2.2,1c1,0,1.8-0.4,2.6-1.1c0.7-0.7,1.2-1.6,1.4-2.5c0.2-1.1,0-1.9-0.5-2.5c-0.5-0.6-1.3-1-2.2-1c-1,0-1.8,0.3-2.6,1
		C228.8,42.9,228.4,43.7,228.2,44.7 M220,48.1h3.2l0-0.2c-0.3,0-0.6-0.1-0.7-0.2c-0.1-0.1-0.2-0.4-0.1-0.7l0.7-4.1
		c0.3-0.3,0.6-0.4,0.7-0.6c0.3-0.2,0.6-0.3,0.9-0.3c0.4,0,0.7,0.1,0.8,0.4c0.1,0.3,0.1,0.6,0,1l-0.6,3.1c-0.1,0.5-0.2,0.8-0.4,1
		c-0.2,0.1-0.4,0.2-0.8,0.3l0,0.2h3.1l0-0.2c-0.3,0-0.5-0.1-0.7-0.2c-0.1-0.2-0.1-0.4-0.1-0.8l0.6-3.4c0.2-1,0-1.6-0.4-2
		c-0.2-0.2-0.5-0.3-0.9-0.3c-0.4,0-0.8,0.1-1.2,0.4c-0.3,0.2-0.7,0.4-1.2,0.9l0.2-1.1c0,0,0-0.1,0-0.1c0,0,0,0-0.1,0l-0.7,0.2
		c-0.8,0.2-1.3,0.4-1.5,0.5l0,0.3c0.1,0,0.1,0,0.2,0c0,0,0.1,0,0.1,0c0.3,0,0.5,0.1,0.5,0.3c0,0.1,0,0.3,0,0.7l-0.7,3.7
		c-0.1,0.4-0.2,0.7-0.4,0.9c-0.2,0.1-0.4,0.2-0.8,0.3L220,48.1z M212.5,48.1h3.2l0-0.2c-0.3,0-0.6-0.1-0.7-0.2
		c-0.1-0.1-0.2-0.4-0.1-0.7l0.7-4.1c0.3-0.3,0.6-0.4,0.7-0.6c0.3-0.2,0.6-0.3,0.9-0.3c0.4,0,0.7,0.1,0.8,0.4c0.1,0.3,0.1,0.6,0,1
		l-0.6,3.1c-0.1,0.5-0.2,0.8-0.4,1c-0.2,0.1-0.4,0.2-0.8,0.3l0,0.2h3.1l0-0.2c-0.3,0-0.5-0.1-0.7-0.2c-0.1-0.2-0.1-0.4-0.1-0.8
		l0.6-3.4c0.2-1,0-1.6-0.4-2c-0.2-0.2-0.5-0.3-0.9-0.3c-0.4,0-0.8,0.1-1.2,0.4c-0.3,0.2-0.7,0.4-1.2,0.9l0.2-1.1c0,0,0-0.1,0-0.1
		c0,0,0,0-0.1,0l-0.7,0.2c-0.8,0.2-1.3,0.4-1.5,0.5l0,0.3c0.1,0,0.1,0,0.2,0c0,0,0.1,0,0.1,0c0.3,0,0.5,0.1,0.5,0.3
		c0,0.1,0,0.3,0,0.7l-0.7,3.7c-0.1,0.4-0.2,0.7-0.4,0.9c-0.2,0.1-0.4,0.2-0.8,0.3L212.5,48.1z M206.4,46.6c-0.1,0.5,0,0.8,0.3,1.1
		c0.3,0.3,0.6,0.4,1,0.4c0.4,0,0.8-0.1,1.3-0.4c0.3-0.2,0.7-0.4,1.1-0.7c0,0.3,0,0.6,0.1,0.8c0.1,0.2,0.3,0.3,0.7,0.3
		c0.3,0,0.6-0.1,0.9-0.3c0.2-0.1,0.4-0.3,0.6-0.5l0.1-0.4c-0.2,0.1-0.3,0.2-0.4,0.2c-0.1,0-0.2,0.1-0.3,0.1c-0.2,0-0.3-0.1-0.3-0.3
		c0-0.1,0-0.3,0-0.6l0.5-2.9c0.1-0.6,0.1-1.1,0-1.5c-0.2-0.6-0.8-0.9-1.8-0.9c-0.8,0-1.5,0.2-2,0.6c-0.5,0.4-0.8,0.7-0.8,1.1
		c0,0.2,0,0.3,0.1,0.5c0.1,0.1,0.2,0.2,0.5,0.2c0.1,0,0.3,0,0.4-0.1c0.2-0.1,0.3-0.3,0.4-0.6c0,0,0-0.1,0-0.3c0-0.1,0-0.2,0-0.3
		c0-0.2,0.2-0.4,0.4-0.5c0.2-0.1,0.5-0.2,0.7-0.2c0.5,0,0.8,0.2,0.9,0.5c0.1,0.2,0.1,0.5,0,1l-0.1,0.6c-1.4,0.5-2.4,0.9-2.9,1.2
		C207,45.3,206.5,45.9,206.4,46.6 M210.2,46.3c0,0.3-0.2,0.5-0.6,0.7c-0.3,0.2-0.7,0.3-1,0.3c-0.2,0-0.4-0.1-0.6-0.2
		c-0.3-0.2-0.3-0.5-0.3-1c0.1-0.6,0.5-1,1.3-1.5c0.4-0.2,0.9-0.4,1.5-0.6L210.2,46.3z M201.7,48.1h3.6l0-0.2c-0.5,0-0.8-0.1-0.9-0.3
		c-0.1-0.1-0.1-0.5,0-1l0.9-5.3c0,0,0-0.1,0-0.1c0,0-0.1,0-0.3,0.1c-0.4,0.1-1,0.4-1.9,0.6l-0.3,0.1l0,0.2c0.3-0.1,0.4-0.1,0.5-0.1
		c0.1,0,0.1,0,0.2,0c0.2,0,0.4,0.1,0.4,0.3c0,0.1,0,0.3-0.1,0.7l-0.6,3.5c-0.1,0.6-0.2,0.9-0.4,1.1c-0.2,0.1-0.5,0.2-1,0.3
		L201.7,48.1z M204.3,38.6c0,0.2,0,0.4,0.1,0.5c0.1,0.1,0.3,0.2,0.5,0.2c0.2,0,0.4-0.1,0.6-0.2c0.2-0.1,0.3-0.3,0.3-0.5
		c0-0.2,0-0.4-0.1-0.5c-0.1-0.1-0.3-0.2-0.5-0.2c-0.2,0-0.4,0.1-0.6,0.2C204.5,38.2,204.4,38.4,204.3,38.6 M197.9,38
		c-1.6,0-3,0.5-4.2,1.6c-1.1,1-1.7,2.2-2,3.6c-0.3,1.6,0.1,2.9,1,3.8c0.9,0.9,2,1.3,3.5,1.3c0.8,0,1.6-0.1,2.6-0.4
		c0.9-0.3,1.4-0.5,1.4-0.7l0.5-3c0.1-0.5,0.2-0.8,0.5-1c0.1-0.1,0.4-0.2,0.8-0.2l0-0.3h-3.8l0,0.3c0.5,0,0.9,0.1,1,0.3
		c0.1,0.1,0.2,0.5,0.1,1.1l-0.4,2.4c0,0.2-0.1,0.3-0.2,0.4c-0.1,0.1-0.3,0.2-0.7,0.3c-0.2,0.1-0.5,0.1-0.7,0.2s-0.5,0.1-0.6,0.1
		c-1.1,0-1.9-0.4-2.5-1.2c-0.6-0.8-0.8-1.9-0.5-3.2c0.3-1.7,0.9-2.9,1.7-3.6c0.9-0.7,1.8-1.1,2.7-1.1c0.9,0,1.7,0.3,2.1,0.9
		c0.3,0.4,0.5,0.9,0.7,1.6h0.3l0.4-3.2h-0.3c-0.1,0.2-0.2,0.3-0.3,0.4c-0.1,0.1-0.3,0.1-0.5,0.1c-0.1,0-0.4-0.1-0.9-0.2
		C199.1,38.1,198.5,38,197.9,38 M183.9,41.6c0.7,0,1.2,0.4,1.4,1.1c0.2,0.7,0.3,1.5,0.1,2.4c-0.1,0.8-0.4,1.5-0.8,2
		c-0.4,0.5-0.9,0.8-1.4,0.8c-0.7,0-1.2-0.4-1.4-1.1s-0.3-1.6-0.2-2.4c0.2-1.1,0.6-1.9,1.1-2.3C183.2,41.8,183.6,41.6,183.9,41.6
		 M180.3,44.7c-0.2,1,0,1.9,0.5,2.6s1.3,1,2.2,1c1,0,1.8-0.4,2.6-1.1c0.7-0.7,1.2-1.6,1.4-2.5c0.2-1.1,0-1.9-0.5-2.5
		c-0.5-0.6-1.3-1-2.2-1c-1,0-1.8,0.3-2.6,1C180.9,42.9,180.5,43.7,180.3,44.7 M174.7,41.3l-0.3,1.8h0.3c0.2-0.5,0.3-0.9,0.5-1.1
		c0.2-0.2,0.6-0.3,1.1-0.3h2l-5.1,6.1l0,0.2h5.7l0.6-2L179,46c-0.3,0.7-0.6,1.2-0.8,1.3c-0.2,0.2-0.7,0.3-1.4,0.3h-2.1l5.1-6.1
		l0-0.2H174.7z M165.4,48.1h3.2l0-0.2c-0.3,0-0.6-0.1-0.7-0.2c-0.1-0.1-0.2-0.4-0.1-0.7l0.7-4.1c0.3-0.3,0.6-0.4,0.7-0.6
		c0.3-0.2,0.6-0.3,0.9-0.3c0.4,0,0.7,0.1,0.8,0.4c0.1,0.3,0.1,0.6,0,1l-0.6,3.1c-0.1,0.5-0.2,0.8-0.4,1c-0.2,0.1-0.4,0.2-0.8,0.3
		l0,0.2h3.1l0-0.2c-0.3,0-0.5-0.1-0.7-0.2c-0.1-0.2-0.1-0.4-0.1-0.8l0.6-3.4c0.2-1,0-1.6-0.4-2c-0.2-0.2-0.5-0.3-0.9-0.3
		c-0.4,0-0.8,0.1-1.2,0.4c-0.3,0.2-0.7,0.4-1.2,0.9l0.2-1.1c0,0,0-0.1,0-0.1c0,0,0,0-0.1,0l-0.7,0.2c-0.8,0.2-1.3,0.4-1.5,0.5l0,0.3
		c0.1,0,0.1,0,0.2,0c0,0,0.1,0,0.1,0c0.3,0,0.5,0.1,0.5,0.3c0,0.1,0,0.3,0,0.7l-0.7,3.7c-0.1,0.4-0.2,0.7-0.4,0.9
		c-0.2,0.1-0.4,0.2-0.8,0.3L165.4,48.1z M162.6,41.7c0.6,0,0.9,0.2,1.1,0.6c0.1,0.2,0.1,0.6,0.1,1.1h-3.1c0.1-0.4,0.3-0.7,0.5-1
		C161.6,42,162.1,41.7,162.6,41.7 M163.2,41.2c-0.9,0-1.8,0.4-2.5,1.1c-0.7,0.7-1.1,1.6-1.3,2.5c-0.2,0.9-0.1,1.7,0.3,2.4
		c0.4,0.7,1,1,1.9,1c0.8,0,1.5-0.3,2.2-0.8c0.6-0.5,1.1-1.1,1.4-1.7l-0.2-0.1c-0.4,0.5-0.8,0.9-1.2,1.1c-0.4,0.3-0.9,0.4-1.4,0.4
		c-0.6,0-1.1-0.3-1.5-0.8c-0.4-0.5-0.5-1.3-0.3-2.5h4.7c0.2-0.9,0-1.5-0.4-2C164.4,41.4,163.9,41.2,163.2,41.2 M156.8,41.2
		c-1,0-1.8,0.4-2.6,1.1c-0.8,0.7-1.2,1.6-1.4,2.6c-0.2,1,0,1.8,0.4,2.4c0.5,0.6,1.1,0.9,1.9,0.9c0.8,0,1.5-0.3,2.2-1
		c0.4-0.3,0.7-0.8,1.1-1.4l-0.2-0.1c-0.4,0.4-0.7,0.7-0.9,0.9c-0.5,0.3-0.9,0.5-1.4,0.5c-0.7,0-1.2-0.3-1.6-0.9
		c-0.3-0.6-0.4-1.2-0.3-2c0.1-0.8,0.4-1.5,0.9-1.9c0.5-0.5,1-0.7,1.5-0.7c0.3,0,0.5,0.1,0.6,0.2c0.1,0.1,0.2,0.3,0.2,0.5l0,0.4
		c0,0.2,0.1,0.4,0.2,0.5c0.1,0.1,0.2,0.2,0.4,0.2c0.2,0,0.4-0.1,0.6-0.2c0.1-0.1,0.2-0.3,0.2-0.4c0.1-0.4-0.1-0.7-0.5-1
		C157.9,41.3,157.4,41.2,156.8,41.2 M144.6,48.1h3.2l0-0.2c-0.3,0-0.6-0.1-0.7-0.2c-0.1-0.1-0.2-0.4-0.1-0.7l0.7-4.1
		c0.3-0.3,0.6-0.4,0.7-0.6c0.3-0.2,0.6-0.3,0.9-0.3c0.4,0,0.7,0.1,0.8,0.4c0.1,0.3,0.1,0.6,0,1l-0.6,3.1c-0.1,0.5-0.2,0.8-0.4,1
		c-0.2,0.1-0.4,0.2-0.8,0.3l0,0.2h3.1l0-0.2c-0.3,0-0.6-0.1-0.7-0.2c-0.1-0.2-0.1-0.4-0.1-0.8l0.6-3.4c0.2-1,0-1.6-0.4-2
		c-0.2-0.2-0.5-0.3-0.9-0.3c-0.4,0-0.8,0.1-1.2,0.4c-0.3,0.2-0.7,0.4-1.2,0.9l0.2-1.1c0,0,0-0.1,0-0.1c0,0,0,0-0.1,0l-0.7,0.2
		c-0.8,0.2-1.3,0.4-1.5,0.5l0,0.3c0.1,0,0.1,0,0.2,0c0,0,0.1,0,0.1,0c0.3,0,0.5,0.1,0.5,0.3c0,0.1,0,0.3,0,0.7l-0.7,3.7
		c-0.1,0.4-0.2,0.7-0.4,0.9c-0.2,0.1-0.4,0.2-0.8,0.3L144.6,48.1z M140.5,48.1h3.6l0-0.2c-0.5,0-0.8-0.1-0.9-0.3
		c-0.1-0.1-0.1-0.5,0-1l0.9-5.3c0,0,0-0.1,0-0.1c0,0-0.1,0-0.3,0.1c-0.4,0.1-1,0.4-1.9,0.6l-0.3,0.1l0,0.2c0.3-0.1,0.4-0.1,0.5-0.1
		c0.1,0,0.1,0,0.2,0c0.2,0,0.4,0.1,0.4,0.3c0,0.1,0,0.3-0.1,0.7l-0.6,3.5c-0.1,0.6-0.2,0.9-0.4,1.1c-0.2,0.1-0.5,0.2-1,0.3
		L140.5,48.1z M143.1,38.6c0,0.2,0,0.4,0.1,0.5c0.1,0.1,0.3,0.2,0.5,0.2c0.2,0,0.4-0.1,0.6-0.2c0.2-0.1,0.3-0.3,0.3-0.5
		c0-0.2,0-0.4-0.1-0.5c-0.1-0.1-0.3-0.2-0.5-0.2c-0.2,0-0.4,0.1-0.6,0.2C143.2,38.2,143.1,38.4,143.1,38.6 M132.2,38.1l0,0.3
		c0.4,0,0.6,0.1,0.8,0.3c0.2,0.2,0.3,0.6,0.5,1.3l2.3,8.2h0.2l4.8-8.4c0.3-0.6,0.6-1,0.9-1.1c0.2-0.1,0.4-0.2,0.7-0.3l0-0.3h-3.1
		l0,0.3c0.3,0,0.6,0,0.7,0.1c0.2,0.1,0.3,0.3,0.3,0.6c0,0.1-0.1,0.3-0.1,0.4c-0.1,0.2-0.2,0.4-0.3,0.6l-3.1,5.7l-1.4-5.2
		c-0.1-0.5-0.2-0.9-0.3-1.1c0-0.2-0.1-0.4,0-0.5c0-0.2,0.2-0.4,0.4-0.5c0.1,0,0.4-0.1,0.8-0.1l0-0.3H132.2z M123.1,46.6
		c0,0.5,0.2,0.8,0.5,1.1c0.3,0.3,0.7,0.4,1.1,0.4c0.4,0,0.8-0.1,1.3-0.4c0.3-0.2,0.6-0.4,1-0.7c0,0.3,0.1,0.6,0.2,0.8
		c0.1,0.2,0.4,0.3,0.7,0.3c0.3,0,0.6-0.1,0.8-0.3c0.2-0.1,0.3-0.3,0.5-0.5V47c-0.2,0.1-0.3,0.2-0.4,0.2c-0.1,0-0.2,0.1-0.3,0.1
		c-0.2,0-0.3-0.1-0.4-0.3c0-0.1-0.1-0.3-0.1-0.6v-2.9c0-0.6-0.1-1.1-0.3-1.5c-0.3-0.6-1-0.9-1.9-0.9c-0.8,0-1.4,0.2-1.9,0.6
		c-0.4,0.4-0.6,0.7-0.6,1.1c0,0.2,0.1,0.3,0.2,0.5c0.1,0.1,0.3,0.2,0.5,0.2c0.1,0,0.3,0,0.4-0.1c0.2-0.1,0.3-0.3,0.3-0.6
		c0,0,0-0.1,0-0.3c0-0.1,0-0.2,0-0.3c0-0.2,0.1-0.4,0.3-0.5c0.2-0.1,0.5-0.2,0.7-0.2c0.5,0,0.9,0.2,1,0.5c0.1,0.2,0.1,0.5,0.1,1v0.6
		c-1.3,0.5-2.2,0.9-2.7,1.2C123.4,45.3,123.1,45.9,123.1,46.6 M126.8,46.3c0,0.3-0.1,0.5-0.4,0.7c-0.3,0.2-0.6,0.3-0.9,0.3
		c-0.2,0-0.4-0.1-0.6-0.2c-0.3-0.2-0.4-0.5-0.4-1c0-0.6,0.4-1,1.1-1.5c0.4-0.2,0.8-0.4,1.4-0.6V46.3z M118.9,47.4
		c-0.7,0-1.3-0.3-1.6-0.9c-0.4-0.6-0.5-1.3-0.5-2.1c0-0.8,0.2-1.5,0.5-2c0.3-0.5,0.8-0.8,1.4-0.8c0.3,0,0.7,0.1,1,0.4
		c0.3,0.3,0.5,0.7,0.5,1.3v3.1c0,0.2-0.1,0.4-0.4,0.6C119.6,47.3,119.2,47.4,118.9,47.4 M118.6,41.2c-0.9,0-1.7,0.4-2.3,1.1
		c-0.6,0.8-0.9,1.7-0.9,2.7c0,0.8,0.3,1.6,0.8,2.2c0.5,0.6,1.2,1,2,1c0.5,0,0.9-0.1,1.2-0.3c0.2-0.1,0.4-0.3,0.7-0.6v0.9l0.1,0.1
		l1.1-0.4c0.7-0.2,1-0.4,1.1-0.4v-0.2c-0.1,0-0.1,0-0.2,0c-0.1,0-0.1,0-0.2,0c-0.3,0-0.5-0.1-0.6-0.2c-0.1-0.1-0.1-0.3-0.1-0.7l0-6
		c0-0.3,0-0.6,0-0.9c0-0.3,0-0.6,0-0.9l0-0.8l0,0c-0.2,0.1-0.3,0.1-0.4,0.1c-0.2,0.1-0.4,0.1-0.6,0.2c-0.2,0.1-0.4,0.1-0.7,0.2
		l-0.6,0.2v0.2c0.2,0,0.2,0,0.3,0s0.1,0,0.2,0c0.2,0,0.4,0.1,0.5,0.2c0.1,0.1,0.1,0.3,0.1,0.6v2.3c-0.2-0.2-0.4-0.3-0.6-0.4
		C119.3,41.2,119,41.2,118.6,41.2 M107.3,41.6c0.7,0,1.3,0.4,1.6,1.1c0.4,0.7,0.6,1.5,0.6,2.4c0,0.8-0.1,1.5-0.4,2
		c-0.3,0.5-0.7,0.8-1.3,0.8c-0.7,0-1.2-0.4-1.6-1.1s-0.6-1.6-0.6-2.4c0-1.1,0.2-1.9,0.7-2.3C106.6,41.8,106.9,41.6,107.3,41.6
		 M104.2,44.7c0,1,0.3,1.9,1,2.6c0.7,0.7,1.4,1,2.4,1c1,0,1.8-0.4,2.4-1.1c0.6-0.7,0.9-1.6,0.9-2.5c0-1.1-0.3-1.9-1-2.5
		c-0.6-0.6-1.4-1-2.4-1c-1,0-1.8,0.3-2.4,1C104.5,42.9,104.2,43.7,104.2,44.7 M102,41.3v-1.8c0-0.1,0-0.1,0-0.1c0,0-0.1,0-0.1,0
		c-0.6,0.7-0.9,1.2-1.1,1.4c-0.1,0.2-0.4,0.4-0.7,0.7c-0.1,0.1-0.2,0.2-0.2,0.2c0,0,0,0.1,0,0.1c0,0,0,0,0,0.1c0,0,0,0,0.1,0h0.8
		v4.4c0,0.5,0.1,0.9,0.2,1.2c0.2,0.5,0.6,0.8,1.2,0.8c0.3,0,0.5-0.1,0.8-0.2c0.3-0.1,0.6-0.4,0.8-0.7l0.2-0.2l-0.2-0.2
		c-0.2,0.2-0.3,0.3-0.4,0.4c-0.1,0.1-0.3,0.1-0.5,0.1c-0.3,0-0.6-0.2-0.7-0.5c-0.1-0.2-0.1-0.5-0.1-0.8l0-4.2h1.5v-0.5H102z
		 M97.8,41.3v-1.8c0-0.1,0-0.1,0-0.1c0,0,0,0-0.1,0c-0.6,0.7-0.9,1.2-1.1,1.4c-0.1,0.2-0.4,0.4-0.7,0.7c-0.1,0.1-0.2,0.2-0.2,0.2
		c0,0,0,0.1,0,0.1c0,0,0,0,0,0.1c0,0,0,0,0.1,0h0.8v4.4c0,0.5,0.1,0.9,0.2,1.2c0.2,0.5,0.6,0.8,1.2,0.8c0.3,0,0.5-0.1,0.8-0.2
		c0.3-0.1,0.6-0.4,0.8-0.7l0.2-0.2l-0.2-0.2c-0.2,0.2-0.3,0.3-0.4,0.4c-0.1,0.1-0.3,0.1-0.5,0.1c-0.3,0-0.6-0.2-0.7-0.5
		c-0.1-0.2-0.1-0.5-0.1-0.8l0-4.2h1.5v-0.5H97.8z M91.8,41.7c0.6,0,1,0.2,1.2,0.6c0.1,0.2,0.2,0.6,0.3,1.1h-3.1
		c0.1-0.4,0.2-0.7,0.3-1C90.8,42,91.3,41.7,91.8,41.7 M92.2,41.2c-0.9,0-1.7,0.4-2.3,1.1c-0.6,0.7-0.9,1.6-0.9,2.5
		c0,0.9,0.2,1.7,0.8,2.4c0.5,0.7,1.2,1,2.1,1c0.8,0,1.5-0.3,2-0.8c0.5-0.5,0.9-1.1,1.1-1.7l-0.3-0.1c-0.3,0.5-0.6,0.9-1,1.1
		c-0.4,0.3-0.8,0.4-1.3,0.4c-0.6,0-1.2-0.3-1.6-0.8c-0.5-0.5-0.7-1.3-0.8-2.5h4.7c0-0.9-0.3-1.5-0.8-2
		C93.5,41.4,92.9,41.2,92.2,41.2 M83.9,48.1h3.6v-0.2c-0.5,0-0.8-0.1-1-0.2c-0.2-0.2-0.3-0.5-0.3-0.9v-3.3c0-0.3,0.1-0.6,0.4-0.9
		c0.2-0.3,0.5-0.4,0.6-0.4c0.1,0,0.3,0.1,0.4,0.3c0.2,0.2,0.4,0.3,0.6,0.3c0.2,0,0.3-0.1,0.4-0.2c0.1-0.1,0.2-0.3,0.2-0.5
		c0-0.2-0.1-0.4-0.2-0.6c-0.2-0.1-0.4-0.2-0.6-0.2c-0.3,0-0.6,0.1-0.9,0.4c-0.3,0.2-0.6,0.6-0.9,1v-1.2c0-0.1,0-0.1,0-0.2
		c0,0,0,0-0.1,0c-0.3,0.1-0.5,0.2-0.8,0.3c-0.1,0-0.3,0.1-0.6,0.2c-0.3,0.1-0.6,0.2-0.9,0.3v0.2c0.1,0,0.2,0,0.3,0
		c0.1,0,0.1,0,0.2,0c0.2,0,0.4,0.1,0.5,0.3c0.1,0.2,0.1,0.6,0.1,1v3.3c0,0.4-0.1,0.6-0.2,0.8c-0.1,0.1-0.4,0.2-0.9,0.2V48.1z
		 M79.9,48.1h3.6v-0.2c-0.5,0-0.8-0.1-0.9-0.3c-0.1-0.1-0.2-0.5-0.2-1v-5.3c0,0,0-0.1,0-0.1c0,0-0.1,0-0.3,0.1
		c-0.3,0.1-0.9,0.4-1.8,0.6L80,42v0.2c0.2-0.1,0.4-0.1,0.4-0.1c0.1,0,0.1,0,0.2,0c0.2,0,0.4,0.1,0.5,0.3c0,0.1,0.1,0.3,0.1,0.7v3.5
		c0,0.6-0.1,0.9-0.2,1.1c-0.1,0.1-0.5,0.2-1,0.3V48.1z M80.9,38.6c0,0.2,0.1,0.4,0.2,0.5c0.1,0.1,0.3,0.2,0.5,0.2
		c0.2,0,0.4-0.1,0.5-0.2s0.2-0.3,0.2-0.5c0-0.2-0.1-0.4-0.2-0.5c-0.1-0.1-0.3-0.2-0.5-0.2c-0.2,0-0.4,0.1-0.5,0.2
		C81,38.2,80.9,38.4,80.9,38.6 M69,48.1h4.2c1.1,0,2.1-0.1,2.8-0.4c0.4-0.2,0.8-0.4,1.2-0.7c0.6-0.5,1.1-1,1.4-1.7s0.5-1.4,0.5-2.1
		c0-2.1-0.8-3.5-2.5-4.3c-0.9-0.4-2.1-0.7-3.5-0.7h-4v0.3c0.6,0,0.9,0.1,1.1,0.3c0.2,0.2,0.2,0.5,0.2,1.1v6.7c0,0.6-0.1,0.9-0.2,1.1
		c-0.2,0.1-0.5,0.2-1.1,0.3V48.1z M71.9,46.9v-7.6c0-0.2,0.1-0.4,0.2-0.5c0.1-0.1,0.3-0.1,0.7-0.1c1.4,0,2.4,0.3,3.3,1
		c1,0.8,1.4,1.9,1.4,3.5c0,1.7-0.6,2.9-1.7,3.7c-0.8,0.5-1.7,0.7-2.9,0.7c-0.4,0-0.6,0-0.7-0.1C72,47.3,71.9,47.2,71.9,46.9"/>
	<path style="clip-path:url(#SVGID_00000133487626333790032900000000793724284427659956_);fill:#B23017;" d="M329.5,10.6
		c-0.1,0-0.4,0-0.7,0c-0.3,0-0.7,0-1.1,0.1c-0.4,0.1-0.8,0.1-1.1,0.2c-0.3,0.1-0.6,0.2-0.7,0.3V12l4.8,3.8l1.2-0.6L329.5,10.6z
		 M327.8,28.2c-0.3-0.4-0.5-0.9-0.5-1.5c0-0.4,0.1-0.8,0.2-1.1c0.1-0.3,0.3-0.6,0.6-0.8c0.3-0.2,0.7-0.3,1.2-0.4s1.2-0.1,2-0.2v2.6
		c-0.1,0.2-0.1,0.4-0.2,0.6c-0.1,0.2-0.2,0.4-0.4,0.6s-0.4,0.4-0.7,0.5s-0.6,0.2-0.9,0.2C328.5,28.7,328.1,28.5,327.8,28.2
		 M335,24.1c0-0.8,0.1-1.8,0.1-2.8c0-0.6-0.1-1.1-0.2-1.6c-0.1-0.5-0.4-0.9-0.7-1.3c-0.4-0.4-0.8-0.7-1.5-0.9s-1.4-0.3-2.4-0.3
		c-1.2,0-2.3,0.1-3.3,0.4c-1,0.3-1.9,0.6-2.5,1.1c0,0.3,0.1,0.6,0.2,0.9s0.2,0.6,0.3,0.9c0.1,0.3,0.2,0.6,0.4,0.9
		c0.1,0.3,0.3,0.5,0.4,0.7h1.1l1.2-3.1c0.5-0.2,0.9-0.3,1.5-0.3c0.9,0,1.4,0.3,1.7,1c0.3,0.7,0.3,1.8,0.2,3.3
		c-1.4,0.1-2.6,0.2-3.6,0.3c-1,0.2-1.8,0.4-2.4,0.7c-0.6,0.3-1.1,0.7-1.4,1.2c-0.3,0.5-0.4,1.1-0.4,1.9c0,0.6,0.1,1.1,0.3,1.5
		c0.2,0.4,0.5,0.8,0.9,1.1c0.4,0.3,0.8,0.6,1.3,0.7c0.5,0.2,1,0.3,1.6,0.3c0.5,0,1-0.1,1.5-0.2c0.4-0.2,0.8-0.4,1.1-0.6
		c0.3-0.3,0.6-0.5,0.8-0.9s0.4-0.7,0.4-1h0.1c0,0.6,0,1.1,0.1,1.5c0,0.4,0.1,0.8,0.3,1.2h0.9c0.3,0,0.6-0.1,1-0.1
		c0.4-0.1,0.8-0.1,1.2-0.2c0.4-0.1,0.8-0.2,1.1-0.3c0.4-0.1,0.6-0.2,0.8-0.3v-0.9l-1.8-0.3c0-0.3-0.1-0.6-0.1-0.9c0-0.3,0-0.6,0-1
		C334.9,25.8,334.9,25,335,24.1 M311.9,19.2h2.1v7.9c0,1.3,0.3,2.3,0.8,2.8c0.6,0.6,1.4,0.9,2.5,0.9c0.5,0,1-0.1,1.4-0.2
		c0.5-0.1,0.9-0.2,1.3-0.4c0.4-0.2,0.7-0.3,1-0.5c0.3-0.2,0.5-0.3,0.7-0.5l-0.2-0.9c-0.3,0.1-0.7,0.2-1.1,0.2
		c-0.4,0-0.7,0.1-1.1,0.1c-0.6,0-1.1-0.2-1.3-0.6c-0.3-0.4-0.4-1.2-0.4-2.2v-6.7h3.4v-1.7h-3.4v-3.3h-0.9c-0.7,0.1-1.3,0.3-1.8,0.5
		c-0.5,0.2-0.9,0.4-1,0.5v2.1c-0.7,0.2-1.4,0.5-2.1,0.9V19.2z M305.1,14.6c0.4,0.3,0.9,0.5,1.6,0.5s1.2-0.2,1.6-0.5
		c0.4-0.3,0.6-0.8,0.6-1.4c0-0.6-0.2-1.1-0.6-1.4c-0.4-0.3-0.9-0.5-1.6-0.5s-1.2,0.2-1.6,0.5s-0.6,0.8-0.6,1.4
		C304.5,13.8,304.7,14.3,305.1,14.6 M310.4,29.5c-0.2-0.1-0.5-0.3-0.8-0.4c-0.3-0.1-0.6-0.2-0.9-0.3V17.2h-0.9
		c-0.3,0-0.7,0.1-1.1,0.1c-0.4,0.1-0.8,0.1-1.3,0.2c-0.4,0.1-0.8,0.2-1.2,0.3c-0.4,0.1-0.7,0.2-1,0.3v1l1.7,0.2v9.6
		c-0.3,0.1-0.6,0.2-0.9,0.3c-0.3,0.1-0.5,0.2-0.8,0.4v1h7.2V29.5z M301.1,29.5c-0.6-0.3-1.1-0.5-1.7-0.6V10.9h-0.9
		c-0.4,0-0.8,0.1-1.2,0.1c-0.5,0.1-0.9,0.1-1.4,0.2c-0.5,0.1-0.9,0.2-1.3,0.3c-0.4,0.1-0.7,0.2-0.9,0.3v1l2,0.2v15.8
		c-0.6,0.1-1.1,0.3-1.7,0.6v1h7.2V29.5z M286.6,14.6c0.4,0.3,0.9,0.5,1.6,0.5s1.2-0.2,1.6-0.5c0.4-0.3,0.6-0.8,0.6-1.4
		c0-0.6-0.2-1.1-0.6-1.4c-0.4-0.3-0.9-0.5-1.6-0.5s-1.2,0.2-1.6,0.5c-0.4,0.3-0.6,0.8-0.6,1.4C286,13.8,286.2,14.3,286.6,14.6
		 M291.8,29.5c-0.2-0.1-0.5-0.3-0.8-0.4c-0.3-0.1-0.6-0.2-0.9-0.3V17.2h-0.9c-0.3,0-0.7,0.1-1.1,0.1c-0.4,0.1-0.8,0.1-1.3,0.2
		c-0.4,0.1-0.8,0.2-1.2,0.3c-0.4,0.1-0.7,0.2-1,0.3v1l1.7,0.2v9.6c-0.3,0.1-0.6,0.2-0.9,0.3c-0.3,0.1-0.5,0.2-0.8,0.4v1h7.2V29.5z
		 M277.8,20.5c0.4,0.8,0.6,1.9,0.6,3.3c0,1.9-0.2,3.3-0.7,4.2c-0.5,0.9-1.2,1.3-2.2,1.3c-0.5,0-0.9-0.1-1.2-0.2
		c-0.4-0.1-0.7-0.2-0.9-0.4v-6.9c0.2-0.7,0.5-1.3,0.9-1.8c0.4-0.5,0.9-0.7,1.6-0.7C276.8,19.2,277.4,19.7,277.8,20.5 M269.6,29.7
		c0.2,0.1,0.5,0.2,0.9,0.4c0.4,0.1,0.9,0.2,1.4,0.3c0.5,0.1,1,0.2,1.6,0.2c0.5,0.1,1,0.1,1.5,0.1c2.4,0,4.3-0.6,5.5-1.8
		c1.3-1.2,1.9-3,1.9-5.4c0-2.1-0.4-3.8-1.3-4.8c-0.8-1.1-2-1.6-3.6-1.6c-1,0-1.8,0.2-2.5,0.7s-1.2,1.2-1.6,2h-0.1v-9h-0.9
		c-0.3,0-0.7,0.1-1.1,0.1c-0.4,0.1-0.9,0.1-1.4,0.2c-0.5,0.1-0.9,0.2-1.3,0.3s-0.8,0.2-1,0.3v1l2,0.2V29.7z M257.8,28.2
		c-0.3-0.4-0.5-0.9-0.5-1.5c0-0.4,0.1-0.8,0.2-1.1c0.1-0.3,0.3-0.6,0.6-0.8c0.3-0.2,0.7-0.3,1.2-0.4c0.5-0.1,1.2-0.1,2-0.2v2.6
		c-0.1,0.2-0.1,0.4-0.2,0.6c-0.1,0.2-0.2,0.4-0.4,0.6s-0.4,0.4-0.7,0.5c-0.3,0.1-0.6,0.2-0.9,0.2C258.6,28.7,258.1,28.5,257.8,28.2
		 M265,24.1c0-0.8,0.1-1.8,0.1-2.8c0-0.6-0.1-1.1-0.2-1.6c-0.1-0.5-0.4-0.9-0.7-1.3c-0.4-0.4-0.8-0.7-1.5-0.9
		c-0.6-0.2-1.4-0.3-2.4-0.3c-1.2,0-2.3,0.1-3.3,0.4c-1,0.3-1.9,0.6-2.5,1.1c0,0.3,0.1,0.6,0.2,0.9s0.2,0.6,0.3,0.9
		c0.1,0.3,0.2,0.6,0.4,0.9c0.1,0.3,0.3,0.5,0.4,0.7h1.1l1.2-3.1c0.5-0.2,0.9-0.3,1.5-0.3c0.9,0,1.4,0.3,1.7,1
		c0.3,0.7,0.3,1.8,0.2,3.3c-1.4,0.1-2.6,0.2-3.6,0.3c-1,0.2-1.8,0.4-2.4,0.7c-0.6,0.3-1.1,0.7-1.4,1.2c-0.3,0.5-0.4,1.1-0.4,1.9
		c0,0.6,0.1,1.1,0.3,1.5c0.2,0.4,0.5,0.8,0.9,1.1s0.8,0.6,1.3,0.7c0.5,0.2,1,0.3,1.6,0.3c0.5,0,1-0.1,1.5-0.2
		c0.4-0.2,0.8-0.4,1.1-0.6c0.3-0.3,0.6-0.5,0.8-0.9c0.2-0.3,0.4-0.7,0.4-1h0.1c0,0.6,0,1.1,0.1,1.5s0.1,0.8,0.3,1.2h0.9
		c0.3,0,0.6-0.1,1-0.1c0.4-0.1,0.8-0.1,1.2-0.2c0.4-0.1,0.8-0.2,1.1-0.3c0.4-0.1,0.6-0.2,0.8-0.3v-0.9l-1.8-0.3
		c0-0.3-0.1-0.6-0.1-0.9c0-0.3,0-0.6,0-1C265,25.8,265,25,265,24.1 M241.9,19.2h2.1v7.9c0,1.3,0.3,2.3,0.8,2.8
		c0.6,0.6,1.4,0.9,2.5,0.9c0.5,0,1-0.1,1.4-0.2c0.5-0.1,0.9-0.2,1.3-0.4s0.7-0.3,1-0.5c0.3-0.2,0.5-0.3,0.7-0.5l-0.2-0.9
		c-0.3,0.1-0.7,0.2-1.1,0.2c-0.4,0-0.7,0.1-1.1,0.1c-0.6,0-1.1-0.2-1.3-0.6c-0.3-0.4-0.4-1.2-0.4-2.2v-6.7h3.4v-1.7h-3.4v-3.3h-0.9
		c-0.7,0.1-1.3,0.3-1.8,0.5c-0.5,0.2-0.9,0.4-1,0.5v2.1c-0.7,0.2-1.4,0.5-2.1,0.9V19.2z M240.8,29.5c-0.5-0.3-1-0.5-1.7-0.6v-6.2
		c0-1.1-0.1-2-0.3-2.7c-0.2-0.7-0.5-1.3-0.9-1.7c-0.4-0.4-0.8-0.7-1.4-0.9c-0.5-0.2-1.1-0.2-1.8-0.2c-1,0-1.9,0.3-2.7,0.8
		s-1.3,1.2-1.6,1.9h0v-2.7h-0.9c-0.4,0-0.8,0.1-1.2,0.1c-0.4,0.1-0.9,0.1-1.3,0.2c-0.4,0.1-0.8,0.2-1.2,0.3
		c-0.4,0.1-0.7,0.2-0.9,0.3v1l1.7,0.2v9.6c-0.7,0.2-1.3,0.4-1.7,0.6v1h6.9v-1c-0.2-0.2-0.5-0.3-0.7-0.4c-0.2-0.1-0.5-0.2-0.7-0.2
		v-7.2c0.2-0.7,0.6-1.3,1.1-1.7c0.5-0.4,1-0.6,1.7-0.6c0.8,0,1.4,0.3,1.7,0.9c0.3,0.6,0.5,1.5,0.5,2.6v6.1c-0.3,0.1-0.6,0.2-0.8,0.3
		c-0.2,0.1-0.4,0.2-0.7,0.3v1h6.9V29.5z M213.2,21.5c0.1-0.7,0.3-1.2,0.5-1.6c0.2-0.4,0.5-0.7,0.8-0.9c0.3-0.2,0.7-0.3,1.2-0.3
		c0.6,0,1.1,0.1,1.5,0.4c0.4,0.3,0.7,0.6,0.9,1.1c0.2,0.5,0.4,1,0.5,1.6c0.1,0.6,0.1,1.4,0.1,2.2c0,1-0.1,1.8-0.2,2.5
		c-0.1,0.7-0.3,1.2-0.5,1.6c-0.2,0.4-0.5,0.7-0.8,0.9c-0.3,0.2-0.7,0.3-1,0.3c-0.7,0-1.2-0.1-1.6-0.4s-0.7-0.6-1-1.1
		c-0.2-0.5-0.4-1-0.5-1.7c-0.1-0.6-0.1-1.4-0.1-2.1C213.1,23,213.1,22.2,213.2,21.5 M209.5,26.7c0.3,0.8,0.7,1.6,1.3,2.2
		c0.6,0.6,1.3,1.1,2.2,1.4c0.9,0.3,1.9,0.5,3.1,0.5c1.1,0,2-0.2,2.9-0.5c0.9-0.3,1.6-0.8,2.2-1.4c0.6-0.6,1.1-1.3,1.4-2.1
		c0.3-0.8,0.5-1.8,0.5-2.8c0-1-0.1-1.9-0.4-2.7c-0.3-0.8-0.7-1.6-1.2-2.2c-0.6-0.6-1.3-1.1-2.2-1.4c-0.9-0.3-1.9-0.5-3.1-0.5
		c-1.1,0-2,0.2-2.9,0.5c-0.9,0.3-1.6,0.8-2.2,1.4c-0.6,0.6-1.1,1.3-1.4,2.1c-0.3,0.8-0.5,1.8-0.5,2.8
		C209.1,25,209.2,25.9,209.5,26.7 M203.4,28.7c-0.1,0.1-0.4,0.2-0.7,0.3c-0.3,0.1-0.8,0.1-1.2,0.1c-1.7,0-3-0.7-4-2
		c-1-1.3-1.5-3.2-1.5-5.7c0-1.4,0.1-2.5,0.4-3.5c0.3-1,0.7-1.8,1.1-2.4s1-1.1,1.7-1.4c0.6-0.3,1.3-0.4,2-0.4c0.4,0,0.7,0,1.1,0.1
		c0.3,0.1,0.6,0.1,0.8,0.2l1.4,3.9h1.1c0.1-0.3,0.1-0.7,0.2-1.2c0.1-0.5,0.1-0.9,0.2-1.4c0.1-0.5,0.1-0.9,0.1-1.4c0-0.4,0-0.8,0-1.1
		c-0.6-0.3-1.3-0.5-2.3-0.7c-0.9-0.2-2-0.2-3.1-0.2c-1.2,0-2.4,0.2-3.5,0.5c-1.1,0.4-2.1,0.9-2.9,1.7c-0.8,0.8-1.5,1.7-2,2.9
		c-0.5,1.2-0.7,2.6-0.7,4.3c0,1.7,0.2,3.1,0.7,4.3s1.1,2.2,1.9,2.9s1.8,1.3,3,1.7s2.5,0.5,3.9,0.5c1,0,1.9-0.1,2.8-0.2
		s1.7-0.4,2.3-0.8c0-0.3,0-0.7,0-1.2s0-0.9-0.1-1.3s-0.1-0.9-0.2-1.2c-0.1-0.4-0.1-0.7-0.2-1h-1.1L203.4,28.7z"/>
	<path style="clip-path:url(#SVGID_00000133487626333790032900000000793724284427659956_);fill:#07465D;" d="M184.9,19.7
		c0.3,0.7,0.4,1.8,0.2,3.1h-4.2c0.1-0.8,0.1-1.5,0.3-2.1c0.1-0.5,0.3-1,0.5-1.3c0.2-0.3,0.4-0.5,0.7-0.7s0.6-0.2,0.9-0.2
		C184.1,18.6,184.6,19,184.9,19.7 M188.2,27.8c-0.3,0.3-0.8,0.5-1.4,0.7s-1.2,0.3-1.8,0.3c-1.3,0-2.3-0.4-3-1.2s-1-1.9-1.1-3.3h8
		c0.2-1.3,0.2-2.4,0-3.3c-0.2-0.9-0.6-1.6-1.1-2.2s-1.2-1-1.9-1.2s-1.6-0.4-2.5-0.4c-2.1,0-3.7,0.6-4.8,1.7s-1.7,2.9-1.7,5.1
		c0,1,0.1,2,0.4,2.8c0.3,0.8,0.7,1.5,1.3,2.1c0.6,0.6,1.2,1.1,2.1,1.4c0.8,0.3,1.8,0.5,2.9,0.5c0.7,0,1.3-0.1,1.9-0.2
		c0.6-0.1,1.1-0.3,1.5-0.6c0.4-0.2,0.8-0.5,1.1-0.8c0.3-0.3,0.5-0.6,0.7-0.9L188.2,27.8z"/>
	<path style="clip-path:url(#SVGID_00000133487626333790032900000000793724284427659956_);fill:#B23017;" d="M164.9,21.5
		c0.1-0.7,0.3-1.2,0.5-1.6c0.2-0.4,0.5-0.7,0.8-0.9c0.3-0.2,0.7-0.3,1.2-0.3c0.6,0,1.1,0.1,1.5,0.4c0.4,0.3,0.7,0.6,0.9,1.1
		c0.2,0.5,0.4,1,0.5,1.6s0.1,1.4,0.1,2.2c0,1-0.1,1.8-0.2,2.5s-0.3,1.2-0.5,1.6c-0.2,0.4-0.5,0.7-0.8,0.9c-0.3,0.2-0.7,0.3-1,0.3
		c-0.7,0-1.2-0.1-1.6-0.4s-0.7-0.6-1-1.1s-0.4-1-0.5-1.7c-0.1-0.6-0.1-1.4-0.1-2.1C164.8,23,164.8,22.2,164.9,21.5 M161.2,26.7
		c0.3,0.8,0.7,1.6,1.3,2.2c0.6,0.6,1.3,1.1,2.2,1.4c0.9,0.3,1.9,0.5,3.1,0.5c1.1,0,2-0.2,2.9-0.5c0.9-0.3,1.6-0.8,2.2-1.4
		c0.6-0.6,1.1-1.3,1.4-2.1c0.3-0.8,0.5-1.8,0.5-2.8c0-1-0.1-1.9-0.4-2.7c-0.3-0.8-0.7-1.6-1.2-2.2c-0.6-0.6-1.3-1.1-2.2-1.4
		s-1.9-0.5-3.1-0.5c-1.1,0-2,0.2-2.9,0.5s-1.6,0.8-2.2,1.4c-0.6,0.6-1.1,1.3-1.4,2.1s-0.5,1.8-0.5,2.8
		C160.7,25,160.9,25.9,161.2,26.7 M153.4,14.6c0.4,0.3,0.9,0.5,1.6,0.5s1.2-0.2,1.6-0.5c0.4-0.3,0.6-0.8,0.6-1.4
		c0-0.6-0.2-1.1-0.6-1.4c-0.4-0.3-0.9-0.5-1.6-0.5s-1.2,0.2-1.6,0.5s-0.6,0.8-0.6,1.4C152.8,13.8,153,14.3,153.4,14.6 M158.6,29.5
		c-0.2-0.1-0.5-0.3-0.8-0.4c-0.3-0.1-0.6-0.2-0.9-0.3V17.2H156c-0.3,0-0.7,0.1-1.1,0.1c-0.4,0.1-0.8,0.1-1.3,0.2
		c-0.4,0.1-0.8,0.2-1.2,0.3s-0.7,0.2-1,0.3v1l1.7,0.2v9.6c-0.3,0.1-0.6,0.2-0.9,0.3c-0.3,0.1-0.5,0.2-0.8,0.4v1h7.2V29.5z
		 M148.9,27.8c-0.3,0.2-0.7,0.5-1.1,0.6c-0.5,0.2-1,0.3-1.6,0.3c-0.7,0-1.2-0.1-1.7-0.4c-0.5-0.3-0.9-0.6-1.2-1
		c-0.3-0.4-0.6-1-0.7-1.6c-0.2-0.6-0.2-1.3-0.2-2c0-1,0.1-1.8,0.2-2.4c0.1-0.7,0.3-1.2,0.5-1.6c0.2-0.4,0.5-0.7,0.8-0.8
		c0.3-0.2,0.7-0.2,1.2-0.2c0.3,0,0.5,0,0.6,0.1c0.1,0,0.3,0.1,0.4,0.2l1.1,3.1h1.3c0.1-0.2,0.2-0.5,0.3-0.8c0.1-0.3,0.2-0.7,0.3-1
		c0.1-0.4,0.1-0.7,0.2-1.1c0.1-0.4,0.1-0.7,0.1-1c-0.5-0.2-1.1-0.5-1.8-0.6c-0.7-0.2-1.5-0.3-2.3-0.3c-2.2,0-3.9,0.6-5.1,1.8
		c-1.2,1.2-1.8,2.9-1.8,5.1c0,1,0.1,2,0.4,2.8c0.3,0.8,0.7,1.6,1.2,2.2c0.5,0.6,1.2,1.1,2,1.4c0.8,0.3,1.8,0.5,3,0.5
		c0.5,0,1.1-0.1,1.5-0.2s0.9-0.3,1.3-0.5c0.4-0.2,0.7-0.5,1-0.8c0.3-0.3,0.5-0.6,0.6-0.9L148.9,27.8z M136.5,29.5
		c-0.5-0.3-1-0.5-1.7-0.6v-6.2c0-1.1-0.1-2-0.3-2.7c-0.2-0.7-0.5-1.3-0.9-1.7c-0.4-0.4-0.8-0.7-1.4-0.9c-0.5-0.2-1.1-0.2-1.8-0.2
		c-1,0-1.9,0.3-2.7,0.8s-1.3,1.2-1.6,1.9h0v-2.7h-0.9c-0.4,0-0.8,0.1-1.2,0.1c-0.4,0.1-0.9,0.1-1.3,0.2c-0.4,0.1-0.8,0.2-1.2,0.3
		c-0.4,0.1-0.7,0.2-0.9,0.3v1l1.7,0.2v9.6c-0.7,0.2-1.3,0.4-1.7,0.6v1h6.9v-1c-0.2-0.2-0.5-0.3-0.7-0.4c-0.2-0.1-0.5-0.2-0.7-0.2
		v-7.2c0.2-0.7,0.6-1.3,1.1-1.7c0.5-0.4,1-0.6,1.7-0.6c0.8,0,1.4,0.3,1.7,0.9c0.3,0.6,0.5,1.5,0.5,2.6v6.1c-0.3,0.1-0.6,0.2-0.8,0.3
		c-0.2,0.1-0.4,0.2-0.7,0.3v1h6.9V29.5z M110,28.2c-0.3-0.4-0.5-0.9-0.5-1.5c0-0.4,0.1-0.8,0.2-1.1c0.1-0.3,0.3-0.6,0.6-0.8
		c0.3-0.2,0.7-0.3,1.2-0.4c0.5-0.1,1.2-0.1,2-0.2v2.6c-0.1,0.2-0.1,0.4-0.2,0.6c-0.1,0.2-0.2,0.4-0.4,0.6c-0.2,0.2-0.4,0.4-0.7,0.5
		s-0.6,0.2-0.9,0.2C110.7,28.7,110.3,28.5,110,28.2 M117.2,24.1c0-0.8,0.1-1.8,0.1-2.8c0-0.6-0.1-1.1-0.2-1.6
		c-0.1-0.5-0.4-0.9-0.7-1.3c-0.4-0.4-0.8-0.7-1.5-0.9c-0.6-0.2-1.4-0.3-2.4-0.3c-1.2,0-2.3,0.1-3.3,0.4c-1,0.3-1.9,0.6-2.5,1.1
		c0,0.3,0.1,0.6,0.2,0.9c0.1,0.3,0.2,0.6,0.3,0.9c0.1,0.3,0.2,0.6,0.4,0.9c0.1,0.3,0.3,0.5,0.4,0.7h1.1l1.2-3.1
		c0.4-0.2,0.9-0.3,1.5-0.3c0.9,0,1.4,0.3,1.7,1c0.3,0.7,0.3,1.8,0.2,3.3c-1.4,0.1-2.6,0.2-3.6,0.3c-1,0.2-1.8,0.4-2.4,0.7
		c-0.6,0.3-1.1,0.7-1.4,1.2c-0.3,0.5-0.4,1.1-0.4,1.9c0,0.6,0.1,1.1,0.3,1.5s0.5,0.8,0.9,1.1c0.4,0.3,0.8,0.6,1.3,0.7
		c0.5,0.2,1,0.3,1.6,0.3c0.5,0,1-0.1,1.5-0.2c0.4-0.2,0.8-0.4,1.1-0.6c0.3-0.3,0.6-0.5,0.8-0.9c0.2-0.3,0.4-0.7,0.4-1h0.1
		c0,0.6,0,1.1,0.1,1.5c0,0.4,0.1,0.8,0.3,1.2h0.9c0.3,0,0.6-0.1,1-0.1c0.4-0.1,0.8-0.1,1.2-0.2c0.4-0.1,0.8-0.2,1.1-0.3
		c0.4-0.1,0.6-0.2,0.8-0.3v-0.9l-1.8-0.3c0-0.3-0.1-0.6-0.1-0.9c0-0.3,0-0.6,0-1C117.1,25.8,117.1,25,117.2,24.1 M103.6,29.5
		c-0.6-0.3-1.1-0.5-1.7-0.6V10.9H101c-0.4,0-0.8,0.1-1.2,0.1s-0.9,0.1-1.4,0.2s-0.9,0.2-1.3,0.3s-0.7,0.2-0.9,0.3v1l2,0.2v15.8
		c-0.6,0.1-1.1,0.3-1.7,0.6v1h7.2V29.5z M89.1,14.6c0.4,0.3,0.9,0.5,1.6,0.5c0.7,0,1.2-0.2,1.6-0.5c0.4-0.3,0.6-0.8,0.6-1.4
		c0-0.6-0.2-1.1-0.6-1.4c-0.4-0.3-0.9-0.5-1.6-0.5c-0.7,0-1.2,0.2-1.6,0.5s-0.6,0.8-0.6,1.4C88.5,13.8,88.7,14.3,89.1,14.6
		 M94.3,29.5c-0.2-0.1-0.5-0.3-0.8-0.4c-0.3-0.1-0.6-0.2-0.9-0.3V17.2h-0.9c-0.3,0-0.7,0.1-1.1,0.1c-0.4,0.1-0.8,0.1-1.3,0.2
		c-0.4,0.1-0.8,0.2-1.2,0.3s-0.7,0.2-1,0.3v1l1.7,0.2v9.6c-0.3,0.1-0.6,0.2-0.9,0.3c-0.3,0.1-0.5,0.2-0.8,0.4v1h7.2V29.5z
		 M75.2,20.4v-6.5c0.2,0,0.5-0.1,0.8-0.1c0.3,0,0.6,0,1,0c0.9,0,1.6,0.3,2.2,0.8c0.6,0.5,0.9,1.3,0.9,2.4c0,0.7-0.2,1.4-0.6,2
		s-1,1-1.6,1.3c-0.3,0-0.5,0.1-0.8,0.1c-0.3,0-0.6,0-0.9,0H75.2z M76,28.9c-0.3,0-0.5-0.1-0.8-0.1v-6.7h1.4c0.6,0,1.1,0,1.6,0.1
		s0.9,0.3,1.3,0.5c0.4,0.3,0.6,0.6,0.9,1s0.3,1,0.3,1.6c0,1.1-0.3,1.9-0.9,2.6c-0.6,0.6-1.5,1-2.6,1C76.6,28.9,76.2,28.9,76,28.9
		 M72.4,30.5c0.3,0,0.6,0,1,0c0.4,0,0.8,0,1.3,0.1s0.9,0,1.3,0.1s0.8,0,1.2,0c1,0,1.9-0.1,2.8-0.3c0.9-0.2,1.7-0.5,2.4-0.9
		c0.7-0.4,1.3-1,1.7-1.7c0.4-0.7,0.6-1.5,0.6-2.4c0-0.7-0.1-1.4-0.4-1.9c-0.3-0.5-0.7-1-1.1-1.4c-0.5-0.4-1-0.6-1.5-0.8
		c-0.6-0.2-1.1-0.3-1.7-0.4v-0.1c0.6-0.1,1.1-0.3,1.5-0.5c0.5-0.2,0.9-0.5,1.2-0.9c0.4-0.4,0.6-0.8,0.8-1.3c0.2-0.5,0.3-1,0.3-1.5
		c0-0.9-0.2-1.6-0.5-2.2c-0.4-0.6-0.8-1-1.5-1.3s-1.3-0.5-2.1-0.6c-0.8-0.1-1.6-0.2-2.4-0.2c-0.8,0-1.4,0-2,0.1
		c-0.6,0.1-1.2,0.1-1.9,0.1h-4.2v1c0.3,0.2,0.7,0.3,1,0.5c0.4,0.1,0.7,0.2,1.1,0.3v14.7c-0.3,0-0.7,0.1-1.1,0.3
		c-0.4,0.1-0.7,0.3-1.1,0.5v1H72.4z"/>
	<path style="clip-path:url(#SVGID_00000133487626333790032900000000793724284427659956_);fill:#8296B9;" d="M28.6,5.9
		C15.7,5.9,5.3,16.3,5.3,29.2c0,12.8,10.5,23.3,23.3,23.3c12.8,0,23.3-10.5,23.3-23.3C51.9,16.3,41.4,5.9,28.6,5.9 M28.6,55.8
		C13.9,55.8,2,43.9,2,29.2C2,14.5,13.9,2.6,28.6,2.6s26.6,11.9,26.6,26.6C55.2,43.9,43.3,55.8,28.6,55.8"/>
	<path style="clip-path:url(#SVGID_00000133487626333790032900000000793724284427659956_);fill:#B23017;" d="M44.6,37.9
		c-0.1,0.2-0.4,0.3-0.8,0.4c-0.4,0.1-0.9,0.1-1.5,0.1c-2,0-3.6-0.8-4.8-2.4c-1.2-1.6-1.8-3.9-1.8-6.8c0-1.6,0.2-3,0.5-4.2
		c0.3-1.2,0.8-2.1,1.4-2.9c0.6-0.7,1.2-1.3,2-1.6c0.7-0.3,1.5-0.5,2.4-0.5c0.4,0,0.9,0,1.3,0.1c0.4,0.1,0.7,0.1,0.9,0.2l1.7,4.7h1.3
		c0.1-0.4,0.2-0.8,0.3-1.4c0.1-0.5,0.2-1.1,0.2-1.7c0.1-0.6,0.1-1.1,0.2-1.6c0-0.5,0-0.9,0-1.3c-0.7-0.3-1.6-0.6-2.7-0.8
		C44,18.1,42.8,18,41.4,18c-1.5,0-2.8,0.2-4.1,0.6c-1.3,0.4-2.5,1.1-3.5,2c-1,0.9-1.8,2.1-2.4,3.5c-0.6,1.4-0.9,3.1-0.9,5.1
		c0,2,0.3,3.7,0.8,5.1c0.5,1.4,1.3,2.6,2.3,3.5c1,0.9,2.2,1.6,3.6,2c1.4,0.4,3,0.6,4.7,0.6c1.1,0,2.3-0.1,3.3-0.3
		c1.1-0.2,2-0.5,2.7-1c0-0.4,0-0.9,0-1.4c0-0.5-0.1-1-0.1-1.6c-0.1-0.5-0.1-1-0.2-1.5c-0.1-0.5-0.2-0.9-0.2-1.2h-1.3L44.6,37.9z
		 M16.1,28v-7.7c0.3,0,0.6-0.1,0.9-0.1c0.3,0,0.7,0,1.2,0c1.1,0,2,0.3,2.6,0.9c0.7,0.6,1,1.6,1,2.9c0,0.9-0.2,1.7-0.7,2.4
		c-0.5,0.7-1.1,1.2-2,1.5c-0.3,0-0.6,0.1-1,0.1c-0.4,0-0.7,0-1.1,0H16.1z M17,38.2c-0.3,0-0.6-0.1-0.9-0.2v-8h1.6
		c0.7,0,1.4,0.1,2,0.2c0.6,0.1,1.1,0.3,1.6,0.6c0.4,0.3,0.8,0.7,1,1.2c0.2,0.5,0.4,1.2,0.4,1.9c0,1.3-0.4,2.3-1.1,3.1
		c-0.7,0.8-1.8,1.2-3.1,1.2C17.8,38.2,17.3,38.2,17,38.2 M12.7,40.1c0.3,0,0.7,0,1.2,0c0.5,0,1,0,1.5,0.1s1,0,1.6,0.1
		c0.5,0,1,0,1.4,0c1.2,0,2.3-0.1,3.4-0.4c1.1-0.2,2-0.6,2.9-1.1c0.8-0.5,1.5-1.2,2-2s0.7-1.8,0.7-2.9c0-0.9-0.2-1.7-0.5-2.3
		c-0.3-0.7-0.8-1.2-1.3-1.6c-0.5-0.4-1.1-0.8-1.8-1c-0.7-0.2-1.3-0.4-2-0.5v-0.1c0.7-0.1,1.3-0.3,1.8-0.6c0.6-0.3,1.1-0.7,1.5-1.1
		c0.4-0.4,0.8-0.9,1-1.5c0.2-0.6,0.4-1.2,0.4-1.8c0-1.1-0.2-1.9-0.7-2.6c-0.4-0.7-1-1.2-1.7-1.6c-0.7-0.4-1.6-0.6-2.5-0.8
		c-0.9-0.1-1.9-0.2-2.9-0.2c-0.9,0-1.7,0-2.4,0.1c-0.7,0.1-1.5,0.1-2.2,0.1H9v1.2c0.4,0.2,0.8,0.4,1.2,0.5c0.5,0.2,0.9,0.3,1.3,0.4
		V38c-0.4,0-0.8,0.1-1.3,0.3c-0.4,0.2-0.9,0.4-1.3,0.6v1.2H12.7z"/>
	<path style="clip-path:url(#SVGID_00000133487626333790032900000000793724284427659956_);fill:#07465D;" d="M30.1,35.8
		c0.2,0.4,0.2,1.1,0.1,1.9h-2.5c0-0.5,0.1-0.9,0.2-1.2c0.1-0.3,0.2-0.6,0.3-0.8c0.1-0.2,0.3-0.3,0.4-0.4c0.2-0.1,0.3-0.1,0.5-0.1
		C29.6,35.1,29.9,35.3,30.1,35.8 M32.1,40.6c-0.2,0.2-0.5,0.3-0.9,0.4c-0.4,0.1-0.7,0.2-1.1,0.2c-0.8,0-1.4-0.2-1.8-0.7
		c-0.4-0.5-0.6-1.1-0.6-2h4.8c0.1-0.8,0.1-1.4,0-2c-0.1-0.5-0.3-1-0.6-1.3s-0.7-0.6-1.2-0.7c-0.5-0.1-1-0.2-1.5-0.2
		c-1.2,0-2.2,0.3-2.9,1c-0.7,0.7-1,1.7-1,3c0,0.6,0.1,1.2,0.3,1.7c0.2,0.5,0.4,0.9,0.8,1.3c0.3,0.4,0.7,0.6,1.2,0.8
		c0.5,0.2,1.1,0.3,1.7,0.3c0.4,0,0.8,0,1.1-0.1c0.3-0.1,0.7-0.2,0.9-0.3s0.5-0.3,0.7-0.5c0.2-0.2,0.3-0.4,0.4-0.5L32.1,40.6z"/>
</g>
</svg>
