<?xml version="1.0" encoding="utf-8"?>
<!-- Generator: Adobe Illustrator 26.3.1, SVG Export Plug-In . SVG Version: 6.00 Build 0)  -->
<svg version="1.1" id="Livello_1" xmlns="http://www.w3.org/2000/svg" xmlns:xlink="http://www.w3.org/1999/xlink" x="0px" y="0px"
	 viewBox="0 0 275.8 59.4" style="enable-background:new 0 0 275.8 59.4;" xml:space="preserve">
<style type="text/css">
	.st0{clip-path:url(#SVGID_00000134221798029846592600000004518267246079892878_);fill:#8FBD5C;}
	.st1{clip-path:url(#SVGID_00000134221798029846592600000004518267246079892878_);fill:#004661;}
</style>
<g>
	<defs>
		<rect id="SVGID_1_" x="2.6" y="3.1" width="267.3" height="53.2"/>
	</defs>
	<clipPath id="SVGID_00000102532250344330194940000002763628627572571325_">
		<use xlink:href="#SVGID_1_"  style="overflow:visible;"/>
	</clipPath>
	<path style="clip-path:url(#SVGID_00000102532250344330194940000002763628627572571325_);fill:#8FBD5C;" d="M29.2,6.4
		C16.3,6.4,5.9,16.9,5.9,29.7C5.9,42.6,16.3,53,29.2,53C42,53,52.5,42.6,52.5,29.7C52.5,16.9,42,6.4,29.2,6.4 M29.2,56.3
		c-14.7,0-26.6-11.9-26.6-26.6C2.6,15,14.5,3.1,29.2,3.1S55.8,15,55.8,29.7C55.8,44.4,43.8,56.3,29.2,56.3"/>
	<path style="clip-path:url(#SVGID_00000102532250344330194940000002763628627572571325_);fill:#004661;" d="M44.7,38.5
		c-0.4-0.2-0.8-0.3-1.2-0.5s-0.9-0.2-1.4-0.3V22.1h3.2l1.8,4.7h1.1c0.1-0.4,0.1-0.9,0.2-1.4c0.1-0.6,0.1-1.1,0.2-1.7
		s0.1-1.2,0.1-1.8c0-0.6,0.1-1.1,0.1-1.5H31.3c0,0.4,0,0.9,0.1,1.5c0,0.6,0.1,1.2,0.1,1.8c0.1,0.6,0.1,1.2,0.2,1.8
		c0.1,0.6,0.1,1,0.2,1.4H33l1.8-4.7H38v15.6c-0.5,0.1-0.9,0.2-1.4,0.3c-0.5,0.2-0.9,0.3-1.2,0.5v1h9.4V38.5z M10.4,21.3
		c0.3,0.2,0.7,0.4,1.1,0.5c0.4,0.1,0.8,0.2,1.2,0.3v10.7c0,2.4,0.7,4.2,2,5.3s3.2,1.6,5.7,1.6c2.2,0,4-0.6,5.2-1.8
		c1.2-1.2,1.9-3,1.9-5.3V22.3c0.4-0.1,0.8-0.2,1.2-0.4c0.4-0.1,0.8-0.3,1.1-0.6v-1h-6.8v1c0.3,0.2,0.7,0.4,1.1,0.5
		c0.4,0.2,0.9,0.3,1.3,0.4v10.3c0,0.9-0.1,1.7-0.3,2.3c-0.2,0.6-0.5,1.1-0.9,1.5c-0.4,0.4-0.8,0.7-1.3,0.8c-0.5,0.2-1.1,0.3-1.7,0.3
		c-0.7,0-1.3-0.1-1.8-0.2c-0.5-0.2-1-0.4-1.4-0.8c-0.4-0.4-0.7-0.9-0.9-1.5c-0.2-0.6-0.3-1.4-0.3-2.2V22.1c0.8-0.1,1.5-0.4,2.1-0.8
		v-1h-8.4V21.3z"/>
	<path style="clip-path:url(#SVGID_00000102532250344330194940000002763628627572571325_);fill:#8FBD5C;" d="M266.7,42.2
		c0.7,0,1.2,0.4,1.4,1.1c0.2,0.7,0.3,1.5,0.1,2.4c-0.1,0.8-0.4,1.5-0.8,2c-0.4,0.5-0.9,0.8-1.4,0.8c-0.7,0-1.2-0.4-1.4-1.1
		c-0.3-0.8-0.3-1.6-0.2-2.4c0.2-1.1,0.6-1.9,1.1-2.3C266,42.3,266.3,42.2,266.7,42.2 M263.1,45.2c-0.2,1,0,1.9,0.5,2.6
		c0.5,0.7,1.3,1,2.2,1c1,0,1.8-0.4,2.6-1.1c0.7-0.7,1.2-1.6,1.4-2.5c0.2-1.1,0-1.9-0.5-2.5c-0.5-0.6-1.3-1-2.2-1c-1,0-1.8,0.3-2.6,1
		C263.7,43.4,263.3,44.2,263.1,45.2 M261.5,41.8l0.3-1.8c0-0.1,0-0.1,0-0.1c0,0,0,0-0.1,0c-0.7,0.7-1.1,1.2-1.3,1.4
		c-0.2,0.2-0.5,0.4-0.8,0.7c-0.1,0.1-0.2,0.2-0.2,0.2c0,0,0,0.1-0.1,0.1c0,0,0,0,0,0.1c0,0,0,0,0,0h0.8l-0.8,4.4
		c-0.1,0.5-0.1,0.9,0,1.2c0.1,0.5,0.5,0.8,1,0.8c0.3,0,0.5-0.1,0.9-0.2c0.3-0.1,0.6-0.4,0.9-0.7l0.2-0.2l-0.2-0.2
		c-0.2,0.2-0.4,0.3-0.5,0.4c-0.1,0.1-0.3,0.1-0.5,0.1c-0.3,0-0.5-0.2-0.6-0.5c0-0.2,0-0.5,0.1-0.8l0.8-4.2h1.5l0.1-0.5H261.5z
		 M257.3,41.8l0.3-1.8c0-0.1,0-0.1,0-0.1c0,0,0,0-0.1,0c-0.7,0.7-1.1,1.2-1.3,1.4c-0.2,0.2-0.5,0.4-0.8,0.7
		c-0.1,0.1-0.2,0.2-0.2,0.2c0,0,0,0.1-0.1,0.1c0,0,0,0,0,0.1c0,0,0,0,0,0h0.8l-0.8,4.4c-0.1,0.5-0.1,0.9,0,1.2
		c0.1,0.5,0.5,0.8,1,0.8c0.3,0,0.5-0.1,0.9-0.2c0.3-0.1,0.6-0.4,0.9-0.7l0.2-0.2l-0.2-0.2c-0.2,0.2-0.4,0.3-0.5,0.4
		c-0.1,0.1-0.3,0.1-0.5,0.1c-0.3,0-0.5-0.2-0.6-0.5c0-0.2,0-0.5,0.1-0.8l0.8-4.2h1.5l0.1-0.5H257.3z M251.2,42.3
		c0.6,0,0.9,0.2,1.1,0.6c0.1,0.2,0.1,0.6,0.1,1.1h-3.1c0.1-0.4,0.3-0.7,0.5-1C250.2,42.5,250.7,42.3,251.2,42.3 M251.8,41.7
		c-0.9,0-1.8,0.4-2.5,1.1c-0.7,0.7-1.1,1.6-1.3,2.5c-0.2,0.9-0.1,1.7,0.3,2.4c0.4,0.7,1,1,1.9,1c0.8,0,1.5-0.3,2.2-0.8
		c0.6-0.5,1.1-1.1,1.4-1.7l-0.2-0.1c-0.4,0.5-0.8,0.9-1.2,1.1c-0.4,0.3-0.9,0.4-1.4,0.4c-0.6,0-1.1-0.3-1.5-0.8s-0.5-1.3-0.3-2.5
		h4.7c0.2-0.9,0-1.5-0.4-2C253,42,252.5,41.7,251.8,41.7 M243.6,47.9c-0.7,0-1.2-0.3-1.5-0.9c-0.3-0.6-0.3-1.3-0.2-2.1
		c0.1-0.8,0.4-1.5,0.9-2c0.4-0.5,1-0.8,1.6-0.8c0.3,0,0.6,0.1,0.9,0.4c0.3,0.3,0.4,0.7,0.3,1.3L245,47c0,0.2-0.2,0.4-0.5,0.6
		C244.3,47.8,243.9,47.9,243.6,47.9 M244.4,41.7c-0.9,0-1.7,0.4-2.5,1.1c-0.8,0.8-1.2,1.7-1.4,2.7c-0.1,0.8,0,1.6,0.4,2.2
		c0.4,0.6,1,1,1.8,1c0.5,0,0.9-0.1,1.3-0.3c0.2-0.1,0.5-0.3,0.8-0.6l-0.2,0.9l0,0.1l1.2-0.4c0.7-0.2,1.1-0.4,1.1-0.4l0-0.2
		c-0.1,0-0.1,0-0.2,0c-0.1,0-0.1,0-0.2,0c-0.3,0-0.5-0.1-0.6-0.2s-0.1-0.3,0-0.7l1.1-6c0.1-0.3,0.1-0.6,0.2-0.9
		c0.1-0.3,0.1-0.6,0.2-0.9l0.1-0.8l0,0c-0.2,0.1-0.3,0.1-0.4,0.1c-0.2,0.1-0.4,0.1-0.6,0.2c-0.2,0.1-0.5,0.1-0.7,0.2l-0.6,0.2l0,0.2
		c0.2,0,0.3,0,0.3,0c0,0,0.1,0,0.2,0c0.2,0,0.4,0.1,0.4,0.2c0,0.1,0,0.3,0,0.6l-0.4,2.3c-0.1-0.2-0.3-0.3-0.5-0.4
		C245.1,41.7,244.7,41.7,244.4,41.7 M237.1,42.3c0.6,0,0.9,0.2,1.1,0.6c0.1,0.2,0.1,0.6,0.1,1.1h-3.1c0.1-0.4,0.3-0.7,0.5-1
		C236.1,42.5,236.5,42.3,237.1,42.3 M237.6,41.7c-0.9,0-1.8,0.4-2.5,1.1c-0.7,0.7-1.1,1.6-1.3,2.5c-0.2,0.9-0.1,1.7,0.3,2.4
		c0.4,0.7,1,1,1.9,1c0.8,0,1.5-0.3,2.2-0.8c0.6-0.5,1.1-1.1,1.4-1.7l-0.2-0.1c-0.4,0.5-0.8,0.9-1.2,1.1c-0.4,0.3-0.9,0.4-1.4,0.4
		c-0.6,0-1.1-0.3-1.5-0.8s-0.5-1.3-0.3-2.5h4.7c0.2-0.9,0-1.5-0.4-2C238.9,42,238.3,41.7,237.6,41.7 M225.7,48.6h3.2l0-0.2
		c-0.3,0-0.6-0.1-0.7-0.2c-0.1-0.1-0.2-0.4-0.1-0.7l0.7-4.1c0.3-0.3,0.6-0.4,0.7-0.6c0.3-0.2,0.6-0.3,0.9-0.3c0.4,0,0.7,0.1,0.8,0.4
		c0.1,0.3,0.1,0.6,0,1l-0.6,3.1c-0.1,0.5-0.2,0.8-0.4,1s-0.4,0.2-0.8,0.3l0,0.2h3.1l0-0.2c-0.3,0-0.5-0.1-0.7-0.2
		c-0.1-0.2-0.1-0.4-0.1-0.8l0.6-3.4c0.2-1,0-1.6-0.4-2c-0.2-0.2-0.5-0.3-0.9-0.3c-0.4,0-0.8,0.1-1.2,0.4c-0.3,0.2-0.7,0.4-1.2,0.9
		l0.2-1.1c0,0,0-0.1,0-0.1c0,0,0,0-0.1,0l-0.7,0.2c-0.8,0.2-1.3,0.4-1.5,0.5l0,0.3c0.1,0,0.1,0,0.2,0c0,0,0.1,0,0.1,0
		c0.3,0,0.5,0.1,0.5,0.3c0,0.1,0,0.3,0,0.7l-0.7,3.7c-0.1,0.4-0.2,0.7-0.4,0.9c-0.2,0.1-0.4,0.2-0.8,0.3L225.7,48.6z M222.9,42.3
		c0.6,0,0.9,0.2,1.1,0.6c0.1,0.2,0.1,0.6,0.1,1.1H221c0.1-0.4,0.3-0.7,0.5-1C221.9,42.5,222.4,42.3,222.9,42.3 M223.4,41.7
		c-0.9,0-1.8,0.4-2.5,1.1s-1.1,1.6-1.3,2.5c-0.2,0.9-0.1,1.7,0.3,2.4c0.4,0.7,1,1,1.9,1c0.8,0,1.5-0.3,2.2-0.8
		c0.6-0.5,1.1-1.1,1.4-1.7l-0.2-0.1c-0.4,0.5-0.8,0.9-1.2,1.1c-0.4,0.3-0.9,0.4-1.4,0.4c-0.6,0-1.1-0.3-1.5-0.8
		c-0.4-0.5-0.5-1.3-0.3-2.5h4.7c0.2-0.9,0-1.5-0.4-2C224.7,42,224.1,41.7,223.4,41.7 M213.8,47.5l0.7-3.7c0.1-0.3,0.3-0.6,0.6-0.8
		c0.4-0.2,0.7-0.3,1.1-0.3c0.7,0,1.1,0.3,1.3,0.9c0.2,0.6,0.2,1.3,0.1,2c-0.1,0.7-0.4,1.3-0.8,1.9c-0.4,0.5-1,0.8-1.6,0.8
		c-0.3,0-0.5-0.1-0.9-0.2C213.9,48,213.8,47.8,213.8,47.5 M213.3,39.2c0.3,0,0.5,0.1,0.5,0.2c0.1,0.1,0.1,0.3,0,0.6l-1.4,7.7
		c0,0.2,0.2,0.4,0.7,0.6c0.5,0.2,1,0.3,1.5,0.3c1.1,0,2-0.4,2.8-1.1s1.3-1.6,1.5-2.7c0.2-1,0.1-1.8-0.3-2.4c-0.4-0.6-1-0.9-1.7-0.9
		c-0.6,0-1.1,0.2-1.6,0.5c-0.3,0.2-0.5,0.4-0.7,0.7l0.8-4.5c0,0,0-0.1,0-0.1c0,0-0.3,0.1-0.8,0.2c-0.5,0.2-1,0.3-1.6,0.4l0,0.2
		L213.3,39.2z M208.8,42.3c0.6,0,0.9,0.2,1.1,0.6c0.1,0.2,0.1,0.6,0.1,1.1h-3.1c0.1-0.4,0.3-0.7,0.5-1
		C207.7,42.5,208.2,42.3,208.8,42.3 M209.3,41.7c-0.9,0-1.8,0.4-2.5,1.1c-0.7,0.7-1.1,1.6-1.3,2.5c-0.2,0.9-0.1,1.7,0.3,2.4
		c0.4,0.7,1,1,1.9,1c0.8,0,1.5-0.3,2.2-0.8c0.6-0.5,1.1-1.1,1.4-1.7l-0.2-0.1c-0.4,0.5-0.8,0.9-1.2,1.1c-0.4,0.3-0.9,0.4-1.4,0.4
		c-0.6,0-1.1-0.3-1.5-0.8s-0.5-1.3-0.3-2.5h4.7c0.2-0.9,0-1.5-0.4-2C210.5,42,210,41.7,209.3,41.7 M194.1,48.6h4.2
		c1.1,0,2.1-0.1,2.9-0.4c0.4-0.2,0.9-0.4,1.3-0.7c0.7-0.5,1.3-1,1.7-1.7c0.4-0.7,0.7-1.4,0.8-2.1c0.4-2.1-0.2-3.5-1.8-4.3
		c-0.9-0.4-2-0.7-3.3-0.7h-4l0,0.3c0.6,0,0.9,0.1,1,0.3c0.1,0.2,0.2,0.5,0.1,1.1l-1.2,6.7c-0.1,0.6-0.2,0.9-0.4,1.1
		c-0.2,0.1-0.6,0.2-1.1,0.3L194.1,48.6z M197.1,47.4l1.3-7.6c0-0.2,0.1-0.4,0.3-0.5c0.1-0.1,0.4-0.1,0.7-0.1c1.4,0,2.4,0.3,3.1,1
		c0.8,0.8,1.1,1.9,0.8,3.5c-0.3,1.7-1.1,2.9-2.4,3.7c-0.8,0.5-1.8,0.7-3,0.7c-0.4,0-0.6,0-0.7-0.1C197.1,47.8,197.1,47.7,197.1,47.4
		 M187.5,42.3c0.6,0,0.9,0.2,1.1,0.6c0.1,0.2,0.1,0.6,0.1,1.1h-3.1c0.1-0.4,0.3-0.7,0.5-1C186.5,42.5,187,42.3,187.5,42.3 M188,41.7
		c-0.9,0-1.8,0.4-2.5,1.1c-0.7,0.7-1.1,1.6-1.3,2.5c-0.2,0.9-0.1,1.7,0.3,2.4c0.4,0.7,1,1,1.9,1c0.8,0,1.5-0.3,2.2-0.8
		c0.6-0.5,1.1-1.1,1.4-1.7l-0.2-0.1c-0.4,0.5-0.8,0.9-1.2,1.1c-0.4,0.3-0.9,0.4-1.4,0.4c-0.6,0-1.1-0.3-1.5-0.8
		c-0.4-0.5-0.5-1.3-0.3-2.5h4.7c0.2-0.9,0-1.5-0.4-2C189.3,42,188.7,41.7,188,41.7 M175.4,51.9h3.6l0-0.3c-0.5,0-0.9-0.1-1-0.2
		c-0.1-0.1-0.2-0.4-0.1-0.9l0.4-2.4c0.2,0.3,0.5,0.5,0.8,0.6c0.2,0.1,0.4,0.1,0.7,0.1c0.9,0,1.7-0.4,2.4-1.2
		c0.7-0.8,1.2-1.7,1.3-2.7c0.2-1,0.1-1.8-0.3-2.4c-0.4-0.6-0.9-0.9-1.6-0.9c-0.5,0-0.9,0.1-1.4,0.4c-0.3,0.2-0.6,0.4-1,0.7l0.2-1
		c0,0,0-0.1,0-0.1c0,0,0,0,0,0c-1,0.3-1.5,0.5-1.6,0.5l-0.7,0.2l0,0.2c0.1,0,0.2,0,0.2,0c0,0,0.1,0,0.2,0c0.2,0,0.4,0.1,0.5,0.2
		c0.1,0.1,0.1,0.3,0,0.7l-1.2,7c-0.1,0.4-0.2,0.6-0.3,0.8c-0.2,0.2-0.5,0.3-0.9,0.3L175.4,51.9z M178.5,47.2l0.6-3.7
		c0-0.2,0.2-0.4,0.6-0.7c0.3-0.2,0.7-0.3,1-0.3c0.5,0,0.9,0.2,1.2,0.7s0.4,1.1,0.2,2c-0.2,0.9-0.5,1.7-0.9,2.2
		c-0.5,0.5-1,0.8-1.5,0.8c-0.3,0-0.6-0.1-0.8-0.2C178.8,47.8,178.6,47.6,178.5,47.2 M167.9,51.9h3.6l0-0.3c-0.5,0-0.9-0.1-1-0.2
		c-0.1-0.1-0.2-0.4-0.1-0.9l0.4-2.4c0.2,0.3,0.5,0.5,0.8,0.6c0.2,0.1,0.4,0.1,0.7,0.1c0.9,0,1.7-0.4,2.4-1.2
		c0.7-0.8,1.2-1.7,1.3-2.7c0.2-1,0.1-1.8-0.3-2.4c-0.4-0.6-0.9-0.9-1.6-0.9c-0.5,0-0.9,0.1-1.4,0.4c-0.3,0.2-0.6,0.4-1,0.7l0.2-1
		c0,0,0-0.1,0-0.1c0,0,0,0,0,0c-1,0.3-1.5,0.5-1.6,0.5l-0.7,0.2l0,0.2c0.1,0,0.2,0,0.2,0c0,0,0.1,0,0.2,0c0.2,0,0.4,0.1,0.5,0.2
		c0.1,0.1,0.1,0.3,0,0.7l-1.2,7c-0.1,0.4-0.2,0.6-0.3,0.8c-0.2,0.2-0.5,0.3-0.9,0.3L167.9,51.9z M171,47.2l0.6-3.7
		c0-0.2,0.2-0.4,0.6-0.7c0.3-0.2,0.7-0.3,1-0.3c0.5,0,0.9,0.2,1.2,0.7s0.4,1.1,0.2,2c-0.2,0.9-0.5,1.7-0.9,2.2
		c-0.5,0.5-1,0.8-1.5,0.8c-0.3,0-0.6-0.1-0.8-0.2C171.3,47.8,171.1,47.6,171,47.2 M165.9,42.3c0.6,0,0.9,0.2,1.1,0.6
		c0.1,0.2,0.1,0.6,0.1,1.1H164c0.1-0.4,0.3-0.7,0.5-1C164.8,42.5,165.3,42.3,165.9,42.3 M166.4,41.7c-0.9,0-1.8,0.4-2.5,1.1
		c-0.7,0.7-1.1,1.6-1.3,2.5c-0.2,0.9-0.1,1.7,0.3,2.4c0.4,0.7,1,1,1.9,1c0.8,0,1.5-0.3,2.2-0.8c0.6-0.5,1.1-1.1,1.4-1.7l-0.2-0.1
		c-0.4,0.5-0.8,0.9-1.2,1.1c-0.4,0.3-0.9,0.4-1.4,0.4c-0.6,0-1.1-0.3-1.5-0.8s-0.5-1.3-0.3-2.5h4.7c0.2-0.9,0-1.5-0.4-2
		C167.6,42,167.1,41.7,166.4,41.7 M156.7,48.7h0.2c0-0.1,0.1-0.1,0.1-0.1c0.1,0,0.1-0.1,0.2-0.1c0.1,0,0.3,0,0.6,0.1
		c0.4,0.1,0.7,0.1,1,0.1c0.7,0,1.3-0.2,1.8-0.5c0.5-0.4,0.8-0.8,0.9-1.4c0.1-0.8-0.3-1.4-1.2-2l-0.9-0.5c-0.6-0.4-0.9-0.8-0.8-1.2
		c0.1-0.3,0.2-0.5,0.4-0.7c0.2-0.2,0.5-0.3,0.9-0.3c0.6,0,1,0.2,1.2,0.7c0.1,0.3,0.2,0.6,0.2,1.1h0.2l0.3-2h-0.2
		c0,0.1-0.1,0.1-0.1,0.1c0,0-0.1,0-0.2,0c0,0-0.2,0-0.5-0.1c-0.3-0.1-0.6-0.1-0.8-0.1c-0.6,0-1.1,0.2-1.6,0.5
		c-0.5,0.4-0.7,0.8-0.8,1.3c-0.1,0.4,0,0.8,0.2,1.2c0.2,0.3,0.6,0.7,1.2,1l0.7,0.5c0.3,0.2,0.5,0.4,0.5,0.6c0.1,0.2,0.1,0.4,0.1,0.6
		c-0.1,0.3-0.2,0.6-0.5,0.8c-0.2,0.2-0.6,0.3-0.9,0.3c-0.7,0-1.1-0.3-1.4-0.8c-0.1-0.3-0.2-0.7-0.2-1.3h-0.2L156.7,48.7z
		 M149.7,41.8l0,0.2c0.3,0,0.6,0.1,0.7,0.2c0.1,0.1,0.2,0.4,0.1,0.8l-0.7,3.8c-0.1,0.7,0,1.2,0.3,1.5c0.3,0.3,0.7,0.5,1.1,0.5
		c0.5,0,0.9-0.1,1.4-0.4c0.3-0.2,0.7-0.5,1.1-0.9l-0.2,1.2c0,0,0,0.1,0,0.1c0,0,0,0,0,0c0.5-0.2,0.8-0.3,0.9-0.3
		c0.3-0.1,0.5-0.2,0.7-0.2c0.1,0,0.3-0.1,0.6-0.2l0-0.2c-0.4,0-0.6,0-0.7-0.2c-0.1-0.1-0.1-0.4-0.1-0.7l0.9-5.2h-2.4l0,0.2
		c0.4,0,0.7,0.1,0.8,0.2c0.1,0.1,0.2,0.4,0.1,0.7l-0.7,4c-0.2,0.2-0.4,0.4-0.6,0.5c-0.4,0.2-0.7,0.3-1,0.3c-0.5,0-0.8-0.2-0.9-0.6
		c-0.1-0.2-0.1-0.5,0-0.8l0.8-4.7H149.7z M144.5,48.6h3.6l0-0.2c-0.5,0-0.8-0.1-0.9-0.3c-0.1-0.1-0.1-0.5,0-1l0.9-5.3
		c0,0,0-0.1,0-0.1c0,0-0.1,0-0.3,0.1c-0.4,0.1-1,0.4-1.9,0.6l-0.3,0.1l0,0.2c0.3-0.1,0.4-0.1,0.5-0.1c0.1,0,0.1,0,0.2,0
		c0.2,0,0.4,0.1,0.4,0.3c0,0.1,0,0.3-0.1,0.7l-0.6,3.5c-0.1,0.6-0.2,0.9-0.4,1.1c-0.2,0.1-0.5,0.2-1,0.3L144.5,48.6z M147.1,39.1
		c0,0.2,0,0.4,0.1,0.5c0.1,0.1,0.3,0.2,0.5,0.2c0.2,0,0.4-0.1,0.6-0.2c0.2-0.1,0.3-0.3,0.3-0.5c0-0.2,0-0.4-0.1-0.5
		c-0.1-0.1-0.3-0.2-0.5-0.2c-0.2,0-0.4,0.1-0.6,0.2C147.3,38.7,147.2,38.9,147.1,39.1 M140.7,38.5c-1.6,0-3,0.5-4.2,1.6
		c-1.1,1-1.7,2.2-2,3.6c-0.3,1.6,0.1,2.9,1,3.8c0.9,0.9,2,1.3,3.5,1.3c0.8,0,1.7-0.1,2.6-0.4c0.9-0.3,1.4-0.5,1.4-0.7l0.5-3
		c0.1-0.5,0.2-0.8,0.5-1c0.1-0.1,0.4-0.2,0.8-0.2l0-0.3h-3.8l0,0.3c0.5,0,0.9,0.1,1,0.3c0.1,0.1,0.2,0.5,0.1,1.1l-0.4,2.4
		c0,0.2-0.1,0.3-0.2,0.4c-0.1,0.1-0.3,0.2-0.7,0.3c-0.2,0.1-0.5,0.1-0.7,0.2s-0.5,0.1-0.6,0.1c-1.1,0-1.9-0.4-2.5-1.2
		c-0.6-0.8-0.8-1.9-0.5-3.2c0.3-1.7,0.9-2.9,1.7-3.6c0.9-0.7,1.8-1.1,2.7-1.1c0.9,0,1.7,0.3,2.1,0.9c0.3,0.4,0.5,0.9,0.7,1.6h0.3
		l0.4-3.2h-0.3c-0.1,0.2-0.2,0.3-0.3,0.4c-0.1,0.1-0.3,0.1-0.5,0.1c-0.1,0-0.4-0.1-0.9-0.2C141.9,38.6,141.3,38.5,140.7,38.5
		 M123.8,47.1c-0.1,0.5,0,0.8,0.3,1.1c0.3,0.3,0.6,0.4,1,0.4c0.4,0,0.8-0.1,1.3-0.4c0.3-0.2,0.7-0.4,1.1-0.7c0,0.3,0,0.6,0.1,0.8
		s0.3,0.3,0.7,0.3c0.3,0,0.6-0.1,0.9-0.3c0.2-0.1,0.4-0.3,0.6-0.5l0.1-0.4c-0.2,0.1-0.3,0.2-0.4,0.2c-0.1,0-0.2,0.1-0.3,0.1
		c-0.2,0-0.3-0.1-0.3-0.3c0-0.1,0-0.3,0-0.6l0.5-2.9c0.1-0.6,0.1-1.1,0-1.5c-0.2-0.6-0.8-0.9-1.8-0.9c-0.8,0-1.5,0.2-2,0.6
		c-0.5,0.4-0.8,0.7-0.8,1.1c0,0.2,0,0.3,0.1,0.5c0.1,0.1,0.2,0.2,0.5,0.2c0.1,0,0.3,0,0.4-0.1c0.2-0.1,0.3-0.3,0.4-0.6
		c0,0,0-0.1,0-0.3c0-0.1,0-0.2,0-0.3c0-0.2,0.2-0.4,0.4-0.5c0.2-0.1,0.5-0.2,0.7-0.2c0.5,0,0.8,0.2,0.9,0.5c0.1,0.2,0.1,0.5,0,1
		l-0.1,0.6c-1.4,0.5-2.4,0.9-2.9,1.2C124.4,45.8,123.9,46.4,123.8,47.1 M127.6,46.9c-0.1,0.3-0.2,0.5-0.6,0.7
		c-0.3,0.2-0.7,0.3-1,0.3c-0.2,0-0.4-0.1-0.6-0.2c-0.3-0.2-0.3-0.5-0.3-1c0.1-0.6,0.5-1,1.3-1.5c0.4-0.2,0.9-0.4,1.5-0.6L127.6,46.9
		z M119.4,47.9c-0.7,0-1.2-0.3-1.5-0.9c-0.3-0.6-0.3-1.3-0.2-2.1c0.1-0.8,0.4-1.5,0.9-2c0.4-0.5,1-0.8,1.6-0.8
		c0.3,0,0.6,0.1,0.9,0.4c0.3,0.3,0.4,0.7,0.3,1.3l-0.6,3.1c0,0.2-0.2,0.4-0.5,0.6C120.1,47.8,119.8,47.9,119.4,47.9 M120.3,41.7
		c-0.9,0-1.7,0.4-2.5,1.1c-0.8,0.8-1.2,1.7-1.4,2.7c-0.1,0.8,0,1.6,0.4,2.2c0.4,0.6,1,1,1.8,1c0.5,0,0.9-0.1,1.3-0.3
		c0.2-0.1,0.5-0.3,0.8-0.6l-0.2,0.9l0,0.1l1.2-0.4c0.7-0.2,1.1-0.4,1.1-0.4l0-0.2c-0.1,0-0.1,0-0.2,0c-0.1,0-0.1,0-0.2,0
		c-0.3,0-0.5-0.1-0.6-0.2c-0.1-0.1-0.1-0.3,0-0.7l1.1-6c0.1-0.3,0.1-0.6,0.2-0.9c0.1-0.3,0.1-0.6,0.2-0.9l0.2-0.8l0,0
		c-0.2,0.1-0.3,0.1-0.4,0.1c-0.2,0.1-0.4,0.1-0.6,0.2c-0.2,0.1-0.5,0.1-0.7,0.2l-0.6,0.2l0,0.2c0.2,0,0.3,0,0.3,0c0,0,0.1,0,0.2,0
		c0.2,0,0.4,0.1,0.4,0.2c0,0.1,0,0.3,0,0.6l-0.4,2.3c-0.1-0.2-0.3-0.3-0.5-0.4C120.9,41.7,120.6,41.7,120.3,41.7 M108.9,42.2
		c0.7,0,1.2,0.4,1.4,1.1c0.2,0.7,0.3,1.5,0.1,2.4c-0.1,0.8-0.4,1.5-0.8,2c-0.4,0.5-0.8,0.8-1.4,0.8c-0.7,0-1.2-0.4-1.4-1.1
		c-0.3-0.8-0.3-1.6-0.2-2.4c0.2-1.1,0.6-1.9,1.1-2.3C108.1,42.3,108.5,42.2,108.9,42.2 M105.2,45.2c-0.2,1,0,1.9,0.5,2.6
		s1.3,1,2.2,1c1,0,1.8-0.4,2.6-1.1c0.7-0.7,1.2-1.6,1.4-2.5c0.2-1.1,0-1.9-0.5-2.5c-0.5-0.6-1.3-1-2.2-1c-1,0-1.8,0.3-2.6,1
		C105.9,43.4,105.4,44.2,105.2,45.2 M103.6,41.8l0.3-1.8c0-0.1,0-0.1,0-0.1c0,0,0,0-0.1,0c-0.7,0.7-1.1,1.2-1.3,1.4
		c-0.2,0.2-0.5,0.4-0.8,0.7c-0.1,0.1-0.2,0.2-0.2,0.2c0,0,0,0.1-0.1,0.1c0,0,0,0,0,0.1c0,0,0,0,0,0h0.8l-0.8,4.4
		c-0.1,0.5-0.1,0.9,0,1.2c0.1,0.5,0.5,0.8,1,0.8c0.3,0,0.5-0.1,0.9-0.2c0.3-0.1,0.6-0.4,0.9-0.7l0.2-0.2l-0.2-0.2
		c-0.2,0.2-0.4,0.3-0.5,0.4c-0.1,0.1-0.3,0.1-0.5,0.1c-0.3,0-0.5-0.2-0.6-0.5c0-0.2,0-0.5,0.1-0.8l0.8-4.2h1.5l0.1-0.5H103.6z
		 M99.4,41.8l0.3-1.8c0-0.1,0-0.1,0-0.1c0,0,0,0-0.1,0c-0.7,0.7-1.1,1.2-1.3,1.4c-0.2,0.2-0.5,0.4-0.8,0.7c-0.1,0.1-0.2,0.2-0.2,0.2
		c0,0,0,0.1-0.1,0.1c0,0,0,0,0,0.1c0,0,0,0,0,0h0.8l-0.8,4.4c-0.1,0.5-0.1,0.9,0,1.2c0.1,0.5,0.5,0.8,1,0.8c0.3,0,0.5-0.1,0.9-0.2
		c0.3-0.1,0.6-0.4,0.9-0.7l0.2-0.2l-0.2-0.2c-0.2,0.2-0.4,0.3-0.5,0.4c-0.1,0.1-0.3,0.1-0.5,0.1c-0.3,0-0.5-0.2-0.6-0.5
		c0-0.2,0-0.5,0.1-0.8l0.8-4.2h1.5l0.1-0.5H99.4z M93.4,42.3c0.6,0,0.9,0.2,1.1,0.6c0.1,0.2,0.1,0.6,0.1,1.1h-3.1
		c0.1-0.4,0.3-0.7,0.5-1C92.4,42.5,92.8,42.3,93.4,42.3 M93.9,41.7c-0.9,0-1.8,0.4-2.5,1.1s-1.1,1.6-1.3,2.5
		c-0.2,0.9-0.1,1.7,0.3,2.4c0.4,0.7,1,1,1.9,1c0.8,0,1.5-0.3,2.2-0.8c0.6-0.5,1.1-1.1,1.4-1.7l-0.2-0.1c-0.4,0.5-0.8,0.9-1.2,1.1
		c-0.4,0.3-0.9,0.4-1.4,0.4c-0.6,0-1.1-0.3-1.5-0.8c-0.4-0.5-0.5-1.3-0.3-2.5H96c0.2-0.9,0-1.5-0.4-2C95.2,42,94.6,41.7,93.9,41.7
		 M84.3,48.6h3.6l0-0.2c-0.5,0-0.8-0.1-0.9-0.2c-0.2-0.2-0.2-0.5-0.1-0.9l0.6-3.3c0.1-0.3,0.2-0.6,0.5-0.9c0.3-0.3,0.5-0.4,0.7-0.4
		c0.1,0,0.2,0.1,0.4,0.3c0.2,0.2,0.3,0.3,0.5,0.3c0.2,0,0.3-0.1,0.5-0.2c0.1-0.1,0.2-0.3,0.3-0.5c0-0.2,0-0.4-0.1-0.6
		c-0.1-0.1-0.3-0.2-0.6-0.2c-0.3,0-0.6,0.1-1,0.4c-0.3,0.2-0.7,0.6-1.1,1l0.2-1.2c0-0.1,0-0.1,0-0.2c0,0,0,0-0.1,0
		c-0.3,0.1-0.5,0.2-0.8,0.3c-0.1,0-0.3,0.1-0.6,0.2c-0.3,0.1-0.6,0.2-0.9,0.3l0,0.2c0.1,0,0.2,0,0.3,0c0.1,0,0.1,0,0.2,0
		c0.2,0,0.4,0.1,0.4,0.3c0.1,0.2,0,0.6,0,1l-0.6,3.3c-0.1,0.4-0.2,0.6-0.4,0.8c-0.2,0.1-0.5,0.2-0.9,0.2L84.3,48.6z M80.4,48.6h3.6
		l0-0.2c-0.5,0-0.8-0.1-0.9-0.3c-0.1-0.1-0.1-0.5,0-1l0.9-5.3c0,0,0-0.1,0-0.1c0,0-0.1,0-0.3,0.1c-0.4,0.1-1,0.4-1.9,0.6l-0.3,0.1
		l0,0.2c0.3-0.1,0.4-0.1,0.5-0.1c0.1,0,0.1,0,0.2,0c0.2,0,0.4,0.1,0.4,0.3c0,0.1,0,0.3-0.1,0.7l-0.6,3.5c-0.1,0.6-0.2,0.9-0.4,1.1
		c-0.2,0.1-0.5,0.2-1,0.3L80.4,48.6z M83,39.1c0,0.2,0,0.4,0.1,0.5c0.1,0.1,0.3,0.2,0.5,0.2c0.2,0,0.4-0.1,0.6-0.2
		c0.2-0.1,0.3-0.3,0.3-0.5c0-0.2,0-0.4-0.1-0.5c-0.1-0.1-0.3-0.2-0.5-0.2c-0.2,0-0.4,0.1-0.6,0.2C83.1,38.7,83,38.9,83,39.1
		 M69.5,48.6h4.2c1.1,0,2.1-0.1,2.9-0.4c0.4-0.2,0.9-0.4,1.3-0.7c0.7-0.5,1.3-1,1.7-1.7c0.4-0.7,0.7-1.4,0.8-2.1
		c0.4-2.1-0.2-3.5-1.8-4.3c-0.9-0.4-2-0.7-3.3-0.7h-4l0,0.3c0.5,0,0.9,0.1,1,0.3c0.1,0.2,0.2,0.5,0.1,1.1L71.1,47
		c-0.1,0.6-0.2,0.9-0.4,1.1c-0.2,0.1-0.6,0.2-1.1,0.3L69.5,48.6z M72.6,47.4l1.3-7.6c0-0.2,0.1-0.4,0.3-0.5c0.1-0.1,0.4-0.1,0.7-0.1
		c1.4,0,2.4,0.3,3.1,1c0.8,0.8,1.1,1.9,0.8,3.5c-0.3,1.7-1.1,2.9-2.4,3.7c-0.8,0.5-1.8,0.7-3,0.7c-0.4,0-0.6,0-0.7-0.1
		C72.5,47.8,72.5,47.7,72.6,47.4"/>
	<path style="clip-path:url(#SVGID_00000102532250344330194940000002763628627572571325_);fill:#004661;" d="M260.8,15.1
		c0.4,0.3,0.9,0.5,1.6,0.5s1.2-0.2,1.6-0.5c0.4-0.3,0.6-0.8,0.6-1.4c0-0.6-0.2-1.1-0.6-1.4c-0.4-0.3-0.9-0.5-1.6-0.5
		s-1.2,0.2-1.6,0.5c-0.4,0.3-0.6,0.8-0.6,1.4C260.2,14.3,260.4,14.8,260.8,15.1 M266,30c-0.2-0.1-0.5-0.3-0.8-0.4
		c-0.3-0.1-0.6-0.2-0.9-0.3V17.7h-0.9c-0.3,0-0.7,0.1-1.1,0.1c-0.4,0.1-0.8,0.1-1.3,0.2c-0.4,0.1-0.8,0.2-1.2,0.3
		c-0.4,0.1-0.7,0.2-1,0.3v1l1.7,0.2v9.6c-0.3,0.1-0.6,0.2-0.9,0.3c-0.3,0.1-0.5,0.2-0.8,0.4v1h7.2V30z M246.3,19.7h2.1v7.9
		c0,1.3,0.3,2.3,0.8,2.8c0.6,0.6,1.4,0.9,2.5,0.9c0.5,0,1-0.1,1.4-0.2s0.9-0.2,1.3-0.4s0.7-0.3,1-0.5c0.3-0.2,0.5-0.3,0.7-0.5
		l-0.2-0.9c-0.3,0.1-0.7,0.2-1.1,0.2c-0.4,0-0.7,0.1-1.1,0.1c-0.6,0-1.1-0.2-1.3-0.6c-0.3-0.4-0.4-1.2-0.4-2.2v-6.7h3.4V18h-3.4
		v-3.3h-0.9c-0.7,0.1-1.3,0.3-1.8,0.5c-0.5,0.2-0.9,0.4-1,0.5v2.1c-0.7,0.2-1.4,0.5-2.1,0.9V19.7z M230.5,28.5
		c0.2,0.7,0.5,1.3,0.8,1.7c0.4,0.4,0.8,0.7,1.3,0.9c0.5,0.2,1.1,0.2,1.8,0.2c0.6,0,1.1-0.1,1.6-0.3s0.9-0.4,1.3-0.7s0.6-0.6,0.9-1
		c0.2-0.4,0.4-0.7,0.5-1.1h0.1l0.2,3.1h0.9c0.3,0,0.7-0.1,1.1-0.1c0.4-0.1,0.8-0.1,1.2-0.2c0.4-0.1,0.8-0.2,1.1-0.3s0.7-0.2,0.9-0.3
		v-0.9l-1.7-0.2V17.7h-0.9c-0.3,0-0.7,0.1-1.1,0.1c-0.4,0.1-0.8,0.1-1.3,0.2c-0.4,0.1-0.8,0.2-1.2,0.3s-0.7,0.2-1,0.3v1l1.7,0.2v6.8
		c-0.3,0.9-0.7,1.6-1.1,2c-0.5,0.4-1,0.6-1.5,0.6c-0.8,0-1.3-0.3-1.6-0.9c-0.3-0.6-0.4-1.6-0.4-3.1c0-1.2,0-2.4,0.1-3.7
		s0.1-2.5,0.1-3.8h-0.9c-0.3,0-0.6,0.1-1,0.1c-0.4,0.1-0.8,0.1-1.3,0.2c-0.4,0.1-0.9,0.2-1.3,0.3c-0.4,0.1-0.8,0.2-1,0.3v1l1.7,0.2
		c0,1,0,2-0.1,3s-0.1,2-0.1,3C230.2,26.9,230.3,27.8,230.5,28.5 M221.4,21c0.4,0.8,0.6,1.9,0.6,3.3c0,1.9-0.2,3.3-0.7,4.2
		c-0.5,0.9-1.2,1.3-2.2,1.3c-0.5,0-0.9-0.1-1.2-0.2c-0.4-0.1-0.7-0.2-0.9-0.4v-6.9c0.2-0.7,0.5-1.3,0.9-1.8c0.4-0.5,0.9-0.7,1.6-0.7
		C220.4,19.8,221,20.2,221.4,21 M213.3,30.2c0.2,0.1,0.5,0.2,0.9,0.4c0.4,0.1,0.9,0.2,1.4,0.3c0.5,0.1,1,0.2,1.6,0.2
		c0.5,0.1,1,0.1,1.5,0.1c2.4,0,4.3-0.6,5.5-1.8c1.3-1.2,1.9-3,1.9-5.4c0-2.1-0.4-3.8-1.3-4.8c-0.8-1.1-2-1.6-3.6-1.6
		c-1,0-1.8,0.2-2.5,0.7c-0.7,0.5-1.2,1.2-1.6,2H217v-9h-0.9c-0.3,0-0.7,0.1-1.1,0.1s-0.9,0.1-1.4,0.2c-0.5,0.1-0.9,0.2-1.3,0.3
		c-0.4,0.1-0.8,0.2-1,0.3v1l2,0.2V30.2z M204.1,15.1c0.4,0.3,0.9,0.5,1.6,0.5s1.2-0.2,1.6-0.5s0.6-0.8,0.6-1.4
		c0-0.6-0.2-1.1-0.6-1.4s-0.9-0.5-1.6-0.5s-1.2,0.2-1.6,0.5c-0.4,0.3-0.6,0.8-0.6,1.4C203.5,14.3,203.7,14.8,204.1,15.1 M209.3,30
		c-0.2-0.1-0.5-0.3-0.8-0.4c-0.3-0.1-0.6-0.2-0.9-0.3V17.7h-0.9c-0.3,0-0.7,0.1-1.1,0.1c-0.4,0.1-0.8,0.1-1.3,0.2
		c-0.4,0.1-0.8,0.2-1.2,0.3c-0.4,0.1-0.7,0.2-1,0.3v1l1.7,0.2v9.6c-0.3,0.1-0.6,0.2-0.9,0.3c-0.3,0.1-0.5,0.2-0.8,0.4v1h7.2V30z
		 M199.7,21v-1c-0.1-0.4-0.2-0.8-0.3-1.3c-0.1-0.4-0.3-0.8-0.5-1c-0.5,0-0.9,0.1-1.4,0.3c-0.4,0.2-0.8,0.5-1.2,0.8s-0.7,0.7-0.9,1.1
		c-0.3,0.4-0.5,0.8-0.6,1.2h-0.1v-3.5h-0.9c-0.3,0-0.6,0.1-1,0.1c-0.4,0.1-0.8,0.1-1.3,0.2c-0.4,0.1-0.9,0.2-1.3,0.3
		c-0.4,0.1-0.8,0.2-1,0.3v1l1.7,0.2v9.6c-0.3,0.1-0.6,0.1-0.8,0.2c-0.3,0.1-0.6,0.2-0.9,0.4v1h7.5v-1c-0.3-0.2-0.7-0.3-1-0.4
		c-0.3-0.1-0.7-0.2-1-0.2v-6.7c0.2-0.6,0.5-1,0.8-1.2c0.3-0.2,0.5-0.4,0.7-0.5H199.7z M182.8,30c-0.3-0.2-0.7-0.3-1.2-0.4
		c-0.4-0.1-0.9-0.2-1.3-0.3V14.5h3l1.7,4.4h1.1c0.1-0.4,0.1-0.8,0.2-1.3s0.1-1.1,0.2-1.7c0.1-0.6,0.1-1.1,0.1-1.7s0.1-1,0.1-1.5
		h-16.5c0,0.4,0,0.9,0.1,1.4c0,0.6,0.1,1.1,0.1,1.7c0.1,0.6,0.1,1.1,0.2,1.7s0.1,1,0.2,1.3h1.1l1.7-4.4h3v14.8
		c-0.5,0.1-0.9,0.2-1.3,0.3c-0.4,0.1-0.8,0.3-1.2,0.4v1h8.9V30z M149.1,22c0.1-0.7,0.3-1.2,0.5-1.6c0.2-0.4,0.5-0.7,0.8-0.9
		c0.3-0.2,0.7-0.3,1.2-0.3c0.6,0,1.1,0.1,1.5,0.4c0.4,0.3,0.7,0.6,0.9,1.1c0.2,0.5,0.4,1,0.5,1.6c0.1,0.6,0.1,1.4,0.1,2.2
		c0,1-0.1,1.8-0.2,2.5c-0.1,0.7-0.3,1.2-0.5,1.6c-0.2,0.4-0.5,0.7-0.8,0.9c-0.3,0.2-0.7,0.3-1,0.3c-0.7,0-1.2-0.1-1.6-0.4
		s-0.7-0.6-1-1.1c-0.2-0.5-0.4-1-0.5-1.7c-0.1-0.6-0.1-1.4-0.1-2.1C148.9,23.5,149,22.7,149.1,22 M145.3,27.2
		c0.3,0.8,0.7,1.6,1.3,2.2s1.3,1.1,2.2,1.4c0.9,0.3,1.9,0.5,3.1,0.5c1.1,0,2-0.2,2.9-0.5s1.6-0.8,2.2-1.4c0.6-0.6,1.1-1.3,1.4-2.1
		s0.5-1.8,0.5-2.8c0-1-0.1-1.9-0.4-2.7s-0.7-1.6-1.2-2.2c-0.6-0.6-1.3-1.1-2.2-1.4c-0.9-0.3-1.9-0.5-3.1-0.5c-1.1,0-2,0.2-2.9,0.5
		c-0.8,0.3-1.6,0.8-2.2,1.4c-0.6,0.6-1.1,1.3-1.4,2.1c-0.3,0.8-0.5,1.8-0.5,2.8C144.9,25.5,145.1,26.4,145.3,27.2 M136.7,15.1
		c0.4,0.3,0.9,0.5,1.6,0.5c0.7,0,1.2-0.2,1.6-0.5c0.4-0.3,0.6-0.8,0.6-1.4c0-0.6-0.2-1.1-0.6-1.4c-0.4-0.3-0.9-0.5-1.6-0.5
		c-0.7,0-1.2,0.2-1.6,0.5c-0.4,0.3-0.6,0.8-0.6,1.4C136.1,14.3,136.3,14.8,136.7,15.1 M141.9,30c-0.2-0.1-0.5-0.3-0.8-0.4
		c-0.3-0.1-0.6-0.2-0.9-0.3V17.7h-0.9c-0.3,0-0.7,0.1-1.1,0.1c-0.4,0.1-0.8,0.1-1.3,0.2c-0.4,0.1-0.8,0.2-1.2,0.3s-0.7,0.2-1,0.3v1
		l1.7,0.2v9.6c-0.3,0.1-0.6,0.2-0.9,0.3c-0.3,0.1-0.5,0.2-0.8,0.4v1h7.2V30z M131.2,28.3c-0.3,0.2-0.7,0.5-1.1,0.6s-1,0.3-1.6,0.3
		c-0.7,0-1.2-0.1-1.7-0.4c-0.5-0.3-0.9-0.6-1.2-1s-0.6-1-0.7-1.6s-0.2-1.3-0.2-2c0-1,0.1-1.8,0.2-2.4c0.1-0.7,0.3-1.2,0.5-1.6
		c0.2-0.4,0.5-0.7,0.8-0.8c0.3-0.2,0.7-0.2,1.2-0.2c0.3,0,0.5,0,0.6,0.1s0.3,0.1,0.4,0.2l1.1,3.1h1.3c0.1-0.2,0.2-0.5,0.3-0.8
		c0.1-0.3,0.2-0.7,0.3-1c0.1-0.4,0.1-0.7,0.2-1.1c0.1-0.4,0.1-0.7,0.1-1c-0.5-0.2-1.1-0.5-1.8-0.6c-0.7-0.2-1.5-0.3-2.3-0.3
		c-2.2,0-3.9,0.6-5.1,1.8c-1.2,1.2-1.8,2.9-1.8,5.1c0,1,0.1,2,0.4,2.8c0.3,0.8,0.7,1.6,1.2,2.2c0.5,0.6,1.2,1.1,2,1.4
		c0.8,0.3,1.8,0.5,3,0.5c0.5,0,1.1-0.1,1.5-0.2c0.5-0.1,0.9-0.3,1.3-0.5s0.7-0.5,1-0.8c0.3-0.3,0.5-0.6,0.6-0.9L131.2,28.3z
		 M112.3,15.1c0.4,0.3,0.9,0.5,1.6,0.5c0.7,0,1.2-0.2,1.6-0.5c0.4-0.3,0.6-0.8,0.6-1.4c0-0.6-0.2-1.1-0.6-1.4
		c-0.4-0.3-0.9-0.5-1.6-0.5c-0.7,0-1.2,0.2-1.6,0.5c-0.4,0.3-0.6,0.8-0.6,1.4C111.7,14.3,111.9,14.8,112.3,15.1 M117.6,30
		c-0.2-0.1-0.5-0.3-0.8-0.4c-0.3-0.1-0.6-0.2-0.9-0.3V17.7H115c-0.3,0-0.7,0.1-1.1,0.1c-0.4,0.1-0.8,0.1-1.3,0.2
		c-0.4,0.1-0.8,0.2-1.2,0.3s-0.7,0.2-1,0.3v1l1.7,0.2v9.6c-0.3,0.1-0.6,0.2-0.9,0.3c-0.3,0.1-0.5,0.2-0.8,0.4v1h7.2V30z M104.4,11.7
		c-0.7,0.2-1.3,0.4-1.8,0.8c-0.5,0.4-0.9,1-1.2,1.7c-0.3,0.7-0.5,1.6-0.5,2.7v0.9c-0.7,0.2-1.4,0.5-2,0.9v1h2v9.7
		c-0.6,0.1-1.2,0.3-1.7,0.6v1h8v-1c-0.8-0.3-1.6-0.5-2.5-0.6v-9.7h2.8V18h-2.8v-1.3c0-0.8,0-1.5,0.1-2c0.1-0.5,0.2-0.9,0.4-1.2
		s0.4-0.5,0.7-0.6c0.3-0.1,0.7-0.1,1.1-0.1l1.1,2.5h0.9c0.1-0.4,0.3-0.9,0.5-1.5c0.2-0.6,0.3-1.2,0.3-1.8c-0.3-0.1-0.7-0.2-1.3-0.4
		c-0.6-0.1-1.2-0.2-1.9-0.2C105.9,11.4,105.2,11.5,104.4,11.7 M93.2,11.7c-0.7,0.2-1.3,0.4-1.8,0.8c-0.5,0.4-0.9,1-1.2,1.7
		c-0.3,0.7-0.5,1.6-0.5,2.7v0.9c-0.7,0.2-1.4,0.5-2,0.9v1h2v9.7c-0.6,0.1-1.2,0.3-1.7,0.6v1h8v-1c-0.8-0.3-1.6-0.5-2.5-0.6v-9.7h2.8
		V18h-2.8v-1.3c0-0.8,0-1.5,0.1-2c0.1-0.5,0.2-0.9,0.4-1.2s0.4-0.5,0.7-0.6c0.3-0.1,0.7-0.1,1.1-0.1l1.1,2.5h0.9
		c0.1-0.4,0.3-0.9,0.5-1.5c0.2-0.6,0.3-1.2,0.3-1.8c-0.3-0.1-0.7-0.2-1.3-0.4c-0.6-0.1-1.2-0.2-1.9-0.2
		C94.7,11.4,93.9,11.5,93.2,11.7 M67.7,13.8c0.3,0.2,0.7,0.4,1,0.5c0.4,0.1,0.7,0.2,1.1,0.3v10.1c0,2.3,0.6,4,1.9,5
		c1.3,1,3.1,1.6,5.4,1.6c2.1,0,3.8-0.6,5-1.7s1.8-2.8,1.8-5.1v-9.8c0.4-0.1,0.7-0.2,1.1-0.3c0.4-0.1,0.7-0.3,1-0.5v-1h-6.4v1
		c0.3,0.2,0.6,0.4,1.1,0.5c0.4,0.2,0.8,0.3,1.2,0.4v9.7c0,0.9-0.1,1.6-0.3,2.2c-0.2,0.6-0.5,1.1-0.8,1.4c-0.4,0.4-0.8,0.6-1.2,0.8
		c-0.5,0.2-1,0.2-1.6,0.2c-0.6,0-1.2-0.1-1.7-0.2s-0.9-0.4-1.3-0.8c-0.4-0.4-0.6-0.8-0.8-1.4c-0.2-0.6-0.3-1.3-0.3-2.1v-10
		c0.7-0.1,1.4-0.4,2-0.8v-1h-8V13.8z"/>
</g>
</svg>
