<svg width="500" height="438" viewBox="0 0 500 438" fill="none" xmlns="http://www.w3.org/2000/svg">
<path d="M44.776 298.998C44.776 311.363 54.7995 321.386 67.1641 321.386H313.433V22.879C313.433 10.5144 303.409 0.490967 291.045 0.490967H22.3879C34.7525 0.490967 44.776 10.5144 44.776 22.879V298.998Z" fill="#EDEDED"/>
<rect x="74.627" y="52.7298" width="44.7761" height="22.3881" fill="#9D9D9D"/>
<rect x="141.791" y="52.7298" width="141.791" height="22.3881" fill="#9D9D9D"/>
<rect x="74.627" y="142.282" width="44.7761" height="22.3881" fill="#9D9D9D"/>
<rect x="141.791" y="142.282" width="141.791" height="22.3881" fill="#9D9D9D"/>
<rect x="74.627" y="187.058" width="44.7761" height="22.3881" fill="#9D9D9D"/>
<rect x="141.791" y="187.058" width="141.791" height="22.3881" fill="#9D9D9D"/>
<rect x="74.627" y="231.834" width="44.7761" height="22.3881" fill="#9D9D9D"/>
<rect x="141.791" y="231.834" width="141.791" height="22.3881" fill="#9D9D9D"/>
<path d="M0 22.491C0 10.3407 9.84974 0.490967 22 0.490967H22.7761C34.9264 0.490967 44.7761 10.3407 44.7761 22.491V45.2671H0V22.491Z" fill="#C8C8C8"/>
<path d="M29.852 45.2671H44.7773V22.879C44.7773 10.5144 34.7539 0.490967 22.3893 0.490967C15.7587 0.490967 9.80131 3.37343 5.7019 7.95365H7.4639C19.8285 7.95365 29.852 17.9771 29.852 30.3417V45.2671Z" fill="#ACACAC"/>
<path d="M134.328 410.939C134.328 423.303 144.352 433.327 156.716 433.327H402.985V134.819C402.985 122.455 392.961 112.431 380.597 112.431H111.94C124.305 112.431 134.328 122.455 134.328 134.819V410.939Z" fill="white"/>
<path d="M111.94 112.431C99.5756 112.431 89.5521 122.455 89.5521 134.819V298.998C89.5521 311.363 79.5286 321.387 67.1641 321.387H97.0148C97.03 321.387 97.0452 321.386 97.0605 321.386H134.328V134.819C134.328 122.455 124.305 112.431 111.94 112.431Z" fill="#C8C8C8"/>
<path d="M119.404 321.386H134.33V134.819C134.33 122.455 124.306 112.431 111.942 112.431C105.311 112.431 99.3536 115.314 95.2542 119.894H97.0161C109.381 119.894 119.404 129.917 119.404 142.282V321.386Z" fill="#ACACAC"/>
<path d="M158.544 433.253C170.054 432.324 179.105 422.688 179.105 410.939V396.013H164.179V418.402C164.179 424.1 162.05 429.301 158.544 433.253Z" fill="#C8C8C8"/>
<path d="M425.373 433.327C437.738 433.327 447.761 423.303 447.761 410.939V388.551L179.104 388.551V410.939C179.104 423.303 169.081 433.327 156.716 433.327H425.373Z" fill="#EDEDED"/>
<rect x="164.179" y="164.67" width="44.7761" height="22.3881" fill="#C8C8C8"/>
<rect x="231.343" y="164.67" width="141.791" height="22.3881" fill="#C8C8C8"/>
<rect x="164.179" y="209.446" width="44.7761" height="22.3881" fill="#C8C8C8"/>
<rect x="231.343" y="209.446" width="141.791" height="22.3881" fill="#C8C8C8"/>
<rect x="164.179" y="298.998" width="44.7761" height="22.388" fill="#C8C8C8"/>
<rect x="231.343" y="298.998" width="141.791" height="22.388" fill="#C8C8C8"/>
<rect x="164.179" y="343.775" width="44.7761" height="22.3881" fill="#C8C8C8"/>
<rect x="231.343" y="343.775" width="141.791" height="22.3881" fill="#C8C8C8"/>
<path d="M410.334 363.969L426.165 348.138L436.719 358.692L420.888 374.523L410.334 363.969Z" fill="#182737"/>
<path d="M420.047 385.041C417.539 382.079 417.722 377.689 420.467 374.944L437.14 358.27C439.885 355.526 444.275 355.343 447.238 357.85L490.656 394.589C501.39 403.672 502.069 419.988 492.126 429.93C482.184 439.872 465.868 439.194 456.786 428.46L420.047 385.041Z" fill="url(#paint0_linear_401_1078)"/>
<path d="M430.122 396.95L425.285 391.233L453.429 363.089L459.145 367.927L430.122 396.95Z" fill="#436389"/>
<rect x="322.388" y="296.013" width="80.597" height="31.3433" fill="#7E7E7E"/>
<path fill-rule="evenodd" clip-rule="evenodd" d="M423.526 361.33C451.213 333.644 451.213 288.755 423.526 261.069C395.84 233.383 350.951 233.383 323.265 261.069C295.579 288.755 295.579 333.644 323.265 361.33C350.951 389.017 395.84 389.017 423.526 361.33ZM412.973 350.777C434.83 328.919 434.83 293.481 412.973 271.623C391.115 249.765 355.677 249.765 333.819 271.623C311.961 293.481 311.961 328.919 333.819 350.777C355.677 372.634 391.115 372.634 412.973 350.777Z" fill="url(#paint1_linear_401_1078)"/>
<path fill-rule="evenodd" clip-rule="evenodd" d="M412.973 350.777C434.83 328.919 434.83 293.481 412.973 271.623C391.115 249.765 355.677 249.765 333.819 271.623C311.961 293.481 311.961 328.919 333.819 350.777C355.677 372.634 391.115 372.634 412.973 350.777ZM402.419 340.223C418.448 324.194 418.448 298.206 402.419 282.177C386.39 266.148 360.402 266.148 344.373 282.177C328.344 298.206 328.344 324.194 344.373 340.223C360.402 356.252 386.39 356.252 402.419 340.223Z" fill="url(#paint2_radial_401_1078)"/>
<circle cx="373.395" cy="311.2" r="44.0299" transform="rotate(-45 373.395 311.2)" fill="url(#paint3_radial_401_1078)" fill-opacity="0.35"/>
<defs>
<linearGradient id="paint0_linear_401_1078" x1="478.934" y1="379.8" x2="444.634" y2="414.1" gradientUnits="userSpaceOnUse">
<stop offset="0.276042" stop-color="#304762"/>
<stop offset="0.697917" stop-color="#212B37"/>
</linearGradient>
<linearGradient id="paint1_linear_401_1078" x1="423.526" y1="241.017" x2="423.526" y2="368.718" gradientUnits="userSpaceOnUse">
<stop stop-color="#485B6A"/>
<stop offset="1" stop-color="#27384C"/>
</linearGradient>
<radialGradient id="paint2_radial_401_1078" cx="0" cy="0" r="1" gradientUnits="userSpaceOnUse" gradientTransform="translate(373.396 311.2) rotate(45) scale(55.9701)">
<stop offset="0.614583" stop-color="#BBBBBB"/>
<stop offset="1" stop-color="#E0E4E3"/>
</radialGradient>
<radialGradient id="paint3_radial_401_1078" cx="0" cy="0" r="1" gradientUnits="userSpaceOnUse" gradientTransform="translate(388.32 291.05) rotate(126.18) scale(61.9448 30.7331)">
<stop stop-color="white"/>
<stop offset="1" stop-color="white" stop-opacity="0.5"/>
</radialGradient>
</defs>
</svg>
