<svg width="220" height="76" viewBox="0 0 220 76" fill="none" xmlns="http://www.w3.org/2000/svg">
<path d="M24.5722 0H19.1929L0 21.1334L19.0407 42.8381H24.7852L5.95746 21.1334L24.5722 0Z" fill="#343434"/>
<path d="M55.9599 0H61.4001L80.4287 20.9829L61.248 42.8381L55.5461 42.8121L74.4713 20.9829L55.9599 0Z" fill="#343434"/>
<path fill-rule="evenodd" clip-rule="evenodd" d="M57.7916 54.9453H22.6432V51.1787H57.7916V54.9453Z" fill="#0559A3"/>
<path fill-rule="evenodd" clip-rule="evenodd" d="M53.6536 62.1785H26.7812V58.4119H53.6536V62.1785Z" fill="#0559A3"/>
<path fill-rule="evenodd" clip-rule="evenodd" d="M49.3574 69.4117H31.0773V65.645H49.3574V69.4117Z" fill="#0559A3"/>
<path d="M35.617 42.864H44.7145V9.96439H35.617V42.864ZM35.617 6.48542H44.7145V0H35.617V6.48542Z" fill="#343434"/>
<path d="M199.906 26.4142C199.906 18.6514 201.945 16.5692 205 16.5692C208.328 16.5692 210.361 18.6566 210.361 26.4142C210.361 34.177 208.322 36.2592 205.268 36.2592C201.939 36.2592 199.906 34.1718 199.906 26.4713V26.4142ZM190.267 26.4142C190.267 35.9113 195.02 43.5598 205.134 43.5598C215.247 43.5598 220 35.9113 220 26.4142C220 16.9171 215.247 9.2686 205.134 9.2686C195.02 9.2686 190.267 16.9119 190.267 26.3571V26.4142ZM170.515 42.864H179.612V23.6362C179.612 20.2767 181.176 17.8466 184.566 17.8466C185.923 17.8466 187.28 18.0803 188.57 18.8332V9.27379C183.549 9.27379 180.154 10.1409 178.797 14.2534V9.96439H170.515V42.864ZM155.381 26.4142C155.381 32.7854 154.024 35.797 150.561 35.797C145.675 35.797 145.675 31.3367 145.675 26.4142C145.675 21.4917 145.675 17.0314 150.561 17.0314C154.024 17.0314 155.381 20.043 155.381 26.3571V26.4142ZM136.577 42.864H144.859V39.6187C146.35 42.2825 148.73 43.5598 152.326 43.5598C159.251 43.5598 164.478 38.2323 164.478 26.4142C164.478 15.2919 160.2 9.2686 152.326 9.2686C148.523 9.2686 146.49 11.0081 145.675 13.0903V9.96439V0H136.577V42.864ZM118.656 42.864H127.754V9.96439H118.656V42.864ZM118.656 6.49061H127.754V0.00519756H118.656V6.49061ZM88.3821 42.864H111.871V34.7533H98.7027V0H88.3882V42.864H88.3821Z" fill="#0559A3"/>
<path d="M207.829 61.1364C207.933 57.5432 210.118 54.5576 213.422 54.5576C216.489 54.5576 218.874 56.567 219.008 61.1364H207.829ZM219.957 61.8842C219.957 59.7864 219.653 57.4861 218.138 55.7622C217.091 54.5576 215.509 53.8098 213.592 53.8098C209.722 53.8098 206.892 56.8838 206.892 61.827C206.892 65.4462 208.645 69.7871 213.726 69.7871C215.412 69.7871 216.72 69.2679 217.73 68.463C218.74 67.6322 219.416 66.5107 219.714 65.3008H218.838C218.296 67.3726 216.513 69.0342 213.72 69.0342C209.984 69.0342 207.829 66.1057 207.829 61.879H219.957V61.8842ZM201.635 69.4133H202.578V54.9314H205.438V54.1837H202.578V48.15H201.635V54.1837H198.775V54.9314H201.635V69.4133ZM183.86 69.4133H184.803V61.1364C184.803 56.7695 187.061 54.5576 190.56 54.5576C194.771 54.5576 195.002 57.86 195.002 59.7293V69.4133H195.945V59.4696C195.945 55.4195 193.724 53.8098 190.523 53.8098C188.533 53.8098 185.777 54.703 184.699 57.5173C184.803 56.2815 184.803 55.2741 184.803 54.1837H183.86V69.4133ZM168.135 61.1364C168.239 57.5432 170.423 54.5576 173.728 54.5576C176.795 54.5576 179.18 56.567 179.314 61.1364H168.135ZM180.257 61.8842C180.257 59.7864 179.953 57.4861 178.438 55.7622C177.391 54.5576 175.809 53.8098 173.892 53.8098C170.022 53.8098 167.192 56.8838 167.192 61.827C167.192 65.4462 168.945 69.7871 174.026 69.7871C175.712 69.7871 177.02 69.2679 178.03 68.463C179.04 67.6322 179.716 66.5107 180.014 65.3008H179.138C178.596 67.3726 176.813 69.0342 174.02 69.0342C170.283 69.0342 168.129 66.1057 168.129 61.879H180.257V61.8842ZM151.833 61.8011C151.833 58.265 153.616 54.5628 157.188 54.5628C158.971 54.5628 160.322 55.4818 161.192 56.863C162.099 58.2131 162.537 60.0252 162.537 61.8063C162.537 63.5613 162.099 65.3683 161.192 66.7495C160.316 68.1307 158.971 69.0498 157.188 69.0498C153.616 69.0498 151.833 65.3424 151.833 61.8374V61.8011ZM163.486 54.1837H162.543C162.543 55.7363 162.543 56.8267 162.61 58.0054C161.466 54.9003 159.446 53.8098 157.121 53.8098C153.318 53.8098 150.89 57.403 150.89 61.827C150.89 66.1628 153.312 69.7871 157.121 69.7871C159.75 69.7871 161.801 68.1775 162.61 65.5916C162.543 67.0559 162.543 68.5202 162.543 69.5015C162.543 74.585 159.312 75.1614 157.425 75.1614C156.147 75.1614 154.632 74.8446 153.519 73.8113C152.679 73.0065 152.338 72.1445 152.241 70.7633H151.364C151.498 75.0731 155.642 75.9039 157.291 75.9039C159.312 75.9039 160.93 75.3016 162.074 74.0346C162.981 73.0273 163.486 71.563 163.486 69.0342V54.1837ZM146.076 69.4133H147.02V54.1837H146.076V69.4133ZM146.076 50.7359H147.02V48.15H146.076V50.7359ZM140.082 69.4133H141.026V48.15H140.082V69.4133ZM134.088 69.4133H135.032V48.15H134.088V69.4133ZM118.194 61.1364C118.297 57.5432 120.482 54.5576 123.786 54.5576C126.853 54.5576 129.238 56.567 129.378 61.1364H118.194ZM130.316 61.8842C130.316 59.7864 130.011 57.4861 128.496 55.7622C127.455 54.5576 125.867 53.8098 123.95 53.8098C120.08 53.8098 117.251 56.8838 117.251 61.827C117.251 65.4462 119.003 69.7871 124.084 69.7871C125.77 69.7871 127.078 69.2679 128.088 68.463C129.099 67.6322 129.774 66.5107 130.072 65.3008H129.196C128.66 67.3726 126.871 69.0342 124.078 69.0342C120.342 69.0342 118.188 66.1057 118.188 61.879H130.316V61.8842ZM111.999 69.4133H112.942V54.9314H115.802V54.1837H112.942V48.15H111.999V54.1837H109.139V54.9314H111.999V69.4133ZM94.2239 69.4133H95.1672V61.1364C95.1672 56.7695 97.4248 54.5576 100.924 54.5576C105.135 54.5576 105.366 57.86 105.366 59.7293V69.4133H106.309V59.4696C106.309 55.4195 104.088 53.8098 100.887 53.8098C98.9035 53.8098 96.1408 54.703 95.0637 57.5173C95.1672 56.2815 95.1672 55.2741 95.1672 54.1837H94.2239V69.4133ZM88.3943 69.4133H89.3375V54.1837H88.3943V69.4133ZM88.3943 50.7359H89.3375V48.15H88.3943V50.7359Z" fill="#343434"/>
</svg>
