<svg width="201" height="200" viewBox="0 0 201 200" fill="none" xmlns="http://www.w3.org/2000/svg">
<path d="M182.348 145.455H159.621C152.09 145.455 145.984 151.56 145.984 159.091C145.984 166.622 152.09 172.727 159.621 172.727H168.712C171.222 172.727 173.257 174.762 173.257 177.273C173.257 179.783 171.222 181.818 168.712 181.818H145.984V190.909H168.712C176.243 190.909 182.348 184.804 182.348 177.273C182.348 169.742 176.243 163.636 168.712 163.636H159.621C157.11 163.636 155.075 161.601 155.075 159.091C155.075 156.581 157.11 154.545 159.621 154.545H182.348V145.455Z" fill="black"/>
<path d="M109.621 145.455H100.53V154.545C100.53 163.017 106.324 170.136 114.166 172.154V190.909H123.257V172.154C131.099 170.136 136.893 163.017 136.893 154.545V145.455H127.803V154.545C127.803 159.566 123.732 163.636 118.712 163.636C113.691 163.636 109.621 159.566 109.621 154.545V145.455Z" fill="black"/>
<path fill-rule="evenodd" clip-rule="evenodd" d="M73.257 145.455C83.2985 145.455 91.4388 153.595 91.4388 163.636V190.909H82.3479V181.818H64.1661V190.909H55.0752V163.636C55.0752 153.595 63.2155 145.455 73.257 145.455ZM82.3479 172.727V163.636C82.3479 158.616 78.2778 154.545 73.257 154.545C68.2362 154.545 64.1661 158.616 64.1661 163.636V172.727H82.3479Z" fill="black"/>
<path fill-rule="evenodd" clip-rule="evenodd" d="M9.62061 145.455V190.909H23.257C35.8089 190.909 45.9842 180.734 45.9842 168.182C45.9842 155.63 35.8089 145.455 23.257 145.455H9.62061ZM18.7115 181.818H23.257C30.7882 181.818 36.8933 175.713 36.8933 168.182C36.8933 160.651 30.7882 154.545 23.257 154.545H18.7115V181.818Z" fill="black"/>
<path fill-rule="evenodd" clip-rule="evenodd" d="M136.893 0H64.1661C29.0208 0 0.529785 28.491 0.529785 63.6364V100C0.529785 115.062 12.7402 127.273 27.8025 127.273H136.893C172.039 127.273 200.53 98.7818 200.53 63.6364C200.53 28.491 172.039 0 136.893 0ZM64.1661 18.1818C39.0623 18.1818 18.7116 38.5325 18.7116 63.6364V100C18.7116 105.021 22.7817 109.091 27.8025 109.091C32.8233 109.091 36.8934 105.021 36.8934 100V63.6364C36.8934 48.574 49.1038 36.3636 64.1661 36.3636H91.4389C96.4596 36.3636 100.53 40.4338 100.53 45.4545C100.53 50.4753 96.4596 54.5455 91.4389 54.5455H82.348C67.2857 54.5455 55.0752 66.7559 55.0752 81.8182C55.0752 96.8805 67.2857 109.091 82.348 109.091H136.893C161.997 109.091 182.348 88.7402 182.348 63.6364C182.348 38.5325 161.997 18.1818 136.893 18.1818C131.873 18.1818 127.803 22.252 127.803 27.2727C127.803 32.2935 131.873 36.3636 136.893 36.3636C151.956 36.3636 164.166 48.574 164.166 63.6364C164.166 78.6987 151.956 90.9091 136.893 90.9091H82.348C77.3272 90.9091 73.2571 86.8389 73.2571 81.8182C73.2571 76.7974 77.3272 72.7273 82.348 72.7273H91.4389C106.501 72.7273 118.712 60.5169 118.712 45.4545C118.712 30.3922 106.501 18.1818 91.4389 18.1818H64.1661Z" fill="black"/>
</svg>
