<svg width="301" height="215" viewBox="0 0 301 215" fill="none" xmlns="http://www.w3.org/2000/svg">
<path d="M295.549 189.841H190.348V197.939H108.481V189.841H7.28753C3.30381 189.841 0.8125 191.608 0.8125 195.711C0.8125 202.671 8.18986 215 20.6848 215H282.152C292.874 215 300.813 202.671 300.813 195.711C300.813 190.52 298.389 189.841 295.549 189.841Z" fill="white"/>
<path d="M86.9281 144.841C94.1891 150.676 103.622 153.768 114.19 153.768H189.101C213.461 153.768 230.375 140.371 233.251 118.813C235.126 104.71 230.007 95.4591 225.388 90.1812C219.062 82.9531 209.624 78.6358 200.145 78.6358C198.541 78.6358 196.968 78.7681 195.446 79.0168C193.422 70.0369 189.158 62.5375 182.912 57.0453C175.856 50.8518 166.408 47.4355 156.313 47.4355H156.308C143.326 47.4355 130.741 52.986 122.649 62.294C117.152 68.6106 114.014 76.1536 113.34 84.4561C111.713 84.1888 110.039 84.0459 108.364 84.0459C99.0513 84.0459 89.5994 88.3394 83.0728 95.5345C76.5276 102.744 73.4449 112.106 74.3948 121.901C75.272 130.905 79.7241 139.049 86.9281 144.841ZM108.355 90.3347C112.343 90.3347 116.299 91.3085 119.891 93.3977C116.427 68.6688 136.642 53.7243 156.313 53.7296C172.601 53.7296 188.527 63.9731 190.35 87.3815C193.136 85.7395 196.538 84.9338 200.145 84.9338C213.619 84.9338 229.907 96.2556 227.011 117.984C224.506 136.788 209.858 147.474 189.101 147.474H114.19C95.2674 147.474 82.1003 136.105 80.6635 121.29C78.9118 103.264 93.7935 90.3347 108.355 90.3347" fill="white"/>
<path d="M36.5382 184.165C39.5349 184.165 261.966 184.145 265.44 184.145C274.308 184.145 280.998 176.932 280.998 168.072V16.0653C280.998 7.20445 273.788 0.000133116 264.909 0.000133116H37.9168C29.0576 0.000133116 21.8337 7.20445 21.8337 16.0653V168.072C21.8337 176.932 28.7665 184.165 36.5382 184.165ZM151.435 2.42407C156.235 2.42407 160.133 6.31665 160.133 11.1407C160.133 15.9409 156.235 19.8388 151.435 19.8388C146.611 19.8388 142.717 15.9409 142.717 11.1407C142.717 6.31665 146.611 2.42407 151.435 2.42407ZM33.0321 27.2535C33.0321 24.557 35.2019 22.358 37.9168 22.358H264.909C267.639 22.358 269.818 24.557 269.818 27.2535V168.072C269.818 170.782 267.639 172.966 264.909 172.966H37.9168C35.2019 172.966 33.0321 170.782 33.0321 168.072V27.2535Z" fill="white"/>
<path d="M151.433 15.0146C153.571 15.0146 155.307 13.288 155.307 11.1407C155.307 8.99337 153.571 7.24693 151.433 7.24693C149.272 7.24693 147.54 8.99337 147.54 11.1407C147.54 13.288 149.272 15.0146 151.433 15.0146Z" fill="white"/>
</svg>
