<svg width="100" height="100" viewBox="0 0 100 100" fill="none" xmlns="http://www.w3.org/2000/svg">
<rect width="100" height="100" fill="white"/>
<path d="M38.3874 41.5874C38.3874 40.5843 38.3748 39.3045 37.1692 39.3045C35.963 39.3045 35.9509 40.5843 35.9509 41.5874C35.9509 42.602 35.963 43.8828 37.1692 43.8828C38.3748 43.8828 38.3874 42.602 38.3874 41.5874Z" fill="#C9AC00"/>
<path d="M34.628 15.3217C34.628 14.8055 34.8879 14.6856 35.0559 14.6856C35.2252 14.6856 35.4838 14.8055 35.4838 15.3217C35.4838 15.8377 35.2252 15.9581 35.0559 15.9581C34.8879 15.9581 34.628 15.8377 34.628 15.3217Z" fill="#C9AC00"/>
<path d="M32.2643 14.7571H31.9691V15.2277H32.2256C32.397 15.2277 32.5783 15.2147 32.5783 14.9811C32.5783 14.7701 32.426 14.7571 32.2643 14.7571Z" fill="#C9AC00"/>
<path d="M29.5418 14.7571H29.2463V15.2277H29.5031C29.6744 15.2277 29.8553 15.2147 29.8553 14.9811C29.8553 14.7701 29.7047 14.7571 29.5418 14.7571Z" fill="#C9AC00"/>
<path d="M23.8343 14.7151H23.5244V15.176H23.8709C23.9941 15.176 24.1629 15.1529 24.1629 14.9453C24.1629 14.7994 24.0875 14.7151 23.8343 14.7151Z" fill="#C9AC00"/>
<path fill-rule="evenodd" clip-rule="evenodd" d="M11 11H45V45.4H33.5129C33.5855 45.1947 33.6258 44.962 33.6258 44.6994C33.6258 44.438 33.5761 44.1898 33.4592 43.9675H35.2492V43.6893H34.5456V39.0622C34.1149 39.1714 33.6493 39.1831 33.2073 39.1831H31.7619C31.5473 39.108 31.3013 39.0708 31.0221 39.0708C29.8403 39.0708 29.3031 39.976 29.3031 40.7375C29.3031 41.4264 29.6612 41.8364 30.1989 42.1014V42.1269C29.7451 42.1988 29.2397 42.4092 28.9142 43.0734C28.8455 43.2132 28.7871 43.3342 28.7405 43.4391C28.4153 43.2517 27.9262 43.2133 26.7392 43.2133H25.4617C25.2826 43.2133 25.1513 43.0931 25.1513 42.9602C25.1513 42.452 25.9284 42.3627 26.8787 42.2533L26.8789 42.2533C27.0584 42.2327 27.244 42.2113 27.4318 42.1863C27.6829 42.1624 28.6379 41.8126 28.6379 40.6771C28.6379 40.469 28.5747 40.2699 28.526 40.1168C28.4956 40.021 28.4709 39.9433 28.4709 39.8925C28.4709 39.7702 28.7293 39.602 28.8488 39.602C28.8819 39.602 28.9204 39.6578 28.9671 39.7256C29.0394 39.8306 29.1316 39.9644 29.2546 39.9644C29.5057 39.9644 29.6373 39.7469 29.6373 39.506C29.6373 39.1915 29.3857 39.0941 29.172 39.0941C28.7772 39.0941 28.4117 39.4925 28.2914 39.7702C27.981 39.2999 27.4915 39.0708 26.7992 39.0708C25.6171 39.0708 25.08 39.976 25.08 40.7375C25.08 41.4264 25.4381 41.8364 25.975 42.1014V42.1269C25.5217 42.1988 24.7811 42.3929 24.7811 43.056C24.7811 43.0722 24.7748 43.0861 24.7679 43.1014C24.7635 43.1113 24.7588 43.1217 24.7554 43.1336C24.6964 43.3389 24.5769 43.6776 24.3385 43.6776C24.0872 43.6776 24.0872 43.484 24.0872 43.1219V40.2467C24.0872 39.7632 24.0872 39.0619 22.4629 39.0619C21.0425 39.0619 20.552 39.7874 20.552 40.2223C20.552 40.56 20.7318 40.8024 21.0545 40.8024C21.3524 40.8024 21.5437 40.5971 21.5437 40.2945C21.5437 40.0277 21.3834 39.9127 21.2774 39.8367C21.225 39.7991 21.1859 39.771 21.1859 39.7388C21.1859 39.3879 22.0329 39.3044 22.2964 39.3044C22.7135 39.3044 23.156 39.4741 23.156 40.0409V41.1886C21.3293 41.1886 20.1949 41.8172 20.1585 42.9405C20.1585 43.8341 20.8034 44.1245 21.5555 44.1245C22.1648 44.1245 22.7614 43.8946 23.1683 43.3872C23.2514 43.8341 23.5025 44.1245 23.9438 44.1245C24.3612 44.1245 24.7095 43.8805 24.8685 43.5141C25.07 43.9544 25.5857 44.0264 26.0578 44.0923L26.0827 44.0957V44.1323C25.4885 44.2855 24.7244 44.5986 24.6876 45.4H11V11ZM38.9883 43.9675V43.6893H39.908V36.2218H38.9883V35.9441H39.5021C39.9446 35.9441 40.409 35.9192 40.8389 35.8351V43.6893L42.2557 43.6893V39.4621H41.4559V39.1831H41.8504C42.2924 39.1831 42.7572 39.1714 43.1879 39.0622V43.6893H43.8923V43.9675L38.9883 43.9675ZM42.71 37.4702C42.9976 37.4702 43.3186 37.7352 43.3186 38.0506C43.3186 38.4244 43.0561 38.6905 42.71 38.6905C42.3642 38.6905 42.1369 38.4005 42.1369 38.0506C42.1369 37.7352 42.4116 37.4702 42.71 37.4702ZM34.8653 41.5874C34.8653 40.1262 35.9155 39.0621 37.1692 39.0621C38.4228 39.0621 39.473 40.1262 39.473 41.5874C39.473 43.0489 38.4228 44.1247 37.1692 44.1247C35.9155 44.1247 34.8653 43.0489 34.8653 41.5874ZM34.576 38.0359C34.576 37.7226 34.2528 37.4565 33.9662 37.4565C33.6676 37.4565 33.3943 37.7226 33.3943 38.0359C33.3943 38.3868 33.6201 38.6768 33.9662 38.6768C34.3128 38.6768 34.576 38.4102 34.576 38.0359ZM11.9754 35.897V36.1752H12.8712V43.6892H11.9754V43.9674H14.1248V43.6892H13.2293V36.3203H13.2531L15.4861 43.9674H15.7963L18.1124 36.3203H18.1368V43.6892H17.2172V43.9674H20.2028V43.6892H19.295V36.1752H20.2028V35.897H17.8264L16.0708 41.841H16.0472L14.3636 35.897H11.9754ZM21.5132 16.4805H21.9315V15.2049H21.0517V15.7014H21.3444C21.311 15.8734 21.1545 15.958 21.0011 15.958C20.5971 15.958 20.5158 15.5781 20.5158 15.3608L20.5158 15.3461C20.5153 15.1723 20.5141 14.6855 20.9557 14.6855C21.1122 14.6855 21.2448 14.8054 21.2689 14.9746H21.9049C21.8084 14.4294 21.4619 14.108 20.9139 14.108C20.4283 14.108 19.8529 14.4613 19.8529 15.3445C19.8529 16.0035 20.2449 16.5358 20.8803 16.5358C21.1153 16.5358 21.3444 16.4483 21.4916 16.2435L21.5132 16.4805ZM33.9654 15.3217C33.9654 16.0295 34.4025 16.5358 35.0559 16.5358C35.7103 16.5358 36.1466 16.0295 36.1466 15.3217C36.1466 14.6139 35.7103 14.1081 35.0559 14.1081C34.4025 14.1081 33.9654 14.6139 33.9654 15.3217ZM31.9691 16.4805H31.3065V14.1633H32.4152C32.9998 14.1633 33.2042 14.624 33.2042 14.9552C33.2042 15.5163 32.8549 15.7795 32.3603 15.7795H31.9691V16.4805ZM29.2463 16.4805H28.5842V14.1633H29.6926C30.2767 14.1633 30.4814 14.624 30.4814 14.9552C30.4814 15.5163 30.132 15.7795 29.6385 15.7795H29.2463V16.4805ZM23.5244 16.4805H22.8615V14.1635H24.1236C24.4999 14.1635 24.826 14.387 24.826 14.8251C24.826 15.0654 24.7231 15.3188 24.5033 15.4065C24.6839 15.4807 24.7957 15.6951 24.8198 15.9842C24.8214 16.0045 24.8228 16.0299 24.8243 16.0587C24.8315 16.1909 24.8424 16.3926 24.8919 16.4805H24.2293C24.196 16.3637 24.1839 16.2438 24.1752 16.1233L24.175 16.1213C24.1569 15.9013 24.1379 15.6722 23.8766 15.6722H23.5244V16.4805ZM26.9852 14.1634H27.6478V15.5844C27.6478 16.2273 27.3253 16.5359 26.6692 16.5359C26.0119 16.5359 25.6864 16.2273 25.6864 15.5844V14.1634H26.3495V15.4261C26.3495 15.6628 26.3495 15.9581 26.672 15.9581C26.9852 15.9581 26.9852 15.6628 26.9852 15.4261V14.1634Z" fill="#C9AC00"/>
<path d="M22.9115 43.2839C23.0081 43.1886 23.156 43.0427 23.156 42.5655V41.4419C22.38 41.4541 21.0545 41.5875 21.0545 42.6981C21.0545 43.2912 21.4244 43.6532 21.9739 43.6532C22.3559 43.6532 22.6068 43.5554 22.8936 43.3018C22.8992 43.2961 22.9052 43.2902 22.9113 43.2842L22.9115 43.2839Z" fill="#C9AC00"/>
<path d="M33.6134 43.6893H33.2634C32.8924 43.2826 32.5575 43.2133 30.9633 43.2133H29.6848C29.5057 43.2133 29.3747 43.0931 29.3747 42.9602C29.3747 42.452 30.1516 42.3627 31.1019 42.2533C31.2814 42.2327 31.4671 42.2113 31.6549 42.1863C31.906 42.1624 32.8608 41.8126 32.8608 40.6771C32.8608 40.1442 32.5142 39.7702 32.5142 39.7702C32.4365 39.6525 32.3476 39.5498 32.2471 39.4621H33.6134V43.6893Z" fill="#C9AC00"/>
<path d="M29.6166 45.3722C29.6166 46.1448 30.4164 46.3997 31.0377 46.3997C33.0683 46.3997 33.1522 45.252 33.1522 45.0589C33.1522 44.3457 32.937 43.9958 31.4202 43.9958C30.0111 43.9958 29.6166 44.9616 29.6166 45.3722Z" fill="#C9AC00"/>
<path d="M30.1783 40.709C30.1783 39.5618 30.4654 39.2719 31.0616 39.2719C31.7783 39.2719 31.8732 39.9963 31.8732 40.601C31.8732 41.3498 31.8134 41.9774 30.943 41.9774C30.2851 41.9774 30.1783 41.253 30.1783 40.709Z" fill="#C9AC00"/>
<path d="M26.8151 46.3997C26.1935 46.3997 25.3934 46.1448 25.3934 45.3722C25.3934 44.9616 25.7875 43.9958 27.1968 43.9958C28.7126 43.9958 28.9283 44.3457 28.9283 45.0589C28.9283 45.252 28.8444 46.3997 26.8151 46.3997Z" fill="#C9AC00"/>
<path d="M26.8382 39.2719C26.2415 39.2719 25.955 39.5618 25.955 40.709C25.955 41.253 26.0622 41.9774 26.7186 41.9774C27.5908 41.9774 27.6506 41.3498 27.6506 40.601C27.6506 39.9963 27.5552 39.2719 26.8382 39.2719Z" fill="#C9AC00"/>
<path d="M82.3874 41.5874C82.3874 40.5843 82.3748 39.3045 81.1692 39.3045C79.963 39.3045 79.9509 40.5843 79.9509 41.5874C79.9509 42.602 79.963 43.8828 81.1692 43.8828C82.3748 43.8828 82.3874 42.602 82.3874 41.5874Z" fill="#E8403C"/>
<path d="M78.628 15.3217C78.628 14.8055 78.8879 14.6856 79.0559 14.6856C79.2252 14.6856 79.4838 14.8055 79.4838 15.3217C79.4838 15.8377 79.2252 15.9581 79.0559 15.9581C78.8879 15.9581 78.628 15.8377 78.628 15.3217Z" fill="#E8403C"/>
<path d="M76.2643 14.7571H75.9691V15.2277H76.2256C76.397 15.2277 76.5783 15.2147 76.5783 14.9811C76.5783 14.7701 76.426 14.7571 76.2643 14.7571Z" fill="#E8403C"/>
<path d="M73.5418 14.7571H73.2463V15.2277H73.5031C73.6744 15.2277 73.8553 15.2147 73.8553 14.9811C73.8553 14.7701 73.7047 14.7571 73.5418 14.7571Z" fill="#E8403C"/>
<path d="M67.8343 14.7151H67.5244V15.176H67.8709C67.9941 15.176 68.1629 15.1529 68.1629 14.9453C68.1629 14.7994 68.0875 14.7151 67.8343 14.7151Z" fill="#E8403C"/>
<path fill-rule="evenodd" clip-rule="evenodd" d="M55 11H89V45.4H77.5129C77.5855 45.1947 77.6258 44.962 77.6258 44.6994C77.6258 44.438 77.5761 44.1898 77.4592 43.9675H79.2492V43.6893H78.5456V39.0622C78.1149 39.1714 77.6493 39.1831 77.2073 39.1831H75.7619C75.5473 39.108 75.3013 39.0708 75.0221 39.0708C73.8403 39.0708 73.3031 39.976 73.3031 40.7375C73.3031 41.4264 73.6612 41.8364 74.1989 42.1014V42.1269C73.7451 42.1988 73.2397 42.4092 72.9142 43.0734C72.8455 43.2132 72.7871 43.3342 72.7405 43.4391C72.4153 43.2517 71.9262 43.2133 70.7392 43.2133H69.4617C69.2826 43.2133 69.1513 43.0931 69.1513 42.9602C69.1513 42.452 69.9284 42.3627 70.8787 42.2533L70.8789 42.2533C71.0584 42.2327 71.244 42.2113 71.4318 42.1863C71.6829 42.1624 72.6379 41.8126 72.6379 40.6771C72.6379 40.469 72.5747 40.2699 72.526 40.1168C72.4956 40.021 72.4709 39.9433 72.4709 39.8925C72.4709 39.7702 72.7293 39.602 72.8488 39.602C72.8819 39.602 72.9204 39.6578 72.9671 39.7256C73.0394 39.8306 73.1316 39.9644 73.2546 39.9644C73.5057 39.9644 73.6373 39.7469 73.6373 39.506C73.6373 39.1915 73.3857 39.0941 73.172 39.0941C72.7772 39.0941 72.4117 39.4925 72.2914 39.7702C71.981 39.2999 71.4915 39.0708 70.7992 39.0708C69.6171 39.0708 69.08 39.976 69.08 40.7375C69.08 41.4264 69.4381 41.8364 69.975 42.1014V42.1269C69.5217 42.1988 68.7811 42.3929 68.7811 43.056C68.7811 43.0722 68.7748 43.0861 68.7679 43.1014C68.7635 43.1113 68.7588 43.1217 68.7554 43.1336C68.6964 43.3389 68.5769 43.6776 68.3385 43.6776C68.0872 43.6776 68.0872 43.484 68.0872 43.1219V40.2467C68.0872 39.7632 68.0872 39.0619 66.4629 39.0619C65.0425 39.0619 64.552 39.7874 64.552 40.2223C64.552 40.56 64.7318 40.8024 65.0545 40.8024C65.3524 40.8024 65.5437 40.5971 65.5437 40.2945C65.5437 40.0277 65.3834 39.9127 65.2774 39.8367C65.225 39.7991 65.1859 39.771 65.1859 39.7388C65.1859 39.3879 66.0329 39.3044 66.2964 39.3044C66.7135 39.3044 67.156 39.4741 67.156 40.0409V41.1886C65.3293 41.1886 64.1949 41.8172 64.1585 42.9405C64.1585 43.8341 64.8034 44.1245 65.5555 44.1245C66.1648 44.1245 66.7614 43.8946 67.1683 43.3872C67.2514 43.8341 67.5025 44.1245 67.9438 44.1245C68.3612 44.1245 68.7095 43.8805 68.8685 43.5141C69.07 43.9544 69.5857 44.0264 70.0578 44.0923L70.0827 44.0957V44.1323C69.4885 44.2855 68.7244 44.5986 68.6876 45.4H55V11ZM82.9883 43.9675V43.6893H83.908V36.2218H82.9883V35.9441H83.5021C83.9446 35.9441 84.409 35.9192 84.8389 35.8351V43.6893L86.2557 43.6893V39.4621H85.4559V39.1831H85.8504C86.2924 39.1831 86.7572 39.1714 87.1879 39.0622V43.6893H87.8923V43.9675L82.9883 43.9675ZM86.71 37.4702C86.9976 37.4702 87.3186 37.7352 87.3186 38.0506C87.3186 38.4244 87.0561 38.6905 86.71 38.6905C86.3642 38.6905 86.1369 38.4005 86.1369 38.0506C86.1369 37.7352 86.4116 37.4702 86.71 37.4702ZM78.8653 41.5874C78.8653 40.1262 79.9155 39.0621 81.1692 39.0621C82.4228 39.0621 83.473 40.1262 83.473 41.5874C83.473 43.0489 82.4228 44.1247 81.1692 44.1247C79.9155 44.1247 78.8653 43.0489 78.8653 41.5874ZM78.576 38.0359C78.576 37.7226 78.2528 37.4565 77.9662 37.4565C77.6676 37.4565 77.3943 37.7226 77.3943 38.0359C77.3943 38.3868 77.6201 38.6768 77.9662 38.6768C78.3128 38.6768 78.576 38.4102 78.576 38.0359ZM55.9754 35.897V36.1752H56.8712V43.6892H55.9754V43.9674H58.1248V43.6892H57.2293V36.3203H57.2531L59.4861 43.9674H59.7963L62.1124 36.3203H62.1368V43.6892H61.2172V43.9674H64.2028V43.6892H63.295V36.1752H64.2028V35.897H61.8264L60.0708 41.841H60.0472L58.3636 35.897H55.9754ZM65.5132 16.4805H65.9315V15.2049H65.0517V15.7014H65.3444C65.311 15.8734 65.1545 15.958 65.0011 15.958C64.5971 15.958 64.5158 15.5781 64.5158 15.3608L64.5158 15.3461C64.5153 15.1723 64.5141 14.6855 64.9557 14.6855C65.1122 14.6855 65.2448 14.8054 65.2689 14.9746H65.9049C65.8084 14.4294 65.4619 14.108 64.9139 14.108C64.4283 14.108 63.8529 14.4613 63.8529 15.3445C63.8529 16.0035 64.2449 16.5358 64.8803 16.5358C65.1153 16.5358 65.3444 16.4483 65.4916 16.2435L65.5132 16.4805ZM77.9654 15.3217C77.9654 16.0295 78.4025 16.5358 79.0559 16.5358C79.7103 16.5358 80.1466 16.0295 80.1466 15.3217C80.1466 14.6139 79.7103 14.1081 79.0559 14.1081C78.4025 14.1081 77.9654 14.6139 77.9654 15.3217ZM75.9691 16.4805H75.3065V14.1633H76.4152C76.9998 14.1633 77.2042 14.624 77.2042 14.9552C77.2042 15.5163 76.8549 15.7795 76.3603 15.7795H75.9691V16.4805ZM73.2463 16.4805H72.5842V14.1633H73.6926C74.2767 14.1633 74.4814 14.624 74.4814 14.9552C74.4814 15.5163 74.132 15.7795 73.6385 15.7795H73.2463V16.4805ZM67.5244 16.4805H66.8615V14.1635H68.1236C68.4999 14.1635 68.826 14.387 68.826 14.8251C68.826 15.0654 68.7231 15.3188 68.5033 15.4065C68.6839 15.4807 68.7957 15.6951 68.8198 15.9842C68.8214 16.0045 68.8228 16.0299 68.8243 16.0587C68.8315 16.1909 68.8424 16.3926 68.8919 16.4805H68.2293C68.196 16.3637 68.1839 16.2438 68.1752 16.1233L68.175 16.1213C68.1569 15.9013 68.1379 15.6722 67.8766 15.6722H67.5244V16.4805ZM70.9852 14.1634H71.6478V15.5844C71.6478 16.2273 71.3253 16.5359 70.6692 16.5359C70.0119 16.5359 69.6864 16.2273 69.6864 15.5844V14.1634H70.3495V15.4261C70.3495 15.6628 70.3495 15.9581 70.672 15.9581C70.9852 15.9581 70.9852 15.6628 70.9852 15.4261V14.1634Z" fill="#E8403C"/>
<path d="M66.9115 43.2839C67.0081 43.1886 67.156 43.0427 67.156 42.5655V41.4419C66.38 41.4541 65.0545 41.5875 65.0545 42.6981C65.0545 43.2912 65.4244 43.6532 65.9739 43.6532C66.3559 43.6532 66.6068 43.5554 66.8936 43.3018C66.8992 43.2961 66.9052 43.2902 66.9113 43.2842L66.9115 43.2839Z" fill="#E8403C"/>
<path d="M77.6134 43.6893H77.2634C76.8924 43.2826 76.5575 43.2133 74.9633 43.2133H73.6848C73.5057 43.2133 73.3747 43.0931 73.3747 42.9602C73.3747 42.452 74.1516 42.3627 75.1019 42.2533C75.2814 42.2327 75.4671 42.2113 75.6549 42.1863C75.906 42.1624 76.8608 41.8126 76.8608 40.6771C76.8608 40.1442 76.5142 39.7702 76.5142 39.7702C76.4365 39.6525 76.3476 39.5498 76.2471 39.4621H77.6134V43.6893Z" fill="#E8403C"/>
<path d="M73.6166 45.3722C73.6166 46.1448 74.4164 46.3997 75.0377 46.3997C77.0683 46.3997 77.1522 45.252 77.1522 45.0589C77.1522 44.3457 76.937 43.9958 75.4202 43.9958C74.0111 43.9958 73.6166 44.9616 73.6166 45.3722Z" fill="#E8403C"/>
<path d="M74.1783 40.709C74.1783 39.5618 74.4654 39.2719 75.0616 39.2719C75.7783 39.2719 75.8732 39.9963 75.8732 40.601C75.8732 41.3498 75.8134 41.9774 74.943 41.9774C74.2851 41.9774 74.1783 41.253 74.1783 40.709Z" fill="#E8403C"/>
<path d="M70.8151 46.3997C70.1935 46.3997 69.3934 46.1448 69.3934 45.3722C69.3934 44.9616 69.7875 43.9958 71.1968 43.9958C72.7126 43.9958 72.9283 44.3457 72.9283 45.0589C72.9283 45.252 72.8444 46.3997 70.8151 46.3997Z" fill="#E8403C"/>
<path d="M70.8382 39.2719C70.2415 39.2719 69.955 39.5618 69.955 40.709C69.955 41.253 70.0622 41.9774 70.7186 41.9774C71.5908 41.9774 71.6506 41.3498 71.6506 40.601C71.6506 39.9963 71.5552 39.2719 70.8382 39.2719Z" fill="#E8403C"/>
<path d="M38.3874 84.5874C38.3874 83.5843 38.3748 82.3045 37.1692 82.3045C35.963 82.3045 35.9509 83.5843 35.9509 84.5874C35.9509 85.602 35.963 86.8828 37.1692 86.8828C38.3748 86.8828 38.3874 85.602 38.3874 84.5874Z" fill="#718FC3"/>
<path d="M34.628 58.3217C34.628 57.8055 34.8879 57.6856 35.0559 57.6856C35.2252 57.6856 35.4838 57.8055 35.4838 58.3217C35.4838 58.8377 35.2252 58.9581 35.0559 58.9581C34.8879 58.9581 34.628 58.8377 34.628 58.3217Z" fill="#718FC3"/>
<path d="M32.2643 57.7571H31.9691V58.2277H32.2256C32.397 58.2277 32.5783 58.2147 32.5783 57.9811C32.5783 57.7701 32.426 57.7571 32.2643 57.7571Z" fill="#718FC3"/>
<path d="M29.5418 57.7571H29.2463V58.2277H29.5031C29.6744 58.2277 29.8553 58.2147 29.8553 57.9811C29.8553 57.7701 29.7047 57.7571 29.5418 57.7571Z" fill="#718FC3"/>
<path d="M23.8343 57.7151H23.5244V58.176H23.8709C23.9941 58.176 24.1629 58.1529 24.1629 57.9453C24.1629 57.7994 24.0875 57.7151 23.8343 57.7151Z" fill="#718FC3"/>
<path fill-rule="evenodd" clip-rule="evenodd" d="M11 54H45V88.4H33.5129C33.5855 88.1947 33.6258 87.962 33.6258 87.6994C33.6258 87.438 33.5761 87.1898 33.4592 86.9675H35.2492V86.6893H34.5456V82.0622C34.1149 82.1714 33.6493 82.1831 33.2073 82.1831H31.7619C31.5473 82.108 31.3013 82.0708 31.0221 82.0708C29.8403 82.0708 29.3031 82.976 29.3031 83.7375C29.3031 84.4264 29.6612 84.8364 30.1989 85.1014V85.1269C29.7451 85.1988 29.2397 85.4092 28.9142 86.0734C28.8455 86.2132 28.7871 86.3342 28.7405 86.4391C28.4153 86.2517 27.9262 86.2133 26.7392 86.2133H25.4617C25.2826 86.2133 25.1513 86.0931 25.1513 85.9602C25.1513 85.452 25.9284 85.3627 26.8787 85.2533L26.8789 85.2533C27.0584 85.2327 27.244 85.2113 27.4318 85.1863C27.6829 85.1624 28.6379 84.8126 28.6379 83.6771C28.6379 83.469 28.5747 83.2699 28.526 83.1168C28.4956 83.021 28.4709 82.9433 28.4709 82.8925C28.4709 82.7702 28.7293 82.602 28.8488 82.602C28.8819 82.602 28.9204 82.6578 28.9671 82.7256C29.0394 82.8306 29.1316 82.9644 29.2546 82.9644C29.5057 82.9644 29.6373 82.7469 29.6373 82.506C29.6373 82.1915 29.3857 82.0941 29.172 82.0941C28.7772 82.0941 28.4117 82.4925 28.2914 82.7702C27.981 82.2999 27.4915 82.0708 26.7992 82.0708C25.6171 82.0708 25.08 82.976 25.08 83.7375C25.08 84.4264 25.4381 84.8364 25.975 85.1014V85.1269C25.5217 85.1988 24.7811 85.3929 24.7811 86.056C24.7811 86.0722 24.7748 86.0861 24.7679 86.1014C24.7635 86.1113 24.7588 86.1217 24.7554 86.1336C24.6964 86.3389 24.5769 86.6776 24.3385 86.6776C24.0872 86.6776 24.0872 86.484 24.0872 86.1219V83.2467C24.0872 82.7632 24.0872 82.0619 22.4629 82.0619C21.0425 82.0619 20.552 82.7874 20.552 83.2223C20.552 83.56 20.7318 83.8024 21.0545 83.8024C21.3524 83.8024 21.5437 83.5971 21.5437 83.2945C21.5437 83.0277 21.3834 82.9127 21.2774 82.8367C21.225 82.7991 21.1859 82.771 21.1859 82.7388C21.1859 82.3879 22.0329 82.3044 22.2964 82.3044C22.7135 82.3044 23.156 82.4741 23.156 83.0409V84.1886C21.3293 84.1886 20.1949 84.8172 20.1585 85.9405C20.1585 86.8341 20.8034 87.1245 21.5555 87.1245C22.1648 87.1245 22.7614 86.8946 23.1683 86.3872C23.2514 86.8341 23.5025 87.1245 23.9438 87.1245C24.3612 87.1245 24.7095 86.8805 24.8685 86.5141C25.07 86.9544 25.5857 87.0264 26.0578 87.0923L26.0827 87.0957V87.1323C25.4885 87.2855 24.7244 87.5986 24.6876 88.4H11V54ZM38.9883 86.9675V86.6893H39.908V79.2218H38.9883V78.9441H39.5021C39.9446 78.9441 40.409 78.9192 40.8389 78.8351V86.6893L42.2557 86.6893V82.4621H41.4559V82.1831H41.8504C42.2924 82.1831 42.7572 82.1714 43.1879 82.0622V86.6893H43.8923V86.9675L38.9883 86.9675ZM42.71 80.4702C42.9976 80.4702 43.3186 80.7352 43.3186 81.0506C43.3186 81.4244 43.0561 81.6905 42.71 81.6905C42.3642 81.6905 42.1369 81.4005 42.1369 81.0506C42.1369 80.7352 42.4116 80.4702 42.71 80.4702ZM34.8653 84.5874C34.8653 83.1262 35.9155 82.0621 37.1692 82.0621C38.4228 82.0621 39.473 83.1262 39.473 84.5874C39.473 86.0489 38.4228 87.1247 37.1692 87.1247C35.9155 87.1247 34.8653 86.0489 34.8653 84.5874ZM34.576 81.0359C34.576 80.7226 34.2528 80.4565 33.9662 80.4565C33.6676 80.4565 33.3943 80.7226 33.3943 81.0359C33.3943 81.3868 33.6201 81.6768 33.9662 81.6768C34.3128 81.6768 34.576 81.4102 34.576 81.0359ZM11.9754 78.897V79.1752H12.8712V86.6892H11.9754V86.9674H14.1248V86.6892H13.2293V79.3203H13.2531L15.4861 86.9674H15.7963L18.1124 79.3203H18.1368V86.6892H17.2172V86.9674H20.2028V86.6892H19.295V79.1752H20.2028V78.897H17.8264L16.0708 84.841H16.0472L14.3636 78.897H11.9754ZM21.5132 59.4805H21.9315V58.2049H21.0517V58.7014H21.3444C21.311 58.8734 21.1545 58.958 21.0011 58.958C20.5971 58.958 20.5158 58.5781 20.5158 58.3608L20.5158 58.3461C20.5153 58.1723 20.5141 57.6855 20.9557 57.6855C21.1122 57.6855 21.2448 57.8054 21.2689 57.9746H21.9049C21.8084 57.4294 21.4619 57.108 20.9139 57.108C20.4283 57.108 19.8529 57.4613 19.8529 58.3445C19.8529 59.0035 20.2449 59.5358 20.8803 59.5358C21.1153 59.5358 21.3444 59.4483 21.4916 59.2435L21.5132 59.4805ZM33.9654 58.3217C33.9654 59.0295 34.4025 59.5358 35.0559 59.5358C35.7103 59.5358 36.1466 59.0295 36.1466 58.3217C36.1466 57.6139 35.7103 57.1081 35.0559 57.1081C34.4025 57.1081 33.9654 57.6139 33.9654 58.3217ZM31.9691 59.4805H31.3065V57.1633H32.4152C32.9998 57.1633 33.2042 57.624 33.2042 57.9552C33.2042 58.5163 32.8549 58.7795 32.3603 58.7795H31.9691V59.4805ZM29.2463 59.4805H28.5842V57.1633H29.6926C30.2767 57.1633 30.4814 57.624 30.4814 57.9552C30.4814 58.5163 30.132 58.7795 29.6385 58.7795H29.2463V59.4805ZM23.5244 59.4805H22.8615V57.1635H24.1236C24.4999 57.1635 24.826 57.387 24.826 57.8251C24.826 58.0654 24.7231 58.3188 24.5033 58.4065C24.6839 58.4807 24.7957 58.6951 24.8198 58.9842C24.8214 59.0045 24.8228 59.0299 24.8243 59.0587C24.8315 59.1909 24.8424 59.3926 24.8919 59.4805H24.2293C24.196 59.3637 24.1839 59.2438 24.1752 59.1233L24.175 59.1213C24.1569 58.9013 24.1379 58.6722 23.8766 58.6722H23.5244V59.4805ZM26.9852 57.1634H27.6478V58.5844C27.6478 59.2273 27.3253 59.5359 26.6692 59.5359C26.0119 59.5359 25.6864 59.2273 25.6864 58.5844V57.1634H26.3495V58.4261C26.3495 58.6628 26.3495 58.9581 26.672 58.9581C26.9852 58.9581 26.9852 58.6628 26.9852 58.4261V57.1634Z" fill="#718FC3"/>
<path d="M22.9115 86.2839C23.0081 86.1886 23.156 86.0427 23.156 85.5655V84.4419C22.38 84.4541 21.0545 84.5875 21.0545 85.6981C21.0545 86.2912 21.4244 86.6532 21.9739 86.6532C22.3559 86.6532 22.6068 86.5554 22.8936 86.3018C22.8992 86.2961 22.9052 86.2902 22.9113 86.2842L22.9115 86.2839Z" fill="#718FC3"/>
<path d="M33.6134 86.6893H33.2634C32.8924 86.2826 32.5575 86.2133 30.9633 86.2133H29.6848C29.5057 86.2133 29.3747 86.0931 29.3747 85.9602C29.3747 85.452 30.1516 85.3627 31.1019 85.2533C31.2814 85.2327 31.4671 85.2113 31.6549 85.1863C31.906 85.1624 32.8608 84.8126 32.8608 83.6771C32.8608 83.1442 32.5142 82.7702 32.5142 82.7702C32.4365 82.6525 32.3476 82.5498 32.2471 82.4621H33.6134V86.6893Z" fill="#718FC3"/>
<path d="M29.6166 88.3722C29.6166 89.1448 30.4164 89.3997 31.0377 89.3997C33.0683 89.3997 33.1522 88.252 33.1522 88.0589C33.1522 87.3457 32.937 86.9958 31.4202 86.9958C30.0111 86.9958 29.6166 87.9616 29.6166 88.3722Z" fill="#718FC3"/>
<path d="M30.1783 83.709C30.1783 82.5618 30.4654 82.2719 31.0616 82.2719C31.7783 82.2719 31.8732 82.9963 31.8732 83.601C31.8732 84.3498 31.8134 84.9774 30.943 84.9774C30.2851 84.9774 30.1783 84.253 30.1783 83.709Z" fill="#718FC3"/>
<path d="M26.8151 89.3997C26.1935 89.3997 25.3934 89.1448 25.3934 88.3722C25.3934 87.9616 25.7875 86.9958 27.1968 86.9958C28.7126 86.9958 28.9283 87.3457 28.9283 88.0589C28.9283 88.252 28.8444 89.3997 26.8151 89.3997Z" fill="#718FC3"/>
<path d="M26.8382 82.2719C26.2415 82.2719 25.955 82.5618 25.955 83.709C25.955 84.253 26.0622 84.9774 26.7186 84.9774C27.5908 84.9774 27.6506 84.3498 27.6506 83.601C27.6506 82.9963 27.5552 82.2719 26.8382 82.2719Z" fill="#718FC3"/>
<path d="M82.3874 84.5874C82.3874 83.5843 82.3748 82.3045 81.1692 82.3045C79.963 82.3045 79.9509 83.5843 79.9509 84.5874C79.9509 85.602 79.963 86.8828 81.1692 86.8828C82.3748 86.8828 82.3874 85.602 82.3874 84.5874Z" fill="#147546"/>
<path d="M78.628 58.3217C78.628 57.8055 78.8879 57.6856 79.0559 57.6856C79.2252 57.6856 79.4838 57.8055 79.4838 58.3217C79.4838 58.8377 79.2252 58.9581 79.0559 58.9581C78.8879 58.9581 78.628 58.8377 78.628 58.3217Z" fill="#147546"/>
<path d="M76.2643 57.7571H75.9691V58.2277H76.2256C76.397 58.2277 76.5783 58.2147 76.5783 57.9811C76.5783 57.7701 76.426 57.7571 76.2643 57.7571Z" fill="#147546"/>
<path d="M73.5418 57.7571H73.2463V58.2277H73.5031C73.6744 58.2277 73.8553 58.2147 73.8553 57.9811C73.8553 57.7701 73.7047 57.7571 73.5418 57.7571Z" fill="#147546"/>
<path d="M67.8343 57.7151H67.5244V58.176H67.8709C67.9941 58.176 68.1629 58.1529 68.1629 57.9453C68.1629 57.7994 68.0875 57.7151 67.8343 57.7151Z" fill="#147546"/>
<path fill-rule="evenodd" clip-rule="evenodd" d="M55 54H89V88.4H77.5129C77.5855 88.1947 77.6258 87.962 77.6258 87.6994C77.6258 87.438 77.5761 87.1898 77.4592 86.9675H79.2492V86.6893H78.5456V82.0622C78.1149 82.1714 77.6493 82.1831 77.2073 82.1831H75.7619C75.5473 82.108 75.3013 82.0708 75.0221 82.0708C73.8403 82.0708 73.3031 82.976 73.3031 83.7375C73.3031 84.4264 73.6612 84.8364 74.1989 85.1014V85.1269C73.7451 85.1988 73.2397 85.4092 72.9142 86.0734C72.8455 86.2132 72.7871 86.3342 72.7405 86.4391C72.4153 86.2517 71.9262 86.2133 70.7392 86.2133H69.4617C69.2826 86.2133 69.1513 86.0931 69.1513 85.9602C69.1513 85.452 69.9284 85.3627 70.8787 85.2533L70.8789 85.2533C71.0584 85.2327 71.244 85.2113 71.4318 85.1863C71.6829 85.1624 72.6379 84.8126 72.6379 83.6771C72.6379 83.469 72.5747 83.2699 72.526 83.1168C72.4956 83.021 72.4709 82.9433 72.4709 82.8925C72.4709 82.7702 72.7293 82.602 72.8488 82.602C72.8819 82.602 72.9204 82.6578 72.9671 82.7256C73.0394 82.8306 73.1316 82.9644 73.2546 82.9644C73.5057 82.9644 73.6373 82.7469 73.6373 82.506C73.6373 82.1915 73.3857 82.0941 73.172 82.0941C72.7772 82.0941 72.4117 82.4925 72.2914 82.7702C71.981 82.2999 71.4915 82.0708 70.7992 82.0708C69.6171 82.0708 69.08 82.976 69.08 83.7375C69.08 84.4264 69.4381 84.8364 69.975 85.1014V85.1269C69.5217 85.1988 68.7811 85.3929 68.7811 86.056C68.7811 86.0722 68.7748 86.0861 68.7679 86.1014C68.7635 86.1113 68.7588 86.1217 68.7554 86.1336C68.6964 86.3389 68.5769 86.6776 68.3385 86.6776C68.0872 86.6776 68.0872 86.484 68.0872 86.1219V83.2467C68.0872 82.7632 68.0872 82.0619 66.4629 82.0619C65.0425 82.0619 64.552 82.7874 64.552 83.2223C64.552 83.56 64.7318 83.8024 65.0545 83.8024C65.3524 83.8024 65.5437 83.5971 65.5437 83.2945C65.5437 83.0277 65.3834 82.9127 65.2774 82.8367C65.225 82.7991 65.1859 82.771 65.1859 82.7388C65.1859 82.3879 66.0329 82.3044 66.2964 82.3044C66.7135 82.3044 67.156 82.4741 67.156 83.0409V84.1886C65.3293 84.1886 64.1949 84.8172 64.1585 85.9405C64.1585 86.8341 64.8034 87.1245 65.5555 87.1245C66.1648 87.1245 66.7614 86.8946 67.1683 86.3872C67.2514 86.8341 67.5025 87.1245 67.9438 87.1245C68.3612 87.1245 68.7095 86.8805 68.8685 86.5141C69.07 86.9544 69.5857 87.0264 70.0578 87.0923L70.0827 87.0957V87.1323C69.4885 87.2855 68.7244 87.5986 68.6876 88.4H55V54ZM82.9883 86.9675V86.6893H83.908V79.2218H82.9883V78.9441H83.5021C83.9446 78.9441 84.409 78.9192 84.8389 78.8351V86.6893L86.2557 86.6893V82.4621H85.4559V82.1831H85.8504C86.2924 82.1831 86.7572 82.1714 87.1879 82.0622V86.6893H87.8923V86.9675L82.9883 86.9675ZM86.71 80.4702C86.9976 80.4702 87.3186 80.7352 87.3186 81.0506C87.3186 81.4244 87.0561 81.6905 86.71 81.6905C86.3642 81.6905 86.1369 81.4005 86.1369 81.0506C86.1369 80.7352 86.4116 80.4702 86.71 80.4702ZM78.8653 84.5874C78.8653 83.1262 79.9155 82.0621 81.1692 82.0621C82.4228 82.0621 83.473 83.1262 83.473 84.5874C83.473 86.0489 82.4228 87.1247 81.1692 87.1247C79.9155 87.1247 78.8653 86.0489 78.8653 84.5874ZM78.576 81.0359C78.576 80.7226 78.2528 80.4565 77.9662 80.4565C77.6676 80.4565 77.3943 80.7226 77.3943 81.0359C77.3943 81.3868 77.6201 81.6768 77.9662 81.6768C78.3128 81.6768 78.576 81.4102 78.576 81.0359ZM55.9754 78.897V79.1752H56.8712V86.6892H55.9754V86.9674H58.1248V86.6892H57.2293V79.3203H57.2531L59.4861 86.9674H59.7963L62.1124 79.3203H62.1368V86.6892H61.2172V86.9674H64.2028V86.6892H63.295V79.1752H64.2028V78.897H61.8264L60.0708 84.841H60.0472L58.3636 78.897H55.9754ZM65.5132 59.4805H65.9315V58.2049H65.0517V58.7014H65.3444C65.311 58.8734 65.1545 58.958 65.0011 58.958C64.5971 58.958 64.5158 58.5781 64.5158 58.3608L64.5158 58.3461C64.5153 58.1723 64.5141 57.6855 64.9557 57.6855C65.1122 57.6855 65.2448 57.8054 65.2689 57.9746H65.9049C65.8084 57.4294 65.4619 57.108 64.9139 57.108C64.4283 57.108 63.8529 57.4613 63.8529 58.3445C63.8529 59.0035 64.2449 59.5358 64.8803 59.5358C65.1153 59.5358 65.3444 59.4483 65.4916 59.2435L65.5132 59.4805ZM77.9654 58.3217C77.9654 59.0295 78.4025 59.5358 79.0559 59.5358C79.7103 59.5358 80.1466 59.0295 80.1466 58.3217C80.1466 57.6139 79.7103 57.1081 79.0559 57.1081C78.4025 57.1081 77.9654 57.6139 77.9654 58.3217ZM75.9691 59.4805H75.3065V57.1633H76.4152C76.9998 57.1633 77.2042 57.624 77.2042 57.9552C77.2042 58.5163 76.8549 58.7795 76.3603 58.7795H75.9691V59.4805ZM73.2463 59.4805H72.5842V57.1633H73.6926C74.2767 57.1633 74.4814 57.624 74.4814 57.9552C74.4814 58.5163 74.132 58.7795 73.6385 58.7795H73.2463V59.4805ZM67.5244 59.4805H66.8615V57.1635H68.1236C68.4999 57.1635 68.826 57.387 68.826 57.8251C68.826 58.0654 68.7231 58.3188 68.5033 58.4065C68.6839 58.4807 68.7957 58.6951 68.8198 58.9842C68.8214 59.0045 68.8228 59.0299 68.8243 59.0587C68.8315 59.1909 68.8424 59.3926 68.8919 59.4805H68.2293C68.196 59.3637 68.1839 59.2438 68.1752 59.1233L68.175 59.1213C68.1569 58.9013 68.1379 58.6722 67.8766 58.6722H67.5244V59.4805ZM70.9852 57.1634H71.6478V58.5844C71.6478 59.2273 71.3253 59.5359 70.6692 59.5359C70.0119 59.5359 69.6864 59.2273 69.6864 58.5844V57.1634H70.3495V58.4261C70.3495 58.6628 70.3495 58.9581 70.672 58.9581C70.9852 58.9581 70.9852 58.6628 70.9852 58.4261V57.1634Z" fill="#147546"/>
<path d="M66.9115 86.2839C67.0081 86.1886 67.156 86.0427 67.156 85.5655V84.4419C66.38 84.4541 65.0545 84.5875 65.0545 85.6981C65.0545 86.2912 65.4244 86.6532 65.9739 86.6532C66.3559 86.6532 66.6068 86.5554 66.8936 86.3018C66.8992 86.2961 66.9052 86.2902 66.9113 86.2842L66.9115 86.2839Z" fill="#147546"/>
<path d="M77.6134 86.6893H77.2634C76.8924 86.2826 76.5575 86.2133 74.9633 86.2133H73.6848C73.5057 86.2133 73.3747 86.0931 73.3747 85.9602C73.3747 85.452 74.1516 85.3627 75.1019 85.2533C75.2814 85.2327 75.4671 85.2113 75.6549 85.1863C75.906 85.1624 76.8608 84.8126 76.8608 83.6771C76.8608 83.1442 76.5142 82.7702 76.5142 82.7702C76.4365 82.6525 76.3476 82.5498 76.2471 82.4621H77.6134V86.6893Z" fill="#147546"/>
<path d="M73.6166 88.3722C73.6166 89.1448 74.4164 89.3997 75.0377 89.3997C77.0683 89.3997 77.1522 88.252 77.1522 88.0589C77.1522 87.3457 76.937 86.9958 75.4202 86.9958C74.0111 86.9958 73.6166 87.9616 73.6166 88.3722Z" fill="#147546"/>
<path d="M74.1783 83.709C74.1783 82.5618 74.4654 82.2719 75.0616 82.2719C75.7783 82.2719 75.8732 82.9963 75.8732 83.601C75.8732 84.3498 75.8134 84.9774 74.943 84.9774C74.2851 84.9774 74.1783 84.253 74.1783 83.709Z" fill="#147546"/>
<path d="M70.8151 89.3997C70.1935 89.3997 69.3934 89.1448 69.3934 88.3722C69.3934 87.9616 69.7875 86.9958 71.1968 86.9958C72.7126 86.9958 72.9283 87.3457 72.9283 88.0589C72.9283 88.252 72.8444 89.3997 70.8151 89.3997Z" fill="#147546"/>
<path d="M70.8382 82.2719C70.2415 82.2719 69.955 82.5618 69.955 83.709C69.955 84.253 70.0622 84.9774 70.7186 84.9774C71.5908 84.9774 71.6506 84.3498 71.6506 83.601C71.6506 82.9963 71.5552 82.2719 70.8382 82.2719Z" fill="#147546"/>
</svg>
