<svg width="60" height="63" viewBox="0 0 60 63" fill="none" xmlns="http://www.w3.org/2000/svg">
<path d="M48.3307 53.3502C48.3307 51.6005 48.3085 49.3683 46.1809 49.3683C44.0523 49.3683 44.0311 51.6005 44.0311 53.3502C44.0311 55.1197 44.0523 57.3537 46.1809 57.3537C48.3085 57.3537 48.3307 55.1197 48.3307 53.3502Z" fill="#0559A4"/>
<path d="M41.6965 7.53783C41.6965 6.63744 42.155 6.42829 42.4515 6.42829C42.7503 6.42829 43.2066 6.63744 43.2066 7.53783C43.2066 8.43777 42.7503 8.64782 42.4515 8.64782C42.155 8.64782 41.6965 8.43777 41.6965 7.53783Z" fill="#0559A4"/>
<path d="M37.5253 6.55315H37.0043V7.37387H37.457C37.7594 7.37387 38.0794 7.35124 38.0794 6.94382C38.0794 6.57578 37.8105 6.55315 37.5253 6.55315Z" fill="#0559A4"/>
<path d="M32.7208 6.55315H32.1993V7.37387H32.6524C32.9548 7.37387 33.274 7.35124 33.274 6.94382C33.274 6.57578 33.0083 6.55315 32.7208 6.55315Z" fill="#0559A4"/>
<path d="M22.6487 6.47976H22.1019V7.28373H22.7134C22.9307 7.28373 23.2286 7.24344 23.2286 6.88129C23.2286 6.62688 23.0955 6.47976 22.6487 6.47976Z" fill="#0559A4"/>
<path fill-rule="evenodd" clip-rule="evenodd" d="M0 0H60V60.0001H39.7286C39.8567 59.642 39.9278 59.236 39.9278 58.7781C39.9278 58.322 39.8401 57.8892 39.6339 57.5014H42.7928V57.0161H41.5511V48.9457C40.791 49.1362 39.9694 49.1566 39.1894 49.1566H36.6386C36.26 49.0255 35.8258 48.9606 35.333 48.9606C33.2475 48.9606 32.2996 50.5396 32.2996 51.8678C32.2996 53.0692 32.9315 53.7845 33.8804 54.2467V54.291C33.0796 54.4164 32.1878 54.7836 31.6133 55.942C31.492 56.1859 31.389 56.3969 31.3067 56.5798C30.733 56.253 29.8697 56.186 27.775 56.186H25.5206C25.2046 56.186 24.9728 55.9764 24.9728 55.7446C24.9728 54.8582 26.3443 54.7023 28.0213 54.5116L28.0216 54.5116C28.3383 54.4756 28.6659 54.4383 28.9972 54.3947C29.4404 54.3531 31.1258 53.7428 31.1258 51.7623C31.1258 51.3993 31.0142 51.0521 30.9283 50.785C30.8747 50.6181 30.8311 50.4825 30.8311 50.3938C30.8311 50.1806 31.2869 49.8873 31.4979 49.8873C31.5563 49.8873 31.6242 49.9846 31.7066 50.1028C31.8343 50.2859 31.997 50.5192 32.214 50.5192C32.6572 50.5192 32.8894 50.1399 32.8894 49.7198C32.8894 49.1711 32.4453 49.0014 32.0683 49.0014C31.3716 49.0014 30.7265 49.6963 30.5142 50.1806C29.9664 49.3604 29.1027 48.9606 27.8809 48.9606C25.7949 48.9606 24.847 50.5396 24.847 51.8678C24.847 53.0692 25.4789 53.7845 26.4264 54.2467V54.291C25.6265 54.4164 24.3196 54.755 24.3196 55.9117C24.3196 55.9399 24.3085 55.9642 24.2964 55.9909C24.2885 56.0081 24.2803 56.0262 24.2742 56.047C24.1701 56.4051 23.9592 56.9958 23.5386 56.9958C23.095 56.9958 23.095 56.6581 23.095 56.0266V51.0118C23.095 50.1684 23.095 48.9452 20.2286 48.9452C17.722 48.9452 16.8565 50.2105 16.8565 50.9692C16.8565 51.5582 17.1738 51.981 17.7433 51.981C18.2689 51.981 18.6066 51.6229 18.6066 51.0951C18.6066 50.6297 18.3237 50.4291 18.1366 50.2965C18.0442 50.231 17.9751 50.182 17.9751 50.1259C17.9751 49.5138 19.4699 49.3681 19.9348 49.3681C20.6708 49.3681 21.4517 49.6641 21.4517 50.6528V52.6546C18.2281 52.6546 16.2264 53.751 16.1621 55.7102C16.1621 57.2688 17.3001 57.7754 18.6274 57.7754C19.7025 57.7754 20.7555 57.3743 21.4735 56.4893C21.6201 57.2688 22.0633 57.7754 22.8419 57.7754C23.5786 57.7754 24.1933 57.3497 24.4739 56.7106C24.8294 57.4787 25.7394 57.6042 26.5725 57.719L26.6166 57.7251V57.7889C25.568 58.0562 24.2196 58.6022 24.1546 60.0001H0V0ZM49.3912 57.5014V57.0161H51.0141V43.9915H49.3912V43.5071H50.2979C51.0788 43.5071 51.8982 43.4636 52.6569 43.317V57.0161L55.1572 57.0161V49.6432H53.7457V49.1566H54.4419C55.2219 49.1566 56.0422 49.1362 56.8022 48.9457V57.0161H58.0453V57.5014L49.3912 57.5014ZM55.9589 46.169C56.4664 46.169 57.0328 46.6312 57.0328 47.1813C57.0328 47.8332 56.5696 48.2973 55.9589 48.2973C55.3486 48.2973 54.9474 47.7916 54.9474 47.1813C54.9474 46.6312 55.4323 46.169 55.9589 46.169ZM42.1153 53.3502C42.1153 50.8015 43.9686 48.9455 46.1809 48.9455C48.3932 48.9455 50.2465 50.8015 50.2465 53.3502C50.2465 55.8992 48.3932 57.7756 46.1809 57.7756C43.9686 57.7756 42.1153 55.8992 42.1153 53.3502ZM41.6047 47.1557C41.6047 46.6092 41.0343 46.1451 40.5286 46.1451C40.0016 46.1451 39.5194 46.6092 39.5194 47.1557C39.5194 47.7678 39.9178 48.2735 40.5286 48.2735C41.1402 48.2735 41.6047 47.8085 41.6047 47.1557ZM1.72125 43.425V43.9102H3.30203V57.016H1.72125V57.5013H5.51431V57.016H3.93398V44.1633H3.97608L7.91672 57.5013H8.46402L12.5513 44.1633H12.5943V57.016H10.9715V57.5013H16.2403V57.016H14.6382V43.9102H16.2403V43.425H12.0466L8.9484 53.7924H8.90675L5.93577 43.425H1.72125ZM18.5526 9.55902H19.291V7.33406H17.7382V8.20005H18.2548C18.1959 8.50019 17.9198 8.64776 17.6491 8.64776C16.9361 8.64776 16.7926 7.98503 16.7926 7.60613L16.7925 7.58049C16.7918 7.27723 16.7896 6.42823 17.5689 6.42823C17.8451 6.42823 18.0791 6.63738 18.1217 6.93253H19.2439C19.0737 5.98143 18.4621 5.421 17.4952 5.421C16.6382 5.421 15.6228 6.03711 15.6228 7.57761C15.6228 8.72698 16.3145 9.65544 17.4358 9.65544C17.8505 9.65544 18.2548 9.50289 18.5146 9.14572L18.5526 9.55902ZM40.5272 7.53783C40.5272 8.77231 41.2985 9.6555 42.4515 9.6555C43.6063 9.6555 44.3764 8.77231 44.3764 7.53783C44.3764 6.30335 43.6063 5.42106 42.4515 5.42106C41.2985 5.42106 40.5272 6.30335 40.5272 7.53783ZM37.0043 9.55899H35.835V5.5174H37.7915C38.8232 5.5174 39.184 6.32092 39.184 6.89855C39.184 7.87726 38.5674 8.33628 37.6946 8.33628H37.0043V9.55899ZM32.1993 9.55899H31.0309V5.5174H32.987C34.0177 5.5174 34.379 6.32092 34.379 6.89855C34.379 7.87726 33.7624 8.33628 32.8915 8.33628H32.1993V9.55899ZM22.1019 9.55894H20.9321V5.5178H23.1593C23.8234 5.5178 24.3988 5.90756 24.3988 6.6717C24.3988 7.09088 24.2173 7.53271 23.8293 7.68572C24.148 7.81518 24.3454 8.1891 24.3879 8.6934C24.3907 8.72875 24.3931 8.77316 24.3958 8.82332C24.4085 9.05381 24.4278 9.40576 24.5151 9.55894H23.3458C23.287 9.35523 23.2657 9.14609 23.2503 8.93604L23.25 8.93248C23.218 8.54878 23.1846 8.14927 22.7234 8.14927H22.1019V9.55894ZM28.2092 5.51755H29.3785V7.99601C29.3785 9.11732 28.8094 9.65556 27.6515 9.65556C26.4917 9.65556 25.9172 9.11732 25.9172 7.99601V5.51755H27.0874V7.71987C27.0874 8.13272 27.0874 8.64788 27.6564 8.64788C28.2092 8.64788 28.2092 8.13272 28.2092 7.71987V5.51755Z" fill="#0559A4"/>
<path d="M21.0203 56.3092C21.1908 56.1429 21.4517 55.8884 21.4517 55.0561V53.0964C20.0823 53.1177 17.7433 53.3503 17.7433 55.2874C17.7433 56.3218 18.3961 56.9533 19.3657 56.9533C20.0398 56.9533 20.4825 56.7826 20.9886 56.3403C20.9986 56.3304 21.0091 56.3202 21.0199 56.3096L21.0203 56.3092Z" fill="#0559A4"/>
<path d="M39.906 57.0161H39.2883C38.6337 56.3069 38.0426 56.186 35.2294 56.186H32.9732C32.6572 56.186 32.4259 55.9764 32.4259 55.7446C32.4259 54.8582 33.7969 54.7023 35.4739 54.5116C35.7907 54.4756 36.1184 54.4384 36.4498 54.3947C36.893 54.3531 38.5779 53.7428 38.5779 51.7623C38.5779 50.833 37.9663 50.1806 37.9663 50.1806C37.8292 49.9752 37.6723 49.7962 37.495 49.6432H39.906V57.0161Z" fill="#0559A4"/>
<path d="M32.8528 59.9514C32.8528 61.2991 34.2642 61.7436 35.3606 61.7436C38.9441 61.7436 39.0921 59.7418 39.0921 59.405C39.0921 58.1611 38.7123 57.5508 36.0356 57.5508C33.549 57.5508 32.8528 59.2353 32.8528 59.9514Z" fill="#0559A4"/>
<path d="M33.8441 51.818C33.8441 49.8171 34.3507 49.3115 35.4027 49.3115C36.6676 49.3115 36.835 50.5749 36.835 51.6297C36.835 52.9357 36.7296 54.0303 35.1936 54.0303C34.0325 54.0303 33.8441 52.7668 33.8441 51.818Z" fill="#0559A4"/>
<path d="M27.909 61.7436C26.8121 61.7436 25.4002 61.2991 25.4002 59.9514C25.4002 59.2353 26.0955 57.5508 28.5826 57.5508C31.2575 57.5508 31.6382 58.1611 31.6382 59.405C31.6382 59.7418 31.4902 61.7436 27.909 61.7436Z" fill="#0559A4"/>
<path d="M27.9497 49.3115C26.8968 49.3115 26.3911 49.8171 26.3911 51.818C26.3911 52.7668 26.5803 54.0303 27.7388 54.0303C29.2779 54.0303 29.3834 52.9357 29.3834 51.6297C29.3834 50.5749 29.215 49.3115 27.9497 49.3115Z" fill="#0559A4"/>
</svg>
