<?xml version="1.0" standalone="no"?>
<!DOCTYPE svg PUBLIC "-//W3C//DTD SVG 1.1//EN" "http://www.w3.org/Graphics/SVG/1.1/DTD/svg11.dtd" >
<svg xmlns="http://www.w3.org/2000/svg">
<defs>
  <font id="mgg-icons" horiz-adv-x="1000">
    <font-face font-family="mgg-icons"
      units-per-em="1000" ascent="1000"
      descent="0" />
    <missing-glyph horiz-adv-x="0" />
    <glyph glyph-name="accessibility"
      unicode="&#xEA01;"
      horiz-adv-x="1000" d="M854.1666666666666 750C745.4166666666666 720.8333333333333 617.9166666666666 708.3333333333334 500 708.3333333333334S254.5833333333334 720.8333333333333 145.8333333333333 750L125 666.6666666666667C202.5 645.8333333333334 291.6666666666667 632.0833333333334 375 625V83.3333333333334H458.3333333333333V333.3333333333334H541.6666666666666V83.3333333333334H625V625C708.3333333333333 632.0833333333334 797.5 645.8333333333334 875 666.6666666666667L854.1666666666666 750zM500 750C545.8333333333333 750 583.3333333333333 787.5 583.3333333333333 833.3333333333334S545.8333333333333 916.6666666666666 500 916.6666666666666S416.6666666666667 879.1666666666666 416.6666666666667 833.3333333333334S454.1666666666666 750 500 750z" />
    <glyph glyph-name="action-back"
      unicode="&#xEA02;"
      horiz-adv-x="1000" d="M833.3333333333333 541.6666666666667H326.25L559.1666666666666 774.5833333333334L500 833.3333333333334L166.6666666666667 500L500 166.6666666666668L558.75 225.4166666666668L326.25 458.3333333333334H833.3333333333333V541.6666666666667z" />
    <glyph glyph-name="action-close"
      unicode="&#xEA03;"
      horiz-adv-x="1000" d="M791.6666666666666 732.9166666666667L732.9166666666666 791.6666666666667L500 558.75L267.0833333333333 791.6666666666667L208.3333333333333 732.9166666666667L441.25 500L208.3333333333333 267.0833333333334L267.0833333333333 208.3333333333334L500 441.25L732.9166666666666 208.3333333333334L791.6666666666666 267.0833333333334L558.75 500z" />
    <glyph glyph-name="action-forward"
      unicode="&#xEA04;"
      horiz-adv-x="1000" d="M500 833.3333333333334L441.25 774.5833333333334L673.75 541.6666666666667H166.6666666666667V458.3333333333334H673.75L441.2500000000001 225.4166666666668L500 166.6666666666668L833.3333333333333 500z" />
    <glyph glyph-name="action-phone"
      unicode="&#xEA05;"
      horiz-adv-x="1000" d="M275.8333333333333 550.4166666666667C335.8333333333333 432.5000000000001 432.5 336.25 550.4166666666666 275.8333333333334L642.0833333333333 367.5C653.3333333333333 378.75 670 382.5 684.5833333333333 377.5C731.25 362.0833333333334 781.6666666666665 353.75 833.3333333333333 353.75C856.25 353.75 875 335.0000000000001 875 312.0833333333335V166.6666666666668C875 143.75 856.25 125 833.3333333333333 125C442.0833333333333 125 125 442.0833333333334 125 833.3333333333334C125 856.25 143.75 875 166.6666666666667 875H312.5C335.4166666666667 875 354.1666666666667 856.25 354.1666666666667 833.3333333333334C354.1666666666667 781.25 362.5 731.25 377.9166666666667 684.5833333333333C382.5 670 379.1666666666667 653.75 367.5 642.0833333333334L275.8333333333333 550.4166666666667z" />
    <glyph glyph-name="avatar-group"
      unicode="&#xEA06;"
      horiz-adv-x="1000" d="M499.5833333333333 916.6666666666666C269.5833333333334 916.6666666666666 82.9166666666667 730 82.9166666666667 500S269.5833333333334 83.3333333333334 499.5833333333333 83.3333333333334S916.25 270.0000000000001 916.25 500S729.5833333333334 916.6666666666666 499.5833333333334 916.6666666666666zM650 652.5C694.5833333333333 652.5 730.4166666666666 616.6666666666667 730.4166666666666 572.0833333333334C730.4166666666666 527.5 694.5833333333334 491.6666666666667 650 491.6666666666667C605.4166666666666 491.6666666666667 569.5833333333334 527.5 569.5833333333334 572.0833333333334C569.1666666666667 616.6666666666667 605.4166666666666 652.5 650 652.5zM400 718.3333333333334C454.1666666666666 718.3333333333334 498.3333333333333 674.1666666666667 498.3333333333333 620C498.3333333333333 565.8333333333334 454.1666666666666 521.6666666666667 400 521.6666666666667S301.6666666666667 565.8333333333335 301.6666666666667 620C301.6666666666667 674.5833333333335 345.4166666666667 718.3333333333334 400 718.3333333333334zM400 337.9166666666667V181.6666666666668C300 212.9166666666668 220.8333333333333 290.0000000000001 185.8333333333333 388.3333333333334C229.5833333333333 435.0000000000001 338.75 458.75 400 458.75C422.0833333333333 458.75 450 455.4166666666667 479.1666666666666 449.5833333333334C410.8333333333333 413.3333333333334 400 365.4166666666667 400 337.9166666666667zM499.5833333333333 166.6666666666668C488.3333333333333 166.6666666666668 477.5 167.0833333333335 466.6666666666666 168.3333333333334V337.9166666666667C466.6666666666666 397.0833333333334 589.1666666666666 426.6666666666667 650 426.6666666666667C694.5833333333333 426.6666666666667 771.6666666666666 410.4166666666667 809.9999999999999 378.75C761.2499999999998 254.9999999999999 640.8333333333333 166.6666666666668 499.5833333333333 166.6666666666668z" />
    <glyph glyph-name="avatar-placeholder"
      unicode="&#xEA07;"
      horiz-adv-x="1000" d="M500 916.6666666666666C270 916.6666666666666 83.3333333333333 730 83.3333333333333 500S270 83.3333333333334 500 83.3333333333334S916.6666666666666 270.0000000000001 916.6666666666666 500S729.9999999999999 916.6666666666666 500 916.6666666666666zM500 791.6666666666667C569.1666666666666 791.6666666666667 625 735.8333333333334 625 666.6666666666667S569.1666666666666 541.6666666666667 500 541.6666666666667S375 597.5 375 666.6666666666667S430.8333333333333 791.6666666666667 500 791.6666666666667zM500 200.0000000000001C395.8333333333333 200.0000000000001 303.75 253.3333333333335 250 334.1666666666668C251.25 417.0833333333335 416.6666666666667 462.5000000000001 500 462.5000000000001C582.9166666666666 462.5000000000001 748.7499999999999 417.0833333333335 750 334.1666666666668C696.25 253.3333333333335 604.1666666666666 200.0000000000001 500 200.0000000000001z" />
    <glyph glyph-name="calculator"
      unicode="&#xEA08;"
      horiz-adv-x="1000" d="M791.6666666666666 875H208.3333333333333C162.5 875 125 837.5 125 791.6666666666667V208.3333333333334C125 162.5 162.5 125 208.3333333333333 125H791.6666666666666C837.5 125 875 162.5 875 208.3333333333334V791.6666666666667C875 837.5 837.5 875 791.6666666666666 875zM542.9166666666666 705.8333333333334L587.0833333333333 750L645.8333333333333 691.25L704.5833333333333 750L748.7499999999999 705.8333333333333L689.9999999999999 647.0833333333333L748.7499999999999 588.3333333333333L704.5833333333333 544.1666666666666L645.8333333333333 602.5L587.0833333333333 543.75L542.9166666666666 587.9166666666667L601.6666666666666 646.6666666666667L542.9166666666666 705.8333333333334zM260.4166666666667 678.3333333333334H468.75V615.8333333333335H260.4166666666667V678.3333333333334zM479.1666666666666 333.3333333333334H395.8333333333333V250H333.3333333333333V333.3333333333334H250V395.8333333333334H333.3333333333333V479.1666666666667H395.8333333333333V395.8333333333334H479.1666666666666V333.3333333333334zM750 281.25H541.6666666666666V343.75H750V281.25zM750 385.4166666666668H541.6666666666666V447.9166666666668H750V385.4166666666668z" />
    <glyph glyph-name="cards-view"
      unicode="&#xEA09;"
      horiz-adv-x="1000" d="M166.6666666666667 541.6666666666667H375V791.6666666666667H166.6666666666667V541.6666666666667zM166.6666666666667 250H375V500H166.6666666666667V250zM416.6666666666667 250H625V500H416.6666666666667V250zM666.6666666666666 250H875V500H666.6666666666666V250zM416.6666666666667 541.6666666666667H625V791.6666666666667H416.6666666666667V541.6666666666667zM666.6666666666666 791.6666666666667V541.6666666666667H875V791.6666666666667H666.6666666666666z" />
    <glyph glyph-name="code-barcode"
      unicode="&#xEA0A;"
      horiz-adv-x="1000" d="M83.3333333333333 750H166.6666666666667V250H83.3333333333333V750M208.3333333333333 750H250V250H208.3333333333333V750M291.6666666666667 750H416.6666666666667V250H291.6666666666667V750M458.3333333333333 750H500V250H458.3333333333333V750M583.3333333333333 750H666.6666666666666V250H583.3333333333333V750M708.3333333333333 750H833.3333333333333V250H708.3333333333333V750M875 750H916.6666666666666V250H875V750z" />
    <glyph glyph-name="code-isbn"
      unicode="&#xEA0B;"
      horiz-adv-x="1000" d="M125 250H208.3333333333333V166.6666666666668H125V250zM291.6666666666667 250H375V166.6666666666668H291.6666666666667V250zM458.3333333333333 250H541.6666666666666V166.6666666666668H458.3333333333333V250zM625 250H708.3333333333333V166.6666666666668H625V250zM791.6666666666666 250H875V166.6666666666668H791.6666666666666V250zM791.6666666666666 833.3333333333334H875V250H791.6666666666666V833.3333333333334zM458.3333333333333 833.3333333333334H541.6666666666666V333.3333333333334H458.3333333333333V833.3333333333334zM125 833.3333333333334H208.3333333333333V250H125V833.3333333333334zM291.6666666666667 833.3333333333334H375V333.3333333333334H291.6666666666667V833.3333333333334zM625 833.3333333333334H708.3333333333333V333.3333333333334H625V833.3333333333334z" />
    <glyph glyph-name="code-qr"
      unicode="&#xEA0C;"
      horiz-adv-x="1000" d="M625 125H541.6666666666666V208.3333333333334H625V125zM541.6666666666666 416.6666666666668H458.3333333333333V208.3333333333334H541.6666666666666V416.6666666666668zM875 500H791.6666666666666V333.3333333333334H875V500zM791.6666666666666 583.3333333333334H708.3333333333333V500H791.6666666666666V583.3333333333334zM291.6666666666667 500H208.3333333333333V416.6666666666668H291.6666666666667V500zM208.3333333333333 583.3333333333334H125V500H208.3333333333333V583.3333333333334zM500 791.6666666666667H583.3333333333333V875H500V791.6666666666667zM187.5 812.5V687.5H312.5V812.5H187.5zM375 625H125V875H375V625zM187.5 312.5V187.5H312.5V312.5H187.5zM375 125H125V375H375V125zM687.5 812.5V687.5H812.5V812.5H687.5zM875 625H625V875H875V625zM791.6666666666666 208.3333333333334V333.3333333333334L625 333.3333333333334V250H708.3333333333333V125H875V208.3333333333334H791.6666666666666zM708.3333333333333 500L541.6666666666666 500V416.6666666666668H708.3333333333333V500zM541.6666666666666 583.3333333333334H291.6666666666667V500H375V416.6666666666668H458.3333333333333V500H541.6666666666666V583.3333333333334zM583.3333333333333 625V708.3333333333334H500V791.6666666666667H416.6666666666667V625L583.3333333333333 625zM281.25 781.25H218.75V718.75H281.25V781.25zM281.25 281.25H218.75V218.75H281.25V281.25zM781.25 781.25H718.75V718.75H781.25V781.25z" />
    <glyph glyph-name="columns-view"
      unicode="&#xEA0D;"
      horiz-adv-x="1000" d="M416.6666666666667 250H625V791.6666666666667H416.6666666666667V250zM166.6666666666667 250H375V791.6666666666667H166.6666666666667V250zM666.6666666666666 791.6666666666667V250H875V791.6666666666667H666.6666666666666z" />
    <glyph glyph-name="control-panel"
      unicode="&#xEA0E;"
      horiz-adv-x="1000" d="M499.5833333333333 916.6666666666666C269.5833333333333 916.6666666666666 83.3333333333333 730 83.3333333333333 500S269.5833333333333 83.3333333333334 499.5833333333333 83.3333333333334C729.9999999999999 83.3333333333334 916.6666666666666 270.0000000000001 916.6666666666666 500S729.9999999999999 916.6666666666666 499.5833333333333 916.6666666666666zM788.3333333333334 666.6666666666667H665.4166666666667C652.0833333333334 718.75 632.9166666666667 768.75 607.9166666666667 815C684.5833333333335 788.75 748.3333333333335 735.4166666666667 788.3333333333334 666.6666666666667zM500 831.6666666666667C534.5833333333333 781.6666666666666 561.6666666666666 726.25 579.5833333333333 666.6666666666667H420.4166666666667C438.3333333333333 726.25 465.4166666666666 781.6666666666666 500 831.6666666666667zM177.5 416.6666666666668C170.8333333333333 443.3333333333334 166.6666666666667 471.25 166.6666666666667 500S170.8333333333333 556.6666666666667 177.5 583.3333333333334H318.3333333333333C315 555.8333333333334 312.5 528.3333333333334 312.5 500C312.5 471.6666666666667 315 444.1666666666668 318.3333333333333 416.6666666666668H177.5zM211.6666666666667 333.3333333333334H334.5833333333334C347.9166666666667 281.25 367.0833333333333 231.2500000000001 392.0833333333333 185.0000000000001C315.4166666666667 211.25 251.6666666666667 264.1666666666668 211.6666666666667 333.3333333333335zM334.5833333333334 666.6666666666667H211.6666666666667C251.6666666666667 735.8333333333334 315.4166666666667 788.75 392.0833333333333 815C367.0833333333333 768.75 347.9166666666667 718.75 334.5833333333333 666.6666666666667zM500 168.3333333333334C465.4166666666666 218.3333333333333 438.3333333333333 273.75 420.4166666666667 333.3333333333334H579.5833333333333C561.6666666666666 273.75 534.5833333333333 218.3333333333335 500 168.3333333333334zM597.5 416.6666666666668H402.5C398.75 444.1666666666668 395.8333333333333 471.6666666666667 395.8333333333333 500C395.8333333333333 528.3333333333334 398.75 556.25 402.5 583.3333333333334H597.5C601.25 556.25 604.1666666666666 528.3333333333334 604.1666666666666 500C604.1666666666666 471.6666666666667 601.25 444.1666666666668 597.5 416.6666666666668zM607.9166666666666 185.0000000000001C632.9166666666666 231.2500000000001 652.0833333333333 281.25 665.4166666666666 333.3333333333335H788.3333333333333C748.3333333333331 264.5833333333335 684.5833333333333 211.25 607.9166666666665 185.0000000000001zM681.6666666666666 416.6666666666668C684.9999999999999 444.1666666666668 687.5 471.6666666666667 687.5 500C687.5 528.3333333333334 685 555.8333333333334 681.6666666666666 583.3333333333334H822.4999999999999C829.1666666666665 556.6666666666667 833.3333333333333 528.75 833.3333333333333 500S829.1666666666665 443.3333333333334 822.4999999999999 416.6666666666668H681.6666666666666z" />
    <glyph glyph-name="crud-cancel"
      unicode="&#xEA0F;"
      horiz-adv-x="1000" d="M791.6666666666666 732.9166666666667L732.9166666666666 791.6666666666667L500 558.75L267.0833333333333 791.6666666666667L208.3333333333333 732.9166666666667L441.25 500L208.3333333333333 267.0833333333334L267.0833333333333 208.3333333333334L500 441.25L732.9166666666666 208.3333333333334L791.6666666666666 267.0833333333334L558.75 500z" />
    <glyph glyph-name="crud-create"
      unicode="&#xEA10;"
      horiz-adv-x="1000" d="M791.6666666666666 458.3333333333334H541.6666666666666V208.3333333333334H458.3333333333333V458.3333333333334H208.3333333333333V541.6666666666667H458.3333333333333V791.6666666666667H541.6666666666666V541.6666666666667H791.6666666666666V458.3333333333334z" />
    <glyph glyph-name="crud-delete"
      unicode="&#xEA11;"
      horiz-adv-x="1000" d="M250 208.3333333333334C250 162.5 287.5 125 333.3333333333333 125H666.6666666666666C712.5 125 750 162.5 750 208.3333333333334V708.3333333333334H250V208.3333333333334zM791.6666666666666 833.3333333333334H645.8333333333333L604.1666666666666 875H395.8333333333333L354.1666666666667 833.3333333333334H208.3333333333333V750H791.6666666666666V833.3333333333334z" />
    <glyph glyph-name="crud-edit"
      unicode="&#xEA12;"
      horiz-adv-x="1000" d="M125 281.25V125H281.25L742.0833333333333 585.8333333333334L585.8333333333333 742.0833333333334L125 281.25zM862.9166666666666 706.6666666666667C879.1666666666666 722.9166666666667 879.1666666666666 749.1666666666667 862.9166666666666 765.4166666666667L765.4166666666666 862.9166666666667C749.1666666666666 879.1666666666666 722.9166666666666 879.1666666666666 706.6666666666666 862.9166666666667L630.4166666666666 786.6666666666667L786.6666666666667 630.4166666666666L862.9166666666666 706.6666666666666z" />
    <glyph glyph-name="crud-save"
      unicode="&#xEA13;"
      horiz-adv-x="1000" d="M375 326.25L201.25 500L142.0833333333334 441.25L375 208.3333333333334L875 708.3333333333334L816.25 767.0833333333334z" />
    <glyph glyph-name="dashboard"
      unicode="&#xEA14;"
      horiz-adv-x="1000" d="M125 458.3333333333334H458.3333333333333V875H125V458.3333333333334zM125 125H458.3333333333333V375H125V125zM541.6666666666666 125H875V541.6666666666667H541.6666666666666V125zM541.6666666666666 875V625H875V875H541.6666666666666z" />
    <glyph glyph-name="data-activity-log"
      unicode="&#xEA15;"
      horiz-adv-x="1000" d="M958.3333333333331 666.6666666666667C958.3333333333331 620.8333333333334 920.8333333333334 583.3333333333334 875 583.3333333333334C867.5 583.3333333333334 860.4166666666665 584.1666666666667 853.7499999999999 586.25L705.4166666666666 438.3333333333334C707.5 431.6666666666667 708.3333333333333 424.1666666666668 708.3333333333333 416.6666666666668C708.3333333333333 370.8333333333334 670.8333333333334 333.3333333333334 625 333.3333333333334S541.6666666666666 370.8333333333334 541.6666666666666 416.6666666666668C541.6666666666666 424.1666666666668 542.5 431.6666666666667 544.5833333333333 438.3333333333334L438.3333333333333 544.5833333333334C431.6666666666667 542.5 424.1666666666667 541.6666666666667 416.6666666666667 541.6666666666667S401.6666666666667 542.5 395 544.5833333333334L205.4166666666667 354.5833333333335C207.5 347.9166666666668 208.3333333333333 340.8333333333334 208.3333333333333 333.3333333333334C208.3333333333333 287.5 170.8333333333333 250 125 250S41.6666666666667 287.5 41.6666666666667 333.3333333333334S79.1666666666667 416.6666666666668 125 416.6666666666668C132.5 416.6666666666668 139.5833333333334 415.8333333333334 146.25 413.75L336.25 603.3333333333334C334.1666666666667 610 333.3333333333333 617.5 333.3333333333333 625C333.3333333333333 670.8333333333333 370.8333333333333 708.3333333333334 416.6666666666667 708.3333333333334S500 670.8333333333333 500 625C500 617.5 499.1666666666666 610 497.0833333333333 603.3333333333334L603.3333333333334 497.0833333333334C610 499.1666666666667 617.5 500 625 500S639.9999999999999 499.1666666666667 646.6666666666666 497.0833333333334L794.5833333333333 645.4166666666667C792.4999999999999 652.0833333333334 791.6666666666666 659.1666666666667 791.6666666666666 666.6666666666667C791.6666666666666 712.5 829.1666666666665 750 875 750S958.3333333333331 712.5 958.3333333333331 666.6666666666667z" />
    <glyph glyph-name="data-add"
      unicode="&#xEA16;"
      horiz-adv-x="1000" d="M791.6666666666666 458.3333333333334H541.6666666666666V208.3333333333334H458.3333333333333V458.3333333333334H208.3333333333333V541.6666666666667H458.3333333333333V791.6666666666667H541.6666666666666V541.6666666666667H791.6666666666666V458.3333333333334z" />
    <glyph glyph-name="data-analytics"
      unicode="&#xEA17;"
      horiz-adv-x="1000" d="M208.3333333333333 616.6666666666667H333.3333333333333V208.3333333333334H208.3333333333333zM441.6666666666667 791.6666666666667H558.3333333333333V208.3333333333334H441.6666666666666zM674.9999999999999 458.3333333333334H791.6666666666666V208.3333333333334H674.9999999999999z" />
    <glyph glyph-name="data-export"
      unicode="&#xEA18;"
      horiz-adv-x="1000" d="M791.6666666666666 500V208.3333333333334H208.3333333333333V500H125V208.3333333333334C125 162.5 162.5 125 208.3333333333333 125H791.6666666666666C837.5 125 875 162.5 875 208.3333333333334V500H791.6666666666666zM541.6666666666666 472.0833333333334L649.5833333333333 579.5833333333334L708.3333333333333 520.8333333333334L500 312.5L291.6666666666667 520.8333333333334L350.4166666666667 579.5833333333334L458.3333333333333 472.0833333333334V875H541.6666666666666z" />
    <glyph glyph-name="data-favorite-list"
      unicode="&#xEA19;"
      horiz-adv-x="1000" d="M791.6666666666666 250L875 208.3333333333334V875C875 920.8333333333334 837.5 958.3333333333334 791.6666666666666 958.3333333333334H374.5833333333333C328.75 958.3333333333334 291.6666666666667 920.8333333333334 291.6666666666667 875H708.3333333333333C754.1666666666666 875 791.6666666666666 837.5 791.6666666666666 791.6666666666667V250zM625 791.6666666666667H208.3333333333333C162.5 791.6666666666667 125 754.1666666666666 125 708.3333333333334V41.6666666666667L416.6666666666667 166.6666666666668L708.3333333333333 41.6666666666667V708.3333333333334C708.3333333333333 754.1666666666666 670.8333333333334 791.6666666666667 625 791.6666666666667z" />
    <glyph glyph-name="data-favorite"
      unicode="&#xEA1A;"
      horiz-adv-x="1000" d="M708.3333333333333 875H291.6666666666667C245.8333333333334 875 208.75 837.5 208.75 791.6666666666667L208.3333333333333 125L500 250L791.6666666666666 125V791.6666666666667C791.6666666666666 837.5 754.1666666666666 875 708.3333333333333 875z" />
    <glyph glyph-name="data-filtered"
      unicode="&#xEA1B;"
      horiz-adv-x="1000" d="M177.0833333333333 766.25C261.25 658.3333333333334 416.6666666666667 458.3333333333334 416.6666666666667 458.3333333333334V208.3333333333334C416.6666666666667 185.4166666666666 435.4166666666667 166.6666666666668 458.3333333333333 166.6666666666668H541.6666666666666C564.5833333333334 166.6666666666668 583.3333333333333 185.4166666666666 583.3333333333333 208.3333333333334V458.3333333333334C583.3333333333333 458.3333333333334 738.3333333333333 658.3333333333334 822.5 766.25C843.75 793.75 824.1666666666666 833.3333333333334 789.5833333333333 833.3333333333334H210C175.4166666666667 833.3333333333334 155.8333333333334 793.75 177.0833333333333 766.25z" />
    <glyph glyph-name="data-history"
      unicode="&#xEA1C;"
      horiz-adv-x="1000" d="M541.6666666666666 875C334.5833333333334 875 166.6666666666667 707.0833333333333 166.6666666666667 500H41.6666666666667L203.75 337.9166666666667L206.6666666666667 332.0833333333334L375 500H250C250 661.25 380.4166666666667 791.6666666666667 541.6666666666666 791.6666666666667S833.3333333333333 661.25 833.3333333333333 500S702.9166666666666 208.3333333333334 541.6666666666666 208.3333333333334C461.25 208.3333333333334 388.3333333333333 241.25 335.8333333333333 294.1666666666667L276.6666666666667 235.0000000000001C344.5833333333333 167.0833333333335 437.9166666666667 125 541.6666666666666 125C748.7499999999999 125 916.6666666666666 292.9166666666668 916.6666666666666 500S748.7499999999999 875 541.6666666666666 875zM500 666.6666666666667V458.3333333333334L678.3333333333334 352.5000000000001L708.3333333333333 402.9166666666668L562.5 489.5833333333334V666.6666666666667H500z" />
    <glyph glyph-name="data-search"
      unicode="&#xEA1D;"
      horiz-adv-x="1000" d="M645.8333333333333 416.6666666666668H612.9166666666666L601.25 427.9166666666667C642.0833333333333 475.4166666666667 666.6666666666666 537.0833333333334 666.6666666666666 604.1666666666667C666.6666666666666 753.75 545.4166666666666 875 395.8333333333333 875S125 753.75 125 604.1666666666667S246.25 333.3333333333334 395.8333333333333 333.3333333333334C462.9166666666666 333.3333333333334 524.5833333333333 357.9166666666668 572.0833333333334 398.75L583.3333333333333 387.0833333333334V354.1666666666668L791.6666666666666 146.25L853.7499999999999 208.3333333333334L645.8333333333333 416.6666666666668zM395.8333333333333 416.6666666666668C292.0833333333333 416.6666666666668 208.3333333333333 500.4166666666667 208.3333333333333 604.1666666666667S292.0833333333333 791.6666666666667 395.8333333333333 791.6666666666667S583.3333333333333 707.9166666666667 583.3333333333333 604.1666666666667S499.5833333333333 416.6666666666668 395.8333333333333 416.6666666666668z" />
    <glyph glyph-name="data-share"
      unicode="&#xEA1E;"
      horiz-adv-x="1000" d="M750 330.0000000000001C718.3333333333333 330.0000000000001 689.9999999999999 317.5000000000001 668.3333333333333 297.9166666666668L371.25 470.8333333333334C373.3333333333334 480.4166666666667 375 490.0000000000001 375 500S373.3333333333334 519.5833333333334 371.25 529.1666666666667L665 700.4166666666667C687.5 679.5833333333333 717.0833333333334 666.6666666666667 750 666.6666666666667C819.1666666666666 666.6666666666667 875 722.5 875 791.6666666666667S819.1666666666666 916.6666666666666 750 916.6666666666666S625 860.8333333333334 625 791.6666666666667C625 781.6666666666666 626.6666666666666 772.0833333333334 628.75 762.5L335 591.25C312.5 612.0833333333333 282.9166666666667 625 250 625C180.8333333333333 625 125 569.1666666666667 125 500S180.8333333333333 375 250 375C282.9166666666667 375 312.5 387.9166666666668 335 408.75L631.6666666666666 235.4166666666667C629.5833333333333 226.6666666666667 628.3333333333333 217.5 628.3333333333333 208.3333333333334C628.3333333333333 141.2500000000001 682.9166666666666 86.6666666666666 750 86.6666666666666C817.0833333333333 86.6666666666666 871.6666666666667 141.2499999999999 871.6666666666667 208.3333333333334S817.0833333333334 330.0000000000001 750 330.0000000000001z" />
    <glyph glyph-name="data-unfavorite"
      unicode="&#xEA1F;"
      horiz-adv-x="1000" d="M708.3333333333333 875H291.6666666666667C245.8333333333334 875 208.75 837.5 208.75 791.6666666666667L208.3333333333333 125L500 250L791.6666666666666 125V791.6666666666667C791.6666666666666 837.5 754.1666666666666 875 708.3333333333333 875zM708.3333333333333 250L500 340.8333333333334L291.6666666666667 250V791.6666666666667H708.3333333333333V250z" />
    <glyph glyph-name="data-unfiltered"
      unicode="&#xEA20;"
      horiz-adv-x="1000" d="M177.0833333333333 766.25C261.25 658.3333333333334 416.6666666666667 458.3333333333334 416.6666666666667 458.3333333333334V208.3333333333334C416.6666666666667 185.4166666666666 435.4166666666667 166.6666666666668 458.3333333333333 166.6666666666668H541.6666666666666C564.5833333333334 166.6666666666668 583.3333333333333 185.4166666666666 583.3333333333333 208.3333333333334V458.3333333333334C583.3333333333333 458.3333333333334 738.3333333333333 658.3333333333334 822.5 766.25C843.75 793.75 824.1666666666666 833.3333333333334 789.5833333333333 833.3333333333334H210C175.4166666666667 833.3333333333334 155.8333333333334 793.75 177.0833333333333 766.25z" />
    <glyph glyph-name="data-view"
      unicode="&#xEA21;"
      horiz-adv-x="1000" d="M125 458.3333333333334H208.3333333333333V541.6666666666667H125V458.3333333333334zM125 291.6666666666668H208.3333333333333V375H125V291.6666666666668zM125 625H208.3333333333333V708.3333333333334H125V625zM291.6666666666667 458.3333333333334H875V541.6666666666667H291.6666666666667V458.3333333333334zM291.6666666666667 291.6666666666668H875V375H291.6666666666667V291.6666666666668zM291.6666666666667 708.3333333333334V625H875V708.3333333333334H291.6666666666667z" />
    <glyph glyph-name="design-component"
      unicode="&#xEA22;"
      horiz-adv-x="1000" d="M854.1666666666666 541.6666666666667H791.6666666666666V708.3333333333334C791.6666666666666 754.1666666666666 754.1666666666666 791.6666666666667 708.3333333333333 791.6666666666667H541.6666666666666V854.1666666666667C541.6666666666666 911.6666666666666 495 958.3333333333334 437.5 958.3333333333334S333.3333333333333 911.6666666666666 333.3333333333333 854.1666666666667V791.6666666666667H166.6666666666667C120.8333333333333 791.6666666666667 83.75 754.1666666666666 83.75 708.3333333333334V550H145.8333333333333C207.9166666666667 550 258.3333333333333 499.5833333333333 258.3333333333333 437.5S207.9166666666667 325.0000000000001 145.8333333333333 325.0000000000001H83.3333333333333V166.6666666666668C83.3333333333333 120.8333333333334 120.8333333333333 83.3333333333334 166.6666666666667 83.3333333333334H325V145.8333333333334C325 207.9166666666666 375.4166666666667 258.3333333333334 437.5 258.3333333333334C499.5833333333333 258.3333333333334 549.9999999999999 207.9166666666666 549.9999999999999 145.8333333333334V83.3333333333334H708.3333333333333C754.1666666666666 83.3333333333334 791.6666666666666 120.8333333333334 791.6666666666666 166.6666666666668V333.3333333333334H854.1666666666666C911.6666666666666 333.3333333333334 958.3333333333331 380.0000000000001 958.3333333333331 437.5S911.6666666666666 541.6666666666667 854.1666666666666 541.6666666666667z" />
    <glyph glyph-name="design-crop"
      unicode="&#xEA23;"
      horiz-adv-x="1000" d="M401.6666666666667 681.6666666666667C411.25 702.5 416.6666666666667 725.4166666666667 416.6666666666667 750C416.6666666666667 842.0833333333334 342.0833333333334 916.6666666666666 250 916.6666666666666S83.3333333333333 842.0833333333334 83.3333333333333 750S157.9166666666667 583.3333333333334 250 583.3333333333334C274.5833333333333 583.3333333333334 297.5 588.75 318.3333333333333 598.3333333333333L416.6666666666667 500L318.3333333333333 401.6666666666668C297.5 411.25 274.5833333333333 416.6666666666668 250 416.6666666666668C157.9166666666667 416.6666666666668 83.3333333333333 342.0833333333334 83.3333333333333 250S157.9166666666667 83.3333333333334 250 83.3333333333334S416.6666666666667 157.9166666666666 416.6666666666667 250C416.6666666666667 274.5833333333334 411.25 297.5000000000001 401.6666666666667 318.3333333333334L500 416.6666666666668L791.6666666666666 125H916.6666666666666V166.6666666666668L401.6666666666667 681.6666666666667zM250 666.6666666666667C204.1666666666667 666.6666666666667 166.6666666666667 703.75 166.6666666666667 750S204.1666666666667 833.3333333333334 250 833.3333333333334S333.3333333333333 796.25 333.3333333333333 750S295.8333333333333 666.6666666666667 250 666.6666666666667zM250 166.6666666666668C204.1666666666667 166.6666666666668 166.6666666666667 203.7500000000001 166.6666666666667 250S204.1666666666667 333.3333333333334 250 333.3333333333334S333.3333333333333 296.25 333.3333333333333 250S295.8333333333333 166.6666666666668 250 166.6666666666668zM500 479.1666666666667C488.3333333333333 479.1666666666667 479.1666666666666 488.3333333333334 479.1666666666666 500S488.3333333333333 520.8333333333334 500 520.8333333333334S520.8333333333333 511.6666666666667 520.8333333333333 500S511.6666666666666 479.1666666666667 500 479.1666666666667zM791.6666666666666 875L541.6666666666666 625L625 541.6666666666667L916.6666666666666 833.3333333333334V875z" />
    <glyph glyph-name="design-measure"
      unicode="&#xEA24;"
      horiz-adv-x="1000" d="M735.8333333333333 264.1666666666668L691.6666666666667 220.0000000000001L662.0833333333334 249.5833333333335L706.2499999999999 293.7500000000001L625.4166666666666 374.5833333333334L581.2499999999999 330.4166666666668L551.6666666666665 360.0000000000001L595.8333333333333 404.1666666666668L515 485L470.8333333333333 440.8333333333334L441.25 470.4166666666666L485.4166666666666 514.5833333333334L404.1666666666667 595.8333333333334L360 551.6666666666667L330.4166666666666 581.25L374.5833333333333 625.4166666666667L293.75 706.25L249.5833333333333 662.0833333333334L220 691.6666666666667L264.1666666666667 735.8333333333334L166.6666666666667 833.3333333333334V250C166.6666666666667 204.1666666666666 204.1666666666667 166.6666666666668 250 166.6666666666668H833.3333333333333L735.8333333333333 264.1666666666668zM291.6666666666667 291.6666666666668V531.6666666666667L531.6666666666666 291.6666666666668H291.6666666666667z" />
    <glyph glyph-name="design-palette"
      unicode="&#xEA25;"
      horiz-adv-x="1000" d="M500 875C292.9166666666667 875 125 707.0833333333333 125 500S292.9166666666667 125 500 125C534.5833333333333 125 562.5 152.9166666666668 562.5 187.5C562.5 203.7500000000001 556.25 218.3333333333333 546.25 229.5833333333335C536.6666666666666 240.4166666666669 530.4166666666666 255.0000000000001 530.4166666666666 270.8333333333334C530.4166666666666 305.4166666666667 558.3333333333333 333.3333333333334 592.9166666666666 333.3333333333334H666.6666666666666C781.6666666666665 333.3333333333334 875 426.6666666666668 875 541.6666666666667C875 725.8333333333334 707.0833333333333 875 500 875zM270.8333333333333 500C236.25 500 208.3333333333333 527.9166666666667 208.3333333333333 562.5S236.25 625 270.8333333333333 625S333.3333333333333 597.0833333333334 333.3333333333333 562.5S305.4166666666667 500 270.8333333333333 500zM395.8333333333333 666.6666666666667C361.25 666.6666666666667 333.3333333333333 694.5833333333334 333.3333333333333 729.1666666666667S361.25 791.6666666666667 395.8333333333333 791.6666666666667S458.3333333333333 763.75 458.3333333333333 729.1666666666667S430.4166666666667 666.6666666666667 395.8333333333333 666.6666666666667zM604.1666666666666 666.6666666666667C569.5833333333333 666.6666666666667 541.6666666666666 694.5833333333334 541.6666666666666 729.1666666666667S569.5833333333333 791.6666666666667 604.1666666666666 791.6666666666667S666.6666666666666 763.75 666.6666666666666 729.1666666666667S638.75 666.6666666666667 604.1666666666666 666.6666666666667zM729.1666666666666 500C694.5833333333334 500 666.6666666666666 527.9166666666667 666.6666666666666 562.5S694.5833333333334 625 729.1666666666666 625S791.6666666666666 597.0833333333334 791.6666666666666 562.5S763.7499999999999 500 729.1666666666666 500z" />
    <glyph glyph-name="design-typography"
      unicode="&#xEA26;"
      horiz-adv-x="1000" d="M375 833.3333333333334V708.3333333333334H583.3333333333333V208.3333333333334H708.3333333333333V708.3333333333334H916.6666666666666V833.3333333333334H375zM125 500H250V208.3333333333334H375V500H500V625H125V500z" />
    <glyph glyph-name="dev-markup"
      unicode="&#xEA27;"
      horiz-adv-x="1000" d="M391.6666666666667 308.3333333333333L200 500L391.6666666666666 691.6666666666667L333.3333333333333 750L83.3333333333333 500L333.3333333333333 250L391.6666666666667 308.3333333333333zM608.3333333333334 308.3333333333333L800.0000000000001 499.9999999999999L608.3333333333335 691.6666666666665L666.6666666666666 750L916.6666666666666 500L666.6666666666666 250L608.3333333333333 308.3333333333333z" />
    <glyph glyph-name="dev-terminal"
      unicode="&#xEA28;"
      horiz-adv-x="1000" d="M833.3333333333333 833.3333333333334H166.6666666666667C120.8333333333333 833.3333333333334 83.3333333333333 795.8333333333334 83.3333333333333 750V250C83.3333333333333 204.1666666666666 120.8333333333333 166.6666666666668 166.6666666666667 166.6666666666668H833.3333333333333C879.1666666666666 166.6666666666668 916.6666666666666 204.1666666666666 916.6666666666666 250V750C916.6666666666666 795.8333333333334 879.1666666666666 833.3333333333334 833.3333333333333 833.3333333333334zM166.6666666666667 750H250V666.6666666666667H166.6666666666667V750zM583.3333333333333 750H333.3333333333333V666.6666666666667H583.3333333333333V750zM666.6666666666666 750H833.3333333333333V666.6666666666667H666.6666666666666V750zM416.6666666666667 583.3333333333334H166.6666666666667V500H416.6666666666667V583.3333333333334z" />
    <glyph glyph-name="document-book"
      unicode="&#xEA29;"
      horiz-adv-x="1000" d="M875 791.6666666666667C828.75 806.25 777.9166666666667 812.5 729.1666666666666 812.5C647.9166666666666 812.5 560.4166666666666 795.8333333333334 500 750C439.5833333333333 795.8333333333334 352.0833333333333 812.5 270.8333333333333 812.5S102.0833333333333 795.8333333333334 41.6666666666667 750V139.5833333333335C41.6666666666667 129.1666666666668 52.0833333333333 118.7500000000001 62.5 118.7500000000001C66.6666666666667 118.7500000000001 68.75 120.8333333333335 72.9166666666667 120.8333333333335C129.1666666666667 147.9166666666668 210.4166666666667 166.6666666666668 270.8333333333333 166.6666666666668C352.0833333333333 166.6666666666668 439.5833333333333 150.0000000000001 500 104.1666666666667C556.25 139.5833333333335 658.3333333333334 166.6666666666668 729.1666666666666 166.6666666666668C797.9166666666665 166.6666666666668 868.75 154.1666666666666 927.0833333333331 122.9166666666668C931.25 120.8333333333334 933.3333333333331 120.8333333333334 937.5 120.8333333333334C947.9166666666666 120.8333333333334 958.3333333333331 131.25 958.3333333333331 141.6666666666666V750C933.3333333333331 768.75 906.25 781.25 875 791.6666666666667zM875 229.1666666666668C829.1666666666665 243.7500000000001 779.1666666666666 250 729.1666666666666 250C658.3333333333334 250 556.25 222.9166666666668 500 187.5V666.6666666666667C556.25 702.0833333333333 658.3333333333334 729.1666666666667 729.1666666666666 729.1666666666667C779.1666666666666 729.1666666666667 829.1666666666665 722.9166666666667 875 708.3333333333334V229.1666666666668zM729.1666666666666 562.5C765.8333333333333 562.5 801.25 558.75 833.3333333333333 551.6666666666667V615C800.4166666666666 621.25 764.9999999999999 625 729.1666666666666 625C658.3333333333334 625 594.1666666666666 612.9166666666667 541.6666666666666 590.4166666666667V521.25C588.75 547.9166666666667 654.1666666666666 562.5 729.1666666666666 562.5zM541.6666666666666 479.5833333333334V410.4166666666667C588.7499999999999 437.0833333333334 654.1666666666666 451.6666666666667 729.1666666666666 451.6666666666667C765.8333333333333 451.6666666666667 801.25 447.9166666666668 833.3333333333333 440.8333333333334V504.1666666666667C800.4166666666666 510.4166666666667 764.9999999999999 514.1666666666667 729.1666666666666 514.1666666666667C658.3333333333334 514.1666666666667 594.1666666666666 501.6666666666667 541.6666666666666 479.5833333333334zM729.1666666666666 402.9166666666668C658.3333333333334 402.9166666666668 594.1666666666666 390.8333333333334 541.6666666666666 368.3333333333334V299.1666666666668C588.7499999999999 325.8333333333334 654.1666666666666 340.4166666666668 729.1666666666666 340.4166666666668C765.8333333333333 340.4166666666668 801.25 336.6666666666668 833.3333333333333 329.5833333333334V392.9166666666668C800.4166666666666 399.5833333333334 764.9999999999999 402.9166666666668 729.1666666666666 402.9166666666668z" />
    <glyph glyph-name="document-email"
      unicode="&#xEA2A;"
      horiz-adv-x="1000" d="M833.3333333333333 833.3333333333334H166.6666666666667C120.8333333333333 833.3333333333334 83.75 795.8333333333334 83.75 750L83.3333333333333 250C83.3333333333333 204.1666666666666 120.8333333333333 166.6666666666668 166.6666666666667 166.6666666666668H833.3333333333333C879.1666666666666 166.6666666666668 916.6666666666666 204.1666666666666 916.6666666666666 250V750C916.6666666666666 795.8333333333334 879.1666666666666 833.3333333333334 833.3333333333333 833.3333333333334zM833.3333333333333 666.6666666666667L500 458.3333333333334L166.6666666666667 666.6666666666667V750L500 541.6666666666667L833.3333333333333 750V666.6666666666667z" />
    <glyph glyph-name="document-note"
      unicode="&#xEA2B;"
      horiz-adv-x="1000" d="M791.6666666666666 875H207.9166666666667C162.0833333333334 875 125 837.5 125 791.6666666666667L125.4166666666667 208.3333333333334C125.4166666666667 162.5 162.5 125 208.3333333333333 125H625L875 375V791.6666666666667C875 837.5 837.5 875 791.6666666666666 875zM291.6666666666667 666.6666666666667H708.3333333333333V583.3333333333334H291.6666666666667V666.6666666666667zM500 416.6666666666668H291.6666666666667V500H500V416.6666666666668zM583.3333333333333 187.5V416.6666666666668H812.5L583.3333333333333 187.5z" />
    <glyph glyph-name="document-spreadsheet"
      unicode="&#xEA2C;"
      horiz-adv-x="1000" d="M125 875V125H875V875H125zM458.3333333333333 208.3333333333334H208.3333333333333V458.3333333333334H458.3333333333333V208.3333333333334zM458.3333333333333 541.6666666666667H208.3333333333333V791.6666666666667H458.3333333333333V541.6666666666667zM791.6666666666666 208.3333333333334H541.6666666666666V458.3333333333334H791.6666666666666V208.3333333333334zM791.6666666666666 541.6666666666667H541.6666666666666V791.6666666666667H791.6666666666666V541.6666666666667z" />
    <glyph glyph-name="document-text"
      unicode="&#xEA2D;"
      horiz-adv-x="1000" d="M583.3333333333333 916.6666666666666H250C204.1666666666667 916.6666666666666 167.0833333333333 879.1666666666666 167.0833333333333 833.3333333333334L166.6666666666667 166.6666666666668C166.6666666666667 120.8333333333334 203.75 83.3333333333334 249.5833333333333 83.3333333333334H750C795.8333333333334 83.3333333333334 833.3333333333333 120.8333333333334 833.3333333333333 166.6666666666668V666.6666666666667L583.3333333333333 916.6666666666666zM666.6666666666666 250H333.3333333333333V333.3333333333334H666.6666666666666V250zM666.6666666666666 416.6666666666668H333.3333333333333V500H666.6666666666666V416.6666666666668zM541.6666666666666 625V854.1666666666667L770.8333333333333 625H541.6666666666666z" />
    <glyph glyph-name="document-web"
      unicode="&#xEA2E;"
      horiz-adv-x="1000" d="M833.3333333333333 833.3333333333334H166.6666666666667C120.8333333333333 833.3333333333334 83.75 795.8333333333334 83.75 750L83.3333333333333 250C83.3333333333333 204.1666666666666 120.8333333333333 166.6666666666668 166.6666666666667 166.6666666666668H833.3333333333333C879.1666666666666 166.6666666666668 916.6666666666666 204.1666666666666 916.6666666666666 250V750C916.6666666666666 795.8333333333334 879.1666666666666 833.3333333333334 833.3333333333333 833.3333333333334zM625 250H166.6666666666667V416.6666666666668H625V250zM625 458.3333333333334H166.6666666666667V625H625V458.3333333333334zM833.3333333333333 250H666.6666666666666V625H833.3333333333333V250z" />
    <glyph glyph-name="document"
      unicode="&#xEA2F;"
      horiz-adv-x="1000" d="M250 916.6666666666666C204.1666666666667 916.6666666666666 167.0833333333333 879.1666666666666 167.0833333333333 833.3333333333334L166.6666666666667 166.6666666666668C166.6666666666667 120.8333333333334 203.75 83.3333333333334 249.5833333333333 83.3333333333334H750C795.8333333333334 83.3333333333334 833.3333333333333 120.8333333333334 833.3333333333333 166.6666666666668V666.6666666666667L583.3333333333333 916.6666666666666H250zM541.6666666666666 625V854.1666666666667L770.8333333333333 625H541.6666666666666z" />
    <glyph glyph-name="file-archive"
      unicode="&#xEA30;"
      horiz-adv-x="1000" d="M833.3333333333333 750H500L416.6666666666667 833.3333333333334H166.6666666666667C120.8333333333333 833.3333333333334 83.3333333333333 795.8333333333334 83.3333333333333 750V250C83.3333333333333 204.1666666666666 120.8333333333333 166.6666666666668 166.6666666666667 166.6666666666668H833.3333333333333C879.1666666666666 166.6666666666668 916.6666666666666 204.1666666666666 916.6666666666666 250V666.6666666666667C916.6666666666666 712.5 879.1666666666666 750 833.3333333333333 750M750 500H666.6666666666666V416.6666666666668H750V333.3333333333334H666.6666666666666V250H583.3333333333333V333.3333333333334H666.6666666666666V416.6666666666668H583.3333333333333V500H666.6666666666666V583.3333333333334H583.3333333333333V666.6666666666667H666.6666666666666V583.3333333333334H750V500z" />
    <glyph glyph-name="file-attachment"
      unicode="&#xEA31;"
      horiz-adv-x="1000" d="M687.5 750V270.8333333333334C687.5 178.75 612.9166666666666 104.1666666666667 520.8333333333333 104.1666666666667S354.1666666666667 178.75 354.1666666666667 270.8333333333334V791.6666666666667C354.1666666666667 849.1666666666666 400.8333333333334 895.8333333333334 458.3333333333333 895.8333333333334S562.5 849.1666666666666 562.5 791.6666666666667V354.1666666666668C562.5 331.25 543.75 312.5 520.8333333333333 312.5S479.1666666666666 331.25 479.1666666666666 354.1666666666668V750H416.6666666666667V354.1666666666668C416.6666666666667 296.6666666666668 463.3333333333334 250 520.8333333333333 250S625 296.6666666666668 625 354.1666666666668V791.6666666666667C625 883.75 550.4166666666666 958.3333333333334 458.3333333333333 958.3333333333334S291.6666666666667 883.75 291.6666666666667 791.6666666666667V270.8333333333334C291.6666666666667 144.1666666666668 394.1666666666667 41.6666666666667 520.8333333333333 41.6666666666667S750 144.1666666666668 750 270.8333333333334V750H687.5z" />
    <glyph glyph-name="file-data"
      unicode="&#xEA32;"
      horiz-adv-x="1000" d="M83.3333333333333 166.6666666666668H916.6666666666666V333.3333333333334H83.3333333333333V166.6666666666668zM166.6666666666667 291.6666666666668H250V208.3333333333334H166.6666666666667V291.6666666666668zM83.3333333333333 833.3333333333334V666.6666666666667H916.6666666666666V833.3333333333334H83.3333333333333zM250 708.3333333333334H166.6666666666667V791.6666666666667H250V708.3333333333334zM83.3333333333333 416.6666666666668H916.6666666666666V583.3333333333334H83.3333333333333V416.6666666666668zM166.6666666666667 541.6666666666667H250V458.3333333333334H166.6666666666667V541.6666666666667z" />
    <glyph glyph-name="file-document"
      unicode="&#xEA33;"
      horiz-adv-x="1000" d="M250 916.6666666666666C204.1666666666667 916.6666666666666 167.0833333333333 879.1666666666666 167.0833333333333 833.3333333333334L166.6666666666667 166.6666666666668C166.6666666666667 120.8333333333334 203.75 83.3333333333334 249.5833333333333 83.3333333333334H750C795.8333333333334 83.3333333333334 833.3333333333333 120.8333333333334 833.3333333333333 166.6666666666668V666.6666666666667L583.3333333333333 916.6666666666666H250zM541.6666666666666 625V854.1666666666667L770.8333333333333 625H541.6666666666666z" />
    <glyph glyph-name="file-download"
      unicode="&#xEA34;"
      horiz-adv-x="1000" d="M791.6666666666666 625H625V875H375V625H208.3333333333333L500 333.3333333333334L791.6666666666666 625zM208.3333333333333 250V166.6666666666668H791.6666666666666V250H208.3333333333333z" />
    <glyph glyph-name="file-email"
      unicode="&#xEA35;"
      horiz-adv-x="1000" d="M833.3333333333333 833.3333333333334H166.6666666666667C120.8333333333333 833.3333333333334 83.75 795.8333333333334 83.75 750L83.3333333333333 250C83.3333333333333 204.1666666666666 120.8333333333333 166.6666666666668 166.6666666666667 166.6666666666668H833.3333333333333C879.1666666666666 166.6666666666668 916.6666666666666 204.1666666666666 916.6666666666666 250V750C916.6666666666666 795.8333333333334 879.1666666666666 833.3333333333334 833.3333333333333 833.3333333333334zM833.3333333333333 666.6666666666667L500 458.3333333333334L166.6666666666667 666.6666666666667V750L500 541.6666666666667L833.3333333333333 750V666.6666666666667z" />
    <glyph glyph-name="file-executable"
      unicode="&#xEA36;"
      horiz-adv-x="1000" d="M791.6666666666666 875H208.3333333333333C162.0833333333334 875 125 837.5 125 791.6666666666667V208.3333333333334C125 162.5 162.0833333333334 125 208.3333333333333 125H791.6666666666666C837.5 125 875 162.5 875 208.3333333333334V791.6666666666667C875 837.5 837.9166666666666 875 791.6666666666666 875zM791.6666666666666 208.3333333333334H208.3333333333333V708.3333333333334H791.6666666666666V208.3333333333334zM708.3333333333333 500H291.6666666666667V583.3333333333334H708.3333333333333V500zM541.6666666666666 333.3333333333334H291.6666666666667V416.6666666666668H541.6666666666666V333.3333333333334z" />
    <glyph glyph-name="file-upload"
      unicode="&#xEA37;"
      horiz-adv-x="1000" d="M208.3333333333333 833.3333333333334V750H791.6666666666666V833.3333333333334H208.3333333333333zM208.3333333333333 416.6666666666668H375V166.6666666666668H625V416.6666666666668H791.6666666666666L500 708.3333333333334L208.3333333333333 416.6666666666668z" />
    <glyph glyph-name="form-checkbox-checked"
      unicode="&#xEA38;"
      horiz-adv-x="1000" d="M791.6666666666666 875H208.3333333333333C162.0833333333333 875 125 837.5 125 791.6666666666667V208.3333333333334C125 162.5 162.0833333333334 125 208.3333333333333 125H791.6666666666666C837.9166666666666 125 875 162.5 875 208.3333333333334V791.6666666666667C875 837.5 837.9166666666666 875 791.6666666666666 875zM416.6666666666667 291.6666666666668L208.3333333333333 500L267.0833333333333 558.75L416.6666666666667 409.5833333333334L732.9166666666666 725.8333333333334L791.6666666666666 666.6666666666667L416.6666666666667 291.6666666666668z" />
    <glyph glyph-name="form-checkbox-unchecked"
      unicode="&#xEA39;"
      horiz-adv-x="1000" d="M791.6666666666666 791.6666666666667V208.3333333333334H208.3333333333333V791.6666666666667H791.6666666666666M791.6666666666666 875H208.3333333333333C162.5 875 125 837.5 125 791.6666666666667V208.3333333333334C125 162.5 162.5 125 208.3333333333333 125H791.6666666666666C837.5 125 875 162.5 875 208.3333333333334V791.6666666666667C875 837.5 837.5 875 791.6666666666666 875z" />
    <glyph glyph-name="form-dropdown"
      unicode="&#xEA3A;"
      horiz-adv-x="1000" d="M291.6666666666667 583.3333333333334L500 375L708.3333333333333 583.3333333333334z" />
    <glyph glyph-name="form-radio-checked"
      unicode="&#xEA3B;"
      horiz-adv-x="1000" d="M500 708.3333333333334C385 708.3333333333334 291.6666666666667 615 291.6666666666667 500S385 291.6666666666668 500 291.6666666666668S708.3333333333333 385 708.3333333333333 500S615 708.3333333333334 500 708.3333333333334zM500 916.6666666666666C270 916.6666666666666 83.3333333333333 730 83.3333333333333 500S270 83.3333333333334 500 83.3333333333334S916.6666666666666 270.0000000000001 916.6666666666666 500S729.9999999999999 916.6666666666666 500 916.6666666666666zM500 166.6666666666668C315.8333333333333 166.6666666666668 166.6666666666667 315.8333333333333 166.6666666666667 500S315.8333333333333 833.3333333333334 500 833.3333333333334S833.3333333333333 684.1666666666667 833.3333333333333 500S684.1666666666667 166.6666666666668 500 166.6666666666668z" />
    <glyph glyph-name="form-radio-unchecked"
      unicode="&#xEA3C;"
      horiz-adv-x="1000" d="M500 916.6666666666666C270 916.6666666666666 83.3333333333333 730 83.3333333333333 500S270 83.3333333333334 500 83.3333333333334S916.6666666666666 270.0000000000001 916.6666666666666 500S729.9999999999999 916.6666666666666 500 916.6666666666666zM500 166.6666666666668C315.8333333333333 166.6666666666668 166.6666666666667 315.8333333333333 166.6666666666667 500S315.8333333333333 833.3333333333334 500 833.3333333333334S833.3333333333333 684.1666666666667 833.3333333333333 500S684.1666666666667 166.6666666666668 500 166.6666666666668z" />
    <glyph glyph-name="health-mask"
      unicode="&#xEA3D;"
      horiz-adv-x="1000" d="M812.5 750C757.9166666666666 750 713.7499999999999 707.9166666666667 709.1666666666666 654.1666666666666C630.8333333333334 675 590.8333333333333 729.1666666666667 500 729.1666666666667C408.75 729.1666666666667 369.1666666666667 675 290.8333333333333 654.1666666666666C286.25 707.5 242.0833333333333 750 187.5 750C130 750 83.3333333333333 703.3333333333334 83.3333333333333 645.8333333333334V625C83.3333333333333 375 233.3333333333333 299.5833333333334 355 292.5C397.0833333333333 265.8333333333334 446.6666666666667 250 500 250S602.9166666666666 265.8333333333334 645 292.5C766.6666666666665 299.5833333333334 916.6666666666666 375 916.6666666666666 625V645.8333333333334C916.6666666666666 703.3333333333334 869.9999999999999 750 812.5 750zM145.8333333333333 625V645.8333333333334C145.8333333333333 668.75 164.5833333333334 687.5 187.5 687.5S229.1666666666667 668.75 229.1666666666667 645.8333333333334V520.8333333333334C229.1666666666667 467.5000000000001 245 417.9166666666667 271.25 375.8333333333334C207.9166666666667 405.4166666666668 145.8333333333333 472.9166666666666 145.8333333333333 625zM854.1666666666666 625C854.1666666666666 472.9166666666666 792.0833333333334 405.4166666666668 728.75 375.8333333333334C755.4166666666667 417.9166666666667 770.8333333333335 467.5 770.8333333333335 520.8333333333334V645.8333333333334C770.8333333333335 668.75 789.5833333333334 687.5 812.5000000000001 687.5S854.1666666666667 668.75 854.1666666666667 645.8333333333334V625zM445.4166666666667 563.3333333333333C427.0833333333333 552.5 405.4166666666667 540 375 531.6666666666667V575C395 582.0833333333334 410 590.8333333333335 424.1666666666667 599.1666666666667C446.6666666666667 612.5 467.9166666666667 625 500 625S552.9166666666666 612.5 575 599.1666666666667C589.1666666666666 590.8333333333335 604.5833333333334 581.6666666666667 625 574.5833333333334V531.25C593.75 540 572.5 552.5 553.7499999999999 563.75C534.5833333333333 575 520.4166666666666 583.3333333333334 500 583.3333333333334C479.5833333333333 583.3333333333334 465 575 445.4166666666667 563.3333333333333z" />
    <glyph glyph-name="help-support"
      unicode="&#xEA3E;"
      horiz-adv-x="1000" d="M500 916.6666666666666C270 916.6666666666666 83.3333333333333 730 83.3333333333333 500C83.3333333333333 270.0000000000001 270 83.3333333333334 500 83.3333333333334S916.6666666666666 270.0000000000001 916.6666666666666 500C916.6666666666666 730 729.9999999999999 916.6666666666666 500 916.6666666666666zM810.8333333333334 620L695 572.0833333333334C673.7499999999999 628.75 629.1666666666666 673.75 572.0833333333334 694.5833333333334L620 810.4166666666666C707.5 777.0833333333334 777.0833333333333 707.5 810.8333333333334 620zM500 375C430.8333333333333 375 375 430.8333333333334 375 500S430.8333333333333 625 500 625S625 569.1666666666667 625 500S569.1666666666666 375 500 375zM380.4166666666667 810.8333333333334L429.1666666666667 695C371.6666666666668 674.1666666666667 326.25 628.75 305 571.25L189.1666666666667 619.5833333333333C222.9166666666666 707.5 292.5 777.0833333333334 380.4166666666667 810.8333333333334zM189.1666666666667 380.4166666666668L305 428.3333333333334C326.25 370.8333333333335 371.25 325.8333333333334 428.75 305L380 189.1666666666666C292.5 222.9166666666668 222.9166666666666 292.5 189.1666666666667 380.4166666666668zM620 189.1666666666666L572.0833333333334 305C629.1666666666667 326.2500000000001 674.1666666666666 371.25 695 428.7500000000001L810.8333333333334 380.0000000000001C777.0833333333333 292.5 707.5 222.9166666666668 620 189.1666666666666z" />
    <glyph glyph-name="input-calendar"
      unicode="&#xEA3F;"
      horiz-adv-x="1000" d="M833.3333333333333 875H791.6666666666666V958.3333333333334H708.3333333333333V875H291.6666666666667V958.3333333333334H208.3333333333333V875H166.6666666666667C120.8333333333333 875 83.3333333333333 837.5 83.3333333333333 791.6666666666667V125C83.3333333333333 79.1666666666666 120.8333333333333 41.6666666666667 166.6666666666667 41.6666666666667H833.3333333333333C879.1666666666666 41.6666666666667 916.6666666666666 79.1666666666666 916.6666666666666 125V791.6666666666667C916.6666666666666 837.5 879.1666666666666 875 833.3333333333333 875zM833.3333333333333 125H166.6666666666667V666.6666666666667H833.3333333333333V125z" />
    <glyph glyph-name="input-tags"
      unicode="&#xEA40;"
      horiz-adv-x="1000" d="M892.0833333333333 517.5L517.0833333333333 892.5C502.0833333333333 907.5 481.25 916.6666666666666 458.3333333333333 916.6666666666666H166.6666666666667C120.8333333333333 916.6666666666666 83.3333333333333 879.1666666666666 83.3333333333333 833.3333333333334V541.6666666666667C83.3333333333333 518.75 92.5 497.9166666666667 107.9166666666667 482.5L482.9166666666666 107.5C497.9166666666666 92.5 518.7499999999999 83.3333333333334 541.6666666666666 83.3333333333334C564.5833333333334 83.3333333333334 585.4166666666666 92.5 600.4166666666666 107.9166666666667L892.0833333333333 399.5833333333334C907.5 414.5833333333334 916.6666666666666 435.4166666666667 916.6666666666666 458.3333333333334C916.6666666666666 481.2500000000001 907.0833333333331 502.5000000000001 892.0833333333333 517.5zM229.1666666666667 708.3333333333334C194.5833333333333 708.3333333333334 166.6666666666667 736.25 166.6666666666667 770.8333333333334S194.5833333333333 833.3333333333334 229.1666666666667 833.3333333333334S291.6666666666667 805.4166666666667 291.6666666666667 770.8333333333334S263.75 708.3333333333334 229.1666666666667 708.3333333333334z" />
    <glyph glyph-name="input-time"
      unicode="&#xEA41;"
      horiz-adv-x="1000" d="M499.5833333333333 916.6666666666666C269.5833333333333 916.6666666666666 83.3333333333333 730 83.3333333333333 500S269.5833333333333 83.3333333333334 499.5833333333333 83.3333333333334C729.9999999999999 83.3333333333334 916.6666666666666 270.0000000000001 916.6666666666666 500S729.9999999999999 916.6666666666666 499.5833333333333 916.6666666666666zM500 166.6666666666668C315.8333333333333 166.6666666666668 166.6666666666667 315.8333333333333 166.6666666666667 500S315.8333333333333 833.3333333333334 500 833.3333333333334S833.3333333333333 684.1666666666667 833.3333333333333 500S684.1666666666667 166.6666666666668 500 166.6666666666668zM520.8333333333333 708.3333333333334H458.3333333333333V458.3333333333334L677.0833333333333 327.0833333333335L708.3333333333333 378.3333333333335L520.8333333333333 489.5833333333334z" />
    <glyph glyph-name="internationalization"
      unicode="&#xEA42;"
      horiz-adv-x="1000" d="M499.5833333333333 916.6666666666666C269.5833333333333 916.6666666666666 83.3333333333333 730 83.3333333333333 500S269.5833333333333 83.3333333333334 499.5833333333333 83.3333333333334C729.9999999999999 83.3333333333334 916.6666666666666 270.0000000000001 916.6666666666666 500S729.9999999999999 916.6666666666666 499.5833333333333 916.6666666666666zM788.3333333333334 666.6666666666667H665.4166666666667C652.0833333333334 718.75 632.9166666666667 768.75 607.9166666666667 815C684.5833333333335 788.75 748.3333333333335 735.4166666666667 788.3333333333334 666.6666666666667zM500 831.6666666666667C534.5833333333333 781.6666666666666 561.6666666666666 726.25 579.5833333333333 666.6666666666667H420.4166666666667C438.3333333333333 726.25 465.4166666666666 781.6666666666666 500 831.6666666666667zM177.5 416.6666666666668C170.8333333333333 443.3333333333334 166.6666666666667 471.25 166.6666666666667 500S170.8333333333333 556.6666666666667 177.5 583.3333333333334H318.3333333333333C315 555.8333333333334 312.5 528.3333333333334 312.5 500C312.5 471.6666666666667 315 444.1666666666668 318.3333333333333 416.6666666666668H177.5zM211.6666666666667 333.3333333333334H334.5833333333334C347.9166666666667 281.25 367.0833333333333 231.2500000000001 392.0833333333333 185.0000000000001C315.4166666666667 211.25 251.6666666666667 264.1666666666668 211.6666666666667 333.3333333333335zM334.5833333333334 666.6666666666667H211.6666666666667C251.6666666666667 735.8333333333334 315.4166666666667 788.75 392.0833333333333 815C367.0833333333333 768.75 347.9166666666667 718.75 334.5833333333333 666.6666666666667zM500 168.3333333333334C465.4166666666666 218.3333333333333 438.3333333333333 273.75 420.4166666666667 333.3333333333334H579.5833333333333C561.6666666666666 273.75 534.5833333333333 218.3333333333335 500 168.3333333333334zM597.5 416.6666666666668H402.5C398.75 444.1666666666668 395.8333333333333 471.6666666666667 395.8333333333333 500C395.8333333333333 528.3333333333334 398.75 556.25 402.5 583.3333333333334H597.5C601.25 556.25 604.1666666666666 528.3333333333334 604.1666666666666 500C604.1666666666666 471.6666666666667 601.25 444.1666666666668 597.5 416.6666666666668zM607.9166666666666 185.0000000000001C632.9166666666666 231.2500000000001 652.0833333333333 281.25 665.4166666666666 333.3333333333335H788.3333333333333C748.3333333333331 264.5833333333335 684.5833333333333 211.25 607.9166666666665 185.0000000000001zM681.6666666666666 416.6666666666668C684.9999999999999 444.1666666666668 687.5 471.6666666666667 687.5 500C687.5 528.3333333333334 685 555.8333333333334 681.6666666666666 583.3333333333334H822.4999999999999C829.1666666666665 556.6666666666667 833.3333333333333 528.75 833.3333333333333 500S829.1666666666665 443.3333333333334 822.4999999999999 416.6666666666668H681.6666666666666z" />
    <glyph glyph-name="list-dot"
      unicode="&#xEA43;"
      horiz-adv-x="1000" d="M500 291.6666666666668C615.0583333333333 291.6666666666668 708.3333333333333 384.9416666666667 708.3333333333333 500C708.3333333333333 615.0591666666667 615.0583333333333 708.3333333333334 500 708.3333333333334C384.9408333333334 708.3333333333334 291.6666666666667 615.0591666666667 291.6666666666667 500C291.6666666666667 384.9416666666667 384.9408333333334 291.6666666666668 500 291.6666666666668z" />
    <glyph glyph-name="map-city"
      unicode="&#xEA44;"
      horiz-adv-x="1000" d="M625 541.6666666666667V791.6666666666667L500 916.6666666666666L375 791.6666666666667V708.3333333333334H125V125H875V541.6666666666667H625zM291.6666666666667 208.3333333333334H208.3333333333333V291.6666666666668H291.6666666666667V208.3333333333334zM291.6666666666667 375H208.3333333333333V458.3333333333334H291.6666666666667V375zM291.6666666666667 541.6666666666667H208.3333333333333V625H291.6666666666667V541.6666666666667zM541.6666666666666 208.3333333333334H458.3333333333333V291.6666666666668H541.6666666666666V208.3333333333334zM541.6666666666666 375H458.3333333333333V458.3333333333334H541.6666666666666V375zM541.6666666666666 541.6666666666667H458.3333333333333V625H541.6666666666666V541.6666666666667zM541.6666666666666 708.3333333333334H458.3333333333333V791.6666666666667H541.6666666666666V708.3333333333334zM791.6666666666666 208.3333333333334H708.3333333333333V291.6666666666668H791.6666666666666V208.3333333333334zM791.6666666666666 375H708.3333333333333V458.3333333333334H791.6666666666666V375z" />
    <glyph glyph-name="map-directions"
      unicode="&#xEA45;"
      horiz-adv-x="1000" d="M458.3333333333333 583.3333333333334H208.3333333333333L125 666.6666666666667L208.3333333333333 750H458.3333333333333V875L500 916.6666666666666L541.6666666666666 875V833.3333333333334H791.6666666666666L875 750L791.6666666666666 666.6666666666667H541.6666666666666V583.3333333333334H791.6666666666666L875 500L791.6666666666666 416.6666666666668H541.6666666666666V166.6666666666668A83.3333333333333 83.3333333333333 0 0 0 625 83.3333333333334H375A83.3333333333333 83.3333333333333 0 0 0 458.3333333333333 166.6666666666668V583.3333333333334z" />
    <glyph glyph-name="map-pin"
      unicode="&#xEA46;"
      horiz-adv-x="1000" d="M500 916.6666666666666C338.75 916.6666666666666 208.3333333333333 786.25 208.3333333333333 625C208.3333333333333 406.25 500 83.3333333333334 500 83.3333333333334S791.6666666666666 406.25 791.6666666666666 625C791.6666666666666 786.25 661.25 916.6666666666666 500 916.6666666666666zM500 520.8333333333334C442.5 520.8333333333334 395.8333333333333 567.5 395.8333333333333 625S442.5 729.1666666666667 500 729.1666666666667S604.1666666666666 682.5 604.1666666666666 625S557.4999999999999 520.8333333333334 500 520.8333333333334z" />
    <glyph glyph-name="map-venue"
      unicode="&#xEA47;"
      horiz-adv-x="1000" d="M708.3333333333333 541.6666666666667V875H291.6666666666667V708.3333333333334H125V125H458.3333333333333V291.6666666666668H541.6666666666666V125H875V541.6666666666667H708.3333333333333zM291.6666666666667 208.3333333333334H208.3333333333333V291.6666666666668H291.6666666666667V208.3333333333334zM291.6666666666667 375H208.3333333333333V458.3333333333334H291.6666666666667V375zM291.6666666666667 541.6666666666667H208.3333333333333V625H291.6666666666667V541.6666666666667zM458.3333333333333 375H375V458.3333333333334H458.3333333333333V375zM458.3333333333333 541.6666666666667H375V625H458.3333333333333V541.6666666666667zM458.3333333333333 708.3333333333334H375V791.6666666666667H458.3333333333333V708.3333333333334zM625 375H541.6666666666666V458.3333333333334H625V375zM625 541.6666666666667H541.6666666666666V625H625V541.6666666666667zM625 708.3333333333334H541.6666666666666V791.6666666666667H625V708.3333333333334zM791.6666666666666 208.3333333333334H708.3333333333333V291.6666666666668H791.6666666666666V208.3333333333334zM791.6666666666666 375H708.3333333333333V458.3333333333334H791.6666666666666V375z" />
    <glyph glyph-name="media-audio"
      unicode="&#xEA48;"
      horiz-adv-x="1000" d="M500 875V488.3333333333334C480.4166666666666 495.4166666666667 459.5833333333333 500 437.5 500C333.75 500 250 416.25 250 312.5S333.75 125 437.5 125C533.75 125 612.4999999999999 197.9166666666668 622.9166666666666 291.6666666666668H625V750H791.6666666666666V875H500z" />
    <glyph glyph-name="media-image"
      unicode="&#xEA49;"
      horiz-adv-x="1000" d="M958.3333333333331 250V750C958.3333333333331 795.8333333333334 920.8333333333334 833.3333333333334 875 833.3333333333334H125C79.1666666666667 833.3333333333334 41.6666666666667 795.8333333333334 41.6666666666667 750V250C41.6666666666667 204.1666666666666 79.1666666666667 166.6666666666668 125 166.6666666666668H875C920.8333333333334 166.6666666666668 958.3333333333331 204.1666666666666 958.3333333333331 250zM354.1666666666667 479.1666666666667L458.3333333333333 353.75L604.1666666666666 541.6666666666667L791.6666666666666 291.6666666666668H208.3333333333333L354.1666666666667 479.1666666666667z" />
    <glyph glyph-name="media-video"
      unicode="&#xEA4A;"
      horiz-adv-x="1000" d="M708.3333333333333 562.5V708.3333333333334C708.3333333333333 731.25 689.5833333333334 750 666.6666666666666 750H166.6666666666667C143.75 750 125 731.25 125 708.3333333333334V291.6666666666668C125 268.75 143.75 250 166.6666666666667 250H666.6666666666666C689.5833333333334 250 708.3333333333333 268.75 708.3333333333333 291.6666666666668V437.5L875 270.8333333333334V729.1666666666667L708.3333333333333 562.5z" />
    <glyph glyph-name="menu-main"
      unicode="&#xEA4B;"
      horiz-adv-x="1000" d="M125 250H875V333.3333333333334H125V250zM125 458.3333333333334H875V541.6666666666667H125V458.3333333333334zM125 750V666.6666666666667H875V750H125z" />
    <glyph glyph-name="menu-more"
      unicode="&#xEA4C;"
      horiz-adv-x="1000" d="M500 666.6666666666667C545.8333333333333 666.6666666666667 583.3333333333333 704.1666666666667 583.3333333333333 750S545.8333333333333 833.3333333333334 500 833.3333333333334S416.6666666666667 795.8333333333334 416.6666666666667 750S454.1666666666666 666.6666666666667 500 666.6666666666667zM500 583.3333333333334C454.1666666666666 583.3333333333334 416.6666666666667 545.8333333333334 416.6666666666667 500S454.1666666666666 416.6666666666668 500 416.6666666666668S583.3333333333333 454.1666666666667 583.3333333333333 500S545.8333333333333 583.3333333333334 500 583.3333333333334zM500 333.3333333333334C454.1666666666666 333.3333333333334 416.6666666666667 295.8333333333335 416.6666666666667 250S454.1666666666666 166.6666666666668 500 166.6666666666668S583.3333333333333 204.1666666666666 583.3333333333333 250S545.8333333333333 333.3333333333334 500 333.3333333333334z" />
    <glyph glyph-name="navigate-external-link"
      unicode="&#xEA4D;"
      horiz-adv-x="1000" d="M791.6666666666666 208.3333333333334H208.3333333333333V791.6666666666667H500V875H208.3333333333333C162.0833333333333 875 125 837.5 125 791.6666666666667V208.3333333333334C125 162.5 162.0833333333334 125 208.3333333333333 125H791.6666666666666C837.5 125 875 162.5 875 208.3333333333334V500H791.6666666666666V208.3333333333334zM583.3333333333333 875V791.6666666666667H732.9166666666666L323.3333333333333 382.0833333333334L382.0833333333333 323.3333333333335L791.6666666666666 732.9166666666667V583.3333333333334H875V875H583.3333333333333z" />
    <glyph glyph-name="navigate-internal-link"
      unicode="&#xEA4E;"
      horiz-adv-x="1000" d="M875 875H125C79.1666666666667 875 41.6666666666667 837.5 41.6666666666667 791.6666666666667V208.3333333333334C41.6666666666667 162.5 79.1666666666667 125 125 125H875C920.8333333333334 125 958.3333333333331 162.5 958.3333333333331 208.3333333333334V791.6666666666667C958.3333333333331 837.5 920.8333333333334 875 875 875zM875 208.3333333333334H125V791.6666666666667H541.6666666666666V625H875V208.3333333333334z" />
    <glyph glyph-name="navigation-hide"
      unicode="&#xEA4F;"
      horiz-adv-x="1000" d="M308.75 357.9166666666668L500 548.75L691.25 357.9166666666668L750 416.6666666666668L500 666.6666666666667L250 416.6666666666668z" />
    <glyph glyph-name="navigation-show"
      unicode="&#xEA50;"
      horiz-adv-x="1000" d="M308.75 642.0833333333334L500 451.25L691.25 642.0833333333334L750 583.3333333333334L500 333.3333333333334L250 583.3333333333334L308.75 642.0833333333334z" />
    <glyph glyph-name="notifications"
      unicode="&#xEA51;"
      horiz-adv-x="1000" d="M500 83.3333333333334C545.8333333333333 83.3333333333334 583.3333333333333 120.8333333333334 583.3333333333333 166.6666666666668H416.6666666666667C416.6666666666667 120.8333333333334 453.75 83.3333333333334 500 83.3333333333334zM750 333.3333333333334V541.6666666666667C750 669.5833333333334 681.6666666666666 776.6666666666666 562.5 805V833.3333333333334C562.5 867.9166666666667 534.5833333333333 895.8333333333334 500 895.8333333333334S437.5 867.9166666666667 437.5 833.3333333333334V805C317.9166666666667 776.6666666666666 250 670 250 541.6666666666667V333.3333333333334L166.6666666666667 250V208.3333333333334H833.3333333333333V250L750 333.3333333333334z" />
    <glyph glyph-name="paginator-first"
      unicode="&#xEA52;"
      horiz-adv-x="1000" d="M767.0833333333333 308.75L575.8333333333333 500L767.0833333333333 691.25L708.3333333333333 750L458.3333333333333 500L708.3333333333333 250zM250 750H333.3333333333333V250H250z" />
    <glyph glyph-name="paginator-last"
      unicode="&#xEA53;"
      horiz-adv-x="1000" d="M232.9166666666667 691.25L424.1666666666667 500L232.9166666666667 308.75L291.6666666666667 250L541.6666666666666 500L291.6666666666667 750zM666.6666666666666 750H750V250H666.6666666666666z" />
    <glyph glyph-name="paginator-next"
      unicode="&#xEA54;"
      horiz-adv-x="1000" d="M416.6666666666667 750L357.9166666666667 691.25L548.75 500L357.9166666666667 308.75L416.6666666666667 250L666.6666666666666 500z" />
    <glyph glyph-name="paginator-previous"
      unicode="&#xEA55;"
      horiz-adv-x="1000" d="M642.0833333333333 691.25L583.3333333333333 750L333.3333333333333 500L583.3333333333333 250L642.0833333333333 308.75L451.25 500z" />
    <glyph glyph-name="peripheral-hard-drive"
      unicode="&#xEA56;"
      horiz-adv-x="1000" d="M250 916.6666666666666H750C772.0999999999999 916.6666666666666 793.2958333333333 907.8870833333332 808.925 892.25875C824.5541666666667 876.6308333333334 833.3333333333333 855.4345833333333 833.3333333333333 833.3333333333334V166.6666666666668C833.3333333333333 144.5666666666667 824.5541666666667 123.3708333333333 808.925 107.7416666666667C793.2958333333333 92.1125000000001 772.0999999999999 83.3333333333334 750 83.3333333333334H250C227.89875 83.3333333333334 206.7025 92.1125000000001 191.0745833333333 107.7416666666667C175.44625 123.3708333333333 166.6666666666667 144.5666666666667 166.6666666666667 166.6666666666668V833.3333333333334C166.6666666666667 855.4345833333333 175.44625 876.6308333333334 191.0745833333333 892.25875C206.7025 907.8870833333332 227.89875 916.6666666666666 250 916.6666666666666zM500 833.3333333333334C433.6958333333333 833.3333333333334 370.1075 806.9941666666667 323.2233333333333 760.11C276.3391666666667 713.2258333333334 250 649.6375 250 583.3333333333334C250 445.4166666666667 362.0833333333333 333.3333333333334 504.1666666666666 333.3333333333334L467.5 426.25C456.2499999999999 446.2500000000001 462.9166666666666 471.6666666666667 482.9166666666666 483.3333333333334L518.7499999999999 504.1666666666667C538.75 515.4166666666667 564.1666666666666 508.7500000000001 575.8333333333333 488.7500000000001L655.8333333333333 387.9166666666668C713.3333333333334 433.75 750 504.1666666666667 750 583.3333333333334C750 649.6375 723.6624999999999 713.2258333333334 676.775 760.11C629.8916666666667 806.9941666666667 566.3041666666667 833.3333333333334 500 833.3333333333334zM500 625C511.05 625 521.65 620.6100000000001 529.4625 612.7962500000001C537.275 604.9820833333333 541.6666666666666 594.3841666666667 541.6666666666666 583.3333333333334C541.6666666666666 572.2833333333333 537.275 561.6833333333334 529.4625 553.8708333333334C521.65 546.0583333333334 511.05 541.6666666666667 500 541.6666666666667C488.95 541.6666666666667 478.35 546.0583333333334 470.5375 553.8708333333334C462.725 561.6833333333334 458.3333333333333 572.2833333333333 458.3333333333333 583.3333333333334C458.3333333333333 594.3841666666667 462.725 604.9820833333333 470.5375 612.7962500000001C478.35 620.6100000000001 488.95 625 500 625zM291.6666666666667 250C280.6158333333333 250 270.0179166666667 245.6083333333334 262.20375 237.7958333333334C254.39 229.9833333333334 250 219.3833333333333 250 208.3333333333334C250 197.2833333333334 254.39 186.6833333333334 262.20375 178.8708333333334C270.0179166666667 171.0583333333334 280.6158333333333 166.6666666666668 291.6666666666667 166.6666666666668C302.7175 166.6666666666668 313.3154166666667 171.0583333333334 321.1295833333333 178.8708333333334C328.9433333333334 186.6833333333334 333.3333333333333 197.2833333333334 333.3333333333333 208.3333333333334C333.3333333333333 219.3833333333333 328.9433333333334 229.9833333333334 321.1295833333333 237.7958333333334C313.3154166666667 245.6083333333334 302.7175 250 291.6666666666667 250zM503.7499999999999 447.0833333333334L607.5 184.1666666666668L715.4166666666667 246.6666666666668L539.5833333333333 467.9166666666667L503.7499999999999 447.0833333333334z" />
    <glyph glyph-name="peripheral-headset-mic"
      unicode="&#xEA57;"
      horiz-adv-x="1000" d="M500 958.3333333333334C292.9166666666667 958.3333333333334 125 790.4166666666666 125 583.3333333333334V291.6666666666668C125 222.5 180.8333333333333 166.6666666666668 250 166.6666666666668H375V500H208.3333333333333V583.3333333333334C208.3333333333333 744.5833333333334 338.75 875 500 875S791.6666666666666 744.5833333333334 791.6666666666666 583.3333333333334V500H625V166.6666666666668H791.6666666666666V125H500V41.6666666666667H750C819.1666666666666 41.6666666666667 875 97.5 875 166.6666666666668V583.3333333333334C875 790.4166666666666 707.0833333333333 958.3333333333334 500 958.3333333333334z" />
    <glyph glyph-name="peripheral-headset"
      unicode="&#xEA58;"
      horiz-adv-x="1000" d="M500 958.3333333333334C292.9166666666667 958.3333333333334 125 790.4166666666666 125 583.3333333333334V291.6666666666668C125 222.5 180.8333333333333 166.6666666666668 250 166.6666666666668H375V500H208.3333333333333V583.3333333333334C208.3333333333333 744.5833333333334 338.75 875 500 875S791.6666666666666 744.5833333333334 791.6666666666666 583.3333333333334V500H625V166.6666666666668H750C819.1666666666666 166.6666666666668 875 222.5 875 291.6666666666668V583.3333333333334C875 790.4166666666666 707.0833333333333 958.3333333333334 500 958.3333333333334z" />
    <glyph glyph-name="peripheral-keyboard"
      unicode="&#xEA59;"
      horiz-adv-x="1000" d="M833.3333333333333 791.6666666666667H166.6666666666667C120.8333333333333 791.6666666666667 83.75 754.1666666666666 83.75 708.3333333333334L83.3333333333333 291.6666666666668C83.3333333333333 245.8333333333334 120.8333333333333 208.3333333333334 166.6666666666667 208.3333333333334H833.3333333333333C879.1666666666666 208.3333333333334 916.6666666666666 245.8333333333334 916.6666666666666 291.6666666666668V708.3333333333334C916.6666666666666 754.1666666666666 879.1666666666666 791.6666666666667 833.3333333333333 791.6666666666667zM458.3333333333333 666.6666666666667H541.6666666666666V583.3333333333334H458.3333333333333V666.6666666666667zM458.3333333333333 541.6666666666667H541.6666666666666V458.3333333333334H458.3333333333333V541.6666666666667zM333.3333333333333 666.6666666666667H416.6666666666667V583.3333333333334H333.3333333333333V666.6666666666667zM333.3333333333333 541.6666666666667H416.6666666666667V458.3333333333334H333.3333333333333V541.6666666666667zM291.6666666666667 458.3333333333334H208.3333333333333V541.6666666666667H291.6666666666667V458.3333333333334zM291.6666666666667 583.3333333333334H208.3333333333333V666.6666666666667H291.6666666666667V583.3333333333334zM666.6666666666666 291.6666666666668H333.3333333333333V375H666.6666666666666V291.6666666666668zM666.6666666666666 458.3333333333334H583.3333333333333V541.6666666666667H666.6666666666666V458.3333333333334zM666.6666666666666 583.3333333333334H583.3333333333333V666.6666666666667H666.6666666666666V583.3333333333334zM791.6666666666666 458.3333333333334H708.3333333333333V541.6666666666667H791.6666666666666V458.3333333333334zM791.6666666666666 583.3333333333334H708.3333333333333V666.6666666666667H791.6666666666666V583.3333333333334z" />
    <glyph glyph-name="peripheral-sim"
      unicode="&#xEA5A;"
      horiz-adv-x="1000" d="M832.9166666666665 833.3333333333334C832.9166666666665 879.1666666666666 795.8333333333331 916.6666666666666 750 916.6666666666666H416.6666666666667L166.6666666666667 666.6666666666667V166.6666666666668C166.6666666666667 120.8333333333334 204.1666666666667 83.3333333333334 250 83.3333333333334H750.4166666666665C796.2499999999999 83.3333333333334 833.3333333333331 120.8333333333334 833.3333333333331 166.6666666666668L832.9166666666664 833.3333333333334zM375 208.3333333333334H291.6666666666667V291.6666666666668H375V208.3333333333334zM708.3333333333333 208.3333333333334H625V291.6666666666668H708.3333333333333V208.3333333333334zM375 375H291.6666666666667V541.6666666666667H375V375zM541.6666666666666 208.3333333333334H458.3333333333333V375H541.6666666666666V208.3333333333334zM541.6666666666666 458.3333333333334H458.3333333333333V541.6666666666667H541.6666666666666V458.3333333333334zM708.3333333333333 375H625V541.6666666666667H708.3333333333333V375z" />
    <glyph glyph-name="role-admin"
      unicode="&#xEA5B;"
      horiz-adv-x="1000" d="M916.6666666666666 833.3333333333334L833.3333333333333 916.6666666666666C785.4166666666666 890 724.9999999999999 875 666.6666666666666 875C608.3333333333333 875 547.5 890.4166666666666 500 916.6666666666666C452.4999999999999 890.4166666666666 391.6666666666667 875 333.3333333333333 875C275 875 214.5833333333334 890 166.6666666666667 916.6666666666666L83.3333333333333 833.3333333333334C83.3333333333333 833.3333333333334 166.6666666666667 750 166.6666666666667 666.6666666666667S83.3333333333333 416.6666666666668 83.3333333333333 333.3333333333334C83.3333333333333 166.6666666666668 500 83.3333333333334 500 83.3333333333334S916.6666666666666 166.6666666666668 916.6666666666666 333.3333333333334C916.6666666666666 416.6666666666668 833.3333333333333 583.3333333333334 833.3333333333333 666.6666666666667S916.6666666666666 833.3333333333334 916.6666666666666 833.3333333333334M627.0833333333334 314.5833333333334L498.75 392.0833333333334L370.8333333333333 314.5833333333334L405 460.4166666666667L291.6666666666667 557.9166666666667L440.8333333333333 570.8333333333333L498.75 708.3333333333334L557.0833333333333 571.25L706.2499999999999 558.3333333333334L592.9166666666666 460.8333333333334L627.0833333333334 314.5833333333334z" />
    <glyph glyph-name="role-editor"
      unicode="&#xEA5C;"
      horiz-adv-x="1000" d="M500 958.3333333333334L125 791.6666666666667V541.6666666666667C125 310.4166666666667 285 94.1666666666666 500 41.6666666666667C715 94.1666666666667 875 310.4166666666667 875 541.6666666666667V791.6666666666667L500 958.3333333333334zM416.6666666666667 291.6666666666668L250 458.3333333333334L308.75 517.0833333333334L416.6666666666667 409.5833333333334L691.25 684.1666666666667L750 625L416.6666666666667 291.6666666666668z" />
    <glyph glyph-name="role-owner"
      unicode="&#xEA5D;"
      horiz-adv-x="1000" d="M208.3333333333333 333.3333333333334L125 791.6666666666667L354.1666666666667 583.3333333333334L500 833.3333333333334L645.8333333333333 583.3333333333334L875 791.6666666666667L791.6666666666666 333.3333333333334H208.3333333333333M791.6666666666666 208.3333333333334C791.6666666666666 183.3333333333334 775 166.6666666666668 750 166.6666666666668H250C225 166.6666666666668 208.3333333333333 183.3333333333334 208.3333333333333 208.3333333333334V250H791.6666666666666V208.3333333333334z" />
    <glyph glyph-name="role-subscriber"
      unicode="&#xEA5E;"
      horiz-adv-x="1000" d="M375 510.4166666666667C346.25 510.4166666666667 322.9166666666667 487.0833333333334 322.9166666666667 458.3333333333334S346.25 406.25 375 406.25S427.0833333333333 429.5833333333334 427.0833333333333 458.3333333333334S403.75 510.4166666666667 375 510.4166666666667zM625 510.4166666666667C596.25 510.4166666666667 572.9166666666666 487.0833333333334 572.9166666666666 458.3333333333334S596.25 406.25 625 406.25S677.0833333333333 429.5833333333334 677.0833333333333 458.3333333333334S653.7499999999999 510.4166666666667 625 510.4166666666667zM500 916.6666666666666C270 916.6666666666666 83.3333333333333 730 83.3333333333333 500S270 83.3333333333334 500 83.3333333333334S916.6666666666666 270.0000000000001 916.6666666666666 500S729.9999999999999 916.6666666666666 500 916.6666666666666zM500 166.6666666666668C316.25 166.6666666666668 166.6666666666667 316.25 166.6666666666667 500C166.6666666666667 512.0833333333333 167.5 524.1666666666667 168.75 535.8333333333333C267.0833333333333 579.5833333333334 345 660 385.8333333333333 759.5833333333333C461.25 652.9166666666667 585.4166666666666 583.3333333333334 725.8333333333334 583.3333333333334C758.3333333333334 583.3333333333334 789.5833333333334 587.0833333333334 819.5833333333334 594.1666666666667C828.3333333333334 564.5833333333334 833.3333333333333 532.9166666666667 833.3333333333333 500C833.3333333333333 316.25 683.75 166.6666666666668 500 166.6666666666668z" />
    <glyph glyph-name="security-code"
      unicode="&#xEA5F;"
      horiz-adv-x="1000" d="M750 291.6666666666668H250V375H750V291.6666666666668zM750 458.3333333333334H250V541.6666666666667H750V458.3333333333334zM750 625H250V708.3333333333334H750V625zM125 83.3333333333334L187.5 145.8333333333334L250 83.3333333333334L312.5 145.8333333333334L375 83.3333333333334L437.5 145.8333333333334L500 83.3333333333334L562.5 145.8333333333334L625 83.3333333333334L687.5 145.8333333333334L750 83.3333333333334L812.5 145.8333333333334L875 83.3333333333334V916.6666666666666L812.5 854.1666666666667L750 916.6666666666666L687.5 854.1666666666667L625 916.6666666666666L562.5 854.1666666666667L500 916.6666666666666L437.5 854.1666666666667L375 916.6666666666666L312.5 854.1666666666667L250 916.6666666666666L187.5 854.1666666666667L125 916.6666666666666V83.3333333333334z" />
    <glyph glyph-name="security-fingerprint"
      unicode="&#xEA60;"
      horiz-adv-x="1000" d="M742.0833333333333 813.75C738.75 813.75 735.4166666666665 814.5833333333334 732.4999999999999 816.25C652.5 857.5 583.3333333333333 875 500.4166666666666 875C417.9166666666667 875 339.5833333333333 855.4166666666667 268.3333333333333 816.25C258.3333333333333 810.8333333333334 245.8333333333333 814.5833333333334 240 824.5833333333334C234.5833333333333 834.5833333333334 238.3333333333333 847.5 248.3333333333333 852.9166666666667C325.8333333333333 895 410.8333333333333 916.6666666666666 500.4166666666666 916.6666666666666C589.1666666666666 916.6666666666666 666.6666666666666 897.0833333333334 751.6666666666666 853.3333333333334C762.0833333333333 847.9166666666667 765.8333333333333 835.4166666666666 760.4166666666666 825.4166666666666C756.6666666666666 817.9166666666667 749.5833333333333 813.75 742.0833333333333 813.75zM145.8333333333333 595C141.6666666666667 595 137.5 596.25 133.75 598.75C124.1666666666667 605.4166666666667 122.0833333333333 618.3333333333334 128.75 627.9166666666666C170 686.25 222.5 732.0833333333333 285 764.1666666666666C415.8333333333333 831.6666666666667 583.3333333333333 832.0833333333334 714.5833333333333 764.5833333333334C777.0833333333333 732.5 829.5833333333331 687.0833333333333 870.8333333333333 629.1666666666667C877.4999999999999 620 875.4166666666665 606.6666666666666 865.8333333333331 600C856.2499999999999 593.3333333333334 843.3333333333333 595.4166666666667 836.6666666666665 605C799.1666666666666 657.5 751.6666666666666 698.75 695.4166666666665 727.5C575.8333333333331 788.75 422.9166666666666 788.75 303.7499999999999 727.0833333333333C247.0833333333332 697.9166666666666 199.5833333333332 656.25 162.0833333333332 603.75C158.7499999999999 597.9166666666666 152.4999999999999 595 145.8333333333332 595zM406.25 92.0833333333334C400.8333333333333 92.0833333333334 395.4166666666667 94.1666666666667 391.6666666666667 98.3333333333334C355.4166666666667 134.5833333333334 335.8333333333333 157.9166666666666 307.9166666666667 208.3333333333334C279.1666666666667 259.5833333333334 264.1666666666667 322.0833333333334 264.1666666666667 389.1666666666668C264.1666666666667 512.9166666666667 370 613.75 500 613.75S735.8333333333333 512.9166666666667 735.8333333333333 389.1666666666668C735.8333333333333 377.5 726.6666666666666 368.3333333333334 715 368.3333333333334S694.1666666666666 377.5 694.1666666666666 389.1666666666668C694.1666666666666 490 607.0833333333333 572.0833333333334 500 572.0833333333334C392.9166666666667 572.0833333333334 305.8333333333333 490 305.8333333333333 389.1666666666668C305.8333333333333 329.1666666666667 319.1666666666667 273.75 344.5833333333333 228.75C371.25 180.8333333333334 389.5833333333333 160.4166666666666 421.6666666666667 127.9166666666668C429.5833333333333 119.5833333333334 429.5833333333333 106.6666666666666 421.6666666666667 98.3333333333334C417.0833333333333 94.1666666666666 411.6666666666667 92.0833333333334 406.25 92.0833333333334zM705 169.1666666666669C655.4166666666667 169.1666666666669 611.6666666666667 181.6666666666669 575.8333333333334 206.2500000000001C513.75 248.3333333333336 476.6666666666667 316.6666666666668 476.6666666666667 389.1666666666669C476.6666666666667 400.8333333333335 485.8333333333334 410.0000000000003 497.5 410.0000000000003S518.3333333333334 400.8333333333335 518.3333333333334 389.1666666666669C518.3333333333334 330.4166666666669 548.3333333333334 275.0000000000001 599.1666666666666 240.8333333333336C628.75 220.8333333333336 663.3333333333334 211.2500000000002 705 211.2500000000002C715 211.2500000000002 731.6666666666667 212.5000000000002 748.3333333333334 215.416666666667C759.5833333333333 217.5000000000004 770.4166666666667 210.0000000000004 772.4999999999999 198.3333333333336C774.5833333333333 187.0833333333336 767.0833333333333 176.2500000000002 755.4166666666666 174.166666666667C731.6666666666665 169.5833333333337 710.8333333333333 169.166666666667 704.9999999999999 169.166666666667zM621.25 83.3333333333334C619.5833333333334 83.3333333333334 617.5 83.7500000000001 615.8333333333333 84.1666666666667C549.5833333333333 102.5000000000001 506.2499999999999 127.0833333333334 460.8333333333333 171.6666666666668C402.4999999999999 229.5833333333335 370.4166666666666 306.6666666666667 370.4166666666666 389.1666666666668C370.4166666666666 456.6666666666667 427.9166666666667 511.6666666666667 498.7499999999999 511.6666666666667C569.5833333333333 511.6666666666667 627.0833333333333 456.6666666666666 627.0833333333333 389.1666666666668C627.0833333333333 344.5833333333334 665.8333333333333 308.3333333333333 713.7499999999999 308.3333333333333S800.4166666666666 344.5833333333333 800.4166666666666 389.1666666666667C800.4166666666666 546.25 665 673.75 498.3333333333333 673.75C380 673.75 271.6666666666667 607.9166666666666 222.9166666666667 505.8333333333333C206.6666666666667 472.0833333333333 198.3333333333334 432.4999999999999 198.3333333333334 389.1666666666665C198.3333333333334 356.6666666666667 201.25 305.4166666666667 226.25 238.7499999999999C230.4166666666667 227.9166666666665 225 215.8333333333333 214.1666666666667 212.0833333333333C203.3333333333334 207.9166666666665 191.25 213.7499999999999 187.5 224.1666666666665C167.0833333333334 278.7499999999998 157.0833333333334 332.9166666666665 157.0833333333334 389.1666666666665C157.0833333333334 439.1666666666665 166.6666666666667 484.5833333333331 185.4166666666667 524.1666666666665C240.8333333333334 640.4166666666665 363.75 715.8333333333333 498.3333333333333 715.8333333333333C687.9166666666667 715.8333333333333 842.0833333333334 569.5833333333333 842.0833333333334 389.5833333333333C842.0833333333334 322.0833333333333 784.5833333333334 267.0833333333333 713.7500000000001 267.0833333333333S585.4166666666667 322.0833333333333 585.4166666666667 389.5833333333333C585.4166666666667 434.1666666666665 546.6666666666667 470.4166666666665 498.7500000000001 470.4166666666665S412.0833333333335 434.1666666666665 412.0833333333335 389.5833333333333C412.0833333333335 318.3333333333333 439.5833333333335 251.6666666666665 490.0000000000001 201.6666666666665C529.5833333333334 162.4999999999999 567.5 140.8333333333332 626.25 124.5833333333332C637.5 121.6666666666665 643.75 109.9999999999998 640.8333333333334 99.1666666666665C638.75 89.5833333333332 630 83.3333333333333 621.25 83.3333333333333z" />
    <glyph glyph-name="security-password"
      unicode="&#xEA61;"
      horiz-adv-x="1000" d="M750 666.6666666666667H708.3333333333333V750C708.3333333333333 865 615 958.3333333333334 500 958.3333333333334S291.6666666666667 865 291.6666666666667 750V666.6666666666667H250C204.1666666666667 666.6666666666667 166.6666666666667 629.1666666666667 166.6666666666667 583.3333333333334V166.6666666666668C166.6666666666667 120.8333333333334 204.1666666666667 83.3333333333334 250 83.3333333333334H750C795.8333333333334 83.3333333333334 833.3333333333333 120.8333333333334 833.3333333333333 166.6666666666668V583.3333333333334C833.3333333333333 629.1666666666667 795.8333333333334 666.6666666666667 750 666.6666666666667zM500 291.6666666666668C454.1666666666666 291.6666666666668 416.6666666666667 329.1666666666667 416.6666666666667 375S454.1666666666666 458.3333333333334 500 458.3333333333334S583.3333333333333 420.8333333333334 583.3333333333333 375S545.8333333333333 291.6666666666668 500 291.6666666666668zM629.1666666666666 666.6666666666667H370.8333333333333V750C370.8333333333333 821.25 428.75 879.1666666666666 500 879.1666666666666C571.25 879.1666666666666 629.1666666666666 821.25 629.1666666666666 750V666.6666666666667z" />
    <glyph glyph-name="settings"
      unicode="&#xEA62;"
      horiz-adv-x="1000" d="M797.5 460.8333333333334C799.1666666666666 473.3333333333334 799.9999999999999 486.25 799.9999999999999 500C799.9999999999999 513.3333333333334 799.1666666666666 526.6666666666667 797.0833333333333 539.1666666666667L881.6666666666666 605C889.1666666666666 610.8333333333334 891.25 622.0833333333334 886.6666666666666 630.4166666666666L806.6666666666666 768.75C801.6666666666665 777.9166666666666 791.2499999999999 780.8333333333333 782.0833333333333 777.9166666666666L682.4999999999999 737.9166666666666C661.6666666666666 753.75 639.5833333333333 767.0833333333333 614.9999999999999 777.0833333333333L600 882.9166666666666C598.3333333333334 892.9166666666666 590 900 580 900H420C410 900 402.0833333333333 892.9166666666667 400.4166666666667 882.9166666666666L385.4166666666667 777.0833333333334C360.8333333333333 767.0833333333334 338.3333333333333 753.3333333333334 317.9166666666667 737.9166666666667L218.3333333333334 777.9166666666667C209.1666666666667 781.25 198.75 777.9166666666667 193.75 768.75L114.1666666666667 630.4166666666667C109.1666666666667 621.6666666666667 110.8333333333333 610.8333333333334 119.1666666666667 605L203.75 539.1666666666667C201.6666666666667 526.6666666666667 200 512.9166666666667 200 500S200.8333333333333 473.3333333333334 202.9166666666667 460.8333333333334L118.3333333333334 395C110.8333333333333 389.1666666666668 108.75 377.9166666666668 113.3333333333333 369.5833333333334L193.3333333333334 231.2500000000001C198.3333333333334 222.0833333333335 208.75 219.1666666666668 217.9166666666667 222.0833333333335L317.5 262.0833333333335C338.3333333333334 246.2500000000003 360.4166666666667 232.9166666666669 385.0000000000001 222.9166666666668L400.0000000000001 117.0833333333335C402.0833333333334 107.0833333333336 410.0000000000001 100.0000000000001 420.0000000000001 100.0000000000001H580C590 100.0000000000001 598.3333333333334 107.0833333333336 599.5833333333334 117.0833333333335L614.5833333333334 222.9166666666668C639.1666666666667 232.9166666666668 661.6666666666667 246.25 682.0833333333334 262.0833333333335L781.6666666666667 222.0833333333335C790.8333333333333 218.7500000000002 801.25 222.0833333333335 806.25 231.2500000000001L886.2500000000001 369.5833333333334C891.2500000000001 378.7500000000001 889.1666666666667 389.1666666666668 881.25 395L797.5 460.8333333333334zM500 350C417.5 350 350 417.5 350 500S417.5 650 500 650S650 582.5 650 500S582.5 350 500 350z" />
    <glyph glyph-name="shop-cart-empty"
      unicode="&#xEA63;"
      horiz-adv-x="1000" d="M947.0833333333331 52.9166666666667L115.4166666666667 884.5833333333334L83.3333333333333 916.6666666666666L52.9166666666667 947.0833333333334L0 894.1666666666666L182.9166666666666 711.25L275 517.0833333333334L218.75 415.0000000000001C212.0833333333333 403.3333333333335 208.3333333333333 389.5833333333334 208.3333333333333 375C208.3333333333333 329.1666666666667 245.8333333333334 291.6666666666668 291.6666666666667 291.6666666666668H602.5L660 234.1666666666668C639.1666666666666 219.1666666666668 625.4166666666666 194.5833333333335 625.4166666666666 166.6666666666668C625.4166666666666 120.8333333333334 662.5 83.3333333333334 708.3333333333333 83.3333333333334C736.25 83.3333333333334 760.8333333333334 97.0833333333333 775.8333333333334 118.3333333333334L894.1666666666666 0L947.0833333333331 52.9166666666667zM309.1666666666667 375C303.3333333333333 375 298.75 379.5833333333334 298.75 385.4166666666668L300 390.4166666666667L337.5 458.3333333333334H435.8333333333333L519.1666666666666 375H309.1666666666667zM647.9166666666666 458.3333333333334C679.1666666666666 458.3333333333334 706.6666666666666 475.4166666666667 720.8333333333334 501.25L870.0000000000001 771.6666666666666C873.3333333333334 777.5 875.0000000000001 784.5833333333333 875.0000000000001 791.6666666666667C875.0000000000001 814.5833333333334 856.2500000000001 833.3333333333334 833.3333333333335 833.3333333333334H272.5L647.9166666666666 458.3333333333334zM291.6666666666667 250C245.8333333333334 250 208.75 212.5000000000001 208.75 166.6666666666668S245.8333333333334 83.3333333333334 291.6666666666667 83.3333333333334S375 120.8333333333334 375 166.6666666666668S337.5 250 291.6666666666667 250z" />
    <glyph glyph-name="shop-cart"
      unicode="&#xEA64;"
      horiz-adv-x="1000" d="M291.6666666666667 250C245.8333333333334 250 208.75 212.5000000000001 208.75 166.6666666666668S245.8333333333334 83.3333333333334 291.6666666666667 83.3333333333334S375 120.8333333333334 375 166.6666666666668S337.5 250 291.6666666666667 250zM41.6666666666667 916.6666666666666V833.3333333333334H125L275 517.0833333333334L218.75 415.0000000000001C212.0833333333333 403.3333333333335 208.3333333333333 389.5833333333334 208.3333333333333 375C208.3333333333333 329.1666666666667 245.8333333333334 291.6666666666668 291.6666666666667 291.6666666666668H791.6666666666666V375H309.1666666666667C303.3333333333333 375 298.75 379.5833333333334 298.75 385.4166666666668L300 390.4166666666667L337.5 458.3333333333334H647.9166666666666C679.1666666666666 458.3333333333334 706.6666666666666 475.4166666666667 720.8333333333334 501.25L870.0000000000001 771.6666666666666C873.3333333333334 777.5 875.0000000000001 784.5833333333333 875.0000000000001 791.6666666666667C875.0000000000001 814.5833333333334 856.2500000000001 833.3333333333334 833.3333333333335 833.3333333333334H217.0833333333333L177.9166666666666 916.6666666666666H41.6666666666667zM708.3333333333333 250C662.5 250 625.4166666666666 212.5000000000001 625.4166666666666 166.6666666666668S662.5 83.3333333333334 708.3333333333333 83.3333333333334S791.6666666666666 120.8333333333334 791.6666666666666 166.6666666666668S754.1666666666666 250 708.3333333333333 250z" />
    <glyph glyph-name="shop-store"
      unicode="&#xEA65;"
      horiz-adv-x="1000" d="M833.3333333333333 833.3333333333334H166.6666666666667V750H833.3333333333333V833.3333333333334zM875 416.6666666666668V500L833.3333333333333 708.3333333333334H166.6666666666667L125 500V416.6666666666668H166.6666666666667V166.6666666666668H583.3333333333333V416.6666666666668H750V166.6666666666668H833.3333333333333V416.6666666666668H875zM500 250H250V416.6666666666668H500V250z" />
    <glyph glyph-name="sort-as"
      unicode="&#xEA66;"
      horiz-adv-x="1000" d="M166.6666666666667 500L225.4166666666667 441.25L458.3333333333333 673.75V166.6666666666668H541.6666666666666V673.75L774.1666666666665 440.8333333333334L833.3333333333333 500L500 833.3333333333334L166.6666666666667 500z" />
    <glyph glyph-name="sort-desc"
      unicode="&#xEA67;"
      horiz-adv-x="1000" d="M833.3333333333333 500L774.5833333333333 558.75L541.6666666666666 326.25V833.3333333333334H458.3333333333333V326.25L225.8333333333333 559.1666666666666L166.6666666666667 500L500 166.6666666666668L833.3333333333333 500z" />
    <glyph glyph-name="sort"
      unicode="&#xEA68;"
      horiz-adv-x="1000" d="M125 250H375V333.3333333333334H125V250zM125 750V666.6666666666667H875V750H125zM125 458.3333333333334H625V541.6666666666667H125V458.3333333333334z" />
    <glyph glyph-name="source-web"
      unicode="&#xEA69;"
      horiz-adv-x="1000" d="M500 545.8333333333334C474.5833333333333 545.8333333333334 454.1666666666666 525.4166666666667 454.1666666666666 500S474.5833333333333 454.1666666666667 500 454.1666666666667C525.4166666666666 454.1666666666667 545.8333333333333 474.5833333333334 545.8333333333333 500S525.4166666666666 545.8333333333334 500 545.8333333333334zM500 916.6666666666666C270 916.6666666666666 83.3333333333333 730 83.3333333333333 500S270 83.3333333333334 500 83.3333333333334S916.6666666666666 270.0000000000001 916.6666666666666 500S729.9999999999999 916.6666666666666 500 916.6666666666666zM591.25 408.75L250 250L408.75 591.25L750 750L591.25 408.75z" />
    <glyph glyph-name="status-error"
      unicode="&#xEA6A;"
      horiz-adv-x="1000" d="M500 916.6666666666666C270 916.6666666666666 83.3333333333333 730 83.3333333333333 500S270 83.3333333333334 500 83.3333333333334S916.6666666666666 270.0000000000001 916.6666666666666 500S729.9999999999999 916.6666666666666 500 916.6666666666666zM541.6666666666666 291.6666666666668H458.3333333333333V375H541.6666666666666V291.6666666666668zM541.6666666666666 458.3333333333334H458.3333333333333V708.3333333333334H541.6666666666666V458.3333333333334z" />
    <glyph glyph-name="status-info"
      unicode="&#xEA6B;"
      horiz-adv-x="1000" d="M500 916.6666666666666C270 916.6666666666666 83.3333333333333 730 83.3333333333333 500S270 83.3333333333334 500 83.3333333333334S916.6666666666666 270.0000000000001 916.6666666666666 500S729.9999999999999 916.6666666666666 500 916.6666666666666zM541.6666666666666 291.6666666666668H458.3333333333333V541.6666666666667H541.6666666666666V291.6666666666668zM541.6666666666666 625H458.3333333333333V708.3333333333334H541.6666666666666V625z" />
    <glyph glyph-name="status-success"
      unicode="&#xEA6C;"
      horiz-adv-x="1000" d="M500 916.6666666666666C270 916.6666666666666 83.3333333333333 730 83.3333333333333 500S270 83.3333333333334 500 83.3333333333334S916.6666666666666 270.0000000000001 916.6666666666666 500S729.9999999999999 916.6666666666666 500 916.6666666666666zM416.6666666666667 291.6666666666668L208.3333333333333 500L267.0833333333333 558.75L416.6666666666667 409.5833333333334L732.9166666666666 725.8333333333334L791.6666666666666 666.6666666666667L416.6666666666667 291.6666666666668z" />
    <glyph glyph-name="status-true"
      unicode="&#xEA6D;"
      horiz-adv-x="1000" d="M500 916.6666666666666C270 916.6666666666666 83.3333333333333 730 83.3333333333333 500S270 83.3333333333334 500 83.3333333333334S916.6666666666666 270.0000000000001 916.6666666666666 500S729.9999999999999 916.6666666666666 500 916.6666666666666zM416.6666666666667 291.6666666666668L208.3333333333333 500L267.0833333333333 558.75L416.6666666666667 409.5833333333334L732.9166666666666 725.8333333333334L791.6666666666666 666.6666666666667L416.6666666666667 291.6666666666668z" />
    <glyph glyph-name="status-warning"
      unicode="&#xEA6E;"
      horiz-adv-x="1000" d="M41.6666666666667 125H958.3333333333331L500 916.6666666666666L41.6666666666667 125zM541.6666666666666 250H458.3333333333333V333.3333333333334H541.6666666666666V250zM541.6666666666666 416.6666666666668H458.3333333333333V583.3333333333334H541.6666666666666V416.6666666666668z" />
    <glyph glyph-name="tab"
      unicode="&#xEA6F;"
      horiz-adv-x="1000" d="M875 875H125C79.1666666666667 875 41.6666666666667 837.5 41.6666666666667 791.6666666666667V208.3333333333334C41.6666666666667 162.5 79.1666666666667 125 125 125H875C920.8333333333334 125 958.3333333333331 162.5 958.3333333333331 208.3333333333334V791.6666666666667C958.3333333333331 837.5 920.8333333333334 875 875 875zM875 208.3333333333334H125V791.6666666666667H541.6666666666666V625H875V208.3333333333334z" />
    </font>
</defs>
</svg>
