<svg width="100" height="100" viewBox="0 0 100 100" fill="none" xmlns="http://www.w3.org/2000/svg">
<rect width="100" height="100" fill="white"/>
<rect x="20" y="16" width="1" height="3" fill="#BBDEFD"/>
<rect x="79" y="16" width="1" height="3" fill="#BBDEFD"/>
<rect x="59" y="16" width="1" height="3" fill="#BBDEFD"/>
<rect x="39" y="16" width="1" height="3" fill="#BBDEFD"/>
<rect x="20" y="81" width="1" height="3" fill="#BBDEFD"/>
<rect x="79" y="81" width="1" height="3" fill="#BBDEFD"/>
<rect x="59" y="81" width="1" height="3" fill="#BBDEFD"/>
<rect x="39" y="81" width="1" height="3" fill="#BBDEFD"/>
<rect x="84" y="20" width="1" height="3" transform="rotate(90 84 20)" fill="#BBDEFD"/>
<rect x="84" y="79" width="1" height="3" transform="rotate(90 84 79)" fill="#BBDEFD"/>
<rect x="84" y="59" width="1" height="3" transform="rotate(90 84 59)" fill="#BBDEFD"/>
<rect x="84" y="39" width="1" height="3" transform="rotate(90 84 39)" fill="#BBDEFD"/>
<rect x="19" y="20" width="1" height="3" transform="rotate(90 19 20)" fill="#BBDEFD"/>
<rect x="19" y="79" width="1" height="3" transform="rotate(90 19 79)" fill="#BBDEFD"/>
<rect x="19" y="59" width="1" height="3" transform="rotate(90 19 59)" fill="#BBDEFD"/>
<rect x="19" y="39" width="1" height="3" transform="rotate(90 19 39)" fill="#BBDEFD"/>
<path d="M68.3307 73.3502C68.3307 71.6005 68.3085 69.3683 66.1809 69.3683C64.0523 69.3683 64.0311 71.6005 64.0311 73.3502C64.0311 75.1197 64.0523 77.3537 66.1809 77.3537C68.3085 77.3537 68.3307 75.1197 68.3307 73.3502Z" fill="#0559A4"/>
<path d="M61.6965 27.5378C61.6965 26.6374 62.155 26.4283 62.4515 26.4283C62.7503 26.4283 63.2066 26.6374 63.2066 27.5378C63.2066 28.4378 62.7503 28.6478 62.4515 28.6478C62.155 28.6478 61.6965 28.4378 61.6965 27.5378Z" fill="#0559A4"/>
<path d="M57.5253 26.5531H57.0043V27.3739H57.457C57.7594 27.3739 58.0794 27.3512 58.0794 26.9438C58.0794 26.5758 57.8105 26.5531 57.5253 26.5531Z" fill="#0559A4"/>
<path d="M52.7208 26.5531H52.1993V27.3739H52.6524C52.9548 27.3739 53.274 27.3512 53.274 26.9438C53.274 26.5758 53.0083 26.5531 52.7208 26.5531Z" fill="#0559A4"/>
<path d="M42.6487 26.4798H42.1019V27.2837H42.7134C42.9307 27.2837 43.2286 27.2434 43.2286 26.8813C43.2286 26.6269 43.0955 26.4798 42.6487 26.4798Z" fill="#0559A4"/>
<path fill-rule="evenodd" clip-rule="evenodd" d="M20 20H80V80.0001H59.7286C59.8567 79.642 59.9278 79.236 59.9278 78.7781C59.9278 78.322 59.8401 77.8892 59.6339 77.5014H62.7928V77.0161H61.5511V68.9457C60.791 69.1362 59.9694 69.1566 59.1894 69.1566H56.6386C56.26 69.0255 55.8258 68.9606 55.333 68.9606C53.2475 68.9606 52.2996 70.5396 52.2996 71.8678C52.2996 73.0692 52.9315 73.7845 53.8804 74.2467V74.291C53.0796 74.4164 52.1878 74.7836 51.6133 75.942C51.492 76.1859 51.389 76.3969 51.3067 76.5798C50.733 76.253 49.8697 76.186 47.775 76.186H45.5206C45.2046 76.186 44.9728 75.9764 44.9728 75.7446C44.9728 74.8582 46.3443 74.7023 48.0213 74.5116L48.0216 74.5116C48.3383 74.4756 48.6659 74.4383 48.9972 74.3947C49.4404 74.3531 51.1258 73.7428 51.1258 71.7623C51.1258 71.3993 51.0142 71.0521 50.9283 70.785C50.8747 70.6181 50.8311 70.4825 50.8311 70.3938C50.8311 70.1806 51.2869 69.8873 51.4979 69.8873C51.5563 69.8873 51.6242 69.9846 51.7066 70.1028C51.8343 70.2859 51.997 70.5192 52.214 70.5192C52.6572 70.5192 52.8894 70.1399 52.8894 69.7198C52.8894 69.1711 52.4453 69.0014 52.0683 69.0014C51.3716 69.0014 50.7265 69.6963 50.5142 70.1806C49.9664 69.3604 49.1027 68.9606 47.8809 68.9606C45.7949 68.9606 44.847 70.5396 44.847 71.8678C44.847 73.0692 45.4789 73.7845 46.4264 74.2467V74.291C45.6265 74.4164 44.3196 74.755 44.3196 75.9117C44.3196 75.9399 44.3085 75.9642 44.2964 75.9909C44.2885 76.0081 44.2803 76.0262 44.2742 76.047C44.1701 76.4051 43.9592 76.9958 43.5386 76.9958C43.095 76.9958 43.095 76.6581 43.095 76.0266V71.0118C43.095 70.1684 43.095 68.9452 40.2286 68.9452C37.722 68.9452 36.8565 70.2105 36.8565 70.9692C36.8565 71.5582 37.1738 71.981 37.7433 71.981C38.2689 71.981 38.6066 71.6229 38.6066 71.0951C38.6066 70.6297 38.3237 70.4291 38.1366 70.2965C38.0442 70.231 37.9751 70.182 37.9751 70.1259C37.9751 69.5138 39.4699 69.3681 39.9348 69.3681C40.6708 69.3681 41.4517 69.6641 41.4517 70.6528V72.6546C38.2281 72.6546 36.2264 73.751 36.1621 75.7102C36.1621 77.2688 37.3001 77.7754 38.6274 77.7754C39.7025 77.7754 40.7555 77.3743 41.4735 76.4893C41.6201 77.2688 42.0633 77.7754 42.8419 77.7754C43.5786 77.7754 44.1933 77.3497 44.4739 76.7106C44.8294 77.4787 45.7394 77.6042 46.5725 77.719L46.6166 77.7251V77.7889C45.568 78.0562 44.2196 78.6022 44.1546 80.0001H20V20ZM69.3912 77.5014V77.0161H71.0141V63.9915H69.3912V63.5071H70.2979C71.0788 63.5071 71.8982 63.4636 72.6569 63.317V77.0161L75.1572 77.0161V69.6432H73.7457V69.1566H74.4419C75.2219 69.1566 76.0422 69.1362 76.8022 68.9457V77.0161H78.0453V77.5014L69.3912 77.5014ZM75.9589 66.169C76.4664 66.169 77.0328 66.6312 77.0328 67.1813C77.0328 67.8332 76.5696 68.2973 75.9589 68.2973C75.3486 68.2973 74.9474 67.7916 74.9474 67.1813C74.9474 66.6312 75.4323 66.169 75.9589 66.169ZM62.1153 73.3502C62.1153 70.8015 63.9686 68.9455 66.1809 68.9455C68.3932 68.9455 70.2465 70.8015 70.2465 73.3502C70.2465 75.8992 68.3932 77.7756 66.1809 77.7756C63.9686 77.7756 62.1153 75.8992 62.1153 73.3502ZM61.6047 67.1557C61.6047 66.6092 61.0343 66.1451 60.5286 66.1451C60.0016 66.1451 59.5194 66.6092 59.5194 67.1557C59.5194 67.7678 59.9178 68.2735 60.5286 68.2735C61.1402 68.2735 61.6047 67.8085 61.6047 67.1557ZM21.7212 63.425V63.9102H23.302V77.016H21.7212V77.5013H25.5143V77.016H23.934V64.1633H23.9761L27.9167 77.5013H28.464L32.5513 64.1633H32.5943V77.016H30.9715V77.5013H36.2403V77.016H34.6382V63.9102H36.2403V63.425H32.0466L28.9484 73.7924H28.9068L25.9358 63.425H21.7212ZM38.5526 29.559H39.291V27.3341H37.7382V28.2001H38.2548C38.1959 28.5002 37.9198 28.6478 37.6491 28.6478C36.9361 28.6478 36.7926 27.985 36.7926 27.6061L36.7925 27.5805C36.7918 27.2772 36.7896 26.4282 37.5689 26.4282C37.8451 26.4282 38.0791 26.6374 38.1217 26.9325H39.2439C39.0737 25.9814 38.4621 25.421 37.4952 25.421C36.6382 25.421 35.6228 26.0371 35.6228 27.5776C35.6228 28.727 36.3145 29.6554 37.4358 29.6554C37.8505 29.6554 38.2548 29.5029 38.5146 29.1457L38.5526 29.559ZM60.5272 27.5378C60.5272 28.7723 61.2985 29.6555 62.4515 29.6555C63.6063 29.6555 64.3764 28.7723 64.3764 27.5378C64.3764 26.3034 63.6063 25.4211 62.4515 25.4211C61.2985 25.4211 60.5272 26.3034 60.5272 27.5378ZM57.0043 29.559H55.835V25.5174H57.7915C58.8232 25.5174 59.184 26.3209 59.184 26.8985C59.184 27.8773 58.5674 28.3363 57.6946 28.3363H57.0043V29.559ZM52.1993 29.559H51.0309V25.5174H52.987C54.0177 25.5174 54.379 26.3209 54.379 26.8985C54.379 27.8773 53.7624 28.3363 52.8915 28.3363H52.1993V29.559ZM42.1019 29.5589H40.9321V25.5178H43.1593C43.8234 25.5178 44.3988 25.9076 44.3988 26.6717C44.3988 27.0909 44.2173 27.5327 43.8293 27.6857C44.148 27.8152 44.3454 28.1891 44.3879 28.6934C44.3907 28.7288 44.3931 28.7732 44.3958 28.8233C44.4085 29.0538 44.4278 29.4058 44.5151 29.5589H43.3458C43.287 29.3552 43.2657 29.1461 43.2503 28.936L43.25 28.9325C43.218 28.5488 43.1846 28.1493 42.7234 28.1493H42.1019V29.5589ZM48.2092 25.5175H49.3785V27.996C49.3785 29.1173 48.8094 29.6556 47.6515 29.6556C46.4917 29.6556 45.9172 29.1173 45.9172 27.996V25.5175H47.0874V27.7199C47.0874 28.1327 47.0874 28.6479 47.6564 28.6479C48.2092 28.6479 48.2092 28.1327 48.2092 27.7199V25.5175Z" fill="#0559A4"/>
<path d="M41.0203 76.3092C41.1908 76.1429 41.4517 75.8884 41.4517 75.0561V73.0964C40.0823 73.1177 37.7433 73.3503 37.7433 75.2874C37.7433 76.3218 38.3961 76.9533 39.3657 76.9533C40.0398 76.9533 40.4825 76.7826 40.9886 76.3403C40.9986 76.3304 41.0091 76.3202 41.0199 76.3096L41.0203 76.3092Z" fill="#0559A4"/>
<path d="M59.906 77.0161H59.2883C58.6337 76.3069 58.0426 76.186 55.2294 76.186H52.9732C52.6572 76.186 52.4259 75.9764 52.4259 75.7446C52.4259 74.8582 53.7969 74.7023 55.4739 74.5116C55.7907 74.4756 56.1184 74.4384 56.4498 74.3947C56.893 74.3531 58.5779 73.7428 58.5779 71.7623C58.5779 70.833 57.9663 70.1806 57.9663 70.1806C57.8292 69.9752 57.6723 69.7962 57.495 69.6432H59.906V77.0161Z" fill="#0559A4"/>
<path d="M52.8528 79.9514C52.8528 81.2991 54.2642 81.7436 55.3606 81.7436C58.9441 81.7436 59.0921 79.7418 59.0921 79.405C59.0921 78.1611 58.7123 77.5508 56.0356 77.5508C53.549 77.5508 52.8528 79.2353 52.8528 79.9514Z" fill="#0559A4"/>
<path d="M53.8441 71.818C53.8441 69.8171 54.3507 69.3115 55.4027 69.3115C56.6676 69.3115 56.835 70.5749 56.835 71.6297C56.835 72.9357 56.7296 74.0303 55.1936 74.0303C54.0325 74.0303 53.8441 72.7668 53.8441 71.818Z" fill="#0559A4"/>
<path d="M47.909 81.7436C46.8121 81.7436 45.4002 81.2991 45.4002 79.9514C45.4002 79.2353 46.0955 77.5508 48.5826 77.5508C51.2575 77.5508 51.6382 78.1611 51.6382 79.405C51.6382 79.7418 51.4902 81.7436 47.909 81.7436Z" fill="#0559A4"/>
<path d="M47.9497 69.3115C46.8968 69.3115 46.3911 69.8171 46.3911 71.818C46.3911 72.7668 46.5803 74.0303 47.7388 74.0303C49.2779 74.0303 49.3834 72.9357 49.3834 71.6297C49.3834 70.5749 49.215 69.3115 47.9497 69.3115Z" fill="#0559A4"/>
<rect x="79" y="94" width="1" height="3" fill="#BBDEFD"/>
<rect x="99" y="94" width="1" height="3" fill="#BBDEFD"/>
<rect x="100" y="95" width="1" height="20" transform="rotate(90 100 95)" fill="#BBDEFD"/>
<path d="M87.7055 91.128C87.7055 91.3947 87.5589 91.58 87.2655 91.684C87.4255 91.7293 87.5549 91.804 87.6535 91.908C87.7522 92.012 87.8015 92.1453 87.8015 92.308C87.8015 92.5293 87.7175 92.708 87.5495 92.844C87.3815 92.9773 87.1602 93.044 86.8855 93.044C86.6109 93.044 86.3762 92.9733 86.1815 92.832C85.9895 92.688 85.8935 92.4867 85.8935 92.228H86.2215C86.2269 92.3987 86.2895 92.5293 86.4095 92.62C86.5322 92.7107 86.6869 92.756 86.8735 92.756C87.0602 92.756 87.2042 92.712 87.3055 92.624C87.4095 92.5333 87.4615 92.4227 87.4615 92.292C87.4615 92.1587 87.4122 92.0507 87.3135 91.968C87.2149 91.8827 87.0549 91.84 86.8335 91.84H86.5455V91.588H86.7415C86.9335 91.588 87.0855 91.5507 87.1975 91.476C87.3095 91.3987 87.3655 91.296 87.3655 91.168C87.3655 91.04 87.3202 90.9347 87.2295 90.852C87.1389 90.7693 87.0189 90.728 86.8695 90.728C86.7202 90.728 86.5949 90.7547 86.4935 90.808C86.3949 90.8587 86.3282 90.9547 86.2935 91.096H85.9655C85.9949 90.8747 86.0869 90.7107 86.2415 90.604C86.3962 90.4947 86.5949 90.44 86.8375 90.44C87.0829 90.44 87.2882 90.5053 87.4535 90.636C87.6215 90.764 87.7055 90.928 87.7055 91.128ZM90.0688 91.128C90.0688 91.3947 89.9222 91.58 89.6288 91.684C89.7888 91.7293 89.9182 91.804 90.0168 91.908C90.1155 92.012 90.1648 92.1453 90.1648 92.308C90.1648 92.5293 90.0808 92.708 89.9128 92.844C89.7448 92.9773 89.5235 93.044 89.2488 93.044C88.9742 93.044 88.7395 92.9733 88.5448 92.832C88.3528 92.688 88.2568 92.4867 88.2568 92.228H88.5848C88.5902 92.3987 88.6528 92.5293 88.7728 92.62C88.8955 92.7107 89.0502 92.756 89.2368 92.756C89.4235 92.756 89.5675 92.712 89.6688 92.624C89.7728 92.5333 89.8248 92.4227 89.8248 92.292C89.8248 92.1587 89.7755 92.0507 89.6768 91.968C89.5782 91.8827 89.4182 91.84 89.1968 91.84H88.9088V91.588H89.1048C89.2968 91.588 89.4488 91.5507 89.5608 91.476C89.6728 91.3987 89.7288 91.296 89.7288 91.168C89.7288 91.04 89.6835 90.9347 89.5928 90.852C89.5022 90.7693 89.3822 90.728 89.2328 90.728C89.0835 90.728 88.9582 90.7547 88.8568 90.808C88.7582 90.8587 88.6915 90.9547 88.6568 91.096H88.3288C88.3582 90.8747 88.4502 90.7107 88.6048 90.604C88.7595 90.4947 88.9582 90.44 89.2008 90.44C89.4462 90.44 89.6515 90.5053 89.8168 90.636C89.9848 90.764 90.0688 90.928 90.0688 91.128ZM91.1641 90.44C91.3054 90.44 91.4268 90.4907 91.5281 90.592C91.6294 90.6933 91.6801 90.8347 91.6801 91.016C91.6801 91.1973 91.6294 91.3387 91.5281 91.44C91.4294 91.5387 91.3081 91.588 91.1641 91.588C91.0201 91.588 90.8988 91.5373 90.8001 91.436C90.7041 91.3347 90.6561 91.1947 90.6561 91.016C90.6561 90.8373 90.7054 90.6973 90.8041 90.596C90.9028 90.492 91.0228 90.44 91.1641 90.44ZM91.4241 91.016C91.4241 90.8907 91.4001 90.7987 91.3521 90.74C91.3041 90.6813 91.2414 90.652 91.1641 90.652C91.0868 90.652 91.0241 90.6813 90.9761 90.74C90.9281 90.7987 90.9041 90.8907 90.9041 91.016C90.9041 91.1413 90.9281 91.232 90.9761 91.288C91.0241 91.344 91.0868 91.372 91.1641 91.372C91.2414 91.372 91.3041 91.344 91.3521 91.288C91.4001 91.232 91.4241 91.1413 91.4241 91.016ZM92.5481 90.484H92.8761L91.1841 93H90.8601L92.5481 90.484ZM92.5641 91.896C92.7081 91.896 92.8294 91.9467 92.9281 92.048C93.0294 92.1467 93.0801 92.288 93.0801 92.472C93.0801 92.6533 93.0294 92.7947 92.9281 92.896C92.8294 92.9947 92.7081 93.044 92.5641 93.044C92.4201 93.044 92.2988 92.9933 92.2001 92.892C92.1041 92.7907 92.0561 92.6507 92.0561 92.472C92.0561 92.2907 92.1041 92.1493 92.2001 92.048C92.2988 91.9467 92.4201 91.896 92.5641 91.896ZM92.5641 92.108C92.4868 92.108 92.4241 92.1373 92.3761 92.196C92.3281 92.2547 92.3041 92.3467 92.3041 92.472C92.3041 92.5973 92.3281 92.688 92.3761 92.744C92.4241 92.8 92.4868 92.828 92.5641 92.828C92.6414 92.828 92.7041 92.8 92.7521 92.744C92.8001 92.688 92.8241 92.5973 92.8241 92.472C92.8241 92.3467 92.8001 92.2547 92.7521 92.196C92.7041 92.1373 92.6414 92.108 92.5641 92.108Z" fill="#595959"/>
<rect y="94" width="1" height="3" fill="#BBDEFD"/>
<rect x="20" y="94" width="1" height="3" fill="#BBDEFD"/>
<rect x="21" y="95" width="1" height="20" transform="rotate(90 21 95)" fill="#BBDEFD"/>
<path d="M8.70555 91.128C8.70555 91.3947 8.55888 91.58 8.26555 91.684C8.42555 91.7293 8.55488 91.804 8.65355 91.908C8.75221 92.012 8.80155 92.1453 8.80155 92.308C8.80155 92.5293 8.71755 92.708 8.54955 92.844C8.38155 92.9773 8.16021 93.044 7.88555 93.044C7.61088 93.044 7.37621 92.9733 7.18155 92.832C6.98955 92.688 6.89355 92.4867 6.89355 92.228H7.22155C7.22688 92.3987 7.28955 92.5293 7.40955 92.62C7.53221 92.7107 7.68688 92.756 7.87355 92.756C8.06021 92.756 8.20421 92.712 8.30555 92.624C8.40955 92.5333 8.46155 92.4227 8.46155 92.292C8.46155 92.1587 8.41221 92.0507 8.31355 91.968C8.21488 91.8827 8.05488 91.84 7.83355 91.84H7.54555V91.588H7.74155C7.93355 91.588 8.08555 91.5507 8.19755 91.476C8.30955 91.3987 8.36555 91.296 8.36555 91.168C8.36555 91.04 8.32021 90.9347 8.22955 90.852C8.13888 90.7693 8.01888 90.728 7.86955 90.728C7.72021 90.728 7.59488 90.7547 7.49355 90.808C7.39488 90.8587 7.32821 90.9547 7.29355 91.096H6.96555C6.99488 90.8747 7.08688 90.7107 7.24155 90.604C7.39621 90.4947 7.59488 90.44 7.83755 90.44C8.08288 90.44 8.28821 90.5053 8.45355 90.636C8.62155 90.764 8.70555 90.928 8.70555 91.128ZM11.0688 91.128C11.0688 91.3947 10.9222 91.58 10.6288 91.684C10.7888 91.7293 10.9182 91.804 11.0168 91.908C11.1155 92.012 11.1648 92.1453 11.1648 92.308C11.1648 92.5293 11.0808 92.708 10.9128 92.844C10.7448 92.9773 10.5235 93.044 10.2488 93.044C9.97416 93.044 9.73949 92.9733 9.54483 92.832C9.35283 92.688 9.25683 92.4867 9.25683 92.228H9.58483C9.59016 92.3987 9.65283 92.5293 9.77283 92.62C9.89549 92.7107 10.0502 92.756 10.2368 92.756C10.4235 92.756 10.5675 92.712 10.6688 92.624C10.7728 92.5333 10.8248 92.4227 10.8248 92.292C10.8248 92.1587 10.7755 92.0507 10.6768 91.968C10.5782 91.8827 10.4182 91.84 10.1968 91.84H9.90883V91.588H10.1048C10.2968 91.588 10.4488 91.5507 10.5608 91.476C10.6728 91.3987 10.7288 91.296 10.7288 91.168C10.7288 91.04 10.6835 90.9347 10.5928 90.852C10.5022 90.7693 10.3822 90.728 10.2328 90.728C10.0835 90.728 9.95816 90.7547 9.85683 90.808C9.75816 90.8587 9.69149 90.9547 9.65683 91.096H9.32883C9.35816 90.8747 9.45016 90.7107 9.60483 90.604C9.75949 90.4947 9.95816 90.44 10.2008 90.44C10.4462 90.44 10.6515 90.5053 10.8168 90.636C10.9848 90.764 11.0688 90.928 11.0688 91.128ZM12.1641 90.44C12.3054 90.44 12.4268 90.4907 12.5281 90.592C12.6294 90.6933 12.6801 90.8347 12.6801 91.016C12.6801 91.1973 12.6294 91.3387 12.5281 91.44C12.4294 91.5387 12.3081 91.588 12.1641 91.588C12.0201 91.588 11.8988 91.5373 11.8001 91.436C11.7041 91.3347 11.6561 91.1947 11.6561 91.016C11.6561 90.8373 11.7054 90.6973 11.8041 90.596C11.9028 90.492 12.0228 90.44 12.1641 90.44ZM12.4241 91.016C12.4241 90.8907 12.4001 90.7987 12.3521 90.74C12.3041 90.6813 12.2414 90.652 12.1641 90.652C12.0868 90.652 12.0241 90.6813 11.9761 90.74C11.9281 90.7987 11.9041 90.8907 11.9041 91.016C11.9041 91.1413 11.9281 91.232 11.9761 91.288C12.0241 91.344 12.0868 91.372 12.1641 91.372C12.2414 91.372 12.3041 91.344 12.3521 91.288C12.4001 91.232 12.4241 91.1413 12.4241 91.016ZM13.5481 90.484H13.8761L12.1841 93H11.8601L13.5481 90.484ZM13.5641 91.896C13.7081 91.896 13.8294 91.9467 13.9281 92.048C14.0294 92.1467 14.0801 92.288 14.0801 92.472C14.0801 92.6533 14.0294 92.7947 13.9281 92.896C13.8294 92.9947 13.7081 93.044 13.5641 93.044C13.4201 93.044 13.2988 92.9933 13.2001 92.892C13.1041 92.7907 13.0561 92.6507 13.0561 92.472C13.0561 92.2907 13.1041 92.1493 13.2001 92.048C13.2988 91.9467 13.4201 91.896 13.5641 91.896ZM13.5641 92.108C13.4868 92.108 13.4241 92.1373 13.3761 92.196C13.3281 92.2547 13.3041 92.3467 13.3041 92.472C13.3041 92.5973 13.3281 92.688 13.3761 92.744C13.4241 92.8 13.4868 92.828 13.5641 92.828C13.6414 92.828 13.7041 92.8 13.7521 92.744C13.8001 92.688 13.8241 92.5973 13.8241 92.472C13.8241 92.3467 13.8001 92.2547 13.7521 92.196C13.7041 92.1373 13.6414 92.108 13.5641 92.108Z" fill="#595959"/>
<rect x="20" y="94" width="1" height="3" fill="#BBDEFD"/>
<rect x="79" y="94" width="1" height="3" fill="#BBDEFD"/>
<rect x="80" y="95" width="1" height="60" transform="rotate(90 80 95)" fill="#BBDEFD"/>
<path d="M45.7077 90.68C45.8864 90.656 46.0424 90.588 46.1757 90.476H46.4317V93H46.1197V90.852C45.9864 90.9373 45.8491 90.984 45.7077 90.992V90.68ZM48.0279 90.44C48.3319 90.44 48.5719 90.552 48.7479 90.776C48.9239 91 49.0119 91.3227 49.0119 91.744C49.0119 92.1627 48.9239 92.484 48.7479 92.708C48.5719 92.932 48.3319 93.044 48.0279 93.044C47.7239 93.044 47.4826 92.9333 47.3039 92.712C47.1279 92.4907 47.0399 92.168 47.0399 91.744C47.0399 91.3173 47.1279 90.9933 47.3039 90.772C47.4826 90.5507 47.7239 90.44 48.0279 90.44ZM48.6839 91.744C48.6839 91.416 48.6279 91.1653 48.5159 90.992C48.4039 90.816 48.2399 90.728 48.0239 90.728C47.8106 90.728 47.6479 90.816 47.5359 90.992C47.4239 91.1653 47.3679 91.416 47.3679 91.744C47.3679 92.0693 47.4239 92.32 47.5359 92.496C47.6479 92.6693 47.8106 92.756 48.0239 92.756C48.2399 92.756 48.4039 92.6693 48.5159 92.496C48.6279 92.32 48.6839 92.0693 48.6839 91.744ZM50.4029 90.44C50.7069 90.44 50.9469 90.552 51.1229 90.776C51.2989 91 51.3869 91.3227 51.3869 91.744C51.3869 92.1627 51.2989 92.484 51.1229 92.708C50.9469 92.932 50.7069 93.044 50.4029 93.044C50.0989 93.044 49.8576 92.9333 49.6789 92.712C49.5029 92.4907 49.4149 92.168 49.4149 91.744C49.4149 91.3173 49.5029 90.9933 49.6789 90.772C49.8576 90.5507 50.0989 90.44 50.4029 90.44ZM51.0589 91.744C51.0589 91.416 51.0029 91.1653 50.8909 90.992C50.7789 90.816 50.6149 90.728 50.3989 90.728C50.1856 90.728 50.0229 90.816 49.9109 90.992C49.7989 91.1653 49.7429 91.416 49.7429 91.744C49.7429 92.0693 49.7989 92.32 49.9109 92.496C50.0229 92.6693 50.1856 92.756 50.3989 92.756C50.6149 92.756 50.7789 92.6693 50.8909 92.496C51.0029 92.32 51.0589 92.0693 51.0589 91.744ZM52.3379 90.44C52.4793 90.44 52.6006 90.4907 52.7019 90.592C52.8033 90.6933 52.8539 90.8347 52.8539 91.016C52.8539 91.1973 52.8033 91.3387 52.7019 91.44C52.6033 91.5387 52.4819 91.588 52.3379 91.588C52.1939 91.588 52.0726 91.5373 51.9739 91.436C51.8779 91.3347 51.8299 91.1947 51.8299 91.016C51.8299 90.8373 51.8793 90.6973 51.9779 90.596C52.0766 90.492 52.1966 90.44 52.3379 90.44ZM52.5979 91.016C52.5979 90.8907 52.5739 90.7987 52.5259 90.74C52.4779 90.6813 52.4153 90.652 52.3379 90.652C52.2606 90.652 52.1979 90.6813 52.1499 90.74C52.1019 90.7987 52.0779 90.8907 52.0779 91.016C52.0779 91.1413 52.1019 91.232 52.1499 91.288C52.1979 91.344 52.2606 91.372 52.3379 91.372C52.4153 91.372 52.4779 91.344 52.5259 91.288C52.5739 91.232 52.5979 91.1413 52.5979 91.016ZM53.7219 90.484H54.0499L52.3579 93H52.0339L53.7219 90.484ZM53.7379 91.896C53.8819 91.896 54.0033 91.9467 54.1019 92.048C54.2033 92.1467 54.2539 92.288 54.2539 92.472C54.2539 92.6533 54.2033 92.7947 54.1019 92.896C54.0033 92.9947 53.8819 93.044 53.7379 93.044C53.5939 93.044 53.4726 92.9933 53.3739 92.892C53.2779 92.7907 53.2299 92.6507 53.2299 92.472C53.2299 92.2907 53.2779 92.1493 53.3739 92.048C53.4726 91.9467 53.5939 91.896 53.7379 91.896ZM53.7379 92.108C53.6606 92.108 53.5979 92.1373 53.5499 92.196C53.5019 92.2547 53.4779 92.3467 53.4779 92.472C53.4779 92.5973 53.5019 92.688 53.5499 92.744C53.5979 92.8 53.6606 92.828 53.7379 92.828C53.8153 92.828 53.8779 92.8 53.9259 92.744C53.9739 92.688 53.9979 92.5973 53.9979 92.472C53.9979 92.3467 53.9739 92.2547 53.9259 92.196C53.8779 92.1373 53.8153 92.108 53.7379 92.108Z" fill="#595959"/>
</svg>
