<svg width="60" height="64" viewBox="0 0 60 64" fill="none" xmlns="http://www.w3.org/2000/svg">
<path d="M48.3307 54.1409C48.3307 52.3912 48.3085 50.159 46.1809 50.159C44.0523 50.159 44.0311 52.3912 44.0311 54.1409C44.0311 55.9104 44.0523 58.1444 46.1809 58.1444C48.3085 58.1444 48.3307 55.9104 48.3307 54.1409Z" fill="black"/>
<path d="M41.6965 8.32853C41.6965 7.42813 42.155 7.21899 42.4515 7.21899C42.7503 7.21899 43.2066 7.42813 43.2066 8.32853C43.2066 9.22847 42.7503 9.43852 42.4515 9.43852C42.155 9.43852 41.6965 9.22847 41.6965 8.32853Z" fill="black"/>
<path d="M37.5253 7.34384H37.0043V8.16456H37.457C37.7594 8.16456 38.0794 8.14193 38.0794 7.73451C38.0794 7.36648 37.8105 7.34384 37.5253 7.34384Z" fill="black"/>
<path d="M32.7208 7.34384H32.1993V8.16456H32.6524C32.9548 8.16456 33.274 8.14193 33.274 7.73451C33.274 7.36648 33.0083 7.34384 32.7208 7.34384Z" fill="black"/>
<path d="M22.6487 7.27045H22.1019V8.07442H22.7134C22.9307 8.07442 23.2286 8.03414 23.2286 7.67199C23.2286 7.41758 23.0955 7.27045 22.6487 7.27045Z" fill="black"/>
<path fill-rule="evenodd" clip-rule="evenodd" d="M0 0.790695H60V60.7908H39.7286C39.8567 60.4327 39.9278 60.0267 39.9278 59.5688C39.9278 59.1127 39.8401 58.6799 39.6339 58.2921H42.7928V57.8068H41.5511V49.7364C40.791 49.9269 39.9694 49.9473 39.1894 49.9473H36.6386C36.26 49.8162 35.8258 49.7513 35.333 49.7513C33.2475 49.7513 32.2996 51.3303 32.2996 52.6585C32.2996 53.8599 32.9315 54.5752 33.8804 55.0374V55.0817C33.0796 55.2071 32.1878 55.5743 31.6133 56.7327C31.492 56.9766 31.389 57.1875 31.3067 57.3704C30.733 57.0437 29.8697 56.9767 27.775 56.9767H25.5206C25.2046 56.9767 24.9728 56.7671 24.9728 56.5353C24.9728 55.6489 26.3443 55.493 28.0213 55.3023L28.0216 55.3023C28.3383 55.2663 28.6659 55.229 28.9972 55.1854C29.4404 55.1438 31.1258 54.5335 31.1258 52.553C31.1258 52.19 31.0142 51.8428 30.9283 51.5757C30.8747 51.4088 30.8311 51.2732 30.8311 51.1845C30.8311 50.9713 31.2869 50.678 31.4979 50.678C31.5563 50.678 31.6242 50.7753 31.7066 50.8935C31.8343 51.0766 31.997 51.3099 32.214 51.3099C32.6572 51.3099 32.8894 50.9306 32.8894 50.5105C32.8894 49.9618 32.4453 49.7921 32.0683 49.7921C31.3716 49.7921 30.7265 50.487 30.5142 50.9713C29.9664 50.1511 29.1027 49.7513 27.8809 49.7513C25.7949 49.7513 24.847 51.3303 24.847 52.6585C24.847 53.8599 25.4789 54.5752 26.4264 55.0374V55.0817C25.6265 55.2071 24.3196 55.5457 24.3196 56.7024C24.3196 56.7306 24.3085 56.7549 24.2964 56.7816C24.2885 56.7988 24.2803 56.8169 24.2742 56.8377C24.1701 57.1958 23.9592 57.7865 23.5386 57.7865C23.095 57.7865 23.095 57.4488 23.095 56.8173V51.8025C23.095 50.9591 23.095 49.7359 20.2286 49.7359C17.722 49.7359 16.8565 51.0012 16.8565 51.7599C16.8565 52.3488 17.1738 52.7717 17.7433 52.7717C18.2689 52.7717 18.6066 52.4136 18.6066 51.8858C18.6066 51.4204 18.3237 51.2198 18.1366 51.0872C18.0442 51.0216 17.9751 50.9727 17.9751 50.9165C17.9751 50.3045 19.4699 50.1588 19.9348 50.1588C20.6708 50.1588 21.4517 50.4548 21.4517 51.4435V53.4453C18.2281 53.4453 16.2264 54.5417 16.1621 56.5009C16.1621 58.0595 17.3001 58.5661 18.6274 58.5661C19.7025 58.5661 20.7555 58.165 21.4735 57.28C21.6201 58.0595 22.0633 58.5661 22.8419 58.5661C23.5786 58.5661 24.1933 58.1404 24.4739 57.5013C24.8294 58.2694 25.7394 58.3949 26.5725 58.5097L26.6166 58.5158V58.5796C25.568 58.8469 24.2196 59.3929 24.1546 60.7908H0V0.790695ZM49.3912 58.2921V57.8068H51.0141V44.7822H49.3912V44.2978H50.2979C51.0788 44.2978 51.8982 44.2543 52.6569 44.1077V57.8068L55.1572 57.8068V50.4339H53.7457V49.9473H54.4419C55.2219 49.9473 56.0422 49.9269 56.8022 49.7364V57.8068H58.0453V58.2921L49.3912 58.2921ZM55.9589 46.9597C56.4664 46.9597 57.0328 47.4219 57.0328 47.972C57.0328 48.6239 56.5696 49.088 55.9589 49.088C55.3486 49.088 54.9474 48.5823 54.9474 47.972C54.9474 47.4219 55.4323 46.9597 55.9589 46.9597ZM42.1153 54.1409C42.1153 51.5922 43.9686 49.7362 46.1809 49.7362C48.3932 49.7362 50.2465 51.5922 50.2465 54.1409C50.2465 56.6899 48.3932 58.5663 46.1809 58.5663C43.9686 58.5663 42.1153 56.6899 42.1153 54.1409ZM41.6047 47.9463C41.6047 47.3999 41.0343 46.9358 40.5286 46.9358C40.0016 46.9358 39.5194 47.3999 39.5194 47.9463C39.5194 48.5585 39.9178 49.0642 40.5286 49.0642C41.1402 49.0642 41.6047 48.5992 41.6047 47.9463ZM1.72125 44.2157V44.7009H3.30203V57.8067H1.72125V58.292H5.51431V57.8067H3.93398V44.954H3.97608L7.91672 58.292H8.46402L12.5513 44.954H12.5943V57.8067H10.9715V58.292H16.2403V57.8067H14.6382V44.7009H16.2403V44.2157H12.0466L8.9484 54.5831H8.90675L5.93577 44.2157H1.72125ZM18.5526 10.3497H19.291V8.12476H17.7382V8.99075H18.2548C18.1959 9.29088 17.9198 9.43846 17.6491 9.43846C16.9361 9.43846 16.7926 8.77572 16.7926 8.39682L16.7925 8.37118C16.7918 8.06792 16.7896 7.21893 17.5689 7.21893C17.8451 7.21893 18.0791 7.42807 18.1217 7.72322H19.2439C19.0737 6.77213 18.4621 6.2117 17.4952 6.2117C16.6382 6.2117 15.6228 6.82781 15.6228 8.3683C15.6228 9.51768 16.3145 10.4461 17.4358 10.4461C17.8505 10.4461 18.2548 10.2936 18.5146 9.93641L18.5526 10.3497ZM40.5272 8.32853C40.5272 9.56301 41.2985 10.4462 42.4515 10.4462C43.6063 10.4462 44.3764 9.56301 44.3764 8.32853C44.3764 7.09405 43.6063 6.21176 42.4515 6.21176C41.2985 6.21176 40.5272 7.09405 40.5272 8.32853ZM37.0043 10.3497H35.835V6.30809H37.7915C38.8232 6.30809 39.184 7.11161 39.184 7.68924C39.184 8.66795 38.5674 9.12698 37.6946 9.12698H37.0043V10.3497ZM32.1993 10.3497H31.0309V6.30809H32.987C34.0177 6.30809 34.379 7.11161 34.379 7.68924C34.379 8.66795 33.7624 9.12698 32.8915 9.12698H32.1993V10.3497ZM22.1019 10.3496H20.9321V6.30849H23.1593C23.8234 6.30849 24.3988 6.69826 24.3988 7.46239C24.3988 7.88158 24.2173 8.3234 23.8293 8.47641C24.148 8.60588 24.3454 8.9798 24.3879 9.48409C24.3907 9.51945 24.3931 9.56386 24.3958 9.61402C24.4085 9.84451 24.4278 10.1965 24.5151 10.3496H23.3458C23.287 10.1459 23.2657 9.93678 23.2503 9.72673L23.25 9.72318C23.218 9.33948 23.1846 8.93996 22.7234 8.93996H22.1019V10.3496ZM28.2092 6.30824H29.3785V8.7867C29.3785 9.90801 28.8094 10.4463 27.6515 10.4463C26.4917 10.4463 25.9172 9.90801 25.9172 8.7867V6.30824H27.0874V8.51057C27.0874 8.92342 27.0874 9.43857 27.6564 9.43857C28.2092 9.43857 28.2092 8.92342 28.2092 8.51057V6.30824Z" fill="black"/>
<path d="M21.0203 57.0999C21.1908 56.9336 21.4517 56.6791 21.4517 55.8468V53.8871C20.0823 53.9084 17.7433 54.141 17.7433 56.0781C17.7433 57.1125 18.3961 57.744 19.3657 57.744C20.0398 57.744 20.4825 57.5733 20.9886 57.131C20.9986 57.1211 21.0091 57.1109 21.0199 57.1003L21.0203 57.0999Z" fill="black"/>
<path d="M39.906 57.8068H39.2883C38.6337 57.0976 38.0426 56.9767 35.2294 56.9767H32.9732C32.6572 56.9767 32.4259 56.7671 32.4259 56.5353C32.4259 55.6489 33.7969 55.493 35.4739 55.3023C35.7907 55.2663 36.1184 55.2291 36.4498 55.1854C36.893 55.1438 38.5779 54.5335 38.5779 52.553C38.5779 51.6237 37.9663 50.9713 37.9663 50.9713C37.8292 50.7659 37.6723 50.5869 37.495 50.4339H39.906V57.8068Z" fill="black"/>
<path d="M32.8528 60.7421C32.8528 62.0898 34.2642 62.5343 35.3606 62.5343C38.9441 62.5343 39.0921 60.5325 39.0921 60.1957C39.0921 58.9518 38.7123 58.3415 36.0356 58.3415C33.549 58.3415 32.8528 60.026 32.8528 60.7421Z" fill="black"/>
<path d="M33.8441 52.6087C33.8441 50.6078 34.3507 50.1022 35.4027 50.1022C36.6676 50.1022 36.835 51.3656 36.835 52.4204C36.835 53.7264 36.7296 54.821 35.1936 54.821C34.0325 54.821 33.8441 53.5575 33.8441 52.6087Z" fill="black"/>
<path d="M27.909 62.5343C26.8121 62.5343 25.4002 62.0898 25.4002 60.7421C25.4002 60.026 26.0955 58.3415 28.5826 58.3415C31.2575 58.3415 31.6382 58.9518 31.6382 60.1957C31.6382 60.5325 31.4902 62.5343 27.909 62.5343Z" fill="black"/>
<path d="M27.9497 50.1022C26.8968 50.1022 26.3911 50.6078 26.3911 52.6087C26.3911 53.5575 26.5803 54.821 27.7388 54.821C29.2779 54.821 29.3834 53.7264 29.3834 52.4204C29.3834 51.3656 29.215 50.1022 27.9497 50.1022Z" fill="black"/>
</svg>
