<svg width="301" height="215" viewBox="0 0 301 215" fill="none" xmlns="http://www.w3.org/2000/svg">
<path d="M295.549 189.841H190.348V197.939H108.481V189.841H7.28753C3.30381 189.841 0.8125 191.608 0.8125 195.711C0.8125 202.671 8.18986 215 20.6848 215H282.152C292.874 215 300.813 202.671 300.813 195.711C300.813 190.52 298.389 189.841 295.549 189.841Z" fill="black"/>
<path d="M86.9281 144.841C94.1891 150.676 103.622 153.768 114.19 153.768H189.101C213.461 153.768 230.375 140.371 233.251 118.813C235.126 104.71 230.007 95.459 225.388 90.1811C219.062 82.953 209.624 78.6357 200.145 78.6357C198.541 78.6357 196.968 78.768 195.446 79.0168C193.422 70.0368 189.158 62.5374 182.912 57.0452C175.856 50.8517 166.408 47.4355 156.313 47.4355H156.308C143.326 47.4355 130.741 52.9859 122.649 62.294C117.152 68.6105 114.014 76.1535 113.34 84.4561C111.713 84.1888 110.039 84.0459 108.364 84.0459C99.0513 84.0459 89.5994 88.3394 83.0728 95.5344C76.5276 102.744 73.4449 112.106 74.3948 121.901C75.272 130.905 79.7241 139.049 86.9281 144.841ZM108.355 90.3346C112.343 90.3346 116.299 91.3084 119.891 93.3976C116.427 68.6687 136.642 53.7242 156.313 53.7295C172.601 53.7295 188.527 63.973 190.35 87.3814C193.136 85.7395 196.538 84.9337 200.145 84.9337C213.619 84.9337 229.907 96.2555 227.011 117.984C224.506 136.788 209.858 147.474 189.101 147.474H114.19C95.2674 147.474 82.1003 136.105 80.6635 121.29C78.9118 103.264 93.7935 90.3346 108.355 90.3346" fill="black"/>
<path d="M36.5382 184.165C39.5349 184.165 261.966 184.145 265.44 184.145C274.308 184.145 280.998 176.931 280.998 168.072V16.0652C280.998 7.20439 273.788 7.20807e-05 264.909 7.20807e-05H37.9168C29.0576 7.20807e-05 21.8337 7.20439 21.8337 16.0652V168.072C21.8337 176.931 28.7665 184.165 36.5382 184.165ZM151.435 2.42401C156.235 2.42401 160.133 6.31659 160.133 11.1406C160.133 15.9409 156.235 19.8388 151.435 19.8388C146.611 19.8388 142.717 15.9409 142.717 11.1406C142.717 6.31659 146.611 2.42401 151.435 2.42401ZM33.0321 27.2535C33.0321 24.557 35.2019 22.358 37.9168 22.358H264.909C267.639 22.358 269.818 24.557 269.818 27.2535V168.072C269.818 170.782 267.639 172.966 264.909 172.966H37.9168C35.2019 172.966 33.0321 170.782 33.0321 168.072V27.2535Z" fill="black"/>
<path d="M151.433 15.0145C153.571 15.0145 155.307 13.2879 155.307 11.1406C155.307 8.9933 153.571 7.24687 151.433 7.24687C149.272 7.24687 147.54 8.9933 147.54 11.1406C147.54 13.2879 149.272 15.0145 151.433 15.0145Z" fill="black"/>
</svg>
