<svg width="200" height="173" viewBox="0 0 200 173" fill="none" xmlns="http://www.w3.org/2000/svg">
<path d="M35.035 171.303H12.4998V170.142H14.7534V142.185H12.4998V141.024H34.8347V150.713H33.2322L32.9818 149.603C32.5812 147.82 32.0637 146.239 31.4294 144.859C30.8285 143.48 30.2943 142.706 29.8269 142.538C29.3929 142.37 28.8587 142.269 28.2244 142.235C27.6235 142.201 26.8389 142.185 25.8707 142.185H22.4153V154.952H24.5186C24.986 154.952 25.4367 154.818 25.8707 154.549C26.3047 154.246 26.6887 153.657 27.0225 152.782C27.3898 151.874 27.6568 150.831 27.8238 149.653L27.9239 148.997H29.1258V162.068H28.0241L27.8739 161.21C27.6068 159.931 27.2395 158.771 26.7721 157.728C26.3047 156.651 25.5869 156.113 24.6188 156.113H22.4153V170.142H26.4717C27.3731 170.142 28.1409 170.109 28.7753 170.041C29.443 169.94 29.9271 169.772 30.2275 169.537C30.8619 169.032 31.4795 167.854 32.0804 166.004C32.4143 164.995 32.7815 163.498 33.1821 161.513L33.4826 160.15H35.035V171.303Z" fill="black"/>
<path d="M64.1915 156.214C64.1915 158.905 63.841 161.176 63.1399 163.027C62.4388 164.843 61.1534 166.559 59.2838 168.174C57.7481 169.486 56.0288 170.361 54.1258 170.798C52.6902 171.135 50.7038 171.303 48.1665 171.303H37.4497V170.142H39.7533V142.185H37.4497V141.024H48.3668C50.3699 141.024 52.2061 141.209 53.8754 141.579C55.5447 141.949 56.9302 142.471 58.0319 143.143C60.3021 144.59 61.9213 146.44 62.8895 148.695C63.7575 150.68 64.1915 153.186 64.1915 156.214ZM55.8785 155.507C55.8785 151.302 55.6448 148.425 55.1774 146.878C54.2426 143.749 52.2395 142.185 49.168 142.185H47.3652V170.142H49.6187C52.4565 170.142 54.3094 168.393 55.1774 164.894C55.6448 163.01 55.8785 159.881 55.8785 155.507Z" fill="black"/>
<path d="M79.0096 171.303H66.7905V170.142H69.0941V142.185H66.7905V141.024H79.0096V142.185H76.706V170.142H79.0096V171.303Z" fill="black"/>
<path d="M103.555 150.764H101.952L101.451 148.039C101.251 147.063 100.951 146.02 100.55 144.91C100.049 143.598 99.6151 142.841 99.2479 142.639C98.914 142.437 98.5802 142.319 98.2463 142.286C97.9125 142.218 97.4618 142.185 96.8942 142.185H95.9928V170.142H98.2463V171.303H86.0273V170.142H88.3309V142.185H87.129C86.4613 142.185 85.8937 142.319 85.4263 142.588C84.9589 142.857 84.4915 143.564 84.0241 144.708C83.6903 145.515 83.4065 146.491 83.1728 147.635L82.5218 150.764H81.0194V141.024H103.555V150.764Z" fill="black"/>
<path d="M132.296 155.356C132.296 160.234 131.144 164.204 128.841 167.266C126.537 170.294 123.366 171.808 119.326 171.808C115.386 171.808 112.181 170.26 109.711 167.165C107.24 164.07 106.005 160.217 106.005 155.608C106.005 151.638 107.19 148.156 109.561 145.162C112.065 142 115.169 140.418 118.875 140.418C122.681 140.418 125.869 141.798 128.44 144.556C131.011 147.315 132.296 150.915 132.296 155.356ZM123.583 155.053C123.583 150.747 123.399 147.736 123.032 146.02C122.397 142.958 121.045 141.428 118.975 141.428C117.273 141.428 116.088 142.807 115.42 145.566C114.986 147.382 114.769 149.906 114.769 153.136C114.769 153.64 114.769 154.128 114.769 154.599C114.769 155.07 114.785 155.507 114.819 155.911C114.819 160.991 115.003 164.423 115.37 166.206C116.004 169.234 117.34 170.748 119.376 170.748C121.713 170.748 123.048 168.696 123.382 164.591C123.516 162.943 123.583 159.763 123.583 155.053Z" fill="black"/>
<path d="M162.087 171.303H152.422L144.61 155.255H146.312C148.449 155.255 149.985 154.633 150.92 153.388C151.721 152.311 152.121 150.814 152.121 148.896C152.121 146.642 151.838 145.061 151.27 144.153C150.435 142.841 148.8 142.185 146.362 142.185H144.409V170.142H147.264V171.303H134.494V170.142H136.797V142.185H134.494V141.024H150.218C153.29 141.024 155.61 141.579 157.179 142.689C158.982 143.968 159.883 145.852 159.883 148.341C159.883 150.595 159.199 152.261 157.83 153.337C157.029 153.977 155.677 154.549 153.774 155.053L152.422 155.406L160.184 170.142H162.087V171.303Z" fill="black"/>
<path d="M187.423 171.303H164.888V170.142H167.142V142.185H164.888V141.024H187.223V150.713H185.621L185.37 149.603C184.97 147.82 184.452 146.239 183.818 144.859C183.217 143.48 182.683 142.706 182.215 142.538C181.781 142.37 181.247 142.269 180.613 142.235C180.012 142.201 179.227 142.185 178.259 142.185H174.804V154.952H176.907C177.374 154.952 177.825 154.818 178.259 154.549C178.693 154.246 179.077 153.657 179.411 152.782C179.778 151.874 180.045 150.831 180.212 149.653L180.312 148.997H181.514V162.068H180.413L180.262 161.21C179.995 159.931 179.628 158.771 179.161 157.728C178.693 156.651 177.975 156.113 177.007 156.113H174.804V170.142H178.86C179.762 170.142 180.529 170.109 181.164 170.041C181.831 169.94 182.316 169.772 182.616 169.537C183.25 169.032 183.868 167.854 184.469 166.004C184.803 164.995 185.17 163.498 185.571 161.513L185.871 160.15H187.423V171.303Z" fill="black"/>
<path d="M32.7511 134.479H19.5305V133.319H22.8356V106.572L14.2222 134.479H11.9687L3.40532 106.118V133.319H6.91079V134.479H0V133.319H2.25352V105.361H0V104.2H10.3662L16.1753 124.235L22.3849 104.2H32.7511V105.361H30.4976V133.319H32.7511V134.479Z" fill="black"/>
<path d="M61.8882 134.479H48.8679V133.319H52.173L48.918 122.67H41.6066L38.4516 133.319H42.3577V134.479H35.3468V133.319H37.1997L45.9634 104.2H50.871L60.1355 133.319H61.8882V134.479ZM48.6676 121.611L45.3624 110.256L41.907 121.611H48.6676Z" fill="black"/>
<path d="M90.5421 121.813H88.2886V131.805L86.2354 132.965C84.9668 133.672 83.6814 134.177 82.3794 134.479C81.0774 134.816 79.6418 134.984 78.0727 134.984C74.0664 134.984 70.828 133.487 68.3575 130.493C65.9204 127.465 64.7018 123.562 64.7018 118.785C64.7018 114.175 66.0539 110.458 68.7581 107.632C71.3288 104.94 74.5004 103.595 78.273 103.595C80.1426 103.595 81.6115 103.645 82.6799 103.746C83.7482 103.847 84.9 104.082 86.1352 104.453L87.2871 104.755V113.688H85.9349L83.9318 108.237C83.4644 106.959 82.8635 106.017 82.129 105.411C81.3945 104.806 80.5098 104.503 79.4748 104.503C79.3079 104.503 78.9908 104.537 78.5234 104.604C76.3533 104.94 74.8677 106.908 74.0664 110.508C73.5322 112.863 73.2652 116.177 73.2652 120.45C73.2652 124.252 73.4154 126.96 73.7159 128.575C74.3836 132.175 75.7524 133.975 77.8223 133.975C78.1561 133.975 78.4065 133.958 78.5734 133.924C79.5416 133.756 80.1926 133.15 80.5265 132.107C80.7268 131.468 80.827 130.425 80.827 128.979V121.813H77.8723V120.803H90.5421V121.813Z" fill="black"/>
<path d="M118.926 121.813H116.672V131.805L114.619 132.965C113.35 133.672 112.065 134.177 110.763 134.479C109.461 134.816 108.025 134.984 106.456 134.984C102.45 134.984 99.2116 133.487 96.7411 130.493C94.3039 127.465 93.0854 123.562 93.0854 118.785C93.0854 114.175 94.4375 110.458 97.1417 107.632C99.7124 104.94 102.884 103.595 106.657 103.595C108.526 103.595 109.995 103.645 111.063 103.746C112.132 103.847 113.284 104.082 114.519 104.453L115.671 104.755V113.688H114.318L112.315 108.237C111.848 106.959 111.247 106.017 110.513 105.411C109.778 104.806 108.893 104.503 107.858 104.503C107.691 104.503 107.374 104.537 106.907 104.604C104.737 104.94 103.251 106.908 102.45 110.508C101.916 112.863 101.649 116.177 101.649 120.45C101.649 124.252 101.799 126.96 102.099 128.575C102.767 132.175 104.136 133.975 106.206 133.975C106.54 133.975 106.79 133.958 106.957 133.924C107.925 133.756 108.576 133.15 108.91 132.107C109.11 131.468 109.211 130.425 109.211 128.979V121.813H106.256V120.803H118.926V121.813Z" fill="black"/>
<path d="M133.638 134.479H121.419V133.319H123.722V105.361H121.419V104.2H133.638V105.361H131.334V133.319H133.638V134.479Z" fill="black"/>
<path d="M162.189 118.532C162.189 123.411 161.037 127.381 158.734 130.442C156.43 133.47 153.259 134.984 149.219 134.984C145.279 134.984 142.074 133.436 139.604 130.341C137.133 127.246 135.898 123.394 135.898 118.785C135.898 114.815 137.083 111.333 139.454 108.338C141.958 105.176 145.062 103.595 148.768 103.595C152.574 103.595 155.763 104.974 158.333 107.733C160.904 110.492 162.189 114.091 162.189 118.532ZM153.476 118.23C153.476 113.923 153.292 110.912 152.925 109.196C152.29 106.135 150.938 104.604 148.868 104.604C147.166 104.604 145.981 105.983 145.313 108.742C144.879 110.559 144.662 113.082 144.662 116.312C144.662 116.816 144.662 117.304 144.662 117.775C144.662 118.246 144.679 118.684 144.712 119.087C144.712 124.168 144.896 127.599 145.263 129.382C145.897 132.41 147.233 133.924 149.269 133.924C151.606 133.924 152.941 131.872 153.275 127.767C153.409 126.119 153.476 122.94 153.476 118.23Z" fill="black"/>
<path d="M185.219 134.479H164.287V133.319H166.54V105.361H164.287V104.2H177.507V105.361H174.202V133.319H177.307C177.808 133.319 178.208 133.319 178.509 133.319C178.976 133.319 179.344 133.302 179.611 133.268C179.911 133.235 180.178 133.117 180.412 132.915C181.547 132.04 182.532 129.147 183.367 124.235L183.667 122.57H185.219V134.479Z" fill="black"/>
<path d="M200 134.479H187.781V133.319H190.085V105.361H187.781V104.2H200V105.361H197.696V133.319H200V134.479Z" fill="black"/>
<path d="M1.6886 48.3143V2.41382H15.1687H28.6487V48.3143V94.2148H15.1687H1.6886V48.3143V48.3143Z" fill="black"/>
<path d="M36.186 48.3143V2.41382H49.6661H63.1461V48.3143V94.2148H49.6661H36.186V48.3143V48.3143Z" fill="black"/>
<path d="M70.3137 48.3143V2.41382H83.7938H97.2738V48.3143V94.2148H83.7938H70.3137V48.3143Z" fill="black"/>
<path d="M104.832 81.2473V68.4498H151.756H198.681V81.2473V94.0448H151.756H104.832V81.2473Z" fill="black"/>
<path d="M104.832 48.2544V35.4569H151.756H198.681V48.2544V61.052H151.756H104.832V48.2544Z" fill="black"/>
<path d="M104.832 15.4931V2.69556H151.756H198.681V15.4931V28.2906H151.756H104.832V15.4931Z" fill="black"/>
</svg>
