<svg width="200" height="174" viewBox="0 0 200 174" fill="none" xmlns="http://www.w3.org/2000/svg">
<path d="M35.035 171.717H12.4998V170.556H14.7534V142.598H12.4998V141.438H34.8347V151.127H33.2322L32.9818 150.017C32.5812 148.234 32.0637 146.652 31.4294 145.273C30.8285 143.894 30.2943 143.12 29.8269 142.952C29.3929 142.783 28.8587 142.682 28.2244 142.649C27.6235 142.615 26.8389 142.598 25.8707 142.598H22.4153V155.366H24.5186C24.986 155.366 25.4367 155.231 25.8707 154.962C26.3047 154.659 26.6887 154.071 27.0225 153.196C27.3898 152.288 27.6568 151.245 27.8238 150.067L27.9239 149.411H29.1258V162.481H28.0241L27.8739 161.624C27.6068 160.345 27.2395 159.184 26.7721 158.142C26.3047 157.065 25.5869 156.527 24.6188 156.527H22.4153V170.556H26.4717C27.3731 170.556 28.1409 170.522 28.7753 170.455C29.443 170.354 29.9271 170.186 30.2275 169.95C30.8619 169.446 31.4795 168.268 32.0804 166.418C32.4143 165.408 32.7815 163.911 33.1821 161.926L33.4826 160.564H35.035V171.717Z" fill="white"/>
<path d="M64.1915 156.628C64.1915 159.319 63.841 161.59 63.1399 163.44C62.4388 165.257 61.1534 166.973 59.2838 168.588C57.7481 169.9 56.0288 170.775 54.1258 171.212C52.6902 171.548 50.7038 171.717 48.1665 171.717H37.4497V170.556H39.7533V142.598H37.4497V141.438H48.3668C50.3699 141.438 52.2061 141.623 53.8754 141.993C55.5447 142.363 56.9302 142.884 58.0319 143.557C60.3021 145.004 61.9213 146.854 62.8895 149.108C63.7575 151.093 64.1915 153.6 64.1915 156.628ZM55.8785 155.921C55.8785 151.716 55.6448 148.839 55.1774 147.292C54.2426 144.163 52.2395 142.598 49.168 142.598H47.3652V170.556H49.6187C52.4565 170.556 54.3094 168.806 55.1774 165.308C55.6448 163.424 55.8785 160.295 55.8785 155.921Z" fill="white"/>
<path d="M79.0096 171.717H66.7905V170.556H69.0941V142.598H66.7905V141.438H79.0096V142.598H76.706V170.556H79.0096V171.717Z" fill="white"/>
<path d="M103.555 151.177H101.952L101.451 148.452C101.251 147.477 100.951 146.434 100.55 145.323C100.049 144.011 99.6151 143.254 99.2479 143.052C98.914 142.851 98.5802 142.733 98.2463 142.699C97.9125 142.632 97.4618 142.598 96.8942 142.598H95.9928V170.556H98.2463V171.717H86.0273V170.556H88.3309V142.598H87.129C86.4613 142.598 85.8937 142.733 85.4263 143.002C84.9589 143.271 84.4915 143.978 84.0241 145.122C83.6903 145.929 83.4065 146.905 83.1728 148.049L82.5218 151.177H81.0194V141.438H103.555V151.177Z" fill="white"/>
<path d="M132.296 155.77C132.296 160.648 131.144 164.618 128.841 167.679C126.537 170.707 123.366 172.221 119.326 172.221C115.386 172.221 112.181 170.674 109.711 167.578C107.24 164.483 106.005 160.631 106.005 156.022C106.005 152.052 107.19 148.57 109.561 145.576C112.065 142.413 115.169 140.832 118.875 140.832C122.681 140.832 125.869 142.211 128.44 144.97C131.011 147.729 132.296 151.329 132.296 155.77ZM123.583 155.467C123.583 151.161 123.399 148.149 123.032 146.434C122.397 143.372 121.045 141.841 118.975 141.841C117.273 141.841 116.088 143.221 115.42 145.979C114.986 147.796 114.769 150.319 114.769 153.549C114.769 154.054 114.769 154.542 114.769 155.013C114.769 155.484 114.785 155.921 114.819 156.325C114.819 161.405 115.003 164.837 115.37 166.62C116.004 169.648 117.34 171.161 119.376 171.161C121.713 171.161 123.048 169.109 123.382 165.005C123.516 163.356 123.583 160.177 123.583 155.467Z" fill="white"/>
<path d="M162.087 171.717H152.422L144.61 155.669H146.312C148.449 155.669 149.985 155.046 150.92 153.802C151.721 152.725 152.121 151.228 152.121 149.31C152.121 147.056 151.838 145.475 151.27 144.566C150.435 143.254 148.8 142.598 146.362 142.598H144.409V170.556H147.264V171.717H134.494V170.556H136.797V142.598H134.494V141.438H150.218C153.29 141.438 155.61 141.993 157.179 143.103C158.982 144.381 159.883 146.265 159.883 148.755C159.883 151.009 159.199 152.674 157.83 153.751C157.029 154.39 155.677 154.962 153.774 155.467L152.422 155.82L160.184 170.556H162.087V171.717Z" fill="white"/>
<path d="M187.423 171.717H164.888V170.556H167.142V142.598H164.888V141.438H187.223V151.127H185.621L185.37 150.017C184.97 148.234 184.452 146.652 183.818 145.273C183.217 143.894 182.683 143.12 182.215 142.952C181.781 142.783 181.247 142.682 180.613 142.649C180.012 142.615 179.227 142.598 178.259 142.598H174.804V155.366H176.907C177.374 155.366 177.825 155.231 178.259 154.962C178.693 154.659 179.077 154.071 179.411 153.196C179.778 152.288 180.045 151.245 180.212 150.067L180.312 149.411H181.514V162.481H180.413L180.262 161.624C179.995 160.345 179.628 159.184 179.161 158.142C178.693 157.065 177.975 156.527 177.007 156.527H174.804V170.556H178.86C179.762 170.556 180.529 170.522 181.164 170.455C181.831 170.354 182.316 170.186 182.616 169.95C183.25 169.446 183.868 168.268 184.469 166.418C184.803 165.408 185.17 163.911 185.571 161.926L185.871 160.564H187.423V171.717Z" fill="white"/>
<path d="M32.7511 134.893H19.5305V133.732H22.8356V106.986L14.2222 134.893H11.9687L3.40532 106.532V133.732H6.91079V134.893H0V133.732H2.25352V105.775H0V104.614H10.3662L16.1753 124.649L22.3849 104.614H32.7511V105.775H30.4976V133.732H32.7511V134.893Z" fill="white"/>
<path d="M61.8882 134.893H48.8679V133.732H52.173L48.918 123.084H41.6066L38.4516 133.732H42.3577V134.893H35.3468V133.732H37.1997L45.9634 104.614H50.871L60.1355 133.732H61.8882V134.893ZM48.6676 122.024L45.3624 110.67L41.907 122.024H48.6676Z" fill="white"/>
<path d="M90.5421 122.226H88.2886V132.218L86.2354 133.379C84.9668 134.086 83.6814 134.59 82.3794 134.893C81.0774 135.229 79.6418 135.398 78.0727 135.398C74.0664 135.398 70.828 133.901 68.3575 130.906C65.9204 127.878 64.7018 123.976 64.7018 119.198C64.7018 114.589 66.0539 110.872 68.7581 108.046C71.3288 105.354 74.5004 104.008 78.273 104.008C80.1426 104.008 81.6115 104.059 82.6799 104.16C83.7482 104.261 84.9 104.496 86.1352 104.866L87.2871 105.169V114.101H85.9349L83.9318 108.651C83.4644 107.373 82.8635 106.431 82.129 105.825C81.3945 105.219 80.5098 104.917 79.4748 104.917C79.3079 104.917 78.9908 104.95 78.5234 105.018C76.3533 105.354 74.8677 107.322 74.0664 110.922C73.5322 113.277 73.2652 116.591 73.2652 120.864C73.2652 124.665 73.4154 127.374 73.7159 128.989C74.3836 132.588 75.7524 134.388 77.8223 134.388C78.1561 134.388 78.4065 134.372 78.5734 134.338C79.5416 134.17 80.1926 133.564 80.5265 132.521C80.7268 131.882 80.827 130.839 80.827 129.392V122.226H77.8723V121.217H90.5421V122.226Z" fill="white"/>
<path d="M118.926 122.226H116.672V132.218L114.619 133.379C113.35 134.086 112.065 134.59 110.763 134.893C109.461 135.229 108.025 135.398 106.456 135.398C102.45 135.398 99.2116 133.901 96.7411 130.906C94.3039 127.878 93.0854 123.976 93.0854 119.198C93.0854 114.589 94.4375 110.872 97.1417 108.046C99.7124 105.354 102.884 104.008 106.657 104.008C108.526 104.008 109.995 104.059 111.063 104.16C112.132 104.261 113.284 104.496 114.519 104.866L115.671 105.169V114.101H114.318L112.315 108.651C111.848 107.373 111.247 106.431 110.513 105.825C109.778 105.219 108.893 104.917 107.858 104.917C107.691 104.917 107.374 104.95 106.907 105.018C104.737 105.354 103.251 107.322 102.45 110.922C101.916 113.277 101.649 116.591 101.649 120.864C101.649 124.665 101.799 127.374 102.099 128.989C102.767 132.588 104.136 134.388 106.206 134.388C106.54 134.388 106.79 134.372 106.957 134.338C107.925 134.17 108.576 133.564 108.91 132.521C109.11 131.882 109.211 130.839 109.211 129.392V122.226H106.256V121.217H118.926V122.226Z" fill="white"/>
<path d="M133.638 134.893H121.419V133.732H123.722V105.775H121.419V104.614H133.638V105.775H131.334V133.732H133.638V134.893Z" fill="white"/>
<path d="M162.189 118.946C162.189 123.824 161.037 127.794 158.734 130.856C156.43 133.884 153.259 135.398 149.219 135.398C145.279 135.398 142.074 133.85 139.604 130.755C137.133 127.66 135.898 123.807 135.898 119.198C135.898 115.228 137.083 111.746 139.454 108.752C141.958 105.59 145.062 104.008 148.768 104.008C152.574 104.008 155.763 105.388 158.333 108.146C160.904 110.905 162.189 114.505 162.189 118.946ZM153.476 118.643C153.476 114.337 153.292 111.326 152.925 109.61C152.29 106.548 150.938 105.018 148.868 105.018C147.166 105.018 145.981 106.397 145.313 109.156C144.879 110.973 144.662 113.496 144.662 116.726C144.662 117.23 144.662 117.718 144.662 118.189C144.662 118.66 144.679 119.097 144.712 119.501C144.712 124.581 144.896 128.013 145.263 129.796C145.897 132.824 147.233 134.338 149.269 134.338C151.606 134.338 152.941 132.286 153.275 128.181C153.409 126.533 153.476 123.353 153.476 118.643Z" fill="white"/>
<path d="M185.219 134.893H164.287V133.732H166.54V105.775H164.287V104.614H177.507V105.775H174.202V133.732H177.307C177.808 133.732 178.208 133.732 178.509 133.732C178.976 133.732 179.344 133.715 179.611 133.682C179.911 133.648 180.178 133.53 180.412 133.329C181.547 132.454 182.532 129.561 183.367 124.649L183.667 122.983H185.219V134.893Z" fill="white"/>
<path d="M200 134.893H187.781V133.732H190.085V105.775H187.781V104.614H200V105.775H197.696V133.732H200V134.893Z" fill="white"/>
<path d="M1.6886 48.7281V2.82764H15.1687H28.6487V48.7281V94.6287H15.1687H1.6886V48.7282V48.7281Z" fill="white"/>
<path d="M36.186 48.7281V2.82764H49.6661H63.1461V48.7281V94.6287H49.6661H36.186V48.7282V48.7281Z" fill="white"/>
<path d="M70.3137 48.7281V2.82764H83.7938H97.2738V48.7281V94.6287H83.7938H70.3137V48.7281Z" fill="white"/>
<path d="M104.832 81.6613V68.8638H151.756H198.681V81.6613V94.4588H151.756H104.832V81.6613Z" fill="white"/>
<path d="M104.832 48.6684V35.8708H151.756H198.681V48.6684V61.4659H151.756H104.832V48.6684Z" fill="white"/>
<path d="M104.832 15.9069V3.10938H151.756H198.681V15.9069V28.7044H151.756H104.832V15.9069Z" fill="white"/>
</svg>
