<svg width="24" height="24" viewBox="0 0 24 24" fill="none" xmlns="http://www.w3.org/2000/svg">
  <path id="head" fill-rule="evenodd" clip-rule="evenodd" d="M16.0346 3C16.7312 3.00015 17.3775 3.36269 17.7407 3.95703L22.019 10.957C22.4101 11.5972 22.4101 12.4028 22.019 13.043L17.7407 20.043C17.3775 20.6373 16.7312 20.9998 16.0346 21H8.27781C7.58108 21 6.93409 20.6375 6.57078 20.043L2.29344 13.043C1.90219 12.4027 1.90219 11.5973 2.29344 10.957L6.57078 3.95703C6.93409 3.36252 7.58108 3 8.27781 3H16.0346Z" fill="#E1D1FD"/>
  <path id="hand-think" d="M6 15C6.55228 15 7 15.4477 7 16V17H13C13.5523 17 14 17.4477 14 18C14 18.5523 13.5523 19 13 19H10.3818C11.1252 19 11.6088 19.7824 11.2764 20.4473L10.2764 22.4473C10.107 22.786 9.76059 23 9.38184 23H6V22.9541L5.85742 23H4V19L5 17V15H6Z" fill="#A472F9"/>
  <path id="left-eye" d="M8 8H10V12H8V8Z" fill="#570ADC"/>
  <path id="right-eye" d="M14 8H16V12H14V8Z" fill="#570ADC"/>
  <path id="mouth" d="M16.707 15.707C15.4771 16.937 13.6985 17.5 12 17.5C10.3015 17.5 8.52294 16.937 7.29297 15.707L8.70703 14.293C9.47706 15.063 10.6985 15.5 12 15.5C13.3015 15.5 14.5229 15.063 15.293 14.293L16.707 15.707Z" fill="#A472F9"/>
  <path id="mouth-smile" d="M16 14H8C8.33333 15.3333 9 18 12 18C15 18 15.6667 15.3333 16 14Z" fill="#A472F9"/>
  <path id="mouth-serious" d="M8 14H16V16H8V14Z" fill="#A472F9"/>
</svg>
