<svg width="24" height="24" viewBox="0 0 24 24" fill="none" xmlns="http://www.w3.org/2000/svg">
  <g id="head-default">
    <path id="head-border" fill-rule="evenodd" clip-rule="evenodd" d="M15.8188 3C16.5046 3.00015 17.141 3.36269 17.4986 3.95703L21.7112 10.957C22.0963 11.5972 22.0963 12.4028 21.7112 13.043L17.4986 20.043C17.141 20.6373 16.5046 20.9998 15.8188 21H8.18127C7.49525 21 6.85822 20.6375 6.50049 20.043L2.28892 13.043C1.90369 12.4027 1.90369 11.5973 2.28892 10.957L6.50049 3.95703C6.85822 3.36252 7.49525 3 8.18127 3H15.8188Z" stroke="var(--mds-emoji-mia-head-stroke-color, rgb(194 160 251))" stroke-width="var(--mds-emoji-mia-head-stroke-width, 2px)"/>
    <path id="head-path" fill-rule="evenodd" clip-rule="evenodd" d="M15.8188 3C16.5046 3.00015 17.141 3.36269 17.4986 3.95703L21.7112 10.957C22.0963 11.5972 22.0963 12.4028 21.7112 13.043L17.4986 20.043C17.141 20.6373 16.5046 20.9998 15.8188 21H8.18127C7.49525 21 6.85822 20.6375 6.50049 20.043L2.28892 13.043C1.90369 12.4027 1.90369 11.5973 2.28892 10.957L6.50049 3.95703C6.85822 3.36252 7.49525 3 8.18127 3H15.8188Z" fill="var(--mds-emoji-mia-head-color, rgb(224 207 253))"/>
  </g>
  <g id="eyes-default">
    <path id="left-eye" d="M8 8H10V12H8V8Z" fill="var(--mds-emoji-mia-eyes-color, rgb(81 9 207))"/>
    <path id="right-eye" d="M14 8H16V12H14V8Z" fill="var(--mds-emoji-mia-eyes-color, rgb(81 9 207))"/>
  </g>
  <g id="eyes-closed">
    <path id="left-eye-closed" d="M7 9H10V11H7V9Z" fill="var(--mds-emoji-mia-eyes-color, rgb(81 9 207))"/>
    <path id="right-eye-closed" d="M14 9H17V11H14V9Z" fill="var(--mds-emoji-mia-eyes-color, rgb(81 9 207))"/>
  </g>
  <path id="mouth-default" d="M16.707 15.707C15.4771 16.937 13.6985 17.5 12 17.5C10.3015 17.5 8.52294 16.937 7.29297 15.707L8.70703 14.293C9.47706 15.063 10.6985 15.5 12 15.5C13.3015 15.5 14.5229 15.063 15.293 14.293L16.707 15.707Z" fill="var(--mds-emoji-mia-mouth-color, rgb(98 12 245))"/>
  <path id="mouth-smile" d="M16 14H8C8.33333 15.3333 9 18 12 18C15 18 15.6667 15.3333 16 14Z" fill="var(--mds-emoji-mia-mouth-color, rgb(98 12 245))"/>
  <path id="mouth-serious" d="M8 15H16V17H8V15Z" fill="var(--mds-emoji-mia-mouth-color, rgb(98 12 245))"/>
  <path id="hand-think" d="M6 14C6.55228 14 7 14.4477 7 15V16H13C13.5523 16 14 16.4477 14 17C14 17.5523 13.5523 18 13 18H10.3818C11.1252 18 11.6088 18.7824 11.2764 19.4473L10.2764 21.4473C10.107 21.786 9.76059 22 9.38184 22H4V18L5 16V14H6Z" fill="var(--mds-emoji-mia-hands-color, rgb(164 114 249))"/>
</svg>
