<svg width="440" height="440" viewBox="0 0 440 440" fill="none" xmlns="http://www.w3.org/2000/svg">
  <g id="ears-default">
    <g id="ear-right">
      <path id="ear-right-shape" fill="var(--mds-emoji-simi-skin, #F36320)" d="M363.838 54.3257C339.126 44.6171 278.031 90.7244 256.023 111.557C205.523 159.363 303.523 209.826 358.387 195.099C380.992 189.032 391.095 169.008 388.672 165.367C386.734 162.454 374.135 161.322 368.078 161.12C376.962 129.567 388.551 64.0342 363.838 54.3257Z"/>
      <path id="ear-right-inner-shape" fill="var(--mds-emoji-simi-skin-light, #FEEFD8)" d="M351.676 53.2891C356.294 52.7076 360.415 52.9806 363.838 54.3252C364.658 54.6472 365.437 55.0331 366.178 55.4746C368.347 56.9073 370.299 58.8573 372.053 61.2344C385.423 81.3621 375.744 133.891 368.078 161.119C374.135 161.321 386.734 162.455 388.672 165.367C391.094 169.008 380.992 189.032 358.387 195.1C357.17 195.426 355.929 195.687 354.667 195.888C317.523 201.796 244.693 161.119 265.859 130.788C281.528 108.336 324.274 59.2313 351.676 53.2891Z"/>
      <path id="ear-right-hole" fill="var(--mds-emoji-simi-skin-dark, #C3481B)" d="M350.023 84.8079C329.105 90.1196 311.307 114.384 305.023 125.853C299.251 136.387 303.53 147.927 311.277 155C320.553 163.469 334.801 165.535 342.726 151.808C361.778 118.808 355.529 93.3915 350.023 84.8079Z"/>
      <path id="ear-right-outline-border" stroke="var(--mds-emoji-simi-skin-dark, #C3481B)" stroke-width="9" stroke-linecap="round" d="M363.838 54.3257C339.126 44.6171 278.031 90.7244 256.023 111.557C205.523 159.363 303.523 209.826 358.387 195.099C380.992 189.032 391.095 169.008 388.672 165.367C386.734 162.454 374.135 161.322 368.078 161.12C376.962 129.567 388.551 64.0342 363.838 54.3257Z"/>
      <path id="ear-right-border" stroke="var(--mds-emoji-simi-outline, #2B1C15)" stroke-width="7" stroke-linecap="round" d="M349.523 84.5C334.523 89 291.523 121 306.523 149"/>
    </g>
    <g id="ear-left">
      <path id="ear-left-shape" fill="var(--mds-emoji-simi-skin, #F36320)" d="M77.1852 54.3257C101.898 44.6171 162.993 90.7244 185 111.557C235.5 159.363 137.5 209.826 82.6365 195.099C60.0315 189.032 49.9287 169.008 52.3515 165.367C54.2897 162.454 66.8883 161.322 72.9453 161.12C64.0617 129.567 52.4726 64.0342 77.1852 54.3257Z"/>
      <path id="ear-left-inner-shape" fill="var(--mds-emoji-simi-skin-light, #FEEFD8)" d="M89.3476 53.2891C84.7294 52.7076 80.6085 52.9806 77.1855 54.3252C76.3658 54.6472 75.5869 55.0331 74.8457 55.4746C72.6763 56.9073 70.7246 58.8573 68.9707 61.2344C55.6008 81.3621 65.2794 133.891 72.9453 161.119C66.8883 161.321 54.2898 162.455 52.3516 165.367C49.9291 169.008 60.0319 189.032 82.6367 195.1C83.8533 195.426 85.0943 195.687 86.3564 195.888C123.5 201.796 196.33 161.119 175.164 130.788C159.496 108.336 116.75 59.2313 89.3476 53.2891Z"/>
      <path id="ear-left-hole" fill="var(--mds-emoji-simi-skin-dark, #C3481B)" d="M91 84.8079C111.919 90.1196 129.716 114.384 136 125.853C141.772 136.387 137.494 147.927 129.747 155C120.471 163.469 106.223 165.535 98.2973 151.808C79.2451 118.808 85.494 93.3915 91 84.8079Z"/>
      <path id="ear-left-outline-border" stroke="var(--mds-emoji-simi-skin-dark, #C3481B)" stroke-width="9" stroke-linecap="round" d="M77.1852 54.3257C101.898 44.6171 162.993 90.7244 185 111.557C235.5 159.363 137.5 209.826 82.6365 195.099C60.0315 189.032 49.9287 169.008 52.3515 165.367C54.2897 162.454 66.8883 161.322 72.9453 161.12C64.0617 129.567 52.4726 64.0342 77.1852 54.3257Z"/>
      <path id="ear-left-border" stroke="var(--mds-emoji-simi-outline, #2B1C15)" stroke-width="7" stroke-linecap="round" d="M91.5 84.5C106.5 89 149.5 121 134.5 149"/>
    </g>
  </g>
  <g id="head-default">
    <path id="shape-head" fill="var(--mds-emoji-simi-skin, #F36320)" d="M378.732 217.557C340.98 122.357 268.622 107.557 219.909 107.557C171.197 107.557 98.8384 122.357 61.0863 217.557C50.181 245.057 52.6419 250.557 21.1818 271.057C19.6595 281.557 27.7783 295.057 42.4935 297.057C38.7724 298.224 30.5183 300.557 27.2708 300.557C23.2115 300.557 65.1456 387.557 219.909 387.557C374.673 387.557 416.789 300.057 412.729 300.057C409.482 300.057 401.228 297.724 397.507 296.557C412.222 294.557 420.34 281.057 418.818 270.557C387.358 250.057 389.637 245.057 378.732 217.557Z"/>
    <g id="ear-tufts">
      <g id="right-tuft">
        <path id="right-tuft-shape" fill="var(--mds-emoji-simi-skin, #F36320)" d="M336.411 123.628C333.005 118.799 313.911 124.433 304.789 127.853C295.789 132.254 282.34 139.697 296.289 146.057C313.289 153.808 342.492 168.294 342.492 153.808C343.708 143.547 331.749 140.126 326.681 139.321C331.343 136.102 339.816 128.457 336.411 123.628Z"/>
        <path id="right-tuft-outline" stroke="var(--mds-emoji-simi-outline, #2B1C15)" stroke-width="7" stroke-linecap="round" d="M304.789 127.853C313.911 124.433 333.005 118.799 336.411 123.628C339.816 128.457 331.343 136.102 326.681 139.321C331.749 140.126 343.708 143.547 342.492 153.808"/>
      </g>
      <g id="left-tuft">
        <path id="left-tuft-shape" fill="var(--mds-emoji-simi-skin, #F36320)" d="M104.167 122.628C107.573 117.799 126.667 123.433 135.789 126.853C144.789 131.254 158.239 138.697 144.289 145.057C127.289 152.808 98.0863 167.294 98.0863 152.808C96.8701 142.547 108.83 139.126 113.897 138.321C109.235 135.102 100.762 127.457 104.167 122.628Z"/>
        <path id="left-tuft-outline" stroke="var(--mds-emoji-simi-outline, #2B1C15)" stroke-width="7" stroke-linecap="round" d="M135.789 126.853C126.667 123.433 107.573 117.799 104.167 122.628C100.762 127.457 109.235 135.102 113.897 138.321C108.83 139.126 96.8701 142.547 98.0864 152.808"/>
      </g>
    </g>
    <g id="cheeks">
      <path id="right-cheek" fill="var(--mds-emoji-simi-skin-light, #FEEFD8)" d="M380.5 290.057C364 262.557 340 266.355 318 279.057C344.5 305.557 344 327.557 330 361.557C384.8 341.157 386.5 305.39 380.5 290.057Z"/>
      <path id="left-cheek" fill="var(--mds-emoji-simi-skin-light, #FEEFD8)" d="M59.3658 290.057C75.8658 262.557 99.8658 266.355 121.866 279.057C95.3658 305.557 95.8658 327.557 109.866 361.557C55.0658 341.157 53.3658 305.39 59.3658 290.057Z"/>
    </g>
    <path id="chin" fill="var(--mds-emoji-simi-skin-light, #FEEFD8)" d="M220.5 372.557C256.675 372.557 286 352.186 286 327.057C286 301.928 256.675 260.557 220.5 260.557C184.325 260.557 155 301.928 155 327.057C155 352.186 184.325 372.557 220.5 372.557Z"/>
  </g>
  <g id="eyebrows-default">
    <path id="left-eyebrow" fill="var(--mds-emoji-simi-eyebrow, #FEEFD8)" d="M175.248 176.007C177.691 183.997 168.289 189.539 152.865 194.255C137.442 198.97 131.072 201.193 128.629 193.203C126.186 185.212 132.802 175.371 148.226 170.655C163.649 165.94 172.805 168.016 175.248 176.007Z"/>
    <path id="right-eyebrow" fill="var(--mds-emoji-simi-eyebrow, #FEEFD8)" d="M265.189 175.007C262.746 182.997 272.148 188.539 287.572 193.255C302.995 197.97 309.365 200.193 311.808 192.203C314.251 184.212 307.635 174.371 292.211 169.655C276.788 164.94 267.632 167.016 265.189 175.007Z"/>
  </g>
  <g id="eyes-default" style="transform-origin:50% 50%;">
    <g id="right-eye">
      <ellipse id="right-eye-inner-shape" fill="var(--mds-emoji-simi-eye, #40281B)" cx="287.002" cy="249.057" rx="18.5" ry="24.5" transform="rotate(12 287.002 249.057)"/>
      <circle id="right-eye-inner-light" fill="var(--mds-emoji-simi-eye-light, #FFFFFF)" cx="291" cy="242.557" r="6"/>
    </g>
    <g id="left-eye">
      <ellipse id="left-eye-inner-shape" fill="var(--mds-emoji-simi-eye, #40281B)" cx="18.5" cy="24.5" rx="18.5" ry="24.5" transform="matrix(-0.978148 0.207912 0.207912 0.978148 165.139 221.541)"/>
      <circle id="left-eye-inner-light" fill="var(--mds-emoji-simi-eye-light, #FFFFFF)" cx="6" cy="6" r="6" transform="matrix(-1 0 0 1 160.14 236.852)"/>
    </g>
  </g>
  <g id="eyes-closed" style="transform-origin:50% 50%; visibility: hidden;">
    <path id="left-eye-closed" stroke="var(--mds-emoji-simi-eye, #40281B)" stroke-width="12" stroke-linecap="round" d="M125 248.5C137.5 240.5 167.1 241.3 179.5 248.5"/>
    <path id="right-eye-closed" stroke="var(--mds-emoji-simi-eye, #40281B)" stroke-width="12" stroke-linecap="round" d="M315.5 248.5C303 240.5 273.4 241.3 261 248.5"/>
  </g>
  <path id="gadget-default" fill="var(--mds-emoji-simi-gadget, #2B1C15)" fill-rule="evenodd" clip-rule="evenodd" d="M296 186C327.723 186 353.88 209.825 357.557 240.558H367C370.314 240.558 373 243.244 373 246.558C373 249.871 370.314 252.558 367 252.558H357.834C355.501 284.671 328.709 310 296 310C262.189 310 234.7 282.936 234.014 249.289C230.711 246.983 225.885 245.558 220.5 245.558C215.114 245.558 210.288 246.983 206.985 249.289C206.299 282.936 178.811 310 145 310C112.291 310 85.4993 284.671 83.166 252.558H74C70.6864 252.558 68.0002 249.871 68 246.558C68 243.244 70.6863 240.558 74 240.558H83.4434C87.12 209.825 113.277 186 145 186C175.248 186 200.437 207.662 205.9 236.318C210.539 234.42 215.652 233.558 220.5 233.558C225.348 233.558 230.461 234.419 235.099 236.317C240.563 207.661 265.752 186 296 186ZM145 198C117.386 198 95 220.386 95 248C95 275.614 117.386 298 145 298C172.614 298 195 275.614 195 248C195 220.386 172.614 198 145 198ZM296 198C268.386 198 246 220.386 246 248C246 275.614 268.386 298 296 298C323.614 298 346 275.614 346 248C346 220.386 323.614 198 296 198Z"/>
  <g id="mouth-default">
    <path id="muzzle-shape" fill="var(--mds-emoji-simi-skin-light, #FEEFD8)" d="M220.5 328.5C238.5 341 263 324.813 263 307.312C263 289.812 243.972 261 220.5 261C197.028 261 178 289.812 178 307.312C178 324.813 201 341 220.5 328.5Z"/>
    <path id="shape-mouth" fill="var(--mds-emoji-simi-mouth, #2B1C15)" d="M220 298.057C221.933 298.057 223.5 299.624 223.5 301.557V324.914C224.677 325.612 226.31 326.349 228.29 326.949C231.08 327.793 234.312 328.287 237.507 328.095C240.693 327.903 243.74 327.039 246.322 325.27C248.871 323.524 251.171 320.758 252.696 316.401C253.335 314.576 255.332 313.615 257.156 314.253C258.981 314.892 259.942 316.889 259.304 318.713C257.329 324.356 254.159 328.386 250.278 331.044C246.43 333.681 242.086 334.832 237.928 335.083C233.778 335.332 229.713 334.694 226.262 333.649C223.943 332.947 221.784 332.025 220 330.976C218.216 332.025 216.057 332.947 213.738 333.649C210.287 334.694 206.221 335.332 202.072 335.083C197.914 334.832 193.57 333.681 189.722 331.044C185.841 328.386 182.671 324.356 180.696 318.713C180.058 316.889 181.019 314.892 182.844 314.253C184.668 313.615 186.665 314.576 187.304 316.401C188.829 320.758 191.128 323.524 193.678 325.27C196.26 327.039 199.307 327.903 202.493 328.095C205.688 328.287 208.919 327.793 211.71 326.949C213.689 326.35 215.323 325.612 216.5 324.914V301.557C216.5 299.624 218.067 298.057 220 298.057Z"/>
    <g id="nose">
      <path id="node-shape" fill="var(--mds-emoji-simi-nose, #2B1C15)" d="M219.5 273.557C207.626 273.557 198 280.105 198 288.182C198 296.259 207.626 309.557 219.5 309.557C231.374 309.557 241 296.259 241 288.182C241 280.105 231.374 273.557 219.5 273.557Z"/>
      <ellipse id="nose-light" fill="var(--mds-emoji-simi-nose-light, #7E695F)" cx="220" cy="285.557" rx="11" ry="5"/>
    </g>
  </g>
</svg>
