<svg width="440" height="440" viewBox="0 0 440 440" fill="none" xmlns="http://www.w3.org/2000/svg">
  <g id="ears">
    <g id="ear-right">
      <path id="ear-right-shape" d="M366.815 54.3257C342.102 44.6171 281.007 90.7244 259 111.557C259 150.504 322.499 205.532 361.363 195.099C383.969 189.032 394.071 169.008 391.648 165.367C389.71 162.454 377.112 161.322 371.055 161.12C379.938 129.567 391.527 64.0342 366.815 54.3257Z" fill="var(--mds-emoji-simi-skin, #F36320)"/>
      <path id="ear-right-inner-shape" d="M354.652 53.2891C359.271 52.7076 363.392 52.9806 366.814 54.3252C367.634 54.6472 368.413 55.0331 369.154 55.4746C371.324 56.9073 373.275 58.8573 375.029 61.2344C388.399 81.3621 378.721 133.891 371.055 161.119C377.112 161.321 389.71 162.455 391.648 165.367C394.071 169.008 383.968 189.032 361.363 195.1C360.147 195.426 358.906 195.687 357.644 195.888C320.706 191.909 274.961 160.467 268.836 130.788C284.504 108.336 327.25 59.2313 354.652 53.2891Z" fill="var(--mds-emoji-simi-skin-light, #FEEFD8)"/>
      <path id="ear-right-hole" d="M353 84.8079C332.081 90.1196 314.284 114.384 308 125.853C315.5 143.5 325 148.5 345.703 151.808C364.755 118.808 358.506 93.3915 353 84.8079Z" fill="var(--mds-emoji-simi-skin-dark, #C3481B)"/>
      <path id="ear-right-border" d="M341.175 51.9873C350.949 48.6262 360.72 47.0971 368.46 50.1377C376.533 53.3092 381.063 60.8412 383.484 69.4531C385.92 78.1161 386.497 88.7468 386.029 99.7227C385.191 119.39 380.942 141.157 376.837 156.967C379.028 157.156 381.383 157.423 383.616 157.785C385.799 158.139 388.015 158.606 389.895 159.236C390.834 159.551 391.806 159.945 392.69 160.451C393.474 160.899 394.471 161.594 395.243 162.656L395.395 162.874L395.6 163.203C396.557 164.862 396.565 166.678 396.448 167.878C396.308 169.314 395.89 170.83 395.315 172.317C394.158 175.313 392.153 178.75 389.386 182.159C383.834 188.999 374.882 196.13 362.53 199.445C351.587 202.383 339.318 200.628 327.387 196.135C315.409 191.624 303.398 184.217 292.723 175.299C282.044 166.377 272.561 155.824 265.716 144.897C258.906 134.026 254.5 122.449 254.5 111.558V109.621L255.906 108.289C267.123 97.671 288.146 80.7408 309.544 67.6494C320.239 61.1063 331.194 55.4194 341.175 51.9873ZM365.169 58.5137C360.552 56.7003 353.42 57.2939 344.102 60.498C334.989 63.6316 324.66 68.9529 314.241 75.3271C294.319 87.5158 274.672 103.179 263.558 113.457C264.032 121.586 267.493 130.78 273.343 140.119C279.619 150.138 288.439 159.992 298.493 168.392C308.551 176.794 319.701 183.623 330.56 187.713C341.465 191.82 351.708 193.032 360.197 190.753C370.45 188.001 377.852 182.086 382.397 176.487C384.678 173.677 386.158 171.046 386.92 169.073C387.101 168.605 387.229 168.203 387.318 167.87C387.23 167.838 387.136 167.803 387.035 167.77C385.818 167.362 384.142 166.988 382.176 166.669C378.27 166.036 373.806 165.714 370.904 165.617L365.167 165.426L366.723 159.9C371.108 144.325 376.138 120.416 377.037 99.3389C377.488 88.7742 376.884 79.2294 374.82 71.8887C372.742 64.4968 369.452 60.1965 365.169 58.5137Z" fill="var(--mds-emoji-simi-outline, #2B1C15)"/>
      <path id="ear-right-inner-border" d="M352.139 81.4153C354.012 80.9397 355.917 82.0731 356.393 83.9466C356.868 85.8201 355.735 87.7248 353.861 88.2005C344.325 90.6221 335.197 97.4791 327.535 105.448C319.919 113.368 314.077 122.045 311.069 127.534C310.14 129.23 308.014 129.851 306.318 128.922C304.623 127.993 304.002 125.866 304.931 124.171C308.207 118.192 314.406 109.003 322.489 100.596C330.527 92.2371 340.757 84.3055 352.139 81.4153Z" fill="var(--mds-emoji-simi-outline, #2B1C15)"/>
    </g>
    <g id="ear-left">
      <path id="ear-left-shape" d="M74.1852 54.3257C98.8978 44.6171 159.993 90.7244 182 111.557C182 150.504 118.501 205.532 79.6365 195.099C57.0315 189.032 46.9287 169.008 49.3515 165.367C51.2897 162.454 63.8883 161.322 69.9453 161.12C61.0617 129.567 49.4726 64.0342 74.1852 54.3257Z" fill="var(--mds-emoji-simi-skin, #F36320)"/>
      <path id="ear-left-inner-shape" d="M86.3477 53.2891C81.7294 52.7076 77.6085 52.9806 74.1855 54.3252C73.3659 54.6472 72.5869 55.0331 71.8457 55.4746C69.6763 56.9073 67.7246 58.8573 65.9707 61.2344C52.6008 81.3621 62.2794 133.891 69.9453 161.119C63.8883 161.321 51.2898 162.455 49.3516 165.367C46.9291 169.008 57.0319 189.032 79.6367 195.1C80.8533 195.426 82.0943 195.687 83.3564 195.888C120.294 191.909 166.039 160.467 172.164 130.788C156.496 108.336 113.75 59.2313 86.3477 53.2891Z" fill="var(--mds-emoji-simi-skin-light, #FEEFD8)"/>
      <path id="ear-left-hole" d="M88 84.8079C108.919 90.1196 126.716 114.384 133 125.853C125.5 143.5 116 148.5 95.2973 151.808C76.245 118.808 82.494 93.3915 88 84.8079Z" fill="var(--mds-emoji-simi-skin-dark, #C3481B)"/>
      <path id="ear-left-border" d="M99.8252 51.9873C90.0506 48.6262 80.2798 47.0971 72.54 50.1377C64.4672 53.3092 59.937 60.8412 57.5156 69.4531C55.0799 78.1161 54.5026 88.7468 54.9707 99.7227C55.8094 119.39 60.0584 141.157 64.1631 156.967C61.9725 157.156 59.617 157.423 57.3838 157.785C55.2012 158.139 52.985 158.606 51.1055 159.236C50.1659 159.551 49.194 159.945 48.3096 160.451C47.5264 160.899 46.5286 161.594 45.7568 162.656L45.6055 162.874L45.4004 163.203C44.4428 164.862 44.4348 166.678 44.5518 167.878C44.6919 169.314 45.1101 170.83 45.6846 172.317C46.8418 175.313 48.8467 178.75 51.6143 182.159C57.1661 188.999 66.1177 196.13 78.4697 199.445C89.4128 202.383 101.682 200.628 113.613 196.135C125.591 191.624 137.602 184.217 148.277 175.299C158.956 166.377 168.439 155.824 175.284 144.897C182.094 134.026 186.5 122.449 186.5 111.558V109.621L185.094 108.289C173.877 97.671 152.854 80.7408 131.456 67.6494C120.761 61.1063 109.806 55.4194 99.8252 51.9873ZM75.8311 58.5137C80.4475 56.7003 87.5802 57.2939 96.8984 60.498C106.011 63.6316 116.34 68.9529 126.759 75.3271C146.681 87.5158 166.328 103.179 177.442 113.457C176.968 121.586 173.507 130.78 167.657 140.119C161.381 150.138 152.561 159.992 142.507 168.392C132.449 176.794 121.299 183.623 110.44 187.713C99.5348 191.82 89.2918 193.032 80.8027 190.753C70.5502 188.001 63.1476 182.086 58.6025 176.487C56.3217 173.677 54.8421 171.046 54.0801 169.073C53.8992 168.605 53.7713 168.203 53.6816 167.87C53.7701 167.838 53.864 167.803 53.9648 167.77C55.1818 167.362 56.8579 166.988 58.8242 166.669C62.7302 166.036 67.1938 165.714 70.0957 165.617L75.833 165.426L74.2773 159.9C69.8921 144.325 64.8618 120.416 63.9629 99.3389C63.5124 88.7742 64.1157 79.2294 66.1797 71.8887C68.2581 64.4968 71.5476 60.1965 75.8311 58.5137Z" fill="var(--mds-emoji-simi-outline, #2B1C15)"/>
      <path id="ear-left-inner-border" d="M88.8613 81.4153C86.9878 80.9397 85.0831 82.0731 84.6074 83.9466C84.1318 85.8201 85.2652 87.7248 87.1387 88.2005C96.6753 90.6221 105.803 97.4791 113.465 105.448C121.081 113.368 126.923 122.045 129.931 127.534C130.859 129.23 132.986 129.851 134.682 128.922C136.377 127.993 136.998 125.866 136.069 124.171C132.793 118.192 126.594 109.003 118.511 100.596C110.473 92.2371 100.243 84.3055 88.8613 81.4153Z" fill="var(--mds-emoji-simi-outline, #2B1C15)"/>
    </g>
  </g>
  <g id="head">
    <path id="head-shape" d="M378.732 217.557C340.98 122.357 268.622 107.557 219.909 107.557C171.197 107.557 98.8384 122.357 61.0863 217.557C50.181 245.057 52.6419 250.557 21.1818 271.057C19.6595 281.557 27.7783 295.057 42.4935 297.057C38.7724 298.224 30.5183 300.557 27.2708 300.557C23.2115 300.557 65.1456 387.557 219.909 387.557C374.673 387.557 416.789 300.057 412.729 300.057C409.482 300.057 401.228 297.724 397.507 296.557C412.222 294.557 420.34 281.057 418.818 270.557C387.358 250.057 389.637 245.057 378.732 217.557Z" fill="var(--mds-emoji-simi-skin, #F36320)"/>
    <g id="head-ears">
      <path id="right-tuft" d="M339.622 121.628C336.216 116.799 317.122 122.433 308 125.853C299 130.254 285.55 137.697 299.5 144.057C316.5 151.808 345.703 166.294 345.703 151.808C346.919 141.547 334.96 138.126 329.892 137.321C334.554 134.102 343.027 126.457 339.622 121.628Z" fill="var(--mds-emoji-simi-skin, #F36320)"/>
      <path id="right-tuft-outline" d="M308 125.853C317.122 122.433 336.216 116.799 339.622 121.628C343.027 126.457 334.554 134.102 329.892 137.321C334.959 138.126 346.919 141.547 345.703 151.808" stroke="#2B1C15" stroke-width="7" stroke-linecap="round"/>
      <path id="left-tuft" d="M101.378 121.628C104.784 116.799 123.878 122.433 133 125.853C142 130.254 155.45 137.697 141.5 144.057C124.5 151.808 95.2972 166.294 95.2972 151.808C94.081 141.547 106.04 138.126 111.108 137.321C106.446 134.102 97.9729 126.457 101.378 121.628Z" fill="var(--mds-emoji-simi-skin, #F36320)"/>
      <path id="left-tuft-outline" d="M133 125.853C123.878 122.433 104.784 116.799 101.378 121.628C97.973 126.457 106.446 134.102 111.108 137.321C106.041 138.126 94.0811 141.547 95.2973 151.808" stroke="#2B1C15" stroke-width="7" stroke-linecap="round"/>
    </g>
    <g id="cheeks">
      <path id="right-cheek" d="M380.5 290.057C364 262.557 340 266.355 318 279.057C344.5 305.557 344 327.557 330 361.557C384.8 341.157 386.5 305.39 380.5 290.057Z" fill="var(--mds-emoji-simi-skin-light, #FEEFD8)"/>
      <path id="left-cheek" d="M59.3658 290.057C75.8658 262.557 99.8658 266.355 121.866 279.057C95.3658 305.557 95.8658 327.557 109.866 361.557C55.0658 341.157 53.3658 305.39 59.3658 290.057Z" fill="var(--mds-emoji-simi-skin-light, #FEEFD8)"/>
    </g>
  </g>
  <path id="chin" d="M220.5 372.557C256.675 372.557 286 352.186 286 327.057C286 301.928 256.675 260.557 220.5 260.557C184.325 260.557 155 301.928 155 327.057C155 352.186 184.325 372.557 220.5 372.557Z" fill="var(--mds-emoji-simi-skin-light, #FEEFD8)"/>
  <g id="eyes">
    <g id="right-eye">
      <g id="right-eye-outer">
        <ellipse id="right-eye-outer-border" cx="294.746" cy="241.539" rx="40.9764" ry="34.5427" transform="rotate(-35.1475 294.746 241.539)" fill="var(--mds-emoji-simi-skin-dark, #C3481B)"/>
        <ellipse id="right-eye-outer-shape" cx="291.746" cy="245.539" rx="36.7984" ry="31.0207" transform="rotate(-35.1475 291.746 245.539)" fill="var(--mds-emoji-simi-eye-sclera, #FFFFFF)"/>
      </g>
      <g id="right-eye-inner">
        <ellipse id="right-eye-inner-shape" cx="287.002" cy="249.057" rx="18.5" ry="24.5" transform="rotate(12 287.002 249.057)" fill="var(--mds-emoji-simi-eye-iris, #40281B)"/>
        <circle id="right-eye-inner-light" cx="291" cy="242.557" r="6" fill="var(--mds-emoji-simi-eye-light, #FFFFFF)"/>
      </g>
    </g>
    <g id="left-eye">
      <g id="left-eye-outer">
        <ellipse id="left-eye-outer-border" cx="40.9764" cy="34.5427" rx="40.9764" ry="34.5427" transform="matrix(-0.817672 -0.575684 -0.575684 0.817672 197.785 237.179)" fill="var(--mds-emoji-simi-skin-dark, #C3481B)"/>
        <ellipse id="left-eye-outer-shape" cx="36.7984" cy="31.0207" rx="36.7984" ry="31.0207" transform="matrix(-0.817672 -0.575684 -0.575684 0.817672 195.341 241.654)" fill="var(--mds-emoji-simi-eye-sclera, #FFFFFF)"/>
      </g>
      <g id="left-eye-inner">
        <ellipse id="left-eye-inner-shape" cx="18.5" cy="24.5" rx="18.5" ry="24.5" transform="matrix(-0.978148 0.207912 0.207912 0.978148 165.139 221.541)" fill="var(--mds-emoji-simi-eye-iris, #40281B)"/>
        <circle id="left-eye-inner-light" cx="6" cy="6" r="6" transform="matrix(-1 0 0 1 160.14 236.852)" fill="var(--mds-emoji-simi-eye-light, #FFFFFF)"/>
      </g>
    </g>
  </g>
  <g id="eyebrows">
    <path id="left-eyebrow" d="M175.248 176.007C177.691 183.997 168.289 189.539 152.865 194.255C137.442 198.97 131.072 201.193 128.629 193.203C126.186 185.212 132.802 175.371 148.226 170.655C163.649 165.94 172.805 168.016 175.248 176.007Z" fill="var(--mds-emoji-simi-eyebrow, #FEEFD8)"/>
    <path id="right-eyebrow" d="M265.189 175.007C262.746 182.997 272.148 188.539 287.572 193.255C302.995 197.97 309.365 200.193 311.808 192.203C314.251 184.212 307.635 174.371 292.211 169.655C276.788 164.94 267.632 167.016 265.189 175.007Z" fill="var(--mds-emoji-simi-eyebrow, #FEEFD8)"/>
  </g>
  <path id="glasses" fill-rule="evenodd" clip-rule="evenodd" d="M296 186C327.723 186 353.88 209.825 357.557 240.558H367C370.314 240.558 373 243.244 373 246.558C373 249.871 370.314 252.558 367 252.558H357.834C355.501 284.671 328.709 310 296 310C262.189 310 234.7 282.936 234.014 249.289C230.711 246.983 225.885 245.558 220.5 245.558C215.114 245.558 210.288 246.983 206.985 249.289C206.299 282.936 178.811 310 145 310C112.291 310 85.4993 284.671 83.166 252.558H74C70.6864 252.558 68.0002 249.871 68 246.558C68 243.244 70.6863 240.558 74 240.558H83.4434C87.12 209.825 113.277 186 145 186C175.248 186 200.437 207.662 205.9 236.318C210.539 234.42 215.652 233.558 220.5 233.558C225.348 233.558 230.461 234.419 235.099 236.317C240.563 207.661 265.752 186 296 186ZM145 198C117.386 198 95 220.386 95 248C95 275.614 117.386 298 145 298C172.614 298 195 275.614 195 248C195 220.386 172.614 198 145 198ZM296 198C268.386 198 246 220.386 246 248C246 275.614 268.386 298 296 298C323.614 298 346 275.614 346 248C346 220.386 323.614 198 296 198Z" fill="var(--mds-emoji-simi-gadget, #2B1C15)"/>
  <g id="muzzle">
    <path id="muzzle-shape" d="M220.5 328.5C238.5 341 263 324.813 263 307.312C263 289.812 243.972 261 220.5 261C197.028 261 178 289.812 178 307.312C178 324.813 201 341 220.5 328.5Z" fill="var(--mds-emoji-simi-skin-light, #FEEFD8)"/>
    <path id="mouth" d="M220 298.057C221.933 298.057 223.5 299.624 223.5 301.557V324.914C224.677 325.612 226.31 326.349 228.29 326.949C231.08 327.793 234.312 328.287 237.507 328.095C240.693 327.903 243.74 327.039 246.322 325.27C248.871 323.524 251.171 320.758 252.696 316.401C253.335 314.576 255.332 313.615 257.156 314.253C258.981 314.892 259.942 316.889 259.304 318.713C257.329 324.356 254.159 328.386 250.278 331.044C246.43 333.681 242.086 334.832 237.928 335.083C233.778 335.332 229.713 334.694 226.262 333.649C223.943 332.947 221.784 332.025 220 330.976C218.216 332.025 216.057 332.947 213.738 333.649C210.287 334.694 206.221 335.332 202.072 335.083C197.914 334.832 193.57 333.681 189.722 331.044C185.841 328.386 182.671 324.356 180.696 318.713C180.058 316.889 181.019 314.892 182.844 314.253C184.668 313.615 186.665 314.576 187.304 316.401C188.829 320.758 191.128 323.524 193.678 325.27C196.26 327.039 199.307 327.903 202.493 328.095C205.688 328.287 208.919 327.793 211.71 326.949C213.689 326.35 215.323 325.612 216.5 324.914V301.557C216.5 299.624 218.067 298.057 220 298.057Z" fill="var(--mds-emoji-simi-mouth, #2B1C15)"/>
    <g id="nose">
      <path id="node-shape" d="M219.5 273.557C207.626 273.557 198 280.105 198 288.182C198 296.259 207.626 309.557 219.5 309.557C231.374 309.557 241 296.259 241 288.182C241 280.105 231.374 273.557 219.5 273.557Z" fill="var(--mds-emoji-simi-nose, #2B1C15)"/>
      <ellipse id="nose-light" cx="220" cy="285.557" rx="11" ry="5" fill="var(--mds-emoji-simi-nose-light, #7E695F)"/>
    </g>
  </g>
</svg>
