<svg width="22" height="22" viewBox="0 0 22 22" fill="none" xmlns="http://www.w3.org/2000/svg">
<path fill-rule="evenodd" clip-rule="evenodd" d="M17 16V21H18.5C19.8807 21 21 19.8807 21 18.5C21 17.1193 19.8807 16 18.5 16H17ZM18 20H18.5C19.3284 20 20 19.3284 20 18.5C20 17.6716 19.3284 17 18.5 17H18V20Z" fill="black"/>
<path d="M7 16H6V19C6 20.1046 6.89543 21 8 21C9.10457 21 10 20.1046 10 19L10 16H9L9 19C9 19.5523 8.55228 20 8 20C7.44772 20 7 19.5523 7 19L7 16Z" fill="black"/>
<rect x="11" y="16" width="1" height="5" fill="black"/>
<path d="M14 16H13V21H16V20H14V16Z" fill="black"/>
<path fill-rule="evenodd" clip-rule="evenodd" d="M5 17.5C5 17.8842 4.85559 18.2346 4.61804 18.5C4.85559 18.7654 5 19.1158 5 19.5C5 20.3284 4.32837 21 3.5 21H1V16H3.5C4.32837 16 5 16.6716 5 17.5ZM2 17V18H3.5C3.77612 18 4 17.7762 4 17.5C4 17.2238 3.77612 17 3.5 17H2ZM2 19V20H3.5C3.77612 20 4 19.7762 4 19.5C4 19.2238 3.77612 19 3.5 19H2Z" fill="black"/>
<path fill-rule="evenodd" clip-rule="evenodd" d="M15 0H7C3.13401 0 0 3.13401 0 7V11C0 12.6569 1.34315 14 3 14H15C18.866 14 22 10.866 22 7C22 3.13401 18.866 0 15 0ZM7 2C4.23858 2 2 4.23857 2 7V11C2 11.5523 2.44772 12 3 12C3.55228 12 4 11.5523 4 11V7C4 5.34315 5.34315 4 7 4H10C10.5523 4 11 4.44772 11 5C11 5.55228 10.5523 6 10 6H9C7.34315 6 6 7.34315 6 9C6 10.6569 7.34315 12 9 12H15C17.7614 12 20 9.76142 20 7C20 4.23858 17.7614 2 15 2C14.4477 2 14 2.44771 14 3C14 3.55229 14.4477 4 15 4C16.6569 4 18 5.34315 18 7C18 8.65685 16.6569 10 15 10H9C8.44771 10 8 9.55228 8 9C8 8.44772 8.44772 8 9 8H10C11.6569 8 13 6.65685 13 5C13 3.34315 11.6569 2 10 2H7Z" fill="black"/>
<path d="M7 2H10C11.6569 2 13 3.34315 13 5C13 6.65685 11.6569 8 10 8H9C8.44772 8 8 8.44772 8 9C8 9.55228 8.44771 10 9 10H15C16.6569 10 18 8.65685 18 7C18 5.34315 16.6569 4 15 4C14.4477 4 14 3.55228 14 3C14 2.44772 14.4477 2 15 2C17.7614 2 20 4.23858 20 7C20 9.76142 17.7614 12 15 12H9C7.34315 12 6 10.6569 6 9C6 7.34315 7.34315 6 9 6H10C10.5523 6 11 5.55228 11 5C11 4.44772 10.5523 4 10 4H7C5.34315 4 4 5.34315 4 7V11C4 11.5523 3.55228 12 3 12C2.44771 12 2 11.5523 2 11V7C2 4.23858 4.23858 2 7 2Z" fill="white"/>
</svg>
