<svg width="20" height="20" viewBox="0 0 20 20" fill="none" xmlns="http://www.w3.org/2000/svg">
<path d="M8 12H5V17H8V16H6V15H8V14H6V13H8V12Z" fill="#CBA26B"/>
<path fill-rule="evenodd" clip-rule="evenodd" d="M9 12H11.5C12.3284 12 13 12.6716 13 13.5C13 14.3284 12.3284 15 11.5 15H10V17H9V12ZM11.5 13H10V14H11.5C11.7761 14 12 13.7761 12 13.5C12 13.2239 11.7761 13 11.5 13Z" fill="#CBA26B"/>
<path fill-rule="evenodd" clip-rule="evenodd" d="M0 12V17H1.5C2.88071 17 4 15.8807 4 14.5C4 13.1193 2.88071 12 1.5 12H0ZM1 16H1.5C2.32843 16 3 15.3284 3 14.5C3 13.6716 2.32843 13 1.5 13H1V16Z" fill="#CBA26B"/>
<path d="M14 12H18V13H16.5V17H15.5V13H14V12Z" fill="#CBA26B"/>
<path d="M5 0H8C9.65685 0 11 1.34315 11 3C11 4.65685 9.65685 6 8 6H7C6.44772 6 6 6.44772 6 7C6 7.55228 6.44771 8 7 8H13C14.6569 8 16 6.65685 16 5C16 3.34315 14.6569 2 13 2C12.4477 2 12 1.55228 12 1C12 0.447715 12.4477 0 13 0C15.7614 0 18 2.23858 18 5C18 7.76142 15.7614 10 13 10H7C5.34315 10 4 8.65685 4 7C4 5.34315 5.34315 4 7 4H8C8.55228 4 9 3.55228 9 3C9 2.44772 8.55228 2 8 2H5C3.34315 2 2 3.34315 2 5V9C2 9.55228 1.55228 10 1 10C0.447715 10 0 9.55228 0 9V5C0 2.23858 2.23858 0 5 0Z" fill="#CBA26B"/>
<path d="M11 16H14.5V17H11V16Z" fill="#CBA26B"/>
</svg>
