<?xml version="1.0" encoding="utf-8"?>
<!-- Generator: Adobe Illustrator 26.3.1, SVG Export Plug-In . SVG Version: 6.00 Build 0)  -->
<svg version="1.1" id="Livello_1" xmlns="http://www.w3.org/2000/svg" xmlns:xlink="http://www.w3.org/1999/xlink" x="0px" y="0px"
	 viewBox="0 0 380.76 116.06" style="enable-background:new 0 0 380.76 116.06;" xml:space="preserve">
<style type="text/css">
	.st0{clip-path:url(#SVGID_00000103950060426695390310000006299890401187081120_);fill:#004661;}
	.st1{clip-path:url(#SVGID_00000103950060426695390310000006299890401187081120_);}
	.st2{clip-path:url(#SVGID_00000103950060426695390310000006299890401187081120_);fill:#BE421D;}
</style>
<g>
	<g>
		<defs>
			<rect id="SVGID_1_" x="4.89" y="5.01" width="372.75" height="105.65"/>
		</defs>
		<clipPath id="SVGID_00000166652586029678618020000008061092220260094615_">
			<use xlink:href="#SVGID_1_"  style="overflow:visible;"/>
		</clipPath>
		<path style="clip-path:url(#SVGID_00000166652586029678618020000008061092220260094615_);fill:#004661;" d="M77,50.04
			c1.62,1.58,2.43,4.03,2.43,7.35c0,1.75-0.25,3.24-0.75,4.49c-0.5,1.24-1.15,2.26-1.96,3.05c-0.81,0.79-1.73,1.37-2.77,1.75
			c-1.04,0.37-2.12,0.56-3.24,0.56c-0.46,0-1.06-0.01-1.81-0.03c-0.75-0.02-1.31-0.09-1.68-0.22V48.05c0.46-0.12,0.92-0.22,1.4-0.28
			c0.48-0.06,1.13-0.09,1.96-0.09C73.24,47.68,75.38,48.47,77,50.04 M67.22,71.1c0.21,0.04,0.55,0.07,1.03,0.09
			c0.48,0.02,0.98,0.04,1.5,0.06c0.52,0.02,1.01,0.03,1.46,0.03h1c2.24,0,4.42-0.28,6.54-0.84c2.12-0.56,3.99-1.42,5.61-2.59
			c1.62-1.16,2.92-2.64,3.89-4.42c0.98-1.78,1.46-3.9,1.46-6.35c0-2.57-0.5-4.72-1.49-6.45c-1-1.72-2.32-3.1-3.95-4.14
			c-1.64-1.04-3.51-1.78-5.61-2.21c-2.1-0.44-4.25-0.65-6.45-0.65c-1.79,0-3.75,0.08-5.89,0.25c-2.14,0.17-4.04,0.25-5.7,0.25h-7.85
			v2.37c0.71,0.42,1.5,0.78,2.37,1.09c0.87,0.31,1.78,0.55,2.74,0.72v35.25c-0.83,0.17-1.69,0.4-2.59,0.68
			c-0.89,0.29-1.73,0.66-2.52,1.12v2.37h20.74v-2.37c-0.87-0.41-1.86-0.78-2.96-1.09c-1.1-0.31-2.21-0.55-3.33-0.72V71.1z"/>
		<path style="clip-path:url(#SVGID_00000166652586029678618020000008061092220260094615_);fill:#004661;" d="M49.91,60.03
			c-0.9-0.44-1.8-0.77-2.71-0.99V30.75h-1.39c-0.57,0.05-1.22,0.13-1.95,0.22c-0.72,0.1-1.45,0.21-2.17,0.33
			c-0.72,0.12-1.4,0.27-2.03,0.43c-0.63,0.16-1.12,0.33-1.48,0.49v1.56l3.12,0.33v24.93c-0.9,0.22-1.8,0.55-2.71,0.99v1.56h11.32
			V60.03z M28.46,36.57c0.65,0.55,1.49,0.82,2.51,0.82c1.03,0,1.86-0.27,2.51-0.82c0.65-0.55,0.97-1.28,0.97-2.21
			c0-0.96-0.33-1.71-0.97-2.26c-0.65-0.55-1.49-0.82-2.51-0.82c-1.03,0-1.86,0.27-2.51,0.82c-0.65,0.55-0.97,1.3-0.97,2.26
			C27.48,35.29,27.81,36.03,28.46,36.57 M36.71,60.03c-0.38-0.22-0.79-0.4-1.23-0.55c-0.44-0.15-0.93-0.29-1.48-0.43V40.59h-1.39
			c-0.49,0.06-1.07,0.13-1.72,0.23c-0.66,0.1-1.33,0.21-2.01,0.33c-0.68,0.12-1.33,0.27-1.95,0.43c-0.61,0.16-1.13,0.33-1.54,0.49
			v1.56l2.71,0.33v15.08c-0.52,0.14-1,0.28-1.43,0.43c-0.44,0.15-0.86,0.34-1.27,0.56v1.56h11.32V60.03z"/>
		<path style="clip-path:url(#SVGID_00000166652586029678618020000008061092220260094615_);fill:#004661;" d="M363.43,44.93h2.99
			v11.35c0,1.89,0.4,3.25,1.2,4.09c0.8,0.84,2.01,1.27,3.63,1.27c0.72,0,1.41-0.08,2.08-0.22c0.66-0.15,1.27-0.34,1.83-0.56
			c0.56-0.22,1.06-0.46,1.5-0.71c0.44-0.25,0.77-0.49,0.99-0.71l-0.26-1.23c-0.47,0.17-0.99,0.29-1.55,0.35
			c-0.56,0.06-1.07,0.09-1.51,0.09c-0.9,0-1.54-0.3-1.93-0.89c-0.39-0.59-0.58-1.66-0.58-3.2v-9.63h4.94V42.5h-4.94v-4.75h-1.27
			c-0.97,0.18-1.85,0.41-2.64,0.69c-0.79,0.29-1.28,0.51-1.48,0.65v3.03c-1.05,0.26-2.04,0.69-2.99,1.31V44.93z M353.55,38.39
			c0.59,0.5,1.35,0.75,2.29,0.75c0.94,0,1.7-0.25,2.29-0.75c0.59-0.5,0.89-1.17,0.89-2.02c0-0.87-0.29-1.56-0.89-2.06
			c-0.59-0.5-1.35-0.75-2.29-0.75c-0.94,0-1.7,0.25-2.29,0.75c-0.59,0.5-0.89,1.19-0.89,2.06
			C352.66,37.22,352.96,37.89,353.55,38.39 M361.08,59.77c-0.35-0.2-0.72-0.37-1.12-0.51c-0.4-0.14-0.85-0.27-1.35-0.39V42.05h-1.27
			c-0.45,0.05-0.97,0.12-1.57,0.21c-0.6,0.09-1.21,0.19-1.83,0.3c-0.62,0.11-1.22,0.24-1.78,0.39c-0.56,0.15-1.03,0.3-1.4,0.45v1.42
			l2.47,0.3v13.75c-0.47,0.13-0.91,0.26-1.31,0.4c-0.4,0.14-0.78,0.31-1.16,0.51v1.42h10.32V59.77z M340.63,60.69
			c0.57,0.54,1.33,0.8,2.28,0.8c0.95,0,1.72-0.27,2.32-0.8c0.6-0.53,0.9-1.25,0.9-2.15c0-0.9-0.3-1.62-0.9-2.17
			c-0.6-0.55-1.37-0.82-2.32-0.82c-0.95,0-1.71,0.27-2.28,0.82c-0.57,0.55-0.86,1.27-0.86,2.17
			C339.77,59.44,340.05,60.15,340.63,60.69 M328.93,45.75c0.4,1.05,0.51,2.54,0.33,4.49h-5.98c0.07-1.2,0.2-2.19,0.37-2.97
			c0.17-0.78,0.4-1.41,0.69-1.87c0.29-0.46,0.62-0.78,1-0.95c0.38-0.17,0.82-0.26,1.32-0.26C327.78,44.18,328.53,44.71,328.93,45.75
			 M333.67,57.31c-0.5,0.4-1.19,0.72-2.08,0.97c-0.89,0.25-1.74,0.37-2.56,0.37c-1.92,0-3.37-0.59-4.36-1.76
			c-0.98-1.17-1.49-2.74-1.51-4.71h11.48c0.32-1.87,0.34-3.45,0.06-4.75c-0.29-1.3-0.8-2.34-1.53-3.14
			c-0.74-0.8-1.66-1.37-2.77-1.72c-1.11-0.35-2.3-0.52-3.57-0.52c-2.97,0-5.28,0.84-6.95,2.51c-1.67,1.67-2.51,4.1-2.51,7.29
			c0,1.5,0.21,2.84,0.62,4.04c0.41,1.2,1.02,2.22,1.81,3.08c0.8,0.86,1.79,1.52,2.99,1.98c1.2,0.46,2.57,0.69,4.11,0.69
			c0.97,0,1.88-0.11,2.71-0.32c0.83-0.21,1.57-0.49,2.21-0.82c0.64-0.34,1.17-0.72,1.61-1.16c0.44-0.44,0.75-0.87,0.95-1.29
			L333.67,57.31z M314.16,59.77c-0.82-0.4-1.65-0.7-2.47-0.9v-25.8h-1.27c-0.52,0.05-1.12,0.12-1.78,0.21
			c-0.66,0.09-1.32,0.19-1.98,0.3c-0.66,0.11-1.28,0.24-1.85,0.39c-0.57,0.15-1.02,0.3-1.35,0.45v1.42l2.84,0.3v22.73
			c-0.82,0.2-1.65,0.5-2.47,0.9v1.42h10.32V59.77z M288.02,57.87c-0.45-0.52-0.67-1.26-0.67-2.21c0-0.62,0.08-1.15,0.24-1.59
			c0.16-0.44,0.45-0.8,0.88-1.08c0.42-0.29,1.01-0.49,1.76-0.62c0.75-0.12,1.71-0.2,2.88-0.22v3.74c-0.07,0.25-0.18,0.54-0.32,0.86
			c-0.14,0.32-0.34,0.62-0.6,0.9c-0.26,0.27-0.58,0.51-0.95,0.71c-0.37,0.2-0.82,0.3-1.35,0.3
			C289.1,58.65,288.47,58.39,288.02,57.87 M298.4,52.05c0.06-1.21,0.09-2.56,0.09-4.06c0-0.82-0.1-1.6-0.3-2.32
			c-0.2-0.72-0.56-1.35-1.07-1.89c-0.51-0.54-1.22-0.96-2.11-1.27c-0.9-0.31-2.06-0.47-3.48-0.47c-1.67,0-3.25,0.19-4.75,0.56
			c-1.5,0.37-2.72,0.89-3.66,1.53c0.05,0.42,0.13,0.86,0.24,1.31c0.11,0.45,0.25,0.89,0.41,1.33c0.16,0.44,0.34,0.85,0.52,1.23
			c0.19,0.39,0.38,0.73,0.58,1.03h1.65l1.76-4.49c0.65-0.25,1.36-0.37,2.13-0.37c1.25,0,2.06,0.5,2.43,1.5
			c0.37,1,0.46,2.57,0.26,4.71c-2.04,0.1-3.78,0.26-5.22,0.49c-1.43,0.22-2.61,0.57-3.51,1.03c-0.91,0.46-1.58,1.05-2,1.78
			c-0.42,0.72-0.64,1.64-0.64,2.77c0,0.8,0.15,1.51,0.45,2.15c0.3,0.63,0.71,1.18,1.23,1.63c0.52,0.45,1.13,0.8,1.83,1.05
			c0.7,0.25,1.46,0.37,2.28,0.37c0.77,0,1.47-0.11,2.09-0.34c0.62-0.22,1.17-0.52,1.63-0.88c0.46-0.36,0.84-0.77,1.14-1.23
			c0.3-0.46,0.51-0.94,0.64-1.44h0.19c0.02,0.82,0.06,1.52,0.11,2.09c0.05,0.57,0.2,1.15,0.45,1.72h1.27
			c0.42-0.05,0.91-0.12,1.46-0.21c0.55-0.09,1.1-0.2,1.66-0.34c0.56-0.14,1.1-0.28,1.61-0.43c0.51-0.15,0.92-0.3,1.21-0.45v-1.31
			l-2.58-0.37c-0.05-0.45-0.08-0.87-0.09-1.27c-0.01-0.4-0.02-0.87-0.02-1.42C298.31,54.5,298.34,53.26,298.4,52.05 M279.16,59.77
			c-0.65-0.42-1.47-0.72-2.47-0.9v-8.96c0-1.55-0.14-2.83-0.43-3.84c-0.29-1.01-0.7-1.82-1.23-2.42c-0.54-0.6-1.19-1.02-1.96-1.25
			c-0.77-0.24-1.64-0.36-2.62-0.36c-1.5,0-2.77,0.38-3.81,1.14c-1.05,0.76-1.83,1.66-2.36,2.71h-0.04v-3.85h-1.27
			c-0.52,0.05-1.1,0.12-1.74,0.21c-0.64,0.09-1.26,0.19-1.87,0.32c-0.61,0.12-1.18,0.25-1.7,0.39c-0.52,0.14-0.95,0.28-1.27,0.43
			v1.42l2.47,0.3v13.75c-1.02,0.28-1.84,0.58-2.47,0.9v1.42h9.91v-1.42c-0.35-0.22-0.68-0.4-0.99-0.54
			c-0.31-0.14-0.67-0.26-1.07-0.36V48.45c0.35-1.05,0.87-1.88,1.55-2.49c0.68-0.61,1.5-0.92,2.45-0.92c1.15,0,1.94,0.44,2.39,1.33
			c0.45,0.89,0.67,2.12,0.67,3.69v8.81c-0.42,0.15-0.79,0.29-1.1,0.43c-0.31,0.14-0.63,0.29-0.95,0.47v1.42h9.91V59.77z
			 M239.4,48.31c0.16-0.96,0.4-1.73,0.73-2.32c0.32-0.59,0.72-1.01,1.2-1.27c0.47-0.26,1.03-0.39,1.68-0.39
			c0.87,0,1.59,0.18,2.17,0.54c0.57,0.36,1.03,0.87,1.36,1.51c0.34,0.65,0.57,1.43,0.71,2.36c0.14,0.92,0.21,1.96,0.21,3.1
			c0,1.4-0.08,2.57-0.24,3.53c-0.16,0.96-0.4,1.73-0.73,2.32c-0.32,0.59-0.71,1.01-1.16,1.27c-0.45,0.26-0.95,0.39-1.49,0.39
			c-0.95,0-1.72-0.18-2.32-0.54c-0.6-0.36-1.07-0.87-1.42-1.51c-0.35-0.65-0.59-1.44-0.73-2.37c-0.14-0.94-0.21-1.96-0.21-3.09
			C239.16,50.45,239.24,49.27,239.4,48.31 M233.96,55.79c0.4,1.21,1.01,2.24,1.83,3.1c0.82,0.86,1.86,1.53,3.1,2.02
			c1.25,0.49,2.72,0.73,4.41,0.73c1.54,0,2.94-0.22,4.17-0.67c1.23-0.45,2.28-1.1,3.14-1.94c0.86-0.85,1.51-1.88,1.96-3.09
			c0.45-1.21,0.67-2.57,0.67-4.09c0-1.42-0.19-2.74-0.56-3.94c-0.37-1.21-0.97-2.24-1.78-3.1c-0.81-0.86-1.84-1.53-3.1-2.02
			c-1.26-0.49-2.76-0.73-4.51-0.73c-1.55,0-2.93,0.22-4.15,0.67c-1.22,0.45-2.26,1.1-3.12,1.94c-0.86,0.85-1.52,1.88-1.98,3.08
			c-0.46,1.21-0.69,2.57-0.69,4.09C233.36,53.27,233.56,54.58,233.96,55.79 M224.06,58.88c-0.6,0.42-1.26,0.64-1.98,0.64
			c-0.3,0-0.62-0.02-0.95-0.06c-0.34-0.04-0.64-0.16-0.92-0.36l-1.83-4.08h-1.27c-0.42,0.72-0.82,1.55-1.2,2.47
			c-0.37,0.92-0.59,1.83-0.64,2.73c0.92,0.45,2.02,0.8,3.29,1.05c1.27,0.25,2.5,0.37,3.7,0.37c2.34,0,4.21-0.49,5.61-1.48
			s2.09-2.34,2.09-4.06c0-0.97-0.23-1.81-0.69-2.51c-0.46-0.7-1.03-1.3-1.72-1.81c-0.68-0.51-1.43-0.97-2.24-1.36
			s-1.56-0.8-2.24-1.2c-0.69-0.4-1.26-0.83-1.72-1.29c-0.46-0.46-0.69-1-0.69-1.63c0-0.55,0.19-1.04,0.58-1.48
			c0.39-0.44,0.95-0.65,1.7-0.65c0.4,0,0.76,0.02,1.08,0.06c0.32,0.04,0.64,0.12,0.93,0.24l1.57,3.81h1.27
			c0.27-0.75,0.56-1.58,0.86-2.49c0.3-0.91,0.5-1.76,0.6-2.56c-0.87-0.37-1.89-0.67-3.05-0.88c-1.16-0.21-2.41-0.32-3.76-0.32
			c-0.97,0-1.88,0.12-2.71,0.36c-0.83,0.24-1.55,0.57-2.15,0.99c-0.6,0.42-1.07,0.94-1.42,1.55c-0.35,0.61-0.52,1.29-0.52,2.04
			c0,1.05,0.23,1.93,0.69,2.65c0.46,0.72,1.03,1.35,1.72,1.89c0.68,0.54,1.43,1,2.24,1.4c0.81,0.4,1.56,0.8,2.24,1.2
			c0.69,0.4,1.26,0.83,1.72,1.31c0.46,0.47,0.69,1.04,0.69,1.68C224.95,57.87,224.65,58.45,224.06,58.88 M212.91,46.8v-1.46
			c-0.12-0.57-0.29-1.18-0.49-1.81c-0.2-0.64-0.44-1.13-0.71-1.48c-0.67-0.02-1.32,0.11-1.94,0.41c-0.62,0.3-1.2,0.7-1.72,1.2
			c-0.52,0.5-0.98,1.05-1.36,1.64c-0.39,0.6-0.68,1.17-0.88,1.72h-0.15v-4.97h-1.27c-0.4,0.05-0.89,0.11-1.48,0.19
			c-0.59,0.07-1.19,0.17-1.81,0.28c-0.62,0.11-1.23,0.24-1.81,0.39c-0.59,0.15-1.08,0.31-1.48,0.49v1.42l2.47,0.3v13.75
			c-0.4,0.1-0.8,0.21-1.2,0.34c-0.4,0.12-0.82,0.31-1.27,0.56v1.42h10.84v-1.42c-0.5-0.27-1-0.48-1.5-0.62
			c-0.5-0.14-1-0.23-1.5-0.28v-9.6c0.32-0.8,0.69-1.37,1.08-1.73c0.4-0.35,0.75-0.6,1.05-0.75H212.91z M188.47,45.75
			c0.4,1.05,0.51,2.54,0.33,4.49h-5.98c0.07-1.2,0.2-2.19,0.37-2.97c0.17-0.78,0.4-1.41,0.69-1.87c0.29-0.46,0.62-0.78,1-0.95
			c0.38-0.17,0.82-0.26,1.32-0.26C187.31,44.18,188.07,44.71,188.47,45.75 M193.21,57.31c-0.5,0.4-1.19,0.72-2.07,0.97
			c-0.89,0.25-1.74,0.37-2.56,0.37c-1.92,0-3.37-0.59-4.36-1.76c-0.99-1.17-1.49-2.74-1.51-4.71h11.48
			c0.32-1.87,0.34-3.45,0.06-4.75c-0.29-1.3-0.8-2.34-1.53-3.14c-0.74-0.8-1.66-1.37-2.77-1.72c-1.11-0.35-2.3-0.52-3.57-0.52
			c-2.97,0-5.29,0.84-6.96,2.51c-1.67,1.67-2.5,4.1-2.5,7.29c0,1.5,0.21,2.84,0.62,4.04c0.41,1.2,1.02,2.22,1.81,3.08
			c0.8,0.86,1.79,1.52,2.99,1.98c1.2,0.46,2.57,0.69,4.11,0.69c0.97,0,1.88-0.11,2.71-0.32c0.83-0.21,1.57-0.49,2.21-0.82
			c0.64-0.34,1.17-0.72,1.61-1.16c0.44-0.44,0.75-0.87,0.95-1.29L193.21,57.31z M166.91,46.71c0.51,1.11,0.77,2.69,0.77,4.73
			c0,2.64-0.34,4.65-1.01,6.02c-0.67,1.37-1.72,2.06-3.14,2.06c-0.72,0-1.31-0.07-1.76-0.21s-0.87-0.36-1.27-0.65v-9.94
			c0.27-1.25,0.74-2.17,1.4-2.77c0.66-0.6,1.41-0.9,2.26-0.9C165.48,45.04,166.4,45.6,166.91,46.71 M162.97,67.25
			c-0.45-0.28-0.87-0.48-1.27-0.62c-0.4-0.14-0.8-0.23-1.2-0.28v-5.45c0.55,0.27,1.07,0.47,1.55,0.58c0.49,0.11,1.15,0.17,2,0.17
			c1.47,0,2.78-0.24,3.94-0.71c1.16-0.47,2.14-1.15,2.95-2.02c0.81-0.87,1.43-1.94,1.87-3.22c0.44-1.27,0.65-2.69,0.65-4.26
			c0-1.64-0.17-3.06-0.5-4.24c-0.34-1.18-0.81-2.16-1.42-2.92c-0.61-0.76-1.36-1.32-2.24-1.68c-0.89-0.36-1.88-0.54-2.97-0.54
			c-1.62,0-2.89,0.4-3.79,1.2c-0.91,0.8-1.58,1.79-2,2.99h-0.04v-4.19h-1.27c-0.4,0.05-0.89,0.11-1.48,0.19
			c-0.59,0.07-1.19,0.17-1.81,0.28c-0.62,0.11-1.23,0.24-1.81,0.39c-0.59,0.15-1.08,0.31-1.48,0.49v1.42l2.47,0.3v21.23
			c-0.8,0.2-1.62,0.5-2.47,0.9v1.42h10.32V67.25z M149.81,59.77c-0.82-0.4-1.64-0.7-2.47-0.9v-25.8h-1.27
			c-0.52,0.05-1.12,0.12-1.78,0.21c-0.66,0.09-1.32,0.19-1.98,0.3c-0.66,0.11-1.28,0.24-1.85,0.39c-0.57,0.15-1.02,0.3-1.35,0.45
			v1.42l2.84,0.3v22.73c-0.82,0.2-1.65,0.5-2.47,0.9v1.42h10.32V59.77z M128.75,38.39c0.59,0.5,1.35,0.75,2.29,0.75
			c0.94,0,1.7-0.25,2.29-0.75c0.59-0.5,0.89-1.17,0.89-2.02c0-0.87-0.3-1.56-0.89-2.06c-0.59-0.5-1.35-0.75-2.29-0.75
			c-0.94,0-1.7,0.25-2.29,0.75c-0.59,0.5-0.89,1.19-0.89,2.06C127.86,37.22,128.16,37.89,128.75,38.39 M136.27,59.77
			c-0.35-0.2-0.72-0.37-1.12-0.51c-0.4-0.14-0.85-0.27-1.35-0.39V42.05h-1.27c-0.45,0.05-0.97,0.12-1.57,0.21
			c-0.6,0.09-1.21,0.19-1.83,0.3c-0.62,0.11-1.22,0.24-1.78,0.39c-0.56,0.15-1.03,0.3-1.4,0.45v1.42l2.47,0.3v13.75
			c-0.47,0.13-0.91,0.26-1.31,0.4c-0.4,0.14-0.79,0.31-1.16,0.51v1.42h10.32V59.77z"/>
		<path style="clip-path:url(#SVGID_00000166652586029678618020000008061092220260094615_);" d="M372.66,75.41
			c0.22,0.2,0.52,0.3,0.9,0.3c0.37,0,0.67-0.1,0.89-0.3c0.22-0.2,0.33-0.47,0.33-0.82c0-0.35-0.11-0.62-0.33-0.83
			c-0.22-0.2-0.51-0.31-0.89-0.31c-0.37,0-0.67,0.1-0.9,0.31c-0.22,0.21-0.34,0.48-0.34,0.83
			C372.32,74.94,372.44,75.21,372.66,75.41 M375.69,87c-0.18-0.1-0.37-0.19-0.58-0.26c-0.2-0.07-0.44-0.14-0.69-0.2v-8.91h-0.48
			c-0.44,0.08-0.87,0.17-1.31,0.29c-0.44,0.12-0.84,0.25-1.21,0.4v0.5l1.27,0.15v7.56c-0.24,0.06-0.47,0.13-0.67,0.2
			c-0.21,0.07-0.4,0.16-0.6,0.26v0.48h4.27V87z M370.28,87c-0.42-0.21-0.85-0.36-1.27-0.46V73.01h-0.48
			c-0.48,0.08-0.96,0.17-1.46,0.29s-0.92,0.25-1.25,0.4v0.5l1.46,0.15v12.18c-0.42,0.1-0.85,0.26-1.27,0.46v0.48h4.27V87z
			 M358.91,86.07c-0.28-0.3-0.42-0.73-0.42-1.28c0-0.32,0.05-0.61,0.15-0.86c0.1-0.25,0.29-0.46,0.56-0.63
			c0.27-0.17,0.64-0.29,1.12-0.37c0.48-0.08,1.08-0.12,1.83-0.12v2.02c-0.04,0.13-0.11,0.29-0.21,0.47c-0.1,0.19-0.24,0.37-0.4,0.55
			c-0.17,0.18-0.37,0.33-0.62,0.46c-0.24,0.13-0.53,0.19-0.85,0.19C359.58,86.52,359.19,86.37,358.91,86.07 M363.83,82.91
			c0.03-0.71,0.05-1.45,0.05-2.22c0-0.36-0.03-0.72-0.1-1.08c-0.06-0.36-0.2-0.69-0.4-0.98c-0.21-0.29-0.5-0.54-0.89-0.72
			c-0.39-0.19-0.91-0.28-1.57-0.28c-0.73,0-1.4,0.08-1.99,0.25c-0.6,0.17-1.14,0.4-1.63,0.69c0.03,0.4,0.09,0.8,0.18,1.21
			c0.1,0.41,0.21,0.81,0.34,1.19h0.5l0.91-2.31c0.22-0.09,0.44-0.14,0.66-0.16c0.22-0.02,0.43-0.03,0.61-0.03
			c0.38,0,0.7,0.09,0.93,0.26c0.24,0.17,0.42,0.42,0.54,0.73c0.12,0.31,0.19,0.69,0.21,1.13c0.02,0.44,0,0.94-0.05,1.49
			c-0.9,0.05-1.69,0.12-2.37,0.22c-0.68,0.1-1.25,0.25-1.71,0.47c-0.46,0.22-0.81,0.52-1.05,0.89c-0.24,0.38-0.36,0.86-0.36,1.45
			c0,0.77,0.25,1.39,0.74,1.87c0.49,0.48,1.13,0.71,1.91,0.71c0.41,0,0.78-0.06,1.1-0.19c0.32-0.13,0.6-0.29,0.84-0.5
			c0.24-0.2,0.43-0.44,0.58-0.7c0.15-0.26,0.25-0.52,0.3-0.78h0.1c0.01,0.42,0.03,0.81,0.06,1.16c0.03,0.35,0.1,0.68,0.23,0.97h0.48
			c0.36-0.06,0.74-0.16,1.13-0.29c0.39-0.13,0.75-0.28,1.07-0.44v-0.4l-1.33-0.19c-0.01-0.23-0.03-0.45-0.04-0.65
			c-0.01-0.21-0.02-0.45-0.02-0.73C363.78,84.31,363.8,83.63,363.83,82.91 M355.27,85.87c-0.23,0.18-0.51,0.33-0.85,0.46
			c-0.33,0.13-0.72,0.19-1.17,0.19c-0.55,0-1.04-0.11-1.45-0.33c-0.42-0.22-0.76-0.51-1.04-0.88c-0.28-0.37-0.48-0.78-0.62-1.24
			c-0.14-0.46-0.2-0.94-0.2-1.42c0-1.51,0.24-2.59,0.71-3.22c0.47-0.64,1.15-0.95,2.02-0.95c0.27,0,0.46,0.02,0.58,0.05
			s0.22,0.08,0.31,0.14l0.81,2.29h0.52c0.15-0.35,0.28-0.78,0.38-1.31c0.1-0.53,0.17-1,0.21-1.42c-0.35-0.18-0.77-0.32-1.26-0.43
			c-0.5-0.11-1.06-0.16-1.68-0.16c-1.37,0-2.46,0.43-3.25,1.3c-0.79,0.87-1.19,2.11-1.19,3.74c0,0.76,0.09,1.45,0.28,2.07
			c0.19,0.62,0.47,1.15,0.84,1.6c0.37,0.44,0.84,0.78,1.4,1.02c0.56,0.24,1.21,0.36,1.97,0.36c0.69,0,1.3-0.15,1.82-0.45
			c0.52-0.3,0.9-0.68,1.13-1.13L355.27,85.87z M340.38,79.5c0.46-0.68,1.07-1.02,1.83-1.02c0.5,0,0.93,0.11,1.29,0.33
			c0.36,0.22,0.66,0.52,0.89,0.9s0.4,0.82,0.51,1.33s0.16,1.06,0.16,1.65c0,1.44-0.22,2.49-0.66,3.18c-0.44,0.68-1.01,1.02-1.7,1.02
			c-0.54,0-1-0.11-1.39-0.33c-0.38-0.22-0.7-0.52-0.93-0.9c-0.24-0.38-0.41-0.82-0.52-1.34c-0.11-0.51-0.16-1.06-0.16-1.64
			C339.69,81.24,339.92,80.18,340.38,79.5 M338.12,84.74c0.19,0.62,0.47,1.15,0.84,1.6c0.37,0.44,0.84,0.78,1.41,1.02
			c0.56,0.24,1.23,0.36,2,0.36c1.39,0,2.49-0.44,3.31-1.31c0.82-0.87,1.23-2.12,1.23-3.73c0-0.76-0.09-1.44-0.26-2.06
			c-0.17-0.62-0.44-1.14-0.81-1.59c-0.36-0.44-0.84-0.79-1.41-1.03c-0.58-0.24-1.26-0.36-2.06-0.36c-0.68,0-1.3,0.11-1.86,0.34
			c-0.56,0.22-1.04,0.55-1.43,0.98c-0.4,0.43-0.7,0.96-0.91,1.58c-0.21,0.62-0.32,1.34-0.32,2.15
			C337.84,83.43,337.93,84.12,338.12,84.74 M336.71,87c-0.42-0.21-0.85-0.36-1.27-0.46V73.01h-0.48c-0.48,0.08-0.96,0.17-1.46,0.29
			s-0.92,0.25-1.25,0.4v0.5l1.46,0.15v12.18c-0.42,0.1-0.85,0.26-1.27,0.46v0.48h4.27V87z M323.97,75.41c0.22,0.2,0.52,0.3,0.9,0.3
			c0.37,0,0.67-0.1,0.89-0.3c0.22-0.2,0.33-0.47,0.33-0.82c0-0.35-0.11-0.62-0.33-0.83c-0.22-0.2-0.51-0.31-0.89-0.31
			c-0.37,0-0.67,0.1-0.9,0.31c-0.22,0.21-0.34,0.48-0.34,0.83C323.64,74.94,323.75,75.21,323.97,75.41 M327.01,87
			c-0.18-0.1-0.37-0.19-0.58-0.26c-0.21-0.07-0.44-0.14-0.69-0.2v-8.91h-0.48c-0.44,0.08-0.87,0.17-1.31,0.29
			c-0.44,0.12-0.84,0.25-1.21,0.4v0.5l1.27,0.15v7.56c-0.24,0.06-0.47,0.13-0.67,0.2c-0.21,0.07-0.4,0.16-0.6,0.26v0.48h4.27V87z
			 M315.48,78.86h1.54v6.09c0,0.97,0.2,1.67,0.61,2.11c0.4,0.43,0.99,0.65,1.76,0.65c0.29,0,0.58-0.04,0.87-0.12
			c0.28-0.08,0.54-0.17,0.78-0.29s0.45-0.24,0.63-0.37c0.19-0.13,0.33-0.25,0.43-0.36l-0.14-0.29c-0.24,0.09-0.54,0.15-0.89,0.18
			c-0.35,0.03-0.63,0.05-0.87,0.05c-0.49,0-0.85-0.16-1.1-0.48c-0.24-0.32-0.37-0.86-0.37-1.63v-5.55h2.89v-1h-2.89v-2.52h-0.48
			c-0.22,0.09-0.44,0.2-0.66,0.32c-0.23,0.12-0.42,0.25-0.59,0.38v1.64c-0.54,0.13-1.05,0.36-1.54,0.68V78.86z M315.25,87
			c-0.33-0.22-0.76-0.37-1.27-0.46v-4.87c0-0.79-0.07-1.45-0.21-1.97c-0.14-0.52-0.35-0.93-0.62-1.24
			c-0.27-0.31-0.61-0.52-1.01-0.64c-0.4-0.12-0.86-0.18-1.37-0.18c-0.72,0-1.33,0.21-1.84,0.63c-0.51,0.42-0.9,0.93-1.17,1.52h-0.02
			v-2.16h-0.48c-0.47,0.09-0.93,0.19-1.37,0.31c-0.44,0.12-0.82,0.24-1.15,0.38v0.5l1.27,0.15v7.56c-0.53,0.14-0.95,0.29-1.27,0.46
			v0.48h4.16V87c-0.37-0.23-0.76-0.38-1.15-0.46v-5.62c0.09-0.27,0.21-0.53,0.36-0.78c0.15-0.25,0.34-0.47,0.55-0.67
			c0.21-0.2,0.46-0.36,0.73-0.47s0.57-0.17,0.89-0.17c0.74,0,1.26,0.28,1.54,0.85c0.28,0.56,0.42,1.33,0.42,2.31v4.56
			c-0.41,0.13-0.79,0.28-1.13,0.46v0.48h4.14V87z M301.35,79.21c0.31,0.49,0.46,1.14,0.46,1.96c0,0.1,0,0.21-0.01,0.32
			c-0.01,0.11-0.02,0.22-0.03,0.34h-4.23c0.08-1.24,0.31-2.11,0.69-2.61c0.38-0.49,0.94-0.74,1.67-0.74
			C300.57,78.48,301.05,78.72,301.35,79.21 M303.16,85.83c-0.23,0.21-0.58,0.37-1.04,0.5c-0.46,0.13-0.92,0.19-1.37,0.19
			c-0.55,0-1.03-0.1-1.44-0.3c-0.41-0.2-0.75-0.47-1.02-0.82c-0.27-0.35-0.47-0.75-0.61-1.22c-0.13-0.47-0.2-0.97-0.2-1.51h6
			c0.05-0.26,0.09-0.5,0.11-0.72c0.02-0.22,0.03-0.45,0.03-0.66c0-0.69-0.11-1.27-0.32-1.74c-0.21-0.47-0.49-0.84-0.83-1.13
			c-0.34-0.28-0.73-0.48-1.16-0.61c-0.44-0.12-0.88-0.18-1.33-0.18c-1.39,0-2.46,0.43-3.21,1.29c-0.76,0.86-1.13,2.11-1.13,3.75
			c0,0.77,0.1,1.46,0.3,2.08c0.2,0.62,0.49,1.15,0.87,1.59c0.38,0.44,0.87,0.78,1.44,1.02c0.58,0.24,1.24,0.36,2,0.36
			c0.35,0,0.69-0.04,1.02-0.12c0.33-0.08,0.64-0.2,0.92-0.34c0.28-0.14,0.53-0.31,0.75-0.5c0.22-0.19,0.38-0.4,0.48-0.62
			L303.16,85.83z M287.18,75.41c0.22,0.2,0.52,0.3,0.89,0.3s0.67-0.1,0.89-0.3c0.22-0.2,0.33-0.47,0.33-0.82
			c0-0.35-0.11-0.62-0.33-0.83c-0.22-0.2-0.51-0.31-0.89-0.31s-0.67,0.1-0.89,0.31c-0.22,0.21-0.34,0.48-0.34,0.83
			C286.84,74.94,286.96,75.21,287.18,75.41 M290.21,87c-0.18-0.1-0.37-0.19-0.58-0.26c-0.21-0.07-0.44-0.14-0.69-0.2v-8.91h-0.48
			c-0.44,0.08-0.87,0.17-1.31,0.29c-0.44,0.12-0.84,0.25-1.21,0.4v0.5l1.27,0.15v7.56c-0.24,0.06-0.47,0.13-0.67,0.2
			c-0.21,0.07-0.4,0.16-0.6,0.26v0.48h4.27V87z M284.8,87c-0.42-0.21-0.85-0.36-1.27-0.46V73.01h-0.48
			c-0.47,0.08-0.96,0.17-1.46,0.29s-0.92,0.25-1.25,0.4v0.5l1.46,0.15v12.18c-0.42,0.1-0.85,0.26-1.27,0.46v0.48h4.27V87z
			 M273.12,79.07c0.31-0.39,0.85-0.59,1.64-0.59c0.76,0,1.29,0.2,1.61,0.61c0.31,0.4,0.47,0.95,0.47,1.64
			c0,0.64-0.16,1.18-0.48,1.62c-0.32,0.44-0.85,0.65-1.6,0.65c-0.4,0-0.73-0.06-1-0.18c-0.27-0.12-0.48-0.29-0.64-0.49
			c-0.16-0.2-0.28-0.45-0.35-0.72c-0.07-0.28-0.11-0.57-0.11-0.88C272.66,80.01,272.82,79.46,273.12,79.07 M277.49,89.7
			c-0.08,0.2-0.21,0.38-0.39,0.53c-0.19,0.15-0.44,0.27-0.75,0.36s-0.71,0.14-1.18,0.14c-0.92,0-1.63-0.17-2.12-0.51
			s-0.73-0.85-0.73-1.53c0-0.35,0.08-0.68,0.23-1.01c0.15-0.33,0.48-0.64,0.96-0.93c0.41,0.13,0.85,0.24,1.33,0.35
			c0.47,0.1,0.92,0.23,1.33,0.38c0.41,0.15,0.75,0.35,1.03,0.6c0.28,0.24,0.41,0.57,0.41,0.98
			C277.61,89.27,277.57,89.49,277.49,89.7 M273.11,77.86c-0.48,0.15-0.87,0.37-1.19,0.65c-0.32,0.28-0.56,0.61-0.73,0.99
			c-0.17,0.38-0.25,0.79-0.25,1.22c0,0.68,0.2,1.29,0.59,1.83s0.95,0.91,1.68,1.1c-0.26,0.17-0.51,0.39-0.76,0.68
			c-0.25,0.29-0.38,0.58-0.38,0.88c0,0.32,0.09,0.59,0.28,0.82c0.19,0.23,0.42,0.4,0.7,0.53c-0.4,0.13-0.75,0.27-1.06,0.41
			s-0.56,0.32-0.77,0.51c-0.2,0.19-0.36,0.42-0.47,0.67c-0.11,0.26-0.16,0.56-0.16,0.9c0,0.72,0.36,1.32,1.07,1.79
			c0.71,0.48,1.77,0.71,3.17,0.71c0.67,0,1.28-0.07,1.84-0.2c0.56-0.13,1.04-0.33,1.43-0.58c0.4-0.25,0.71-0.56,0.93-0.93
			c0.22-0.37,0.33-0.79,0.32-1.25c-0.01-0.54-0.17-0.98-0.47-1.32c-0.3-0.34-0.68-0.62-1.13-0.83c-0.45-0.21-0.93-0.38-1.45-0.5
			c-0.52-0.12-1-0.24-1.44-0.36c-0.44-0.12-0.81-0.25-1.11-0.39c-0.29-0.15-0.44-0.35-0.44-0.61c0-0.15,0.04-0.3,0.12-0.44
			c0.08-0.14,0.16-0.27,0.22-0.38c0.19,0.03,0.36,0.05,0.52,0.06c0.15,0.01,0.35,0.02,0.6,0.02c1.24,0,2.19-0.29,2.84-0.87
			c0.65-0.58,0.97-1.33,0.97-2.25c0-0.76-0.16-1.37-0.48-1.83h2.02l0.25-0.46c0-0.18-0.02-0.37-0.07-0.58
			c-0.05-0.21-0.12-0.38-0.22-0.52c-0.82,0.23-1.61,0.6-2.37,1.12c-0.32-0.28-0.72-0.49-1.19-0.63c-0.48-0.13-1.06-0.2-1.75-0.2
			C274.13,77.63,273.58,77.71,273.11,77.86 M267.22,79.21c0.31,0.49,0.46,1.14,0.46,1.96c0,0.1,0,0.21-0.01,0.32
			c-0.01,0.11-0.02,0.22-0.03,0.34h-4.23c0.08-1.24,0.31-2.11,0.69-2.61c0.38-0.49,0.94-0.74,1.67-0.74
			C266.43,78.48,266.91,78.72,267.22,79.21 M269.02,85.83c-0.23,0.21-0.58,0.37-1.04,0.5c-0.46,0.13-0.92,0.19-1.37,0.19
			c-0.55,0-1.03-0.1-1.44-0.3c-0.41-0.2-0.75-0.47-1.02-0.82c-0.27-0.35-0.47-0.75-0.61-1.22c-0.14-0.47-0.2-0.97-0.2-1.51h6
			c0.05-0.26,0.09-0.5,0.11-0.72c0.02-0.22,0.03-0.45,0.03-0.66c0-0.69-0.1-1.27-0.32-1.74c-0.21-0.47-0.49-0.84-0.83-1.13
			c-0.34-0.28-0.73-0.48-1.17-0.61c-0.44-0.12-0.88-0.18-1.33-0.18c-1.39,0-2.46,0.43-3.21,1.29c-0.76,0.86-1.13,2.11-1.13,3.75
			c0,0.77,0.1,1.46,0.3,2.08c0.2,0.62,0.49,1.15,0.88,1.59c0.38,0.44,0.87,0.78,1.44,1.02c0.58,0.24,1.24,0.36,2,0.36
			c0.35,0,0.69-0.04,1.02-0.12c0.33-0.08,0.64-0.2,0.92-0.34c0.28-0.14,0.53-0.31,0.75-0.5c0.22-0.19,0.38-0.4,0.48-0.62
			L269.02,85.83z M260.77,87c-0.33-0.22-0.76-0.37-1.27-0.46v-4.87c0-0.79-0.07-1.45-0.21-1.97c-0.14-0.52-0.35-0.93-0.62-1.24
			s-0.61-0.52-1.01-0.64c-0.4-0.12-0.86-0.18-1.38-0.18c-0.72,0-1.33,0.21-1.84,0.63c-0.51,0.42-0.89,0.93-1.16,1.52h-0.02v-2.16
			h-0.48c-0.48,0.09-0.93,0.19-1.37,0.31c-0.44,0.12-0.82,0.24-1.15,0.38v0.5l1.27,0.15v7.56c-0.53,0.14-0.95,0.29-1.27,0.46v0.48
			h4.16V87c-0.37-0.23-0.76-0.38-1.15-0.46v-5.62c0.09-0.27,0.21-0.53,0.37-0.78c0.15-0.25,0.34-0.47,0.55-0.67
			c0.21-0.2,0.46-0.36,0.73-0.47c0.28-0.12,0.57-0.17,0.89-0.17c0.74,0,1.26,0.28,1.54,0.85c0.28,0.56,0.42,1.33,0.42,2.31v4.56
			c-0.41,0.13-0.79,0.28-1.13,0.46v0.48h4.14V87z M242.58,79.21c0.31,0.49,0.46,1.14,0.46,1.96c0,0.1,0,0.21-0.01,0.32
			c-0.01,0.11-0.02,0.22-0.03,0.34h-4.23c0.08-1.24,0.31-2.11,0.69-2.61c0.38-0.49,0.94-0.74,1.67-0.74
			C241.8,78.48,242.28,78.72,242.58,79.21 M244.39,85.83c-0.23,0.21-0.58,0.37-1.04,0.5c-0.46,0.13-0.92,0.19-1.37,0.19
			c-0.55,0-1.03-0.1-1.44-0.3c-0.41-0.2-0.75-0.47-1.02-0.82c-0.27-0.35-0.47-0.75-0.61-1.22c-0.14-0.47-0.2-0.97-0.2-1.51h6
			c0.05-0.26,0.09-0.5,0.11-0.72c0.02-0.22,0.03-0.45,0.03-0.66c0-0.69-0.1-1.27-0.32-1.74c-0.21-0.47-0.49-0.84-0.83-1.13
			c-0.34-0.28-0.73-0.48-1.17-0.61c-0.44-0.12-0.88-0.18-1.33-0.18c-1.39,0-2.46,0.43-3.21,1.29c-0.76,0.86-1.14,2.11-1.14,3.75
			c0,0.77,0.1,1.46,0.3,2.08c0.2,0.62,0.49,1.15,0.88,1.59c0.38,0.44,0.87,0.78,1.44,1.02c0.58,0.24,1.24,0.36,2,0.36
			c0.35,0,0.69-0.04,1.02-0.12c0.33-0.08,0.64-0.2,0.92-0.34c0.28-0.14,0.53-0.31,0.75-0.5c0.22-0.19,0.38-0.4,0.48-0.62
			L244.39,85.83z M236.14,87c-0.33-0.22-0.76-0.37-1.27-0.46v-4.87c0-0.79-0.07-1.45-0.21-1.97c-0.14-0.52-0.35-0.93-0.62-1.24
			s-0.61-0.52-1.01-0.64c-0.4-0.12-0.86-0.18-1.38-0.18c-0.72,0-1.33,0.21-1.84,0.63c-0.51,0.42-0.89,0.93-1.16,1.52h-0.02v-2.16
			h-0.48c-0.47,0.09-0.93,0.19-1.37,0.31c-0.44,0.12-0.82,0.24-1.15,0.38v0.5l1.27,0.15v7.56c-0.53,0.14-0.95,0.29-1.27,0.46v0.48
			h4.16V87c-0.37-0.23-0.76-0.38-1.15-0.46v-5.62c0.09-0.27,0.21-0.53,0.37-0.78c0.15-0.25,0.34-0.47,0.55-0.67
			c0.21-0.2,0.46-0.36,0.73-0.47c0.28-0.12,0.57-0.17,0.89-0.17c0.74,0,1.26,0.28,1.54,0.85c0.28,0.56,0.42,1.33,0.42,2.31v4.56
			c-0.41,0.13-0.79,0.28-1.13,0.46v0.48h4.14V87z M218.72,86.07c-0.28-0.3-0.42-0.73-0.42-1.28c0-0.32,0.05-0.61,0.15-0.86
			c0.1-0.25,0.29-0.46,0.56-0.63c0.27-0.17,0.64-0.29,1.12-0.37c0.47-0.08,1.08-0.12,1.83-0.12v2.02c-0.04,0.13-0.11,0.29-0.21,0.47
			c-0.1,0.19-0.24,0.37-0.4,0.55c-0.17,0.18-0.37,0.33-0.62,0.46c-0.24,0.13-0.53,0.19-0.85,0.19
			C219.39,86.52,219.01,86.37,218.72,86.07 M223.64,82.91c0.03-0.71,0.05-1.45,0.05-2.22c0-0.36-0.03-0.72-0.1-1.08
			c-0.07-0.36-0.2-0.69-0.4-0.98c-0.2-0.29-0.5-0.54-0.89-0.72c-0.39-0.19-0.91-0.28-1.57-0.28c-0.73,0-1.39,0.08-1.99,0.25
			c-0.6,0.17-1.14,0.4-1.63,0.69c0.03,0.4,0.09,0.8,0.18,1.21c0.1,0.41,0.21,0.81,0.34,1.19h0.5l0.9-2.31
			c0.22-0.09,0.44-0.14,0.66-0.16c0.22-0.02,0.43-0.03,0.61-0.03c0.38,0,0.7,0.09,0.93,0.26c0.24,0.17,0.42,0.42,0.54,0.73
			c0.12,0.31,0.19,0.69,0.21,1.13c0.02,0.44,0,0.94-0.05,1.49c-0.9,0.05-1.69,0.12-2.37,0.22c-0.68,0.1-1.25,0.25-1.71,0.47
			c-0.46,0.22-0.81,0.52-1.05,0.89c-0.24,0.38-0.36,0.86-0.36,1.45c0,0.77,0.25,1.39,0.74,1.87s1.13,0.71,1.91,0.71
			c0.41,0,0.78-0.06,1.1-0.19c0.32-0.13,0.6-0.29,0.84-0.5c0.24-0.2,0.43-0.44,0.58-0.7c0.15-0.26,0.25-0.52,0.3-0.78h0.1
			c0.01,0.42,0.03,0.81,0.06,1.16c0.03,0.35,0.1,0.68,0.23,0.97h0.48c0.36-0.06,0.73-0.16,1.13-0.29c0.39-0.13,0.75-0.28,1.07-0.44
			v-0.4l-1.33-0.19c-0.01-0.23-0.03-0.45-0.04-0.65c-0.01-0.21-0.02-0.45-0.02-0.73C223.59,84.31,223.61,83.63,223.64,82.91
			 M210.03,87c-0.38-0.18-0.8-0.33-1.25-0.46v-5.47c0.15-0.65,0.4-1.19,0.74-1.62c0.34-0.42,0.82-0.63,1.43-0.63
			c0.38,0,0.69,0.07,0.92,0.2c0.23,0.14,0.41,0.33,0.54,0.58c0.13,0.25,0.21,0.55,0.26,0.91c0.04,0.36,0.07,0.77,0.07,1.23v4.79
			c-0.37,0.1-0.75,0.26-1.13,0.46v0.48h4.14V87c-0.41-0.23-0.83-0.38-1.27-0.46v-4.83c0-0.81-0.06-1.48-0.16-2
			c-0.11-0.53-0.28-0.94-0.51-1.25c-0.23-0.31-0.52-0.52-0.88-0.64c-0.35-0.12-0.77-0.18-1.24-0.18c-0.77,0-1.41,0.22-1.92,0.65
			c-0.51,0.44-0.89,1.01-1.12,1.71c-0.08-0.49-0.2-0.89-0.37-1.19c-0.17-0.31-0.37-0.55-0.62-0.72c-0.24-0.17-0.51-0.29-0.79-0.36
			c-0.28-0.06-0.58-0.1-0.89-0.1c-0.73,0-1.34,0.21-1.84,0.63c-0.49,0.42-0.84,0.94-1.05,1.54h-0.02v-2.17h-0.48
			c-0.41,0.06-0.83,0.15-1.26,0.26c-0.43,0.11-0.85,0.25-1.26,0.43v0.5l1.27,0.15v7.56c-0.23,0.06-0.46,0.13-0.67,0.21
			c-0.22,0.08-0.42,0.16-0.6,0.25v0.48h4.14V87c-0.18-0.1-0.36-0.19-0.55-0.26c-0.19-0.07-0.38-0.14-0.59-0.2v-5.66
			c0.08-0.27,0.18-0.53,0.32-0.77c0.14-0.24,0.29-0.46,0.48-0.65c0.19-0.19,0.4-0.35,0.63-0.46s0.5-0.17,0.78-0.17
			c0.37,0,0.67,0.07,0.91,0.22c0.23,0.15,0.41,0.36,0.53,0.63c0.12,0.28,0.2,0.62,0.25,1.03s0.07,0.87,0.07,1.39v4.45
			c-0.26,0.06-0.48,0.14-0.66,0.22c-0.19,0.08-0.34,0.16-0.47,0.24v0.48h4.12V87z M190.51,85.65c0.14,0.52,0.35,0.93,0.62,1.24
			c0.27,0.31,0.6,0.52,0.99,0.64c0.39,0.12,0.84,0.18,1.36,0.18c0.38,0,0.74-0.07,1.07-0.21c0.33-0.14,0.62-0.32,0.88-0.55
			c0.26-0.22,0.46-0.48,0.63-0.75c0.16-0.28,0.27-0.55,0.34-0.82h0.08l0.13,2.29h0.48c0.41-0.06,0.8-0.16,1.18-0.29
			c0.38-0.13,0.75-0.28,1.13-0.44v-0.4l-1.27-0.15v-8.76h-0.48c-0.41,0.08-0.83,0.17-1.26,0.29c-0.43,0.12-0.84,0.25-1.24,0.4v0.5
			l1.25,0.15v5.29c-0.22,0.67-0.52,1.21-0.91,1.63c-0.39,0.42-0.88,0.63-1.45,0.63c-0.4,0-0.72-0.07-0.98-0.22
			c-0.26-0.15-0.46-0.36-0.61-0.63c-0.15-0.27-0.25-0.6-0.31-1c-0.06-0.4-0.09-0.85-0.09-1.35c0-0.94,0.02-1.88,0.06-2.83
			c0.04-0.95,0.06-1.9,0.06-2.87h-0.48c-0.41,0.08-0.83,0.17-1.26,0.29c-0.43,0.12-0.85,0.25-1.26,0.4v0.5l1.27,0.15
			c0,0.77-0.02,1.54-0.06,2.32c-0.04,0.78-0.06,1.57-0.06,2.38C190.3,84.47,190.37,85.13,190.51,85.65 M181.74,79.21
			c0.31,0.49,0.46,1.14,0.46,1.96c0,0.1,0,0.21-0.01,0.32c-0.01,0.11-0.02,0.22-0.03,0.34h-4.23c0.08-1.24,0.31-2.11,0.69-2.61
			c0.38-0.49,0.94-0.74,1.67-0.74C180.95,78.48,181.43,78.72,181.74,79.21 M183.55,85.83c-0.23,0.21-0.58,0.37-1.04,0.5
			c-0.46,0.13-0.92,0.19-1.37,0.19c-0.55,0-1.03-0.1-1.44-0.3c-0.41-0.2-0.75-0.47-1.02-0.82c-0.27-0.35-0.47-0.75-0.61-1.22
			c-0.13-0.47-0.2-0.97-0.2-1.51h6c0.05-0.26,0.09-0.5,0.11-0.72c0.02-0.22,0.03-0.45,0.03-0.66c0-0.69-0.11-1.27-0.32-1.74
			c-0.21-0.47-0.49-0.84-0.83-1.13c-0.34-0.28-0.73-0.48-1.17-0.61c-0.44-0.12-0.88-0.18-1.33-0.18c-1.39,0-2.46,0.43-3.21,1.29
			c-0.76,0.86-1.13,2.11-1.13,3.75c0,0.77,0.1,1.46,0.3,2.08c0.2,0.62,0.49,1.15,0.88,1.59c0.38,0.44,0.87,0.78,1.44,1.02
			c0.58,0.24,1.24,0.36,2,0.36c0.35,0,0.69-0.04,1.02-0.12c0.33-0.08,0.64-0.2,0.92-0.34c0.28-0.14,0.53-0.31,0.75-0.5
			c0.22-0.19,0.38-0.4,0.48-0.62L183.55,85.83z M172.44,86.41c-0.35,0.31-0.8,0.46-1.37,0.46c-0.17,0-0.35-0.01-0.55-0.02
			c-0.2-0.01-0.37-0.07-0.51-0.17l-0.85-2.1h-0.48c-0.14,0.4-0.26,0.81-0.35,1.24c-0.09,0.43-0.15,0.88-0.17,1.34
			c0.5,0.18,0.98,0.32,1.44,0.41c0.46,0.1,0.97,0.14,1.52,0.14c0.49,0,0.95-0.07,1.38-0.2c0.43-0.13,0.81-0.32,1.14-0.57
			c0.33-0.24,0.58-0.54,0.77-0.89c0.19-0.35,0.28-0.74,0.28-1.17c0-0.48-0.11-0.88-0.34-1.22c-0.22-0.34-0.51-0.64-0.86-0.89
			c-0.35-0.26-0.72-0.49-1.11-0.69c-0.39-0.21-0.76-0.41-1.11-0.63c-0.35-0.21-0.63-0.44-0.86-0.69c-0.22-0.25-0.34-0.55-0.34-0.89
			c0-0.17,0.03-0.33,0.1-0.5c0.06-0.17,0.16-0.31,0.28-0.44c0.12-0.13,0.27-0.23,0.44-0.32c0.17-0.08,0.37-0.12,0.61-0.12
			c0.21,0,0.4,0.01,0.6,0.03c0.19,0.02,0.37,0.06,0.52,0.12l0.73,1.96h0.48c0.13-0.44,0.23-0.86,0.3-1.28
			c0.07-0.42,0.13-0.83,0.18-1.24c-0.41-0.14-0.84-0.25-1.28-0.33c-0.44-0.08-1.01-0.12-1.7-0.12c-0.41,0-0.8,0.06-1.15,0.18
			c-0.36,0.12-0.67,0.29-0.94,0.5c-0.27,0.21-0.48,0.46-0.64,0.76c-0.16,0.3-0.24,0.62-0.24,0.96c0,0.53,0.11,0.97,0.34,1.33
			c0.22,0.36,0.51,0.68,0.86,0.95s0.72,0.52,1.11,0.72c0.39,0.2,0.76,0.42,1.11,0.63c0.35,0.22,0.63,0.45,0.86,0.7
			c0.22,0.25,0.34,0.56,0.34,0.91C172.96,85.73,172.79,86.1,172.44,86.41 M167.54,79.31v-0.5c-0.07-0.22-0.13-0.43-0.2-0.63
			c-0.07-0.2-0.15-0.38-0.24-0.55c-0.35-0.04-0.68,0-1.01,0.11c-0.33,0.11-0.63,0.27-0.9,0.47c-0.28,0.21-0.52,0.44-0.73,0.69
			c-0.21,0.26-0.37,0.51-0.49,0.77h-0.08v-2.04h-0.48c-0.4,0.06-0.81,0.15-1.25,0.26c-0.44,0.11-0.86,0.25-1.27,0.43v0.5l1.27,0.15
			v7.56c-0.21,0.05-0.41,0.11-0.62,0.17c-0.21,0.07-0.42,0.16-0.65,0.29v0.48h4.54V87c-0.26-0.14-0.51-0.25-0.77-0.32
			c-0.26-0.07-0.51-0.12-0.77-0.14v-5.72c0.17-0.46,0.36-0.81,0.57-1.05c0.21-0.24,0.39-0.4,0.53-0.47H167.54z M153.35,79.5
			c0.46-0.68,1.07-1.02,1.83-1.02c0.5,0,0.93,0.11,1.29,0.33c0.36,0.22,0.65,0.52,0.89,0.9s0.4,0.82,0.51,1.33
			c0.11,0.51,0.16,1.06,0.16,1.65c0,1.44-0.22,2.49-0.66,3.18c-0.44,0.68-1.01,1.02-1.7,1.02c-0.54,0-1-0.11-1.39-0.33
			c-0.38-0.22-0.7-0.52-0.93-0.9c-0.24-0.38-0.41-0.82-0.52-1.34c-0.11-0.51-0.16-1.06-0.16-1.64
			C152.66,81.24,152.89,80.18,153.35,79.5 M151.09,84.74c0.19,0.62,0.46,1.15,0.84,1.6c0.37,0.44,0.84,0.78,1.4,1.02
			c0.56,0.24,1.23,0.36,2,0.36c1.39,0,2.49-0.44,3.31-1.31c0.82-0.87,1.23-2.12,1.23-3.73c0-0.76-0.09-1.44-0.26-2.06
			c-0.17-0.62-0.44-1.14-0.81-1.59c-0.37-0.44-0.84-0.79-1.41-1.03c-0.58-0.24-1.26-0.36-2.06-0.36c-0.68,0-1.3,0.11-1.86,0.34
			c-0.56,0.22-1.04,0.55-1.43,0.98c-0.4,0.43-0.7,0.96-0.91,1.58c-0.21,0.62-0.32,1.34-0.32,2.15
			C150.81,83.43,150.91,84.12,151.09,84.74 M147.23,86.41c-0.35,0.31-0.8,0.46-1.37,0.46c-0.17,0-0.35-0.01-0.55-0.02
			c-0.2-0.01-0.37-0.07-0.51-0.17l-0.85-2.1h-0.48c-0.14,0.4-0.26,0.81-0.35,1.24c-0.09,0.43-0.15,0.88-0.17,1.34
			c0.5,0.18,0.98,0.32,1.44,0.41c0.46,0.1,0.97,0.14,1.52,0.14c0.49,0,0.95-0.07,1.38-0.2c0.43-0.13,0.81-0.32,1.14-0.57
			c0.33-0.24,0.58-0.54,0.77-0.89c0.19-0.35,0.28-0.74,0.28-1.17c0-0.48-0.11-0.88-0.34-1.22c-0.22-0.34-0.51-0.64-0.86-0.89
			c-0.35-0.26-0.72-0.49-1.11-0.69c-0.39-0.21-0.76-0.41-1.11-0.63c-0.35-0.21-0.63-0.44-0.86-0.69c-0.22-0.25-0.34-0.55-0.34-0.89
			c0-0.17,0.03-0.33,0.1-0.5c0.06-0.17,0.16-0.31,0.28-0.44c0.12-0.13,0.27-0.23,0.44-0.32c0.17-0.08,0.37-0.12,0.61-0.12
			c0.21,0,0.4,0.01,0.6,0.03c0.19,0.02,0.36,0.06,0.52,0.12l0.73,1.96h0.48c0.13-0.44,0.23-0.86,0.3-1.28
			c0.07-0.42,0.13-0.83,0.18-1.24c-0.41-0.14-0.84-0.25-1.28-0.33c-0.44-0.08-1.01-0.12-1.7-0.12c-0.41,0-0.8,0.06-1.15,0.18
			c-0.36,0.12-0.67,0.29-0.94,0.5c-0.27,0.21-0.48,0.46-0.64,0.76c-0.16,0.3-0.24,0.62-0.24,0.96c0,0.53,0.11,0.97,0.34,1.33
			c0.22,0.36,0.51,0.68,0.86,0.95s0.72,0.52,1.11,0.72c0.39,0.2,0.76,0.42,1.11,0.63c0.35,0.22,0.63,0.45,0.86,0.7
			c0.22,0.25,0.34,0.56,0.34,0.91C147.75,85.73,147.58,86.1,147.23,86.41 M138.7,75.41c0.22,0.2,0.52,0.3,0.9,0.3
			c0.37,0,0.67-0.1,0.89-0.3c0.22-0.2,0.33-0.47,0.33-0.82c0-0.35-0.11-0.62-0.33-0.83c-0.22-0.2-0.51-0.31-0.89-0.31
			c-0.37,0-0.67,0.1-0.9,0.31c-0.22,0.21-0.34,0.48-0.34,0.83C138.36,74.94,138.47,75.21,138.7,75.41 M141.73,87
			c-0.18-0.1-0.37-0.19-0.58-0.26c-0.21-0.07-0.44-0.14-0.69-0.2v-8.91h-0.48c-0.44,0.08-0.87,0.17-1.31,0.29
			c-0.44,0.12-0.84,0.25-1.21,0.4v0.5l1.27,0.15v7.56c-0.24,0.06-0.47,0.13-0.67,0.2c-0.2,0.07-0.4,0.16-0.6,0.26v0.48h4.27V87z
			 M132.22,75.53c0.55,0.45,0.83,1.14,0.83,2.08c0,0.92-0.26,1.66-0.78,2.22c-0.52,0.56-1.22,0.84-2.11,0.84h-1.39v-5.72
			c0.17-0.04,0.35-0.06,0.55-0.08c0.2-0.01,0.45-0.02,0.76-0.02C130.96,74.86,131.67,75.08,132.22,75.53 M128.78,81.52h1.81
			c0.23,0.51,0.46,1,0.68,1.45c0.22,0.46,0.46,0.9,0.72,1.35c0.26,0.44,0.53,0.88,0.83,1.31c0.29,0.43,0.62,0.87,0.98,1.32
			l0.73,0.54h2.34V87l-1.05-0.56c-0.65-0.85-1.28-1.7-1.89-2.56c-0.6-0.86-1.18-1.73-1.73-2.6c0.85-0.27,1.52-0.71,2.02-1.33
			c0.5-0.62,0.74-1.39,0.74-2.33c0-0.67-0.11-1.24-0.34-1.71c-0.23-0.47-0.54-0.87-0.94-1.17c-0.4-0.31-0.87-0.53-1.42-0.67
			c-0.55-0.14-1.13-0.21-1.76-0.21c-0.58,0-1.17,0.03-1.78,0.08c-0.61,0.05-1.17,0.08-1.69,0.08h-1.69v0.56
			c0.2,0.09,0.44,0.18,0.69,0.26c0.26,0.08,0.55,0.16,0.89,0.22v11.41c-0.26,0.05-0.51,0.11-0.77,0.17
			c-0.26,0.07-0.53,0.16-0.81,0.29v0.56h5.06v-0.56c-0.26-0.1-0.52-0.19-0.79-0.26s-0.55-0.14-0.85-0.2V81.52z"/>
		<path style="clip-path:url(#SVGID_00000166652586029678618020000008061092220260094615_);fill:#BE421D;" d="M57.52,11.57
			c-25.42,0-46.09,20.75-46.09,46.26c0,25.51,20.68,46.26,46.09,46.26c25.42,0,46.09-20.75,46.09-46.26
			C103.62,32.32,82.94,11.57,57.52,11.57 M57.52,110.66c-29.02,0-52.63-23.7-52.63-52.82S28.5,5.01,57.52,5.01
			s52.63,23.7,52.63,52.82S86.55,110.66,57.52,110.66"/>
	</g>
</g>
</svg>
