<?xml version="1.0" encoding="utf-8"?>
<!-- Generator: Adobe Illustrator 24.1.0, SVG Export Plug-In . SVG Version: 6.00 Build 0)  -->
<svg version="1.1" id="Livello_1" xmlns="http://www.w3.org/2000/svg" xmlns:xlink="http://www.w3.org/1999/xlink" x="0px" y="0px"
	 viewBox="0 0 500 100" style="enable-background:new 0 0 500 100;" xml:space="preserve">
<style type="text/css">
	.st0{fill:none;stroke:#07465D;stroke-width:1.22;}
	.st1{fill:#D78300;}
	.st2{fill:#07465D;}
</style>
<g>
	<line class="st0" x1="40.27" y1="66.88" x2="81.92" y2="66.88"/>
	<line class="st0" x1="419.4" y1="66.88" x2="461.06" y2="66.88"/>
	<path class="st1" d="M389.79,65.63c0.23,0.62,0.3,1.5,0.2,2.65h-3.54c0.04-0.71,0.12-1.29,0.22-1.76c0.1-0.46,0.24-0.83,0.41-1.1
		c0.17-0.27,0.37-0.46,0.59-0.56c0.23-0.1,0.49-0.15,0.78-0.15C389.1,64.7,389.55,65.01,389.79,65.63 M392.59,72.46
		c-0.29,0.24-0.7,0.43-1.23,0.58c-0.52,0.15-1.03,0.22-1.51,0.22c-1.14,0-1.99-0.35-2.57-1.04c-0.58-0.69-0.88-1.62-0.89-2.78h6.78
		c0.19-1.1,0.2-2.04,0.03-2.81s-0.47-1.39-0.91-1.86c-0.44-0.47-0.98-0.81-1.64-1.02c-0.66-0.21-1.36-0.31-2.11-0.31
		c-1.75,0-3.12,0.49-4.11,1.48c-0.99,0.99-1.48,2.42-1.48,4.31c0,0.88,0.12,1.68,0.37,2.39c0.24,0.71,0.6,1.32,1.07,1.82
		c0.47,0.51,1.06,0.9,1.77,1.17c0.71,0.27,1.52,0.41,2.43,0.41c0.57,0,1.11-0.06,1.6-0.19c0.49-0.12,0.93-0.29,1.3-0.49
		c0.38-0.2,0.69-0.43,0.95-0.69c0.26-0.26,0.44-0.51,0.56-0.76L392.59,72.46z M381.94,73.92c-0.49-0.24-0.97-0.41-1.46-0.53V58.14
		h-0.75c-0.31,0.03-0.66,0.07-1.05,0.12c-0.39,0.05-0.78,0.11-1.17,0.18c-0.39,0.07-0.76,0.14-1.09,0.23
		c-0.34,0.09-0.6,0.18-0.8,0.27v0.84l1.68,0.18v13.44c-0.49,0.12-0.97,0.3-1.46,0.53v0.84h6.1V73.92z M367.37,72.79
		c-0.27-0.31-0.4-0.74-0.4-1.3c0-0.37,0.05-0.68,0.14-0.94c0.1-0.26,0.27-0.47,0.52-0.64c0.25-0.17,0.6-0.29,1.04-0.36
		c0.44-0.07,1.01-0.12,1.7-0.13v2.21c-0.04,0.15-0.11,0.32-0.19,0.51c-0.08,0.19-0.2,0.37-0.35,0.53s-0.34,0.3-0.56,0.42
		c-0.22,0.12-0.49,0.18-0.8,0.18C368.01,73.26,367.64,73.1,367.37,72.79 M373.51,69.36c0.04-0.72,0.06-1.51,0.06-2.4
		c0-0.49-0.06-0.94-0.18-1.37c-0.12-0.43-0.33-0.8-0.63-1.12c-0.3-0.32-0.72-0.57-1.25-0.75c-0.53-0.18-1.22-0.28-2.06-0.28
		c-0.99,0-1.92,0.11-2.81,0.33s-1.61,0.52-2.17,0.91c0.03,0.25,0.08,0.51,0.14,0.77c0.07,0.27,0.15,0.53,0.24,0.78
		c0.1,0.26,0.2,0.5,0.31,0.73c0.11,0.23,0.22,0.43,0.34,0.61h0.97l1.04-2.65c0.38-0.15,0.8-0.22,1.26-0.22
		c0.74,0,1.22,0.29,1.44,0.88c0.22,0.59,0.27,1.52,0.15,2.78c-1.21,0.06-2.24,0.15-3.08,0.29c-0.85,0.13-1.54,0.34-2.08,0.61
		c-0.54,0.27-0.93,0.62-1.18,1.05c-0.25,0.43-0.38,0.97-0.38,1.64c0,0.47,0.09,0.89,0.27,1.27c0.18,0.37,0.42,0.7,0.73,0.96
		c0.31,0.27,0.67,0.47,1.08,0.62c0.41,0.15,0.86,0.22,1.35,0.22c0.46,0,0.87-0.07,1.24-0.2c0.37-0.13,0.69-0.3,0.96-0.52
		c0.27-0.21,0.5-0.46,0.67-0.73c0.18-0.27,0.3-0.56,0.38-0.85h0.11c0.01,0.49,0.04,0.9,0.07,1.24c0.03,0.34,0.12,0.68,0.27,1.02
		h0.75c0.25-0.03,0.54-0.07,0.86-0.12s0.65-0.12,0.98-0.2c0.33-0.08,0.65-0.16,0.95-0.25c0.3-0.09,0.54-0.18,0.72-0.27v-0.77
		l-1.53-0.22c-0.03-0.27-0.05-0.52-0.06-0.75c-0.01-0.23-0.01-0.51-0.01-0.84C373.45,70.81,373.47,70.07,373.51,69.36 M362.31,72.51
		c-0.26,0.21-0.59,0.38-0.97,0.53c-0.38,0.15-0.83,0.22-1.35,0.22c-0.56,0-1.05-0.11-1.46-0.32c-0.41-0.21-0.76-0.51-1.03-0.88
		c-0.27-0.38-0.47-0.82-0.61-1.33c-0.13-0.51-0.2-1.06-0.2-1.67c0-0.82,0.05-1.52,0.14-2.08c0.1-0.56,0.24-1.01,0.44-1.35
		c0.2-0.34,0.44-0.58,0.72-0.72c0.28-0.14,0.61-0.21,0.99-0.21c0.24,0,0.41,0.02,0.53,0.06c0.12,0.04,0.23,0.09,0.33,0.17l0.93,2.63
		h1.08c0.09-0.19,0.18-0.43,0.27-0.72c0.09-0.29,0.16-0.58,0.23-0.88c0.07-0.3,0.13-0.6,0.18-0.91c0.05-0.3,0.09-0.58,0.12-0.83
		c-0.4-0.21-0.9-0.39-1.5-0.54c-0.6-0.15-1.27-0.23-1.99-0.23c-1.89,0-3.34,0.5-4.36,1.49c-1.03,0.99-1.54,2.43-1.54,4.3
		c0,0.87,0.11,1.66,0.33,2.38c0.22,0.71,0.56,1.33,1.02,1.83c0.46,0.51,1.03,0.9,1.73,1.17c0.7,0.27,1.54,0.41,2.51,0.41
		c0.46,0,0.9-0.05,1.32-0.15c0.42-0.1,0.8-0.25,1.13-0.44c0.33-0.19,0.62-0.41,0.85-0.65c0.23-0.24,0.4-0.51,0.51-0.81L362.31,72.51
		z M343.93,67.15c0.1-0.57,0.24-1.02,0.43-1.37c0.19-0.35,0.43-0.6,0.71-0.75c0.28-0.15,0.61-0.23,1-0.23
		c0.52,0,0.94,0.11,1.28,0.32c0.34,0.21,0.61,0.51,0.81,0.89c0.2,0.38,0.34,0.85,0.42,1.39c0.08,0.55,0.12,1.16,0.12,1.84
		c0,0.82-0.05,1.52-0.14,2.09c-0.1,0.57-0.24,1.02-0.43,1.37s-0.42,0.6-0.68,0.75c-0.27,0.15-0.56,0.23-0.88,0.23
		c-0.56,0-1.02-0.11-1.37-0.32c-0.35-0.21-0.63-0.51-0.84-0.89c-0.21-0.38-0.35-0.85-0.43-1.4c-0.08-0.55-0.12-1.16-0.12-1.82
		C343.79,68.41,343.84,67.71,343.93,67.15 M340.72,71.57c0.24,0.72,0.6,1.33,1.08,1.83c0.49,0.51,1.1,0.91,1.84,1.19
		c0.74,0.29,1.61,0.43,2.61,0.43c0.91,0,1.73-0.13,2.46-0.4c0.73-0.26,1.35-0.65,1.86-1.15c0.51-0.5,0.89-1.11,1.16-1.82
		s0.4-1.52,0.4-2.42c0-0.84-0.11-1.62-0.33-2.33c-0.22-0.72-0.57-1.33-1.05-1.84c-0.48-0.51-1.09-0.91-1.84-1.19
		c-0.74-0.29-1.63-0.43-2.66-0.43c-0.91,0-1.73,0.13-2.45,0.4c-0.72,0.27-1.34,0.65-1.85,1.15c-0.51,0.5-0.9,1.11-1.17,1.82
		c-0.27,0.71-0.41,1.52-0.41,2.42C340.37,70.08,340.48,70.85,340.72,71.57 M339.35,73.92c-0.49-0.24-0.97-0.41-1.46-0.53V58.14
		h-0.75c-0.31,0.03-0.66,0.07-1.05,0.12c-0.39,0.05-0.78,0.11-1.17,0.18c-0.39,0.07-0.76,0.14-1.09,0.23
		c-0.34,0.09-0.6,0.18-0.8,0.27v0.84l1.68,0.18v13.44c-0.49,0.12-0.97,0.3-1.46,0.53v0.84h6.1V73.92z M317.82,64.15l0.49-1.95h0.04
		l0.42,1.9l1.44,4.22h-3.91L317.82,64.15z M316.39,73.92c-0.6-0.34-1.25-0.55-1.92-0.64l1.3-3.52h4.91l1.28,3.52
		c-0.29,0.06-0.6,0.15-0.93,0.26c-0.32,0.12-0.63,0.24-0.91,0.38v0.84h6.92v-0.84c-0.22-0.15-0.48-0.28-0.77-0.39
		s-0.59-0.19-0.88-0.25l-5.55-14.26h-1.64l-5.7,14.26c-0.26,0.06-0.53,0.14-0.81,0.25s-0.53,0.24-0.76,0.39v0.84h5.46V73.92z
		 M307.94,61.39c0.58,0.56,0.86,1.43,0.86,2.61c0,0.62-0.09,1.15-0.26,1.59c-0.18,0.44-0.41,0.8-0.7,1.08
		c-0.29,0.28-0.62,0.49-0.98,0.62c-0.37,0.13-0.75,0.2-1.15,0.2c-0.16,0-0.38,0-0.64-0.01c-0.26-0.01-0.46-0.03-0.6-0.08v-6.72
		c0.16-0.04,0.33-0.08,0.5-0.1c0.17-0.02,0.4-0.03,0.7-0.03C306.61,60.55,307.37,60.83,307.94,61.39 M304.47,68.86
		c0.07,0.01,0.2,0.03,0.37,0.03c0.17,0.01,0.35,0.01,0.53,0.02c0.18,0.01,0.36,0.01,0.52,0.01h0.35c0.8,0,1.57-0.1,2.32-0.3
		c0.75-0.2,1.41-0.5,1.99-0.92c0.58-0.41,1.03-0.94,1.38-1.57c0.35-0.63,0.52-1.38,0.52-2.25c0-0.91-0.18-1.68-0.53-2.29
		c-0.35-0.61-0.82-1.1-1.4-1.47c-0.58-0.37-1.25-0.63-1.99-0.78c-0.74-0.15-1.51-0.23-2.29-0.23c-0.63,0-1.33,0.03-2.09,0.09
		c-0.76,0.06-1.43,0.09-2.02,0.09h-2.79v0.84c0.25,0.15,0.53,0.28,0.84,0.39c0.31,0.11,0.63,0.2,0.97,0.25v12.51
		c-0.29,0.06-0.6,0.14-0.92,0.24c-0.32,0.1-0.61,0.24-0.89,0.4v0.84h7.36v-0.84c-0.31-0.15-0.66-0.28-1.05-0.39
		c-0.39-0.11-0.78-0.19-1.18-0.25V68.86z M285.38,72.79c-0.27-0.31-0.4-0.74-0.4-1.3c0-0.37,0.05-0.68,0.14-0.94
		c0.1-0.26,0.27-0.47,0.52-0.64c0.25-0.17,0.6-0.29,1.04-0.36c0.44-0.07,1.01-0.12,1.7-0.13v2.21c-0.04,0.15-0.11,0.32-0.19,0.51
		c-0.08,0.19-0.2,0.37-0.35,0.53c-0.15,0.16-0.34,0.3-0.56,0.42c-0.22,0.12-0.49,0.18-0.8,0.18
		C286.01,73.26,285.64,73.1,285.38,72.79 M291.51,69.36c0.04-0.72,0.06-1.51,0.06-2.4c0-0.49-0.06-0.94-0.18-1.37
		c-0.12-0.43-0.33-0.8-0.63-1.12c-0.3-0.32-0.72-0.57-1.25-0.75c-0.53-0.18-1.22-0.28-2.06-0.28c-0.99,0-1.92,0.11-2.81,0.33
		c-0.88,0.22-1.61,0.52-2.17,0.91c0.03,0.25,0.08,0.51,0.14,0.77c0.07,0.27,0.15,0.53,0.24,0.78c0.1,0.26,0.2,0.5,0.31,0.73
		c0.11,0.23,0.22,0.43,0.34,0.61h0.97l1.04-2.65c0.38-0.15,0.8-0.22,1.26-0.22c0.74,0,1.22,0.29,1.44,0.88
		c0.22,0.59,0.27,1.52,0.15,2.78c-1.21,0.06-2.24,0.15-3.08,0.29c-0.85,0.13-1.54,0.34-2.08,0.61c-0.54,0.27-0.93,0.62-1.18,1.05
		c-0.25,0.43-0.37,0.97-0.37,1.64c0,0.47,0.09,0.89,0.26,1.27c0.18,0.37,0.42,0.7,0.73,0.96c0.31,0.27,0.67,0.47,1.08,0.62
		c0.41,0.15,0.86,0.22,1.35,0.22c0.46,0,0.87-0.07,1.24-0.2c0.37-0.13,0.69-0.3,0.96-0.52c0.27-0.21,0.5-0.46,0.67-0.73
		c0.18-0.27,0.3-0.56,0.37-0.85h0.11c0.01,0.49,0.04,0.9,0.07,1.24c0.03,0.34,0.12,0.68,0.27,1.02h0.75
		c0.25-0.03,0.54-0.07,0.86-0.12c0.32-0.05,0.65-0.12,0.98-0.2c0.33-0.08,0.65-0.16,0.95-0.25c0.3-0.09,0.54-0.18,0.72-0.27v-0.77
		l-1.52-0.22c-0.03-0.27-0.05-0.52-0.06-0.75c-0.01-0.23-0.01-0.51-0.01-0.84C291.46,70.81,291.47,70.07,291.51,69.36 M280.74,73.92
		c-0.49-0.24-0.97-0.41-1.46-0.53V58.14h-0.75c-0.31,0.03-0.66,0.07-1.05,0.12c-0.39,0.05-0.78,0.11-1.17,0.18
		c-0.39,0.07-0.75,0.14-1.09,0.23c-0.34,0.09-0.6,0.18-0.8,0.27v0.84l1.68,0.18v13.44c-0.49,0.12-0.97,0.3-1.46,0.53v0.84h6.1V73.92
		z M273.62,73.92c-0.49-0.24-0.97-0.41-1.46-0.53V58.14h-0.75c-0.31,0.03-0.66,0.07-1.05,0.12c-0.39,0.05-0.78,0.11-1.17,0.18
		c-0.39,0.07-0.75,0.14-1.09,0.23c-0.34,0.09-0.6,0.18-0.8,0.27v0.84l1.68,0.18v13.44c-0.49,0.12-0.97,0.3-1.46,0.53v0.84h6.1V73.92
		z M262.7,65.63c0.23,0.62,0.3,1.5,0.2,2.65h-3.54c0.04-0.71,0.12-1.29,0.22-1.76c0.1-0.46,0.24-0.83,0.41-1.1
		c0.17-0.27,0.37-0.46,0.59-0.56c0.23-0.1,0.49-0.15,0.78-0.15C262.02,64.7,262.47,65.01,262.7,65.63 M265.51,72.46
		c-0.29,0.24-0.7,0.43-1.23,0.58c-0.52,0.15-1.03,0.22-1.51,0.22c-1.14,0-1.99-0.35-2.57-1.04c-0.58-0.69-0.88-1.62-0.9-2.78h6.79
		c0.19-1.1,0.2-2.04,0.03-2.81s-0.47-1.39-0.91-1.86c-0.44-0.47-0.98-0.81-1.64-1.02c-0.66-0.21-1.36-0.31-2.11-0.31
		c-1.75,0-3.12,0.49-4.11,1.48c-0.99,0.99-1.48,2.42-1.48,4.31c0,0.88,0.12,1.68,0.37,2.39c0.24,0.71,0.6,1.32,1.07,1.82
		c0.47,0.51,1.06,0.9,1.77,1.17c0.71,0.27,1.52,0.41,2.43,0.41c0.57,0,1.11-0.06,1.6-0.19c0.49-0.12,0.93-0.29,1.3-0.49
		c0.38-0.2,0.69-0.43,0.95-0.69c0.26-0.26,0.44-0.51,0.56-0.76L265.51,72.46z M246.77,72.17c-0.32-0.72-0.49-1.68-0.49-2.87
		c0-1.47,0.18-2.6,0.55-3.37c0.37-0.77,0.98-1.16,1.83-1.16c0.43,0,0.78,0.04,1.07,0.11c0.29,0.07,0.53,0.17,0.72,0.29v5.95
		c-0.16,0.78-0.42,1.33-0.77,1.66c-0.35,0.32-0.79,0.49-1.3,0.49C247.63,73.26,247.09,72.9,246.77,72.17 M250.48,72.57l0.2,2.41
		h0.75c0.22-0.03,0.5-0.07,0.83-0.12s0.67-0.11,1.03-0.19c0.35-0.07,0.69-0.15,1.02-0.24c0.32-0.09,0.59-0.18,0.8-0.29v-0.77
		l-1.46-0.18V58.14h-0.75c-0.25,0.04-0.57,0.1-0.95,0.15c-0.38,0.06-0.77,0.12-1.17,0.19c-0.4,0.07-0.78,0.14-1.14,0.21
		c-0.36,0.07-0.64,0.15-0.85,0.24v0.84l1.68,0.18v3.91c-0.18-0.06-0.34-0.11-0.48-0.17c-0.14-0.05-0.29-0.09-0.44-0.11
		c-0.15-0.02-0.32-0.04-0.51-0.06c-0.18-0.01-0.41-0.02-0.67-0.02c-0.82,0-1.58,0.13-2.25,0.38c-0.68,0.25-1.26,0.63-1.73,1.13
		c-0.48,0.5-0.85,1.12-1.12,1.85c-0.26,0.73-0.4,1.58-0.4,2.55c0,1.9,0.38,3.31,1.14,4.23c0.76,0.92,1.87,1.38,3.33,1.38
		c0.38,0,0.74-0.07,1.08-0.2c0.34-0.13,0.64-0.31,0.91-0.54c0.26-0.23,0.49-0.49,0.68-0.79c0.19-0.29,0.32-0.6,0.4-0.93H250.48z
		 M227.77,67.15c0.1-0.57,0.24-1.02,0.43-1.37c0.19-0.35,0.43-0.6,0.71-0.75c0.28-0.15,0.61-0.23,0.99-0.23
		c0.52,0,0.94,0.11,1.28,0.32c0.34,0.21,0.61,0.51,0.81,0.89c0.2,0.38,0.34,0.85,0.42,1.39c0.08,0.55,0.12,1.16,0.12,1.84
		c0,0.82-0.05,1.52-0.14,2.09c-0.1,0.57-0.24,1.02-0.43,1.37c-0.19,0.35-0.42,0.6-0.69,0.75c-0.26,0.15-0.56,0.23-0.88,0.23
		c-0.56,0-1.02-0.11-1.37-0.32c-0.35-0.21-0.63-0.51-0.84-0.89c-0.21-0.38-0.35-0.85-0.43-1.4c-0.08-0.55-0.12-1.16-0.12-1.82
		C227.63,68.41,227.67,67.71,227.77,67.15 M224.56,71.57c0.23,0.72,0.6,1.33,1.08,1.83c0.49,0.51,1.1,0.91,1.83,1.19
		c0.74,0.29,1.61,0.43,2.61,0.43c0.91,0,1.74-0.13,2.46-0.4c0.73-0.26,1.35-0.65,1.86-1.15c0.51-0.5,0.89-1.11,1.16-1.82
		s0.4-1.52,0.4-2.42c0-0.84-0.11-1.62-0.33-2.33c-0.22-0.72-0.57-1.33-1.05-1.84c-0.48-0.51-1.09-0.91-1.84-1.19
		s-1.63-0.43-2.66-0.43c-0.91,0-1.73,0.13-2.45,0.4c-0.72,0.27-1.34,0.65-1.84,1.15c-0.51,0.5-0.9,1.11-1.17,1.82
		c-0.27,0.71-0.41,1.52-0.41,2.42C224.2,70.08,224.32,70.85,224.56,71.57 M223.47,73.92c-0.38-0.25-0.87-0.43-1.46-0.53V68.1
		c0-0.92-0.08-1.67-0.25-2.27c-0.17-0.6-0.41-1.07-0.73-1.43c-0.32-0.35-0.7-0.6-1.16-0.74c-0.46-0.14-0.97-0.21-1.55-0.21
		c-0.88,0-1.64,0.22-2.25,0.67c-0.62,0.45-1.08,0.98-1.39,1.6h-0.02v-2.28h-0.75c-0.31,0.03-0.65,0.07-1.03,0.12
		c-0.37,0.05-0.74,0.11-1.1,0.19c-0.36,0.07-0.7,0.15-1.01,0.23c-0.31,0.08-0.56,0.17-0.75,0.25v0.84l1.46,0.18v8.13
		c-0.6,0.16-1.09,0.34-1.46,0.53v0.84h5.86v-0.84c-0.21-0.13-0.4-0.24-0.59-0.32c-0.18-0.08-0.39-0.15-0.63-0.21v-6.16
		c0.21-0.62,0.51-1.11,0.92-1.47c0.41-0.36,0.89-0.54,1.45-0.54c0.68,0,1.15,0.26,1.41,0.79c0.27,0.52,0.4,1.25,0.4,2.18v5.21
		c-0.25,0.09-0.47,0.17-0.65,0.26c-0.18,0.08-0.37,0.17-0.56,0.28v0.84h5.86V73.92z M201.72,72.79c-0.26-0.31-0.4-0.74-0.4-1.3
		c0-0.37,0.05-0.68,0.14-0.94c0.09-0.26,0.27-0.47,0.52-0.64c0.25-0.17,0.6-0.29,1.04-0.36c0.44-0.07,1.01-0.12,1.7-0.13v2.21
		c-0.04,0.15-0.11,0.32-0.19,0.51c-0.08,0.19-0.2,0.37-0.35,0.53c-0.15,0.16-0.34,0.3-0.56,0.42c-0.22,0.12-0.49,0.18-0.8,0.18
		C202.36,73.26,201.99,73.1,201.72,72.79 M207.86,69.36c0.04-0.72,0.06-1.51,0.06-2.4c0-0.49-0.06-0.94-0.18-1.37
		c-0.12-0.43-0.33-0.8-0.63-1.12c-0.3-0.32-0.72-0.57-1.25-0.75c-0.53-0.18-1.22-0.28-2.06-0.28c-0.99,0-1.92,0.11-2.81,0.33
		c-0.88,0.22-1.61,0.52-2.17,0.91c0.03,0.25,0.08,0.51,0.14,0.77c0.07,0.27,0.15,0.53,0.24,0.78c0.1,0.26,0.2,0.5,0.31,0.73
		c0.11,0.23,0.22,0.43,0.34,0.61h0.97l1.04-2.65c0.38-0.15,0.8-0.22,1.26-0.22c0.74,0,1.22,0.29,1.44,0.88
		c0.22,0.59,0.27,1.52,0.15,2.78c-1.21,0.06-2.24,0.15-3.08,0.29c-0.85,0.13-1.54,0.34-2.08,0.61c-0.54,0.27-0.93,0.62-1.18,1.05
		c-0.25,0.43-0.38,0.97-0.38,1.64c0,0.47,0.09,0.89,0.27,1.27c0.18,0.37,0.42,0.7,0.73,0.96c0.31,0.27,0.67,0.47,1.08,0.62
		c0.41,0.15,0.86,0.22,1.35,0.22c0.46,0,0.87-0.07,1.24-0.2c0.37-0.13,0.69-0.3,0.96-0.52c0.27-0.21,0.5-0.46,0.67-0.73
		c0.18-0.27,0.3-0.56,0.38-0.85h0.11c0.01,0.49,0.04,0.9,0.07,1.24c0.03,0.34,0.12,0.68,0.27,1.02h0.75
		c0.25-0.03,0.54-0.07,0.86-0.12c0.32-0.05,0.65-0.12,0.98-0.2c0.33-0.08,0.65-0.16,0.95-0.25c0.3-0.09,0.54-0.18,0.72-0.27v-0.77
		l-1.53-0.22c-0.03-0.27-0.05-0.52-0.05-0.75c-0.01-0.23-0.01-0.51-0.01-0.84C207.8,70.81,207.82,70.07,207.86,69.36 M192.63,61.28
		c0.35,0.29,0.8,0.44,1.35,0.44c0.55,0,1.01-0.15,1.35-0.44c0.35-0.29,0.52-0.69,0.52-1.19c0-0.51-0.17-0.92-0.52-1.22
		c-0.35-0.29-0.8-0.44-1.35-0.44c-0.55,0-1.01,0.15-1.35,0.44c-0.35,0.29-0.52,0.7-0.52,1.22
		C192.11,60.59,192.29,60.99,192.63,61.28 M197.08,73.92c-0.21-0.12-0.43-0.22-0.66-0.3c-0.24-0.08-0.5-0.16-0.8-0.23v-9.95h-0.75
		c-0.27,0.03-0.57,0.07-0.93,0.12c-0.35,0.05-0.72,0.11-1.08,0.18c-0.37,0.07-0.72,0.14-1.05,0.23c-0.33,0.09-0.61,0.18-0.83,0.27
		v0.84l1.46,0.18v8.13c-0.28,0.07-0.54,0.15-0.77,0.23c-0.24,0.08-0.46,0.18-0.69,0.3v0.84h6.1V73.92z M181.88,72.17
		c-0.32-0.72-0.49-1.68-0.49-2.87c0-1.47,0.18-2.6,0.55-3.37c0.37-0.77,0.98-1.16,1.83-1.16c0.43,0,0.79,0.04,1.07,0.11
		c0.29,0.07,0.53,0.17,0.72,0.29v5.95c-0.16,0.78-0.42,1.33-0.77,1.66c-0.35,0.32-0.79,0.49-1.3,0.49
		C182.74,73.26,182.2,72.9,181.88,72.17 M185.59,72.57l0.2,2.41h0.75c0.22-0.03,0.5-0.07,0.83-0.12c0.33-0.05,0.67-0.11,1.03-0.19
		c0.35-0.07,0.69-0.15,1.02-0.24c0.32-0.09,0.59-0.18,0.8-0.29v-0.77l-1.46-0.18V58.14H188c-0.25,0.04-0.57,0.1-0.95,0.15
		c-0.38,0.06-0.77,0.12-1.17,0.19c-0.4,0.07-0.78,0.14-1.14,0.21c-0.36,0.07-0.64,0.15-0.85,0.24v0.84l1.68,0.18v3.91
		c-0.18-0.06-0.34-0.11-0.48-0.17c-0.14-0.05-0.29-0.09-0.44-0.11c-0.15-0.02-0.32-0.04-0.51-0.06c-0.18-0.01-0.41-0.02-0.67-0.02
		c-0.82,0-1.58,0.13-2.25,0.38c-0.68,0.25-1.26,0.63-1.73,1.13c-0.48,0.5-0.85,1.12-1.12,1.85c-0.27,0.73-0.4,1.58-0.4,2.55
		c0,1.9,0.38,3.31,1.14,4.23c0.76,0.92,1.87,1.38,3.33,1.38c0.38,0,0.74-0.07,1.08-0.2c0.34-0.13,0.64-0.31,0.91-0.54
		c0.26-0.23,0.49-0.49,0.68-0.79c0.19-0.29,0.32-0.6,0.4-0.93H185.59z M172.5,61.28c0.35,0.29,0.8,0.44,1.35,0.44
		c0.55,0,1.01-0.15,1.35-0.44c0.35-0.29,0.52-0.69,0.52-1.19c0-0.51-0.17-0.92-0.52-1.22c-0.35-0.29-0.8-0.44-1.35-0.44
		c-0.55,0-1,0.15-1.35,0.44c-0.35,0.29-0.52,0.7-0.52,1.22C171.98,60.59,172.15,60.99,172.5,61.28 M176.95,73.92
		c-0.21-0.12-0.43-0.22-0.66-0.3c-0.24-0.08-0.5-0.16-0.8-0.23v-9.95h-0.75c-0.27,0.03-0.58,0.07-0.93,0.12
		c-0.35,0.05-0.72,0.11-1.08,0.18c-0.37,0.07-0.72,0.14-1.05,0.23c-0.33,0.09-0.61,0.18-0.83,0.27v0.84l1.46,0.18v8.13
		c-0.28,0.07-0.54,0.15-0.77,0.23c-0.24,0.08-0.46,0.18-0.68,0.3v0.84h6.1V73.92z M161.74,65.15h1.77v6.71
		c0,1.11,0.24,1.92,0.71,2.42c0.47,0.5,1.19,0.75,2.14,0.75c0.43,0,0.84-0.04,1.23-0.13c0.39-0.09,0.75-0.2,1.08-0.33
		c0.33-0.13,0.63-0.27,0.88-0.42c0.26-0.15,0.45-0.29,0.59-0.42l-0.15-0.73c-0.28,0.1-0.59,0.17-0.92,0.21
		c-0.33,0.04-0.63,0.06-0.9,0.06c-0.53,0-0.91-0.18-1.14-0.53c-0.23-0.35-0.34-0.98-0.34-1.89v-5.69h2.92v-1.44h-2.92V60.9h-0.75
		c-0.57,0.1-1.09,0.24-1.56,0.41c-0.46,0.17-0.75,0.3-0.87,0.39v1.79c-0.62,0.15-1.21,0.41-1.77,0.77V65.15z M152.91,67.15
		c0.1-0.57,0.24-1.02,0.43-1.37c0.19-0.35,0.43-0.6,0.71-0.75c0.28-0.15,0.61-0.23,0.99-0.23c0.51,0,0.94,0.11,1.28,0.32
		c0.34,0.21,0.61,0.51,0.81,0.89c0.2,0.38,0.34,0.85,0.42,1.39c0.08,0.55,0.12,1.16,0.12,1.84c0,0.82-0.05,1.52-0.14,2.09
		c-0.1,0.57-0.24,1.02-0.43,1.37c-0.19,0.35-0.42,0.6-0.68,0.75c-0.27,0.15-0.56,0.23-0.88,0.23c-0.56,0-1.02-0.11-1.37-0.32
		c-0.35-0.21-0.63-0.51-0.84-0.89c-0.21-0.38-0.35-0.85-0.43-1.4c-0.08-0.55-0.12-1.16-0.12-1.82
		C152.77,68.41,152.82,67.71,152.91,67.15 M149.7,71.57c0.24,0.72,0.6,1.33,1.08,1.83c0.49,0.51,1.1,0.91,1.84,1.19
		c0.74,0.29,1.61,0.43,2.61,0.43c0.91,0,1.73-0.13,2.46-0.4c0.73-0.26,1.35-0.65,1.86-1.15c0.51-0.5,0.9-1.11,1.16-1.82
		c0.27-0.71,0.4-1.52,0.4-2.42c0-0.84-0.11-1.62-0.33-2.33c-0.22-0.72-0.57-1.33-1.05-1.84c-0.48-0.51-1.09-0.91-1.83-1.19
		c-0.74-0.29-1.63-0.43-2.66-0.43c-0.91,0-1.73,0.13-2.45,0.4c-0.72,0.27-1.34,0.65-1.85,1.15c-0.51,0.5-0.9,1.11-1.17,1.82
		c-0.27,0.71-0.41,1.52-0.41,2.42C149.34,70.08,149.46,70.85,149.7,71.57 M136.95,72.65c0.16,0.6,0.4,1.07,0.71,1.43
		c0.31,0.35,0.68,0.6,1.12,0.74c0.44,0.14,0.93,0.21,1.49,0.21c0.5,0,0.96-0.08,1.37-0.24c0.41-0.16,0.77-0.37,1.07-0.63
		s0.55-0.55,0.74-0.86c0.19-0.32,0.32-0.63,0.4-0.94h0.09l0.15,2.63h0.75c0.27-0.03,0.56-0.07,0.9-0.12
		c0.33-0.05,0.67-0.12,1.01-0.2c0.34-0.08,0.66-0.16,0.97-0.25c0.31-0.09,0.57-0.18,0.77-0.27v-0.77l-1.46-0.18v-9.75h-0.75
		c-0.27,0.03-0.57,0.07-0.93,0.12c-0.35,0.05-0.71,0.11-1.07,0.18c-0.36,0.07-0.71,0.14-1.04,0.23c-0.33,0.09-0.61,0.18-0.83,0.27
		v0.84l1.44,0.18v5.81c-0.25,0.77-0.57,1.32-0.96,1.67c-0.39,0.35-0.81,0.52-1.27,0.52c-0.66,0-1.12-0.27-1.36-0.8
		c-0.24-0.53-0.37-1.4-0.37-2.61c0-1.03,0.02-2.08,0.07-3.15c0.04-1.07,0.07-2.15,0.07-3.26h-0.75c-0.24,0.03-0.53,0.07-0.87,0.12
		c-0.35,0.05-0.7,0.11-1.07,0.18c-0.37,0.07-0.73,0.14-1.07,0.23s-0.64,0.18-0.87,0.27v0.84l1.46,0.18c0,0.89-0.02,1.73-0.07,2.53
		c-0.04,0.8-0.07,1.66-0.07,2.59C136.7,71.29,136.78,72.05,136.95,72.65 M126.84,72.22c-0.27-0.69-0.4-1.68-0.4-2.96
		c0-1.64,0.18-2.79,0.54-3.47c0.36-0.68,0.97-1.02,1.82-1.02c0.34,0,0.65,0.03,0.93,0.1c0.28,0.07,0.54,0.14,0.8,0.21v6.06
		c-0.35,1.41-1.08,2.12-2.19,2.12C127.61,73.26,127.11,72.91,126.84,72.22 M130.54,72.79v5.01c-0.52,0.12-1,0.3-1.46,0.53v0.84h6.1
		v-0.84c-0.49-0.27-0.97-0.44-1.46-0.53V64.2c-0.16-0.07-0.41-0.15-0.74-0.23c-0.33-0.08-0.7-0.15-1.12-0.22
		c-0.41-0.07-0.85-0.12-1.3-0.17c-0.46-0.04-0.89-0.07-1.3-0.07c-1.99,0-3.53,0.5-4.61,1.49c-1.08,0.99-1.62,2.5-1.62,4.52
		c0,1.84,0.37,3.22,1.1,4.13c0.74,0.91,1.78,1.37,3.12,1.37c0.43,0,0.81-0.06,1.16-0.19c0.35-0.12,0.65-0.29,0.92-0.5
		c0.27-0.21,0.49-0.44,0.68-0.71c0.19-0.27,0.34-0.54,0.44-0.84H130.54z M116.26,73.92c-0.49-0.24-0.97-0.41-1.46-0.53V58.14h-0.75
		c-0.31,0.03-0.66,0.07-1.05,0.12c-0.39,0.05-0.78,0.11-1.17,0.18c-0.39,0.07-0.76,0.14-1.09,0.23c-0.34,0.09-0.6,0.18-0.8,0.27
		v0.84l1.68,0.18v13.44c-0.49,0.12-0.97,0.3-1.46,0.53v0.84h6.1V73.92z M109.03,73.92c-0.27-0.16-0.56-0.29-0.87-0.4
		c-0.32-0.1-0.62-0.18-0.92-0.24V60.77c0.29-0.04,0.6-0.12,0.92-0.23c0.32-0.11,0.61-0.25,0.87-0.41v-0.84h-6.9v0.84
		c0.25,0.15,0.54,0.28,0.86,0.4c0.32,0.12,0.63,0.2,0.93,0.24v12.51c-0.6,0.1-1.2,0.32-1.79,0.64v0.84h6.9V73.92z"/>
	<path class="st2" d="M453.79,26c0.58,0.49,1.32,0.73,2.23,0.73c0.91,0,1.66-0.24,2.23-0.73c0.58-0.49,0.87-1.14,0.87-1.97
		c0-0.85-0.29-1.52-0.87-2.01c-0.58-0.49-1.32-0.73-2.23-0.73c-0.91,0-1.66,0.24-2.23,0.73c-0.58,0.49-0.87,1.16-0.87,2.01
		C452.92,24.85,453.21,25.51,453.79,26 M461.13,46.86c-0.34-0.2-0.71-0.36-1.09-0.49c-0.39-0.13-0.83-0.26-1.31-0.38V29.57h-1.24
		c-0.44,0.05-0.95,0.12-1.53,0.2c-0.58,0.09-1.18,0.18-1.79,0.29c-0.61,0.11-1.19,0.24-1.73,0.38c-0.55,0.15-1,0.29-1.37,0.44v1.39
		l2.41,0.29v13.41c-0.46,0.12-0.89,0.25-1.28,0.38c-0.39,0.14-0.77,0.3-1.13,0.5v1.39h10.07V46.86z M449.02,46.86
		c-0.8-0.39-1.6-0.68-2.41-0.88V20.82h-1.24c-0.51,0.05-1.09,0.12-1.73,0.2c-0.64,0.09-1.29,0.18-1.93,0.29
		c-0.64,0.11-1.25,0.24-1.8,0.38c-0.56,0.15-1,0.29-1.31,0.44v1.39l2.77,0.29v22.17c-0.8,0.2-1.6,0.49-2.41,0.88v1.39h10.07V46.86z
		 M424.62,45c-0.44-0.51-0.66-1.23-0.66-2.15c0-0.61,0.08-1.12,0.24-1.55c0.16-0.43,0.44-0.78,0.86-1.06
		c0.41-0.28,0.99-0.48,1.71-0.6c0.73-0.12,1.67-0.19,2.81-0.22v3.65c-0.07,0.24-0.18,0.52-0.31,0.84c-0.13,0.32-0.33,0.61-0.58,0.88
		c-0.26,0.27-0.57,0.5-0.93,0.69c-0.37,0.2-0.8,0.29-1.31,0.29C425.67,45.76,425.06,45.51,424.62,45 M434.74,39.33
		c0.06-1.18,0.09-2.5,0.09-3.96c0-0.8-0.1-1.56-0.29-2.26c-0.2-0.7-0.54-1.32-1.04-1.84c-0.5-0.52-1.18-0.94-2.06-1.24
		c-0.88-0.3-2.01-0.46-3.39-0.46c-1.63,0-3.17,0.18-4.63,0.55c-1.46,0.37-2.65,0.86-3.57,1.5c0.05,0.41,0.13,0.84,0.24,1.28
		c0.11,0.44,0.24,0.87,0.4,1.3c0.16,0.43,0.33,0.83,0.51,1.2c0.18,0.38,0.37,0.71,0.57,1h1.6l1.71-4.38
		c0.63-0.24,1.32-0.36,2.08-0.36c1.22,0,2.01,0.49,2.37,1.46c0.37,0.97,0.45,2.5,0.26,4.6c-1.99,0.1-3.69,0.26-5.09,0.47
		c-1.4,0.22-2.54,0.55-3.43,1c-0.89,0.45-1.54,1.03-1.95,1.73c-0.41,0.71-0.62,1.61-0.62,2.7c0,0.78,0.14,1.48,0.44,2.1
		c0.29,0.62,0.69,1.15,1.2,1.59c0.51,0.44,1.11,0.78,1.79,1.02c0.68,0.24,1.42,0.37,2.22,0.37c0.75,0,1.43-0.11,2.04-0.33
		c0.61-0.22,1.14-0.5,1.59-0.86c0.45-0.35,0.82-0.75,1.11-1.2c0.29-0.45,0.5-0.92,0.62-1.4h0.18c0.02,0.8,0.06,1.48,0.11,2.04
		c0.05,0.56,0.19,1.12,0.44,1.68h1.24c0.41-0.05,0.89-0.12,1.42-0.2c0.53-0.09,1.08-0.19,1.62-0.33c0.55-0.13,1.07-0.27,1.57-0.42
		c0.5-0.15,0.89-0.29,1.18-0.44v-1.28l-2.52-0.37c-0.05-0.44-0.08-0.85-0.09-1.24c-0.01-0.39-0.02-0.85-0.02-1.39
		C434.65,41.72,434.68,40.51,434.74,39.33 M415.91,44.52c-0.44,0.34-0.97,0.63-1.61,0.88c-0.63,0.24-1.37,0.36-2.22,0.36
		c-0.92,0-1.73-0.18-2.41-0.53c-0.68-0.35-1.25-0.84-1.7-1.46c-0.45-0.62-0.78-1.35-1-2.19c-0.22-0.84-0.33-1.76-0.33-2.75
		c0-1.36,0.08-2.5,0.24-3.43c0.16-0.92,0.4-1.67,0.73-2.22c0.33-0.56,0.72-0.95,1.18-1.19c0.46-0.23,1.01-0.35,1.64-0.35
		c0.39,0,0.68,0.03,0.88,0.09c0.19,0.06,0.38,0.15,0.55,0.27l1.53,4.34h1.79c0.15-0.32,0.29-0.71,0.44-1.18
		c0.15-0.47,0.27-0.96,0.38-1.46c0.11-0.5,0.21-1,0.29-1.5c0.08-0.5,0.15-0.95,0.2-1.37c-0.66-0.34-1.48-0.64-2.48-0.89
		c-1-0.26-2.09-0.38-3.28-0.38c-3.11,0-5.51,0.82-7.2,2.46c-1.69,1.64-2.53,4.01-2.53,7.09c0,1.44,0.18,2.74,0.55,3.92
		c0.37,1.18,0.92,2.19,1.68,3.03c0.75,0.84,1.71,1.48,2.86,1.93c1.15,0.45,2.53,0.67,4.14,0.67c0.75,0,1.48-0.08,2.17-0.26
		c0.69-0.17,1.31-0.41,1.86-0.73c0.55-0.32,1.02-0.67,1.4-1.08c0.39-0.4,0.67-0.84,0.84-1.33L415.91,44.52z M385.22,35.68
		c0.16-0.94,0.39-1.69,0.71-2.26c0.32-0.57,0.71-0.99,1.17-1.24c0.46-0.26,1.01-0.38,1.64-0.38c0.85,0,1.55,0.18,2.12,0.53
		c0.56,0.35,1,0.85,1.33,1.48c0.33,0.63,0.56,1.4,0.69,2.3c0.13,0.9,0.2,1.91,0.2,3.03c0,1.36-0.08,2.51-0.24,3.45
		c-0.16,0.94-0.4,1.69-0.71,2.26c-0.32,0.57-0.69,0.98-1.13,1.24c-0.44,0.25-0.92,0.38-1.46,0.38c-0.92,0-1.68-0.18-2.26-0.53
		c-0.58-0.35-1.05-0.84-1.39-1.48c-0.34-0.63-0.58-1.4-0.71-2.32c-0.13-0.91-0.2-1.91-0.2-3.01
		C384.98,37.77,385.06,36.62,385.22,35.68 M379.91,42.97c0.39,1.18,0.98,2.19,1.79,3.03c0.8,0.84,1.81,1.5,3.03,1.97
		c1.22,0.47,2.65,0.71,4.3,0.71c1.51,0,2.86-0.22,4.07-0.66c1.2-0.44,2.22-1.07,3.06-1.9c0.84-0.83,1.48-1.83,1.91-3.01
		c0.44-1.18,0.66-2.51,0.66-3.99c0-1.39-0.18-2.67-0.55-3.85c-0.37-1.18-0.94-2.19-1.73-3.03c-0.79-0.84-1.8-1.49-3.03-1.97
		c-1.23-0.47-2.69-0.71-4.4-0.71c-1.51,0-2.86,0.22-4.05,0.66c-1.19,0.44-2.21,1.07-3.05,1.9c-0.84,0.83-1.48,1.83-1.93,3.01
		c-0.45,1.18-0.67,2.51-0.67,3.99C379.33,40.51,379.52,41.79,379.91,42.97 M357.67,24.1c0.8,0.51,1.8,0.86,2.99,1.06V45.8
		c-0.44,0.07-0.91,0.2-1.4,0.37c-0.5,0.17-1.03,0.4-1.59,0.69v1.39h20.02c0.02-0.61,0.02-1.31,0-2.12c-0.02-0.8-0.06-1.62-0.11-2.44
		c-0.05-0.83-0.12-1.62-0.2-2.37s-0.18-1.41-0.27-1.97h-1.5l-2.44,6.53h-7.04V25.16c0.58-0.07,1.18-0.2,1.8-0.38
		c0.62-0.18,1.19-0.41,1.7-0.67v-1.39h-11.96V24.1z M348.69,26c0.58,0.49,1.32,0.73,2.23,0.73s1.66-0.24,2.23-0.73
		c0.58-0.49,0.87-1.14,0.87-1.97c0-0.85-0.29-1.52-0.87-2.01c-0.58-0.49-1.32-0.73-2.23-0.73s-1.66,0.24-2.23,0.73
		c-0.58,0.49-0.87,1.16-0.87,2.01C347.82,24.85,348.11,25.51,348.69,26 M356.03,46.86c-0.34-0.2-0.71-0.36-1.09-0.49
		c-0.39-0.13-0.83-0.26-1.31-0.38V29.57h-1.24c-0.44,0.05-0.95,0.12-1.53,0.2c-0.58,0.09-1.18,0.18-1.79,0.29
		c-0.61,0.11-1.19,0.24-1.73,0.38c-0.55,0.15-1,0.29-1.37,0.44v1.39l2.41,0.29v13.41c-0.46,0.12-0.89,0.25-1.28,0.38
		c-0.39,0.14-0.77,0.3-1.13,0.5v1.39h10.07V46.86z M330.57,32.38h2.92v11.07c0,1.84,0.39,3.17,1.17,3.99
		c0.78,0.82,1.96,1.23,3.54,1.23c0.71,0,1.38-0.07,2.02-0.22c0.64-0.15,1.24-0.33,1.79-0.55c0.55-0.22,1.03-0.45,1.46-0.69
		c0.42-0.24,0.75-0.47,0.97-0.69l-0.26-1.2c-0.46,0.17-0.97,0.29-1.51,0.35c-0.55,0.06-1.04,0.09-1.48,0.09
		c-0.88,0-1.5-0.29-1.88-0.87c-0.38-0.58-0.57-1.62-0.57-3.12v-9.39h4.81v-2.37h-4.81v-4.63h-1.24c-0.95,0.17-1.8,0.4-2.57,0.67
		c-0.77,0.28-1.25,0.49-1.44,0.64v2.95c-1.02,0.25-1.99,0.67-2.92,1.27V32.38z M329.84,46.86c-0.63-0.41-1.43-0.71-2.41-0.88v-8.74
		c0-1.51-0.14-2.76-0.42-3.75c-0.28-0.99-0.68-1.77-1.2-2.36c-0.52-0.59-1.16-0.99-1.91-1.22c-0.75-0.23-1.61-0.35-2.55-0.35
		c-1.46,0-2.7,0.37-3.72,1.11c-1.02,0.74-1.79,1.62-2.3,2.64h-0.04v-3.76h-1.24c-0.51,0.05-1.08,0.12-1.7,0.2
		c-0.62,0.09-1.23,0.19-1.82,0.31c-0.6,0.12-1.15,0.25-1.66,0.38c-0.51,0.13-0.92,0.27-1.24,0.42v1.39l2.41,0.29v13.41
		c-1,0.27-1.8,0.56-2.41,0.88v1.39h9.66v-1.39c-0.34-0.22-0.66-0.4-0.97-0.53c-0.3-0.13-0.65-0.25-1.04-0.35V35.82
		c0.34-1.02,0.84-1.83,1.51-2.43c0.67-0.6,1.46-0.9,2.39-0.9c1.12,0,1.9,0.43,2.33,1.3c0.44,0.87,0.66,2.07,0.66,3.6v8.59
		c-0.41,0.15-0.77,0.29-1.08,0.42c-0.3,0.13-0.61,0.29-0.93,0.46v1.39h9.66V46.86z M285.5,22.72v1.39c0.41,0.24,0.89,0.45,1.44,0.64
		c0.55,0.18,1.06,0.32,1.55,0.42V45.8c-0.56,0.1-1.09,0.24-1.6,0.44c-0.51,0.2-0.97,0.4-1.39,0.62v1.39h19.73
		c0-0.53-0.02-1.12-0.05-1.75c-0.04-0.63-0.09-1.26-0.15-1.88c-0.06-0.62-0.14-1.22-0.24-1.81c-0.1-0.58-0.19-1.11-0.29-1.57H303
		l-1.93,4.63h-7.11v-9.48h4.45l1.6,2.88h1.17c0.12-1.26,0.18-2.63,0.18-4.08c0-1.46-0.06-2.78-0.18-3.98h-1.17l-1.6,2.81h-4.45
		v-8.93h6.82l1.68,4.3h1.5c0.19-1.02,0.35-2.12,0.47-3.28c0.12-1.17,0.21-2.3,0.25-3.39H285.5z"/>
	<path class="st1" d="M279.77,34.76c0.35,0.29,0.8,0.44,1.35,0.44c0.55,0,1.01-0.15,1.35-0.44c0.35-0.29,0.52-0.69,0.52-1.19
		c0-0.51-0.17-0.92-0.52-1.22c-0.35-0.29-0.8-0.44-1.35-0.44c-0.55,0-1.01,0.15-1.35,0.44c-0.35,0.29-0.52,0.7-0.52,1.22
		C279.24,34.07,279.42,34.47,279.77,34.76 M284.21,47.4c-0.21-0.12-0.43-0.22-0.66-0.3c-0.24-0.08-0.5-0.16-0.8-0.23v-9.94H282
		c-0.27,0.03-0.57,0.07-0.93,0.12c-0.35,0.05-0.72,0.11-1.08,0.18c-0.37,0.07-0.72,0.14-1.05,0.23c-0.33,0.09-0.61,0.18-0.83,0.27
		v0.84l1.46,0.18v8.13c-0.28,0.07-0.54,0.15-0.77,0.23c-0.24,0.08-0.46,0.18-0.69,0.3v0.84h6.1V47.4z M276.88,47.4
		c-0.49-0.24-0.97-0.41-1.46-0.53V31.62h-0.75c-0.31,0.03-0.66,0.07-1.05,0.12c-0.39,0.05-0.78,0.11-1.17,0.18
		c-0.39,0.07-0.75,0.14-1.09,0.23c-0.34,0.09-0.6,0.18-0.8,0.27v0.84l1.68,0.18v13.44c-0.49,0.12-0.97,0.3-1.46,0.53v0.84h6.1V47.4z
		 M261.96,38.76c0.26-0.38,0.77-0.58,1.5-0.58c0.71,0,1.2,0.2,1.48,0.59c0.28,0.39,0.42,0.98,0.42,1.78c0,0.75-0.14,1.33-0.41,1.74
		c-0.27,0.41-0.77,0.61-1.49,0.61c-0.75,0-1.26-0.2-1.51-0.6c-0.26-0.4-0.39-0.98-0.39-1.75C261.56,39.74,261.69,39.15,261.96,38.76
		 M265.65,51.15c-0.4,0.35-1.01,0.52-1.84,0.52c-0.84,0-1.49-0.19-1.96-0.56c-0.46-0.38-0.7-0.9-0.7-1.58
		c0-0.41,0.08-0.77,0.24-1.06c0.16-0.29,0.44-0.59,0.82-0.88c0.47,0.15,0.95,0.28,1.43,0.39c0.48,0.11,0.91,0.24,1.29,0.4
		c0.38,0.15,0.7,0.35,0.94,0.6c0.24,0.24,0.36,0.56,0.36,0.96C266.25,50.39,266.05,50.8,265.65,51.15 M259.75,37.86
		c-0.91,0.62-1.37,1.48-1.37,2.59c0,0.93,0.27,1.69,0.82,2.29c0.54,0.6,1.28,1,2.21,1.2c-0.22,0.09-0.44,0.2-0.66,0.32
		c-0.22,0.13-0.43,0.27-0.62,0.42s-0.35,0.32-0.46,0.51c-0.12,0.18-0.18,0.37-0.18,0.56c0,0.22,0.05,0.42,0.15,0.59
		c0.1,0.17,0.23,0.32,0.4,0.44c0.16,0.13,0.35,0.23,0.55,0.32c0.21,0.09,0.42,0.16,0.64,0.22c-0.47,0.12-0.9,0.25-1.29,0.4
		c-0.39,0.15-0.73,0.33-1.03,0.55s-0.52,0.48-0.68,0.77c-0.16,0.29-0.24,0.65-0.24,1.06c0,0.37,0.1,0.72,0.3,1.06
		c0.2,0.34,0.51,0.64,0.94,0.91c0.43,0.27,0.98,0.48,1.67,0.63c0.68,0.15,1.51,0.23,2.49,0.23c0.82,0,1.6-0.08,2.33-0.25
		c0.73-0.17,1.36-0.41,1.9-0.73c0.54-0.32,0.96-0.7,1.27-1.16c0.31-0.46,0.46-0.98,0.44-1.57c-0.01-0.62-0.21-1.12-0.58-1.51
		c-0.37-0.39-0.82-0.71-1.37-0.95c-0.54-0.24-1.13-0.44-1.76-0.59c-0.63-0.15-1.21-0.28-1.76-0.4c-0.54-0.12-0.99-0.25-1.35-0.4
		c-0.35-0.15-0.53-0.35-0.53-0.6c0-0.12,0.03-0.24,0.1-0.37c0.07-0.12,0.13-0.23,0.19-0.32c0.15,0.03,0.32,0.05,0.52,0.06
		c0.2,0.01,0.42,0.01,0.67,0.01c0.86,0,1.6-0.1,2.24-0.29c0.64-0.19,1.17-0.45,1.59-0.79c0.42-0.33,0.73-0.71,0.94-1.14
		c0.21-0.43,0.31-0.88,0.31-1.37c0-0.46-0.07-0.85-0.21-1.18c-0.14-0.33-0.29-0.6-0.45-0.81h2.32l0.29-0.53
		c0-0.1-0.02-0.23-0.07-0.4s-0.1-0.32-0.18-0.49c-0.07-0.16-0.16-0.31-0.27-0.45c-0.1-0.14-0.21-0.25-0.31-0.32
		c-0.9,0.29-1.69,0.82-2.39,1.57c-0.32-0.29-0.8-0.54-1.44-0.74c-0.63-0.2-1.43-0.3-2.39-0.3C261.9,36.93,260.66,37.24,259.75,37.86
		 M253.27,39.12c0.23,0.62,0.3,1.5,0.2,2.65h-3.54c0.04-0.71,0.12-1.29,0.22-1.76c0.1-0.46,0.24-0.83,0.41-1.1
		c0.17-0.27,0.37-0.46,0.59-0.56c0.23-0.1,0.49-0.15,0.78-0.15C252.59,38.19,253.04,38.5,253.27,39.12 M256.08,45.94
		c-0.29,0.24-0.7,0.43-1.23,0.58c-0.52,0.15-1.03,0.22-1.51,0.22c-1.13,0-1.99-0.35-2.57-1.04c-0.58-0.69-0.88-1.62-0.89-2.78h6.78
		c0.19-1.11,0.2-2.04,0.03-2.81s-0.47-1.39-0.91-1.86c-0.44-0.47-0.98-0.81-1.64-1.02c-0.66-0.21-1.36-0.31-2.11-0.31
		c-1.75,0-3.12,0.49-4.11,1.48c-0.99,0.99-1.48,2.42-1.48,4.31c0,0.88,0.12,1.68,0.37,2.39c0.24,0.71,0.6,1.32,1.07,1.82
		c0.47,0.51,1.06,0.9,1.77,1.17c0.71,0.27,1.52,0.41,2.43,0.41c0.57,0,1.11-0.06,1.6-0.19c0.49-0.13,0.93-0.29,1.3-0.49
		c0.37-0.2,0.69-0.43,0.95-0.69c0.26-0.26,0.44-0.51,0.56-0.76L256.08,45.94z M237.12,45.66c-0.32-0.72-0.49-1.68-0.49-2.87
		c0-1.47,0.18-2.6,0.55-3.37c0.37-0.77,0.98-1.16,1.83-1.16c0.43,0,0.79,0.04,1.07,0.11c0.29,0.07,0.53,0.17,0.72,0.29v5.95
		c-0.16,0.78-0.42,1.33-0.77,1.66c-0.35,0.32-0.79,0.49-1.3,0.49C237.98,46.74,237.44,46.38,237.12,45.66 M240.83,46.06l0.2,2.41
		h0.75c0.22-0.03,0.5-0.07,0.83-0.12c0.33-0.05,0.67-0.11,1.03-0.19c0.35-0.07,0.69-0.15,1.02-0.24c0.32-0.09,0.59-0.18,0.8-0.29
		v-0.77l-1.46-0.18V31.62h-0.75c-0.25,0.04-0.57,0.1-0.95,0.15c-0.38,0.06-0.77,0.12-1.17,0.19c-0.4,0.07-0.78,0.14-1.14,0.21
		c-0.36,0.07-0.65,0.15-0.85,0.24v0.84l1.68,0.18v3.91c-0.18-0.06-0.34-0.11-0.48-0.17c-0.14-0.05-0.29-0.09-0.44-0.11
		c-0.15-0.02-0.32-0.04-0.51-0.06c-0.18-0.01-0.41-0.02-0.67-0.02c-0.83,0-1.58,0.13-2.25,0.38c-0.68,0.25-1.26,0.63-1.74,1.13
		c-0.48,0.5-0.85,1.12-1.12,1.85c-0.27,0.73-0.4,1.58-0.4,2.55c0,1.9,0.38,3.31,1.14,4.23c0.76,0.92,1.87,1.38,3.33,1.38
		c0.38,0,0.74-0.07,1.08-0.2c0.34-0.13,0.64-0.31,0.91-0.54c0.27-0.23,0.49-0.49,0.68-0.79c0.19-0.29,0.32-0.6,0.4-0.93H240.83z"/>
	<path class="st2" d="M219.32,45c-0.44-0.51-0.66-1.23-0.66-2.15c0-0.61,0.08-1.12,0.24-1.55c0.16-0.43,0.44-0.78,0.86-1.06
		c0.41-0.28,0.98-0.48,1.71-0.6c0.73-0.12,1.67-0.19,2.81-0.22v3.65c-0.07,0.24-0.18,0.52-0.31,0.84c-0.13,0.32-0.33,0.61-0.58,0.88
		c-0.26,0.27-0.57,0.5-0.93,0.69c-0.36,0.19-0.8,0.29-1.31,0.29C220.36,45.76,219.76,45.51,219.32,45 M229.44,39.33
		c0.06-1.18,0.09-2.5,0.09-3.96c0-0.8-0.1-1.56-0.29-2.26c-0.19-0.71-0.54-1.32-1.04-1.84c-0.5-0.52-1.19-0.94-2.06-1.24
		c-0.88-0.3-2.01-0.46-3.39-0.46c-1.63,0-3.17,0.18-4.63,0.55c-1.46,0.37-2.65,0.86-3.57,1.49c0.05,0.41,0.13,0.84,0.24,1.28
		c0.11,0.44,0.24,0.87,0.4,1.29c0.16,0.43,0.33,0.83,0.51,1.2c0.18,0.38,0.37,0.71,0.57,1h1.61l1.71-4.38
		c0.63-0.24,1.32-0.37,2.08-0.37c1.22,0,2.01,0.49,2.37,1.46c0.37,0.97,0.45,2.5,0.26,4.6c-1.99,0.1-3.69,0.25-5.09,0.47
		c-1.4,0.22-2.54,0.55-3.43,1c-0.89,0.45-1.54,1.03-1.95,1.73c-0.41,0.71-0.62,1.6-0.62,2.7c0,0.78,0.15,1.48,0.44,2.1
		c0.29,0.62,0.69,1.15,1.2,1.59s1.11,0.78,1.79,1.02c0.68,0.24,1.42,0.37,2.22,0.37c0.75,0,1.43-0.11,2.04-0.33
		c0.61-0.22,1.14-0.51,1.59-0.86c0.45-0.35,0.82-0.75,1.11-1.2c0.29-0.45,0.5-0.92,0.62-1.4h0.18c0.02,0.8,0.06,1.48,0.11,2.04
		c0.05,0.56,0.19,1.12,0.44,1.68h1.24c0.41-0.05,0.89-0.12,1.42-0.2c0.53-0.08,1.08-0.19,1.62-0.33c0.55-0.13,1.07-0.27,1.57-0.42
		c0.5-0.15,0.89-0.29,1.19-0.44v-1.28l-2.52-0.36c-0.05-0.44-0.08-0.85-0.09-1.24s-0.02-0.85-0.02-1.39
		C229.35,41.71,229.38,40.51,229.44,39.33 M197.95,32.38h2.92v11.07c0,1.84,0.39,3.17,1.17,3.99c0.78,0.82,1.96,1.24,3.54,1.24
		c0.7,0,1.38-0.07,2.02-0.22c0.64-0.15,1.24-0.33,1.79-0.55c0.55-0.22,1.03-0.45,1.46-0.69c0.43-0.24,0.75-0.47,0.97-0.69l-0.26-1.2
		c-0.46,0.17-0.97,0.29-1.51,0.35c-0.55,0.06-1.04,0.09-1.48,0.09c-0.88,0-1.5-0.29-1.88-0.87c-0.38-0.58-0.57-1.62-0.57-3.12v-9.4
		h4.81v-2.37h-4.81v-4.63h-1.24c-0.95,0.17-1.81,0.4-2.57,0.67c-0.77,0.28-1.25,0.49-1.44,0.64v2.95c-1.02,0.25-1.99,0.67-2.92,1.27
		V32.38z M183.4,32.38h2.92v11.07c0,1.84,0.39,3.17,1.17,3.99c0.78,0.82,1.96,1.24,3.54,1.24c0.71,0,1.38-0.07,2.02-0.22
		c0.64-0.15,1.24-0.33,1.79-0.55c0.55-0.22,1.03-0.45,1.46-0.69c0.43-0.24,0.75-0.47,0.97-0.69l-0.26-1.2
		c-0.46,0.17-0.97,0.29-1.51,0.35c-0.55,0.06-1.04,0.09-1.48,0.09c-0.88,0-1.5-0.29-1.88-0.87c-0.38-0.58-0.57-1.62-0.57-3.12v-9.4
		h4.81v-2.37h-4.81v-4.63h-1.24c-0.95,0.17-1.81,0.4-2.57,0.67c-0.77,0.28-1.25,0.49-1.44,0.64v2.95c-1.02,0.25-1.99,0.67-2.92,1.27
		V32.38z M175.92,33.18c0.39,1.02,0.5,2.48,0.33,4.38h-5.84c0.07-1.17,0.19-2.13,0.36-2.9c0.17-0.77,0.39-1.37,0.67-1.82
		c0.28-0.45,0.6-0.76,0.98-0.93c0.37-0.17,0.8-0.26,1.29-0.26C174.8,31.65,175.54,32.16,175.92,33.18 M180.55,44.45
		c-0.49,0.39-1.16,0.71-2.02,0.95c-0.86,0.24-1.7,0.37-2.5,0.37c-1.87,0-3.29-0.57-4.25-1.71c-0.96-1.14-1.45-2.67-1.48-4.59h11.2
		c0.32-1.82,0.33-3.37,0.06-4.63c-0.28-1.26-0.78-2.28-1.5-3.06c-0.72-0.78-1.62-1.34-2.7-1.68c-1.08-0.34-2.24-0.51-3.48-0.51
		c-2.89,0-5.15,0.81-6.78,2.44c-1.63,1.63-2.44,4-2.44,7.11c0,1.46,0.2,2.77,0.6,3.94c0.4,1.17,0.99,2.17,1.77,3.01
		c0.78,0.84,1.75,1.48,2.92,1.93c1.17,0.45,2.5,0.67,4.01,0.67c0.95,0,1.83-0.1,2.65-0.31c0.81-0.21,1.53-0.47,2.15-0.8
		c0.62-0.33,1.14-0.71,1.57-1.13c0.43-0.43,0.73-0.84,0.93-1.26L180.55,44.45z M159.98,41.5l-1.97,4.67h-6.31l10.43-14.73v-1.42
		h-15.68c0,0.88,0.08,1.9,0.26,3.06c0.17,1.17,0.39,2.27,0.66,3.32h1.24l1.6-4.3h6.05l-10.39,14.73v1.42h16.26
		c0.05-1.07-0.02-2.21-0.22-3.43c-0.2-1.21-0.43-2.32-0.69-3.32H159.98z M141.17,41.5l-1.97,4.67h-6.31l10.43-14.73v-1.42h-15.68
		c0,0.88,0.08,1.9,0.26,3.06c0.17,1.17,0.39,2.27,0.66,3.32h1.24l1.6-4.3h6.05l-10.39,14.73v1.42h16.27
		c0.05-1.07-0.02-2.21-0.22-3.43c-0.2-1.21-0.43-2.32-0.69-3.32H141.17z M112.68,45c-0.44-0.51-0.66-1.23-0.66-2.15
		c0-0.61,0.08-1.12,0.24-1.55c0.16-0.43,0.44-0.78,0.86-1.06c0.41-0.28,0.98-0.48,1.71-0.6c0.73-0.12,1.67-0.19,2.81-0.22v3.65
		c-0.07,0.24-0.18,0.52-0.31,0.84c-0.13,0.32-0.33,0.61-0.58,0.88c-0.25,0.27-0.57,0.5-0.93,0.69c-0.37,0.19-0.8,0.29-1.31,0.29
		C113.73,45.76,113.12,45.51,112.68,45 M122.81,39.33c0.06-1.18,0.09-2.5,0.09-3.96c0-0.8-0.1-1.56-0.29-2.26
		c-0.2-0.71-0.54-1.32-1.04-1.84c-0.5-0.52-1.18-0.94-2.06-1.24c-0.88-0.3-2-0.46-3.39-0.46c-1.63,0-3.17,0.18-4.63,0.55
		c-1.46,0.37-2.65,0.86-3.57,1.49c0.05,0.41,0.13,0.84,0.24,1.28c0.11,0.44,0.24,0.87,0.4,1.29c0.16,0.43,0.33,0.83,0.51,1.2
		c0.18,0.38,0.37,0.71,0.56,1h1.61l1.71-4.38c0.63-0.24,1.32-0.37,2.08-0.37c1.22,0,2.01,0.49,2.37,1.46
		c0.37,0.97,0.45,2.5,0.26,4.6c-1.99,0.1-3.69,0.25-5.09,0.47c-1.4,0.22-2.54,0.55-3.43,1c-0.89,0.45-1.54,1.03-1.95,1.73
		c-0.41,0.71-0.62,1.6-0.62,2.7c0,0.78,0.15,1.48,0.44,2.1c0.29,0.62,0.69,1.15,1.2,1.59c0.51,0.44,1.11,0.78,1.79,1.02
		c0.68,0.24,1.42,0.37,2.22,0.37c0.75,0,1.43-0.11,2.04-0.33c0.61-0.22,1.14-0.51,1.59-0.86c0.45-0.35,0.82-0.75,1.11-1.2
		c0.29-0.45,0.5-0.92,0.62-1.4h0.18c0.02,0.8,0.06,1.48,0.11,2.04c0.05,0.56,0.19,1.12,0.44,1.68h1.24c0.41-0.05,0.89-0.12,1.42-0.2
		c0.53-0.08,1.08-0.19,1.62-0.33c0.55-0.13,1.07-0.27,1.57-0.42c0.5-0.15,0.89-0.29,1.18-0.44v-1.28l-2.52-0.36
		c-0.05-0.44-0.08-0.85-0.09-1.24c-0.01-0.39-0.02-0.85-0.02-1.39C122.71,41.71,122.74,40.51,122.81,39.33 M102.91,38.47
		c0.56-0.12,1.02-0.27,1.39-0.46c0.37-0.18,0.66-0.38,0.88-0.6v-1.39h-9.96v1.39c0.49,0.27,1.01,0.5,1.57,0.69
		c0.56,0.19,1.15,0.32,1.79,0.37v6.86c-0.1,0.1-0.27,0.21-0.53,0.33c-0.26,0.12-0.55,0.23-0.89,0.33s-0.71,0.18-1.09,0.24
		c-0.39,0.06-0.77,0.09-1.13,0.09c-1.14,0-2.19-0.27-3.14-0.8c-0.95-0.53-1.76-1.28-2.44-2.22c-0.68-0.95-1.21-2.08-1.59-3.41
		c-0.38-1.32-0.57-2.79-0.57-4.39c0-1.97,0.21-3.64,0.62-5.01c0.41-1.37,0.97-2.49,1.68-3.36c0.7-0.86,1.52-1.49,2.44-1.88
		c0.92-0.39,1.88-0.58,2.88-0.58c0.53,0,1.07,0.03,1.6,0.09c0.53,0.06,0.94,0.15,1.2,0.27l2.04,5.54h1.5
		c0.15-0.53,0.27-1.13,0.38-1.79c0.11-0.66,0.2-1.31,0.27-1.97c0.07-0.66,0.13-1.27,0.16-1.84c0.04-0.57,0.06-1.04,0.06-1.4
		c-0.83-0.41-1.95-0.73-3.36-0.95c-1.41-0.22-2.92-0.33-4.52-0.33c-1.63,0-3.22,0.24-4.78,0.73c-1.56,0.49-2.95,1.26-4.18,2.32
		c-1.23,1.06-2.21,2.42-2.95,4.08c-0.74,1.67-1.11,3.69-1.11,6.07c0,2.19,0.3,4.11,0.91,5.76c0.61,1.65,1.49,3.03,2.64,4.14
		c1.15,1.11,2.55,1.93,4.19,2.48c1.64,0.55,3.51,0.82,5.6,0.82c0.61,0,1.3-0.06,2.08-0.18c0.78-0.12,1.56-0.28,2.33-0.47
		c0.78-0.2,1.52-0.41,2.22-0.66c0.7-0.24,1.3-0.49,1.79-0.73V38.47z M66.52,45c-0.44-0.51-0.66-1.23-0.66-2.15
		c0-0.61,0.08-1.12,0.24-1.55c0.16-0.43,0.44-0.78,0.86-1.06c0.41-0.28,0.98-0.48,1.71-0.6c0.73-0.12,1.67-0.19,2.81-0.22v3.65
		c-0.07,0.24-0.18,0.52-0.31,0.84c-0.13,0.32-0.33,0.61-0.58,0.88c-0.25,0.27-0.57,0.5-0.93,0.69c-0.37,0.19-0.8,0.29-1.31,0.29
		C67.56,45.76,66.95,45.51,66.52,45 M76.64,39.33c0.06-1.18,0.09-2.5,0.09-3.96c0-0.8-0.1-1.56-0.29-2.26
		c-0.2-0.71-0.54-1.32-1.04-1.84c-0.5-0.52-1.18-0.94-2.06-1.24c-0.88-0.3-2-0.46-3.39-0.46c-1.63,0-3.17,0.18-4.63,0.55
		c-1.46,0.37-2.65,0.86-3.57,1.49c0.05,0.41,0.13,0.84,0.24,1.28c0.11,0.44,0.24,0.87,0.4,1.29c0.16,0.43,0.33,0.83,0.51,1.2
		c0.18,0.38,0.37,0.71,0.56,1h1.61l1.71-4.38c0.63-0.24,1.32-0.37,2.08-0.37c1.22,0,2.01,0.49,2.37,1.46
		c0.37,0.97,0.45,2.5,0.26,4.6c-1.99,0.1-3.69,0.25-5.09,0.47c-1.4,0.22-2.54,0.55-3.43,1c-0.89,0.45-1.54,1.03-1.95,1.73
		c-0.41,0.71-0.62,1.6-0.62,2.7c0,0.78,0.15,1.48,0.44,2.1c0.29,0.62,0.69,1.15,1.2,1.59c0.51,0.44,1.11,0.78,1.79,1.02
		c0.68,0.24,1.42,0.37,2.22,0.37c0.75,0,1.43-0.11,2.04-0.33c0.61-0.22,1.14-0.51,1.59-0.86c0.45-0.35,0.82-0.75,1.11-1.2
		c0.29-0.45,0.5-0.92,0.62-1.4h0.18c0.02,0.8,0.06,1.48,0.11,2.04c0.05,0.56,0.19,1.12,0.44,1.68h1.24c0.41-0.05,0.89-0.12,1.42-0.2
		c0.53-0.08,1.08-0.19,1.62-0.33c0.55-0.13,1.07-0.27,1.57-0.42c0.5-0.15,0.89-0.29,1.18-0.44v-1.28l-2.52-0.36
		c-0.05-0.44-0.08-0.85-0.09-1.24c-0.01-0.39-0.02-0.85-0.02-1.39C76.54,41.71,76.57,40.51,76.64,39.33 M38.87,24.1
		c0.8,0.51,1.8,0.86,2.99,1.06V45.8c-0.44,0.07-0.91,0.19-1.4,0.36c-0.5,0.17-1.03,0.4-1.59,0.69v1.39h20.02
		c0.02-0.61,0.02-1.31,0-2.12c-0.02-0.8-0.06-1.62-0.11-2.44c-0.05-0.83-0.12-1.62-0.2-2.37c-0.09-0.75-0.18-1.41-0.27-1.97h-1.5
		l-2.44,6.53h-7.04V25.16c0.58-0.07,1.18-0.2,1.81-0.38c0.62-0.18,1.18-0.41,1.69-0.67v-1.39H38.87V24.1z"/>
</g>
</svg>
