<?xml version="1.0" encoding="UTF-8"?><svg id="a" xmlns="http://www.w3.org/2000/svg" xmlns:xlink="http://www.w3.org/1999/xlink" viewBox="0 0 373.9 109.55"><defs><style>.c{fill:none;}.d{fill:#005383;}.e{fill:#008f3c;}.f{clip-path:url(#b);}</style><clipPath id="b"><rect class="c" width="373.9" height="109.55"/></clipPath></defs><g class="f"><path class="d" d="M363.42,58.56c-.36-.42-.54-1.02-.54-1.78,0-.5,.07-.93,.2-1.28,.13-.35,.37-.64,.71-.88,.34-.23,.82-.4,1.42-.5,.6-.1,1.38-.16,2.33-.18v3.02c-.06,.2-.15,.43-.26,.69-.11,.26-.27,.5-.48,.72-.21,.22-.47,.41-.77,.57s-.67,.24-1.09,.24c-.64,0-1.15-.21-1.51-.63m8.38-4.7c.05-.98,.07-2.07,.07-3.28,0-.66-.08-1.29-.24-1.87-.16-.58-.45-1.09-.86-1.53-.41-.43-.98-.77-1.71-1.03-.73-.25-1.66-.38-2.81-.38-1.35,0-2.63,.15-3.83,.45-1.21,.3-2.2,.71-2.96,1.24,.04,.34,.11,.69,.2,1.06,.09,.36,.2,.72,.33,1.07,.13,.35,.27,.69,.42,1,.15,.31,.31,.59,.47,.83h1.33l1.42-3.62c.52-.2,1.1-.3,1.72-.3,1.01,0,1.66,.4,1.96,1.21s.37,2.07,.21,3.81c-1.65,.08-3.06,.21-4.21,.39-1.16,.18-2.1,.46-2.84,.83-.74,.37-1.27,.85-1.62,1.43-.34,.58-.51,1.33-.51,2.24,0,.64,.12,1.22,.36,1.74,.24,.51,.57,.95,1,1.31,.42,.36,.92,.64,1.48,.85,.56,.2,1.18,.3,1.84,.3,.62,0,1.19-.09,1.69-.27,.5-.18,.94-.42,1.31-.71,.37-.29,.68-.62,.92-1,.24-.37,.41-.76,.51-1.16h.15c.02,.66,.05,1.23,.09,1.69,.04,.46,.16,.93,.36,1.39h1.03c.34-.04,.73-.1,1.18-.17,.44-.07,.89-.16,1.34-.27,.45-.11,.88-.23,1.3-.35,.41-.12,.74-.24,.98-.36v-1.06l-2.08-.3c-.04-.36-.07-.7-.08-1.03-.01-.32-.02-.7-.02-1.15,0-1.03,.02-2.03,.08-3.01m-14.39,4.3c-.36,.28-.81,.52-1.33,.72-.52,.2-1.14,.3-1.84,.3-.77,0-1.43-.15-1.99-.44-.56-.29-1.03-.69-1.4-1.21-.37-.51-.65-1.12-.83-1.81-.18-.69-.27-1.45-.27-2.28,0-1.13,.07-2.07,.2-2.84,.13-.76,.33-1.38,.6-1.84,.27-.46,.6-.79,.98-.98,.38-.19,.84-.29,1.36-.29,.32,0,.56,.02,.73,.08,.16,.05,.31,.13,.45,.23l1.27,3.59h1.48c.12-.26,.24-.59,.36-.98,.12-.39,.23-.79,.32-1.21,.09-.41,.17-.82,.24-1.24,.07-.41,.12-.79,.17-1.13-.54-.28-1.23-.53-2.05-.74-.82-.21-1.73-.32-2.72-.32-2.58,0-4.57,.68-5.96,2.04-1.4,1.36-2.1,3.32-2.1,5.87,0,1.19,.15,2.27,.45,3.25,.3,.98,.76,1.81,1.39,2.51,.62,.69,1.41,1.23,2.37,1.6,.96,.37,2.1,.56,3.43,.56,.62,0,1.22-.07,1.8-.21,.57-.14,1.09-.34,1.54-.6,.45-.26,.84-.56,1.16-.89,.32-.33,.55-.7,.7-1.1l-.48-.63Zm-18.91-15.34c.48,.4,1.09,.6,1.85,.6s1.37-.2,1.85-.6c.48-.4,.72-.95,.72-1.63s-.24-1.26-.72-1.66c-.48-.4-1.1-.6-1.85-.6s-1.37,.2-1.85,.6c-.48,.4-.72,.96-.72,1.66s.24,1.23,.72,1.63m6.08,17.27c-.28-.16-.58-.3-.91-.41s-.68-.22-1.09-.32v-13.59h-1.03c-.36,.04-.78,.1-1.27,.17-.48,.07-.98,.15-1.48,.24-.5,.09-.98,.2-1.43,.32-.45,.12-.83,.24-1.13,.36v1.15l1.99,.24v11.11c-.38,.1-.73,.21-1.06,.32-.32,.11-.63,.25-.94,.41v1.15h8.34v-1.15Zm-19.87-11.99h2.42v9.17c0,1.52,.32,2.63,.97,3.31,.65,.68,1.62,1.02,2.93,1.02,.58,0,1.14-.06,1.68-.18,.53-.12,1.03-.27,1.48-.45s.86-.37,1.21-.57c.35-.2,.62-.39,.8-.57l-.21-1c-.38,.14-.8,.24-1.25,.29s-.86,.08-1.22,.08c-.73,0-1.24-.24-1.55-.72-.31-.48-.47-1.34-.47-2.58v-7.78h3.99v-1.96h-3.99v-3.83h-1.03c-.79,.14-1.5,.33-2.13,.56-.63,.23-1.03,.41-1.19,.53v2.45c-.85,.21-1.65,.56-2.42,1.06v1.21Zm-4.71,11.26c-.48,.34-1.02,.51-1.6,.51-.24,0-.5-.01-.77-.05-.27-.03-.52-.13-.74-.29l-1.48-3.29h-1.03c-.34,.58-.67,1.25-.97,1.99-.3,.74-.47,1.48-.51,2.2,.74,.36,1.63,.64,2.66,.85,1.03,.2,2.02,.3,2.99,.3,1.89,0,3.4-.4,4.53-1.19,1.13-.8,1.69-1.89,1.69-3.28,0-.78-.19-1.46-.56-2.02-.37-.56-.84-1.05-1.39-1.46-.55-.41-1.16-.78-1.81-1.1-.65-.32-1.26-.64-1.81-.97-.55-.32-1.02-.67-1.39-1.04-.37-.37-.56-.81-.56-1.31,0-.44,.15-.84,.47-1.19,.31-.35,.77-.53,1.37-.53,.32,0,.61,.01,.88,.04,.26,.03,.51,.1,.76,.2l1.27,3.08h1.03c.22-.6,.45-1.27,.7-2.01,.24-.74,.4-1.42,.48-2.07-.71-.3-1.52-.54-2.46-.71-.94-.17-1.95-.26-3.04-.26-.79,0-1.51,.1-2.19,.29-.67,.19-1.25,.46-1.74,.8-.48,.34-.87,.76-1.15,1.25-.28,.49-.42,1.04-.42,1.65,0,.85,.19,1.56,.56,2.14,.37,.58,.83,1.09,1.39,1.52,.55,.43,1.16,.81,1.81,1.13,.65,.32,1.26,.64,1.81,.97,.55,.32,1.02,.67,1.39,1.06,.37,.38,.56,.84,.56,1.36,0,.6-.24,1.08-.73,1.42m-13.6-16.55c.48,.4,1.09,.6,1.85,.6s1.37-.2,1.85-.6c.48-.4,.72-.95,.72-1.63s-.24-1.26-.72-1.66c-.48-.4-1.09-.6-1.85-.6s-1.37,.2-1.85,.6c-.48,.4-.72,.96-.72,1.66s.24,1.23,.72,1.63m6.08,17.27c-.28-.16-.58-.3-.91-.41-.32-.11-.68-.22-1.09-.32v-13.59h-1.03c-.36,.04-.79,.1-1.27,.17-.48,.07-.98,.15-1.48,.24-.5,.09-.98,.2-1.43,.32-.45,.12-.83,.24-1.13,.36v1.15l1.99,.24v11.11c-.38,.1-.74,.21-1.06,.32-.32,.11-.64,.25-.94,.41v1.15h8.34v-1.15Zm-8.43,0c-.52-.34-1.19-.58-1.99-.73v-7.23c0-1.25-.12-2.28-.35-3.1-.23-.82-.56-1.47-1-1.95-.43-.48-.96-.82-1.59-1.01-.62-.19-1.33-.29-2.11-.29-1.21,0-2.24,.31-3.08,.92-.85,.61-1.48,1.34-1.9,2.19h-.03v-3.11h-1.03c-.42,.04-.89,.1-1.4,.17-.51,.07-1.02,.16-1.51,.26-.49,.1-.95,.21-1.37,.32-.42,.11-.77,.23-1.03,.35v1.15l1.99,.24v11.11c-.83,.22-1.49,.47-1.99,.73v1.15h8v-1.15c-.28-.18-.55-.33-.8-.44-.25-.11-.54-.21-.86-.29v-8.42c.28-.85,.7-1.52,1.25-2.01,.55-.49,1.21-.74,1.98-.74,.93,0,1.57,.36,1.93,1.08,.36,.72,.54,1.71,.54,2.98v7.12c-.34,.12-.64,.24-.89,.35-.25,.11-.51,.24-.77,.38v1.15h8v-1.15Zm-28.81-1.54c-.36-.42-.54-1.02-.54-1.78,0-.5,.07-.93,.2-1.28,.13-.35,.37-.64,.71-.88,.34-.23,.82-.4,1.42-.5,.6-.1,1.38-.16,2.33-.18v3.02c-.06,.2-.15,.43-.26,.69-.11,.26-.27,.5-.48,.72-.21,.22-.47,.41-.77,.57s-.66,.24-1.09,.24c-.64,0-1.15-.21-1.51-.63m8.38-4.7c.05-.98,.07-2.07,.07-3.28,0-.66-.08-1.29-.24-1.87-.16-.58-.45-1.09-.86-1.53-.41-.43-.98-.77-1.71-1.03-.73-.25-1.66-.38-2.81-.38-1.35,0-2.63,.15-3.84,.45-1.21,.3-2.2,.71-2.96,1.24,.04,.34,.11,.69,.2,1.06,.09,.36,.2,.72,.33,1.07,.13,.35,.27,.69,.42,1,.15,.31,.31,.59,.47,.83h1.33l1.42-3.62c.52-.2,1.1-.3,1.72-.3,1.01,0,1.66,.4,1.96,1.21s.37,2.07,.21,3.81c-1.65,.08-3.06,.21-4.21,.39-1.16,.18-2.1,.46-2.84,.83-.73,.37-1.27,.85-1.62,1.43-.34,.58-.51,1.33-.51,2.24,0,.64,.12,1.22,.36,1.74,.24,.51,.57,.95,1,1.31,.42,.36,.92,.64,1.48,.85,.56,.2,1.18,.3,1.84,.3,.62,0,1.19-.09,1.69-.27,.5-.18,.94-.42,1.31-.71,.37-.29,.68-.62,.92-1,.24-.37,.41-.76,.51-1.16h.15c.02,.66,.05,1.23,.09,1.69,.04,.46,.16,.93,.36,1.39h1.03c.34-.04,.73-.1,1.18-.17,.44-.07,.89-.16,1.34-.27,.45-.11,.88-.23,1.3-.35,.41-.12,.74-.24,.98-.36v-1.06l-2.08-.3c-.04-.36-.07-.7-.08-1.03-.01-.32-.02-.7-.02-1.15,0-1.03,.03-2.03,.08-3.01m-19.33-4.24c.43,.95,.65,2.22,.65,3.81,0,2.19-.27,3.81-.8,4.83-.53,1.03-1.37,1.54-2.52,1.54-.52,0-.99-.06-1.4-.18-.41-.12-.76-.28-1.04-.48v-8c.22-.85,.56-1.55,1.03-2.1,.46-.55,1.08-.83,1.84-.83,1.07,0,1.82,.47,2.25,1.42m-9.47,10.75c.22,.14,.58,.28,1.07,.42,.49,.14,1.03,.26,1.62,.36,.58,.1,1.19,.19,1.81,.26,.62,.07,1.19,.11,1.69,.11,2.82,0,4.96-.7,6.42-2.08,1.46-1.39,2.19-3.46,2.19-6.22,0-2.5-.49-4.36-1.48-5.59-.99-1.23-2.37-1.84-4.14-1.84-1.13,0-2.1,.28-2.93,.85-.83,.56-1.44,1.35-1.84,2.36h-.06v-10.45h-1.03c-.36,.04-.8,.1-1.31,.17-.51,.07-1.04,.15-1.57,.24-.53,.09-1.05,.2-1.54,.32-.49,.12-.89,.24-1.19,.36v1.15l2.29,.24v19.36Zm-.94-10.75v-1.18c-.1-.46-.23-.95-.39-1.47-.16-.51-.35-.91-.57-1.19-.54-.02-1.07,.09-1.57,.33-.5,.24-.97,.56-1.39,.97-.42,.4-.79,.85-1.1,1.33-.31,.48-.55,.95-.71,1.39h-.12v-4.02h-1.03c-.32,.04-.72,.09-1.19,.15-.47,.06-.96,.13-1.46,.23-.5,.09-.99,.2-1.46,.32-.47,.12-.87,.25-1.19,.39v1.15l1.99,.24v11.11c-.32,.08-.64,.17-.97,.27-.32,.1-.66,.25-1.03,.45v1.15h8.76v-1.15c-.4-.22-.8-.39-1.21-.5s-.81-.19-1.21-.23v-7.75c.26-.65,.55-1.11,.88-1.39,.32-.28,.6-.49,.85-.61h4.14Zm-33.07-8.36c.36,.22,.76,.41,1.21,.56,.44,.15,.87,.26,1.27,.32v11.78c0,2.66,.73,4.59,2.2,5.8s3.55,1.81,6.25,1.81c2.48,0,4.39-.67,5.75-2.01,1.36-1.34,2.04-3.3,2.04-5.87v-11.36c.42-.1,.86-.23,1.3-.39,.44-.16,.85-.37,1.21-.63v-1.15h-7.49v1.15c.32,.22,.73,.42,1.22,.6,.49,.18,.97,.32,1.43,.42v11.32c0,1.01-.11,1.85-.33,2.54-.22,.69-.54,1.24-.95,1.66-.41,.42-.9,.73-1.45,.92-.55,.19-1.16,.29-1.83,.29-.75,0-1.42-.09-2.01-.27-.59-.18-1.1-.48-1.53-.89-.42-.41-.74-.95-.97-1.61-.22-.67-.33-1.49-.33-2.48v-11.63c.86-.16,1.63-.45,2.29-.88v-1.15h-9.3v1.15Zm-14.46,17.3c-.36-.42-.54-1.02-.54-1.78,0-.5,.07-.93,.2-1.28,.13-.35,.37-.64,.71-.88,.34-.23,.82-.4,1.42-.5,.6-.1,1.38-.16,2.32-.18v3.02c-.06,.2-.15,.43-.26,.69-.11,.26-.27,.5-.48,.72-.21,.22-.47,.41-.77,.57s-.66,.24-1.09,.24c-.65,0-1.15-.21-1.51-.63m8.38-4.7c.05-.98,.08-2.07,.08-3.28,0-.66-.08-1.29-.24-1.87-.16-.58-.45-1.09-.86-1.53-.41-.43-.98-.77-1.71-1.03-.72-.25-1.66-.38-2.81-.38-1.35,0-2.63,.15-3.84,.45-1.21,.3-2.19,.71-2.96,1.24,.04,.34,.11,.69,.2,1.06,.09,.36,.2,.72,.33,1.07,.13,.35,.27,.69,.42,1,.15,.31,.31,.59,.47,.83h1.33l1.42-3.62c.52-.2,1.1-.3,1.72-.3,1.01,0,1.66,.4,1.96,1.21s.37,2.07,.21,3.81c-1.65,.08-3.05,.21-4.21,.39s-2.1,.46-2.84,.83c-.74,.37-1.27,.85-1.61,1.43-.34,.58-.51,1.33-.51,2.24,0,.64,.12,1.22,.36,1.74,.24,.51,.57,.95,1,1.31,.42,.36,.92,.64,1.48,.85,.56,.2,1.18,.3,1.84,.3,.62,0,1.19-.09,1.69-.27,.5-.18,.94-.42,1.31-.71s.68-.62,.92-1c.24-.37,.41-.76,.51-1.16h.15c.02,.66,.05,1.23,.09,1.69,.04,.46,.16,.93,.36,1.39h1.03c.34-.04,.73-.1,1.18-.17,.44-.07,.89-.16,1.34-.27,.45-.11,.89-.23,1.3-.35,.41-.12,.74-.24,.98-.36v-1.06l-2.08-.3c-.04-.36-.07-.7-.08-1.03,0-.32-.01-.7-.01-1.15,0-1.03,.03-2.03,.07-3.01m-19.89-11.04c.48,.4,1.09,.6,1.85,.6s1.37-.2,1.85-.6c.48-.4,.72-.95,.72-1.63s-.24-1.26-.72-1.66c-.48-.4-1.1-.6-1.85-.6s-1.37,.2-1.85,.6c-.48,.4-.72,.96-.72,1.66s.24,1.23,.72,1.63m6.08,17.27c-.28-.16-.58-.3-.91-.41-.32-.11-.68-.22-1.09-.32v-13.59h-1.03c-.36,.04-.78,.1-1.27,.17-.48,.07-.98,.15-1.48,.24-.5,.09-.98,.2-1.43,.32-.45,.12-.83,.24-1.13,.36v1.15l1.99,.24v11.11c-.38,.1-.74,.21-1.06,.32-.32,.11-.63,.25-.94,.41v1.15h8.34v-1.15Zm-10.99-4.44l-1.63,3.87h-5.23l8.64-12.2v-1.18h-12.99c0,.73,.07,1.57,.21,2.54,.14,.97,.32,1.88,.54,2.75h1.03l1.33-3.56h5.01l-8.61,12.2v1.18h13.47c.04-.89-.02-1.83-.18-2.84-.16-1.01-.35-1.92-.57-2.75h-1.03Zm-18.28-12.83c.48,.4,1.09,.6,1.85,.6s1.37-.2,1.85-.6c.48-.4,.72-.95,.72-1.63s-.24-1.26-.72-1.66c-.48-.4-1.1-.6-1.85-.6s-1.37,.2-1.85,.6c-.48,.4-.72,.96-.72,1.66s.24,1.23,.72,1.63m6.08,17.27c-.28-.16-.59-.3-.91-.41-.32-.11-.68-.22-1.09-.32v-13.59h-1.03c-.36,.04-.79,.1-1.27,.17-.48,.07-.98,.15-1.48,.24-.5,.09-.98,.2-1.43,.32-.45,.12-.83,.24-1.13,.36v1.15l1.99,.24v11.11c-.38,.1-.74,.21-1.06,.32-.32,.11-.63,.25-.94,.41v1.15h8.34v-1.15Zm-8.82,0c-.67-.32-1.33-.56-1.99-.72v-20.84h-1.03c-.42,.04-.9,.1-1.43,.17-.53,.07-1.07,.15-1.6,.24-.53,.09-1.03,.2-1.49,.32-.46,.12-.83,.24-1.09,.36v1.15l2.3,.24v18.36c-.66,.16-1.33,.41-1.99,.73v1.15h8.34v-1.15Zm-14.9-17.27c.48,.4,1.09,.6,1.85,.6s1.37-.2,1.85-.6c.48-.4,.72-.95,.72-1.63s-.24-1.26-.72-1.66c-.48-.4-1.09-.6-1.85-.6s-1.37,.2-1.85,.6c-.48,.4-.72,.96-.72,1.66s.24,1.23,.72,1.63m6.08,17.27c-.28-.16-.58-.3-.91-.41-.32-.11-.68-.22-1.09-.32v-13.59h-1.03c-.36,.04-.79,.1-1.27,.17-.48,.07-.98,.15-1.48,.24-.5,.09-.98,.2-1.43,.32-.45,.12-.83,.24-1.13,.36v1.15l1.99,.24v11.11c-.38,.1-.74,.21-1.06,.32-.32,.11-.63,.25-.94,.41v1.15h8.34v-1.15Zm-19.87-2.38c-.44-.99-.66-2.3-.66-3.93,0-2.01,.25-3.55,.75-4.61,.5-1.06,1.34-1.58,2.51-1.58,.58,0,1.07,.05,1.46,.15,.39,.1,.72,.23,.98,.39v8.12c-.22,1.07-.57,1.82-1.06,2.26-.48,.44-1.08,.66-1.78,.66-1.03,0-1.76-.49-2.21-1.48m5.07,.54l.27,3.29h1.03c.3-.04,.68-.1,1.13-.17,.45-.07,.92-.16,1.4-.26,.48-.1,.95-.21,1.39-.33,.44-.12,.81-.25,1.09-.39v-1.06l-1.99-.24v-20.57h-1.03c-.34,.06-.77,.13-1.3,.21-.52,.08-1.06,.17-1.6,.26-.54,.09-1.06,.19-1.55,.29-.49,.1-.88,.21-1.16,.33v1.15l2.29,.24v5.34c-.24-.08-.46-.16-.65-.23-.19-.07-.39-.12-.6-.15-.21-.03-.44-.06-.69-.08-.25-.02-.56-.03-.92-.03-1.13,0-2.15,.17-3.08,.51-.93,.34-1.72,.86-2.37,1.54-.65,.68-1.16,1.52-1.52,2.52-.36,1-.54,2.16-.54,3.49,0,2.6,.52,4.53,1.55,5.78s2.55,1.89,4.54,1.89c.52,0,1.02-.09,1.48-.27,.46-.18,.88-.43,1.24-.74s.67-.67,.94-1.07c.26-.4,.44-.83,.54-1.27h.12Zm-27.78-18.15v1.15c.34,.2,.74,.38,1.19,.53,.45,.15,.88,.27,1.28,.35v17.09c-.46,.08-.91,.2-1.33,.36-.42,.16-.81,.33-1.15,.51v1.15h16.34c0-.44-.01-.93-.04-1.45-.03-.52-.07-1.04-.12-1.56s-.12-1.01-.2-1.5c-.08-.48-.16-.92-.24-1.3h-1.24l-1.6,3.83h-5.89v-7.85h3.68l1.33,2.39h.97c.1-1.05,.15-2.17,.15-3.38s-.05-2.31-.15-3.29h-.97l-1.33,2.33h-3.68v-7.4h5.65l1.39,3.56h1.24c.16-.85,.29-1.75,.39-2.72,.1-.97,.17-1.9,.21-2.81h-15.88Z"/><path class="d" d="M18.32,27.2v2.36c.7,.41,1.52,.78,2.45,1.08,.93,.31,1.81,.55,2.64,.71v35.09c-.95,.17-1.86,.41-2.73,.74-.87,.33-1.65,.68-2.36,1.05v2.36H51.86c0-.91-.03-1.9-.09-2.98-.06-1.07-.15-2.14-.25-3.19-.1-1.05-.24-2.08-.4-3.07-.17-.99-.33-1.88-.5-2.67h-2.54l-3.29,7.87h-12.09v-16.12h7.56l2.73,4.9h1.98c.21-2.15,.31-4.46,.31-6.94s-.1-4.73-.31-6.76h-1.98l-2.73,4.77h-7.56v-15.19h11.59l2.85,7.32h2.54c.33-1.74,.6-3.6,.81-5.58,.21-1.98,.35-3.91,.43-5.77H18.32Z"/><path class="d" d="M52.5,48.51c.74,.46,1.57,.84,2.48,1.15,.91,.31,1.78,.53,2.6,.65v24.18c0,5.46,1.51,9.42,4.53,11.9,3.02,2.48,7.3,3.72,12.83,3.72,5.08,0,9.02-1.37,11.81-4.12,2.79-2.75,4.18-6.77,4.18-12.06v-23.31c.87-.21,1.76-.47,2.67-.81,.91-.33,1.74-.76,2.48-1.3v-2.36h-15.38v2.36c.66,.46,1.5,.87,2.51,1.24,1.01,.37,1.99,.66,2.94,.87v23.25c0,2.07-.23,3.8-.68,5.21-.46,1.41-1.11,2.54-1.95,3.41-.85,.87-1.84,1.5-2.98,1.89-1.14,.39-2.39,.59-3.75,.59-1.53,0-2.9-.19-4.12-.56-1.22-.37-2.26-.98-3.13-1.83-.87-.85-1.53-1.95-1.98-3.32-.45-1.36-.68-3.06-.68-5.08v-23.87c1.78-.33,3.35-.93,4.71-1.8v-2.36h-19.1v2.36Z"/><path class="e" d="M54.78,6.81C28.33,6.81,6.81,28.33,6.81,54.78s21.52,47.97,47.97,47.97,47.97-21.52,47.97-47.97S81.23,6.81,54.78,6.81m0,102.75C24.57,109.55,0,84.98,0,54.78S24.57,0,54.78,0s54.78,24.57,54.78,54.78-24.57,54.78-54.78,54.78"/></g></svg>