<?xml version="1.0" encoding="UTF-8"?><svg id="Livello_1" xmlns="http://www.w3.org/2000/svg" xmlns:xlink="http://www.w3.org/1999/xlink" viewBox="0 0 257.99 62.98"><defs><style>.cls-1{fill:none;}.cls-2{letter-spacing:-.02em;}.cls-3{letter-spacing:-.02em;}.cls-4{letter-spacing:-.02em;}.cls-5{fill:#004661;}.cls-5,.cls-6{font-size:23.22px;}.cls-5,.cls-6,.cls-7,.cls-8,.cls-9{font-family:PTSerif-Bold, 'PT Serif';}.cls-6,.cls-8,.cls-9{fill:#e3924c;}.cls-10{letter-spacing:-.02em;}.cls-11{clip-path:url(#clippath);}.cls-12,.cls-13{fill:#009fe3;}.cls-7{fill:#015881;}.cls-7,.cls-8{font-size:33.95px;}.cls-14{clip-path:url(#clippath-1);}.cls-9{font-size:13.01px;}.cls-13{font-family:PTSerif-Regular, 'PT Serif';font-size:17.83px;}.cls-15{letter-spacing:.03em;}.cls-16{letter-spacing:.03em;}.cls-17{letter-spacing:.03em;}.cls-18{letter-spacing:.03em;}.cls-19{letter-spacing:.03em;}.cls-20{letter-spacing:.03em;}</style><clipPath id="clippath"><rect class="cls-1" width="257.99" height="62.98"/></clipPath><clipPath id="clippath-1"><rect class="cls-1" width="257.99" height="62.98"/></clipPath></defs><text class="cls-8" transform="translate(32.67 49.69)"><tspan x="0" y="0">L</tspan></text><text class="cls-7" transform="translate(10.23 40.32)"><tspan x="0" y="0">P</tspan></text><g class="cls-11"><path class="cls-12" d="M31.49,3.91C16.28,3.91,3.91,16.28,3.91,31.49s12.37,27.58,27.58,27.58,27.58-12.37,27.58-27.58S46.7,3.91,31.49,3.91m0,59.07C14.13,62.98,0,48.85,0,31.49S14.13,0,31.49,0s31.49,14.13,31.49,31.49-14.13,31.49-31.49,31.49"/></g><text class="cls-5" transform="translate(69.48 33.61)"><tspan class="cls-18" x="0" y="0">P</tspan><tspan class="cls-17" x="15.54" y="0">olizi</tspan><tspan x="67.92" y="0">a</tspan></text><text class="cls-6" transform="translate(151.06 33.61)"><tspan x="0" y="0">L</tspan></text><text class="cls-5" transform="translate(165.29 33.61)"><tspan class="cls-17" x="0" y="0">o</tspan><tspan class="cls-19" x="14.49" y="0">c</tspan><tspan class="cls-17" x="26.4" y="0">al</tspan><tspan x="48.44" y="0">e</tspan></text><g class="cls-14"><text class="cls-9" transform="translate(226.92 33.61)"><tspan class="cls-16" x="0" y="0">.</tspan><tspan class="cls-20" x="4.24" y="0">c</tspan><tspan class="cls-15" x="10.92" y="0">o</tspan><tspan x="19.03" y="0">m</tspan></text></g><text class="cls-13" transform="translate(89.28 53.21) scale(.98) skewX(-10)"><tspan class="cls-4" x="0" y="0">V</tspan><tspan class="cls-3" x="11.86" y="0">i</tspan><tspan class="cls-2" x="16.87" y="0">g</tspan><tspan class="cls-10" x="25.91" y="0">i</tspan><tspan class="cls-4" x="30.92" y="0">lare </tspan><tspan class="cls-10" x="63.76" y="0">s</tspan><tspan class="cls-2" x="71.12" y="0">u</tspan><tspan class="cls-10" x="81.02" y="0">ll</tspan><tspan class="cls-2" x="91.04" y="0">a </tspan><tspan class="cls-3" x="103.7" y="0">s</tspan><tspan class="cls-4" x="111.07" y="0">trad</tspan><tspan x="142.08" y="0">a</tspan></text></svg>