<?xml version="1.0" encoding="utf-8"?>
<!-- Generator: Adobe Illustrator 26.3.1, SVG Export Plug-In . SVG Version: 6.00 Build 0)  -->
<svg version="1.1" id="Livello_1" xmlns="http://www.w3.org/2000/svg" xmlns:xlink="http://www.w3.org/1999/xlink" x="0px" y="0px"
	 viewBox="0 0 286.9 59.4" style="enable-background:new 0 0 286.9 59.4;" xml:space="preserve">
<style type="text/css">
	.st0{fill:#004661;}
	.st1{fill:#0298B9;}
	.st2{clip-path:url(#SVGID_00000104701868757744301810000003479531464983409073_);}
	.st3{clip-path:url(#SVGID_00000030452856676720259390000004335857255645145745_);fill:#F9B233;}
</style>
<g>
	<path class="st0" d="M68.5,38H62v-1c0.3-0.2,0.6-0.3,0.9-0.5s0.6-0.2,1-0.3l6.8-16.9h1.9l6.6,16.9c0.3,0.1,0.7,0.2,1,0.3
		s0.7,0.3,0.9,0.5v1h-8.2v-1c0.3-0.2,0.7-0.3,1.1-0.4s0.8-0.2,1.1-0.3l-1.5-4.2h-5.8l-1.5,4.2c0.8,0.1,1.6,0.4,2.3,0.8V38z
		 M68.4,30.4H73l-1.7-5l-0.5-2.3h-0.1l-0.6,2.3L68.4,30.4z"/>
	<path class="st0" d="M88.9,43.2h-7.2v-1c0.6-0.3,1.2-0.5,1.7-0.6V26.7l-1.7-0.2v-1c0.3-0.1,0.6-0.2,1-0.3c0.4-0.1,0.8-0.2,1.3-0.3
		c0.4-0.1,0.9-0.1,1.3-0.2c0.4-0.1,0.8-0.1,1-0.1h0.9v2.9h0c0.3-0.8,0.8-1.5,1.4-2.1c0.6-0.6,1.5-0.8,2.7-0.8c0.8,0,1.5,0.1,2.1,0.4
		c0.6,0.3,1.1,0.6,1.6,1.2c0.4,0.5,0.8,1.2,1,2c0.2,0.8,0.4,1.8,0.4,3c0,1.1-0.2,2.1-0.5,3c-0.3,0.9-0.7,1.6-1.3,2.3
		c-0.6,0.6-1.3,1.1-2.1,1.4c-0.8,0.3-1.7,0.5-2.8,0.5c-0.6,0-1.1,0-1.4-0.1c-0.3-0.1-0.7-0.2-1.1-0.4v3.8c0.3,0,0.6,0.1,0.8,0.2
		s0.6,0.2,0.9,0.4V43.2z M89.7,26.7c-0.6,0-1.1,0.2-1.6,0.6c-0.5,0.4-0.8,1.1-1,1.9v7c0.3,0.2,0.6,0.4,0.9,0.5
		c0.3,0.1,0.7,0.1,1.2,0.1c1,0,1.7-0.5,2.2-1.4c0.5-1,0.7-2.4,0.7-4.2c0-1.4-0.2-2.5-0.5-3.3C91.3,27.1,90.6,26.7,89.7,26.7z"/>
	<path class="st0" d="M104.8,43.2h-7.2v-1c0.6-0.3,1.2-0.5,1.7-0.6V26.7l-1.7-0.2v-1c0.3-0.1,0.6-0.2,1-0.3c0.4-0.1,0.8-0.2,1.3-0.3
		c0.4-0.1,0.9-0.1,1.3-0.2c0.4-0.1,0.8-0.1,1-0.1h0.9v2.9h0c0.3-0.8,0.8-1.5,1.4-2.1c0.6-0.6,1.5-0.8,2.7-0.8c0.8,0,1.5,0.1,2.1,0.4
		c0.6,0.3,1.1,0.6,1.6,1.2c0.4,0.5,0.8,1.2,1,2c0.2,0.8,0.4,1.8,0.4,3c0,1.1-0.2,2.1-0.5,3c-0.3,0.9-0.7,1.6-1.3,2.3
		c-0.6,0.6-1.3,1.1-2.1,1.4c-0.8,0.3-1.7,0.5-2.8,0.5c-0.6,0-1.1,0-1.4-0.1c-0.3-0.1-0.7-0.2-1.1-0.4v3.8c0.3,0,0.6,0.1,0.8,0.2
		s0.6,0.2,0.9,0.4V43.2z M105.6,26.7c-0.6,0-1.1,0.2-1.6,0.6c-0.5,0.4-0.8,1.1-1,1.9v7c0.3,0.2,0.6,0.4,0.9,0.5
		c0.3,0.1,0.7,0.1,1.2,0.1c1,0,1.7-0.5,2.2-1.4c0.5-1,0.7-2.4,0.7-4.2c0-1.4-0.2-2.5-0.5-3.3C107.2,27.1,106.6,26.7,105.6,26.7z"/>
	<path class="st0" d="M125.3,34.2c0,0.4,0,0.7,0,1s0,0.6,0.1,0.9l1.8,0.3v0.9c-0.2,0.1-0.5,0.2-0.9,0.3c-0.4,0.1-0.7,0.2-1.1,0.3
		s-0.8,0.2-1.2,0.2c-0.4,0.1-0.7,0.1-1,0.1h-0.9c-0.2-0.4-0.3-0.8-0.3-1.2c0-0.4-0.1-0.9-0.1-1.5h-0.1c-0.1,0.3-0.2,0.7-0.4,1
		c-0.2,0.3-0.5,0.6-0.8,0.9c-0.3,0.3-0.7,0.5-1.1,0.6c-0.4,0.2-0.9,0.2-1.5,0.2c-0.6,0-1.1-0.1-1.6-0.3c-0.5-0.2-0.9-0.4-1.3-0.7
		c-0.4-0.3-0.7-0.7-0.9-1.1c-0.2-0.4-0.3-0.9-0.3-1.5c0-0.8,0.1-1.4,0.4-1.9c0.3-0.5,0.8-0.9,1.4-1.2c0.6-0.3,1.5-0.6,2.5-0.7
		c1-0.2,2.2-0.3,3.7-0.3c0.1-1.5,0.1-2.6-0.2-3.3c-0.3-0.7-0.8-1-1.7-1c-0.5,0-1,0.1-1.5,0.3l-1.2,3.1h-1.2
		c-0.1-0.2-0.3-0.4-0.4-0.7c-0.1-0.3-0.3-0.6-0.4-0.9c-0.1-0.3-0.2-0.6-0.3-0.9c-0.1-0.3-0.1-0.6-0.2-0.9c0.7-0.5,1.5-0.8,2.6-1.1
		s2.2-0.4,3.3-0.4c1,0,1.8,0.1,2.4,0.3c0.6,0.2,1.1,0.5,1.5,0.9c0.4,0.4,0.6,0.8,0.7,1.3c0.1,0.5,0.2,1,0.2,1.6c0,1,0,2-0.1,2.8
		C125.3,32.4,125.3,33.3,125.3,34.2z M119.4,36.2c0.4,0,0.7-0.1,0.9-0.2c0.3-0.1,0.5-0.3,0.7-0.5s0.3-0.4,0.4-0.6
		c0.1-0.2,0.2-0.4,0.2-0.6v-2.6c-0.8,0-1.5,0.1-2,0.2s-0.9,0.2-1.2,0.4c-0.3,0.2-0.5,0.5-0.6,0.8c-0.1,0.3-0.2,0.7-0.2,1.1
		c0,0.7,0.2,1.2,0.5,1.5C118.4,36,118.8,36.2,119.4,36.2z"/>
	<path class="st0" d="M135.6,38h-7.2v-1c0.6-0.3,1.2-0.5,1.7-0.6V20.4l-2-0.2v-1c0.2-0.1,0.5-0.2,0.9-0.3c0.4-0.1,0.8-0.2,1.3-0.3
		c0.5-0.1,0.9-0.1,1.4-0.2c0.5-0.1,0.9-0.1,1.2-0.1h0.9v18.1c0.6,0.1,1.2,0.3,1.7,0.6V38z"/>
	<path class="st0" d="M136.4,25.5c0.7-0.4,1.4-0.7,2.1-0.9v-2.1c0.1-0.1,0.5-0.3,1-0.5c0.5-0.2,1.2-0.4,1.8-0.5h0.9v3.3h3.5v1.7
		h-3.5v6.7c0,1.1,0.1,1.8,0.4,2.2c0.3,0.4,0.7,0.6,1.3,0.6c0.3,0,0.7,0,1.1-0.1c0.4,0,0.8-0.1,1.1-0.2l0.2,0.9
		c-0.2,0.2-0.4,0.3-0.7,0.5s-0.7,0.3-1,0.5s-0.8,0.3-1.3,0.4c-0.5,0.1-0.9,0.2-1.5,0.2c-1.1,0-2-0.3-2.5-0.9
		c-0.6-0.6-0.8-1.5-0.8-2.9v-7.9h-2.1V25.5z"/>
	<path class="st0" d="M154.7,38h-7.2v-1c0.3-0.1,0.5-0.3,0.8-0.4s0.6-0.2,0.9-0.3v-9.6l-1.7-0.2v-1c0.3-0.1,0.6-0.2,1-0.3
		s0.8-0.2,1.2-0.3c0.4-0.1,0.9-0.1,1.3-0.2c0.4-0.1,0.8-0.1,1.1-0.1h0.9v11.8c0.3,0.1,0.7,0.2,0.9,0.3c0.3,0.1,0.5,0.2,0.8,0.4V38z
		 M148.8,20.6c0-0.6,0.2-1.1,0.6-1.4c0.4-0.3,0.9-0.5,1.6-0.5c0.7,0,1.2,0.2,1.6,0.5c0.4,0.3,0.6,0.8,0.6,1.4c0,0.6-0.2,1.1-0.6,1.4
		c-0.4,0.3-0.9,0.5-1.6,0.5c-0.7,0-1.2-0.2-1.6-0.5C149,21.7,148.8,21.2,148.8,20.6z"/>
</g>
<g>
</g>
<g>
	<path class="st1" d="M166.8,38c-0.2-0.1-0.5-0.3-0.7-0.4s-0.6-0.4-0.8-0.7c-0.3,0.3-0.8,0.6-1.4,0.9c-0.6,0.3-1.3,0.4-2,0.4
		c-0.7,0-1.3-0.1-1.8-0.3c-0.5-0.2-0.9-0.4-1.2-0.8c-0.3-0.3-0.6-0.7-0.7-1c-0.2-0.4-0.2-0.8-0.2-1.2c0-0.5,0.1-0.9,0.3-1.3
		c0.2-0.4,0.4-0.8,0.7-1.1c0.3-0.3,0.5-0.6,0.8-0.8c0.3-0.2,0.6-0.4,0.8-0.5c-0.3-0.3-0.5-0.6-0.7-1c-0.2-0.4-0.3-0.8-0.3-1.2
		c0-0.3,0.1-0.5,0.2-0.8c0.1-0.3,0.3-0.5,0.5-0.7s0.5-0.4,0.8-0.5c0.3-0.1,0.7-0.2,1.2-0.2c0.8,0,1.4,0.2,1.8,0.5
		c0.5,0.3,0.7,0.8,0.7,1.4c0,0.3-0.1,0.6-0.2,0.9c-0.1,0.3-0.2,0.5-0.4,0.8s-0.4,0.5-0.6,0.7c-0.2,0.2-0.5,0.4-0.7,0.6
		c0.7,1,1.7,2.1,3,3.2c0.1-0.1,0.2-0.3,0.3-0.6c0.1-0.3,0.2-0.6,0.3-0.9c0.1-0.3,0.1-0.7,0.1-1.1c0-0.4,0-0.8-0.1-1.1
		c-0.2,0-0.3-0.1-0.4-0.1c-0.1-0.1-0.3-0.1-0.4-0.2v-0.6h3.6v0.6c-0.3,0.2-0.6,0.3-1,0.4c-0.1,0.5-0.1,0.9-0.2,1.3
		c-0.1,0.4-0.2,0.9-0.4,1.2c-0.1,0.4-0.3,0.7-0.4,1s-0.3,0.5-0.5,0.7c0.4,0.3,0.7,0.6,1.1,0.9c0.4,0.3,0.7,0.5,1.1,0.7l0.8,0.4V38
		H166.8z M164.5,36.2c-0.3-0.3-0.7-0.6-1-1c-0.3-0.4-0.7-0.7-1-1.1c-0.3-0.4-0.6-0.7-0.8-1.1c-0.3-0.4-0.5-0.7-0.6-0.9
		c-0.3,0.4-0.5,0.7-0.7,1.1c-0.1,0.3-0.2,0.7-0.2,1.2c0,0.4,0.1,0.7,0.2,1.1c0.1,0.3,0.3,0.6,0.5,0.8c0.2,0.2,0.5,0.4,0.8,0.5
		c0.3,0.1,0.6,0.2,1,0.2c0.3,0,0.6-0.1,1-0.2C163.9,36.7,164.2,36.4,164.5,36.2z M161.2,28.9c0,0.2,0,0.3,0.1,0.5
		c0.1,0.2,0.1,0.4,0.2,0.6c0.1,0.2,0.2,0.4,0.3,0.5c0.1,0.2,0.2,0.3,0.4,0.5c0.4-0.3,0.6-0.6,0.8-1s0.2-0.8,0.2-1.2
		c0-0.3-0.1-0.5-0.3-0.7c-0.2-0.2-0.4-0.3-0.7-0.3c-0.3,0-0.6,0.1-0.8,0.4C161.3,28.3,161.2,28.6,161.2,28.9z"/>
</g>
<g>
</g>
<g>
</g>
<g>
	<defs>
		<rect id="SVGID_1_" x="2.3" y="2.5" width="282.3" height="52.6"/>
	</defs>
	<clipPath id="SVGID_00000036235488547041081770000017766521053865748656_">
		<use xlink:href="#SVGID_1_"  style="overflow:visible;"/>
	</clipPath>
	<g style="clip-path:url(#SVGID_00000036235488547041081770000017766521053865748656_);">
		<path class="st0" d="M184,32.5h1.1c0.1,0.3,0.1,0.6,0.2,1c0.1,0.4,0.1,0.8,0.2,1.3c0,0.4,0.1,0.9,0.1,1.3c0,0.4,0,0.8,0,1.2
			c-0.6,0.4-1.4,0.7-2.3,0.8c-0.9,0.2-1.9,0.2-2.8,0.2c-1.4,0-2.8-0.2-3.9-0.5s-2.2-0.9-3-1.7c-0.8-0.8-1.5-1.8-1.9-3
			c-0.5-1.2-0.7-2.6-0.7-4.3c0-1.7,0.2-3.1,0.7-4.3c0.5-1.2,1.2-2.2,2-2.9c0.8-0.8,1.8-1.3,2.9-1.7c1.1-0.4,2.3-0.5,3.5-0.5
			c1.2,0,2.2,0.1,3.1,0.2c0.9,0.2,1.7,0.4,2.3,0.7c0,0.3,0,0.6,0,1.1c0,0.4-0.1,0.9-0.1,1.4c-0.1,0.5-0.1,1-0.2,1.4
			c-0.1,0.5-0.2,0.9-0.2,1.2h-1.1l-1.4-4c-0.2-0.1-0.4-0.2-0.8-0.2s-0.7-0.1-1.1-0.1c-0.7,0-1.4,0.1-2,0.4c-0.6,0.3-1.2,0.7-1.7,1.4
			c-0.5,0.6-0.9,1.4-1.2,2.4c-0.3,1-0.4,2.2-0.4,3.5c0,2.5,0.5,4.4,1.5,5.8s2.3,2,4.1,2c0.5,0,0.9,0,1.2-0.1
			c0.3-0.1,0.6-0.2,0.7-0.3L184,32.5z"/>
		<path class="st0" d="M187.8,31.4c0-1.1,0.2-2,0.5-2.9c0.3-0.8,0.8-1.6,1.4-2.2s1.3-1,2.2-1.4c0.9-0.3,1.8-0.5,2.9-0.5
			c1.2,0,2.3,0.2,3.2,0.5c0.9,0.3,1.6,0.8,2.2,1.4c0.6,0.6,1,1.3,1.2,2.2c0.3,0.8,0.4,1.8,0.4,2.8c0,1.1-0.2,2-0.5,2.9
			c-0.3,0.8-0.8,1.6-1.4,2.2c-0.6,0.6-1.3,1-2.2,1.4c-0.9,0.3-1.8,0.5-2.9,0.5c-1.2,0-2.2-0.2-3.1-0.5c-0.9-0.3-1.6-0.8-2.2-1.4
			c-0.6-0.6-1-1.3-1.3-2.2C187.9,33.3,187.8,32.4,187.8,31.4z M191.8,31.4c0,0.8,0,1.5,0.1,2.2c0.1,0.7,0.3,1.2,0.5,1.7
			c0.2,0.5,0.6,0.8,1,1.1c0.4,0.3,1,0.4,1.6,0.4c0.4,0,0.7-0.1,1-0.3c0.3-0.2,0.6-0.5,0.8-0.9c0.2-0.4,0.4-1,0.5-1.6
			c0.1-0.7,0.2-1.5,0.2-2.5c0-0.8,0-1.5-0.1-2.2c-0.1-0.6-0.3-1.2-0.5-1.6c-0.2-0.5-0.6-0.8-1-1.1c-0.4-0.3-0.9-0.4-1.5-0.4
			c-0.5,0-0.8,0.1-1.2,0.3c-0.3,0.2-0.6,0.5-0.8,0.9c-0.2,0.4-0.4,1-0.5,1.6C191.9,29.6,191.8,30.5,191.8,31.4z"/>
		<path class="st0" d="M219.1,38h-6.9v-1c0.2-0.1,0.4-0.2,0.7-0.3c0.2-0.1,0.5-0.2,0.8-0.3v-6.2c0-1.1-0.2-2-0.5-2.6
			c-0.3-0.6-0.9-0.9-1.7-0.9c-0.7,0-1.2,0.2-1.7,0.6c-0.5,0.4-0.8,1-1.1,1.7v7.3c0.3,0.1,0.5,0.2,0.7,0.2c0.2,0.1,0.4,0.2,0.7,0.4v1
			h-6.9v-1c0.4-0.2,1-0.4,1.7-0.6v-9.6l-1.7-0.2v-1c0.2-0.1,0.5-0.2,0.9-0.3c0.4-0.1,0.8-0.2,1.2-0.3c0.4-0.1,0.9-0.2,1.3-0.2
			c0.4-0.1,0.9-0.1,1.2-0.1h0.9v2.7h0c0.4-0.7,0.9-1.4,1.6-1.9c0.7-0.5,1.6-0.8,2.7-0.8c0.7,0,1.3,0.1,1.8,0.2
			c0.5,0.2,1,0.5,1.4,0.9c0.4,0.4,0.7,1,0.9,1.7c0.2,0.7,0.3,1.6,0.3,2.7v6.3c0.7,0.1,1.3,0.3,1.7,0.6V38z"/>
		<path class="st0" d="M219.6,25.5c0.7-0.4,1.4-0.7,2.1-0.9v-2.1c0.1-0.1,0.5-0.3,1-0.5s1.2-0.4,1.8-0.5h0.9v3.3h3.5v1.7h-3.5v6.7
			c0,1.1,0.1,1.8,0.4,2.2s0.7,0.6,1.3,0.6c0.3,0,0.7,0,1.1-0.1c0.4,0,0.8-0.1,1.1-0.2l0.2,0.9c-0.2,0.2-0.4,0.3-0.7,0.5
			c-0.3,0.2-0.7,0.3-1,0.5s-0.8,0.3-1.3,0.4c-0.5,0.1-0.9,0.2-1.5,0.2c-1.1,0-2-0.3-2.5-0.9c-0.6-0.6-0.8-1.5-0.8-2.9v-7.9h-2.1
			V25.5z"/>
		<path class="st0" d="M237.4,27.9c-0.2,0.1-0.5,0.3-0.7,0.5c-0.3,0.2-0.5,0.6-0.8,1.2v6.7c0.3,0,0.7,0.1,1,0.2
			c0.3,0.1,0.7,0.2,1,0.4v1h-7.6v-1c0.3-0.2,0.6-0.3,0.9-0.4c0.3-0.1,0.6-0.2,0.8-0.2v-9.6l-1.7-0.2v-1c0.3-0.1,0.6-0.2,1-0.3
			c0.4-0.1,0.8-0.2,1.3-0.3c0.4-0.1,0.9-0.1,1.3-0.2c0.4-0.1,0.8-0.1,1-0.1h0.9v3.5h0.1c0.1-0.4,0.3-0.8,0.6-1.2s0.6-0.8,1-1.2
			c0.4-0.3,0.8-0.6,1.2-0.8c0.4-0.2,0.9-0.3,1.4-0.3c0.2,0.2,0.4,0.6,0.5,1s0.3,0.9,0.3,1.3v1H237.4z"/>
		<path class="st0" d="M253.4,34.2c0,0.4,0,0.7,0,1s0,0.6,0.1,0.9l1.8,0.3v0.9c-0.2,0.1-0.5,0.2-0.9,0.3c-0.4,0.1-0.7,0.2-1.1,0.3
			s-0.8,0.2-1.2,0.2c-0.4,0.1-0.7,0.1-1,0.1h-0.9c-0.2-0.4-0.3-0.8-0.3-1.2c0-0.4-0.1-0.9-0.1-1.5h-0.1c-0.1,0.3-0.2,0.7-0.4,1
			c-0.2,0.3-0.5,0.6-0.8,0.9c-0.3,0.3-0.7,0.5-1.1,0.6c-0.4,0.2-0.9,0.2-1.5,0.2c-0.6,0-1.1-0.1-1.6-0.3c-0.5-0.2-0.9-0.4-1.3-0.7
			c-0.4-0.3-0.7-0.7-0.9-1.1c-0.2-0.4-0.3-0.9-0.3-1.5c0-0.8,0.1-1.4,0.4-1.9c0.3-0.5,0.8-0.9,1.4-1.2s1.5-0.6,2.5-0.7
			c1-0.2,2.2-0.3,3.7-0.3c0.1-1.5,0.1-2.6-0.2-3.3c-0.3-0.7-0.8-1-1.7-1c-0.5,0-1,0.1-1.5,0.3l-1.2,3.1H244
			c-0.1-0.2-0.3-0.4-0.4-0.7c-0.1-0.3-0.3-0.6-0.4-0.9c-0.1-0.3-0.2-0.6-0.3-0.9c-0.1-0.3-0.1-0.6-0.2-0.9c0.7-0.5,1.5-0.8,2.6-1.1
			s2.2-0.4,3.3-0.4c1,0,1.8,0.1,2.4,0.3s1.1,0.5,1.5,0.9c0.4,0.4,0.6,0.8,0.7,1.3c0.1,0.5,0.2,1,0.2,1.6c0,1,0,2-0.1,2.8
			C253.4,32.4,253.4,33.3,253.4,34.2z M247.5,36.2c0.4,0,0.7-0.1,0.9-0.2c0.3-0.1,0.5-0.3,0.7-0.5c0.2-0.2,0.3-0.4,0.4-0.6
			c0.1-0.2,0.2-0.4,0.2-0.6v-2.6c-0.8,0-1.5,0.1-2,0.2c-0.5,0.1-0.9,0.2-1.2,0.4c-0.3,0.2-0.5,0.5-0.6,0.8s-0.2,0.7-0.2,1.1
			c0,0.7,0.2,1.2,0.5,1.5C246.5,36,247,36.2,247.5,36.2z"/>
		<path class="st0" d="M255.9,25.5c0.7-0.4,1.4-0.7,2.1-0.9v-2.1c0.1-0.1,0.5-0.3,1-0.5s1.2-0.4,1.8-0.5h0.9v3.3h3.5v1.7h-3.5v6.7
			c0,1.1,0.1,1.8,0.4,2.2s0.7,0.6,1.3,0.6c0.3,0,0.7,0,1.1-0.1c0.4,0,0.8-0.1,1.1-0.2l0.2,0.9c-0.2,0.2-0.4,0.3-0.7,0.5
			c-0.3,0.2-0.7,0.3-1,0.5s-0.8,0.3-1.3,0.4c-0.5,0.1-0.9,0.2-1.5,0.2c-1.1,0-2-0.3-2.5-0.9c-0.6-0.6-0.8-1.5-0.8-2.9v-7.9h-2.1
			V25.5z"/>
		<path class="st0" d="M266.3,25.5c0.7-0.4,1.4-0.7,2.1-0.9v-2.1c0.1-0.1,0.5-0.3,1-0.5s1.2-0.4,1.8-0.5h0.9v3.3h3.5v1.7h-3.5v6.7
			c0,1.1,0.1,1.8,0.4,2.2s0.7,0.6,1.3,0.6c0.3,0,0.7,0,1.1-0.1c0.4,0,0.8-0.1,1.1-0.2l0.2,0.9c-0.2,0.2-0.4,0.3-0.7,0.5
			c-0.3,0.2-0.7,0.3-1,0.5s-0.8,0.3-1.3,0.4c-0.5,0.1-0.9,0.2-1.5,0.2c-1.1,0-2-0.3-2.5-0.9c-0.6-0.6-0.8-1.5-0.8-2.9v-7.9h-2.1
			V25.5z"/>
		<path class="st0" d="M284.6,38h-7.2v-1c0.3-0.1,0.5-0.3,0.8-0.4c0.3-0.1,0.6-0.2,0.9-0.3v-9.6l-1.7-0.2v-1c0.3-0.1,0.6-0.2,1-0.3
			s0.8-0.2,1.2-0.3c0.4-0.1,0.9-0.1,1.3-0.2c0.4-0.1,0.8-0.1,1.1-0.1h0.9v11.8c0.3,0.1,0.7,0.2,0.9,0.3s0.5,0.2,0.8,0.4V38z
			 M278.7,20.6c0-0.6,0.2-1.1,0.6-1.4c0.4-0.3,0.9-0.5,1.6-0.5s1.2,0.2,1.6,0.5s0.6,0.8,0.6,1.4c0,0.6-0.2,1.1-0.6,1.4
			c-0.4,0.3-0.9,0.5-1.6,0.5s-1.2-0.2-1.6-0.5C278.9,21.7,278.7,21.2,278.7,20.6z"/>
	</g>
</g>
<g>
	<path class="st0" d="M16.1,39.4H8.5v-1.2c0.3-0.2,0.7-0.4,1.1-0.5c0.4-0.2,0.7-0.3,1.1-0.4l7.9-19.6h2.3l7.6,19.6
		c0.4,0.1,0.8,0.2,1.2,0.4c0.4,0.2,0.8,0.3,1.1,0.5v1.2h-9.5v-1.2c0.4-0.2,0.8-0.4,1.2-0.5c0.4-0.2,0.9-0.3,1.3-0.4L22,32.5h-6.8
		l-1.8,4.8c0.9,0.1,1.8,0.4,2.7,0.9V39.4z M15.9,30.5h5.4l-2-5.8l-0.6-2.6h-0.1L18,24.8L15.9,30.5z"/>
	<path class="st0" d="M47.2,33h1.2c0.1,0.3,0.2,0.7,0.2,1.2c0.1,0.5,0.1,0.9,0.2,1.5c0.1,0.5,0.1,1,0.1,1.5c0,0.5,0,1,0,1.4
		c-0.7,0.4-1.6,0.8-2.7,0.9s-2.2,0.3-3.3,0.3c-1.7,0-3.2-0.2-4.6-0.6c-1.4-0.4-2.5-1.1-3.5-2c-1-0.9-1.7-2.1-2.2-3.4
		c-0.5-1.4-0.8-3.1-0.8-5c0-1.9,0.3-3.6,0.9-5c0.6-1.4,1.4-2.5,2.3-3.4c1-0.9,2.1-1.5,3.4-2c1.3-0.4,2.6-0.6,4.1-0.6
		c1.3,0,2.6,0.1,3.6,0.3c1.1,0.2,2,0.5,2.7,0.8c0,0.3,0,0.7,0,1.2c0,0.5-0.1,1-0.2,1.6c-0.1,0.6-0.2,1.1-0.2,1.6
		c-0.1,0.5-0.2,1-0.3,1.4h-1.3L45.2,20c-0.2-0.1-0.5-0.2-0.9-0.2s-0.8-0.1-1.2-0.1c-0.8,0-1.6,0.2-2.3,0.5c-0.7,0.3-1.4,0.9-1.9,1.6
		c-0.6,0.7-1,1.7-1.3,2.8c-0.3,1.1-0.5,2.5-0.5,4.1c0,2.9,0.6,5.1,1.7,6.7c1.2,1.6,2.7,2.3,4.7,2.3c0.6,0,1.1,0,1.4-0.1
		c0.4-0.1,0.7-0.2,0.8-0.4L47.2,33z"/>
</g>
<g>
	<path class="st1" d="M33.7,42.5c-0.2-0.1-0.5-0.3-0.8-0.5c-0.3-0.2-0.6-0.4-0.9-0.7c-0.3,0.3-0.8,0.7-1.4,0.9s-1.3,0.4-2.1,0.4
		c-0.7,0-1.4-0.1-1.9-0.3c-0.5-0.2-1-0.5-1.3-0.8c-0.3-0.3-0.6-0.7-0.8-1.1c-0.2-0.4-0.2-0.8-0.2-1.2c0-0.5,0.1-1,0.3-1.4
		s0.4-0.8,0.7-1.1c0.3-0.3,0.6-0.6,0.9-0.8s0.6-0.4,0.8-0.5c-0.3-0.3-0.5-0.6-0.7-1.1S26,33.5,26,33.1c0-0.3,0.1-0.5,0.2-0.8
		s0.3-0.5,0.5-0.7c0.2-0.2,0.5-0.4,0.9-0.5c0.3-0.1,0.7-0.2,1.2-0.2c0.8,0,1.4,0.2,1.9,0.5c0.5,0.3,0.7,0.8,0.7,1.5
		c0,0.3-0.1,0.6-0.2,0.9c-0.1,0.3-0.3,0.5-0.4,0.8c-0.2,0.3-0.4,0.5-0.6,0.7s-0.5,0.4-0.7,0.6c0.8,1,1.8,2.1,3.1,3.3
		c0.1-0.1,0.2-0.3,0.3-0.6c0.1-0.3,0.2-0.6,0.3-1c0.1-0.4,0.1-0.7,0.1-1.1c0-0.4,0-0.8-0.1-1.1c-0.2,0-0.3-0.1-0.5-0.1
		c-0.1-0.1-0.3-0.1-0.4-0.2v-0.6H36v0.6c-0.3,0.2-0.7,0.3-1.1,0.4c-0.1,0.5-0.1,0.9-0.2,1.4c-0.1,0.5-0.2,0.9-0.4,1.3
		s-0.3,0.8-0.5,1.1c-0.2,0.3-0.3,0.6-0.5,0.7c0.4,0.3,0.8,0.6,1.2,0.9c0.4,0.3,0.8,0.5,1.2,0.7l0.8,0.4v0.6H33.7z M31.3,40.6
		c-0.3-0.3-0.7-0.6-1.1-1c-0.4-0.4-0.7-0.8-1-1.2c-0.3-0.4-0.6-0.8-0.9-1.1c-0.3-0.4-0.5-0.7-0.6-0.9c-0.3,0.4-0.5,0.8-0.7,1.1
		c-0.1,0.4-0.2,0.8-0.2,1.2c0,0.4,0.1,0.8,0.2,1.1c0.1,0.3,0.3,0.6,0.5,0.9c0.2,0.2,0.5,0.4,0.8,0.6c0.3,0.1,0.7,0.2,1,0.2
		c0.3,0,0.7-0.1,1-0.2C30.7,41.1,31,40.9,31.3,40.6z M27.9,33c0,0.2,0,0.3,0.1,0.5s0.1,0.4,0.3,0.6s0.2,0.4,0.3,0.6s0.2,0.3,0.4,0.5
		c0.4-0.3,0.6-0.6,0.8-1c0.2-0.4,0.2-0.8,0.2-1.3c0-0.3-0.1-0.6-0.3-0.8c-0.2-0.2-0.4-0.3-0.8-0.3c-0.4,0-0.6,0.1-0.8,0.4
		C28,32.4,27.9,32.7,27.9,33z"/>
</g>
<g>
	<defs>
		<rect id="SVGID_00000062154061822886049380000018267996861606471085_" x="2.3" y="2.5" width="282.3" height="52.6"/>
	</defs>
	<clipPath id="SVGID_00000000925280320078545660000012199485679717840027_">
		<use xlink:href="#SVGID_00000062154061822886049380000018267996861606471085_"  style="overflow:visible;"/>
	</clipPath>
	<path style="clip-path:url(#SVGID_00000000925280320078545660000012199485679717840027_);fill:#F9B233;" d="M28.6,5.8
		c-12.7,0-23,10.3-23,23c0,12.7,10.3,23,23,23c12.7,0,23-10.3,23-23C51.6,16.1,41.3,5.8,28.6,5.8 M28.6,55.1
		c-14.5,0-26.3-11.8-26.3-26.3c0-14.5,11.8-26.3,26.3-26.3s26.3,11.8,26.3,26.3C54.9,43.3,43.1,55.1,28.6,55.1"/>
</g>
</svg>
