<?xml version="1.0" encoding="UTF-8"?><svg id="Livello_1" xmlns="http://www.w3.org/2000/svg" xmlns:xlink="http://www.w3.org/1999/xlink" viewBox="0 0 446.82 76.45"><defs><style>.cls-1{fill:none;}.cls-2{clip-path:url(#clippath);}.cls-3{fill:#079739;}.cls-4{font-size:33.95px;}.cls-4,.cls-5{fill:#016c90;font-family:PTSerif-Bold, 'PT Serif';}.cls-6{clip-path:url(#clippath-1);}.cls-5{font-size:34.63px;}.cls-7{letter-spacing:.03em;}.cls-8{letter-spacing:.03em;}.cls-9{letter-spacing:.03em;}</style><clipPath id="clippath"><rect class="cls-1" width="446.82" height="76.45"/></clipPath><clipPath id="clippath-1"><rect class="cls-1" width="446.82" height="76.45"/></clipPath></defs><g class="cls-2"><text class="cls-4" transform="translate(87.18 48.97)"><tspan class="cls-8" x="0" y="0">e</tspan><tspan class="cls-9" x="19.25" y="0">d</tspan><tspan class="cls-7" x="40.57" y="0">ilizia</tspan><tspan class="cls-9" x="128.21" y="0">u</tspan><tspan class="cls-8" x="150.31" y="0">rba</tspan><tspan class="cls-9" x="206.88" y="0">n</tspan><tspan class="cls-8" x="229.73" y="0">isti</tspan><tspan class="cls-9" x="285.24" y="0">c</tspan><tspan class="cls-8" x="302.66" y="0">a.i</tspan><tspan x="345.95" y="0">t</tspan></text></g><text class="cls-5" transform="translate(13.25 45.54)"><tspan x="0" y="0">E</tspan></text><text class="cls-5" transform="translate(38.01 55.66)"><tspan x="0" y="0">U</tspan></text><g class="cls-6"><path class="cls-3" d="M38.09,4.75C19.69,4.75,4.73,19.77,4.73,38.22s14.96,33.48,33.35,33.48,33.35-15.02,33.35-33.48S56.48,4.75,38.09,4.75m0,71.7C17.09,76.45,0,59.3,0,38.22S17.09,0,38.09,0s38.09,17.15,38.09,38.22-17.09,38.22-38.09,38.22"/></g></svg>