<?xml version="1.0" encoding="UTF-8"?><svg id="Livello_1" xmlns="http://www.w3.org/2000/svg" xmlns:xlink="http://www.w3.org/1999/xlink" viewBox="0 0 294.35 79.61"><defs><style>.cls-1{fill:none;}.cls-2{fill:#1d1d1b;font-family:PTSerif-Regular, 'PT Serif';font-size:14.5px;}.cls-3{letter-spacing:-.02em;}.cls-4{font-size:28.17px;}.cls-4,.cls-5,.cls-6{fill:#004661;font-family:PTSerif-Bold, 'PT Serif';}.cls-7{clip-path:url(#clippath);}.cls-8{letter-spacing:-.02em;}.cls-9{letter-spacing:-.02em;}.cls-10{letter-spacing:0em;}.cls-11{fill:#be421d;}.cls-12{letter-spacing:0em;}.cls-5{font-size:46.93px;}.cls-13{letter-spacing:-.02em;}.cls-14{letter-spacing:-.02em;}.cls-15{letter-spacing:.03em;}.cls-6{font-size:30.9px;}.cls-16{letter-spacing:.03em;}.cls-17{letter-spacing:.03em;}</style><clipPath id="clippath"><rect class="cls-1" width="294.35" height="79.61"/></clipPath></defs><text class="cls-5" transform="translate(35.14 62.33)"><tspan x="0" y="0">P</tspan></text><text class="cls-6" transform="translate(14.49 42.63)"><tspan class="cls-10" x="0" y="0">i</tspan><tspan x="9.98" y="0">l</tspan></text><text class="cls-4" transform="translate(90.35 42.34)"><tspan class="cls-15" x="0" y="0">ilper</tspan><tspan class="cls-17" x="67.36" y="0">s</tspan><tspan class="cls-15" x="80.91" y="0">o</tspan><tspan class="cls-16" x="98.49" y="0">n</tspan><tspan class="cls-15" x="117.45" y="0">ale.i</tspan><tspan class="cls-12" x="179.54" y="0">t</tspan></text><text class="cls-2" transform="translate(90.35 62.15)"><tspan class="cls-8" x="0" y="0">R</tspan><tspan class="cls-14" x="8.95" y="0">i</tspan><tspan class="cls-9" x="13.04" y="0">s</tspan><tspan class="cls-14" x="19.03" y="0">or</tspan><tspan class="cls-8" x="32.06" y="0">s</tspan><tspan class="cls-13" x="38.05" y="0">e umane negl</tspan><tspan class="cls-8" x="121.05" y="0">i </tspan><tspan class="cls-14" x="128.36" y="0">enti</tspan><tspan class="cls-3" x="152.91" y="0"> </tspan><tspan class="cls-13" x="156.15" y="0">local</tspan><tspan x="185.6" y="0">i</tspan></text><g class="cls-7"><path class="cls-11" d="M39.66,4.95C20.51,4.95,4.93,20.58,4.93,39.81s15.58,34.86,34.73,34.86,34.73-15.64,34.73-34.86S58.81,4.95,39.66,4.95m0,74.67C17.79,79.61,0,61.75,0,39.81S17.79,0,39.66,0s39.66,17.86,39.66,39.81-17.79,39.81-39.66,39.81"/></g></svg>