<svg width="500" height="386" viewBox="0 0 500 386" fill="none" xmlns="http://www.w3.org/2000/svg">
<path d="M192.669 292.74L219.658 268.351L162.767 249.979L146.686 253.428L203.577 271.8L185.197 288.41" fill="url(#paint0_linear_617_1212)"/>
<path d="M55.4556 311.88L93.4711 266.103L159.739 302.137L105.05 331.36L55.4556 311.88Z" fill="url(#paint1_linear_617_1212)"/>
<path d="M222.189 305.362H205.745L257.518 335.252L170.504 385.491H186.952L273.966 335.252L222.189 305.362Z" fill="url(#paint2_linear_617_1212)"/>
<path d="M186.368 292.74L99.3535 342.979L170.504 384.059L257.518 333.82L186.368 292.74Z" fill="#CEE1E5"/>
<path d="M170.648 375.639V382.544L101.977 342.896V335.991L170.648 375.639Z" fill="#F4F8F9"/>
<path d="M254.898 326.996V333.901L170.647 382.544V375.639L254.898 326.996Z" fill="#B8D5DC"/>
<path d="M186.368 284.404L99.3535 334.642L170.504 375.722L257.518 325.484L186.368 284.404Z" fill="#9BC8D2"/>
<path d="M99.3535 344.411L170.504 385.491V384.059L100.594 343.695V336.79L170.504 377.154V375.722L99.3535 334.642V344.411Z" fill="#B8D5DC"/>
<path d="M170.504 375.722L257.518 325.483V326.915L170.504 377.154V375.722Z" fill="#52767F"/>
<path d="M170.504 384.059L257.518 333.82V335.252L170.504 385.491V384.059Z" fill="#52767F"/>
<path d="M176.943 298.517L123.797 329.201L179.93 361.609L233.075 330.925L176.943 298.517Z" fill="#52767F"/>
<path d="M137.53 337.128L137.613 321.225L123.797 329.201L137.53 337.128Z" fill="#445D63"/>
<path d="M173.832 320.941L172.108 321.935L192.511 333.717L194.235 332.721L173.832 320.941Z" fill="#F4F8F9"/>
<path d="M166.255 329.49L164.533 330.487L177.702 338.091L179.426 337.094L166.255 329.49Z" fill="#F4F8F9"/>
<path d="M100.594 343.695L101.977 342.896V337.586L100.594 336.79V343.695Z" fill="#52767F"/>
<path d="M189.804 286.371L133.637 337.128L149.718 333.68L197.276 290.701" fill="url(#paint3_linear_617_1212)"/>
<path d="M129.699 243.115L55.1548 310.48L133.337 335.728L207.884 268.36L129.699 243.115Z" fill="#F5B478"/>
<path d="M131.71 327.465L133.159 334.218L57.7008 309.85L56.2517 303.099L131.71 327.465Z" fill="#FAF7F3"/>
<path d="M203.889 262.24L205.338 268.99L133.159 334.218L131.71 327.465L203.889 262.24Z" fill="#F6D9BD"/>
<path d="M127.953 234.961L53.4053 302.329L131.59 327.574L206.134 260.209L127.953 234.961Z" fill="#F5B478"/>
<path d="M55.4558 311.88L133.64 337.128L133.34 335.728L56.5183 310.92L55.0692 304.167L131.891 328.974L131.59 327.574L53.4053 302.326L55.4558 311.88Z" fill="#F6C79B"/>
<path d="M131.59 327.574L206.134 260.209L206.435 261.61L131.89 328.975L131.59 327.574Z" fill="#A26122"/>
<path d="M133.34 335.728L207.884 268.36L208.185 269.761L133.638 337.128L133.34 335.728Z" fill="#A26122"/>
<path d="M113.444 248.072L93.4709 266.103L171.656 291.352L191.628 273.321L113.444 248.072Z" fill="#CD7519"/>
<path d="M133.856 261.922L126.991 268.205L149.409 275.445L156.274 269.162L133.856 261.922Z" fill="#FAF7F3"/>
<path d="M56.5185 310.921L57.7013 309.849L56.5872 304.657L55.0693 304.168L56.5185 310.921Z" fill="#A26122"/>
<path d="M183.848 87.6676H170.826L268.144 143.855L93.5146 244.676H106.537L281.166 143.855L183.848 87.6676Z" fill="url(#paint4_linear_617_1212)"/>
<path d="M265.696 31.1482L262.569 32.9668V37.0793C262.998 37.5347 263.539 37.9643 264.207 38.3509C267.927 40.4988 273.958 40.4988 277.679 38.3509L277.681 121.736L316.96 99.0571V1.55258L265.696 31.1482Z" fill="#657468"/>
<path d="M265.45 34.6993C265.45 34.6993 311.539 8.0908 313.904 6.72472C315.746 7.78723 323.052 12.0058 324.89 13.0683C322.525 14.4343 276.439 41.0429 276.439 41.0429C273.409 42.7928 268.48 42.7928 265.453 41.0429C262.423 39.2931 262.42 36.4463 265.45 34.6993Z" fill="#F6F7F6"/>
<path d="M277.678 135.856V38.3481L329.186 8.6122V106.117L277.678 135.856Z" fill="#657468"/>
<path d="M264.206 38.3509C260.486 36.203 260.486 32.7204 264.206 30.5725L315.714 0.836594L316.957 1.55257L265.449 31.2885C262.422 33.0383 262.422 35.8822 265.449 37.6321C268.479 39.379 273.408 39.379 276.435 37.6321L327.943 7.89326L329.186 8.6121L277.678 38.3509C273.958 40.4988 267.927 40.496 264.206 38.3509Z" fill="#B9C4BC"/>
<path d="M264.206 38.351C267.927 40.4989 273.958 40.4989 277.678 38.351L277.681 135.856C273.958 138.003 267.927 138.003 264.206 135.856C262.348 134.782 261.417 133.375 261.417 131.969V34.4618C261.417 35.868 262.348 37.277 264.206 38.351Z" fill="url(#paint5_linear_617_1212)"/>
<path d="M291.548 86.585V71.6039L315.316 57.8801V72.8641L291.548 86.585Z" fill="#EEF0EF"/>
<path d="M275.347 91.717V86.2183C271.756 87.3009 267.222 86.9715 264.207 85.2303C262.863 84.4542 262.013 83.5033 261.641 82.5067C261.497 82.1229 261.417 81.7335 261.417 81.3411C261.397 81.3411 261.417 86.8398 261.417 86.8398C261.414 88.246 262.348 89.655 264.207 90.729C267.222 92.4702 271.756 92.7996 275.347 91.717Z" fill="#DBE0DD"/>
<path d="M264.206 49.1165C262.863 48.3404 262.013 47.3896 261.64 46.393C261.497 46.0092 261.417 45.6197 261.417 45.2274V47.5586C261.414 48.9648 262.348 50.3738 264.206 51.4478C267.927 53.5957 273.955 53.5957 277.675 51.4478V49.1194C273.958 51.2616 267.927 51.2616 264.206 49.1165Z" fill="#DBE0DD"/>
<path d="M264.206 55.5686C262.863 54.7954 262.013 53.8417 261.64 52.8451C261.497 52.4613 261.417 52.0718 261.417 51.6794V54.0107C261.414 55.4168 262.348 56.8259 264.206 57.8998C267.927 60.0478 273.958 60.0478 277.678 57.8998V55.5715C273.958 57.7166 267.927 57.7166 264.206 55.5686Z" fill="#DBE0DD"/>
<path d="M264.206 116.304C262.863 115.527 262.013 114.579 261.64 113.58C261.494 113.196 261.417 112.804 261.417 112.414V114.743C261.414 116.152 262.348 117.558 264.206 118.632C267.927 120.78 273.955 120.78 277.678 118.632V116.304C273.958 118.451 267.927 118.449 264.206 116.304Z" fill="#DBE0DD"/>
<path d="M264.206 122.759C262.863 121.983 262.013 121.032 261.64 120.035C261.497 119.651 261.417 119.259 261.417 118.87V121.201C261.414 122.61 262.348 124.016 264.206 125.09C267.927 127.238 273.955 127.238 277.678 125.09V122.759C273.958 124.907 267.93 124.904 264.206 122.759Z" fill="#DBE0DD"/>
<path d="M497.795 114.932L341.941 112.91L281.682 153.282H333L318.672 161.553H343.044L342.955 161.605H500L497.795 114.932Z" fill="url(#paint6_linear_617_1212)"/>
<path d="M270.504 146.827V51.654L327.184 18.9281V114.104L270.504 146.827Z" fill="#3C6148"/>
<path d="M333.582 30.2376L323.724 24.5442L271.824 54.5092L281.682 60.1998L333.582 30.2376Z" fill="#F4F8F5"/>
<path d="M281.682 153.283V58.1064L338.361 25.3806V120.557L281.682 153.283Z" fill="#467C59"/>
<path d="M269.184 50.8893C269.184 50.8864 325.866 18.1634 325.866 18.1634L327.184 18.9252L271.824 50.8893L281.682 56.5799L337.044 24.6187L338.364 25.3805L281.682 58.1063L269.184 50.8893Z" fill="#93CEA6"/>
<path d="M300.155 100.169V89.89L319.89 78.4945V88.773L300.155 100.169Z" fill="#F4F8F5"/>
<path d="M269.184 146.065V50.8892L281.682 58.1034V153.282L269.184 146.065Z" fill="#4D9A6B"/>
<path d="M271.633 128.828V70.9567L279.23 75.3442V133.215L271.633 128.828Z" fill="#F4F8F5"/>
<path d="M271.633 76.3895V70.9567L279.23 75.3442V80.7741L271.633 76.3895Z" fill="#467C59"/>
<path d="M271.633 128.828V123.395L279.23 127.782V133.215L271.633 128.828Z" fill="#377E54"/>
<path d="M272.678 97.3161L278.188 100.495V106.856L272.678 103.677V97.3161Z" fill="#467C59"/>
<path d="M296.616 146.183V48.3889L353.296 15.6659V113.457L296.616 146.183Z" fill="#405A7C"/>
<path d="M359.694 26.9727L349.836 21.2821L297.937 51.2472L307.794 56.9378L359.694 26.9727Z" fill="#F5F7F9"/>
<path d="M307.795 152.635V54.8442L364.474 22.1183V119.909L307.795 152.635Z" fill="#4C73A3"/>
<path d="M295.296 47.6272L351.979 14.9042L353.296 15.666L297.937 47.63L307.794 53.3206L363.153 21.3594L364.474 22.1212L307.791 54.8471L295.296 47.6272Z" fill="#B0C3DC"/>
<path d="M326.925 100.707V90.431L346.66 79.0355V89.314L326.925 100.707Z" fill="#F5F7F9"/>
<path d="M295.296 145.421V47.6272L307.794 54.8413V152.635L295.296 145.421Z" fill="#568DD1"/>
<path d="M305.822 102.6C305.822 99.8734 303.909 96.557 301.546 95.1938C299.183 93.8306 297.27 94.936 297.27 97.6625C297.27 100.389 299.183 103.705 301.546 105.069C303.909 106.432 305.822 105.326 305.822 102.6Z" fill="#F5F7F9"/>
<path d="M305.822 75.9828C305.822 73.2563 303.909 69.9399 301.546 68.5767C299.183 67.2135 297.27 68.3189 297.27 71.0454C297.27 73.7718 299.183 77.0882 301.546 78.4514C303.909 79.8147 305.822 78.7092 305.822 75.9828Z" fill="#F5F7F9"/>
<path d="M305.822 129.217C305.822 126.491 303.909 123.174 301.546 121.811C299.183 120.448 297.27 121.553 297.27 124.28C297.27 127.006 299.183 130.322 301.546 131.686C303.909 133.049 305.822 131.943 305.822 129.217Z" fill="#F5F7F9"/>
<path d="M308.291 44.8921V153.953L366.6 120.287V11.2269L308.291 44.8921Z" fill="#A3892C"/>
<path d="M373.336 23.1407L362.954 17.1436L308.291 48.7039L318.675 54.7009L373.336 23.1407Z" fill="#F9F8ED"/>
<path d="M318.675 52.4928L318.672 161.553L378.373 127.083L378.37 18.0257L318.675 52.4928Z" fill="#E6BC18"/>
<path d="M305.51 44.8921L365.208 10.425L366.599 11.2268L308.29 44.8921L318.675 50.8862L376.981 17.221L378.37 18.0258L318.675 52.4929L305.51 44.8921Z" fill="#F1DF95"/>
<path d="M338.823 89.9729V100.801L359.612 88.8016V77.9731L338.823 89.9729Z" fill="#F9F8ED"/>
<path d="M305.513 44.8921V153.952L318.672 161.553L318.675 52.4929L305.513 44.8921Z" fill="#F0CD4D"/>
<path d="M305.513 134.882V143.751L318.672 151.352V142.482L305.513 134.882Z" fill="#F9F8ED"/>
<path d="M305.513 54.9702V63.8426L318.672 71.4406V62.5711L305.513 54.9702Z" fill="#FAF7E9"/>
<path d="M321.103 141.076V149.949L318.672 151.352V142.483L321.103 141.076Z" fill="#FADC90"/>
<path d="M321.103 61.1646V70.037L318.672 71.4403V62.5708L321.103 61.1646Z" fill="#FADC90"/>
<path d="M337.395 55.294L334.268 57.1126V61.2251C334.698 61.6805 335.239 62.1101 335.906 62.4967C339.626 64.6446 345.658 64.6446 349.378 62.4967L349.381 145.882L388.659 123.203V25.6984L337.395 55.294Z" fill="#B075C1"/>
<path d="M337.149 58.845C337.149 58.845 383.238 32.2365 385.604 30.8704C387.445 31.9329 394.751 36.1514 396.59 37.2139C394.224 38.58 348.138 65.1886 348.138 65.1886C345.108 66.9384 340.179 66.9384 337.152 65.1886C334.122 63.4387 334.119 60.592 337.149 58.845Z" fill="#F8F6F9"/>
<path d="M349.378 160.001V62.4967L400.886 32.7579V130.262L349.378 160.001Z" fill="#9758A9"/>
<path d="M335.906 62.4966C332.185 60.3487 332.185 56.8662 335.906 54.7182L387.413 24.9823L388.656 25.6983L337.149 55.4371C334.121 57.1869 334.121 60.0308 337.149 61.7806C340.179 63.5276 345.107 63.5276 348.135 61.7806L399.642 32.0418L400.885 32.7607L349.377 62.4995C345.657 64.6445 339.626 64.6445 335.906 62.4966Z" fill="#D0BAD6"/>
<path d="M335.906 62.4966C339.626 64.6446 345.658 64.6446 349.378 62.4966L349.381 160.001C345.658 162.149 339.626 162.149 335.906 160.001C334.047 158.93 333.117 157.521 333.117 156.115V58.6075C333.117 60.0165 334.045 61.4227 335.906 62.4966Z" fill="url(#paint7_linear_617_1212)"/>
<path d="M363.248 110.731V95.7495L387.016 82.0286V97.0125L363.248 110.731Z" fill="#E4DBE7"/>
<path d="M347.047 115.865V110.367C343.455 111.449 338.922 111.12 335.906 109.379C334.563 108.603 333.712 107.652 333.337 106.655C333.194 106.271 333.114 105.882 333.114 105.49C333.094 105.49 333.114 110.988 333.114 110.988C333.111 112.394 334.045 113.803 335.903 114.877C338.922 116.619 343.455 116.945 347.047 115.865Z" fill="#E4DBE7"/>
<path d="M335.906 73.2622C334.563 72.4861 333.712 71.5353 333.337 70.5386C333.194 70.1549 333.114 69.7654 333.114 69.373V71.7042C333.111 73.1104 334.045 74.5195 335.903 75.5934C339.623 77.7414 345.652 77.7414 349.372 75.5934V73.2651C345.658 75.4101 339.626 75.4073 335.906 73.2622Z" fill="#E4DBE7"/>
<path d="M335.906 79.7171C334.563 78.9439 333.712 77.9902 333.34 76.9936C333.197 76.6098 333.117 76.2203 333.117 75.8279V78.1592C333.114 79.5653 334.047 80.9744 335.906 82.0483C339.626 84.1963 345.658 84.1963 349.378 82.0483V79.72C345.658 81.8651 339.626 81.865 335.906 79.7171Z" fill="#E4DBE7"/>
<path d="M335.906 140.449C334.563 139.673 333.712 138.725 333.34 137.726C333.194 137.342 333.117 136.952 333.117 136.56V138.888C333.114 140.297 334.047 141.704 335.906 142.778C339.626 144.926 345.655 144.926 349.378 142.778V140.449C345.658 142.597 339.626 142.597 335.906 140.449Z" fill="#E4DBE7"/>
<path d="M335.906 146.904C334.563 146.128 333.712 145.178 333.34 144.181C333.197 143.797 333.117 143.408 333.117 143.015V145.346C333.114 146.756 334.047 148.162 335.906 149.236C339.626 151.384 345.655 151.384 349.378 149.236V146.904C345.658 149.052 339.629 149.052 335.906 146.904Z" fill="#E4DBE7"/>
<path d="M413.719 163.844H397.272L449.045 193.738L371.617 238.44H388.061L465.493 193.738L413.719 163.844Z" fill="url(#paint8_linear_617_1212)"/>
<path d="M397.272 162.452L319.843 207.158L371.617 237.049L449.046 192.346L397.272 162.452Z" fill="#93CEA6"/>
<path d="M323.005 207.562V200.852L370.411 228.222V234.932L323.005 207.562Z" fill="#F4F8F5"/>
<path d="M397.272 154.351L319.843 199.056L371.617 228.947L449.046 184.241L397.272 154.351Z" fill="#93CEA6"/>
<path d="M371.617 228.947L319.843 199.053V200.445L370.411 229.643V236.353L319.843 207.158V208.55L371.617 238.441V228.947Z" fill="#4D9A6B"/>
<path d="M369.624 170.314L347.491 183.093L399.265 212.983L421.397 200.205L369.624 170.314Z" fill="#4D9A6B"/>
<path d="M449.046 184.241L371.617 228.947V238.441L449.046 193.738V184.241Z" fill="#3C6148"/>
<path d="M433.254 193.36L426.424 197.304V206.8L433.254 202.857V193.36Z" fill="#467C59"/>
<path d="M387.409 219.828L394.242 215.885V225.378L387.409 229.322V219.828Z" fill="#467C59"/>
<path d="M380.802 186.318L375.211 189.545L388.085 196.98L393.675 193.752L380.802 186.318Z" fill="#F4F8F5"/>
<path d="M421.398 200.205L399.265 212.983V222.477L421.398 209.701V200.205Z" fill="#467C59"/>
<path d="M0.00170445 183.457V183.568C0.00170445 183.528 0.00743226 183.494 0.00170445 183.457ZM268.221 135.85C268.221 135.867 268.224 135.887 268.224 135.904C268.227 135.904 268.227 135.85 268.221 135.85ZM264.486 141.142L101.888 235.018C96.902 237.897 88.7427 237.897 83.7566 235.018L3.73912 188.821C1.25325 187.386 0.0102962 185.496 0.00170445 183.605V191.032C-0.0269346 192.953 1.21601 194.881 3.73912 196.338L83.7566 242.536C88.7427 245.414 96.902 245.414 101.888 242.536L264.486 148.66C266.981 147.22 268.227 145.321 268.227 143.425V135.907C268.227 137.806 266.978 139.702 264.486 141.142Z" fill="url(#paint9_linear_617_1212)"/>
<path d="M101.888 235.018C96.9024 237.896 88.7431 237.896 83.7571 235.018L3.73954 188.821C-1.24651 185.942 -1.24651 181.231 3.73954 178.353L166.338 84.477C171.324 81.5988 179.483 81.5988 184.469 84.477L264.484 130.675C269.47 133.553 269.47 138.264 264.487 141.145L101.888 235.018Z" fill="#CEDFFF"/>
<path d="M104.523 228.262L15.4414 176.829L168.451 88.4894L257.536 139.919L104.523 228.262Z" fill="#A1C2FF"/>
<path d="M49.3842 202.035C50.7474 201.247 52.9813 201.247 54.3445 202.035L60.8656 205.801C62.2288 206.588 62.2317 207.877 60.8656 208.664L54.3445 212.431C52.9813 213.218 50.7474 213.218 49.3842 212.431L42.8631 208.664C41.4999 207.877 41.497 206.588 42.8631 205.801L49.3842 202.035Z" fill="#A1C2FF"/>
<path d="M208.266 104.421L229.94 116.934L228.545 117.739L206.871 105.226L208.266 104.421Z" fill="#CEDFFF"/>
<path d="M264.486 130.672L239.831 116.435H209.545L121.005 148.654L63.99 200.471H78.8365V202.35H86.2053V205.337H153.292L163.528 199.428L264.486 141.139C269.472 138.261 269.472 133.55 264.486 130.672Z" fill="url(#paint10_linear_617_1212)"/>
<path d="M132.383 44.8435L207.524 4.19031L209.543 5.35592L134.405 46.0091L132.383 44.8435Z" fill="#CAD1D2"/>
<path d="M132.383 44.8434L61.9683 88.223L63.9902 89.3915L134.405 46.0091L132.383 44.8434Z" fill="#CAD1D2"/>
<path d="M63.9902 200.471L61.9683 199.305V88.2229L63.9902 89.3914V200.471Z" fill="#B9C3C4"/>
<path d="M134.405 157.091L63.99 200.471V89.3914L134.405 46.0089V157.091Z" fill="#808E8E"/>
<path d="M209.543 116.438L134.405 157.091V46.0091L209.543 5.35593V116.438Z" fill="#808E8E"/>
<path d="M134.193 49.082L205.515 10.4938L217.002 17.1237L141.988 53.5841L134.193 49.082Z" fill="#F6F7F7"/>
<path d="M134.193 49.0821L67.3525 90.2622L78.8397 96.8921L141.989 53.5842L134.193 49.0821Z" fill="#F6F7F7"/>
<path d="M78.8397 202.35L67.3525 195.72V90.2622L78.8397 96.8921V202.35Z" fill="#DADFE0"/>
<path d="M141.988 159.042L78.8394 202.35V96.8921L141.988 53.5841V159.042Z" fill="#B9C3C4"/>
<path d="M141.989 159.042L86.2056 205.34V99.8791L141.989 53.5841V159.042Z" fill="#EEF0F0"/>
<path d="M217.003 122.581L141.989 159.042V53.584L217.003 17.1237V122.581Z" fill="#B9C3C4"/>
<path d="M218.329 125.74L141.989 159.042V53.5841L218.329 20.2826V125.74Z" fill="#DADFE0"/>
<path d="M217.226 133.825L141.989 159.042V53.5841L217.226 28.3674V133.825Z" fill="#F6F7F7"/>
<path d="M113.428 85.1988C113.937 84.7778 114.189 84.5658 114.699 84.1448C114.693 84.9754 114.688 85.3878 114.682 86.2183C114.172 86.6393 113.92 86.8512 113.41 87.2751C113.419 86.4446 113.422 86.0293 113.428 85.1988Z" fill="#697273"/>
<path d="M116.973 82.2575C117.483 81.8336 117.74 81.6217 118.256 81.195C118.25 82.0227 118.247 82.4379 118.242 83.2656C117.726 83.6923 117.471 83.9071 116.958 84.331C116.964 83.5004 116.967 83.0852 116.973 82.2575Z" fill="#697273"/>
<path d="M111.156 87.0862C110.646 87.5101 110.389 87.722 109.876 88.1487C109.867 88.9793 109.865 89.3945 109.856 90.2251C110.369 89.7983 110.626 89.5864 111.136 89.1625C111.145 88.332 111.148 87.9167 111.156 87.0862Z" fill="#697273"/>
<path d="M89.3104 114.37C105.821 100.67 122.328 86.9686 138.836 73.2677C138.836 73.8777 138.836 74.1784 138.836 74.7884C122.326 88.4922 105.815 102.193 89.3047 115.897C89.3076 115.284 89.3076 114.98 89.3104 114.37Z" fill="#B9C3C4"/>
<path d="M89.2928 119.752C105.806 106.048 122.319 92.3413 138.833 78.6375C138.833 79.2476 138.833 79.5483 138.833 80.1583C122.317 93.8649 105.803 107.572 89.2871 121.278C89.29 120.668 89.29 120.362 89.2928 119.752Z" fill="#B9C3C4"/>
<path d="M89.279 125.136C105.798 111.426 122.317 97.7169 138.836 84.0074C138.836 84.6174 138.836 84.9181 138.836 85.5281C122.314 99.2376 105.795 112.95 89.2761 126.66C89.2761 126.052 89.2761 125.746 89.279 125.136Z" fill="#B9C3C4"/>
<path d="M89.2614 130.517C105.786 116.805 122.308 103.09 138.833 89.3773C138.833 89.9873 138.833 90.2908 138.833 90.898C122.308 104.613 105.783 118.328 89.2585 132.044C89.2585 131.434 89.2585 131.127 89.2614 130.517Z" fill="#B9C3C4"/>
<path d="M89.2446 135.901C105.775 122.186 122.3 108.465 138.83 94.7499C138.83 95.3599 138.83 95.6635 138.83 96.2706C122.3 109.989 105.772 123.71 89.2417 137.428C89.2446 136.818 89.2446 136.511 89.2446 135.901Z" fill="#B9C3C4"/>
<path d="M89.2301 141.286C102.828 130.002 116.426 118.718 130.021 107.431C130.021 108.041 130.018 108.345 130.018 108.955C116.42 120.242 102.825 131.525 89.2244 142.809C89.2272 142.199 89.2272 141.896 89.2301 141.286Z" fill="#B9C3C4"/>
<path d="M92.6153 149.216C108.02 136.431 123.425 123.647 138.83 110.862C138.83 111.472 138.83 111.776 138.83 112.383C123.422 125.17 108.014 137.961 92.6067 150.745C92.6096 150.132 92.6124 149.826 92.6153 149.216Z" fill="#B9C3C4"/>
<path d="M89.184 157.432C105.735 143.7 122.282 129.964 138.83 116.229C138.83 116.839 138.83 117.143 138.83 117.75C122.279 131.485 105.732 145.223 89.1812 158.956C89.1812 158.346 89.1812 158.042 89.184 157.432Z" fill="#B9C3C4"/>
<path d="M89.1671 162.813C105.723 149.078 122.274 135.337 138.827 121.599C138.827 122.209 138.827 122.512 138.827 123.12C122.271 136.858 105.72 150.602 89.1614 164.337C89.1642 163.73 89.1642 163.423 89.1671 162.813Z" fill="#B9C3C4"/>
<path d="M89.1527 168.198C105.712 154.457 122.268 140.713 138.827 126.972C138.827 127.582 138.827 127.885 138.827 128.493C122.268 142.236 105.709 155.98 89.147 169.721C89.1498 169.111 89.1498 168.808 89.1527 168.198Z" fill="#B9C3C4"/>
<path d="M89.1354 173.579C105.7 159.835 122.262 146.086 138.824 132.342C138.824 132.952 138.824 133.255 138.824 133.862C122.259 147.609 105.697 161.362 89.1296 175.106C89.1325 174.496 89.1325 174.189 89.1354 173.579Z" fill="#B9C3C4"/>
<path d="M89.1213 178.963C105.692 165.216 122.257 151.461 138.827 137.712C138.827 138.322 138.827 138.625 138.827 139.232C122.257 152.985 105.689 166.737 89.1184 180.487C89.1184 179.88 89.1184 179.573 89.1213 178.963Z" fill="#B9C3C4"/>
<path d="M89.1041 184.347C96.5846 178.141 104.065 171.932 111.546 165.723C111.54 166.336 111.537 166.642 111.531 167.255C104.054 173.461 96.5789 179.665 89.0984 185.871C89.1013 185.261 89.1041 184.957 89.1041 184.347Z" fill="#B9C3C4"/>
<path d="M178.598 49.2251C179.406 48.9531 179.81 48.8185 180.62 48.5464C180.62 49.3712 180.62 49.7836 180.62 50.6055C179.813 50.8776 179.409 51.0122 178.598 51.2843C178.598 50.4595 178.598 50.0499 178.598 49.2251Z" fill="#697273"/>
<path d="M184.229 47.3379C185.037 47.0687 185.441 46.9312 186.246 46.662C186.246 47.4868 186.246 47.8992 186.246 48.7212C185.441 48.9904 185.037 49.125 184.229 49.397C184.229 48.5722 184.229 48.1627 184.229 47.3379Z" fill="#697273"/>
<path d="M174.99 50.4336C174.182 50.7028 173.778 50.8402 172.974 51.1094C172.974 51.9343 172.974 52.3438 172.974 53.1686C173.778 52.8994 174.182 52.7619 174.99 52.4927C174.99 51.6708 174.99 51.2584 174.99 50.4336Z" fill="#697273"/>
<path d="M145.266 69.5503C168.16 61.8779 191.054 54.2055 213.948 46.5302C213.948 47.1402 213.948 47.4409 213.948 48.0509C191.054 55.7262 168.16 63.3986 145.266 71.071C145.266 70.461 145.266 70.1574 145.266 69.5503Z" fill="#B9C3C4"/>
<path d="M145.266 74.9201C168.16 67.2477 191.054 59.5753 213.948 51.9029C213.948 52.5129 213.948 52.8136 213.948 53.4236C191.054 61.0989 168.16 68.7713 145.266 76.4437C145.266 75.8308 145.266 75.5272 145.266 74.9201Z" fill="#B9C3C4"/>
<path d="M145.266 80.29C168.16 72.6176 191.054 64.9452 213.948 57.2699C213.948 57.8799 213.948 58.1806 213.948 58.7907C191.054 66.4659 168.16 74.1355 145.266 81.8107C145.266 81.2036 145.266 80.8972 145.266 80.29Z" fill="#B9C3C4"/>
<path d="M145.266 85.6599C168.16 77.9874 191.054 70.315 213.948 62.6398C213.948 63.2498 213.948 63.5534 213.948 64.1605C191.054 71.8358 168.16 79.5082 145.266 87.1806C145.266 86.5706 145.266 86.267 145.266 85.6599Z" fill="#B9C3C4"/>
<path d="M145.266 91.0297C162.907 85.1157 180.549 79.2046 198.191 73.2906C198.191 73.9007 198.191 74.2042 198.191 74.8114C180.549 80.7253 162.907 86.6393 145.266 92.5504C145.266 91.9404 145.266 91.6368 145.266 91.0297Z" fill="#B9C3C4"/>
<path d="M149.665 94.9246C171.092 87.742 192.523 80.5621 213.951 73.3795C213.951 73.9895 213.951 74.293 213.951 74.9002C192.523 82.0829 171.095 89.2656 149.665 96.4454C149.665 95.8382 149.665 95.5347 149.665 94.9246Z" fill="#B9C3C4"/>
<path d="M145.266 101.769C168.16 94.097 191.054 86.4246 213.948 78.7493C213.948 79.3593 213.948 79.6629 213.948 80.2701C191.054 87.9453 168.16 95.6177 145.266 103.29C145.266 102.68 145.266 102.377 145.266 101.769Z" fill="#B9C3C4"/>
<path d="M145.266 107.139C168.16 99.4668 191.054 91.7944 213.948 84.1192C213.948 84.7292 213.948 85.0328 213.948 85.6399C191.054 93.3123 168.16 100.988 145.266 108.66C145.266 108.05 145.266 107.746 145.266 107.139Z" fill="#B9C3C4"/>
<path d="M145.266 112.509C165.161 105.842 185.057 99.1718 204.952 92.5046C204.952 93.1146 204.952 93.4182 204.952 94.0253C185.057 100.692 165.161 107.363 145.266 114.03C145.266 113.42 145.266 113.116 145.266 112.509Z" fill="#B9C3C4"/>
<path d="M149.665 116.404C171.092 109.221 192.52 102.041 213.951 94.8586C213.951 95.4686 213.951 95.7721 213.951 96.3793C192.523 103.562 171.095 110.742 149.665 117.924C149.665 117.317 149.665 117.011 149.665 116.404Z" fill="#B9C3C4"/>
<path d="M145.266 123.248C168.16 115.576 191.054 107.904 213.948 100.228C213.948 100.838 213.948 101.139 213.948 101.749C191.054 109.424 168.16 117.097 145.266 124.769C145.266 124.159 145.266 123.856 145.266 123.248Z" fill="#B9C3C4"/>
<path d="M145.266 128.618C168.16 120.946 175.995 118.326 198.887 110.647C198.887 111.257 198.887 111.561 198.887 112.168C175.992 119.843 168.16 122.467 145.266 130.139C145.266 129.529 145.266 129.226 145.266 128.618Z" fill="#B9C3C4"/>
<path d="M216.106 218.531H181.023V224.977H216.106V218.531Z" fill="url(#paint11_linear_617_1212)"/>
<path d="M231.927 209.217H196.841V215.664H231.927V209.217Z" fill="url(#paint12_linear_617_1212)"/>
<path d="M200.722 213.682C200.722 208.616 197.511 208.47 197.511 208.47C197.511 208.47 195.773 208.47 192.949 207.298C190.162 206.141 186.236 206.588 188.43 210.638C188.45 210.686 188.475 210.735 188.504 210.787C188.639 211.001 188.868 211.21 189.217 211.411L196.231 215.526C197.302 216.136 200.699 214.724 200.722 213.682Z" fill="url(#paint13_linear_617_1212)"/>
<path d="M200.704 213.226C200.641 214.266 197.293 215.649 196.231 215.045L189.217 210.93C188.985 210.795 188.584 210.529 188.229 210.208C188.292 210.348 188.349 210.48 188.429 210.632C188.45 210.68 188.475 210.729 188.504 210.781C188.639 210.995 188.868 211.205 189.217 211.405L196.231 215.52C197.233 216.093 200.275 214.89 200.676 213.879C200.693 213.802 200.707 213.73 200.707 213.673C200.721 213.521 200.713 213.378 200.704 213.226Z" fill="#001D55"/>
<path d="M199.419 207.802C198.591 207.802 195.681 208.541 195.681 208.541C195.681 208.541 195.661 208.945 195.421 209.294C195.392 209.326 195.366 209.36 195.341 209.392C194.765 209.79 194.183 210.423 195.544 211.276C196.658 211.978 197.566 211.531 197.995 211.101C198.17 210.775 198.425 210.411 198.786 210.202C199.155 209.99 199.382 209.893 199.545 209.881C199.542 209.858 199.55 209.813 199.55 209.813C199.55 209.813 199.765 207.802 199.419 207.802Z" fill="white"/>
<path d="M199.47 158.271C196.3 158.328 188.369 158.469 185.202 158.526C186.382 168.06 188.756 176.72 190.343 185.953C192.044 194.926 193.963 201.232 195.638 208.701C196.251 210.093 199.055 209.566 199.625 208.226C200.068 201.35 200.578 192.97 198.539 185.034C198.88 176.483 199.67 166.909 199.47 158.271Z" fill="#001D55"/>
<path d="M184.732 222.99C184.732 217.923 181.522 217.777 181.522 217.777C181.522 217.777 179.783 217.777 176.959 216.606C174.173 215.449 170.246 215.896 172.44 219.945C172.46 219.994 172.486 220.043 172.515 220.094C172.649 220.309 172.878 220.518 173.228 220.718L180.241 224.834C181.313 225.444 184.709 224.032 184.732 222.99Z" fill="url(#paint14_linear_617_1212)"/>
<path d="M184.715 222.534C184.655 223.574 181.304 224.957 180.244 224.353L173.23 220.238C172.998 220.103 172.597 219.837 172.24 219.516C172.305 219.656 172.36 219.788 172.443 219.94C172.463 219.988 172.489 220.037 172.517 220.089C172.652 220.303 172.881 220.512 173.23 220.713L180.244 224.828C181.244 225.401 184.288 224.198 184.689 223.187C184.706 223.11 184.72 223.038 184.72 222.981C184.732 222.829 184.72 222.686 184.715 222.534Z" fill="#001D55"/>
<path d="M183.426 217.11C182.601 217.11 179.689 217.849 179.689 217.849C179.689 217.849 179.669 218.253 179.431 218.602C179.403 218.634 179.377 218.668 179.351 218.7C178.775 219.098 178.191 219.731 179.554 220.584C180.671 221.286 181.576 220.839 182.006 220.409C182.181 220.083 182.438 219.719 182.796 219.51C183.166 219.298 183.392 219.201 183.555 219.189C183.555 219.166 183.564 219.121 183.564 219.121C183.564 219.121 183.773 217.11 183.426 217.11Z" fill="white"/>
<path d="M189.406 180.942C190.274 176.843 200.275 176.334 199.619 160.218C196.48 159.757 180.648 167.181 177.512 166.72C177.12 176.319 178.048 185.249 178.108 194.617C178.32 203.747 179.185 210.282 179.617 217.923C179.995 219.395 182.848 219.335 183.627 218.107C185.188 211.394 187.061 203.209 186.345 195.049C187.278 190.533 188.39 185.742 189.406 180.942Z" fill="url(#paint15_linear_617_1212)"/>
<path d="M192.382 128.927C203.548 136.391 204.88 151.209 198.843 160.614C198.843 160.614 200.14 139.776 192.382 128.927Z" fill="#001D55"/>
<path d="M192.891 169.354C186.092 173.169 178.981 173.178 176.555 168.487C177.463 159.755 178.311 152.649 176.561 144.281C177.08 139.659 178.119 136.852 177.529 134.154C181.269 133.642 184.488 127.899 186.659 127.458C195.956 125.56 200.469 142.124 199.693 159.78C198.977 164.48 196.239 167.479 192.891 169.354Z" fill="url(#paint16_linear_617_1212)"/>
<path d="M191.817 128.515C189.801 127.058 190.099 126.104 190.402 124.122C190.786 123.082 191.01 121.925 191.01 120.7C191.01 116.284 188.197 112.466 184.749 112.707C177.804 113.182 179.039 116.839 179.039 121.255C179.039 125.348 180.894 128.163 183.996 128.636C183.996 129.309 182.71 130.746 181.865 131.591C185.259 134.235 188.552 131.256 189.861 130.666C191.256 130.033 192.762 129.492 191.817 128.515Z" fill="#F6C79B"/>
<path d="M179.832 134.649C169.11 132.645 162.133 124.74 157.789 117.039L154.157 118.646C156.365 128.544 164.049 142.204 178.111 144.753C185.222 144.753 184.664 135.554 179.832 134.649Z" fill="url(#paint17_linear_617_1212)"/>
<path d="M157.359 115.742L157.373 115.782C157.373 113.986 156.998 112.941 156.305 112.635C156.156 112.205 155.998 111.758 155.847 111.329C154.953 108.823 152.147 106.675 151.551 107.271C151.19 107.631 152.619 108.734 153.369 109.925C153.865 110.713 153.871 111.148 153.997 111.804C153.997 111.804 150.64 112.116 150.64 114.909C150.64 117.174 151.863 116.28 151.863 115.834C152.728 118.13 153.759 116.773 154.157 118.646L157.788 117.039C157.788 117.039 157.617 116.521 157.359 115.742Z" fill="#F6C79B"/>
<path d="M187.802 111.586C186.906 111.125 186.098 111.363 185.6 111.042C184.414 110.318 183.292 109.854 182.662 110.197C182.358 110.364 181.78 110.899 181.78 110.899C181.161 111.518 179.895 110.203 179.592 111.795C179.503 112.268 179.483 112.655 179.486 113.036C176.519 113.416 177.979 116.117 180.365 121.321C180.368 120.476 182.16 118.523 182.16 122.277C182.16 122.681 181.86 122.759 182.123 123.294C182.39 123.827 184.094 125.173 185.219 126.298C186.789 127.868 187.711 126.462 190.303 126.742C190.303 125.631 190.589 125.073 190.984 124.377C191.233 123.938 192.657 122.541 192.657 120.104C190.646 120.356 194.226 114.894 187.802 111.586Z" fill="#001D55"/>
<defs>
<linearGradient id="paint0_linear_617_1212" x1="151.745" y1="276.938" x2="218.45" y2="262.632" gradientUnits="userSpaceOnUse">
<stop offset="0.723958" stop-color="#B7D0FF"/>
<stop offset="1" stop-color="#E8F0FF" stop-opacity="0"/>
</linearGradient>
<linearGradient id="paint1_linear_617_1212" x1="67.3761" y1="285.759" x2="149.92" y2="323.531" gradientUnits="userSpaceOnUse">
<stop stop-color="#CEDFFF"/>
<stop offset="1" stop-color="#E8F0FF"/>
</linearGradient>
<linearGradient id="paint2_linear_617_1212" x1="170.505" y1="345.425" x2="273.965" y2="345.425" gradientUnits="userSpaceOnUse">
<stop offset="0.333333" stop-color="#B7D0FF"/>
<stop offset="1" stop-color="#E8F0FF" stop-opacity="0"/>
</linearGradient>
<linearGradient id="paint3_linear_617_1212" x1="129.687" y1="318.628" x2="200.047" y2="303.538" gradientUnits="userSpaceOnUse">
<stop stop-color="#52767F" stop-opacity="0.6"/>
<stop offset="1" stop-color="#CEE1E5" stop-opacity="0.1"/>
</linearGradient>
<linearGradient id="paint4_linear_617_1212" x1="93.5143" y1="166.172" x2="281.167" y2="166.172" gradientUnits="userSpaceOnUse">
<stop stop-color="#A1C2FF"/>
<stop offset="1" stop-color="#E8F0FF" stop-opacity="0"/>
</linearGradient>
<linearGradient id="paint5_linear_617_1212" x1="277.678" y1="85.9631" x2="261.417" y2="85.9631" gradientUnits="userSpaceOnUse">
<stop stop-color="#657468"/>
<stop offset="0.505208" stop-color="#7C9080"/>
<stop offset="0.9045" stop-color="#B9C4BC"/>
</linearGradient>
<linearGradient id="paint6_linear_617_1212" x1="281.681" y1="137.256" x2="500.001" y2="137.256" gradientUnits="userSpaceOnUse">
<stop offset="0.557292" stop-color="#B7D0FF"/>
<stop offset="0.9987" stop-color="#E8F0FF" stop-opacity="0"/>
</linearGradient>
<linearGradient id="paint7_linear_617_1212" x1="349.378" y1="110.11" x2="333.116" y2="110.11" gradientUnits="userSpaceOnUse">
<stop stop-color="#9758A9"/>
<stop offset="0.479167" stop-color="#B075C1"/>
<stop offset="1" stop-color="#D0BAD6"/>
</linearGradient>
<linearGradient id="paint8_linear_617_1212" x1="371.616" y1="201.143" x2="465.492" y2="201.143" gradientUnits="userSpaceOnUse">
<stop offset="0.380208" stop-color="#B7D0FF"/>
<stop offset="1" stop-color="#E8F0FF" stop-opacity="0"/>
</linearGradient>
<linearGradient id="paint9_linear_617_1212" x1="-0.000128441" y1="190.273" x2="268.226" y2="190.273" gradientUnits="userSpaceOnUse">
<stop offset="0.2697" stop-color="#4887FF"/>
<stop offset="0.390625" stop-color="#004BD8"/>
</linearGradient>
<linearGradient id="paint10_linear_617_1212" x1="63.9908" y1="160.887" x2="268.225" y2="160.887" gradientUnits="userSpaceOnUse">
<stop stop-color="#4887FF"/>
<stop offset="0.1655" stop-color="#4887FF"/>
<stop offset="0.4864" stop-color="#A1C2FF" stop-opacity="0.4"/>
<stop offset="0.7713" stop-color="#CEDFFF" stop-opacity="0.3"/>
<stop offset="0.9888" stop-color="#E8F0FF" stop-opacity="0.2"/>
</linearGradient>
<linearGradient id="paint11_linear_617_1212" x1="181.022" y1="221.754" x2="216.106" y2="221.754" gradientUnits="userSpaceOnUse">
<stop stop-color="#B7D0FF"/>
<stop offset="1" stop-color="#E8F0FF" stop-opacity="0"/>
</linearGradient>
<linearGradient id="paint12_linear_617_1212" x1="196.841" y1="212.442" x2="231.927" y2="212.442" gradientUnits="userSpaceOnUse">
<stop stop-color="#B7D0FF"/>
<stop offset="1" stop-color="#E8F0FF" stop-opacity="0"/>
</linearGradient>
<linearGradient id="paint13_linear_617_1212" x1="187.791" y1="211.208" x2="200.723" y2="211.208" gradientUnits="userSpaceOnUse">
<stop stop-color="#004BD8"/>
<stop offset="1" stop-color="#001D55"/>
</linearGradient>
<linearGradient id="paint14_linear_617_1212" x1="171.801" y1="220.516" x2="184.733" y2="220.516" gradientUnits="userSpaceOnUse">
<stop stop-color="#004BD8"/>
<stop offset="1" stop-color="#001D55"/>
</linearGradient>
<linearGradient id="paint15_linear_617_1212" x1="177.416" y1="189.615" x2="199.649" y2="189.615" gradientUnits="userSpaceOnUse">
<stop stop-color="#003394"/>
<stop offset="1" stop-color="#001D55"/>
</linearGradient>
<linearGradient id="paint16_linear_617_1212" x1="176.557" y1="149.716" x2="199.78" y2="149.716" gradientUnits="userSpaceOnUse">
<stop stop-color="#1063FF"/>
<stop offset="0.166667" stop-color="#004BD8"/>
<stop offset="1" stop-color="#003394"/>
</linearGradient>
<linearGradient id="paint17_linear_617_1212" x1="183.166" y1="140.1" x2="149.168" y2="121.232" gradientUnits="userSpaceOnUse">
<stop stop-color="#003394"/>
<stop offset="0.5" stop-color="#003394"/>
<stop offset="1" stop-color="#004BD8"/>
</linearGradient>
</defs>
</svg>
