<svg width="24" height="24" viewBox="0 0 24 24" fill="none" xmlns="http://www.w3.org/2000/svg">
<path d="M8.46481 6H5C4.46957 6 3.96086 6.21071 3.58579 6.58579C3.21071 6.96086 3 7.46957 3 8V16C3 16.5304 3.21071 17.0391 3.58579 17.4142C3.96086 17.7893 4.46957 18 5 18H8.46481C8.62944 18 8.79152 17.9593 8.93668 17.8817C9.08183 17.804 9.20555 17.6917 9.29688 17.5547L12.6302 12.5547C12.7397 12.3904 12.7981 12.1974 12.7981 12C12.7981 11.8026 12.7397 11.6096 12.6302 11.4453L9.29688 6.44531C9.20555 6.30833 9.08183 6.19602 8.93668 6.11833C8.79152 6.04065 8.62944 6 8.46481 6ZM16.4648 6H12.8685C12.6875 6 12.5099 6.04912 12.3547 6.14213C12.1994 6.23514 12.0723 6.36855 11.9869 6.52814C11.9014 6.68772 11.861 6.86749 11.8697 7.04827C11.8784 7.22906 11.9361 7.40409 12.0365 7.55469L14.6302 11.4453C14.7397 11.6096 14.7981 11.8026 14.7981 12C14.7981 12.1974 14.7397 12.3904 14.6302 12.5547L12.0365 16.4453C11.9361 16.5959 11.8784 16.7709 11.8697 16.9517C11.861 17.1325 11.9014 17.3123 11.9869 17.4719C12.0723 17.6314 12.1994 17.7649 12.3547 17.8579C12.5099 17.9509 12.6875 18 12.8685 18H16.4648C16.6294 18 16.7915 17.9593 16.9367 17.8817C17.0818 17.804 17.2056 17.6917 17.2969 17.5547L19.8906 13.6641C20.2191 13.1713 20.3945 12.5923 20.3945 12C20.3945 11.4077 20.2191 10.8287 19.8906 10.3359L17.2969 6.44531C17.2056 6.30833 17.0818 6.19602 16.9367 6.11833C16.7915 6.04065 16.6294 6 16.4648 6Z" fill="#033562"/>
</svg>
