<svg width="24" height="24" viewBox="0 0 24 24" fill="none" xmlns="http://www.w3.org/2000/svg">
<path d="M13 9H18.5L13 3.5V9ZM6 2H14L20 8V12.34C19.37 12.12 18.7 12 18 12C16.4087 12 14.8826 12.6321 13.7574 13.7574C12.6321 14.8826 12 16.4087 12 18C12 19.54 12.58 20.94 13.53 22H6C4.89 22 4 21.1 4 20V4C4 3.46957 4.21071 2.96086 4.58579 2.58579C4.96086 2.21071 5.46957 2 6 2Z" fill="black"/>
<path d="M18.4286 20.8571C18.6559 20.8571 18.8739 20.7668 19.0347 20.6061C19.1954 20.4453 19.2857 20.2273 19.2857 20C19.2857 19.5243 18.9 19.1429 18.4286 19.1429C18.2012 19.1429 17.9832 19.2332 17.8225 19.3939C17.6617 19.5547 17.5714 19.7727 17.5714 20C17.5714 20.2273 17.6617 20.4453 17.8225 20.6061C17.9832 20.7668 18.2012 20.8571 18.4286 20.8571ZM21 17C21.2273 17 21.4453 17.0903 21.6061 17.2511C21.7668 17.4118 21.8571 17.6298 21.8571 17.8571V22.1429C21.8571 22.3702 21.7668 22.5882 21.6061 22.7489C21.4453 22.9097 21.2273 23 21 23H15.8571C15.6298 23 15.4118 22.9097 15.2511 22.7489C15.0903 22.5882 15 22.3702 15 22.1429V17.8571C15 17.3814 15.3857 17 15.8571 17H16.2857V16.1429C16.2857 15.5745 16.5115 15.0295 16.9133 14.6276C17.3152 14.2258 17.8603 14 18.4286 14C18.71 14 18.9886 14.0554 19.2486 14.1631C19.5086 14.2708 19.7448 14.4286 19.9438 14.6276C20.1428 14.8266 20.3006 15.0628 20.4083 15.3228C20.516 15.5828 20.5714 15.8615 20.5714 16.1429V17H21ZM18.4286 14.8571C18.0876 14.8571 17.7606 14.9926 17.5194 15.2337C17.2783 15.4748 17.1429 15.8019 17.1429 16.1429V17H19.7143V16.1429C19.7143 15.8019 19.5788 15.4748 19.3377 15.2337C19.0966 14.9926 18.7696 14.8571 18.4286 14.8571Z" fill="black"/>
</svg>
