<svg width="24" height="24" viewBox="0 0 24 24" fill="none" xmlns="http://www.w3.org/2000/svg">
<path fill-rule="evenodd" clip-rule="evenodd" d="M5 2H18.7802C19.4112 2 19.8845 2.57732 19.7608 3.19612L16.1608 21.1961C16.0673 21.6635 15.6569 22 15.1802 22H5C4.44772 22 4 21.5523 4 21V3C4 2.44772 4.44772 2 5 2ZM11 8C12.1046 8 13 7.10457 13 6C13 4.89543 12.1046 4 11 4C9.89543 4 9 4.89543 9 6C9 7.10457 9.89543 8 11 8ZM13 12C13 13.1046 12.1046 14 11 14C9.89543 14 9 13.1046 9 12C9 10.8954 9.89543 10 11 10C12.1046 10 13 10.8954 13 12ZM11 20C12.1046 20 13 19.1046 13 18C13 16.8954 12.1046 16 11 16C9.89543 16 9 16.8954 9 18C9 19.1046 9.89543 20 11 20Z" fill="black"/>
</svg>
