<svg width="24" height="24" viewBox="0 0 24 24" fill="none" xmlns="http://www.w3.org/2000/svg">
<path d="M2 3.4L4.3 5.7C2.9 7.4 2 9.6 2 12C2 17.5 6.5 22 12 22C14.4 22 16.6 21.1 18.3 19.7L20.6 22L22 20.6L3.4 2L2 3.4ZM12 20C7.6 20 4 16.4 4 12C4 10.2 4.6 8.5 5.7 7.1L16.9 18.3C15.5 19.4 13.8 20 12 20Z" fill="black"/>
<path d="M12 4C16.4 4 20 7.6 20 12C20 13.1 19.8 14.2 19.4 15.1L20.9 16.6C21.6 15.2 22 13.6 22 12C22 6.5 17.5 2 12 2C10.3 2 8.8 2.4 7.4 3.1L8.9 4.6C9.8 4.2 10.9 4 12 4Z" fill="black"/>
</svg>
